<?xml version="1.0" encoding="utf-8"?>
<!-- Generator: Adobe Illustrator 25.2.1, SVG Export Plug-In . SVG Version: 6.00 Build 0)  -->
<svg version="1.1" id="レイヤー_1" xmlns="http://www.w3.org/2000/svg" xmlns:xlink="http://www.w3.org/1999/xlink" x="0px"
	 y="0px" viewBox="0 0 160 50.2" style="enable-background:new 0 0 160 50.2;" xml:space="preserve">
<style type="text/css">
	.st0{fill:#1B67B2;}
	.st1{fill:#FFFFFF;}
	.st2{fill:#EEBF3B;}
</style>
<g>
	<path class="st0" d="M56.3,0.6h5.4c2,0,3.7,0.9,3.7,2.9c0,1.5-0.7,2.5-2.2,2.9v0c1,0.3,1,1.1,1.6,2.5l1.1,3.1h-3.2l-0.6-2
		c-0.6-1.9-1-2.4-2.1-2.4h-0.6v4.5h-3V0.6z M59.3,5.3h0.8c1,0,2.2,0,2.2-1.3c0-1.1-1.1-1.3-2.2-1.3h-0.8V5.3z"/>
	<path class="st0" d="M67.8,0.6h3v11.3h-3V0.6z"/>
	<path class="st0" d="M73.4,0.6h3v4.6h0l3.4-4.6h3.6l-4.2,5.3l4.5,6.1H80l-3.5-5.1h0v5.1h-3V0.6z"/>
	<path class="st0" d="M85.7,0.6h8v2.1h-5v2.3h4.7v2.1h-4.7v2.6h5.1v2.1h-8.2V0.6z"/>
	<path class="st0" d="M96.2,0.6h3.8l3.8,7.7h0l0-7.7h2.8v11.3h-3.8l-4-7.7h0l0.1,7.7h-2.8V0.6z"/>
	<path class="st0" d="M61.2,31.1h-0.2c-3.7,0-5.7-2.3-5.7-5.9c0-3.6,1.9-5.9,5.7-5.9s5.7,2.2,5.7,5.9c0,2.6-1,4.4-2.9,5.3l2.7,2.5
		h-3.4L61.2,31.1z M61.1,28.9c1.8,0,2.6-1.8,2.6-3.6c0-2-0.7-3.6-2.6-3.6c-1.8,0-2.6,1.7-2.6,3.6C58.5,27.1,59.2,28.9,61.1,28.9z"/>
	<path class="st0" d="M78.9,26.6c0,3.1-2,4.5-5,4.5c-3,0-5-1.4-5-4.5v-7h3v6.5c0,1.5,0.4,2.8,1.9,2.8s1.9-1.3,1.9-2.8v-6.5h3V26.6z"
		/>
	<path class="st0" d="M84.3,19.6H88l4.4,11.3H89l-0.8-2.4h-4.3L83,30.9h-3.1L84.3,19.6z M86.1,21.9L86.1,21.9l-1.5,4.4h2.8
		L86.1,21.9z"/>
	<path class="st0" d="M94.1,19.6h3.8l3.8,7.7h0l0-7.7h2.8v11.3h-3.8l-4-7.7h0l0.1,7.7h-2.8V19.6z"/>
	<path class="st0" d="M109.7,21.8h-2.8v-2.2h8.6v2.2h-2.8v9.1h-3V21.8z"/>
	<path class="st0" d="M127.7,26.6c0,3.1-2,4.5-5,4.5c-3,0-5-1.4-5-4.5v-7h3v6.5c0,1.5,0.4,2.8,1.9,2.8s1.9-1.3,1.9-2.8v-6.5h3V26.6z
		"/>
	<path class="st0" d="M130.2,19.6h4.8l2.4,7.5h0l2.5-7.5h4.6v11.3h-3l0-8.7h0l-2.9,8.7h-2.8l-2.8-8.7h0l0.1,8.7h-3V19.6z"/>
	<path class="st0" d="M66,49.7c-0.9,0.2-1.8,0.5-3.4,0.5c-3,0-6.5-1.5-6.5-5.8c0-3.9,2.8-5.9,6.5-5.9c1.2,0,2.3,0.3,3.4,0.6
		l-0.2,2.5c-1-0.5-1.9-0.8-3-0.8c-2.1,0-3.5,1.6-3.5,3.7c0,2.2,1.6,3.6,3.8,3.6c1,0,2-0.3,2.8-0.6L66,49.7z"/>
	<path class="st0" d="M73.3,38.4c3.7,0,5.7,2.2,5.7,5.9c0,3.6-2,5.9-5.7,5.9s-5.7-2.3-5.7-5.9C67.6,40.6,69.5,38.4,73.3,38.4z
		 M73.3,47.9c1.8,0,2.6-1.8,2.6-3.6c0-2-0.7-3.6-2.6-3.6c-1.8,0-2.6,1.7-2.6,3.6C70.7,46.2,71.4,47.9,73.3,47.9z"/>
	<path class="st0" d="M81.2,38.6H86l2.4,7.5h0l2.5-7.5h4.6V50h-3l0-8.7h0L89.7,50h-2.8l-2.8-8.7h0l0.1,8.7h-3V38.6z"/>
	<path class="st0" d="M98,38.6h3.6c3.5,0,5.1,1.2,5.1,3.7c0,2.3-1.7,3.7-4.5,3.7h-1.2v4h-3V38.6z M101.1,43.8h0.8
		c1,0,1.9-0.4,1.9-1.6c0-1.2-0.8-1.5-1.9-1.5h-0.8V43.8z"/>
	<path class="st0" d="M118.4,45.7c0,3.1-2,4.5-5,4.5c-3,0-5-1.4-5-4.5v-7h3v6.5c0,1.5,0.4,2.8,1.9,2.8c1.5,0,1.9-1.3,1.9-2.8v-6.5h3
		V45.7z"/>
	<path class="st0" d="M123.4,40.9h-2.8v-2.2h8.6v2.2h-2.8V50h-3V40.9z"/>
	<path class="st0" d="M131.3,38.6h3V50h-3V38.6z"/>
	<path class="st0" d="M136.7,38.6h3.8l3.8,7.7h0l0-7.7h2.8V50h-3.8l-4-7.7h0l0.1,7.7h-2.8V38.6z"/>
	<path class="st0" d="M160,49.6c-1.9,0.5-3.3,0.5-4.4,0.5c-3,0-6.5-1.5-6.5-5.8c0-4.3,3-5.9,7.2-5.9c0.7,0,2.3,0.1,3.4,0.5l-0.2,2.5
		c-0.9-0.6-2-0.7-2.8-0.7c-2.5,0-4.5,1-4.5,3.7c0,2.2,1.6,3.6,3.8,3.6c0.4,0,0.8-0.1,1.1-0.2v-2.2h-1.8v-2.1h4.7V49.6z"/>
	<g>
		<rect class="st0" width="50" height="50"/>
		<g>
			<path class="st1" d="M25,36.2c-6.2,0-11.2-5-11.2-11.2s5-11.2,11.2-11.2c6.2,0,11.2,5,11.2,11.2c0,2.4-0.8,4.7-2.1,6.5l2.6,2.6
				c2-2.5,3.2-5.7,3.2-9.1c0-8.2-6.7-14.9-14.9-14.9S10.1,16.8,10.1,25S16.8,39.9,25,39.9c3.4,0,6.6-1.2,9.1-3.2l-2.6-2.6
				C29.7,35.4,27.4,36.2,25,36.2z"/>
			<path class="st1" d="M25,42.7c-9.8,0-17.7-8-17.7-17.7S15.2,7.3,25,7.3s17.7,8,17.7,17.7c0,4.2-1.5,8.1-4,11.2l2.6,2.6
				c3.1-3.7,5-8.5,5-13.8c0-11.8-9.6-21.4-21.4-21.4S3.6,13.2,3.6,25S13.2,46.4,25,46.4c5.2,0,10-1.9,13.8-5l-2.6-2.6
				C33.1,41.2,29.2,42.7,25,42.7z"/>
			<path class="st2" d="M34.1,36.7l2,2c1-0.8,1.8-1.6,2.6-2.6l-2-2C36,35.1,35.1,36,34.1,36.7z"/>
		</g>
	</g>
</g>
</svg>
