<?xml version="1.0" encoding="UTF-8"?>
<svg xmlns="http://www.w3.org/2000/svg" xmlns:xlink="http://www.w3.org/1999/xlink" width="667" height="467" viewBox="0 0 667 467">
<defs>
<g>
<g id="glyph-0-0-04c29248">
<path d="M 11.078125 -12.078125 C 11.078125 -12.078125 6.609375 -12.078125 6.609375 -12.078125 C 6.609375 -12.078125 6.609375 0 6.609375 0 C 6.609375 0 4.875 0 4.875 0 C 4.875 0 4.875 -12.078125 4.875 -12.078125 C 4.875 -12.078125 0.390625 -12.078125 0.390625 -12.078125 C 0.390625 -12.078125 0.390625 -13.609375 0.390625 -13.609375 C 0.390625 -13.609375 11.078125 -13.609375 11.078125 -13.609375 C 11.078125 -13.609375 11.078125 -12.078125 11.078125 -12.078125 Z M 11.078125 -12.078125 "/>
</g>
<g id="glyph-1-0-04c29248">
<path d="M 2.859375 0 C 2.859375 0 1.3125 0 1.3125 0 C 1.3125 0 1.3125 -9.78125 1.3125 -9.78125 C 1.3125 -9.78125 2.859375 -9.78125 2.859375 -9.78125 C 2.859375 -9.78125 2.859375 0 2.859375 0 Z M 3.0625 -11.265625 C 3.0625 -11.265625 1.125 -11.265625 1.125 -11.265625 C 1.125 -11.265625 1.125 -13.203125 1.125 -13.203125 C 1.125 -13.203125 3.0625 -13.203125 3.0625 -13.203125 C 3.0625 -13.203125 3.0625 -11.265625 3.0625 -11.265625 Z M 3.0625 -11.265625 "/>
</g>
<g id="glyph-1-1-04c29248">
<path d="M 14.1875 0 C 14.1875 0 12.640625 0 12.640625 0 C 12.640625 0 12.640625 -6.734375 12.640625 -6.734375 C 12.640625 -7.96875 11.984375 -8.703125 10.84375 -8.703125 C 9.578125 -8.703125 8.53125 -7.5625 8.53125 -6.140625 C 8.53125 -6.140625 8.53125 0 8.53125 0 C 8.53125 0 6.984375 0 6.984375 0 C 6.984375 0 6.984375 -6.734375 6.984375 -6.734375 C 6.984375 -7.984375 6.328125 -8.703125 5.171875 -8.703125 C 3.90625 -8.703125 2.875 -7.5625 2.875 -6.140625 C 2.875 -6.140625 2.875 0 2.875 0 C 2.875 0 1.328125 0 1.328125 0 C 1.328125 0 1.328125 -9.78125 1.328125 -9.78125 C 1.328125 -9.78125 2.75 -9.78125 2.75 -9.78125 C 2.75 -9.78125 2.75 -8.40625 2.75 -8.40625 C 3.578125 -9.578125 4.4375 -10.0625 5.75 -10.0625 C 7.015625 -10.0625 7.8125 -9.609375 8.390625 -8.578125 C 9.296875 -9.671875 10.078125 -10.0625 11.390625 -10.0625 C 13.21875 -10.0625 14.1875 -9.09375 14.1875 -7.34375 C 14.1875 -7.34375 14.1875 0 14.1875 0 Z M 14.1875 0 "/>
</g>
<g id="glyph-1-2-04c29248">
<path d="M 9.578125 -4.4375 C 9.578125 -4.4375 2.375 -4.4375 2.375 -4.4375 C 2.40625 -2.203125 3.625 -1.15625 5.25 -1.15625 C 6.5 -1.15625 7.375 -1.6875 7.8125 -2.96875 C 7.8125 -2.96875 9.375 -2.96875 9.375 -2.96875 C 8.984375 -0.984375 7.4375 0.28125 5.1875 0.28125 C 2.453125 0.28125 0.75 -1.625 0.75 -4.84375 C 0.75 -8.046875 2.5 -10.0625 5.234375 -10.0625 C 7.0625 -10.0625 8.546875 -9.09375 9.1875 -7.484375 C 9.46875 -6.765625 9.578125 -5.859375 9.578125 -4.4375 Z M 7.921875 -5.828125 C 7.921875 -7.359375 6.734375 -8.625 5.203125 -8.625 C 3.640625 -8.625 2.546875 -7.453125 2.40625 -5.71875 C 2.40625 -5.71875 7.890625 -5.71875 7.890625 -5.71875 C 7.921875 -5.75 7.921875 -5.828125 7.921875 -5.828125 Z M 7.921875 -5.828125 "/>
</g>
<g id="glyph-1-3-04c29248">
<path d="M 9.46875 -6.359375 C 9.46875 -2.015625 7.9375 0.28125 5.140625 0.28125 C 2.296875 0.28125 0.796875 -2.015625 0.796875 -6.484375 C 0.796875 -10.921875 2.28125 -13.234375 5.140625 -13.234375 C 8.015625 -13.234375 9.46875 -10.953125 9.46875 -6.359375 Z M 7.78125 -6.515625 C 7.78125 -10.0625 6.90625 -11.78125 5.140625 -11.78125 C 3.359375 -11.78125 2.484375 -10.078125 2.484375 -6.453125 C 2.484375 -2.84375 3.359375 -1.078125 5.09375 -1.078125 C 6.921875 -1.078125 7.78125 -2.765625 7.78125 -6.515625 Z M 7.78125 -6.515625 "/>
</g>
<g id="glyph-1-4-04c29248">
<path d="M 9.578125 -4.390625 C 9.578125 -1.59375 7.71875 0.28125 5.046875 0.28125 C 2.6875 0.28125 1.1875 -0.765625 0.65625 -3.390625 C 0.65625 -3.390625 2.296875 -3.390625 2.296875 -3.390625 C 2.6875 -1.90625 3.5625 -1.171875 5 -1.171875 C 6.796875 -1.171875 7.890625 -2.265625 7.890625 -4.15625 C 7.890625 -6.125 6.78125 -7.265625 5 -7.265625 C 3.984375 -7.265625 3.34375 -6.953125 2.578125 -6.03125 C 2.578125 -6.03125 1.0625 -6.03125 1.0625 -6.03125 C 1.0625 -6.03125 2.046875 -12.953125 2.046875 -12.953125 C 2.046875 -12.953125 8.890625 -12.953125 8.890625 -12.953125 C 8.890625 -12.953125 8.890625 -11.328125 8.890625 -11.328125 C 8.890625 -11.328125 3.375 -11.328125 3.375 -11.328125 C 3.375 -11.328125 2.859375 -7.921875 2.859375 -7.921875 C 3.625 -8.484375 4.375 -8.71875 5.296875 -8.71875 C 7.84375 -8.71875 9.578125 -7 9.578125 -4.390625 Z M 9.578125 -4.390625 "/>
</g>
<g id="glyph-1-5-04c29248">
<path d="M 6.484375 0 C 6.484375 0 4.84375 0 4.84375 0 C 4.84375 0 4.84375 -9.421875 4.84375 -9.421875 C 4.84375 -9.421875 1.90625 -9.421875 1.90625 -9.421875 C 1.90625 -9.421875 1.90625 -10.609375 1.90625 -10.609375 C 4.4375 -10.921875 4.8125 -11.203125 5.390625 -13.234375 C 5.390625 -13.234375 6.484375 -13.234375 6.484375 -13.234375 C 6.484375 -13.234375 6.484375 0 6.484375 0 Z M 6.484375 0 "/>
</g>
<g id="glyph-1-6-04c29248">
<path d="M 9.546875 -9.359375 C 9.546875 -7.734375 8.59375 -6.34375 6.734375 -5.359375 C 6.734375 -5.359375 4.875 -4.34375 4.875 -4.34375 C 3.25 -3.390625 2.65625 -2.703125 2.484375 -1.625 C 2.484375 -1.625 9.453125 -1.625 9.453125 -1.625 C 9.453125 -1.625 9.453125 0 9.453125 0 C 9.453125 0 0.640625 0 0.640625 0 C 0.78125 -2.90625 1.59375 -4.15625 4.34375 -5.734375 C 4.34375 -5.734375 6.0625 -6.703125 6.0625 -6.703125 C 7.25 -7.375 7.859375 -8.265625 7.859375 -9.3125 C 7.859375 -10.734375 6.734375 -11.796875 5.25 -11.796875 C 3.625 -11.796875 2.703125 -10.859375 2.578125 -8.640625 C 2.578125 -8.640625 0.9375 -8.640625 0.9375 -8.640625 C 1.03125 -11.859375 2.59375 -13.234375 5.296875 -13.234375 C 7.8125 -13.234375 9.546875 -11.59375 9.546875 -9.359375 Z M 9.546875 -9.359375 "/>
</g>
<g id="glyph-1-7-04c29248">
<path d="M 9.703125 -3.171875 C 9.703125 -3.171875 7.75 -3.171875 7.75 -3.171875 C 7.75 -3.171875 7.75 0 7.75 0 C 7.75 0 6.109375 0 6.109375 0 C 6.109375 0 6.109375 -3.171875 6.109375 -3.171875 C 6.109375 -3.171875 0.515625 -3.171875 0.515625 -3.171875 C 0.515625 -3.171875 0.515625 -4.90625 0.515625 -4.90625 C 0.515625 -4.90625 6.53125 -13.234375 6.53125 -13.234375 C 6.53125 -13.234375 7.75 -13.234375 7.75 -13.234375 C 7.75 -13.234375 7.75 -4.65625 7.75 -4.65625 C 7.75 -4.65625 9.703125 -4.65625 9.703125 -4.65625 C 9.703125 -4.65625 9.703125 -3.171875 9.703125 -3.171875 Z M 6.109375 -4.65625 C 6.109375 -4.65625 6.109375 -10.4375 6.109375 -10.4375 C 6.109375 -10.4375 1.953125 -4.65625 1.953125 -4.65625 C 1.953125 -4.65625 6.109375 -4.65625 6.109375 -4.65625 Z M 6.109375 -4.65625 "/>
</g>
<g id="glyph-1-8-04c29248">
<path d="M 9.578125 -4.109375 C 9.578125 -1.515625 7.765625 0.28125 5.25 0.28125 C 2.21875 0.28125 0.796875 -1.90625 0.796875 -6.03125 C 0.796875 -10.640625 2.46875 -13.234375 5.546875 -13.234375 C 7.5625 -13.234375 8.984375 -11.953125 9.296875 -9.78125 C 9.296875 -9.78125 7.65625 -9.78125 7.65625 -9.78125 C 7.390625 -11.046875 6.59375 -11.78125 5.4375 -11.78125 C 3.546875 -11.78125 2.5 -9.984375 2.484375 -6.765625 C 3.1875 -7.734375 4.21875 -8.234375 5.53125 -8.234375 C 7.890625 -8.234375 9.578125 -6.578125 9.578125 -4.109375 Z M 7.890625 -3.984375 C 7.890625 -5.75 6.90625 -6.78125 5.328125 -6.78125 C 3.703125 -6.78125 2.578125 -5.71875 2.578125 -4.078125 C 2.578125 -2.375 3.734375 -1.171875 5.265625 -1.171875 C 6.78125 -1.171875 7.890625 -2.3125 7.890625 -3.984375 Z M 7.890625 -3.984375 "/>
</g>
<g id="glyph-1-9-04c29248">
<path d="M 9.703125 -11.578125 C 6.921875 -8.265625 5.0625 -4.28125 4.328125 0 C 4.328125 0 2.578125 0 2.578125 0 C 3.515625 -4.140625 5.375 -8.015625 8.015625 -11.328125 C 8.015625 -11.328125 0.859375 -11.328125 0.859375 -11.328125 C 0.859375 -11.328125 0.859375 -12.953125 0.859375 -12.953125 C 0.859375 -12.953125 9.703125 -12.953125 9.703125 -12.953125 C 9.703125 -12.953125 9.703125 -11.578125 9.703125 -11.578125 Z M 9.703125 -11.578125 "/>
</g>
<g id="glyph-1-10-04c29248">
</g>
<g id="glyph-1-11-04c29248">
<path d="M 4.75 0 C 4.21875 0.09375 3.84375 0.125 3.46875 0.125 C 2.265625 0.125 1.59375 -0.421875 1.59375 -1.421875 C 1.59375 -1.421875 1.59375 -8.515625 1.59375 -8.515625 C 1.59375 -8.515625 0.265625 -8.515625 0.265625 -8.515625 C 0.265625 -8.515625 0.265625 -9.78125 0.265625 -9.78125 C 0.265625 -9.78125 1.59375 -9.78125 1.59375 -9.78125 C 1.59375 -9.78125 1.59375 -12.46875 1.59375 -12.46875 C 1.59375 -12.46875 3.140625 -12.46875 3.140625 -12.46875 C 3.140625 -12.46875 3.140625 -9.78125 3.140625 -9.78125 C 3.140625 -9.78125 4.75 -9.78125 4.75 -9.78125 C 4.75 -9.78125 4.75 -8.515625 4.75 -8.515625 C 4.75 -8.515625 3.140625 -8.515625 3.140625 -8.515625 C 3.140625 -8.515625 3.140625 -2.109375 3.140625 -2.109375 C 3.140625 -1.421875 3.328125 -1.234375 4 -1.234375 C 4.296875 -1.234375 4.53125 -1.25 4.75 -1.3125 C 4.75 -1.3125 4.75 0 4.75 0 Z M 4.75 0 "/>
</g>
<g id="glyph-1-12-04c29248">
<path d="M 6 -8.421875 C 3.578125 -8.390625 2.859375 -7.28125 2.859375 -5.078125 C 2.859375 -5.078125 2.859375 0 2.859375 0 C 2.859375 0 1.3125 0 1.3125 0 C 1.3125 0 1.3125 -9.78125 1.3125 -9.78125 C 1.3125 -9.78125 2.71875 -9.78125 2.71875 -9.78125 C 2.71875 -9.78125 2.71875 -8.015625 2.71875 -8.015625 C 3.625 -9.46875 4.390625 -10.0625 5.390625 -10.0625 C 5.609375 -10.0625 5.734375 -10.046875 6 -10.015625 C 6 -10.015625 6 -8.421875 6 -8.421875 Z M 6 -8.421875 "/>
</g>
<g id="glyph-1-13-04c29248">
<path d="M 9.984375 -0.03125 C 9.484375 0.09375 9.25 0.125 8.921875 0.125 C 8.15625 0.125 7.484375 -0.40625 7.3125 -1.15625 C 6.453125 -0.25 5.25 0.28125 4 0.28125 C 2.015625 0.28125 0.78125 -0.765625 0.78125 -2.546875 C 0.78125 -3.734375 1.359375 -4.609375 2.5 -5.078125 C 3.09375 -5.328125 3.4375 -5.390625 5.640625 -5.671875 C 6.875 -5.828125 7.265625 -6.109375 7.265625 -6.765625 C 7.265625 -6.765625 7.265625 -7.171875 7.265625 -7.171875 C 7.265625 -8.109375 6.484375 -8.625 5.078125 -8.625 C 3.625 -8.625 2.90625 -8.078125 2.78125 -6.890625 C 2.78125 -6.890625 1.21875 -6.890625 1.21875 -6.890625 C 1.3125 -9.15625 2.765625 -10.0625 5.140625 -10.0625 C 7.546875 -10.0625 8.8125 -9.125 8.8125 -7.390625 C 8.8125 -7.390625 8.8125 -1.9375 8.8125 -1.9375 C 8.8125 -1.453125 9.109375 -1.171875 9.65625 -1.171875 C 9.75 -1.171875 9.828125 -1.171875 9.984375 -1.21875 C 9.984375 -1.21875 9.984375 -0.03125 9.984375 -0.03125 Z M 7.265625 -3.375 C 7.265625 -3.375 7.265625 -4.84375 7.265625 -4.84375 C 6.734375 -4.59375 6.40625 -4.515625 4.765625 -4.296875 C 3.09375 -4.046875 2.40625 -3.609375 2.40625 -2.578125 C 2.40625 -1.515625 3.125 -1.078125 4.328125 -1.078125 C 5.84375 -1.078125 7.265625 -1.984375 7.265625 -3.375 Z M 7.265625 -3.375 "/>
</g>
<g id="glyph-1-14-04c29248">
<path d="M 2.859375 2.03125 C 2.859375 3.359375 1.9375 4.078125 0.1875 4.078125 C -0.0625 4.078125 -0.15625 4.046875 -0.34375 4.015625 C -0.34375 4.015625 -0.34375 2.6875 -0.34375 2.6875 C -0.34375 2.6875 0.03125 2.703125 0.03125 2.703125 C 0.984375 2.765625 1.3125 2.359375 1.3125 1.421875 C 1.3125 1.421875 1.3125 -9.78125 1.3125 -9.78125 C 1.3125 -9.78125 2.859375 -9.78125 2.859375 -9.78125 C 2.859375 -9.78125 2.859375 2.03125 2.859375 2.03125 Z M 3.0625 -11.265625 C 3.0625 -11.265625 1.125 -11.265625 1.125 -11.265625 C 1.125 -11.265625 1.125 -13.203125 1.125 -13.203125 C 1.125 -13.203125 3.0625 -13.203125 3.0625 -13.203125 C 3.0625 -13.203125 3.0625 -11.265625 3.0625 -11.265625 Z M 3.0625 -11.265625 "/>
</g>
<g id="glyph-1-15-04c29248">
<path d="M 8.90625 -3.359375 C 8.71875 -1.125 7.25 0.28125 4.90625 0.28125 C 2.265625 0.28125 0.578125 -1.640625 0.578125 -4.796875 C 0.578125 -8.046875 2.296875 -10.0625 4.921875 -10.0625 C 7.109375 -10.0625 8.609375 -8.890625 8.796875 -6.5 C 8.796875 -6.5 7.21875 -6.5 7.21875 -6.5 C 7.046875 -7.859375 6.21875 -8.625 4.90625 -8.625 C 3.21875 -8.625 2.203125 -7.25 2.203125 -4.796875 C 2.203125 -2.484375 3.234375 -1.15625 4.953125 -1.15625 C 6.28125 -1.15625 7.078125 -1.796875 7.34375 -3.359375 C 7.34375 -3.359375 8.90625 -3.359375 8.90625 -3.359375 Z M 8.90625 -3.359375 "/>
</g>
<g id="glyph-1-16-04c29248">
<path d="M 9.515625 -4.8125 C 9.515625 -1.609375 7.84375 0.28125 5.09375 0.28125 C 2.3125 0.28125 0.671875 -1.609375 0.671875 -4.890625 C 0.671875 -8.171875 2.328125 -10.0625 5.078125 -10.0625 C 7.890625 -10.0625 9.515625 -8.203125 9.515625 -4.8125 Z M 7.890625 -4.84375 C 7.890625 -7.265625 6.859375 -8.625 5.09375 -8.625 C 3.359375 -8.625 2.296875 -7.25 2.296875 -4.890625 C 2.296875 -2.515625 3.359375 -1.15625 5.09375 -1.15625 C 6.8125 -1.15625 7.890625 -2.546875 7.890625 -4.84375 Z M 7.890625 -4.84375 "/>
</g>
<g id="glyph-1-17-04c29248">
<path d="M 8.578125 -2.75 C 8.578125 -0.859375 7 0.28125 4.53125 0.28125 C 1.984375 0.28125 0.703125 -0.734375 0.640625 -2.984375 C 0.640625 -2.984375 2.28125 -2.984375 2.28125 -2.984375 C 2.484375 -1.5 3.265625 -1.15625 4.671875 -1.15625 C 6.03125 -1.15625 6.953125 -1.703125 6.953125 -2.609375 C 6.953125 -3.328125 6.515625 -3.640625 5.4375 -3.90625 C 5.4375 -3.90625 3.984375 -4.25 3.984375 -4.25 C 1.65625 -4.8125 0.875 -5.546875 0.875 -7.078125 C 0.875 -8.890625 2.359375 -10.0625 4.625 -10.0625 C 6.890625 -10.0625 8.15625 -8.984375 8.171875 -7.0625 C 8.171875 -7.0625 6.53125 -7.0625 6.53125 -7.0625 C 6.5 -8.078125 5.828125 -8.625 4.578125 -8.625 C 3.3125 -8.625 2.5 -8.046875 2.5 -7.15625 C 2.5 -6.453125 3.046875 -6.046875 4.3125 -5.75 C 4.3125 -5.75 5.8125 -5.390625 5.8125 -5.390625 C 7.75 -4.921875 8.578125 -4.203125 8.578125 -2.75 Z M 8.578125 -2.75 "/>
</g>
<g id="glyph-2-0-04c29248">
<path d="M 0 -11.453125 C 0 -11.453125 0 -1.6875 0 -1.6875 C 0 -1.6875 -13.609375 -1.6875 -13.609375 -1.6875 C -13.609375 -1.6875 -13.609375 -11.109375 -13.609375 -11.109375 C -13.609375 -11.109375 -12.078125 -11.109375 -12.078125 -11.109375 C -12.078125 -11.109375 -12.078125 -3.421875 -12.078125 -3.421875 C -12.078125 -3.421875 -7.734375 -3.421875 -7.734375 -3.421875 C -7.734375 -3.421875 -7.734375 -10.828125 -7.734375 -10.828125 C -7.734375 -10.828125 -6.203125 -10.828125 -6.203125 -10.828125 C -6.203125 -10.828125 -6.203125 -3.421875 -6.203125 -3.421875 C -6.203125 -3.421875 -1.53125 -3.421875 -1.53125 -3.421875 C -1.53125 -3.421875 -1.53125 -11.453125 -1.53125 -11.453125 C -1.53125 -11.453125 0 -11.453125 0 -11.453125 Z M 0 -11.453125 "/>
</g>
<g id="glyph-2-1-04c29248">
<path d="M 0 -4.75 C 0.09375 -4.21875 0.125 -3.84375 0.125 -3.46875 C 0.125 -2.265625 -0.421875 -1.59375 -1.421875 -1.59375 C -1.421875 -1.59375 -8.515625 -1.59375 -8.515625 -1.59375 C -8.515625 -1.59375 -8.515625 -0.265625 -8.515625 -0.265625 C -8.515625 -0.265625 -9.78125 -0.265625 -9.78125 -0.265625 C -9.78125 -0.265625 -9.78125 -1.59375 -9.78125 -1.59375 C -9.78125 -1.59375 -12.46875 -1.59375 -12.46875 -1.59375 C -12.46875 -1.59375 -12.46875 -3.140625 -12.46875 -3.140625 C -12.46875 -3.140625 -9.78125 -3.140625 -9.78125 -3.140625 C -9.78125 -3.140625 -9.78125 -4.75 -9.78125 -4.75 C -9.78125 -4.75 -8.515625 -4.75 -8.515625 -4.75 C -8.515625 -4.75 -8.515625 -3.140625 -8.515625 -3.140625 C -8.515625 -3.140625 -2.109375 -3.140625 -2.109375 -3.140625 C -1.421875 -3.140625 -1.234375 -3.328125 -1.234375 -4 C -1.234375 -4.296875 -1.25 -4.53125 -1.3125 -4.75 C -1.3125 -4.75 0 -4.75 0 -4.75 Z M 0 -4.75 "/>
</g>
<g id="glyph-2-2-04c29248">
<path d="M -9.78125 -9.078125 C -9.78125 -9.078125 0 -5.328125 0 -5.328125 C 0 -5.328125 0 -3.625 0 -3.625 C 0 -3.625 -9.78125 -0.1875 -9.78125 -0.1875 C -9.78125 -0.1875 -9.78125 -1.9375 -9.78125 -1.9375 C -9.78125 -1.9375 -1.84375 -4.5625 -1.84375 -4.5625 C -1.84375 -4.5625 -9.78125 -7.3125 -9.78125 -7.3125 C -9.78125 -7.3125 -9.78125 -9.078125 -9.78125 -9.078125 Z M -9.78125 -9.078125 "/>
</g>
<g id="glyph-3-0-04c29248">
<path d="M 0 -8.828125 C 0 -8.828125 0 -7.015625 0 -7.015625 C 0 -7.015625 -3.75 -4.578125 -3.75 -4.578125 C -3.75 -4.578125 0 -2.09375 0 -2.09375 C 0 -2.09375 0 -0.3125 0 -0.3125 C 0 -0.3125 -4.984375 -3.765625 -4.984375 -3.765625 C -4.984375 -3.765625 -9.78125 -0.5 -9.78125 -0.5 C -9.78125 -0.5 -9.78125 -2.28125 -9.78125 -2.28125 C -9.78125 -2.28125 -6.234375 -4.625 -6.234375 -4.625 C -6.234375 -4.625 -9.78125 -6.984375 -9.78125 -6.984375 C -9.78125 -6.984375 -9.78125 -8.734375 -9.78125 -8.734375 C -9.78125 -8.734375 -5.0625 -5.453125 -5.0625 -5.453125 C -5.0625 -5.453125 0 -8.828125 0 -8.828125 Z M 0 -8.828125 "/>
</g>
<g id="glyph-4-0-04c29248">
<path d="M -4.796875 -9.765625 C -1.6875 -9.765625 0.28125 -8.109375 0.28125 -5.578125 C 0.28125 -4.3125 -0.171875 -3.390625 -1.171875 -2.578125 C -1.171875 -2.578125 4.078125 -2.578125 4.078125 -2.578125 C 4.078125 -2.578125 4.078125 -1.03125 4.078125 -1.03125 C 4.078125 -1.03125 -9.78125 -1.03125 -9.78125 -1.03125 C -9.78125 -1.03125 -9.78125 -2.453125 -9.78125 -2.453125 C -9.78125 -2.453125 -8.3125 -2.453125 -8.3125 -2.453125 C -9.46875 -3.171875 -10.0625 -4.234375 -10.0625 -5.5625 C -10.0625 -8.15625 -8.078125 -9.765625 -4.796875 -9.765625 Z M -4.84375 -8.140625 C -7.171875 -8.140625 -8.609375 -7.015625 -8.609375 -5.296875 C -8.609375 -3.65625 -7.109375 -2.578125 -4.8125 -2.578125 C -2.515625 -2.578125 -1.171875 -3.65625 -1.171875 -5.296875 C -1.171875 -7 -2.609375 -8.140625 -4.84375 -8.140625 Z M -4.84375 -8.140625 "/>
</g>
<g id="glyph-5-0-04c29248">
<path d="M -4.4375 -9.578125 C -4.4375 -9.578125 -4.4375 -2.375 -4.4375 -2.375 C -2.203125 -2.40625 -1.15625 -3.625 -1.15625 -5.25 C -1.15625 -6.5 -1.6875 -7.375 -2.96875 -7.8125 C -2.96875 -7.8125 -2.96875 -9.375 -2.96875 -9.375 C -0.984375 -8.984375 0.28125 -7.4375 0.28125 -5.1875 C 0.28125 -2.453125 -1.625 -0.75 -4.84375 -0.75 C -8.046875 -0.75 -10.0625 -2.5 -10.0625 -5.234375 C -10.0625 -7.0625 -9.09375 -8.546875 -7.484375 -9.1875 C -6.765625 -9.46875 -5.859375 -9.578125 -4.4375 -9.578125 Z M -5.828125 -7.921875 C -7.359375 -7.921875 -8.625 -6.734375 -8.625 -5.203125 C -8.625 -3.640625 -7.453125 -2.546875 -5.71875 -2.40625 C -5.71875 -2.40625 -5.71875 -7.890625 -5.71875 -7.890625 C -5.75 -7.921875 -5.828125 -7.921875 -5.828125 -7.921875 Z M -5.828125 -7.921875 "/>
</g>
<g id="glyph-5-1-04c29248">
<path d="M -2.75 -8.578125 C -0.859375 -8.578125 0.28125 -7 0.28125 -4.53125 C 0.28125 -1.984375 -0.734375 -0.703125 -2.984375 -0.640625 C -2.984375 -0.640625 -2.984375 -2.28125 -2.984375 -2.28125 C -1.5 -2.484375 -1.15625 -3.265625 -1.15625 -4.671875 C -1.15625 -6.03125 -1.703125 -6.953125 -2.609375 -6.953125 C -3.328125 -6.953125 -3.640625 -6.515625 -3.90625 -5.4375 C -3.90625 -5.4375 -4.25 -3.984375 -4.25 -3.984375 C -4.8125 -1.65625 -5.546875 -0.875 -7.078125 -0.875 C -8.890625 -0.875 -10.0625 -2.359375 -10.0625 -4.625 C -10.0625 -6.890625 -8.984375 -8.15625 -7.0625 -8.171875 C -7.0625 -8.171875 -7.0625 -6.53125 -7.0625 -6.53125 C -8.078125 -6.5 -8.625 -5.828125 -8.625 -4.578125 C -8.625 -3.3125 -8.046875 -2.5 -7.15625 -2.5 C -6.453125 -2.5 -6.046875 -3.046875 -5.75 -4.3125 C -5.75 -4.3125 -5.390625 -5.8125 -5.390625 -5.8125 C -4.921875 -7.75 -4.203125 -8.578125 -2.75 -8.578125 Z M -2.75 -8.578125 "/>
</g>
<g id="glyph-6-0-04c29248">
<path d="M -3.359375 -8.90625 C -1.125 -8.71875 0.28125 -7.25 0.28125 -4.90625 C 0.28125 -2.265625 -1.640625 -0.578125 -4.796875 -0.578125 C -8.046875 -0.578125 -10.0625 -2.296875 -10.0625 -4.921875 C -10.0625 -7.109375 -8.890625 -8.609375 -6.5 -8.796875 C -6.5 -8.796875 -6.5 -7.21875 -6.5 -7.21875 C -7.859375 -7.046875 -8.625 -6.21875 -8.625 -4.90625 C -8.625 -3.21875 -7.25 -2.203125 -4.796875 -2.203125 C -2.484375 -2.203125 -1.15625 -3.234375 -1.15625 -4.953125 C -1.15625 -6.28125 -1.796875 -7.078125 -3.359375 -7.34375 C -3.359375 -7.34375 -3.359375 -8.90625 -3.359375 -8.90625 Z M -3.359375 -8.90625 "/>
</g>
<g id="glyph-7-0-04c29248">
<path d="M -0.03125 -9.984375 C 0.09375 -9.484375 0.125 -9.25 0.125 -8.921875 C 0.125 -8.15625 -0.40625 -7.484375 -1.15625 -7.3125 C -0.25 -6.453125 0.28125 -5.25 0.28125 -4 C 0.28125 -2.015625 -0.765625 -0.78125 -2.546875 -0.78125 C -3.734375 -0.78125 -4.609375 -1.359375 -5.078125 -2.5 C -5.328125 -3.09375 -5.390625 -3.4375 -5.671875 -5.640625 C -5.828125 -6.875 -6.109375 -7.265625 -6.765625 -7.265625 C -6.765625 -7.265625 -7.171875 -7.265625 -7.171875 -7.265625 C -8.109375 -7.265625 -8.625 -6.484375 -8.625 -5.078125 C -8.625 -3.625 -8.078125 -2.90625 -6.890625 -2.78125 C -6.890625 -2.78125 -6.890625 -1.21875 -6.890625 -1.21875 C -9.15625 -1.3125 -10.0625 -2.765625 -10.0625 -5.140625 C -10.0625 -7.546875 -9.125 -8.8125 -7.390625 -8.8125 C -7.390625 -8.8125 -1.9375 -8.8125 -1.9375 -8.8125 C -1.453125 -8.8125 -1.171875 -9.109375 -1.171875 -9.65625 C -1.171875 -9.75 -1.171875 -9.828125 -1.21875 -9.984375 C -1.21875 -9.984375 -0.03125 -9.984375 -0.03125 -9.984375 Z M -3.375 -7.265625 C -3.375 -7.265625 -4.84375 -7.265625 -4.84375 -7.265625 C -4.59375 -6.734375 -4.515625 -6.40625 -4.296875 -4.765625 C -4.046875 -3.09375 -3.609375 -2.40625 -2.578125 -2.40625 C -1.515625 -2.40625 -1.078125 -3.125 -1.078125 -4.328125 C -1.078125 -5.84375 -1.984375 -7.265625 -3.375 -7.265625 Z M -3.375 -7.265625 "/>
</g>
<g id="glyph-7-1-04c29248">
<path d="M 0 -4.75 C 0.09375 -4.21875 0.125 -3.84375 0.125 -3.46875 C 0.125 -2.265625 -0.421875 -1.59375 -1.421875 -1.59375 C -1.421875 -1.59375 -8.515625 -1.59375 -8.515625 -1.59375 C -8.515625 -1.59375 -8.515625 -0.265625 -8.515625 -0.265625 C -8.515625 -0.265625 -9.78125 -0.265625 -9.78125 -0.265625 C -9.78125 -0.265625 -9.78125 -1.59375 -9.78125 -1.59375 C -9.78125 -1.59375 -12.46875 -1.59375 -12.46875 -1.59375 C -12.46875 -1.59375 -12.46875 -3.140625 -12.46875 -3.140625 C -12.46875 -3.140625 -9.78125 -3.140625 -9.78125 -3.140625 C -9.78125 -3.140625 -9.78125 -4.75 -9.78125 -4.75 C -9.78125 -4.75 -8.515625 -4.75 -8.515625 -4.75 C -8.515625 -4.75 -8.515625 -3.140625 -8.515625 -3.140625 C -8.515625 -3.140625 -2.109375 -3.140625 -2.109375 -3.140625 C -1.421875 -3.140625 -1.234375 -3.328125 -1.234375 -4 C -1.234375 -4.296875 -1.25 -4.53125 -1.3125 -4.75 C -1.3125 -4.75 0 -4.75 0 -4.75 Z M 0 -4.75 "/>
</g>
<g id="glyph-7-2-04c29248">
<path d="M 0 -2.8125 C 0 -2.8125 0 -1.265625 0 -1.265625 C 0 -1.265625 -13.609375 -1.265625 -13.609375 -1.265625 C -13.609375 -1.265625 -13.609375 -2.8125 -13.609375 -2.8125 C -13.609375 -2.8125 0 -2.8125 0 -2.8125 Z M 0 -2.8125 "/>
</g>
<g id="glyph-8-0-04c29248">
<path d="M 0 -2.859375 C 0 -2.859375 0 -1.3125 0 -1.3125 C 0 -1.3125 -9.78125 -1.3125 -9.78125 -1.3125 C -9.78125 -1.3125 -9.78125 -2.859375 -9.78125 -2.859375 C -9.78125 -2.859375 0 -2.859375 0 -2.859375 Z M -11.265625 -3.0625 C -11.265625 -3.0625 -11.265625 -1.125 -11.265625 -1.125 C -11.265625 -1.125 -13.203125 -1.125 -13.203125 -1.125 C -13.203125 -1.125 -13.203125 -3.0625 -13.203125 -3.0625 C -13.203125 -3.0625 -11.265625 -3.0625 -11.265625 -3.0625 Z M -11.265625 -3.0625 "/>
</g>
<g id="glyph-9-0-04c29248">
<path d="M -4.8125 -9.515625 C -1.609375 -9.515625 0.28125 -7.84375 0.28125 -5.09375 C 0.28125 -2.3125 -1.609375 -0.671875 -4.890625 -0.671875 C -8.171875 -0.671875 -10.0625 -2.328125 -10.0625 -5.078125 C -10.0625 -7.890625 -8.203125 -9.515625 -4.8125 -9.515625 Z M -4.84375 -7.890625 C -7.265625 -7.890625 -8.625 -6.859375 -8.625 -5.09375 C -8.625 -3.359375 -7.25 -2.296875 -4.890625 -2.296875 C -2.515625 -2.296875 -1.15625 -3.359375 -1.15625 -5.09375 C -1.15625 -6.8125 -2.546875 -7.890625 -4.84375 -7.890625 Z M -4.84375 -7.890625 "/>
</g>
<g id="glyph-10-0-04c29248">
<path d="M 0 -9.09375 C 0 -9.09375 0 -7.546875 0 -7.546875 C 0 -7.546875 -6.78125 -7.546875 -6.78125 -7.546875 C -7.953125 -7.546875 -8.703125 -6.765625 -8.703125 -5.53125 C -8.703125 -3.9375 -7.390625 -2.859375 -5.390625 -2.859375 C -5.390625 -2.859375 0 -2.859375 0 -2.859375 C 0 -2.859375 0 -1.3125 0 -1.3125 C 0 -1.3125 -9.78125 -1.3125 -9.78125 -1.3125 C -9.78125 -1.3125 -9.78125 -2.75 -9.78125 -2.75 C -9.78125 -2.75 -8.140625 -2.75 -8.140625 -2.75 C -9.5 -3.609375 -10.0625 -4.53125 -10.0625 -6 C -10.0625 -7.875 -9.015625 -9.09375 -7.390625 -9.09375 C -7.390625 -9.09375 0 -9.09375 0 -9.09375 Z M 0 -9.09375 "/>
</g>
<g id="glyph-11-0-04c29248">
</g>
<g id="glyph-12-0-04c29248">
<path d="M 0 -9 C 0 -9 0 -7.59375 0 -7.59375 C 0 -7.59375 -1.515625 -7.59375 -1.515625 -7.59375 C -0.21875 -6.6875 0.28125 -5.765625 0.28125 -4.328125 C 0.28125 -2.421875 -0.765625 -1.21875 -2.390625 -1.21875 C -2.390625 -1.21875 -9.78125 -1.21875 -9.78125 -1.21875 C -9.78125 -1.21875 -9.78125 -2.765625 -9.78125 -2.765625 C -9.78125 -2.765625 -3 -2.765625 -3 -2.765625 C -1.828125 -2.765625 -1.078125 -3.546875 -1.078125 -4.78125 C -1.078125 -6.40625 -2.390625 -7.453125 -4.390625 -7.453125 C -4.390625 -7.453125 -9.78125 -7.453125 -9.78125 -7.453125 C -9.78125 -7.453125 -9.78125 -9 -9.78125 -9 C -9.78125 -9 0 -9 0 -9 Z M 0 -9 "/>
</g>
<g id="glyph-13-0-04c29248">
<path d="M 9.453125 -3.84375 C 9.453125 -1.34375 7.6875 0.28125 4.96875 0.28125 C 2.265625 0.28125 0.796875 -1.046875 0.59375 -4 C 0.59375 -4 2.234375 -4 2.234375 -4 C 2.359375 -2.078125 3.234375 -1.171875 5.015625 -1.171875 C 6.734375 -1.171875 7.765625 -2.171875 7.765625 -3.828125 C 7.765625 -5.296875 6.828125 -6.15625 5.015625 -6.15625 C 5.015625 -6.15625 4.125 -6.15625 4.125 -6.15625 C 4.125 -6.15625 4.125 -7.546875 4.125 -7.546875 C 6.765625 -7.546875 7.375 -8.125 7.375 -9.546875 C 7.375 -10.9375 6.5 -11.796875 5.046875 -11.796875 C 3.359375 -11.796875 2.5625 -10.921875 2.515625 -8.96875 C 2.515625 -8.96875 0.875 -8.96875 0.875 -8.96875 C 0.9375 -11.78125 2.359375 -13.234375 5.015625 -13.234375 C 7.546875 -13.234375 9.0625 -11.875 9.0625 -9.59375 C 9.0625 -8.265625 8.4375 -7.40625 7.203125 -6.921875 C 8.796875 -6.390625 9.453125 -5.453125 9.453125 -3.84375 Z M 9.453125 -3.84375 "/>
</g>
<g id="glyph-14-0-04c29248">
<path d="M 9.578125 -3.734375 C 9.578125 -1.328125 7.75 0.28125 5.140625 0.28125 C 2.515625 0.28125 0.6875 -1.328125 0.6875 -3.75 C 0.6875 -5.203125 1.4375 -6.234375 2.953125 -6.96875 C 1.609375 -7.8125 1.15625 -8.484375 1.15625 -9.703125 C 1.15625 -11.78125 2.796875 -13.234375 5.140625 -13.234375 C 7.484375 -13.234375 9.109375 -11.78125 9.109375 -9.703125 C 9.109375 -8.453125 8.65625 -7.78125 7.296875 -6.96875 C 8.828125 -6.234375 9.578125 -5.203125 9.578125 -3.734375 Z M 7.4375 -9.671875 C 7.4375 -10.953125 6.53125 -11.78125 5.140625 -11.78125 C 3.75 -11.78125 2.84375 -10.953125 2.84375 -9.6875 C 2.84375 -8.4375 3.75 -7.625 5.140625 -7.625 C 6.515625 -7.625 7.4375 -8.4375 7.4375 -9.671875 Z M 7.890625 -3.71875 C 7.890625 -5.265625 6.78125 -6.234375 5.140625 -6.234375 C 3.484375 -6.234375 2.375 -5.265625 2.375 -3.71875 C 2.375 -2.171875 3.484375 -1.171875 5.09375 -1.171875 C 6.78125 -1.171875 7.890625 -2.140625 7.890625 -3.71875 Z M 7.890625 -3.71875 "/>
</g>
<g id="glyph-14-1-04c29248">
<path d="M 6.484375 0 C 6.484375 0 4.84375 0 4.84375 0 C 4.84375 0 4.84375 -9.421875 4.84375 -9.421875 C 4.84375 -9.421875 1.90625 -9.421875 1.90625 -9.421875 C 1.90625 -9.421875 1.90625 -10.609375 1.90625 -10.609375 C 4.4375 -10.921875 4.8125 -11.203125 5.390625 -13.234375 C 5.390625 -13.234375 6.484375 -13.234375 6.484375 -13.234375 C 6.484375 -13.234375 6.484375 0 6.484375 0 Z M 6.484375 0 "/>
</g>
<g id="glyph-14-2-04c29248">
</g>
<g id="glyph-14-3-04c29248">
<path d="M 4.75 0 C 4.21875 0.09375 3.84375 0.125 3.46875 0.125 C 2.265625 0.125 1.59375 -0.421875 1.59375 -1.421875 C 1.59375 -1.421875 1.59375 -8.515625 1.59375 -8.515625 C 1.59375 -8.515625 0.265625 -8.515625 0.265625 -8.515625 C 0.265625 -8.515625 0.265625 -9.78125 0.265625 -9.78125 C 0.265625 -9.78125 1.59375 -9.78125 1.59375 -9.78125 C 1.59375 -9.78125 1.59375 -12.46875 1.59375 -12.46875 C 1.59375 -12.46875 3.140625 -12.46875 3.140625 -12.46875 C 3.140625 -12.46875 3.140625 -9.78125 3.140625 -9.78125 C 3.140625 -9.78125 4.75 -9.78125 4.75 -9.78125 C 4.75 -9.78125 4.75 -8.515625 4.75 -8.515625 C 4.75 -8.515625 3.140625 -8.515625 3.140625 -8.515625 C 3.140625 -8.515625 3.140625 -2.109375 3.140625 -2.109375 C 3.140625 -1.421875 3.328125 -1.234375 4 -1.234375 C 4.296875 -1.234375 4.53125 -1.25 4.75 -1.3125 C 4.75 -1.3125 4.75 0 4.75 0 Z M 4.75 0 "/>
</g>
<g id="glyph-14-4-04c29248">
<path d="M 6 -8.421875 C 3.578125 -8.390625 2.859375 -7.28125 2.859375 -5.078125 C 2.859375 -5.078125 2.859375 0 2.859375 0 C 2.859375 0 1.3125 0 1.3125 0 C 1.3125 0 1.3125 -9.78125 1.3125 -9.78125 C 1.3125 -9.78125 2.71875 -9.78125 2.71875 -9.78125 C 2.71875 -9.78125 2.71875 -8.015625 2.71875 -8.015625 C 3.625 -9.46875 4.390625 -10.0625 5.390625 -10.0625 C 5.609375 -10.0625 5.734375 -10.046875 6 -10.015625 C 6 -10.015625 6 -8.421875 6 -8.421875 Z M 6 -8.421875 "/>
</g>
<g id="glyph-14-5-04c29248">
<path d="M 9.984375 -0.03125 C 9.484375 0.09375 9.25 0.125 8.921875 0.125 C 8.15625 0.125 7.484375 -0.40625 7.3125 -1.15625 C 6.453125 -0.25 5.25 0.28125 4 0.28125 C 2.015625 0.28125 0.78125 -0.765625 0.78125 -2.546875 C 0.78125 -3.734375 1.359375 -4.609375 2.5 -5.078125 C 3.09375 -5.328125 3.4375 -5.390625 5.640625 -5.671875 C 6.875 -5.828125 7.265625 -6.109375 7.265625 -6.765625 C 7.265625 -6.765625 7.265625 -7.171875 7.265625 -7.171875 C 7.265625 -8.109375 6.484375 -8.625 5.078125 -8.625 C 3.625 -8.625 2.90625 -8.078125 2.78125 -6.890625 C 2.78125 -6.890625 1.21875 -6.890625 1.21875 -6.890625 C 1.3125 -9.15625 2.765625 -10.0625 5.140625 -10.0625 C 7.546875 -10.0625 8.8125 -9.125 8.8125 -7.390625 C 8.8125 -7.390625 8.8125 -1.9375 8.8125 -1.9375 C 8.8125 -1.453125 9.109375 -1.171875 9.65625 -1.171875 C 9.75 -1.171875 9.828125 -1.171875 9.984375 -1.21875 C 9.984375 -1.21875 9.984375 -0.03125 9.984375 -0.03125 Z M 7.265625 -3.375 C 7.265625 -3.375 7.265625 -4.84375 7.265625 -4.84375 C 6.734375 -4.59375 6.40625 -4.515625 4.765625 -4.296875 C 3.09375 -4.046875 2.40625 -3.609375 2.40625 -2.578125 C 2.40625 -1.515625 3.125 -1.078125 4.328125 -1.078125 C 5.84375 -1.078125 7.265625 -1.984375 7.265625 -3.375 Z M 7.265625 -3.375 "/>
</g>
<g id="glyph-14-6-04c29248">
<path d="M 2.859375 2.03125 C 2.859375 3.359375 1.9375 4.078125 0.1875 4.078125 C -0.0625 4.078125 -0.15625 4.046875 -0.34375 4.015625 C -0.34375 4.015625 -0.34375 2.6875 -0.34375 2.6875 C -0.34375 2.6875 0.03125 2.703125 0.03125 2.703125 C 0.984375 2.765625 1.3125 2.359375 1.3125 1.421875 C 1.3125 1.421875 1.3125 -9.78125 1.3125 -9.78125 C 1.3125 -9.78125 2.859375 -9.78125 2.859375 -9.78125 C 2.859375 -9.78125 2.859375 2.03125 2.859375 2.03125 Z M 3.0625 -11.265625 C 3.0625 -11.265625 1.125 -11.265625 1.125 -11.265625 C 1.125 -11.265625 1.125 -13.203125 1.125 -13.203125 C 1.125 -13.203125 3.0625 -13.203125 3.0625 -13.203125 C 3.0625 -13.203125 3.0625 -11.265625 3.0625 -11.265625 Z M 3.0625 -11.265625 "/>
</g>
<g id="glyph-14-7-04c29248">
<path d="M 9.578125 -4.4375 C 9.578125 -4.4375 2.375 -4.4375 2.375 -4.4375 C 2.40625 -2.203125 3.625 -1.15625 5.25 -1.15625 C 6.5 -1.15625 7.375 -1.6875 7.8125 -2.96875 C 7.8125 -2.96875 9.375 -2.96875 9.375 -2.96875 C 8.984375 -0.984375 7.4375 0.28125 5.1875 0.28125 C 2.453125 0.28125 0.75 -1.625 0.75 -4.84375 C 0.75 -8.046875 2.5 -10.0625 5.234375 -10.0625 C 7.0625 -10.0625 8.546875 -9.09375 9.1875 -7.484375 C 9.46875 -6.765625 9.578125 -5.859375 9.578125 -4.4375 Z M 7.921875 -5.828125 C 7.921875 -7.359375 6.734375 -8.625 5.203125 -8.625 C 3.640625 -8.625 2.546875 -7.453125 2.40625 -5.71875 C 2.40625 -5.71875 7.890625 -5.71875 7.890625 -5.71875 C 7.921875 -5.75 7.921875 -5.828125 7.921875 -5.828125 Z M 7.921875 -5.828125 "/>
</g>
<g id="glyph-14-8-04c29248">
<path d="M 8.90625 -3.359375 C 8.71875 -1.125 7.25 0.28125 4.90625 0.28125 C 2.265625 0.28125 0.578125 -1.640625 0.578125 -4.796875 C 0.578125 -8.046875 2.296875 -10.0625 4.921875 -10.0625 C 7.109375 -10.0625 8.609375 -8.890625 8.796875 -6.5 C 8.796875 -6.5 7.21875 -6.5 7.21875 -6.5 C 7.046875 -7.859375 6.21875 -8.625 4.90625 -8.625 C 3.21875 -8.625 2.203125 -7.25 2.203125 -4.796875 C 2.203125 -2.484375 3.234375 -1.15625 4.953125 -1.15625 C 6.28125 -1.15625 7.078125 -1.796875 7.34375 -3.359375 C 7.34375 -3.359375 8.90625 -3.359375 8.90625 -3.359375 Z M 8.90625 -3.359375 "/>
</g>
<g id="glyph-14-9-04c29248">
<path d="M 9.515625 -4.8125 C 9.515625 -1.609375 7.84375 0.28125 5.09375 0.28125 C 2.3125 0.28125 0.671875 -1.609375 0.671875 -4.890625 C 0.671875 -8.171875 2.328125 -10.0625 5.078125 -10.0625 C 7.890625 -10.0625 9.515625 -8.203125 9.515625 -4.8125 Z M 7.890625 -4.84375 C 7.890625 -7.265625 6.859375 -8.625 5.09375 -8.625 C 3.359375 -8.625 2.296875 -7.25 2.296875 -4.890625 C 2.296875 -2.515625 3.359375 -1.15625 5.09375 -1.15625 C 6.8125 -1.15625 7.890625 -2.546875 7.890625 -4.84375 Z M 7.890625 -4.84375 "/>
</g>
<g id="glyph-14-10-04c29248">
<path d="M 8.921875 -9.78125 C 8.921875 -9.78125 4.578125 2.046875 4.578125 2.046875 C 4.046875 3.453125 3.15625 4.078125 2.046875 4.078125 C 1.640625 4.078125 1.328125 4 1.015625 3.828125 C 1.015625 3.828125 1.015625 2.421875 1.015625 2.421875 C 1.34375 2.5 1.609375 2.546875 1.828125 2.546875 C 2.5 2.546875 2.8125 2.28125 3.078125 1.59375 C 3.078125 1.59375 3.671875 0.03125 3.671875 0.03125 C 3.671875 0.03125 0.375 -9.78125 0.375 -9.78125 C 0.375 -9.78125 2.03125 -9.78125 2.03125 -9.78125 C 2.03125 -9.78125 4.53125 -2.171875 4.53125 -2.171875 C 4.53125 -2.171875 7.25 -9.78125 7.25 -9.78125 C 7.25 -9.78125 8.921875 -9.78125 8.921875 -9.78125 Z M 8.921875 -9.78125 "/>
</g>
<g id="glyph-15-0-04c29248">
<path d="M 14.484375 0 C 14.484375 0 11.6875 0 11.6875 0 C 11.6875 0 11.6875 -10.609375 11.6875 -10.609375 C 11.6875 -10.609375 9.28125 0 9.28125 0 C 9.28125 0 6.484375 0 6.484375 0 C 6.484375 0 4.03125 -10.609375 4.03125 -10.609375 C 4.03125 -10.609375 4.03125 0 4.03125 0 C 4.03125 0 1.234375 0 1.234375 0 C 1.234375 0 1.234375 -13.609375 1.234375 -13.609375 C 1.234375 -13.609375 5.421875 -13.609375 5.421875 -13.609375 C 5.421875 -13.609375 7.875 -2.78125 7.875 -2.78125 C 7.875 -2.78125 10.265625 -13.609375 10.265625 -13.609375 C 10.265625 -13.609375 14.484375 -13.609375 14.484375 -13.609375 C 14.484375 -13.609375 14.484375 0 14.484375 0 Z M 14.484375 0 "/>
</g>
<g id="glyph-15-1-04c29248">
<path d="M 10.625 -4.96875 C 10.625 -1.734375 8.703125 0.171875 5.640625 0.171875 C 2.546875 0.171875 0.65625 -1.71875 0.65625 -5.046875 C 0.65625 -8.34375 2.546875 -10.25 5.625 -10.25 C 8.78125 -10.25 10.625 -8.390625 10.625 -4.96875 Z M 8.015625 -5 C 8.015625 -6.984375 7.078125 -8.140625 5.640625 -8.140625 C 4.21875 -8.140625 3.265625 -6.96875 3.265625 -5.046875 C 3.265625 -3.125 4.21875 -1.9375 5.640625 -1.9375 C 7.046875 -1.9375 8.015625 -3.125 8.015625 -5 Z M 8.015625 -5 "/>
</g>
<g id="glyph-15-2-04c29248">
<path d="M 10.1875 0 C 10.1875 0 7.578125 0 7.578125 0 C 7.578125 0 7.578125 -6.21875 7.578125 -6.21875 C 7.578125 -7.40625 7.015625 -8.03125 5.90625 -8.03125 C 4.625 -8.03125 3.796875 -7.25 3.796875 -6.046875 C 3.796875 -6.046875 3.796875 0 3.796875 0 C 3.796875 0 1.171875 0 1.171875 0 C 1.171875 0 1.171875 -10.078125 1.171875 -10.078125 C 1.171875 -10.078125 3.796875 -10.078125 3.796875 -10.078125 C 3.796875 -10.078125 3.796875 -8.625 3.796875 -8.625 C 4.53125 -9.75 5.453125 -10.25 6.8125 -10.25 C 8.96875 -10.25 10.1875 -8.984375 10.1875 -6.765625 C 10.1875 -6.765625 10.1875 0 10.1875 0 Z M 10.1875 0 "/>
</g>
<g id="glyph-15-3-04c29248">
<path d="M 5.625 0 C 5.15625 0.015625 4.6875 0.078125 4.109375 0.078125 C 2.390625 0.078125 1.546875 -0.578125 1.546875 -2.171875 C 1.546875 -2.171875 1.546875 -8.140625 1.546875 -8.140625 C 1.546875 -8.140625 0.265625 -8.140625 0.265625 -8.140625 C 0.265625 -8.140625 0.265625 -9.875 0.265625 -9.875 C 0.265625 -9.875 1.546875 -9.875 1.546875 -9.875 C 1.546875 -9.875 1.546875 -12.578125 1.546875 -12.578125 C 1.546875 -12.578125 4.15625 -12.578125 4.15625 -12.578125 C 4.15625 -12.578125 4.15625 -9.875 4.15625 -9.875 C 4.15625 -9.875 5.625 -9.875 5.625 -9.875 C 5.625 -9.875 5.625 -8.140625 5.625 -8.140625 C 5.625 -8.140625 4.15625 -8.140625 4.15625 -8.140625 C 4.15625 -8.140625 4.15625 -2.875 4.15625 -2.875 C 4.15625 -1.984375 4.328125 -1.78125 5.015625 -1.78125 C 5.203125 -1.78125 5.359375 -1.796875 5.625 -1.828125 C 5.625 -1.828125 5.625 0 5.625 0 Z M 5.625 0 "/>
</g>
<g id="glyph-15-4-04c29248">
<path d="M 9.796875 -4.671875 C 9.796875 -4.671875 9.78125 -4.34375 9.78125 -4.34375 C 9.78125 -4.34375 3.03125 -4.34375 3.03125 -4.34375 C 3.09375 -2.390625 3.890625 -1.828125 5.109375 -1.828125 C 6.0625 -1.828125 6.890625 -2.109375 7.109375 -2.84375 C 7.109375 -2.84375 9.6875 -2.84375 9.6875 -2.84375 C 9.109375 -0.859375 7.28125 0.171875 5.015625 0.171875 C 2.171875 0.171875 0.40625 -1.6875 0.40625 -4.90625 C 0.40625 -8.296875 2.1875 -10.25 5.078125 -10.25 C 8.046875 -10.25 9.796875 -8.140625 9.796875 -4.671875 Z M 7.078125 -6.09375 C 6.953125 -7.53125 6.15625 -8.25 5.046875 -8.25 C 3.890625 -8.25 3.234375 -7.484375 3.0625 -6.09375 C 3.0625 -6.09375 7.078125 -6.09375 7.078125 -6.09375 Z M 7.078125 -6.09375 "/>
</g>
<g id="glyph-15-5-04c29248">
</g>
<g id="glyph-15-6-04c29248">
<path d="M 12.796875 -4.65625 C 12.625 -1.53125 10.359375 0.21875 6.984375 0.21875 C 3.1875 0.21875 0.828125 -2.421875 0.828125 -6.796875 C 0.828125 -11.203125 3.21875 -13.84375 7.0625 -13.84375 C 10.125 -13.84375 12.484375 -12.140625 12.734375 -9 C 12.734375 -9 10.0625 -9 10.0625 -9 C 9.65625 -10.75 8.65625 -11.453125 7.15625 -11.453125 C 4.953125 -11.453125 3.625 -9.765625 3.625 -6.765625 C 3.625 -3.796875 4.890625 -2.125 7.0625 -2.125 C 8.796875 -2.125 9.890625 -2.90625 10.0625 -4.65625 C 10.0625 -4.65625 12.796875 -4.65625 12.796875 -4.65625 Z M 12.796875 -4.65625 "/>
</g>
<g id="glyph-15-7-04c29248">
<path d="M 9.78125 0 C 9.78125 0 6.953125 0 6.953125 0 C 6.703125 -0.296875 6.640625 -0.75 6.640625 -1.265625 C 5.734375 -0.3125 4.703125 0.171875 3.578125 0.171875 C 1.90625 0.171875 0.515625 -0.765625 0.515625 -2.71875 C 0.515625 -4.5625 1.5 -5.421875 3.484375 -5.765625 C 3.484375 -5.765625 4.53125 -5.953125 4.53125 -5.953125 C 5.84375 -6.1875 6.625 -6.0625 6.625 -7.125 C 6.625 -7.8125 6.125 -8.140625 5.109375 -8.140625 C 3.828125 -8.140625 3.390625 -7.8125 3.265625 -6.765625 C 3.265625 -6.765625 0.75 -6.765625 0.75 -6.765625 C 0.921875 -9.09375 2.328125 -10.25 5.0625 -10.25 C 7.78125 -10.25 9.1875 -9.203125 9.1875 -7.15625 C 9.1875 -7.15625 9.1875 -1.546875 9.1875 -1.546875 C 9.1875 -1.03125 9.3125 -0.75 9.78125 -0.3125 C 9.78125 -0.3125 9.78125 0 9.78125 0 Z M 6.625 -4.3125 C 6.625 -4.3125 6.625 -4.765625 6.625 -4.765625 C 6.328125 -4.609375 6.21875 -4.578125 5.53125 -4.4375 C 5.53125 -4.4375 4.625 -4.28125 4.625 -4.28125 C 3.546875 -4.078125 3.140625 -3.796875 3.140625 -3.03125 C 3.140625 -2.28125 3.671875 -1.9375 4.5625 -1.9375 C 5.875 -1.9375 6.625 -2.796875 6.625 -4.3125 Z M 6.625 -4.3125 "/>
</g>
<g id="glyph-15-8-04c29248">
<path d="M 3.859375 0 C 3.859375 0 1.25 0 1.25 0 C 1.25 0 1.25 -10.078125 1.25 -10.078125 C 1.25 -10.078125 3.859375 -10.078125 3.859375 -10.078125 C 3.859375 -10.078125 3.859375 0 3.859375 0 Z M 3.90625 -11.296875 C 3.90625 -11.296875 1.28125 -11.296875 1.28125 -11.296875 C 1.28125 -11.296875 1.28125 -13.90625 1.28125 -13.90625 C 1.28125 -13.90625 3.90625 -13.90625 3.90625 -13.90625 C 3.90625 -13.90625 3.90625 -11.296875 3.90625 -11.296875 Z M 3.90625 -11.296875 "/>
</g>
<g id="glyph-15-9-04c29248">
<path d="M 15.390625 0 C 15.390625 0 12.765625 0 12.765625 0 C 12.765625 0 12.765625 -6.71875 12.765625 -6.71875 C 12.765625 -7.53125 12.234375 -8.03125 11.359375 -8.03125 C 10.234375 -8.03125 9.5625 -7.28125 9.5625 -6.046875 C 9.5625 -6.046875 9.5625 0 9.5625 0 C 9.5625 0 6.953125 0 6.953125 0 C 6.953125 0 6.953125 -6.71875 6.953125 -6.71875 C 6.953125 -7.53125 6.40625 -8.03125 5.53125 -8.03125 C 4.40625 -8.03125 3.734375 -7.28125 3.734375 -6.046875 C 3.734375 -6.046875 3.734375 0 3.734375 0 C 3.734375 0 1.125 0 1.125 0 C 1.125 0 1.125 -10.078125 1.125 -10.078125 C 1.125 -10.078125 3.71875 -10.078125 3.71875 -10.078125 C 3.71875 -10.078125 3.71875 -8.828125 3.71875 -8.828125 C 4.578125 -9.859375 5.328125 -10.25 6.484375 -10.25 C 7.734375 -10.25 8.734375 -9.703125 9.21875 -8.75 C 10.015625 -9.796875 10.90625 -10.25 12.171875 -10.25 C 14.1875 -10.25 15.390625 -9.09375 15.390625 -7.125 C 15.390625 -7.125 15.390625 0 15.390625 0 Z M 15.390625 0 "/>
</g>
<g id="glyph-15-10-04c29248">
<path d="M 10.015625 -10.078125 C 10.015625 -10.078125 6.53125 0 6.53125 0 C 6.53125 0 3.796875 0 3.796875 0 C 3.796875 0 0.265625 -10.078125 0.265625 -10.078125 C 0.265625 -10.078125 3.03125 -10.078125 3.03125 -10.078125 C 3.03125 -10.078125 5.203125 -2.703125 5.203125 -2.703125 C 5.203125 -2.703125 7.25 -10.078125 7.25 -10.078125 C 7.25 -10.078125 10.015625 -10.078125 10.015625 -10.078125 Z M 10.015625 -10.078125 "/>
</g>
<g id="glyph-15-11-04c29248">
<path d="M 3.859375 0 C 3.859375 0 1.25 0 1.25 0 C 1.25 0 1.25 -13.609375 1.25 -13.609375 C 1.25 -13.609375 3.859375 -13.609375 3.859375 -13.609375 C 3.859375 -13.609375 3.859375 0 3.859375 0 Z M 3.859375 0 "/>
</g>
<g id="glyph-15-12-04c29248">
<path d="M 10.09375 0 C 10.09375 0 7.484375 0 7.484375 0 C 7.484375 0 7.484375 -1.328125 7.484375 -1.328125 C 6.734375 -0.34375 5.828125 0.171875 4.46875 0.171875 C 2.3125 0.171875 1.078125 -1.109375 1.078125 -3.328125 C 1.078125 -3.328125 1.078125 -10.078125 1.078125 -10.078125 C 1.078125 -10.078125 3.703125 -10.078125 3.703125 -10.078125 C 3.703125 -10.078125 3.703125 -3.859375 3.703125 -3.859375 C 3.703125 -2.65625 4.25 -2.046875 5.375 -2.046875 C 6.640625 -2.046875 7.484375 -2.84375 7.484375 -4.03125 C 7.484375 -4.03125 7.484375 -10.078125 7.484375 -10.078125 C 7.484375 -10.078125 10.09375 -10.078125 10.09375 -10.078125 C 10.09375 -10.078125 10.09375 0 10.09375 0 Z M 10.09375 0 "/>
</g>
<g id="glyph-16-0-04c29248">
<path d="M 6.90625 -7.578125 C 6.546875 -7.640625 6.359375 -7.65625 6.09375 -7.65625 C 4.5625 -7.65625 3.796875 -6.890625 3.796875 -5.359375 C 3.796875 -5.359375 3.796875 0 3.796875 0 C 3.796875 0 1.171875 0 1.171875 0 C 1.171875 0 1.171875 -10.078125 1.171875 -10.078125 C 1.171875 -10.078125 3.796875 -10.078125 3.796875 -10.078125 C 3.796875 -10.078125 3.796875 -8.109375 3.796875 -8.109375 C 4.34375 -9.46875 5.390625 -10.25 6.59375 -10.25 C 6.671875 -10.25 6.765625 -10.25 6.90625 -10.234375 C 6.90625 -10.234375 6.90625 -7.578125 6.90625 -7.578125 Z M 6.90625 -7.578125 "/>
</g>
<g id="glyph-16-1-04c29248">
<path d="M 3.859375 0 C 3.859375 0 1.25 0 1.25 0 C 1.25 0 1.25 -13.609375 1.25 -13.609375 C 1.25 -13.609375 3.859375 -13.609375 3.859375 -13.609375 C 3.859375 -13.609375 3.859375 0 3.859375 0 Z M 3.859375 0 "/>
</g>
</g>
</defs>
<path fill-rule="nonzero" fill="rgb(100%, 100%, 100%)" fill-opacity="1" d="M 0 0 L 666.667969 0 L 666.667969 466.667969 L 0 466.667969 Z M 0 0 "/>
<path fill-rule="nonzero" fill="rgb(100%, 100%, 100%)" fill-opacity="1" d="M 72 388 L 645.332031 388 L 645.332031 48 L 72 48 Z M 72 388 "/>
<path fill="none" stroke-width="1" stroke-linecap="butt" stroke-linejoin="miter" stroke="rgb(0%, 0%, 0%)" stroke-opacity="0.12" stroke-miterlimit="1.154701" d="M 73.546875 291 L 73.546875 36 " transform="matrix(1.333333, 0, 0, 1.333333, 0, 0)"/>
<path fill="none" stroke-width="1" stroke-linecap="butt" stroke-linejoin="miter" stroke="rgb(0%, 0%, 0%)" stroke-opacity="0.12" stroke-miterlimit="1.154701" d="M 269.000977 291 L 269.000977 36 " transform="matrix(1.333333, 0, 0, 1.333333, 0, 0)"/>
<path fill="none" stroke-width="1" stroke-linecap="butt" stroke-linejoin="miter" stroke="rgb(0%, 0%, 0%)" stroke-opacity="0.12" stroke-miterlimit="1.154701" d="M 464.455078 291 L 464.455078 36 " transform="matrix(1.333333, 0, 0, 1.333333, 0, 0)"/>
<path fill="none" stroke-width="1" stroke-linecap="butt" stroke-linejoin="miter" stroke="rgb(0%, 0%, 0%)" stroke-opacity="0.12" stroke-miterlimit="1.154701" d="M 54 279.544922 L 483.999023 279.544922 " transform="matrix(1.333333, 0, 0, 1.333333, 0, 0)"/>
<path fill="none" stroke-width="1" stroke-linecap="butt" stroke-linejoin="miter" stroke="rgb(0%, 0%, 0%)" stroke-opacity="0.12" stroke-miterlimit="1.154701" d="M 54 240.884766 L 483.999023 240.884766 " transform="matrix(1.333333, 0, 0, 1.333333, 0, 0)"/>
<path fill="none" stroke-width="1" stroke-linecap="butt" stroke-linejoin="miter" stroke="rgb(0%, 0%, 0%)" stroke-opacity="0.12" stroke-miterlimit="1.154701" d="M 54 202.224609 L 483.999023 202.224609 " transform="matrix(1.333333, 0, 0, 1.333333, 0, 0)"/>
<path fill="none" stroke-width="1" stroke-linecap="butt" stroke-linejoin="miter" stroke="rgb(0%, 0%, 0%)" stroke-opacity="0.12" stroke-miterlimit="1.154701" d="M 54 163.567383 L 483.999023 163.567383 " transform="matrix(1.333333, 0, 0, 1.333333, 0, 0)"/>
<path fill="none" stroke-width="1" stroke-linecap="butt" stroke-linejoin="miter" stroke="rgb(0%, 0%, 0%)" stroke-opacity="0.12" stroke-miterlimit="1.154701" d="M 54 124.907227 L 483.999023 124.907227 " transform="matrix(1.333333, 0, 0, 1.333333, 0, 0)"/>
<path fill="none" stroke-width="1" stroke-linecap="butt" stroke-linejoin="miter" stroke="rgb(0%, 0%, 0%)" stroke-opacity="0.12" stroke-miterlimit="1.154701" d="M 54 86.25 L 483.999023 86.25 " transform="matrix(1.333333, 0, 0, 1.333333, 0, 0)"/>
<path fill="none" stroke-width="1" stroke-linecap="butt" stroke-linejoin="miter" stroke="rgb(0%, 0%, 0%)" stroke-opacity="0.12" stroke-miterlimit="1.154701" d="M 54 47.589844 L 483.999023 47.589844 " transform="matrix(1.333333, 0, 0, 1.333333, 0, 0)"/>
<g fill="rgb(0%, 0%, 0%)" fill-opacity="1">
<use xlink:href="#glyph-0-0-04c29248" x="337.928016" y="442.090667"/>
</g>
<g fill="rgb(0%, 0%, 0%)" fill-opacity="1">
<use xlink:href="#glyph-1-0-04c29248" x="349.33335" y="442.090667"/>
</g>
<g fill="rgb(0%, 0%, 0%)" fill-opacity="1">
<use xlink:href="#glyph-1-1-04c29248" x="353.47735" y="442.090667"/>
</g>
<g fill="rgb(0%, 0%, 0%)" fill-opacity="1">
<use xlink:href="#glyph-1-2-04c29248" x="369.026684" y="442.090667"/>
</g>
<g fill="rgb(0%, 0%, 0%)" fill-opacity="1">
<use xlink:href="#glyph-1-3-04c29248" x="92.871279" y="416.344001"/>
</g>
<g fill="rgb(0%, 0%, 0%)" fill-opacity="1">
<use xlink:href="#glyph-1-4-04c29248" x="353.47735" y="416.344001"/>
</g>
<g fill="rgb(0%, 0%, 0%)" fill-opacity="1">
<use xlink:href="#glyph-1-5-04c29248" x="608.894108" y="416.344001"/>
</g>
<g fill="rgb(0%, 0%, 0%)" fill-opacity="1">
<use xlink:href="#glyph-1-3-04c29248" x="619.272775" y="416.344001"/>
</g>
<g fill="rgb(0%, 0%, 0%)" fill-opacity="1">
<use xlink:href="#glyph-2-0-04c29248" x="37.551997" y="296.334652"/>
</g>
<g fill="rgb(0%, 0%, 0%)" fill-opacity="1">
<use xlink:href="#glyph-3-0-04c29248" x="37.551998" y="283.883984"/>
</g>
<g fill="rgb(0%, 0%, 0%)" fill-opacity="1">
<use xlink:href="#glyph-4-0-04c29248" x="37.551998" y="274.550651"/>
</g>
<g fill="rgb(0%, 0%, 0%)" fill-opacity="1">
<use xlink:href="#glyph-5-0-04c29248" x="37.551999" y="264.171984"/>
</g>
<g fill="rgb(0%, 0%, 0%)" fill-opacity="1">
<use xlink:href="#glyph-6-0-04c29248" x="37.551999" y="253.793319"/>
</g>
<g fill="rgb(0%, 0%, 0%)" fill-opacity="1">
<use xlink:href="#glyph-2-1-04c29248" x="37.552" y="244.459986"/>
</g>
<g fill="rgb(0%, 0%, 0%)" fill-opacity="1">
<use xlink:href="#glyph-7-0-04c29248" x="37.552" y="239.270656"/>
</g>
<g fill="rgb(0%, 0%, 0%)" fill-opacity="1">
<use xlink:href="#glyph-7-1-04c29248" x="37.552001" y="228.891989"/>
</g>
<g fill="rgb(0%, 0%, 0%)" fill-opacity="1">
<use xlink:href="#glyph-8-0-04c29248" x="37.552001" y="223.702659"/>
</g>
<g fill="rgb(0%, 0%, 0%)" fill-opacity="1">
<use xlink:href="#glyph-9-0-04c29248" x="37.552002" y="219.558657"/>
</g>
<g fill="rgb(0%, 0%, 0%)" fill-opacity="1">
<use xlink:href="#glyph-10-0-04c29248" x="37.552002" y="209.179996"/>
</g>
<g fill="rgb(0%, 0%, 0%)" fill-opacity="1">
<use xlink:href="#glyph-11-0-04c29248" x="37.552003" y="198.801335"/>
</g>
<g fill="rgb(0%, 0%, 0%)" fill-opacity="1">
<use xlink:href="#glyph-2-2-04c29248" x="37.552003" y="193.612005"/>
</g>
<g fill="rgb(0%, 0%, 0%)" fill-opacity="1">
<use xlink:href="#glyph-7-0-04c29248" x="37.552003" y="184.278672"/>
</g>
<g fill="rgb(0%, 0%, 0%)" fill-opacity="1">
<use xlink:href="#glyph-7-2-04c29248" x="37.552004" y="173.900012"/>
</g>
<g fill="rgb(0%, 0%, 0%)" fill-opacity="1">
<use xlink:href="#glyph-12-0-04c29248" x="37.552004" y="169.75601"/>
</g>
<g fill="rgb(0%, 0%, 0%)" fill-opacity="1">
<use xlink:href="#glyph-5-0-04c29248" x="37.552005" y="159.377348"/>
</g>
<g fill="rgb(0%, 0%, 0%)" fill-opacity="1">
<use xlink:href="#glyph-5-1-04c29248" x="37.552006" y="148.998686"/>
</g>
<g fill="rgb(0%, 0%, 0%)" fill-opacity="1">
<use xlink:href="#glyph-1-6-04c29248" x="48.288002" y="379.528844"/>
</g>
<g fill="rgb(0%, 0%, 0%)" fill-opacity="1">
<use xlink:href="#glyph-13-0-04c29248" x="48.288002" y="327.983801"/>
</g>
<g fill="rgb(0%, 0%, 0%)" fill-opacity="1">
<use xlink:href="#glyph-1-7-04c29248" x="48.288002" y="276.438748"/>
</g>
<g fill="rgb(0%, 0%, 0%)" fill-opacity="1">
<use xlink:href="#glyph-1-4-04c29248" x="48.288002" y="224.893704"/>
</g>
<g fill="rgb(0%, 0%, 0%)" fill-opacity="1">
<use xlink:href="#glyph-1-8-04c29248" x="48.288002" y="173.34864"/>
</g>
<g fill="rgb(0%, 0%, 0%)" fill-opacity="1">
<use xlink:href="#glyph-1-9-04c29248" x="48.288002" y="121.803597"/>
</g>
<g fill="rgb(0%, 0%, 0%)" fill-opacity="1">
<use xlink:href="#glyph-14-0-04c29248" x="48.288002" y="70.258554"/>
</g>
<g fill="rgb(0%, 0%, 0%)" fill-opacity="1">
<use xlink:href="#glyph-15-0-04c29248" x="238.873353" y="38.597338"/>
</g>
<g fill="rgb(0%, 0%, 0%)" fill-opacity="1">
<use xlink:href="#glyph-15-1-04c29248" x="254.422691" y="38.597338"/>
</g>
<g fill="rgb(0%, 0%, 0%)" fill-opacity="1">
<use xlink:href="#glyph-15-2-04c29248" x="265.828016" y="38.597338"/>
</g>
<g fill="rgb(0%, 0%, 0%)" fill-opacity="1">
<use xlink:href="#glyph-15-3-04c29248" x="277.233356" y="38.597338"/>
</g>
<g fill="rgb(0%, 0%, 0%)" fill-opacity="1">
<use xlink:href="#glyph-15-4-04c29248" x="283.449354" y="38.597338"/>
</g>
<g fill="rgb(0%, 0%, 0%)" fill-opacity="1">
<use xlink:href="#glyph-15-5-04c29248" x="293.828022" y="38.597338"/>
</g>
<g fill="rgb(0%, 0%, 0%)" fill-opacity="1">
<use xlink:href="#glyph-15-6-04c29248" x="299.017353" y="38.597338"/>
</g>
<g fill="rgb(0%, 0%, 0%)" fill-opacity="1">
<use xlink:href="#glyph-15-7-04c29248" x="312.494684" y="38.597338"/>
</g>
<g fill="rgb(0%, 0%, 0%)" fill-opacity="1">
<use xlink:href="#glyph-16-0-04c29248" x="322.873352" y="38.597338"/>
</g>
<g fill="rgb(0%, 0%, 0%)" fill-opacity="1">
<use xlink:href="#glyph-16-1-04c29248" x="330.13469" y="38.597338"/>
</g>
<g fill="rgb(0%, 0%, 0%)" fill-opacity="1">
<use xlink:href="#glyph-15-1-04c29248" x="335.324021" y="38.597338"/>
</g>
<g fill="rgb(0%, 0%, 0%)" fill-opacity="1">
<use xlink:href="#glyph-15-5-04c29248" x="346.729356" y="38.597338"/>
</g>
<g fill="rgb(0%, 0%, 0%)" fill-opacity="1">
<use xlink:href="#glyph-15-3-04c29248" x="351.918687" y="38.597338"/>
</g>
<g fill="rgb(0%, 0%, 0%)" fill-opacity="1">
<use xlink:href="#glyph-15-8-04c29248" x="358.134691" y="38.597338"/>
</g>
<g fill="rgb(0%, 0%, 0%)" fill-opacity="1">
<use xlink:href="#glyph-15-9-04c29248" x="363.324022" y="38.597338"/>
</g>
<g fill="rgb(0%, 0%, 0%)" fill-opacity="1">
<use xlink:href="#glyph-15-4-04c29248" x="379.918689" y="38.597338"/>
</g>
<g fill="rgb(0%, 0%, 0%)" fill-opacity="1">
<use xlink:href="#glyph-15-5-04c29248" x="390.297351" y="38.597338"/>
</g>
<g fill="rgb(0%, 0%, 0%)" fill-opacity="1">
<use xlink:href="#glyph-15-4-04c29248" x="395.486683" y="38.597338"/>
</g>
<g fill="rgb(0%, 0%, 0%)" fill-opacity="1">
<use xlink:href="#glyph-15-10-04c29248" x="405.865345" y="38.597338"/>
</g>
<g fill="rgb(0%, 0%, 0%)" fill-opacity="1">
<use xlink:href="#glyph-15-1-04c29248" x="416.244008" y="38.597338"/>
</g>
<g fill="rgb(0%, 0%, 0%)" fill-opacity="1">
<use xlink:href="#glyph-15-11-04c29248" x="427.649343" y="38.597338"/>
</g>
<g fill="rgb(0%, 0%, 0%)" fill-opacity="1">
<use xlink:href="#glyph-15-12-04c29248" x="432.838674" y="38.597338"/>
</g>
<g fill="rgb(0%, 0%, 0%)" fill-opacity="1">
<use xlink:href="#glyph-15-3-04c29248" x="444.244009" y="38.597338"/>
</g>
<g fill="rgb(0%, 0%, 0%)" fill-opacity="1">
<use xlink:href="#glyph-15-8-04c29248" x="450.460013" y="38.597338"/>
</g>
<g fill="rgb(0%, 0%, 0%)" fill-opacity="1">
<use xlink:href="#glyph-15-1-04c29248" x="455.649344" y="38.597338"/>
</g>
<g fill="rgb(0%, 0%, 0%)" fill-opacity="1">
<use xlink:href="#glyph-15-2-04c29248" x="467.054679" y="38.597338"/>
</g>
<path fill="none" stroke-width="1.5" stroke-linecap="butt" stroke-linejoin="miter" stroke="rgb(0%, 44.705883%, 69.803923%)" stroke-opacity="1" stroke-dasharray="4.5 4.5 1.5 4.5" stroke-miterlimit="2" d="M 73.546875 47.589844 L 75.509766 49.491211 L 77.475586 54.832031 L 79.438477 62.572266 L 81.404297 71.179688 L 83.367188 78.9375 L 85.333008 84.310547 L 87.295898 86.25 L 89.261719 84.398438 L 91.224609 79.142578 L 93.19043 71.519531 L 95.15332 63.008789 L 97.119141 55.253906 L 99.082031 49.754883 L 101.047852 47.601562 L 103.010742 49.230469 L 104.976562 54.354492 L 106.939453 61.96875 L 108.905273 70.570312 L 110.868164 78.445312 L 112.833984 84.029297 L 114.796875 124.87793 L 116.762695 123.65625 L 118.725586 119.34668 L 120.691406 112.696289 L 122.654297 142.12793 L 124.620117 135.079102 L 126.583008 129.360352 L 128.548828 125.8125 L 130.511719 124.96875 L 132.477539 126.978516 L 134.44043 131.554688 L 136.40625 138.032227 L 138.369141 145.441406 L 140.334961 152.671875 L 142.297852 158.633789 L 144.263672 162.442383 L 146.226562 163.546875 L 148.192383 161.803711 L 150.155273 157.485352 L 152.121094 151.236328 L 154.083984 143.970703 L 156.049805 136.746094 L 158.012695 130.608398 L 159.978516 126.454102 L 161.941406 124.910156 L 163.907227 164.663086 L 165.870117 168.020508 L 167.835938 173.235352 L 169.798828 179.663086 L 171.764648 186.498047 L 173.727539 192.881836 L 175.693359 198.008789 L 177.65625 201.251953 L 179.62207 202.21582 L 181.584961 200.797852 L 183.550781 197.188477 L 185.513672 191.841797 L 187.479492 185.414062 L 189.442383 178.678711 L 191.408203 172.456055 L 193.371094 167.496094 L 195.336914 164.414062 L 197.299805 163.59668 L 199.265625 165.164062 L 201.228516 168.93457 L 203.194336 174.451172 L 205.157227 181.02832 L 207.123047 187.842773 L 209.085938 194.033203 L 211.051758 198.829102 L 213.014648 201.635742 L 214.980469 202.119141 L 216.943359 200.238281 L 218.90918 196.239258 L 220.87207 190.617188 L 222.837891 184.060547 L 224.800781 177.363281 L 226.766602 171.336914 L 228.729492 166.710938 L 230.695312 164.05957 L 232.658203 202.350586 L 234.624023 203.979492 L 236.586914 207.366211 L 238.552734 212.176758 L 240.515625 217.933594 L 242.481445 224.056641 L 244.444336 229.924805 L 246.410156 234.952148 L 248.373047 238.628906 L 250.338867 240.600586 L 252.301758 240.682617 L 254.267578 238.880859 L 256.230469 235.382812 L 258.196289 230.540039 L 260.15918 224.824219 L 262.125 218.794922 L 264.087891 213.032227 L 266.053711 208.095703 L 268.016602 204.46582 L 269.982422 202.508789 L 271.945312 202.426758 L 273.911133 204.243164 L 275.874023 207.788086 L 277.839844 212.71582 L 279.802734 218.53418 L 281.768555 224.660156 L 283.731445 230.472656 L 285.697266 235.382812 L 287.660156 238.907227 L 289.625977 240.697266 L 291.588867 240.585938 L 293.554688 238.605469 L 295.517578 234.955078 L 297.483398 230.000977 L 299.446289 224.229492 L 301.412109 218.200195 L 303.375 212.496094 L 305.34082 207.667969 L 307.303711 204.193359 L 309.269531 202.415039 L 311.232422 202.523438 L 313.198242 204.521484 L 315.164062 208.22168 L 317.126953 213.263672 L 319.092773 219.140625 L 321.055664 225.263672 L 323.021484 231.008789 L 324.984375 235.804688 L 326.950195 239.165039 L 328.913086 240.770508 L 330.878906 240.47168 L 332.841797 238.30957 L 334.807617 234.512695 L 336.770508 229.456055 L 338.736328 223.634766 L 340.699219 217.611328 L 342.665039 211.96875 L 344.62793 207.254883 L 346.59375 203.935547 L 348.556641 202.338867 L 350.522461 202.640625 L 352.485352 204.817383 L 354.451172 208.669922 L 356.414062 213.820312 L 358.379883 219.75 L 360.342773 225.861328 L 362.308594 231.539062 L 364.271484 236.208984 L 366.237305 239.408203 L 368.200195 240.826172 L 370.166016 240.336914 L 372.128906 238.001953 L 374.094727 234.058594 L 376.057617 228.902344 L 378.023438 223.03418 L 379.986328 217.022461 L 381.952148 211.450195 L 383.915039 206.856445 L 385.880859 203.695312 L 387.84375 202.283203 L 389.80957 202.775391 L 391.772461 205.130859 L 393.738281 209.132812 L 395.701172 214.382812 L 397.666992 220.359375 L 399.629883 226.453125 L 401.595703 232.054688 L 403.558594 236.598633 L 405.524414 239.633789 L 407.487305 240.864258 L 409.453125 240.18457 L 411.416016 237.676758 L 413.381836 233.592773 L 415.344727 228.342773 L 417.310547 222.433594 L 419.273438 216.439453 L 421.239258 210.943359 L 423.202148 206.472656 L 425.167969 203.472656 L 427.130859 240.899414 L 429.09668 241.412109 L 431.05957 243.328125 L 433.025391 246.515625 L 434.988281 250.740234 L 436.954102 255.688477 L 438.916992 260.979492 L 440.882812 266.211914 L 442.845703 270.987305 L 444.811523 274.942383 L 446.774414 277.787109 L 448.740234 279.310547 L 450.703125 279.410156 L 452.668945 278.085938 L 454.631836 275.449219 L 456.597656 271.696289 L 458.560547 267.111328 L 460.526367 262.025391 L 462.489258 256.810547 L 464.455078 251.838867 " transform="matrix(1.333333, 0, 0, 1.333333, 0, 0)"/>
<path fill="none" stroke-width="1.5" stroke-linecap="butt" stroke-linejoin="miter" stroke="rgb(90.196079%, 62.352943%, 0%)" stroke-opacity="1" stroke-dasharray="4.5 4.5" stroke-miterlimit="2" d="M 73.546875 47.589844 L 75.509766 64.860352 L 77.475586 69.955078 L 79.438477 81.108398 L 81.404297 93.120117 L 83.367188 100.787109 L 85.333008 113.994141 L 87.295898 116.71582 L 89.261719 116.077148 L 91.224609 116.041992 L 93.19043 109.787109 L 95.15332 102.228516 L 97.119141 94.693359 L 99.082031 88.488281 L 101.047852 84.679688 L 103.010742 83.90332 L 104.976562 86.261719 L 106.939453 91.289062 L 108.905273 98.039062 L 110.868164 105.263672 L 112.833984 111.662109 L 114.796875 116.106445 L 116.762695 117.870117 L 118.725586 120.588867 L 120.691406 116.862305 L 122.654297 111.310547 L 124.620117 108.764648 L 126.583008 102.811523 L 128.548828 98.211914 L 130.511719 103.415039 L 132.477539 103.385742 L 134.44043 105.703125 L 136.40625 113.616211 L 138.369141 118.860352 L 140.334961 124.291992 L 142.297852 128.976562 L 144.263672 139.710938 L 146.226562 140.827148 L 148.192383 139.848633 L 150.155273 137.033203 L 152.121094 132.94043 L 154.083984 128.323242 L 156.049805 123.996094 L 158.012695 120.697266 L 159.978516 118.96875 L 161.941406 119.05957 L 163.907227 120.884766 L 165.870117 124.060547 L 167.835938 127.96875 L 169.798828 131.879883 L 171.764648 138.703125 L 173.727539 140.762695 L 175.693359 141.266602 L 177.65625 143.932617 L 179.62207 141.500977 L 181.584961 138.19043 L 183.550781 134.578125 L 185.513672 131.296875 L 187.479492 128.90918 L 189.442383 127.807617 L 191.408203 128.165039 L 193.371094 129.893555 L 195.336914 132.676758 L 197.299805 139.757812 L 199.265625 143.091797 L 201.228516 145.933594 L 203.194336 147.858398 L 205.157227 148.608398 L 207.123047 148.125 L 209.085938 146.537109 L 211.051758 144.143555 L 213.014648 141.342773 L 214.980469 138.585938 L 216.943359 140.141602 L 218.90918 142.438477 L 220.87207 145.669922 L 222.837891 145.96582 L 224.800781 147.09082 L 226.766602 148.819336 L 228.729492 150.84082 L 230.695312 152.821289 L 232.658203 154.458984 L 234.624023 155.53418 L 236.586914 159.755859 L 238.552734 159.521484 L 240.515625 162.612305 L 242.481445 161.422852 L 244.444336 160.004883 L 246.410156 158.586914 L 248.373047 157.382812 L 250.338867 156.577148 L 252.301758 156.292969 L 254.267578 156.580078 L 256.230469 157.400391 L 258.196289 158.633789 L 260.15918 160.101562 L 262.125 165.383789 L 264.087891 170.560547 L 266.053711 171.644531 L 268.016602 172.297852 L 269.982422 179.944336 L 271.945312 183.266602 L 273.911133 186.155273 L 275.874023 184.634766 L 277.839844 182.683594 L 279.802734 180.486328 L 281.768555 178.303711 L 283.731445 176.414062 L 285.697266 175.098633 L 287.660156 174.580078 L 289.625977 174.990234 L 291.588867 176.34668 L 293.554688 178.549805 L 295.517578 181.376953 L 297.483398 184.517578 L 299.446289 187.599609 L 301.412109 190.230469 L 303.375 195.93457 L 305.34082 196.754883 L 307.303711 199.889648 L 309.269531 198.533203 L 311.232422 196.280273 L 313.198242 197.288086 L 315.164062 194.203125 L 317.126953 191.25293 L 319.092773 188.81543 L 321.055664 187.192383 L 323.021484 186.568359 L 324.984375 190.787109 L 326.950195 192.155273 L 328.913086 194.150391 L 330.878906 200.293945 L 332.841797 206.311523 L 334.807617 208.227539 L 336.770508 209.566406 L 338.736328 210.161133 L 340.699219 209.947266 L 342.665039 208.989258 L 344.62793 207.445312 L 346.59375 205.555664 L 348.556641 207.421875 L 350.522461 209.592773 L 352.485352 212.036133 L 354.451172 211.40332 L 356.414062 211.429688 L 358.379883 212.138672 L 360.342773 213.489258 L 362.308594 215.370117 L 364.271484 221.4375 L 366.237305 223.78418 L 368.200195 229.798828 L 370.166016 231.717773 L 372.128906 233.203125 L 374.094727 237.975586 L 376.057617 238.327148 L 378.023438 238.001953 L 379.986328 237.026367 L 381.952148 235.49707 L 383.915039 233.548828 L 385.880859 231.354492 L 387.84375 229.092773 L 389.80957 226.951172 L 391.772461 225.084961 L 393.738281 223.620117 L 395.701172 222.641602 L 397.666992 222.1875 L 399.629883 229.807617 L 401.595703 230.293945 L 403.558594 231.172852 L 405.524414 232.341797 L 407.487305 233.677734 L 409.453125 235.051758 L 411.416016 236.34668 L 413.381836 237.451172 L 415.344727 238.289062 L 417.310547 238.810547 L 419.273438 242.800781 L 421.239258 242.742188 L 423.202148 242.501953 L 425.167969 242.15625 L 427.130859 241.792969 L 429.09668 245.244141 L 431.05957 244.962891 L 433.025391 244.836914 L 434.988281 244.907227 L 436.954102 245.179688 L 438.916992 245.636719 L 440.882812 246.228516 L 442.845703 246.899414 L 444.811523 247.570312 L 446.774414 251.950195 L 448.740234 252.454102 L 450.703125 252.773438 L 452.668945 252.84375 L 454.631836 252.626953 L 456.597656 252.108398 L 458.560547 251.308594 L 460.526367 250.277344 L 462.489258 249.087891 L 464.455078 247.845703 " transform="matrix(1.333333, 0, 0, 1.333333, 0, 0)"/>
<path fill="none" stroke-width="1.5" stroke-linecap="butt" stroke-linejoin="miter" stroke="rgb(0%, 61.960787%, 45.09804%)" stroke-opacity="1" stroke-miterlimit="2" d="M 73.546875 47.589844 L 75.509766 50.258789 L 77.475586 57.858398 L 79.438477 67.400391 L 81.404297 77.039062 L 83.367188 85.904297 L 85.333008 92.129883 L 87.295898 96.234375 L 89.261719 96.28418 L 91.224609 92.616211 L 93.19043 86.162109 L 95.15332 79.045898 L 97.119141 72.451172 L 99.082031 67.813477 L 101.047852 68.118164 L 103.010742 69.594727 L 104.976562 75.539062 L 106.939453 83.258789 L 108.905273 92.299805 L 110.868164 101.220703 L 112.833984 107.862305 L 114.796875 112.248047 L 116.762695 114.175781 L 118.725586 112.854492 L 120.691406 109.230469 L 122.654297 103.227539 L 124.620117 96.489258 L 126.583008 90.333984 L 128.548828 85.875 L 130.511719 85.397461 L 132.477539 87.990234 L 134.44043 94.833984 L 136.40625 102.087891 L 138.369141 110.557617 L 140.334961 117.527344 L 142.297852 123.398438 L 144.263672 126.585938 L 146.226562 127.412109 L 148.192383 125.99707 L 150.155273 122.478516 L 152.121094 117.331055 L 154.083984 111.993164 L 156.049805 108.237305 L 158.012695 105.820312 L 159.978516 105.208008 L 161.941406 107.71582 L 163.907227 112.68457 L 165.870117 118.063477 L 167.835938 126.020508 L 169.798828 131.452148 L 171.764648 136.587891 L 173.727539 140.047852 L 175.693359 141.536133 L 177.65625 141.123047 L 179.62207 139.125 L 181.584961 135.773438 L 183.550781 132.172852 L 185.513672 129.805664 L 187.479492 127.807617 L 189.442383 129.583008 L 191.408203 130.356445 L 193.371094 134.894531 L 195.336914 139.013672 L 197.299805 145.248047 L 199.265625 149.206055 L 201.228516 152.604492 L 203.194336 156.123047 L 205.157227 157.587891 L 207.123047 158.103516 L 209.085938 156.688477 L 211.051758 155.598633 L 213.014648 153.333984 L 214.980469 151.924805 L 216.943359 150.694336 L 218.90918 149.578125 L 220.87207 149.920898 L 222.837891 151.705078 L 224.800781 153.679688 L 226.766602 157.795898 L 228.729492 161.077148 L 230.695312 163.511719 L 232.658203 166.239258 L 234.624023 167.493164 L 236.586914 169.016602 L 238.552734 169.30957 L 240.515625 168.480469 L 242.481445 168.269531 L 244.444336 167.865234 L 246.410156 167.537109 L 248.373047 167.519531 L 250.338867 167.282227 L 252.301758 167.642578 L 254.267578 169.013672 L 256.230469 170.610352 L 258.196289 171.884766 L 260.15918 174.09375 L 262.125 176.279297 L 264.087891 178.262695 L 266.053711 180.624023 L 268.016602 181.78125 L 269.982422 181.731445 L 271.945312 181.655273 L 273.911133 182.0625 L 275.874023 183.020508 L 277.839844 183.193359 L 279.802734 182.709961 L 281.768555 182.053711 L 283.731445 182.446289 L 285.697266 183.143555 L 287.660156 183.37793 L 289.625977 186.076172 L 291.588867 187.804688 L 293.554688 188.838867 L 295.517578 189.820312 L 297.483398 190.6875 L 299.446289 191.364258 L 301.412109 192.969727 L 303.375 193.658203 L 305.34082 195.319336 L 307.303711 195.392578 L 309.269531 196.22168 L 311.232422 197.821289 L 313.198242 198.729492 L 315.164062 199.787109 L 317.126953 201.319336 L 319.092773 202.96582 L 321.055664 203.548828 L 323.021484 204.161133 L 324.984375 205.142578 L 326.950195 206.083008 L 328.913086 206.566406 L 330.878906 207.700195 L 332.841797 208.379883 L 334.807617 208.617188 L 336.770508 208.78418 L 338.736328 208.97168 L 340.699219 209.179688 L 342.665039 210.169922 L 344.62793 210.890625 L 346.59375 211.291992 L 348.556641 211.775391 L 350.522461 212.302734 L 352.485352 212.460938 L 354.451172 213.386719 L 356.414062 213.902344 L 358.379883 214.746094 L 360.342773 215.976562 L 362.308594 216.011719 L 364.271484 217.136719 L 366.237305 217.482422 L 368.200195 217.787109 L 370.166016 218.091797 L 372.128906 218.748047 L 374.094727 219.430664 L 376.057617 220.12793 L 378.023438 221.589844 L 379.986328 223.081055 L 381.952148 224.203125 L 383.915039 224.595703 L 385.880859 225.767578 L 387.84375 226.608398 L 389.80957 227.566406 L 391.772461 228.597656 L 393.738281 229.242188 L 395.701172 230.625 L 397.666992 231.219727 L 399.629883 232.086914 L 401.595703 232.910156 L 403.558594 232.907227 L 405.524414 233.188477 L 407.487305 233.786133 L 409.453125 233.900391 L 411.416016 234.354492 L 413.381836 235.605469 L 415.344727 236.516602 L 417.310547 237.105469 L 419.273438 237.788086 L 421.239258 238.189453 L 423.202148 239.43457 L 425.167969 239.601562 L 427.130859 240.571289 L 429.09668 241.614258 L 431.05957 242.288086 L 433.025391 243.307617 L 434.988281 243.518555 L 436.954102 245.179688 L 438.916992 245.557617 L 440.882812 246.158203 L 442.845703 246.357422 L 444.811523 246.489258 L 446.774414 246.1875 L 448.740234 246.254883 L 450.703125 246.726562 L 452.668945 246.521484 L 454.631836 246.418945 L 456.597656 246.832031 L 458.560547 246.999023 L 460.526367 248.455078 L 462.489258 248.847656 L 464.455078 249.667969 " transform="matrix(1.333333, 0, 0, 1.333333, 0, 0)"/>
<path fill-rule="nonzero" fill="rgb(100%, 100%, 100%)" fill-opacity="1" stroke-width="1" stroke-linecap="butt" stroke-linejoin="miter" stroke="rgb(0%, 0%, 0%)" stroke-opacity="1" stroke-miterlimit="2" d="M 345 120 L 477.999023 120 L 477.999023 42 L 345 42 Z M 345 120 " transform="matrix(1.333333, 0, 0, 1.333333, 0, 0)"/>
<path fill="none" stroke-width="1" stroke-linecap="butt" stroke-linejoin="miter" stroke="rgb(0%, 0%, 0%)" stroke-opacity="1" stroke-miterlimit="1.154701" d="M 73.546875 291.500977 L 73.546875 296.499023 " transform="matrix(1.333333, 0, 0, 1.333333, 0, 0)"/>
<path fill="none" stroke-width="1" stroke-linecap="butt" stroke-linejoin="miter" stroke="rgb(0%, 0%, 0%)" stroke-opacity="1" stroke-miterlimit="1.154701" d="M 269.000977 291.500977 L 269.000977 296.499023 " transform="matrix(1.333333, 0, 0, 1.333333, 0, 0)"/>
<path fill="none" stroke-width="1" stroke-linecap="butt" stroke-linejoin="miter" stroke="rgb(0%, 0%, 0%)" stroke-opacity="1" stroke-miterlimit="1.154701" d="M 464.455078 291.500977 L 464.455078 296.499023 " transform="matrix(1.333333, 0, 0, 1.333333, 0, 0)"/>
<path fill="none" stroke-width="1" stroke-linecap="butt" stroke-linejoin="miter" stroke="rgb(0%, 0%, 0%)" stroke-opacity="1" stroke-miterlimit="1.154701" d="M 53.499023 279.544922 L 48.500977 279.544922 " transform="matrix(1.333333, 0, 0, 1.333333, 0, 0)"/>
<path fill="none" stroke-width="1" stroke-linecap="butt" stroke-linejoin="miter" stroke="rgb(0%, 0%, 0%)" stroke-opacity="1" stroke-miterlimit="1.154701" d="M 53.499023 240.884766 L 48.500977 240.884766 " transform="matrix(1.333333, 0, 0, 1.333333, 0, 0)"/>
<path fill="none" stroke-width="1" stroke-linecap="butt" stroke-linejoin="miter" stroke="rgb(0%, 0%, 0%)" stroke-opacity="1" stroke-miterlimit="1.154701" d="M 53.499023 202.224609 L 48.500977 202.224609 " transform="matrix(1.333333, 0, 0, 1.333333, 0, 0)"/>
<path fill="none" stroke-width="1" stroke-linecap="butt" stroke-linejoin="miter" stroke="rgb(0%, 0%, 0%)" stroke-opacity="1" stroke-miterlimit="1.154701" d="M 53.499023 163.567383 L 48.500977 163.567383 " transform="matrix(1.333333, 0, 0, 1.333333, 0, 0)"/>
<path fill="none" stroke-width="1" stroke-linecap="butt" stroke-linejoin="miter" stroke="rgb(0%, 0%, 0%)" stroke-opacity="1" stroke-miterlimit="1.154701" d="M 53.499023 124.907227 L 48.500977 124.907227 " transform="matrix(1.333333, 0, 0, 1.333333, 0, 0)"/>
<path fill="none" stroke-width="1" stroke-linecap="butt" stroke-linejoin="miter" stroke="rgb(0%, 0%, 0%)" stroke-opacity="1" stroke-miterlimit="1.154701" d="M 53.499023 86.25 L 48.500977 86.25 " transform="matrix(1.333333, 0, 0, 1.333333, 0, 0)"/>
<path fill="none" stroke-width="1" stroke-linecap="butt" stroke-linejoin="miter" stroke="rgb(0%, 0%, 0%)" stroke-opacity="1" stroke-miterlimit="1.154701" d="M 53.499023 47.589844 L 48.500977 47.589844 " transform="matrix(1.333333, 0, 0, 1.333333, 0, 0)"/>
<path fill="none" stroke-width="1.5" stroke-linecap="butt" stroke-linejoin="miter" stroke="rgb(0%, 44.705883%, 69.803923%)" stroke-opacity="1" stroke-dasharray="4.5 4.5 1.5 4.5" stroke-miterlimit="2" d="M 351.149414 57.999023 L 371.147461 57.999023 " transform="matrix(1.333333, 0, 0, 1.333333, 0, 0)"/>
<path fill="none" stroke-width="1.5" stroke-linecap="butt" stroke-linejoin="miter" stroke="rgb(90.196079%, 62.352943%, 0%)" stroke-opacity="1" stroke-dasharray="4.5 4.5" stroke-miterlimit="2" d="M 351.149414 81 L 371.147461 81 " transform="matrix(1.333333, 0, 0, 1.333333, 0, 0)"/>
<path fill="none" stroke-width="1.5" stroke-linecap="butt" stroke-linejoin="miter" stroke="rgb(0%, 61.960787%, 45.09804%)" stroke-opacity="1" stroke-miterlimit="2" d="M 351.149414 104.000977 L 371.147461 104.000977 " transform="matrix(1.333333, 0, 0, 1.333333, 0, 0)"/>
<g fill="rgb(0%, 0%, 0%)" fill-opacity="1">
<use xlink:href="#glyph-14-1-04c29248" x="501.530719" y="84.137338"/>
</g>
<g fill="rgb(0%, 0%, 0%)" fill-opacity="1">
<use xlink:href="#glyph-14-2-04c29248" x="511.909387" y="84.137338"/>
</g>
<g fill="rgb(0%, 0%, 0%)" fill-opacity="1">
<use xlink:href="#glyph-14-3-04c29248" x="517.098718" y="84.137338"/>
</g>
<g fill="rgb(0%, 0%, 0%)" fill-opacity="1">
<use xlink:href="#glyph-14-4-04c29248" x="522.288055" y="84.137338"/>
</g>
<g fill="rgb(0%, 0%, 0%)" fill-opacity="1">
<use xlink:href="#glyph-14-5-04c29248" x="528.504053" y="84.137338"/>
</g>
<g fill="rgb(0%, 0%, 0%)" fill-opacity="1">
<use xlink:href="#glyph-14-6-04c29248" x="538.882721" y="84.137338"/>
</g>
<g fill="rgb(0%, 0%, 0%)" fill-opacity="1">
<use xlink:href="#glyph-14-7-04c29248" x="543.026721" y="84.137338"/>
</g>
<g fill="rgb(0%, 0%, 0%)" fill-opacity="1">
<use xlink:href="#glyph-14-8-04c29248" x="553.405386" y="84.137338"/>
</g>
<g fill="rgb(0%, 0%, 0%)" fill-opacity="1">
<use xlink:href="#glyph-14-3-04c29248" x="562.73872" y="84.137338"/>
</g>
<g fill="rgb(0%, 0%, 0%)" fill-opacity="1">
<use xlink:href="#glyph-14-9-04c29248" x="567.928051" y="84.137338"/>
</g>
<g fill="rgb(0%, 0%, 0%)" fill-opacity="1">
<use xlink:href="#glyph-14-4-04c29248" x="578.306719" y="84.137338"/>
</g>
<g fill="rgb(0%, 0%, 0%)" fill-opacity="1">
<use xlink:href="#glyph-14-10-04c29248" x="584.522718" y="84.137338"/>
</g>
<g fill="rgb(0%, 0%, 0%)" fill-opacity="1">
<use xlink:href="#glyph-1-5-04c29248" x="501.530694" y="114.804004"/>
</g>
<g fill="rgb(0%, 0%, 0%)" fill-opacity="1">
<use xlink:href="#glyph-1-3-04c29248" x="511.909362" y="114.804004"/>
</g>
<g fill="rgb(0%, 0%, 0%)" fill-opacity="1">
<use xlink:href="#glyph-1-10-04c29248" x="522.288029" y="114.804004"/>
</g>
<g fill="rgb(0%, 0%, 0%)" fill-opacity="1">
<use xlink:href="#glyph-1-11-04c29248" x="527.477361" y="114.804004"/>
</g>
<g fill="rgb(0%, 0%, 0%)" fill-opacity="1">
<use xlink:href="#glyph-1-12-04c29248" x="532.666695" y="114.804004"/>
</g>
<g fill="rgb(0%, 0%, 0%)" fill-opacity="1">
<use xlink:href="#glyph-1-13-04c29248" x="538.882696" y="114.804004"/>
</g>
<g fill="rgb(0%, 0%, 0%)" fill-opacity="1">
<use xlink:href="#glyph-1-14-04c29248" x="549.261363" y="114.804004"/>
</g>
<g fill="rgb(0%, 0%, 0%)" fill-opacity="1">
<use xlink:href="#glyph-1-2-04c29248" x="553.405366" y="114.804004"/>
</g>
<g fill="rgb(0%, 0%, 0%)" fill-opacity="1">
<use xlink:href="#glyph-1-15-04c29248" x="563.784034" y="114.804004"/>
</g>
<g fill="rgb(0%, 0%, 0%)" fill-opacity="1">
<use xlink:href="#glyph-1-11-04c29248" x="573.117367" y="114.804004"/>
</g>
<g fill="rgb(0%, 0%, 0%)" fill-opacity="1">
<use xlink:href="#glyph-1-16-04c29248" x="578.306699" y="114.804004"/>
</g>
<g fill="rgb(0%, 0%, 0%)" fill-opacity="1">
<use xlink:href="#glyph-1-12-04c29248" x="588.685361" y="114.804004"/>
</g>
<g fill="rgb(0%, 0%, 0%)" fill-opacity="1">
<use xlink:href="#glyph-1-0-04c29248" x="594.901365" y="114.804004"/>
</g>
<g fill="rgb(0%, 0%, 0%)" fill-opacity="1">
<use xlink:href="#glyph-1-2-04c29248" x="599.045367" y="114.804004"/>
</g>
<g fill="rgb(0%, 0%, 0%)" fill-opacity="1">
<use xlink:href="#glyph-1-17-04c29248" x="609.42403" y="114.804004"/>
</g>
<g fill="rgb(0%, 0%, 0%)" fill-opacity="1">
<use xlink:href="#glyph-1-5-04c29248" x="501.530689" y="145.47067"/>
</g>
<g fill="rgb(0%, 0%, 0%)" fill-opacity="1">
<use xlink:href="#glyph-1-3-04c29248" x="511.909357" y="145.47067"/>
</g>
<g fill="rgb(0%, 0%, 0%)" fill-opacity="1">
<use xlink:href="#glyph-1-3-04c29248" x="522.288024" y="145.47067"/>
</g>
<g fill="rgb(0%, 0%, 0%)" fill-opacity="1">
<use xlink:href="#glyph-1-10-04c29248" x="532.666689" y="145.47067"/>
</g>
<g fill="rgb(0%, 0%, 0%)" fill-opacity="1">
<use xlink:href="#glyph-1-11-04c29248" x="537.856023" y="145.47067"/>
</g>
<g fill="rgb(0%, 0%, 0%)" fill-opacity="1">
<use xlink:href="#glyph-1-12-04c29248" x="543.045357" y="145.47067"/>
</g>
<g fill="rgb(0%, 0%, 0%)" fill-opacity="1">
<use xlink:href="#glyph-1-13-04c29248" x="549.261358" y="145.47067"/>
</g>
<g fill="rgb(0%, 0%, 0%)" fill-opacity="1">
<use xlink:href="#glyph-1-14-04c29248" x="559.640026" y="145.47067"/>
</g>
<g fill="rgb(0%, 0%, 0%)" fill-opacity="1">
<use xlink:href="#glyph-1-2-04c29248" x="563.784028" y="145.47067"/>
</g>
<g fill="rgb(0%, 0%, 0%)" fill-opacity="1">
<use xlink:href="#glyph-1-15-04c29248" x="574.162696" y="145.47067"/>
</g>
<g fill="rgb(0%, 0%, 0%)" fill-opacity="1">
<use xlink:href="#glyph-1-11-04c29248" x="583.49603" y="145.47067"/>
</g>
<g fill="rgb(0%, 0%, 0%)" fill-opacity="1">
<use xlink:href="#glyph-1-16-04c29248" x="588.685366" y="145.47067"/>
</g>
<g fill="rgb(0%, 0%, 0%)" fill-opacity="1">
<use xlink:href="#glyph-1-12-04c29248" x="599.064029" y="145.47067"/>
</g>
<g fill="rgb(0%, 0%, 0%)" fill-opacity="1">
<use xlink:href="#glyph-1-0-04c29248" x="605.280033" y="145.47067"/>
</g>
<g fill="rgb(0%, 0%, 0%)" fill-opacity="1">
<use xlink:href="#glyph-1-2-04c29248" x="609.424035" y="145.47067"/>
</g>
<g fill="rgb(0%, 0%, 0%)" fill-opacity="1">
<use xlink:href="#glyph-1-17-04c29248" x="619.802698" y="145.47067"/>
</g>
<path fill="none" stroke-width="1" stroke-linecap="butt" stroke-linejoin="miter" stroke="rgb(0%, 0%, 0%)" stroke-opacity="1" stroke-miterlimit="1.154701" d="M 53.499023 291 L 484.5 291 " transform="matrix(1.333333, 0, 0, 1.333333, 0, 0)"/>
<path fill="none" stroke-width="1" stroke-linecap="butt" stroke-linejoin="miter" stroke="rgb(0%, 0%, 0%)" stroke-opacity="1" stroke-miterlimit="1.154701" d="M 54 291.500977 L 54 35.499023 " transform="matrix(1.333333, 0, 0, 1.333333, 0, 0)"/>
<path fill="none" stroke-width="1" stroke-linecap="butt" stroke-linejoin="miter" stroke="rgb(0%, 0%, 0%)" stroke-opacity="1" stroke-miterlimit="1.154701" d="M 53.499023 36 L 484.5 36 " transform="matrix(1.333333, 0, 0, 1.333333, 0, 0)"/>
<path fill="none" stroke-width="1" stroke-linecap="butt" stroke-linejoin="miter" stroke="rgb(0%, 0%, 0%)" stroke-opacity="1" stroke-miterlimit="1.154701" d="M 483.999023 291.500977 L 483.999023 35.499023 " transform="matrix(1.333333, 0, 0, 1.333333, 0, 0)"/>
</svg>
