<?xml version="1.0" encoding="UTF-8"?>
<svg xmlns="http://www.w3.org/2000/svg" xmlns:xlink="http://www.w3.org/1999/xlink" width="667" height="467" viewBox="0 0 667 467">
<defs>
<g>
<g id="glyph-0-0-97720623">
<path d="M 11.078125 -12.078125 C 11.078125 -12.078125 6.609375 -12.078125 6.609375 -12.078125 C 6.609375 -12.078125 6.609375 0 6.609375 0 C 6.609375 0 4.875 0 4.875 0 C 4.875 0 4.875 -12.078125 4.875 -12.078125 C 4.875 -12.078125 0.390625 -12.078125 0.390625 -12.078125 C 0.390625 -12.078125 0.390625 -13.609375 0.390625 -13.609375 C 0.390625 -13.609375 11.078125 -13.609375 11.078125 -13.609375 C 11.078125 -13.609375 11.078125 -12.078125 11.078125 -12.078125 Z M 11.078125 -12.078125 "/>
</g>
<g id="glyph-1-0-97720623">
<path d="M 2.859375 0 C 2.859375 0 1.3125 0 1.3125 0 C 1.3125 0 1.3125 -9.78125 1.3125 -9.78125 C 1.3125 -9.78125 2.859375 -9.78125 2.859375 -9.78125 C 2.859375 -9.78125 2.859375 0 2.859375 0 Z M 3.0625 -11.265625 C 3.0625 -11.265625 1.125 -11.265625 1.125 -11.265625 C 1.125 -11.265625 1.125 -13.203125 1.125 -13.203125 C 1.125 -13.203125 3.0625 -13.203125 3.0625 -13.203125 C 3.0625 -13.203125 3.0625 -11.265625 3.0625 -11.265625 Z M 3.0625 -11.265625 "/>
</g>
<g id="glyph-1-1-97720623">
<path d="M 14.1875 0 C 14.1875 0 12.640625 0 12.640625 0 C 12.640625 0 12.640625 -6.734375 12.640625 -6.734375 C 12.640625 -7.96875 11.984375 -8.703125 10.84375 -8.703125 C 9.578125 -8.703125 8.53125 -7.5625 8.53125 -6.140625 C 8.53125 -6.140625 8.53125 0 8.53125 0 C 8.53125 0 6.984375 0 6.984375 0 C 6.984375 0 6.984375 -6.734375 6.984375 -6.734375 C 6.984375 -7.984375 6.328125 -8.703125 5.171875 -8.703125 C 3.90625 -8.703125 2.875 -7.5625 2.875 -6.140625 C 2.875 -6.140625 2.875 0 2.875 0 C 2.875 0 1.328125 0 1.328125 0 C 1.328125 0 1.328125 -9.78125 1.328125 -9.78125 C 1.328125 -9.78125 2.75 -9.78125 2.75 -9.78125 C 2.75 -9.78125 2.75 -8.40625 2.75 -8.40625 C 3.578125 -9.578125 4.4375 -10.0625 5.75 -10.0625 C 7.015625 -10.0625 7.8125 -9.609375 8.390625 -8.578125 C 9.296875 -9.671875 10.078125 -10.0625 11.390625 -10.0625 C 13.21875 -10.0625 14.1875 -9.09375 14.1875 -7.34375 C 14.1875 -7.34375 14.1875 0 14.1875 0 Z M 14.1875 0 "/>
</g>
<g id="glyph-1-2-97720623">
<path d="M 9.578125 -4.4375 C 9.578125 -4.4375 2.375 -4.4375 2.375 -4.4375 C 2.40625 -2.203125 3.625 -1.15625 5.25 -1.15625 C 6.5 -1.15625 7.375 -1.6875 7.8125 -2.96875 C 7.8125 -2.96875 9.375 -2.96875 9.375 -2.96875 C 8.984375 -0.984375 7.4375 0.28125 5.1875 0.28125 C 2.453125 0.28125 0.75 -1.625 0.75 -4.84375 C 0.75 -8.046875 2.5 -10.0625 5.234375 -10.0625 C 7.0625 -10.0625 8.546875 -9.09375 9.1875 -7.484375 C 9.46875 -6.765625 9.578125 -5.859375 9.578125 -4.4375 Z M 7.921875 -5.828125 C 7.921875 -7.359375 6.734375 -8.625 5.203125 -8.625 C 3.640625 -8.625 2.546875 -7.453125 2.40625 -5.71875 C 2.40625 -5.71875 7.890625 -5.71875 7.890625 -5.71875 C 7.921875 -5.75 7.921875 -5.828125 7.921875 -5.828125 Z M 7.921875 -5.828125 "/>
</g>
<g id="glyph-2-0-97720623">
<path d="M 9.46875 -6.359375 C 9.46875 -2.015625 7.9375 0.28125 5.140625 0.28125 C 2.296875 0.28125 0.796875 -2.015625 0.796875 -6.484375 C 0.796875 -10.921875 2.28125 -13.234375 5.140625 -13.234375 C 8.015625 -13.234375 9.46875 -10.953125 9.46875 -6.359375 Z M 7.78125 -6.515625 C 7.78125 -10.0625 6.90625 -11.78125 5.140625 -11.78125 C 3.359375 -11.78125 2.484375 -10.078125 2.484375 -6.453125 C 2.484375 -2.84375 3.359375 -1.078125 5.09375 -1.078125 C 6.921875 -1.078125 7.78125 -2.765625 7.78125 -6.515625 Z M 7.78125 -6.515625 "/>
</g>
<g id="glyph-3-0-97720623">
<path d="M 9.578125 -4.390625 C 9.578125 -1.59375 7.71875 0.28125 5.046875 0.28125 C 2.6875 0.28125 1.1875 -0.765625 0.65625 -3.390625 C 0.65625 -3.390625 2.296875 -3.390625 2.296875 -3.390625 C 2.6875 -1.90625 3.5625 -1.171875 5 -1.171875 C 6.796875 -1.171875 7.890625 -2.265625 7.890625 -4.15625 C 7.890625 -6.125 6.78125 -7.265625 5 -7.265625 C 3.984375 -7.265625 3.34375 -6.953125 2.578125 -6.03125 C 2.578125 -6.03125 1.0625 -6.03125 1.0625 -6.03125 C 1.0625 -6.03125 2.046875 -12.953125 2.046875 -12.953125 C 2.046875 -12.953125 8.890625 -12.953125 8.890625 -12.953125 C 8.890625 -12.953125 8.890625 -11.328125 8.890625 -11.328125 C 8.890625 -11.328125 3.375 -11.328125 3.375 -11.328125 C 3.375 -11.328125 2.859375 -7.921875 2.859375 -7.921875 C 3.625 -8.484375 4.375 -8.71875 5.296875 -8.71875 C 7.84375 -8.71875 9.578125 -7 9.578125 -4.390625 Z M 9.578125 -4.390625 "/>
</g>
<g id="glyph-4-0-97720623">
<path d="M 6.484375 0 C 6.484375 0 4.84375 0 4.84375 0 C 4.84375 0 4.84375 -9.421875 4.84375 -9.421875 C 4.84375 -9.421875 1.90625 -9.421875 1.90625 -9.421875 C 1.90625 -9.421875 1.90625 -10.609375 1.90625 -10.609375 C 4.4375 -10.921875 4.8125 -11.203125 5.390625 -13.234375 C 5.390625 -13.234375 6.484375 -13.234375 6.484375 -13.234375 C 6.484375 -13.234375 6.484375 0 6.484375 0 Z M 6.484375 0 "/>
</g>
<g id="glyph-5-0-97720623">
<path d="M 9.46875 -6.359375 C 9.46875 -2.015625 7.9375 0.28125 5.140625 0.28125 C 2.296875 0.28125 0.796875 -2.015625 0.796875 -6.484375 C 0.796875 -10.921875 2.28125 -13.234375 5.140625 -13.234375 C 8.015625 -13.234375 9.46875 -10.953125 9.46875 -6.359375 Z M 7.78125 -6.515625 C 7.78125 -10.0625 6.90625 -11.78125 5.140625 -11.78125 C 3.359375 -11.78125 2.484375 -10.078125 2.484375 -6.453125 C 2.484375 -2.84375 3.359375 -1.078125 5.09375 -1.078125 C 6.921875 -1.078125 7.78125 -2.765625 7.78125 -6.515625 Z M 7.78125 -6.515625 "/>
</g>
<g id="glyph-6-0-97720623">
<path d="M 0 -11.453125 C 0 -11.453125 0 -1.6875 0 -1.6875 C 0 -1.6875 -13.609375 -1.6875 -13.609375 -1.6875 C -13.609375 -1.6875 -13.609375 -11.109375 -13.609375 -11.109375 C -13.609375 -11.109375 -12.078125 -11.109375 -12.078125 -11.109375 C -12.078125 -11.109375 -12.078125 -3.421875 -12.078125 -3.421875 C -12.078125 -3.421875 -7.734375 -3.421875 -7.734375 -3.421875 C -7.734375 -3.421875 -7.734375 -10.828125 -7.734375 -10.828125 C -7.734375 -10.828125 -6.203125 -10.828125 -6.203125 -10.828125 C -6.203125 -10.828125 -6.203125 -3.421875 -6.203125 -3.421875 C -6.203125 -3.421875 -1.53125 -3.421875 -1.53125 -3.421875 C -1.53125 -3.421875 -1.53125 -11.453125 -1.53125 -11.453125 C -1.53125 -11.453125 0 -11.453125 0 -11.453125 Z M 0 -11.453125 "/>
</g>
<g id="glyph-7-0-97720623">
<path d="M 0 -8.828125 C 0 -8.828125 0 -7.015625 0 -7.015625 C 0 -7.015625 -3.75 -4.578125 -3.75 -4.578125 C -3.75 -4.578125 0 -2.09375 0 -2.09375 C 0 -2.09375 0 -0.3125 0 -0.3125 C 0 -0.3125 -4.984375 -3.765625 -4.984375 -3.765625 C -4.984375 -3.765625 -9.78125 -0.5 -9.78125 -0.5 C -9.78125 -0.5 -9.78125 -2.28125 -9.78125 -2.28125 C -9.78125 -2.28125 -6.234375 -4.625 -6.234375 -4.625 C -6.234375 -4.625 -9.78125 -6.984375 -9.78125 -6.984375 C -9.78125 -6.984375 -9.78125 -8.734375 -9.78125 -8.734375 C -9.78125 -8.734375 -5.0625 -5.453125 -5.0625 -5.453125 C -5.0625 -5.453125 0 -8.828125 0 -8.828125 Z M 0 -8.828125 "/>
</g>
<g id="glyph-7-1-97720623">
<path d="M -0.03125 -9.984375 C 0.09375 -9.484375 0.125 -9.25 0.125 -8.921875 C 0.125 -8.15625 -0.40625 -7.484375 -1.15625 -7.3125 C -0.25 -6.453125 0.28125 -5.25 0.28125 -4 C 0.28125 -2.015625 -0.765625 -0.78125 -2.546875 -0.78125 C -3.734375 -0.78125 -4.609375 -1.359375 -5.078125 -2.5 C -5.328125 -3.09375 -5.390625 -3.4375 -5.671875 -5.640625 C -5.828125 -6.875 -6.109375 -7.265625 -6.765625 -7.265625 C -6.765625 -7.265625 -7.171875 -7.265625 -7.171875 -7.265625 C -8.109375 -7.265625 -8.625 -6.484375 -8.625 -5.078125 C -8.625 -3.625 -8.078125 -2.90625 -6.890625 -2.78125 C -6.890625 -2.78125 -6.890625 -1.21875 -6.890625 -1.21875 C -9.15625 -1.3125 -10.0625 -2.765625 -10.0625 -5.140625 C -10.0625 -7.546875 -9.125 -8.8125 -7.390625 -8.8125 C -7.390625 -8.8125 -1.9375 -8.8125 -1.9375 -8.8125 C -1.453125 -8.8125 -1.171875 -9.109375 -1.171875 -9.65625 C -1.171875 -9.75 -1.171875 -9.828125 -1.21875 -9.984375 C -1.21875 -9.984375 -0.03125 -9.984375 -0.03125 -9.984375 Z M -3.375 -7.265625 C -3.375 -7.265625 -4.84375 -7.265625 -4.84375 -7.265625 C -4.59375 -6.734375 -4.515625 -6.40625 -4.296875 -4.765625 C -4.046875 -3.09375 -3.609375 -2.40625 -2.578125 -2.40625 C -1.515625 -2.40625 -1.078125 -3.125 -1.078125 -4.328125 C -1.078125 -5.84375 -1.984375 -7.265625 -3.375 -7.265625 Z M -3.375 -7.265625 "/>
</g>
<g id="glyph-8-0-97720623">
<path d="M -4.796875 -9.765625 C -1.6875 -9.765625 0.28125 -8.109375 0.28125 -5.578125 C 0.28125 -4.3125 -0.171875 -3.390625 -1.171875 -2.578125 C -1.171875 -2.578125 4.078125 -2.578125 4.078125 -2.578125 C 4.078125 -2.578125 4.078125 -1.03125 4.078125 -1.03125 C 4.078125 -1.03125 -9.78125 -1.03125 -9.78125 -1.03125 C -9.78125 -1.03125 -9.78125 -2.453125 -9.78125 -2.453125 C -9.78125 -2.453125 -8.3125 -2.453125 -8.3125 -2.453125 C -9.46875 -3.171875 -10.0625 -4.234375 -10.0625 -5.5625 C -10.0625 -8.15625 -8.078125 -9.765625 -4.796875 -9.765625 Z M -4.84375 -8.140625 C -7.171875 -8.140625 -8.609375 -7.015625 -8.609375 -5.296875 C -8.609375 -3.65625 -7.109375 -2.578125 -4.8125 -2.578125 C -2.515625 -2.578125 -1.171875 -3.65625 -1.171875 -5.296875 C -1.171875 -7 -2.609375 -8.140625 -4.84375 -8.140625 Z M -4.84375 -8.140625 "/>
</g>
<g id="glyph-9-0-97720623">
<path d="M -4.4375 -9.578125 C -4.4375 -9.578125 -4.4375 -2.375 -4.4375 -2.375 C -2.203125 -2.40625 -1.15625 -3.625 -1.15625 -5.25 C -1.15625 -6.5 -1.6875 -7.375 -2.96875 -7.8125 C -2.96875 -7.8125 -2.96875 -9.375 -2.96875 -9.375 C -0.984375 -8.984375 0.28125 -7.4375 0.28125 -5.1875 C 0.28125 -2.453125 -1.625 -0.75 -4.84375 -0.75 C -8.046875 -0.75 -10.0625 -2.5 -10.0625 -5.234375 C -10.0625 -7.0625 -9.09375 -8.546875 -7.484375 -9.1875 C -6.765625 -9.46875 -5.859375 -9.578125 -4.4375 -9.578125 Z M -5.828125 -7.921875 C -7.359375 -7.921875 -8.625 -6.734375 -8.625 -5.203125 C -8.625 -3.640625 -7.453125 -2.546875 -5.71875 -2.40625 C -5.71875 -2.40625 -5.71875 -7.890625 -5.71875 -7.890625 C -5.75 -7.921875 -5.828125 -7.921875 -5.828125 -7.921875 Z M -5.828125 -7.921875 "/>
</g>
<g id="glyph-10-0-97720623">
<path d="M -3.359375 -8.90625 C -1.125 -8.71875 0.28125 -7.25 0.28125 -4.90625 C 0.28125 -2.265625 -1.640625 -0.578125 -4.796875 -0.578125 C -8.046875 -0.578125 -10.0625 -2.296875 -10.0625 -4.921875 C -10.0625 -7.109375 -8.890625 -8.609375 -6.5 -8.796875 C -6.5 -8.796875 -6.5 -7.21875 -6.5 -7.21875 C -7.859375 -7.046875 -8.625 -6.21875 -8.625 -4.90625 C -8.625 -3.21875 -7.25 -2.203125 -4.796875 -2.203125 C -2.484375 -2.203125 -1.15625 -3.234375 -1.15625 -4.953125 C -1.15625 -6.28125 -1.796875 -7.078125 -3.359375 -7.34375 C -3.359375 -7.34375 -3.359375 -8.90625 -3.359375 -8.90625 Z M -3.359375 -8.90625 "/>
</g>
<g id="glyph-11-0-97720623">
<path d="M 0 -4.75 C 0.09375 -4.21875 0.125 -3.84375 0.125 -3.46875 C 0.125 -2.265625 -0.421875 -1.59375 -1.421875 -1.59375 C -1.421875 -1.59375 -8.515625 -1.59375 -8.515625 -1.59375 C -8.515625 -1.59375 -8.515625 -0.265625 -8.515625 -0.265625 C -8.515625 -0.265625 -9.78125 -0.265625 -9.78125 -0.265625 C -9.78125 -0.265625 -9.78125 -1.59375 -9.78125 -1.59375 C -9.78125 -1.59375 -12.46875 -1.59375 -12.46875 -1.59375 C -12.46875 -1.59375 -12.46875 -3.140625 -12.46875 -3.140625 C -12.46875 -3.140625 -9.78125 -3.140625 -9.78125 -3.140625 C -9.78125 -3.140625 -9.78125 -4.75 -9.78125 -4.75 C -9.78125 -4.75 -8.515625 -4.75 -8.515625 -4.75 C -8.515625 -4.75 -8.515625 -3.140625 -8.515625 -3.140625 C -8.515625 -3.140625 -2.109375 -3.140625 -2.109375 -3.140625 C -1.421875 -3.140625 -1.234375 -3.328125 -1.234375 -4 C -1.234375 -4.296875 -1.25 -4.53125 -1.3125 -4.75 C -1.3125 -4.75 0 -4.75 0 -4.75 Z M 0 -4.75 "/>
</g>
<g id="glyph-12-0-97720623">
<path d="M 0 -4.75 C 0.09375 -4.21875 0.125 -3.84375 0.125 -3.46875 C 0.125 -2.265625 -0.421875 -1.59375 -1.421875 -1.59375 C -1.421875 -1.59375 -8.515625 -1.59375 -8.515625 -1.59375 C -8.515625 -1.59375 -8.515625 -0.265625 -8.515625 -0.265625 C -8.515625 -0.265625 -9.78125 -0.265625 -9.78125 -0.265625 C -9.78125 -0.265625 -9.78125 -1.59375 -9.78125 -1.59375 C -9.78125 -1.59375 -12.46875 -1.59375 -12.46875 -1.59375 C -12.46875 -1.59375 -12.46875 -3.140625 -12.46875 -3.140625 C -12.46875 -3.140625 -9.78125 -3.140625 -9.78125 -3.140625 C -9.78125 -3.140625 -9.78125 -4.75 -9.78125 -4.75 C -9.78125 -4.75 -8.515625 -4.75 -8.515625 -4.75 C -8.515625 -4.75 -8.515625 -3.140625 -8.515625 -3.140625 C -8.515625 -3.140625 -2.109375 -3.140625 -2.109375 -3.140625 C -1.421875 -3.140625 -1.234375 -3.328125 -1.234375 -4 C -1.234375 -4.296875 -1.25 -4.53125 -1.3125 -4.75 C -1.3125 -4.75 0 -4.75 0 -4.75 Z M 0 -4.75 "/>
</g>
<g id="glyph-13-0-97720623">
<path d="M 0 -2.859375 C 0 -2.859375 0 -1.3125 0 -1.3125 C 0 -1.3125 -9.78125 -1.3125 -9.78125 -1.3125 C -9.78125 -1.3125 -9.78125 -2.859375 -9.78125 -2.859375 C -9.78125 -2.859375 0 -2.859375 0 -2.859375 Z M -11.265625 -3.0625 C -11.265625 -3.0625 -11.265625 -1.125 -11.265625 -1.125 C -11.265625 -1.125 -13.203125 -1.125 -13.203125 -1.125 C -13.203125 -1.125 -13.203125 -3.0625 -13.203125 -3.0625 C -13.203125 -3.0625 -11.265625 -3.0625 -11.265625 -3.0625 Z M -11.265625 -3.0625 "/>
</g>
<g id="glyph-14-0-97720623">
<path d="M -4.8125 -9.515625 C -1.609375 -9.515625 0.28125 -7.84375 0.28125 -5.09375 C 0.28125 -2.3125 -1.609375 -0.671875 -4.890625 -0.671875 C -8.171875 -0.671875 -10.0625 -2.328125 -10.0625 -5.078125 C -10.0625 -7.890625 -8.203125 -9.515625 -4.8125 -9.515625 Z M -4.84375 -7.890625 C -7.265625 -7.890625 -8.625 -6.859375 -8.625 -5.09375 C -8.625 -3.359375 -7.25 -2.296875 -4.890625 -2.296875 C -2.515625 -2.296875 -1.15625 -3.359375 -1.15625 -5.09375 C -1.15625 -6.8125 -2.546875 -7.890625 -4.84375 -7.890625 Z M -4.84375 -7.890625 "/>
</g>
<g id="glyph-15-0-97720623">
<path d="M 0 -9.09375 C 0 -9.09375 0 -7.546875 0 -7.546875 C 0 -7.546875 -6.78125 -7.546875 -6.78125 -7.546875 C -7.953125 -7.546875 -8.703125 -6.765625 -8.703125 -5.53125 C -8.703125 -3.9375 -7.390625 -2.859375 -5.390625 -2.859375 C -5.390625 -2.859375 0 -2.859375 0 -2.859375 C 0 -2.859375 0 -1.3125 0 -1.3125 C 0 -1.3125 -9.78125 -1.3125 -9.78125 -1.3125 C -9.78125 -1.3125 -9.78125 -2.75 -9.78125 -2.75 C -9.78125 -2.75 -8.140625 -2.75 -8.140625 -2.75 C -9.5 -3.609375 -10.0625 -4.53125 -10.0625 -6 C -10.0625 -7.875 -9.015625 -9.09375 -7.390625 -9.09375 C -7.390625 -9.09375 0 -9.09375 0 -9.09375 Z M 0 -9.09375 "/>
</g>
<g id="glyph-16-0-97720623">
</g>
<g id="glyph-17-0-97720623">
<path d="M -9.78125 -9.078125 C -9.78125 -9.078125 0 -5.328125 0 -5.328125 C 0 -5.328125 0 -3.625 0 -3.625 C 0 -3.625 -9.78125 -0.1875 -9.78125 -0.1875 C -9.78125 -0.1875 -9.78125 -1.9375 -9.78125 -1.9375 C -9.78125 -1.9375 -1.84375 -4.5625 -1.84375 -4.5625 C -1.84375 -4.5625 -9.78125 -7.3125 -9.78125 -7.3125 C -9.78125 -7.3125 -9.78125 -9.078125 -9.78125 -9.078125 Z M -9.78125 -9.078125 "/>
</g>
<g id="glyph-18-0-97720623">
<path d="M -0.03125 -9.984375 C 0.09375 -9.484375 0.125 -9.25 0.125 -8.921875 C 0.125 -8.15625 -0.40625 -7.484375 -1.15625 -7.3125 C -0.25 -6.453125 0.28125 -5.25 0.28125 -4 C 0.28125 -2.015625 -0.765625 -0.78125 -2.546875 -0.78125 C -3.734375 -0.78125 -4.609375 -1.359375 -5.078125 -2.5 C -5.328125 -3.09375 -5.390625 -3.4375 -5.671875 -5.640625 C -5.828125 -6.875 -6.109375 -7.265625 -6.765625 -7.265625 C -6.765625 -7.265625 -7.171875 -7.265625 -7.171875 -7.265625 C -8.109375 -7.265625 -8.625 -6.484375 -8.625 -5.078125 C -8.625 -3.625 -8.078125 -2.90625 -6.890625 -2.78125 C -6.890625 -2.78125 -6.890625 -1.21875 -6.890625 -1.21875 C -9.15625 -1.3125 -10.0625 -2.765625 -10.0625 -5.140625 C -10.0625 -7.546875 -9.125 -8.8125 -7.390625 -8.8125 C -7.390625 -8.8125 -1.9375 -8.8125 -1.9375 -8.8125 C -1.453125 -8.8125 -1.171875 -9.109375 -1.171875 -9.65625 C -1.171875 -9.75 -1.171875 -9.828125 -1.21875 -9.984375 C -1.21875 -9.984375 -0.03125 -9.984375 -0.03125 -9.984375 Z M -3.375 -7.265625 C -3.375 -7.265625 -4.84375 -7.265625 -4.84375 -7.265625 C -4.59375 -6.734375 -4.515625 -6.40625 -4.296875 -4.765625 C -4.046875 -3.09375 -3.609375 -2.40625 -2.578125 -2.40625 C -1.515625 -2.40625 -1.078125 -3.125 -1.078125 -4.328125 C -1.078125 -5.84375 -1.984375 -7.265625 -3.375 -7.265625 Z M -3.375 -7.265625 "/>
</g>
<g id="glyph-19-0-97720623">
<path d="M 0 -2.8125 C 0 -2.8125 0 -1.265625 0 -1.265625 C 0 -1.265625 -13.609375 -1.265625 -13.609375 -1.265625 C -13.609375 -1.265625 -13.609375 -2.8125 -13.609375 -2.8125 C -13.609375 -2.8125 0 -2.8125 0 -2.8125 Z M 0 -2.8125 "/>
</g>
<g id="glyph-20-0-97720623">
<path d="M 0 -9 C 0 -9 0 -7.59375 0 -7.59375 C 0 -7.59375 -1.515625 -7.59375 -1.515625 -7.59375 C -0.21875 -6.6875 0.28125 -5.765625 0.28125 -4.328125 C 0.28125 -2.421875 -0.765625 -1.21875 -2.390625 -1.21875 C -2.390625 -1.21875 -9.78125 -1.21875 -9.78125 -1.21875 C -9.78125 -1.21875 -9.78125 -2.765625 -9.78125 -2.765625 C -9.78125 -2.765625 -3 -2.765625 -3 -2.765625 C -1.828125 -2.765625 -1.078125 -3.546875 -1.078125 -4.78125 C -1.078125 -6.40625 -2.390625 -7.453125 -4.390625 -7.453125 C -4.390625 -7.453125 -9.78125 -7.453125 -9.78125 -7.453125 C -9.78125 -7.453125 -9.78125 -9 -9.78125 -9 C -9.78125 -9 0 -9 0 -9 Z M 0 -9 "/>
</g>
<g id="glyph-21-0-97720623">
<path d="M -4.4375 -9.578125 C -4.4375 -9.578125 -4.4375 -2.375 -4.4375 -2.375 C -2.203125 -2.40625 -1.15625 -3.625 -1.15625 -5.25 C -1.15625 -6.5 -1.6875 -7.375 -2.96875 -7.8125 C -2.96875 -7.8125 -2.96875 -9.375 -2.96875 -9.375 C -0.984375 -8.984375 0.28125 -7.4375 0.28125 -5.1875 C 0.28125 -2.453125 -1.625 -0.75 -4.84375 -0.75 C -8.046875 -0.75 -10.0625 -2.5 -10.0625 -5.234375 C -10.0625 -7.0625 -9.09375 -8.546875 -7.484375 -9.1875 C -6.765625 -9.46875 -5.859375 -9.578125 -4.4375 -9.578125 Z M -5.828125 -7.921875 C -7.359375 -7.921875 -8.625 -6.734375 -8.625 -5.203125 C -8.625 -3.640625 -7.453125 -2.546875 -5.71875 -2.40625 C -5.71875 -2.40625 -5.71875 -7.890625 -5.71875 -7.890625 C -5.75 -7.921875 -5.828125 -7.921875 -5.828125 -7.921875 Z M -5.828125 -7.921875 "/>
</g>
<g id="glyph-22-0-97720623">
<path d="M -2.75 -8.578125 C -0.859375 -8.578125 0.28125 -7 0.28125 -4.53125 C 0.28125 -1.984375 -0.734375 -0.703125 -2.984375 -0.640625 C -2.984375 -0.640625 -2.984375 -2.28125 -2.984375 -2.28125 C -1.5 -2.484375 -1.15625 -3.265625 -1.15625 -4.671875 C -1.15625 -6.03125 -1.703125 -6.953125 -2.609375 -6.953125 C -3.328125 -6.953125 -3.640625 -6.515625 -3.90625 -5.4375 C -3.90625 -5.4375 -4.25 -3.984375 -4.25 -3.984375 C -4.8125 -1.65625 -5.546875 -0.875 -7.078125 -0.875 C -8.890625 -0.875 -10.0625 -2.359375 -10.0625 -4.625 C -10.0625 -6.890625 -8.984375 -8.15625 -7.0625 -8.171875 C -7.0625 -8.171875 -7.0625 -6.53125 -7.0625 -6.53125 C -8.078125 -6.5 -8.625 -5.828125 -8.625 -4.578125 C -8.625 -3.3125 -8.046875 -2.5 -7.15625 -2.5 C -6.453125 -2.5 -6.046875 -3.046875 -5.75 -4.3125 C -5.75 -4.3125 -5.390625 -5.8125 -5.390625 -5.8125 C -4.921875 -7.75 -4.203125 -8.578125 -2.75 -8.578125 Z M -2.75 -8.578125 "/>
</g>
<g id="glyph-23-0-97720623">
<path d="M 9.546875 -9.359375 C 9.546875 -7.734375 8.59375 -6.34375 6.734375 -5.359375 C 6.734375 -5.359375 4.875 -4.34375 4.875 -4.34375 C 3.25 -3.390625 2.65625 -2.703125 2.484375 -1.625 C 2.484375 -1.625 9.453125 -1.625 9.453125 -1.625 C 9.453125 -1.625 9.453125 0 9.453125 0 C 9.453125 0 0.640625 0 0.640625 0 C 0.78125 -2.90625 1.59375 -4.15625 4.34375 -5.734375 C 4.34375 -5.734375 6.0625 -6.703125 6.0625 -6.703125 C 7.25 -7.375 7.859375 -8.265625 7.859375 -9.3125 C 7.859375 -10.734375 6.734375 -11.796875 5.25 -11.796875 C 3.625 -11.796875 2.703125 -10.859375 2.578125 -8.640625 C 2.578125 -8.640625 0.9375 -8.640625 0.9375 -8.640625 C 1.03125 -11.859375 2.59375 -13.234375 5.296875 -13.234375 C 7.8125 -13.234375 9.546875 -11.59375 9.546875 -9.359375 Z M 9.546875 -9.359375 "/>
</g>
<g id="glyph-23-1-97720623">
<path d="M 9.453125 -3.84375 C 9.453125 -1.34375 7.6875 0.28125 4.96875 0.28125 C 2.265625 0.28125 0.796875 -1.046875 0.59375 -4 C 0.59375 -4 2.234375 -4 2.234375 -4 C 2.359375 -2.078125 3.234375 -1.171875 5.015625 -1.171875 C 6.734375 -1.171875 7.765625 -2.171875 7.765625 -3.828125 C 7.765625 -5.296875 6.828125 -6.15625 5.015625 -6.15625 C 5.015625 -6.15625 4.125 -6.15625 4.125 -6.15625 C 4.125 -6.15625 4.125 -7.546875 4.125 -7.546875 C 6.765625 -7.546875 7.375 -8.125 7.375 -9.546875 C 7.375 -10.9375 6.5 -11.796875 5.046875 -11.796875 C 3.359375 -11.796875 2.5625 -10.921875 2.515625 -8.96875 C 2.515625 -8.96875 0.875 -8.96875 0.875 -8.96875 C 0.9375 -11.78125 2.359375 -13.234375 5.015625 -13.234375 C 7.546875 -13.234375 9.0625 -11.875 9.0625 -9.59375 C 9.0625 -8.265625 8.4375 -7.40625 7.203125 -6.921875 C 8.796875 -6.390625 9.453125 -5.453125 9.453125 -3.84375 Z M 9.453125 -3.84375 "/>
</g>
<g id="glyph-23-2-97720623">
<path d="M 9.703125 -3.171875 C 9.703125 -3.171875 7.75 -3.171875 7.75 -3.171875 C 7.75 -3.171875 7.75 0 7.75 0 C 7.75 0 6.109375 0 6.109375 0 C 6.109375 0 6.109375 -3.171875 6.109375 -3.171875 C 6.109375 -3.171875 0.515625 -3.171875 0.515625 -3.171875 C 0.515625 -3.171875 0.515625 -4.90625 0.515625 -4.90625 C 0.515625 -4.90625 6.53125 -13.234375 6.53125 -13.234375 C 6.53125 -13.234375 7.75 -13.234375 7.75 -13.234375 C 7.75 -13.234375 7.75 -4.65625 7.75 -4.65625 C 7.75 -4.65625 9.703125 -4.65625 9.703125 -4.65625 C 9.703125 -4.65625 9.703125 -3.171875 9.703125 -3.171875 Z M 6.109375 -4.65625 C 6.109375 -4.65625 6.109375 -10.4375 6.109375 -10.4375 C 6.109375 -10.4375 1.953125 -4.65625 1.953125 -4.65625 C 1.953125 -4.65625 6.109375 -4.65625 6.109375 -4.65625 Z M 6.109375 -4.65625 "/>
</g>
<g id="glyph-23-3-97720623">
<path d="M 9.578125 -4.390625 C 9.578125 -1.59375 7.71875 0.28125 5.046875 0.28125 C 2.6875 0.28125 1.1875 -0.765625 0.65625 -3.390625 C 0.65625 -3.390625 2.296875 -3.390625 2.296875 -3.390625 C 2.6875 -1.90625 3.5625 -1.171875 5 -1.171875 C 6.796875 -1.171875 7.890625 -2.265625 7.890625 -4.15625 C 7.890625 -6.125 6.78125 -7.265625 5 -7.265625 C 3.984375 -7.265625 3.34375 -6.953125 2.578125 -6.03125 C 2.578125 -6.03125 1.0625 -6.03125 1.0625 -6.03125 C 1.0625 -6.03125 2.046875 -12.953125 2.046875 -12.953125 C 2.046875 -12.953125 8.890625 -12.953125 8.890625 -12.953125 C 8.890625 -12.953125 8.890625 -11.328125 8.890625 -11.328125 C 8.890625 -11.328125 3.375 -11.328125 3.375 -11.328125 C 3.375 -11.328125 2.859375 -7.921875 2.859375 -7.921875 C 3.625 -8.484375 4.375 -8.71875 5.296875 -8.71875 C 7.84375 -8.71875 9.578125 -7 9.578125 -4.390625 Z M 9.578125 -4.390625 "/>
</g>
<g id="glyph-23-4-97720623">
<path d="M 9.578125 -4.109375 C 9.578125 -1.515625 7.765625 0.28125 5.25 0.28125 C 2.21875 0.28125 0.796875 -1.90625 0.796875 -6.03125 C 0.796875 -10.640625 2.46875 -13.234375 5.546875 -13.234375 C 7.5625 -13.234375 8.984375 -11.953125 9.296875 -9.78125 C 9.296875 -9.78125 7.65625 -9.78125 7.65625 -9.78125 C 7.390625 -11.046875 6.59375 -11.78125 5.4375 -11.78125 C 3.546875 -11.78125 2.5 -9.984375 2.484375 -6.765625 C 3.1875 -7.734375 4.21875 -8.234375 5.53125 -8.234375 C 7.890625 -8.234375 9.578125 -6.578125 9.578125 -4.109375 Z M 7.890625 -3.984375 C 7.890625 -5.75 6.90625 -6.78125 5.328125 -6.78125 C 3.703125 -6.78125 2.578125 -5.71875 2.578125 -4.078125 C 2.578125 -2.375 3.734375 -1.171875 5.265625 -1.171875 C 6.78125 -1.171875 7.890625 -2.3125 7.890625 -3.984375 Z M 7.890625 -3.984375 "/>
</g>
<g id="glyph-24-0-97720623">
<path d="M 9.703125 -11.578125 C 6.921875 -8.265625 5.0625 -4.28125 4.328125 0 C 4.328125 0 2.578125 0 2.578125 0 C 3.515625 -4.140625 5.375 -8.015625 8.015625 -11.328125 C 8.015625 -11.328125 0.859375 -11.328125 0.859375 -11.328125 C 0.859375 -11.328125 0.859375 -12.953125 0.859375 -12.953125 C 0.859375 -12.953125 9.703125 -12.953125 9.703125 -12.953125 C 9.703125 -12.953125 9.703125 -11.578125 9.703125 -11.578125 Z M 9.703125 -11.578125 "/>
</g>
<g id="glyph-25-0-97720623">
<path d="M 9.578125 -3.734375 C 9.578125 -1.328125 7.75 0.28125 5.140625 0.28125 C 2.515625 0.28125 0.6875 -1.328125 0.6875 -3.75 C 0.6875 -5.203125 1.4375 -6.234375 2.953125 -6.96875 C 1.609375 -7.8125 1.15625 -8.484375 1.15625 -9.703125 C 1.15625 -11.78125 2.796875 -13.234375 5.140625 -13.234375 C 7.484375 -13.234375 9.109375 -11.78125 9.109375 -9.703125 C 9.109375 -8.453125 8.65625 -7.78125 7.296875 -6.96875 C 8.828125 -6.234375 9.578125 -5.203125 9.578125 -3.734375 Z M 7.4375 -9.671875 C 7.4375 -10.953125 6.53125 -11.78125 5.140625 -11.78125 C 3.75 -11.78125 2.84375 -10.953125 2.84375 -9.6875 C 2.84375 -8.4375 3.75 -7.625 5.140625 -7.625 C 6.515625 -7.625 7.4375 -8.4375 7.4375 -9.671875 Z M 7.890625 -3.71875 C 7.890625 -5.265625 6.78125 -6.234375 5.140625 -6.234375 C 3.484375 -6.234375 2.375 -5.265625 2.375 -3.71875 C 2.375 -2.171875 3.484375 -1.171875 5.09375 -1.171875 C 6.78125 -1.171875 7.890625 -2.140625 7.890625 -3.71875 Z M 7.890625 -3.71875 "/>
</g>
<g id="glyph-26-0-97720623">
<path d="M 14.484375 0 C 14.484375 0 11.6875 0 11.6875 0 C 11.6875 0 11.6875 -10.609375 11.6875 -10.609375 C 11.6875 -10.609375 9.28125 0 9.28125 0 C 9.28125 0 6.484375 0 6.484375 0 C 6.484375 0 4.03125 -10.609375 4.03125 -10.609375 C 4.03125 -10.609375 4.03125 0 4.03125 0 C 4.03125 0 1.234375 0 1.234375 0 C 1.234375 0 1.234375 -13.609375 1.234375 -13.609375 C 1.234375 -13.609375 5.421875 -13.609375 5.421875 -13.609375 C 5.421875 -13.609375 7.875 -2.78125 7.875 -2.78125 C 7.875 -2.78125 10.265625 -13.609375 10.265625 -13.609375 C 10.265625 -13.609375 14.484375 -13.609375 14.484375 -13.609375 C 14.484375 -13.609375 14.484375 0 14.484375 0 Z M 14.484375 0 "/>
</g>
<g id="glyph-26-1-97720623">
<path d="M 10.625 -4.96875 C 10.625 -1.734375 8.703125 0.171875 5.640625 0.171875 C 2.546875 0.171875 0.65625 -1.71875 0.65625 -5.046875 C 0.65625 -8.34375 2.546875 -10.25 5.625 -10.25 C 8.78125 -10.25 10.625 -8.390625 10.625 -4.96875 Z M 8.015625 -5 C 8.015625 -6.984375 7.078125 -8.140625 5.640625 -8.140625 C 4.21875 -8.140625 3.265625 -6.96875 3.265625 -5.046875 C 3.265625 -3.125 4.21875 -1.9375 5.640625 -1.9375 C 7.046875 -1.9375 8.015625 -3.125 8.015625 -5 Z M 8.015625 -5 "/>
</g>
<g id="glyph-26-2-97720623">
<path d="M 5.625 0 C 5.15625 0.015625 4.6875 0.078125 4.109375 0.078125 C 2.390625 0.078125 1.546875 -0.578125 1.546875 -2.171875 C 1.546875 -2.171875 1.546875 -8.140625 1.546875 -8.140625 C 1.546875 -8.140625 0.265625 -8.140625 0.265625 -8.140625 C 0.265625 -8.140625 0.265625 -9.875 0.265625 -9.875 C 0.265625 -9.875 1.546875 -9.875 1.546875 -9.875 C 1.546875 -9.875 1.546875 -12.578125 1.546875 -12.578125 C 1.546875 -12.578125 4.15625 -12.578125 4.15625 -12.578125 C 4.15625 -12.578125 4.15625 -9.875 4.15625 -9.875 C 4.15625 -9.875 5.625 -9.875 5.625 -9.875 C 5.625 -9.875 5.625 -8.140625 5.625 -8.140625 C 5.625 -8.140625 4.15625 -8.140625 4.15625 -8.140625 C 4.15625 -8.140625 4.15625 -2.875 4.15625 -2.875 C 4.15625 -1.984375 4.328125 -1.78125 5.015625 -1.78125 C 5.203125 -1.78125 5.359375 -1.796875 5.625 -1.828125 C 5.625 -1.828125 5.625 0 5.625 0 Z M 5.625 0 "/>
</g>
<g id="glyph-26-3-97720623">
<path d="M 9.796875 -4.671875 C 9.796875 -4.671875 9.78125 -4.34375 9.78125 -4.34375 C 9.78125 -4.34375 3.03125 -4.34375 3.03125 -4.34375 C 3.09375 -2.390625 3.890625 -1.828125 5.109375 -1.828125 C 6.0625 -1.828125 6.890625 -2.109375 7.109375 -2.84375 C 7.109375 -2.84375 9.6875 -2.84375 9.6875 -2.84375 C 9.109375 -0.859375 7.28125 0.171875 5.015625 0.171875 C 2.171875 0.171875 0.40625 -1.6875 0.40625 -4.90625 C 0.40625 -8.296875 2.1875 -10.25 5.078125 -10.25 C 8.046875 -10.25 9.796875 -8.140625 9.796875 -4.671875 Z M 7.078125 -6.09375 C 6.953125 -7.53125 6.15625 -8.25 5.046875 -8.25 C 3.890625 -8.25 3.234375 -7.484375 3.0625 -6.09375 C 3.0625 -6.09375 7.078125 -6.09375 7.078125 -6.09375 Z M 7.078125 -6.09375 "/>
</g>
<g id="glyph-26-4-97720623">
</g>
<g id="glyph-26-5-97720623">
<path d="M 6.90625 -7.578125 C 6.546875 -7.640625 6.359375 -7.65625 6.09375 -7.65625 C 4.5625 -7.65625 3.796875 -6.890625 3.796875 -5.359375 C 3.796875 -5.359375 3.796875 0 3.796875 0 C 3.796875 0 1.171875 0 1.171875 0 C 1.171875 0 1.171875 -10.078125 1.171875 -10.078125 C 1.171875 -10.078125 3.796875 -10.078125 3.796875 -10.078125 C 3.796875 -10.078125 3.796875 -8.109375 3.796875 -8.109375 C 4.34375 -9.46875 5.390625 -10.25 6.59375 -10.25 C 6.671875 -10.25 6.765625 -10.25 6.90625 -10.234375 C 6.90625 -10.234375 6.90625 -7.578125 6.90625 -7.578125 Z M 6.90625 -7.578125 "/>
</g>
<g id="glyph-26-6-97720623">
<path d="M 3.859375 0 C 3.859375 0 1.25 0 1.25 0 C 1.25 0 1.25 -13.609375 1.25 -13.609375 C 1.25 -13.609375 3.859375 -13.609375 3.859375 -13.609375 C 3.859375 -13.609375 3.859375 0 3.859375 0 Z M 3.859375 0 "/>
</g>
<g id="glyph-26-7-97720623">
<path d="M 3.859375 0 C 3.859375 0 1.25 0 1.25 0 C 1.25 0 1.25 -10.078125 1.25 -10.078125 C 1.25 -10.078125 3.859375 -10.078125 3.859375 -10.078125 C 3.859375 -10.078125 3.859375 0 3.859375 0 Z M 3.90625 -11.296875 C 3.90625 -11.296875 1.28125 -11.296875 1.28125 -11.296875 C 1.28125 -11.296875 1.28125 -13.90625 1.28125 -13.90625 C 1.28125 -13.90625 3.90625 -13.90625 3.90625 -13.90625 C 3.90625 -13.90625 3.90625 -11.296875 3.90625 -11.296875 Z M 3.90625 -11.296875 "/>
</g>
<g id="glyph-26-8-97720623">
<path d="M 15.390625 0 C 15.390625 0 12.765625 0 12.765625 0 C 12.765625 0 12.765625 -6.71875 12.765625 -6.71875 C 12.765625 -7.53125 12.234375 -8.03125 11.359375 -8.03125 C 10.234375 -8.03125 9.5625 -7.28125 9.5625 -6.046875 C 9.5625 -6.046875 9.5625 0 9.5625 0 C 9.5625 0 6.953125 0 6.953125 0 C 6.953125 0 6.953125 -6.71875 6.953125 -6.71875 C 6.953125 -7.53125 6.40625 -8.03125 5.53125 -8.03125 C 4.40625 -8.03125 3.734375 -7.28125 3.734375 -6.046875 C 3.734375 -6.046875 3.734375 0 3.734375 0 C 3.734375 0 1.125 0 1.125 0 C 1.125 0 1.125 -10.078125 1.125 -10.078125 C 1.125 -10.078125 3.71875 -10.078125 3.71875 -10.078125 C 3.71875 -10.078125 3.71875 -8.828125 3.71875 -8.828125 C 4.578125 -9.859375 5.328125 -10.25 6.484375 -10.25 C 7.734375 -10.25 8.734375 -9.703125 9.21875 -8.75 C 10.015625 -9.796875 10.90625 -10.25 12.171875 -10.25 C 14.1875 -10.25 15.390625 -9.09375 15.390625 -7.125 C 15.390625 -7.125 15.390625 0 15.390625 0 Z M 15.390625 0 "/>
</g>
<g id="glyph-26-9-97720623">
<path d="M 10.015625 -10.078125 C 10.015625 -10.078125 6.53125 0 6.53125 0 C 6.53125 0 3.796875 0 3.796875 0 C 3.796875 0 0.265625 -10.078125 0.265625 -10.078125 C 0.265625 -10.078125 3.03125 -10.078125 3.03125 -10.078125 C 3.03125 -10.078125 5.203125 -2.703125 5.203125 -2.703125 C 5.203125 -2.703125 7.25 -10.078125 7.25 -10.078125 C 7.25 -10.078125 10.015625 -10.078125 10.015625 -10.078125 Z M 10.015625 -10.078125 "/>
</g>
<g id="glyph-26-10-97720623">
<path d="M 10.09375 0 C 10.09375 0 7.484375 0 7.484375 0 C 7.484375 0 7.484375 -1.328125 7.484375 -1.328125 C 6.734375 -0.34375 5.828125 0.171875 4.46875 0.171875 C 2.3125 0.171875 1.078125 -1.109375 1.078125 -3.328125 C 1.078125 -3.328125 1.078125 -10.078125 1.078125 -10.078125 C 1.078125 -10.078125 3.703125 -10.078125 3.703125 -10.078125 C 3.703125 -10.078125 3.703125 -3.859375 3.703125 -3.859375 C 3.703125 -2.65625 4.25 -2.046875 5.375 -2.046875 C 6.640625 -2.046875 7.484375 -2.84375 7.484375 -4.03125 C 7.484375 -4.03125 7.484375 -10.078125 7.484375 -10.078125 C 7.484375 -10.078125 10.09375 -10.078125 10.09375 -10.078125 C 10.09375 -10.078125 10.09375 0 10.09375 0 Z M 10.09375 0 "/>
</g>
<g id="glyph-26-11-97720623">
<path d="M 10.1875 0 C 10.1875 0 7.578125 0 7.578125 0 C 7.578125 0 7.578125 -6.21875 7.578125 -6.21875 C 7.578125 -7.40625 7.015625 -8.03125 5.90625 -8.03125 C 4.625 -8.03125 3.796875 -7.25 3.796875 -6.046875 C 3.796875 -6.046875 3.796875 0 3.796875 0 C 3.796875 0 1.171875 0 1.171875 0 C 1.171875 0 1.171875 -10.078125 1.171875 -10.078125 C 1.171875 -10.078125 3.796875 -10.078125 3.796875 -10.078125 C 3.796875 -10.078125 3.796875 -8.625 3.796875 -8.625 C 4.53125 -9.75 5.453125 -10.25 6.8125 -10.25 C 8.96875 -10.25 10.1875 -8.984375 10.1875 -6.765625 C 10.1875 -6.765625 10.1875 0 10.1875 0 Z M 10.1875 0 "/>
</g>
<g id="glyph-27-0-97720623">
<path d="M 10.1875 0 C 10.1875 0 7.578125 0 7.578125 0 C 7.578125 0 7.578125 -6.21875 7.578125 -6.21875 C 7.578125 -7.40625 7.015625 -8.03125 5.90625 -8.03125 C 4.625 -8.03125 3.796875 -7.25 3.796875 -6.046875 C 3.796875 -6.046875 3.796875 0 3.796875 0 C 3.796875 0 1.171875 0 1.171875 0 C 1.171875 0 1.171875 -10.078125 1.171875 -10.078125 C 1.171875 -10.078125 3.796875 -10.078125 3.796875 -10.078125 C 3.796875 -10.078125 3.796875 -8.625 3.796875 -8.625 C 4.53125 -9.75 5.453125 -10.25 6.8125 -10.25 C 8.96875 -10.25 10.1875 -8.984375 10.1875 -6.765625 C 10.1875 -6.765625 10.1875 0 10.1875 0 Z M 10.1875 0 "/>
</g>
<g id="glyph-27-1-97720623">
<path d="M 9.78125 0 C 9.78125 0 6.953125 0 6.953125 0 C 6.703125 -0.296875 6.640625 -0.75 6.640625 -1.265625 C 5.734375 -0.3125 4.703125 0.171875 3.578125 0.171875 C 1.90625 0.171875 0.515625 -0.765625 0.515625 -2.71875 C 0.515625 -4.5625 1.5 -5.421875 3.484375 -5.765625 C 3.484375 -5.765625 4.53125 -5.953125 4.53125 -5.953125 C 5.84375 -6.1875 6.625 -6.0625 6.625 -7.125 C 6.625 -7.8125 6.125 -8.140625 5.109375 -8.140625 C 3.828125 -8.140625 3.390625 -7.8125 3.265625 -6.765625 C 3.265625 -6.765625 0.75 -6.765625 0.75 -6.765625 C 0.921875 -9.09375 2.328125 -10.25 5.0625 -10.25 C 7.78125 -10.25 9.1875 -9.203125 9.1875 -7.15625 C 9.1875 -7.15625 9.1875 -1.546875 9.1875 -1.546875 C 9.1875 -1.03125 9.3125 -0.75 9.78125 -0.3125 C 9.78125 -0.3125 9.78125 0 9.78125 0 Z M 6.625 -4.3125 C 6.625 -4.3125 6.625 -4.765625 6.625 -4.765625 C 6.328125 -4.609375 6.21875 -4.578125 5.53125 -4.4375 C 5.53125 -4.4375 4.625 -4.28125 4.625 -4.28125 C 3.546875 -4.078125 3.140625 -3.796875 3.140625 -3.03125 C 3.140625 -2.28125 3.671875 -1.9375 4.5625 -1.9375 C 5.875 -1.9375 6.625 -2.796875 6.625 -4.3125 Z M 6.625 -4.3125 "/>
</g>
<g id="glyph-28-0-97720623">
<path d="M 12.796875 -4.65625 C 12.625 -1.53125 10.359375 0.21875 6.984375 0.21875 C 3.1875 0.21875 0.828125 -2.421875 0.828125 -6.796875 C 0.828125 -11.203125 3.21875 -13.84375 7.0625 -13.84375 C 10.125 -13.84375 12.484375 -12.140625 12.734375 -9 C 12.734375 -9 10.0625 -9 10.0625 -9 C 9.65625 -10.75 8.65625 -11.453125 7.15625 -11.453125 C 4.953125 -11.453125 3.625 -9.765625 3.625 -6.765625 C 3.625 -3.796875 4.890625 -2.125 7.0625 -2.125 C 8.796875 -2.125 9.890625 -2.90625 10.0625 -4.65625 C 10.0625 -4.65625 12.796875 -4.65625 12.796875 -4.65625 Z M 12.796875 -4.65625 "/>
</g>
<g id="glyph-29-0-97720623">
</g>
<g id="glyph-30-0-97720623">
<path d="M 3.859375 0 C 3.859375 0 1.25 0 1.25 0 C 1.25 0 1.25 -13.609375 1.25 -13.609375 C 1.25 -13.609375 3.859375 -13.609375 3.859375 -13.609375 C 3.859375 -13.609375 3.859375 0 3.859375 0 Z M 3.859375 0 "/>
</g>
<g id="glyph-31-0-97720623">
<path d="M 6.484375 0 C 6.484375 0 4.84375 0 4.84375 0 C 4.84375 0 4.84375 -9.421875 4.84375 -9.421875 C 4.84375 -9.421875 1.90625 -9.421875 1.90625 -9.421875 C 1.90625 -9.421875 1.90625 -10.609375 1.90625 -10.609375 C 4.4375 -10.921875 4.8125 -11.203125 5.390625 -13.234375 C 5.390625 -13.234375 6.484375 -13.234375 6.484375 -13.234375 C 6.484375 -13.234375 6.484375 0 6.484375 0 Z M 6.484375 0 "/>
</g>
<g id="glyph-31-1-97720623">
</g>
<g id="glyph-31-2-97720623">
<path d="M 9.984375 -0.03125 C 9.484375 0.09375 9.25 0.125 8.921875 0.125 C 8.15625 0.125 7.484375 -0.40625 7.3125 -1.15625 C 6.453125 -0.25 5.25 0.28125 4 0.28125 C 2.015625 0.28125 0.78125 -0.765625 0.78125 -2.546875 C 0.78125 -3.734375 1.359375 -4.609375 2.5 -5.078125 C 3.09375 -5.328125 3.4375 -5.390625 5.640625 -5.671875 C 6.875 -5.828125 7.265625 -6.109375 7.265625 -6.765625 C 7.265625 -6.765625 7.265625 -7.171875 7.265625 -7.171875 C 7.265625 -8.109375 6.484375 -8.625 5.078125 -8.625 C 3.625 -8.625 2.90625 -8.078125 2.78125 -6.890625 C 2.78125 -6.890625 1.21875 -6.890625 1.21875 -6.890625 C 1.3125 -9.15625 2.765625 -10.0625 5.140625 -10.0625 C 7.546875 -10.0625 8.8125 -9.125 8.8125 -7.390625 C 8.8125 -7.390625 8.8125 -1.9375 8.8125 -1.9375 C 8.8125 -1.453125 9.109375 -1.171875 9.65625 -1.171875 C 9.75 -1.171875 9.828125 -1.171875 9.984375 -1.21875 C 9.984375 -1.21875 9.984375 -0.03125 9.984375 -0.03125 Z M 7.265625 -3.375 C 7.265625 -3.375 7.265625 -4.84375 7.265625 -4.84375 C 6.734375 -4.59375 6.40625 -4.515625 4.765625 -4.296875 C 3.09375 -4.046875 2.40625 -3.609375 2.40625 -2.578125 C 2.40625 -1.515625 3.125 -1.078125 4.328125 -1.078125 C 5.84375 -1.078125 7.265625 -1.984375 7.265625 -3.375 Z M 7.265625 -3.375 "/>
</g>
<g id="glyph-31-3-97720623">
<path d="M 9.578125 -4.4375 C 9.578125 -4.4375 2.375 -4.4375 2.375 -4.4375 C 2.40625 -2.203125 3.625 -1.15625 5.25 -1.15625 C 6.5 -1.15625 7.375 -1.6875 7.8125 -2.96875 C 7.8125 -2.96875 9.375 -2.96875 9.375 -2.96875 C 8.984375 -0.984375 7.4375 0.28125 5.1875 0.28125 C 2.453125 0.28125 0.75 -1.625 0.75 -4.84375 C 0.75 -8.046875 2.5 -10.0625 5.234375 -10.0625 C 7.0625 -10.0625 8.546875 -9.09375 9.1875 -7.484375 C 9.46875 -6.765625 9.578125 -5.859375 9.578125 -4.4375 Z M 7.921875 -5.828125 C 7.921875 -7.359375 6.734375 -8.625 5.203125 -8.625 C 3.640625 -8.625 2.546875 -7.453125 2.40625 -5.71875 C 2.40625 -5.71875 7.890625 -5.71875 7.890625 -5.71875 C 7.921875 -5.75 7.921875 -5.828125 7.921875 -5.828125 Z M 7.921875 -5.828125 "/>
</g>
<g id="glyph-31-4-97720623">
<path d="M 8.90625 -3.359375 C 8.71875 -1.125 7.25 0.28125 4.90625 0.28125 C 2.265625 0.28125 0.578125 -1.640625 0.578125 -4.796875 C 0.578125 -8.046875 2.296875 -10.0625 4.921875 -10.0625 C 7.109375 -10.0625 8.609375 -8.890625 8.796875 -6.5 C 8.796875 -6.5 7.21875 -6.5 7.21875 -6.5 C 7.046875 -7.859375 6.21875 -8.625 4.90625 -8.625 C 3.21875 -8.625 2.203125 -7.25 2.203125 -4.796875 C 2.203125 -2.484375 3.234375 -1.15625 4.953125 -1.15625 C 6.28125 -1.15625 7.078125 -1.796875 7.34375 -3.359375 C 7.34375 -3.359375 8.90625 -3.359375 8.90625 -3.359375 Z M 8.90625 -3.359375 "/>
</g>
<g id="glyph-31-5-97720623">
<path d="M 4.75 0 C 4.21875 0.09375 3.84375 0.125 3.46875 0.125 C 2.265625 0.125 1.59375 -0.421875 1.59375 -1.421875 C 1.59375 -1.421875 1.59375 -8.515625 1.59375 -8.515625 C 1.59375 -8.515625 0.265625 -8.515625 0.265625 -8.515625 C 0.265625 -8.515625 0.265625 -9.78125 0.265625 -9.78125 C 0.265625 -9.78125 1.59375 -9.78125 1.59375 -9.78125 C 1.59375 -9.78125 1.59375 -12.46875 1.59375 -12.46875 C 1.59375 -12.46875 3.140625 -12.46875 3.140625 -12.46875 C 3.140625 -12.46875 3.140625 -9.78125 3.140625 -9.78125 C 3.140625 -9.78125 4.75 -9.78125 4.75 -9.78125 C 4.75 -9.78125 4.75 -8.515625 4.75 -8.515625 C 4.75 -8.515625 3.140625 -8.515625 3.140625 -8.515625 C 3.140625 -8.515625 3.140625 -2.109375 3.140625 -2.109375 C 3.140625 -1.421875 3.328125 -1.234375 4 -1.234375 C 4.296875 -1.234375 4.53125 -1.25 4.75 -1.3125 C 4.75 -1.3125 4.75 0 4.75 0 Z M 4.75 0 "/>
</g>
<g id="glyph-31-6-97720623">
<path d="M 9.515625 -4.8125 C 9.515625 -1.609375 7.84375 0.28125 5.09375 0.28125 C 2.3125 0.28125 0.671875 -1.609375 0.671875 -4.890625 C 0.671875 -8.171875 2.328125 -10.0625 5.078125 -10.0625 C 7.890625 -10.0625 9.515625 -8.203125 9.515625 -4.8125 Z M 7.890625 -4.84375 C 7.890625 -7.265625 6.859375 -8.625 5.09375 -8.625 C 3.359375 -8.625 2.296875 -7.25 2.296875 -4.890625 C 2.296875 -2.515625 3.359375 -1.15625 5.09375 -1.15625 C 6.8125 -1.15625 7.890625 -2.546875 7.890625 -4.84375 Z M 7.890625 -4.84375 "/>
</g>
<g id="glyph-31-7-97720623">
<path d="M 8.921875 -9.78125 C 8.921875 -9.78125 4.578125 2.046875 4.578125 2.046875 C 4.046875 3.453125 3.15625 4.078125 2.046875 4.078125 C 1.640625 4.078125 1.328125 4 1.015625 3.828125 C 1.015625 3.828125 1.015625 2.421875 1.015625 2.421875 C 1.34375 2.5 1.609375 2.546875 1.828125 2.546875 C 2.5 2.546875 2.8125 2.28125 3.078125 1.59375 C 3.078125 1.59375 3.671875 0.03125 3.671875 0.03125 C 3.671875 0.03125 0.375 -9.78125 0.375 -9.78125 C 0.375 -9.78125 2.03125 -9.78125 2.03125 -9.78125 C 2.03125 -9.78125 4.53125 -2.171875 4.53125 -2.171875 C 4.53125 -2.171875 7.25 -9.78125 7.25 -9.78125 C 7.25 -9.78125 8.921875 -9.78125 8.921875 -9.78125 Z M 8.921875 -9.78125 "/>
</g>
<g id="glyph-31-8-97720623">
<path d="M 6 -8.421875 C 3.578125 -8.390625 2.859375 -7.28125 2.859375 -5.078125 C 2.859375 -5.078125 2.859375 0 2.859375 0 C 2.859375 0 1.3125 0 1.3125 0 C 1.3125 0 1.3125 -9.78125 1.3125 -9.78125 C 1.3125 -9.78125 2.71875 -9.78125 2.71875 -9.78125 C 2.71875 -9.78125 2.71875 -8.015625 2.71875 -8.015625 C 3.625 -9.46875 4.390625 -10.0625 5.390625 -10.0625 C 5.609375 -10.0625 5.734375 -10.046875 6 -10.015625 C 6 -10.015625 6 -8.421875 6 -8.421875 Z M 6 -8.421875 "/>
</g>
<g id="glyph-31-9-97720623">
<path d="M 2.859375 2.03125 C 2.859375 3.359375 1.9375 4.078125 0.1875 4.078125 C -0.0625 4.078125 -0.15625 4.046875 -0.34375 4.015625 C -0.34375 4.015625 -0.34375 2.6875 -0.34375 2.6875 C -0.34375 2.6875 0.03125 2.703125 0.03125 2.703125 C 0.984375 2.765625 1.3125 2.359375 1.3125 1.421875 C 1.3125 1.421875 1.3125 -9.78125 1.3125 -9.78125 C 1.3125 -9.78125 2.859375 -9.78125 2.859375 -9.78125 C 2.859375 -9.78125 2.859375 2.03125 2.859375 2.03125 Z M 3.0625 -11.265625 C 3.0625 -11.265625 1.125 -11.265625 1.125 -11.265625 C 1.125 -11.265625 1.125 -13.203125 1.125 -13.203125 C 1.125 -13.203125 3.0625 -13.203125 3.0625 -13.203125 C 3.0625 -13.203125 3.0625 -11.265625 3.0625 -11.265625 Z M 3.0625 -11.265625 "/>
</g>
<g id="glyph-31-10-97720623">
<path d="M 9.46875 -6.359375 C 9.46875 -2.015625 7.9375 0.28125 5.140625 0.28125 C 2.296875 0.28125 0.796875 -2.015625 0.796875 -6.484375 C 0.796875 -10.921875 2.28125 -13.234375 5.140625 -13.234375 C 8.015625 -13.234375 9.46875 -10.953125 9.46875 -6.359375 Z M 7.78125 -6.515625 C 7.78125 -10.0625 6.90625 -11.78125 5.140625 -11.78125 C 3.359375 -11.78125 2.484375 -10.078125 2.484375 -6.453125 C 2.484375 -2.84375 3.359375 -1.078125 5.09375 -1.078125 C 6.921875 -1.078125 7.78125 -2.765625 7.78125 -6.515625 Z M 7.78125 -6.515625 "/>
</g>
<g id="glyph-31-11-97720623">
<path d="M 2.859375 0 C 2.859375 0 1.3125 0 1.3125 0 C 1.3125 0 1.3125 -9.78125 1.3125 -9.78125 C 1.3125 -9.78125 2.859375 -9.78125 2.859375 -9.78125 C 2.859375 -9.78125 2.859375 0 2.859375 0 Z M 3.0625 -11.265625 C 3.0625 -11.265625 1.125 -11.265625 1.125 -11.265625 C 1.125 -11.265625 1.125 -13.203125 1.125 -13.203125 C 1.125 -13.203125 3.0625 -13.203125 3.0625 -13.203125 C 3.0625 -13.203125 3.0625 -11.265625 3.0625 -11.265625 Z M 3.0625 -11.265625 "/>
</g>
<g id="glyph-31-12-97720623">
<path d="M 8.578125 -2.75 C 8.578125 -0.859375 7 0.28125 4.53125 0.28125 C 1.984375 0.28125 0.703125 -0.734375 0.640625 -2.984375 C 0.640625 -2.984375 2.28125 -2.984375 2.28125 -2.984375 C 2.484375 -1.5 3.265625 -1.15625 4.671875 -1.15625 C 6.03125 -1.15625 6.953125 -1.703125 6.953125 -2.609375 C 6.953125 -3.328125 6.515625 -3.640625 5.4375 -3.90625 C 5.4375 -3.90625 3.984375 -4.25 3.984375 -4.25 C 1.65625 -4.8125 0.875 -5.546875 0.875 -7.078125 C 0.875 -8.890625 2.359375 -10.0625 4.625 -10.0625 C 6.890625 -10.0625 8.15625 -8.984375 8.171875 -7.0625 C 8.171875 -7.0625 6.53125 -7.0625 6.53125 -7.0625 C 6.5 -8.078125 5.828125 -8.625 4.578125 -8.625 C 3.3125 -8.625 2.5 -8.046875 2.5 -7.15625 C 2.5 -6.453125 3.046875 -6.046875 4.3125 -5.75 C 4.3125 -5.75 5.8125 -5.390625 5.8125 -5.390625 C 7.75 -4.921875 8.578125 -4.203125 8.578125 -2.75 Z M 8.578125 -2.75 "/>
</g>
<g id="glyph-32-0-97720623">
<path d="M 4.75 0 C 4.21875 0.09375 3.84375 0.125 3.46875 0.125 C 2.265625 0.125 1.59375 -0.421875 1.59375 -1.421875 C 1.59375 -1.421875 1.59375 -8.515625 1.59375 -8.515625 C 1.59375 -8.515625 0.265625 -8.515625 0.265625 -8.515625 C 0.265625 -8.515625 0.265625 -9.78125 0.265625 -9.78125 C 0.265625 -9.78125 1.59375 -9.78125 1.59375 -9.78125 C 1.59375 -9.78125 1.59375 -12.46875 1.59375 -12.46875 C 1.59375 -12.46875 3.140625 -12.46875 3.140625 -12.46875 C 3.140625 -12.46875 3.140625 -9.78125 3.140625 -9.78125 C 3.140625 -9.78125 4.75 -9.78125 4.75 -9.78125 C 4.75 -9.78125 4.75 -8.515625 4.75 -8.515625 C 4.75 -8.515625 3.140625 -8.515625 3.140625 -8.515625 C 3.140625 -8.515625 3.140625 -2.109375 3.140625 -2.109375 C 3.140625 -1.421875 3.328125 -1.234375 4 -1.234375 C 4.296875 -1.234375 4.53125 -1.25 4.75 -1.3125 C 4.75 -1.3125 4.75 0 4.75 0 Z M 4.75 0 "/>
</g>
<g id="glyph-32-1-97720623">
<path d="M 6 -8.421875 C 3.578125 -8.390625 2.859375 -7.28125 2.859375 -5.078125 C 2.859375 -5.078125 2.859375 0 2.859375 0 C 2.859375 0 1.3125 0 1.3125 0 C 1.3125 0 1.3125 -9.78125 1.3125 -9.78125 C 1.3125 -9.78125 2.71875 -9.78125 2.71875 -9.78125 C 2.71875 -9.78125 2.71875 -8.015625 2.71875 -8.015625 C 3.625 -9.46875 4.390625 -10.0625 5.390625 -10.0625 C 5.609375 -10.0625 5.734375 -10.046875 6 -10.015625 C 6 -10.015625 6 -8.421875 6 -8.421875 Z M 6 -8.421875 "/>
</g>
<g id="glyph-32-2-97720623">
<path d="M 2.859375 2.03125 C 2.859375 3.359375 1.9375 4.078125 0.1875 4.078125 C -0.0625 4.078125 -0.15625 4.046875 -0.34375 4.015625 C -0.34375 4.015625 -0.34375 2.6875 -0.34375 2.6875 C -0.34375 2.6875 0.03125 2.703125 0.03125 2.703125 C 0.984375 2.765625 1.3125 2.359375 1.3125 1.421875 C 1.3125 1.421875 1.3125 -9.78125 1.3125 -9.78125 C 1.3125 -9.78125 2.859375 -9.78125 2.859375 -9.78125 C 2.859375 -9.78125 2.859375 2.03125 2.859375 2.03125 Z M 3.0625 -11.265625 C 3.0625 -11.265625 1.125 -11.265625 1.125 -11.265625 C 1.125 -11.265625 1.125 -13.203125 1.125 -13.203125 C 1.125 -13.203125 3.0625 -13.203125 3.0625 -13.203125 C 3.0625 -13.203125 3.0625 -11.265625 3.0625 -11.265625 Z M 3.0625 -11.265625 "/>
</g>
<g id="glyph-32-3-97720623">
<path d="M 9.46875 -6.359375 C 9.46875 -2.015625 7.9375 0.28125 5.140625 0.28125 C 2.296875 0.28125 0.796875 -2.015625 0.796875 -6.484375 C 0.796875 -10.921875 2.28125 -13.234375 5.140625 -13.234375 C 8.015625 -13.234375 9.46875 -10.953125 9.46875 -6.359375 Z M 7.78125 -6.515625 C 7.78125 -10.0625 6.90625 -11.78125 5.140625 -11.78125 C 3.359375 -11.78125 2.484375 -10.078125 2.484375 -6.453125 C 2.484375 -2.84375 3.359375 -1.078125 5.09375 -1.078125 C 6.921875 -1.078125 7.78125 -2.765625 7.78125 -6.515625 Z M 7.78125 -6.515625 "/>
</g>
<g id="glyph-32-4-97720623">
<path d="M 8.578125 -2.75 C 8.578125 -0.859375 7 0.28125 4.53125 0.28125 C 1.984375 0.28125 0.703125 -0.734375 0.640625 -2.984375 C 0.640625 -2.984375 2.28125 -2.984375 2.28125 -2.984375 C 2.484375 -1.5 3.265625 -1.15625 4.671875 -1.15625 C 6.03125 -1.15625 6.953125 -1.703125 6.953125 -2.609375 C 6.953125 -3.328125 6.515625 -3.640625 5.4375 -3.90625 C 5.4375 -3.90625 3.984375 -4.25 3.984375 -4.25 C 1.65625 -4.8125 0.875 -5.546875 0.875 -7.078125 C 0.875 -8.890625 2.359375 -10.0625 4.625 -10.0625 C 6.890625 -10.0625 8.15625 -8.984375 8.171875 -7.0625 C 8.171875 -7.0625 6.53125 -7.0625 6.53125 -7.0625 C 6.5 -8.078125 5.828125 -8.625 4.578125 -8.625 C 3.3125 -8.625 2.5 -8.046875 2.5 -7.15625 C 2.5 -6.453125 3.046875 -6.046875 4.3125 -5.75 C 4.3125 -5.75 5.8125 -5.390625 5.8125 -5.390625 C 7.75 -4.921875 8.578125 -4.203125 8.578125 -2.75 Z M 8.578125 -2.75 "/>
</g>
<g id="glyph-32-5-97720623">
<path d="M 9.984375 -0.03125 C 9.484375 0.09375 9.25 0.125 8.921875 0.125 C 8.15625 0.125 7.484375 -0.40625 7.3125 -1.15625 C 6.453125 -0.25 5.25 0.28125 4 0.28125 C 2.015625 0.28125 0.78125 -0.765625 0.78125 -2.546875 C 0.78125 -3.734375 1.359375 -4.609375 2.5 -5.078125 C 3.09375 -5.328125 3.4375 -5.390625 5.640625 -5.671875 C 6.875 -5.828125 7.265625 -6.109375 7.265625 -6.765625 C 7.265625 -6.765625 7.265625 -7.171875 7.265625 -7.171875 C 7.265625 -8.109375 6.484375 -8.625 5.078125 -8.625 C 3.625 -8.625 2.90625 -8.078125 2.78125 -6.890625 C 2.78125 -6.890625 1.21875 -6.890625 1.21875 -6.890625 C 1.3125 -9.15625 2.765625 -10.0625 5.140625 -10.0625 C 7.546875 -10.0625 8.8125 -9.125 8.8125 -7.390625 C 8.8125 -7.390625 8.8125 -1.9375 8.8125 -1.9375 C 8.8125 -1.453125 9.109375 -1.171875 9.65625 -1.171875 C 9.75 -1.171875 9.828125 -1.171875 9.984375 -1.21875 C 9.984375 -1.21875 9.984375 -0.03125 9.984375 -0.03125 Z M 7.265625 -3.375 C 7.265625 -3.375 7.265625 -4.84375 7.265625 -4.84375 C 6.734375 -4.59375 6.40625 -4.515625 4.765625 -4.296875 C 3.09375 -4.046875 2.40625 -3.609375 2.40625 -2.578125 C 2.40625 -1.515625 3.125 -1.078125 4.328125 -1.078125 C 5.84375 -1.078125 7.265625 -1.984375 7.265625 -3.375 Z M 7.265625 -3.375 "/>
</g>
<g id="glyph-33-0-97720623">
<path d="M 6 -8.421875 C 3.578125 -8.390625 2.859375 -7.28125 2.859375 -5.078125 C 2.859375 -5.078125 2.859375 0 2.859375 0 C 2.859375 0 1.3125 0 1.3125 0 C 1.3125 0 1.3125 -9.78125 1.3125 -9.78125 C 1.3125 -9.78125 2.71875 -9.78125 2.71875 -9.78125 C 2.71875 -9.78125 2.71875 -8.015625 2.71875 -8.015625 C 3.625 -9.46875 4.390625 -10.0625 5.390625 -10.0625 C 5.609375 -10.0625 5.734375 -10.046875 6 -10.015625 C 6 -10.015625 6 -8.421875 6 -8.421875 Z M 6 -8.421875 "/>
</g>
<g id="glyph-33-1-97720623">
<path d="M 9.515625 -4.8125 C 9.515625 -1.609375 7.84375 0.28125 5.09375 0.28125 C 2.3125 0.28125 0.671875 -1.609375 0.671875 -4.890625 C 0.671875 -8.171875 2.328125 -10.0625 5.078125 -10.0625 C 7.890625 -10.0625 9.515625 -8.203125 9.515625 -4.8125 Z M 7.890625 -4.84375 C 7.890625 -7.265625 6.859375 -8.625 5.09375 -8.625 C 3.359375 -8.625 2.296875 -7.25 2.296875 -4.890625 C 2.296875 -2.515625 3.359375 -1.15625 5.09375 -1.15625 C 6.8125 -1.15625 7.890625 -2.546875 7.890625 -4.84375 Z M 7.890625 -4.84375 "/>
</g>
<g id="glyph-33-2-97720623">
<path d="M 2.859375 0 C 2.859375 0 1.3125 0 1.3125 0 C 1.3125 0 1.3125 -9.78125 1.3125 -9.78125 C 1.3125 -9.78125 2.859375 -9.78125 2.859375 -9.78125 C 2.859375 -9.78125 2.859375 0 2.859375 0 Z M 3.0625 -11.265625 C 3.0625 -11.265625 1.125 -11.265625 1.125 -11.265625 C 1.125 -11.265625 1.125 -13.203125 1.125 -13.203125 C 1.125 -13.203125 3.0625 -13.203125 3.0625 -13.203125 C 3.0625 -13.203125 3.0625 -11.265625 3.0625 -11.265625 Z M 3.0625 -11.265625 "/>
</g>
<g id="glyph-33-3-97720623">
<path d="M 9.578125 -4.4375 C 9.578125 -4.4375 2.375 -4.4375 2.375 -4.4375 C 2.40625 -2.203125 3.625 -1.15625 5.25 -1.15625 C 6.5 -1.15625 7.375 -1.6875 7.8125 -2.96875 C 7.8125 -2.96875 9.375 -2.96875 9.375 -2.96875 C 8.984375 -0.984375 7.4375 0.28125 5.1875 0.28125 C 2.453125 0.28125 0.75 -1.625 0.75 -4.84375 C 0.75 -8.046875 2.5 -10.0625 5.234375 -10.0625 C 7.0625 -10.0625 8.546875 -9.09375 9.1875 -7.484375 C 9.46875 -6.765625 9.578125 -5.859375 9.578125 -4.4375 Z M 7.921875 -5.828125 C 7.921875 -7.359375 6.734375 -8.625 5.203125 -8.625 C 3.640625 -8.625 2.546875 -7.453125 2.40625 -5.71875 C 2.40625 -5.71875 7.890625 -5.71875 7.890625 -5.71875 C 7.921875 -5.75 7.921875 -5.828125 7.921875 -5.828125 Z M 7.921875 -5.828125 "/>
</g>
</g>
</defs>
<path fill-rule="nonzero" fill="rgb(100%, 100%, 100%)" fill-opacity="1" d="M 0 0 L 666.667969 0 L 666.667969 466.667969 L 0 466.667969 Z M 0 0 "/>
<path fill-rule="nonzero" fill="rgb(100%, 100%, 100%)" fill-opacity="1" d="M 72 388 L 645.332031 388 L 645.332031 48 L 72 48 Z M 72 388 "/>
<path fill="none" stroke-width="1" stroke-linecap="butt" stroke-linejoin="miter" stroke="rgb(0%, 0%, 0%)" stroke-opacity="0.12" stroke-miterlimit="1.154701" d="M 73.546875 291 L 73.546875 36 " transform="matrix(1.333333, 0, 0, 1.333333, 0, 0)"/>
<path fill="none" stroke-width="1" stroke-linecap="butt" stroke-linejoin="miter" stroke="rgb(0%, 0%, 0%)" stroke-opacity="0.12" stroke-miterlimit="1.154701" d="M 269.000977 291 L 269.000977 36 " transform="matrix(1.333333, 0, 0, 1.333333, 0, 0)"/>
<path fill="none" stroke-width="1" stroke-linecap="butt" stroke-linejoin="miter" stroke="rgb(0%, 0%, 0%)" stroke-opacity="0.12" stroke-miterlimit="1.154701" d="M 464.455078 291 L 464.455078 36 " transform="matrix(1.333333, 0, 0, 1.333333, 0, 0)"/>
<path fill="none" stroke-width="1" stroke-linecap="butt" stroke-linejoin="miter" stroke="rgb(0%, 0%, 0%)" stroke-opacity="0.12" stroke-miterlimit="1.154701" d="M 54 279.541992 L 483.999023 279.541992 " transform="matrix(1.333333, 0, 0, 1.333333, 0, 0)"/>
<path fill="none" stroke-width="1" stroke-linecap="butt" stroke-linejoin="miter" stroke="rgb(0%, 0%, 0%)" stroke-opacity="0.12" stroke-miterlimit="1.154701" d="M 54 240.881836 L 483.999023 240.881836 " transform="matrix(1.333333, 0, 0, 1.333333, 0, 0)"/>
<path fill="none" stroke-width="1" stroke-linecap="butt" stroke-linejoin="miter" stroke="rgb(0%, 0%, 0%)" stroke-opacity="0.12" stroke-miterlimit="1.154701" d="M 54 202.224609 L 483.999023 202.224609 " transform="matrix(1.333333, 0, 0, 1.333333, 0, 0)"/>
<path fill="none" stroke-width="1" stroke-linecap="butt" stroke-linejoin="miter" stroke="rgb(0%, 0%, 0%)" stroke-opacity="0.12" stroke-miterlimit="1.154701" d="M 54 163.564453 L 483.999023 163.564453 " transform="matrix(1.333333, 0, 0, 1.333333, 0, 0)"/>
<path fill="none" stroke-width="1" stroke-linecap="butt" stroke-linejoin="miter" stroke="rgb(0%, 0%, 0%)" stroke-opacity="0.12" stroke-miterlimit="1.154701" d="M 54 124.907227 L 483.999023 124.907227 " transform="matrix(1.333333, 0, 0, 1.333333, 0, 0)"/>
<path fill="none" stroke-width="1" stroke-linecap="butt" stroke-linejoin="miter" stroke="rgb(0%, 0%, 0%)" stroke-opacity="0.12" stroke-miterlimit="1.154701" d="M 54 86.25 L 483.999023 86.25 " transform="matrix(1.333333, 0, 0, 1.333333, 0, 0)"/>
<path fill="none" stroke-width="1" stroke-linecap="butt" stroke-linejoin="miter" stroke="rgb(0%, 0%, 0%)" stroke-opacity="0.12" stroke-miterlimit="1.154701" d="M 54 47.589844 L 483.999023 47.589844 " transform="matrix(1.333333, 0, 0, 1.333333, 0, 0)"/>
<g fill="rgb(0%, 0%, 0%)" fill-opacity="1">
<use xlink:href="#glyph-0-0-97720623" x="337.928" y="442.090666"/>
</g>
<g fill="rgb(0%, 0%, 0%)" fill-opacity="1">
<use xlink:href="#glyph-1-0-97720623" x="349.333333" y="442.090666"/>
</g>
<g fill="rgb(0%, 0%, 0%)" fill-opacity="1">
<use xlink:href="#glyph-1-1-97720623" x="353.477333" y="442.090666"/>
</g>
<g fill="rgb(0%, 0%, 0%)" fill-opacity="1">
<use xlink:href="#glyph-1-2-97720623" x="369.026666" y="442.090666"/>
</g>
<g fill="rgb(0%, 0%, 0%)" fill-opacity="1">
<use xlink:href="#glyph-2-0-97720623" x="92.871275" y="416.344"/>
</g>
<g fill="rgb(0%, 0%, 0%)" fill-opacity="1">
<use xlink:href="#glyph-3-0-97720623" x="353.477333" y="416.344"/>
</g>
<g fill="rgb(0%, 0%, 0%)" fill-opacity="1">
<use xlink:href="#glyph-4-0-97720623" x="608.894079" y="416.344"/>
</g>
<g fill="rgb(0%, 0%, 0%)" fill-opacity="1">
<use xlink:href="#glyph-5-0-97720623" x="619.272746" y="416.344"/>
</g>
<g fill="rgb(0%, 0%, 0%)" fill-opacity="1">
<use xlink:href="#glyph-6-0-97720623" x="37.551995" y="296.334651"/>
</g>
<g fill="rgb(0%, 0%, 0%)" fill-opacity="1">
<use xlink:href="#glyph-7-0-97720623" x="37.551996" y="283.883982"/>
</g>
<g fill="rgb(0%, 0%, 0%)" fill-opacity="1">
<use xlink:href="#glyph-8-0-97720623" x="37.551996" y="274.550649"/>
</g>
<g fill="rgb(0%, 0%, 0%)" fill-opacity="1">
<use xlink:href="#glyph-9-0-97720623" x="37.551997" y="264.171982"/>
</g>
<g fill="rgb(0%, 0%, 0%)" fill-opacity="1">
<use xlink:href="#glyph-10-0-97720623" x="37.551998" y="253.793317"/>
</g>
<g fill="rgb(0%, 0%, 0%)" fill-opacity="1">
<use xlink:href="#glyph-11-0-97720623" x="37.551998" y="244.459984"/>
</g>
<g fill="rgb(0%, 0%, 0%)" fill-opacity="1">
<use xlink:href="#glyph-7-1-97720623" x="37.551998" y="239.270654"/>
</g>
<g fill="rgb(0%, 0%, 0%)" fill-opacity="1">
<use xlink:href="#glyph-12-0-97720623" x="37.551999" y="228.891987"/>
</g>
<g fill="rgb(0%, 0%, 0%)" fill-opacity="1">
<use xlink:href="#glyph-13-0-97720623" x="37.551999" y="223.702656"/>
</g>
<g fill="rgb(0%, 0%, 0%)" fill-opacity="1">
<use xlink:href="#glyph-14-0-97720623" x="37.552" y="219.558654"/>
</g>
<g fill="rgb(0%, 0%, 0%)" fill-opacity="1">
<use xlink:href="#glyph-15-0-97720623" x="37.552" y="209.179993"/>
</g>
<g fill="rgb(0%, 0%, 0%)" fill-opacity="1">
<use xlink:href="#glyph-16-0-97720623" x="37.552001" y="198.801332"/>
</g>
<g fill="rgb(0%, 0%, 0%)" fill-opacity="1">
<use xlink:href="#glyph-17-0-97720623" x="37.552001" y="193.612002"/>
</g>
<g fill="rgb(0%, 0%, 0%)" fill-opacity="1">
<use xlink:href="#glyph-18-0-97720623" x="37.552002" y="184.278669"/>
</g>
<g fill="rgb(0%, 0%, 0%)" fill-opacity="1">
<use xlink:href="#glyph-19-0-97720623" x="37.552002" y="173.900009"/>
</g>
<g fill="rgb(0%, 0%, 0%)" fill-opacity="1">
<use xlink:href="#glyph-20-0-97720623" x="37.552003" y="169.756007"/>
</g>
<g fill="rgb(0%, 0%, 0%)" fill-opacity="1">
<use xlink:href="#glyph-21-0-97720623" x="37.552003" y="159.377345"/>
</g>
<g fill="rgb(0%, 0%, 0%)" fill-opacity="1">
<use xlink:href="#glyph-22-0-97720623" x="37.552004" y="148.998683"/>
</g>
<g fill="rgb(0%, 0%, 0%)" fill-opacity="1">
<use xlink:href="#glyph-23-0-97720623" x="48.288" y="379.525242"/>
</g>
<g fill="rgb(0%, 0%, 0%)" fill-opacity="1">
<use xlink:href="#glyph-23-1-97720623" x="48.288" y="327.980789"/>
</g>
<g fill="rgb(0%, 0%, 0%)" fill-opacity="1">
<use xlink:href="#glyph-23-2-97720623" x="48.288" y="276.436345"/>
</g>
<g fill="rgb(0%, 0%, 0%)" fill-opacity="1">
<use xlink:href="#glyph-23-3-97720623" x="48.288" y="224.891891"/>
</g>
<g fill="rgb(0%, 0%, 0%)" fill-opacity="1">
<use xlink:href="#glyph-23-4-97720623" x="48.288" y="173.347437"/>
</g>
<g fill="rgb(0%, 0%, 0%)" fill-opacity="1">
<use xlink:href="#glyph-24-0-97720623" x="48.288" y="121.802983"/>
</g>
<g fill="rgb(0%, 0%, 0%)" fill-opacity="1">
<use xlink:href="#glyph-25-0-97720623" x="48.288" y="70.258549"/>
</g>
<g fill="rgb(0%, 0%, 0%)" fill-opacity="1">
<use xlink:href="#glyph-26-0-97720623" x="238.873342" y="38.597333"/>
</g>
<g fill="rgb(0%, 0%, 0%)" fill-opacity="1">
<use xlink:href="#glyph-26-1-97720623" x="254.422679" y="38.597333"/>
</g>
<g fill="rgb(0%, 0%, 0%)" fill-opacity="1">
<use xlink:href="#glyph-27-0-97720623" x="265.828003" y="38.597333"/>
</g>
<g fill="rgb(0%, 0%, 0%)" fill-opacity="1">
<use xlink:href="#glyph-26-2-97720623" x="277.233342" y="38.597333"/>
</g>
<g fill="rgb(0%, 0%, 0%)" fill-opacity="1">
<use xlink:href="#glyph-26-3-97720623" x="283.449341" y="38.597333"/>
</g>
<g fill="rgb(0%, 0%, 0%)" fill-opacity="1">
<use xlink:href="#glyph-26-4-97720623" x="293.828008" y="38.597333"/>
</g>
<g fill="rgb(0%, 0%, 0%)" fill-opacity="1">
<use xlink:href="#glyph-28-0-97720623" x="299.017339" y="38.597333"/>
</g>
<g fill="rgb(0%, 0%, 0%)" fill-opacity="1">
<use xlink:href="#glyph-27-1-97720623" x="312.49467" y="38.597333"/>
</g>
<g fill="rgb(0%, 0%, 0%)" fill-opacity="1">
<use xlink:href="#glyph-26-5-97720623" x="322.873337" y="38.597333"/>
</g>
<g fill="rgb(0%, 0%, 0%)" fill-opacity="1">
<use xlink:href="#glyph-26-6-97720623" x="330.134674" y="38.597333"/>
</g>
<g fill="rgb(0%, 0%, 0%)" fill-opacity="1">
<use xlink:href="#glyph-26-1-97720623" x="335.324005" y="38.597333"/>
</g>
<g fill="rgb(0%, 0%, 0%)" fill-opacity="1">
<use xlink:href="#glyph-26-4-97720623" x="346.72934" y="38.597333"/>
</g>
<g fill="rgb(0%, 0%, 0%)" fill-opacity="1">
<use xlink:href="#glyph-26-2-97720623" x="351.918671" y="38.597333"/>
</g>
<g fill="rgb(0%, 0%, 0%)" fill-opacity="1">
<use xlink:href="#glyph-26-7-97720623" x="358.134674" y="38.597333"/>
</g>
<g fill="rgb(0%, 0%, 0%)" fill-opacity="1">
<use xlink:href="#glyph-26-8-97720623" x="363.324005" y="38.597333"/>
</g>
<g fill="rgb(0%, 0%, 0%)" fill-opacity="1">
<use xlink:href="#glyph-26-3-97720623" x="379.918671" y="38.597333"/>
</g>
<g fill="rgb(0%, 0%, 0%)" fill-opacity="1">
<use xlink:href="#glyph-29-0-97720623" x="390.297333" y="38.597333"/>
</g>
<g fill="rgb(0%, 0%, 0%)" fill-opacity="1">
<use xlink:href="#glyph-26-3-97720623" x="395.486664" y="38.597333"/>
</g>
<g fill="rgb(0%, 0%, 0%)" fill-opacity="1">
<use xlink:href="#glyph-26-9-97720623" x="405.865326" y="38.597333"/>
</g>
<g fill="rgb(0%, 0%, 0%)" fill-opacity="1">
<use xlink:href="#glyph-26-1-97720623" x="416.243988" y="38.597333"/>
</g>
<g fill="rgb(0%, 0%, 0%)" fill-opacity="1">
<use xlink:href="#glyph-30-0-97720623" x="427.649323" y="38.597333"/>
</g>
<g fill="rgb(0%, 0%, 0%)" fill-opacity="1">
<use xlink:href="#glyph-26-10-97720623" x="432.838654" y="38.597333"/>
</g>
<g fill="rgb(0%, 0%, 0%)" fill-opacity="1">
<use xlink:href="#glyph-26-2-97720623" x="444.243988" y="38.597333"/>
</g>
<g fill="rgb(0%, 0%, 0%)" fill-opacity="1">
<use xlink:href="#glyph-26-7-97720623" x="450.459991" y="38.597333"/>
</g>
<g fill="rgb(0%, 0%, 0%)" fill-opacity="1">
<use xlink:href="#glyph-26-1-97720623" x="455.649323" y="38.597333"/>
</g>
<g fill="rgb(0%, 0%, 0%)" fill-opacity="1">
<use xlink:href="#glyph-26-11-97720623" x="467.054657" y="38.597333"/>
</g>
<path fill="none" stroke-width="1.5" stroke-linecap="butt" stroke-linejoin="miter" stroke="rgb(0%, 44.705883%, 69.803923%)" stroke-opacity="1" stroke-dasharray="4.5 4.5 1.5 4.5" stroke-miterlimit="2" d="M 73.546875 47.589844 L 75.509766 49.491211 L 77.475586 54.832031 L 79.438477 62.572266 L 81.404297 71.179688 L 83.367188 78.9375 L 85.333008 122.493164 L 87.295898 124.833984 L 89.261719 123.861328 L 91.224609 119.759766 L 93.19043 113.25 L 95.15332 105.439453 L 97.119141 97.655273 L 99.082031 91.209961 L 101.047852 87.208008 L 103.010742 86.34668 L 104.976562 88.798828 L 106.939453 94.160156 L 108.905273 101.510742 L 110.868164 109.573242 L 112.833984 116.938477 L 114.796875 122.320312 L 116.762695 124.801758 L 118.725586 123.969727 L 120.691406 119.994141 L 122.654297 113.566406 L 124.620117 105.788086 L 126.583008 97.97168 L 128.548828 91.444336 L 130.511719 87.319336 L 132.477539 86.314453 L 134.44043 88.628906 L 136.40625 93.878906 L 138.369141 101.167969 L 140.334961 109.230469 L 142.297852 116.651367 L 144.263672 122.144531 L 146.226562 124.760742 L 148.192383 124.075195 L 150.155273 120.222656 L 152.121094 113.882812 L 154.083984 106.133789 L 156.049805 98.293945 L 158.012695 91.68457 L 159.978516 87.436523 L 161.941406 86.291016 L 163.907227 88.461914 L 165.870117 93.603516 L 167.835938 100.828125 L 169.798828 108.884766 L 171.764648 116.361328 L 173.727539 121.959961 L 175.693359 124.716797 L 177.65625 124.171875 L 179.62207 120.448242 L 181.584961 114.193359 L 183.550781 106.482422 L 185.513672 98.616211 L 187.479492 91.927734 L 189.442383 87.55957 L 191.408203 86.270508 L 193.371094 88.303711 L 195.336914 93.328125 L 197.299805 100.488281 L 199.265625 145.520508 L 201.228516 152.742188 L 203.194336 158.686523 L 205.157227 162.46875 L 207.123047 202.207031 L 209.085938 200.748047 L 211.051758 197.103516 L 213.014648 191.730469 L 214.980469 185.291016 L 216.943359 178.558594 L 218.90918 172.350586 L 220.87207 167.419922 L 222.837891 164.375977 L 224.800781 163.602539 L 226.766602 165.210938 L 228.729492 169.019531 L 230.695312 174.5625 L 232.658203 181.151367 L 234.624023 187.959961 L 236.586914 194.132812 L 238.552734 198.896484 L 240.515625 201.662109 L 242.481445 202.104492 L 244.444336 200.182617 L 246.410156 196.148438 L 248.373047 190.50293 L 250.338867 183.9375 L 252.301758 177.246094 L 254.267578 171.237305 L 256.230469 166.643555 L 258.196289 164.033203 L 260.15918 163.737305 L 262.125 204.038086 L 264.087891 207.459961 L 266.053711 212.296875 L 268.016602 218.071289 L 269.982422 224.194336 L 271.945312 230.050781 L 273.911133 235.048828 L 275.874023 238.693359 L 277.839844 240.624023 L 279.802734 279.366211 L 281.768555 277.962891 L 283.731445 275.25293 L 285.697266 271.444336 L 287.660156 266.821289 L 289.625977 261.717773 L 291.588867 256.50293 L 293.554688 251.560547 L 295.517578 247.242188 L 297.483398 243.870117 L 299.446289 241.696289 L 301.412109 240.884766 L 303.375 241.511719 L 305.34082 243.536133 L 307.303711 246.814453 L 309.269531 251.109375 L 311.232422 256.098633 L 313.198242 261.398438 L 315.164062 266.610352 L 317.126953 271.333008 L 319.092773 275.211914 L 321.055664 277.957031 L 323.021484 279.369141 L 324.984375 279.351562 L 326.950195 277.918945 L 328.913086 275.185547 L 330.878906 271.356445 L 332.841797 266.71875 L 334.807617 261.609375 L 336.770508 256.397461 L 338.736328 251.463867 L 340.699219 247.163086 L 342.665039 243.814453 L 344.62793 241.664062 L 346.59375 240.884766 L 348.556641 241.538086 L 350.522461 243.588867 L 352.485352 246.893555 L 354.451172 251.206055 L 356.414062 256.204102 L 358.379883 261.506836 L 360.342773 266.712891 L 362.308594 271.420898 L 364.271484 275.279297 L 366.237305 277.998047 L 368.200195 279.383789 L 370.166016 279.336914 L 372.128906 277.875 L 374.094727 275.118164 L 376.057617 271.268555 L 378.023438 266.619141 L 379.986328 261.500977 L 381.952148 256.294922 L 383.915039 251.367188 L 385.880859 247.083984 L 387.84375 243.755859 L 389.80957 241.634766 L 391.772461 240.881836 L 393.738281 241.567383 L 395.701172 243.647461 L 397.666992 246.972656 L 399.629883 251.302734 L 401.595703 256.3125 L 403.558594 261.615234 L 405.524414 266.81543 L 407.487305 271.508789 L 409.453125 275.34668 L 411.416016 278.041992 L 413.381836 279.395508 L 415.344727 279.322266 L 417.310547 277.831055 L 419.273438 275.047852 L 421.239258 271.180664 L 423.202148 266.516602 L 425.167969 261.395508 L 427.130859 256.189453 L 429.09668 251.273438 L 431.05957 247.004883 L 433.025391 243.700195 L 434.988281 241.605469 L 436.954102 240.881836 L 438.916992 241.59668 L 440.882812 243.703125 L 442.845703 247.051758 L 444.811523 251.399414 L 446.774414 256.417969 L 448.740234 261.726562 L 450.703125 266.917969 L 452.668945 271.599609 L 454.631836 275.414062 L 456.597656 278.083008 L 458.560547 279.410156 L 460.526367 279.304688 L 462.489258 277.787109 L 464.455078 274.977539 " transform="matrix(1.333333, 0, 0, 1.333333, 0, 0)"/>
<path fill="none" stroke-width="1.5" stroke-linecap="butt" stroke-linejoin="miter" stroke="rgb(90.196079%, 62.352943%, 0%)" stroke-opacity="1" stroke-dasharray="4.5 4.5" stroke-miterlimit="2" d="M 73.546875 47.589844 L 75.509766 49.491211 L 77.475586 54.832031 L 79.438477 66.313477 L 81.404297 74.862305 L 83.367188 82.605469 L 85.333008 88.025391 L 87.295898 90.082031 L 89.261719 92.258789 L 91.224609 87.213867 L 93.19043 79.813477 L 95.15332 75.216797 L 97.119141 67.564453 L 99.082031 61.983398 L 101.047852 59.525391 L 103.010742 60.665039 L 104.976562 65.185547 L 106.939453 72.225586 L 108.905273 80.416992 L 110.868164 91.916016 L 112.833984 97.77832 L 114.796875 104.53418 L 116.762695 107.90332 L 118.725586 104.188477 L 120.691406 101.800781 L 122.654297 94.3125 L 124.620117 90.629883 L 126.583008 84.612305 L 128.548828 81.005859 L 130.511719 80.431641 L 132.477539 82.96582 L 134.44043 88.113281 L 136.40625 94.904297 L 138.369141 105.829102 L 140.334961 119.513672 L 142.297852 123.823242 L 144.263672 125.575195 L 146.226562 124.549805 L 148.192383 121.016602 L 150.155273 115.666992 L 152.121094 113.264648 L 154.083984 107.358398 L 156.049805 106.523438 L 158.012695 103.775391 L 159.978516 107.053711 L 161.941406 108.996094 L 163.907227 112.825195 L 165.870117 117.808594 L 167.835938 123.038086 L 169.798828 127.617188 L 171.764648 134.660156 L 173.727539 136.051758 L 175.693359 135.530273 L 177.65625 137.115234 L 179.62207 133.710938 L 181.584961 129.75293 L 183.550781 125.929688 L 185.513672 122.879883 L 187.479492 121.054688 L 189.442383 120.667969 L 191.408203 121.666992 L 193.371094 123.744141 L 195.336914 126.436523 L 197.299805 129.205078 L 199.265625 135.307617 L 201.228516 140.756836 L 203.194336 141.474609 L 205.157227 141.310547 L 207.123047 144.193359 L 209.085938 142.860352 L 211.051758 141.313477 L 213.014648 139.845703 L 214.980469 138.706055 L 216.943359 138.046875 L 218.90918 137.915039 L 220.87207 138.246094 L 222.837891 142.713867 L 224.800781 147.342773 L 226.766602 148.086914 L 228.729492 148.628906 L 230.695312 148.87793 L 232.658203 148.828125 L 234.624023 152.402344 L 236.586914 151.942383 L 238.552734 151.458984 L 240.515625 154.854492 L 242.481445 154.78125 L 244.444336 155.06543 L 246.410156 155.683594 L 248.373047 160.31543 L 250.338867 161.276367 L 252.301758 162.140625 L 254.267578 162.700195 L 256.230469 162.802734 L 258.196289 166.013672 L 260.15918 165.043945 L 262.125 163.737305 L 264.087891 162.292969 L 266.053711 164.680664 L 268.016602 163.716797 L 269.982422 163.245117 L 271.945312 163.333008 L 273.911133 163.96875 L 275.874023 165.058594 L 277.839844 166.441406 L 279.802734 167.923828 L 281.768555 176.961914 L 283.731445 178.154297 L 285.697266 182.671875 L 287.660156 183.061523 L 289.625977 182.988281 L 291.588867 182.466797 L 293.554688 181.570312 L 295.517578 180.413086 L 297.483398 179.135742 L 299.446289 181.743164 L 301.412109 180.726562 L 303.375 180.020508 L 305.34082 183.527344 L 307.303711 187.227539 L 309.269531 187.505859 L 311.232422 188.012695 L 313.198242 192.495117 L 315.164062 193.163086 L 317.126953 193.836914 L 319.092773 194.493164 L 321.055664 195.123047 L 323.021484 195.726562 L 324.984375 196.291992 L 326.950195 196.801758 L 328.913086 197.220703 L 330.878906 197.504883 L 332.841797 197.595703 L 334.807617 197.443359 L 336.770508 208.230469 L 338.736328 207.524414 L 340.699219 206.598633 L 342.665039 205.520508 L 344.62793 204.383789 L 346.59375 203.299805 L 348.556641 202.388672 L 350.522461 201.764648 L 352.485352 201.530273 L 354.451172 201.761719 L 356.414062 202.479492 L 358.379883 207.500977 L 360.342773 212.625 L 362.308594 214.209961 L 364.271484 215.859375 L 366.237305 217.420898 L 368.200195 218.739258 L 370.166016 219.676758 L 372.128906 223.895508 L 374.094727 227.4375 L 376.057617 226.523438 L 378.023438 225.064453 L 379.986328 226.910156 L 381.952148 224.856445 L 383.915039 226.335938 L 385.880859 224.375977 L 387.84375 222.829102 L 389.80957 221.876953 L 391.772461 225.515625 L 393.738281 226.048828 L 395.701172 231.149414 L 397.666992 233.053711 L 399.629883 235.379883 L 401.595703 237.914062 L 403.558594 240.421875 L 405.524414 242.660156 L 407.487305 244.412109 L 409.453125 245.499023 L 411.416016 245.806641 L 413.381836 245.291016 L 415.344727 243.981445 L 417.310547 241.992188 L 419.273438 239.496094 L 421.239258 240.588867 L 423.202148 241.59375 L 425.167969 242.976562 L 427.130859 241.116211 L 429.09668 239.868164 L 431.05957 239.352539 L 433.025391 239.62207 L 434.988281 240.662109 L 436.954102 242.390625 L 438.916992 244.666992 L 440.882812 247.297852 L 442.845703 250.060547 L 444.811523 252.711914 L 446.774414 255.026367 L 448.740234 256.804688 L 450.703125 257.885742 L 452.668945 258.178711 L 454.631836 257.660156 L 456.597656 256.368164 L 458.560547 258.052734 L 460.526367 255.708984 L 462.489258 253.078125 L 464.455078 250.374023 " transform="matrix(1.333333, 0, 0, 1.333333, 0, 0)"/>
<path fill="none" stroke-width="1.5" stroke-linecap="butt" stroke-linejoin="miter" stroke="rgb(0%, 61.960787%, 45.09804%)" stroke-opacity="1" stroke-miterlimit="2" d="M 73.546875 47.589844 L 75.509766 51.413086 L 77.475586 57.858398 L 79.438477 66.28418 L 81.404297 76.69043 L 83.367188 85.177734 L 85.333008 91.766602 L 87.295898 95.455078 L 89.261719 95.466797 L 91.224609 92.90625 L 93.19043 88.702148 L 95.15332 80.882812 L 97.119141 73.962891 L 99.082031 69.75293 L 101.047852 68.551758 L 103.010742 70.822266 L 104.976562 76.004883 L 106.939453 83.337891 L 108.905273 92.349609 L 110.868164 101.586914 L 112.833984 107.783203 L 114.796875 112.49707 L 116.762695 114.375 L 118.725586 112.652344 L 120.691406 108.700195 L 122.654297 102.744141 L 124.620117 96.864258 L 126.583008 92.736328 L 128.548828 89.185547 L 130.511719 89.961914 L 132.477539 91.819336 L 134.44043 97.089844 L 136.40625 105.706055 L 138.369141 113.589844 L 140.334961 122.595703 L 142.297852 128.296875 L 144.263672 131.399414 L 146.226562 132.697266 L 148.192383 131.856445 L 150.155273 128.244141 L 152.121094 123.043945 L 154.083984 119.490234 L 156.049805 114.811523 L 158.012695 113.557617 L 159.978516 113.24707 L 161.941406 115.142578 L 163.907227 119.411133 L 165.870117 124.705078 L 167.835938 131.405273 L 169.798828 136.078125 L 171.764648 140.235352 L 173.727539 142.945312 L 175.693359 143.923828 L 177.65625 143.551758 L 179.62207 141.398438 L 181.584961 138.331055 L 183.550781 136.089844 L 185.513672 134.583984 L 187.479492 133.245117 L 189.442383 135.023438 L 191.408203 136.608398 L 193.371094 138.266602 L 195.336914 140.81543 L 197.299805 144.56543 L 199.265625 147.594727 L 201.228516 150.577148 L 203.194336 152.838867 L 205.157227 154.96875 L 207.123047 156.210938 L 209.085938 156.328125 L 211.051758 156.292969 L 213.014648 156.020508 L 214.980469 155.460938 L 216.943359 154.491211 L 218.90918 154.051758 L 220.87207 154.980469 L 222.837891 157.227539 L 224.800781 158.797852 L 226.766602 160.294922 L 228.729492 162.251953 L 230.695312 165.626953 L 232.658203 167.200195 L 234.624023 169.139648 L 236.586914 170.305664 L 238.552734 170.727539 L 240.515625 171.287109 L 242.481445 171 L 244.444336 171.870117 L 246.410156 172.095703 L 248.373047 171.779297 L 250.338867 172.470703 L 252.301758 174.082031 L 254.267578 174.761719 L 256.230469 176.320312 L 258.196289 177.498047 L 260.15918 178.614258 L 262.125 178.875 L 264.087891 179.384766 L 266.053711 180.515625 L 268.016602 181.186523 L 269.982422 181.804688 L 271.945312 183.536133 L 273.911133 183.788086 L 275.874023 184.787109 L 277.839844 185.399414 L 279.802734 186.061523 L 281.768555 187.845703 L 283.731445 188.915039 L 285.697266 189.615234 L 287.660156 191.496094 L 289.625977 192.257812 L 291.588867 192.708984 L 293.554688 193.602539 L 295.517578 194.540039 L 297.483398 195.521484 L 299.446289 196.573242 L 301.412109 197.276367 L 303.375 197.610352 L 305.34082 198.65332 L 307.303711 200.036133 L 309.269531 200.923828 L 311.232422 201.328125 L 313.198242 201.958008 L 315.164062 202.825195 L 317.126953 203.607422 L 319.092773 203.581055 L 321.055664 203.548828 L 323.021484 203.915039 L 324.984375 204.339844 L 326.950195 204.442383 L 328.913086 204.647461 L 330.878906 205.391602 L 332.841797 205.514648 L 334.807617 207.249023 L 336.770508 207.975586 L 338.736328 209.856445 L 340.699219 211.699219 L 342.665039 212.355469 L 344.62793 212.551758 L 346.59375 213.026367 L 348.556641 213.785156 L 350.522461 215.982422 L 352.485352 216.266602 L 354.451172 216.55957 L 356.414062 216.899414 L 358.379883 217.710938 L 360.342773 220.086914 L 362.308594 221.036133 L 364.271484 221.24707 L 366.237305 221.835938 L 368.200195 223.125 L 370.166016 223.576172 L 372.128906 225.029297 L 374.094727 224.917969 L 376.057617 225.864258 L 378.023438 225.647461 L 379.986328 226.136719 L 381.952148 225.861328 L 383.915039 225.621094 L 385.880859 226.21875 L 387.84375 227.686523 L 389.80957 227.759766 L 391.772461 229.083984 L 393.738281 229.599609 L 395.701172 231.131836 L 397.666992 233.030273 L 399.629883 234.169922 L 401.595703 235.97168 L 403.558594 236.926758 L 405.524414 237.726562 L 407.487305 238.368164 L 409.453125 238.473633 L 411.416016 238.429688 L 413.381836 239.818359 L 415.344727 239.299805 L 417.310547 239.583984 L 419.273438 240.351562 L 421.239258 240.887695 L 423.202148 241.649414 L 425.167969 243.369141 L 427.130859 244.839844 L 429.09668 246.515625 L 431.05957 248.264648 L 433.025391 249.310547 L 434.988281 250.30957 L 436.954102 250.813477 L 438.916992 252.254883 L 440.882812 253.12793 L 442.845703 252.996094 L 444.811523 253.760742 L 446.774414 253.631836 L 448.740234 252.996094 L 450.703125 252.319336 L 452.668945 252.038086 L 454.631836 252.27832 L 456.597656 252.313477 L 458.560547 252.18457 L 460.526367 252.298828 L 462.489258 253.400391 L 464.455078 254.683594 " transform="matrix(1.333333, 0, 0, 1.333333, 0, 0)"/>
<path fill-rule="nonzero" fill="rgb(100%, 100%, 100%)" fill-opacity="1" stroke-width="1" stroke-linecap="butt" stroke-linejoin="miter" stroke="rgb(0%, 0%, 0%)" stroke-opacity="1" stroke-miterlimit="2" d="M 345 120 L 477.999023 120 L 477.999023 42 L 345 42 Z M 345 120 " transform="matrix(1.333333, 0, 0, 1.333333, 0, 0)"/>
<path fill="none" stroke-width="1" stroke-linecap="butt" stroke-linejoin="miter" stroke="rgb(0%, 0%, 0%)" stroke-opacity="1" stroke-miterlimit="1.154701" d="M 73.546875 291.500977 L 73.546875 296.499023 " transform="matrix(1.333333, 0, 0, 1.333333, 0, 0)"/>
<path fill="none" stroke-width="1" stroke-linecap="butt" stroke-linejoin="miter" stroke="rgb(0%, 0%, 0%)" stroke-opacity="1" stroke-miterlimit="1.154701" d="M 269.000977 291.500977 L 269.000977 296.499023 " transform="matrix(1.333333, 0, 0, 1.333333, 0, 0)"/>
<path fill="none" stroke-width="1" stroke-linecap="butt" stroke-linejoin="miter" stroke="rgb(0%, 0%, 0%)" stroke-opacity="1" stroke-miterlimit="1.154701" d="M 464.455078 291.500977 L 464.455078 296.499023 " transform="matrix(1.333333, 0, 0, 1.333333, 0, 0)"/>
<path fill="none" stroke-width="1" stroke-linecap="butt" stroke-linejoin="miter" stroke="rgb(0%, 0%, 0%)" stroke-opacity="1" stroke-miterlimit="1.154701" d="M 53.499023 279.541992 L 48.500977 279.541992 " transform="matrix(1.333333, 0, 0, 1.333333, 0, 0)"/>
<path fill="none" stroke-width="1" stroke-linecap="butt" stroke-linejoin="miter" stroke="rgb(0%, 0%, 0%)" stroke-opacity="1" stroke-miterlimit="1.154701" d="M 53.499023 240.881836 L 48.500977 240.881836 " transform="matrix(1.333333, 0, 0, 1.333333, 0, 0)"/>
<path fill="none" stroke-width="1" stroke-linecap="butt" stroke-linejoin="miter" stroke="rgb(0%, 0%, 0%)" stroke-opacity="1" stroke-miterlimit="1.154701" d="M 53.499023 202.224609 L 48.500977 202.224609 " transform="matrix(1.333333, 0, 0, 1.333333, 0, 0)"/>
<path fill="none" stroke-width="1" stroke-linecap="butt" stroke-linejoin="miter" stroke="rgb(0%, 0%, 0%)" stroke-opacity="1" stroke-miterlimit="1.154701" d="M 53.499023 163.564453 L 48.500977 163.564453 " transform="matrix(1.333333, 0, 0, 1.333333, 0, 0)"/>
<path fill="none" stroke-width="1" stroke-linecap="butt" stroke-linejoin="miter" stroke="rgb(0%, 0%, 0%)" stroke-opacity="1" stroke-miterlimit="1.154701" d="M 53.499023 124.907227 L 48.500977 124.907227 " transform="matrix(1.333333, 0, 0, 1.333333, 0, 0)"/>
<path fill="none" stroke-width="1" stroke-linecap="butt" stroke-linejoin="miter" stroke="rgb(0%, 0%, 0%)" stroke-opacity="1" stroke-miterlimit="1.154701" d="M 53.499023 86.25 L 48.500977 86.25 " transform="matrix(1.333333, 0, 0, 1.333333, 0, 0)"/>
<path fill="none" stroke-width="1" stroke-linecap="butt" stroke-linejoin="miter" stroke="rgb(0%, 0%, 0%)" stroke-opacity="1" stroke-miterlimit="1.154701" d="M 53.499023 47.589844 L 48.500977 47.589844 " transform="matrix(1.333333, 0, 0, 1.333333, 0, 0)"/>
<path fill="none" stroke-width="1.5" stroke-linecap="butt" stroke-linejoin="miter" stroke="rgb(0%, 44.705883%, 69.803923%)" stroke-opacity="1" stroke-dasharray="4.5 4.5 1.5 4.5" stroke-miterlimit="2" d="M 351.149414 57.999023 L 371.147461 57.999023 " transform="matrix(1.333333, 0, 0, 1.333333, 0, 0)"/>
<path fill="none" stroke-width="1.5" stroke-linecap="butt" stroke-linejoin="miter" stroke="rgb(90.196079%, 62.352943%, 0%)" stroke-opacity="1" stroke-dasharray="4.5 4.5" stroke-miterlimit="2" d="M 351.149414 81 L 371.147461 81 " transform="matrix(1.333333, 0, 0, 1.333333, 0, 0)"/>
<path fill="none" stroke-width="1.5" stroke-linecap="butt" stroke-linejoin="miter" stroke="rgb(0%, 61.960787%, 45.09804%)" stroke-opacity="1" stroke-miterlimit="2" d="M 351.149414 104.000977 L 371.147461 104.000977 " transform="matrix(1.333333, 0, 0, 1.333333, 0, 0)"/>
<g fill="rgb(0%, 0%, 0%)" fill-opacity="1">
<use xlink:href="#glyph-31-0-97720623" x="501.530696" y="84.137334"/>
</g>
<g fill="rgb(0%, 0%, 0%)" fill-opacity="1">
<use xlink:href="#glyph-31-1-97720623" x="511.909363" y="84.137334"/>
</g>
<g fill="rgb(0%, 0%, 0%)" fill-opacity="1">
<use xlink:href="#glyph-32-0-97720623" x="517.098694" y="84.137334"/>
</g>
<g fill="rgb(0%, 0%, 0%)" fill-opacity="1">
<use xlink:href="#glyph-32-1-97720623" x="522.28803" y="84.137334"/>
</g>
<g fill="rgb(0%, 0%, 0%)" fill-opacity="1">
<use xlink:href="#glyph-31-2-97720623" x="528.504028" y="84.137334"/>
</g>
<g fill="rgb(0%, 0%, 0%)" fill-opacity="1">
<use xlink:href="#glyph-32-2-97720623" x="538.882696" y="84.137334"/>
</g>
<g fill="rgb(0%, 0%, 0%)" fill-opacity="1">
<use xlink:href="#glyph-31-3-97720623" x="543.026695" y="84.137334"/>
</g>
<g fill="rgb(0%, 0%, 0%)" fill-opacity="1">
<use xlink:href="#glyph-31-4-97720623" x="553.40536" y="84.137334"/>
</g>
<g fill="rgb(0%, 0%, 0%)" fill-opacity="1">
<use xlink:href="#glyph-31-5-97720623" x="562.738693" y="84.137334"/>
</g>
<g fill="rgb(0%, 0%, 0%)" fill-opacity="1">
<use xlink:href="#glyph-31-6-97720623" x="567.928024" y="84.137334"/>
</g>
<g fill="rgb(0%, 0%, 0%)" fill-opacity="1">
<use xlink:href="#glyph-33-0-97720623" x="578.306691" y="84.137334"/>
</g>
<g fill="rgb(0%, 0%, 0%)" fill-opacity="1">
<use xlink:href="#glyph-31-7-97720623" x="584.52269" y="84.137334"/>
</g>
<g fill="rgb(0%, 0%, 0%)" fill-opacity="1">
<use xlink:href="#glyph-31-0-97720623" x="501.53067" y="114.804"/>
</g>
<g fill="rgb(0%, 0%, 0%)" fill-opacity="1">
<use xlink:href="#glyph-32-3-97720623" x="511.909337" y="114.804"/>
</g>
<g fill="rgb(0%, 0%, 0%)" fill-opacity="1">
<use xlink:href="#glyph-31-1-97720623" x="522.288005" y="114.804"/>
</g>
<g fill="rgb(0%, 0%, 0%)" fill-opacity="1">
<use xlink:href="#glyph-31-5-97720623" x="527.477336" y="114.804"/>
</g>
<g fill="rgb(0%, 0%, 0%)" fill-opacity="1">
<use xlink:href="#glyph-31-8-97720623" x="532.666669" y="114.804"/>
</g>
<g fill="rgb(0%, 0%, 0%)" fill-opacity="1">
<use xlink:href="#glyph-31-2-97720623" x="538.88267" y="114.804"/>
</g>
<g fill="rgb(0%, 0%, 0%)" fill-opacity="1">
<use xlink:href="#glyph-31-9-97720623" x="549.261337" y="114.804"/>
</g>
<g fill="rgb(0%, 0%, 0%)" fill-opacity="1">
<use xlink:href="#glyph-31-3-97720623" x="553.40534" y="114.804"/>
</g>
<g fill="rgb(0%, 0%, 0%)" fill-opacity="1">
<use xlink:href="#glyph-31-4-97720623" x="563.784007" y="114.804"/>
</g>
<g fill="rgb(0%, 0%, 0%)" fill-opacity="1">
<use xlink:href="#glyph-31-5-97720623" x="573.11734" y="114.804"/>
</g>
<g fill="rgb(0%, 0%, 0%)" fill-opacity="1">
<use xlink:href="#glyph-33-1-97720623" x="578.306671" y="114.804"/>
</g>
<g fill="rgb(0%, 0%, 0%)" fill-opacity="1">
<use xlink:href="#glyph-31-8-97720623" x="588.685333" y="114.804"/>
</g>
<g fill="rgb(0%, 0%, 0%)" fill-opacity="1">
<use xlink:href="#glyph-33-2-97720623" x="594.901337" y="114.804"/>
</g>
<g fill="rgb(0%, 0%, 0%)" fill-opacity="1">
<use xlink:href="#glyph-31-3-97720623" x="599.045339" y="114.804"/>
</g>
<g fill="rgb(0%, 0%, 0%)" fill-opacity="1">
<use xlink:href="#glyph-32-4-97720623" x="609.424001" y="114.804"/>
</g>
<g fill="rgb(0%, 0%, 0%)" fill-opacity="1">
<use xlink:href="#glyph-31-0-97720623" x="501.530665" y="145.470667"/>
</g>
<g fill="rgb(0%, 0%, 0%)" fill-opacity="1">
<use xlink:href="#glyph-31-10-97720623" x="511.909332" y="145.470667"/>
</g>
<g fill="rgb(0%, 0%, 0%)" fill-opacity="1">
<use xlink:href="#glyph-31-10-97720623" x="522.287999" y="145.470667"/>
</g>
<g fill="rgb(0%, 0%, 0%)" fill-opacity="1">
<use xlink:href="#glyph-31-1-97720623" x="532.666664" y="145.470667"/>
</g>
<g fill="rgb(0%, 0%, 0%)" fill-opacity="1">
<use xlink:href="#glyph-31-5-97720623" x="537.855998" y="145.470667"/>
</g>
<g fill="rgb(0%, 0%, 0%)" fill-opacity="1">
<use xlink:href="#glyph-32-1-97720623" x="543.045331" y="145.470667"/>
</g>
<g fill="rgb(0%, 0%, 0%)" fill-opacity="1">
<use xlink:href="#glyph-32-5-97720623" x="549.261332" y="145.470667"/>
</g>
<g fill="rgb(0%, 0%, 0%)" fill-opacity="1">
<use xlink:href="#glyph-31-9-97720623" x="559.639999" y="145.470667"/>
</g>
<g fill="rgb(0%, 0%, 0%)" fill-opacity="1">
<use xlink:href="#glyph-31-3-97720623" x="563.784002" y="145.470667"/>
</g>
<g fill="rgb(0%, 0%, 0%)" fill-opacity="1">
<use xlink:href="#glyph-31-4-97720623" x="574.162669" y="145.470667"/>
</g>
<g fill="rgb(0%, 0%, 0%)" fill-opacity="1">
<use xlink:href="#glyph-31-5-97720623" x="583.496002" y="145.470667"/>
</g>
<g fill="rgb(0%, 0%, 0%)" fill-opacity="1">
<use xlink:href="#glyph-31-6-97720623" x="588.685338" y="145.470667"/>
</g>
<g fill="rgb(0%, 0%, 0%)" fill-opacity="1">
<use xlink:href="#glyph-33-0-97720623" x="599.064" y="145.470667"/>
</g>
<g fill="rgb(0%, 0%, 0%)" fill-opacity="1">
<use xlink:href="#glyph-31-11-97720623" x="605.280004" y="145.470667"/>
</g>
<g fill="rgb(0%, 0%, 0%)" fill-opacity="1">
<use xlink:href="#glyph-33-3-97720623" x="609.424006" y="145.470667"/>
</g>
<g fill="rgb(0%, 0%, 0%)" fill-opacity="1">
<use xlink:href="#glyph-31-12-97720623" x="619.802668" y="145.470667"/>
</g>
<path fill="none" stroke-width="1" stroke-linecap="butt" stroke-linejoin="miter" stroke="rgb(0%, 0%, 0%)" stroke-opacity="1" stroke-miterlimit="1.154701" d="M 53.499023 291 L 484.5 291 " transform="matrix(1.333333, 0, 0, 1.333333, 0, 0)"/>
<path fill="none" stroke-width="1" stroke-linecap="butt" stroke-linejoin="miter" stroke="rgb(0%, 0%, 0%)" stroke-opacity="1" stroke-miterlimit="1.154701" d="M 54 291.500977 L 54 35.499023 " transform="matrix(1.333333, 0, 0, 1.333333, 0, 0)"/>
<path fill="none" stroke-width="1" stroke-linecap="butt" stroke-linejoin="miter" stroke="rgb(0%, 0%, 0%)" stroke-opacity="1" stroke-miterlimit="1.154701" d="M 53.499023 36 L 484.5 36 " transform="matrix(1.333333, 0, 0, 1.333333, 0, 0)"/>
<path fill="none" stroke-width="1" stroke-linecap="butt" stroke-linejoin="miter" stroke="rgb(0%, 0%, 0%)" stroke-opacity="1" stroke-miterlimit="1.154701" d="M 483.999023 291.500977 L 483.999023 35.499023 " transform="matrix(1.333333, 0, 0, 1.333333, 0, 0)"/>
</svg>
