<?xml version="1.0" encoding="UTF-8"?>
<svg xmlns="http://www.w3.org/2000/svg" xmlns:xlink="http://www.w3.org/1999/xlink" width="667" height="467" viewBox="0 0 667 467">
<defs>
<g>
<g id="glyph-0-0-39aacb19">
<path d="M 11.078125 -12.078125 C 11.078125 -12.078125 6.609375 -12.078125 6.609375 -12.078125 C 6.609375 -12.078125 6.609375 0 6.609375 0 C 6.609375 0 4.875 0 4.875 0 C 4.875 0 4.875 -12.078125 4.875 -12.078125 C 4.875 -12.078125 0.390625 -12.078125 0.390625 -12.078125 C 0.390625 -12.078125 0.390625 -13.609375 0.390625 -13.609375 C 0.390625 -13.609375 11.078125 -13.609375 11.078125 -13.609375 C 11.078125 -13.609375 11.078125 -12.078125 11.078125 -12.078125 Z M 11.078125 -12.078125 "/>
</g>
<g id="glyph-1-0-39aacb19">
<path d="M 2.859375 0 C 2.859375 0 1.3125 0 1.3125 0 C 1.3125 0 1.3125 -9.78125 1.3125 -9.78125 C 1.3125 -9.78125 2.859375 -9.78125 2.859375 -9.78125 C 2.859375 -9.78125 2.859375 0 2.859375 0 Z M 3.0625 -11.265625 C 3.0625 -11.265625 1.125 -11.265625 1.125 -11.265625 C 1.125 -11.265625 1.125 -13.203125 1.125 -13.203125 C 1.125 -13.203125 3.0625 -13.203125 3.0625 -13.203125 C 3.0625 -13.203125 3.0625 -11.265625 3.0625 -11.265625 Z M 3.0625 -11.265625 "/>
</g>
<g id="glyph-1-1-39aacb19">
<path d="M 14.1875 0 C 14.1875 0 12.640625 0 12.640625 0 C 12.640625 0 12.640625 -6.734375 12.640625 -6.734375 C 12.640625 -7.96875 11.984375 -8.703125 10.84375 -8.703125 C 9.578125 -8.703125 8.53125 -7.5625 8.53125 -6.140625 C 8.53125 -6.140625 8.53125 0 8.53125 0 C 8.53125 0 6.984375 0 6.984375 0 C 6.984375 0 6.984375 -6.734375 6.984375 -6.734375 C 6.984375 -7.984375 6.328125 -8.703125 5.171875 -8.703125 C 3.90625 -8.703125 2.875 -7.5625 2.875 -6.140625 C 2.875 -6.140625 2.875 0 2.875 0 C 2.875 0 1.328125 0 1.328125 0 C 1.328125 0 1.328125 -9.78125 1.328125 -9.78125 C 1.328125 -9.78125 2.75 -9.78125 2.75 -9.78125 C 2.75 -9.78125 2.75 -8.40625 2.75 -8.40625 C 3.578125 -9.578125 4.4375 -10.0625 5.75 -10.0625 C 7.015625 -10.0625 7.8125 -9.609375 8.390625 -8.578125 C 9.296875 -9.671875 10.078125 -10.0625 11.390625 -10.0625 C 13.21875 -10.0625 14.1875 -9.09375 14.1875 -7.34375 C 14.1875 -7.34375 14.1875 0 14.1875 0 Z M 14.1875 0 "/>
</g>
<g id="glyph-1-2-39aacb19">
<path d="M 9.578125 -4.4375 C 9.578125 -4.4375 2.375 -4.4375 2.375 -4.4375 C 2.40625 -2.203125 3.625 -1.15625 5.25 -1.15625 C 6.5 -1.15625 7.375 -1.6875 7.8125 -2.96875 C 7.8125 -2.96875 9.375 -2.96875 9.375 -2.96875 C 8.984375 -0.984375 7.4375 0.28125 5.1875 0.28125 C 2.453125 0.28125 0.75 -1.625 0.75 -4.84375 C 0.75 -8.046875 2.5 -10.0625 5.234375 -10.0625 C 7.0625 -10.0625 8.546875 -9.09375 9.1875 -7.484375 C 9.46875 -6.765625 9.578125 -5.859375 9.578125 -4.4375 Z M 7.921875 -5.828125 C 7.921875 -7.359375 6.734375 -8.625 5.203125 -8.625 C 3.640625 -8.625 2.546875 -7.453125 2.40625 -5.71875 C 2.40625 -5.71875 7.890625 -5.71875 7.890625 -5.71875 C 7.921875 -5.75 7.921875 -5.828125 7.921875 -5.828125 Z M 7.921875 -5.828125 "/>
</g>
<g id="glyph-1-3-39aacb19">
<path d="M 9.46875 -6.359375 C 9.46875 -2.015625 7.9375 0.28125 5.140625 0.28125 C 2.296875 0.28125 0.796875 -2.015625 0.796875 -6.484375 C 0.796875 -10.921875 2.28125 -13.234375 5.140625 -13.234375 C 8.015625 -13.234375 9.46875 -10.953125 9.46875 -6.359375 Z M 7.78125 -6.515625 C 7.78125 -10.0625 6.90625 -11.78125 5.140625 -11.78125 C 3.359375 -11.78125 2.484375 -10.078125 2.484375 -6.453125 C 2.484375 -2.84375 3.359375 -1.078125 5.09375 -1.078125 C 6.921875 -1.078125 7.78125 -2.765625 7.78125 -6.515625 Z M 7.78125 -6.515625 "/>
</g>
<g id="glyph-1-4-39aacb19">
<path d="M 9.578125 -4.390625 C 9.578125 -1.59375 7.71875 0.28125 5.046875 0.28125 C 2.6875 0.28125 1.1875 -0.765625 0.65625 -3.390625 C 0.65625 -3.390625 2.296875 -3.390625 2.296875 -3.390625 C 2.6875 -1.90625 3.5625 -1.171875 5 -1.171875 C 6.796875 -1.171875 7.890625 -2.265625 7.890625 -4.15625 C 7.890625 -6.125 6.78125 -7.265625 5 -7.265625 C 3.984375 -7.265625 3.34375 -6.953125 2.578125 -6.03125 C 2.578125 -6.03125 1.0625 -6.03125 1.0625 -6.03125 C 1.0625 -6.03125 2.046875 -12.953125 2.046875 -12.953125 C 2.046875 -12.953125 8.890625 -12.953125 8.890625 -12.953125 C 8.890625 -12.953125 8.890625 -11.328125 8.890625 -11.328125 C 8.890625 -11.328125 3.375 -11.328125 3.375 -11.328125 C 3.375 -11.328125 2.859375 -7.921875 2.859375 -7.921875 C 3.625 -8.484375 4.375 -8.71875 5.296875 -8.71875 C 7.84375 -8.71875 9.578125 -7 9.578125 -4.390625 Z M 9.578125 -4.390625 "/>
</g>
<g id="glyph-1-5-39aacb19">
<path d="M 6.484375 0 C 6.484375 0 4.84375 0 4.84375 0 C 4.84375 0 4.84375 -9.421875 4.84375 -9.421875 C 4.84375 -9.421875 1.90625 -9.421875 1.90625 -9.421875 C 1.90625 -9.421875 1.90625 -10.609375 1.90625 -10.609375 C 4.4375 -10.921875 4.8125 -11.203125 5.390625 -13.234375 C 5.390625 -13.234375 6.484375 -13.234375 6.484375 -13.234375 C 6.484375 -13.234375 6.484375 0 6.484375 0 Z M 6.484375 0 "/>
</g>
<g id="glyph-1-6-39aacb19">
<path d="M 9.546875 -9.359375 C 9.546875 -7.734375 8.59375 -6.34375 6.734375 -5.359375 C 6.734375 -5.359375 4.875 -4.34375 4.875 -4.34375 C 3.25 -3.390625 2.65625 -2.703125 2.484375 -1.625 C 2.484375 -1.625 9.453125 -1.625 9.453125 -1.625 C 9.453125 -1.625 9.453125 0 9.453125 0 C 9.453125 0 0.640625 0 0.640625 0 C 0.78125 -2.90625 1.59375 -4.15625 4.34375 -5.734375 C 4.34375 -5.734375 6.0625 -6.703125 6.0625 -6.703125 C 7.25 -7.375 7.859375 -8.265625 7.859375 -9.3125 C 7.859375 -10.734375 6.734375 -11.796875 5.25 -11.796875 C 3.625 -11.796875 2.703125 -10.859375 2.578125 -8.640625 C 2.578125 -8.640625 0.9375 -8.640625 0.9375 -8.640625 C 1.03125 -11.859375 2.59375 -13.234375 5.296875 -13.234375 C 7.8125 -13.234375 9.546875 -11.59375 9.546875 -9.359375 Z M 9.546875 -9.359375 "/>
</g>
<g id="glyph-1-7-39aacb19">
<path d="M 9.453125 -3.84375 C 9.453125 -1.34375 7.6875 0.28125 4.96875 0.28125 C 2.265625 0.28125 0.796875 -1.046875 0.59375 -4 C 0.59375 -4 2.234375 -4 2.234375 -4 C 2.359375 -2.078125 3.234375 -1.171875 5.015625 -1.171875 C 6.734375 -1.171875 7.765625 -2.171875 7.765625 -3.828125 C 7.765625 -5.296875 6.828125 -6.15625 5.015625 -6.15625 C 5.015625 -6.15625 4.125 -6.15625 4.125 -6.15625 C 4.125 -6.15625 4.125 -7.546875 4.125 -7.546875 C 6.765625 -7.546875 7.375 -8.125 7.375 -9.546875 C 7.375 -10.9375 6.5 -11.796875 5.046875 -11.796875 C 3.359375 -11.796875 2.5625 -10.921875 2.515625 -8.96875 C 2.515625 -8.96875 0.875 -8.96875 0.875 -8.96875 C 0.9375 -11.78125 2.359375 -13.234375 5.015625 -13.234375 C 7.546875 -13.234375 9.0625 -11.875 9.0625 -9.59375 C 9.0625 -8.265625 8.4375 -7.40625 7.203125 -6.921875 C 8.796875 -6.390625 9.453125 -5.453125 9.453125 -3.84375 Z M 9.453125 -3.84375 "/>
</g>
<g id="glyph-1-8-39aacb19">
<path d="M 9.703125 -3.171875 C 9.703125 -3.171875 7.75 -3.171875 7.75 -3.171875 C 7.75 -3.171875 7.75 0 7.75 0 C 7.75 0 6.109375 0 6.109375 0 C 6.109375 0 6.109375 -3.171875 6.109375 -3.171875 C 6.109375 -3.171875 0.515625 -3.171875 0.515625 -3.171875 C 0.515625 -3.171875 0.515625 -4.90625 0.515625 -4.90625 C 0.515625 -4.90625 6.53125 -13.234375 6.53125 -13.234375 C 6.53125 -13.234375 7.75 -13.234375 7.75 -13.234375 C 7.75 -13.234375 7.75 -4.65625 7.75 -4.65625 C 7.75 -4.65625 9.703125 -4.65625 9.703125 -4.65625 C 9.703125 -4.65625 9.703125 -3.171875 9.703125 -3.171875 Z M 6.109375 -4.65625 C 6.109375 -4.65625 6.109375 -10.4375 6.109375 -10.4375 C 6.109375 -10.4375 1.953125 -4.65625 1.953125 -4.65625 C 1.953125 -4.65625 6.109375 -4.65625 6.109375 -4.65625 Z M 6.109375 -4.65625 "/>
</g>
<g id="glyph-1-9-39aacb19">
<path d="M 9.578125 -4.109375 C 9.578125 -1.515625 7.765625 0.28125 5.25 0.28125 C 2.21875 0.28125 0.796875 -1.90625 0.796875 -6.03125 C 0.796875 -10.640625 2.46875 -13.234375 5.546875 -13.234375 C 7.5625 -13.234375 8.984375 -11.953125 9.296875 -9.78125 C 9.296875 -9.78125 7.65625 -9.78125 7.65625 -9.78125 C 7.390625 -11.046875 6.59375 -11.78125 5.4375 -11.78125 C 3.546875 -11.78125 2.5 -9.984375 2.484375 -6.765625 C 3.1875 -7.734375 4.21875 -8.234375 5.53125 -8.234375 C 7.890625 -8.234375 9.578125 -6.578125 9.578125 -4.109375 Z M 7.890625 -3.984375 C 7.890625 -5.75 6.90625 -6.78125 5.328125 -6.78125 C 3.703125 -6.78125 2.578125 -5.71875 2.578125 -4.078125 C 2.578125 -2.375 3.734375 -1.171875 5.265625 -1.171875 C 6.78125 -1.171875 7.890625 -2.3125 7.890625 -3.984375 Z M 7.890625 -3.984375 "/>
</g>
<g id="glyph-1-10-39aacb19">
<path d="M 9.703125 -11.578125 C 6.921875 -8.265625 5.0625 -4.28125 4.328125 0 C 4.328125 0 2.578125 0 2.578125 0 C 3.515625 -4.140625 5.375 -8.015625 8.015625 -11.328125 C 8.015625 -11.328125 0.859375 -11.328125 0.859375 -11.328125 C 0.859375 -11.328125 0.859375 -12.953125 0.859375 -12.953125 C 0.859375 -12.953125 9.703125 -12.953125 9.703125 -12.953125 C 9.703125 -12.953125 9.703125 -11.578125 9.703125 -11.578125 Z M 9.703125 -11.578125 "/>
</g>
<g id="glyph-1-11-39aacb19">
</g>
<g id="glyph-1-12-39aacb19">
<path d="M 4.75 0 C 4.21875 0.09375 3.84375 0.125 3.46875 0.125 C 2.265625 0.125 1.59375 -0.421875 1.59375 -1.421875 C 1.59375 -1.421875 1.59375 -8.515625 1.59375 -8.515625 C 1.59375 -8.515625 0.265625 -8.515625 0.265625 -8.515625 C 0.265625 -8.515625 0.265625 -9.78125 0.265625 -9.78125 C 0.265625 -9.78125 1.59375 -9.78125 1.59375 -9.78125 C 1.59375 -9.78125 1.59375 -12.46875 1.59375 -12.46875 C 1.59375 -12.46875 3.140625 -12.46875 3.140625 -12.46875 C 3.140625 -12.46875 3.140625 -9.78125 3.140625 -9.78125 C 3.140625 -9.78125 4.75 -9.78125 4.75 -9.78125 C 4.75 -9.78125 4.75 -8.515625 4.75 -8.515625 C 4.75 -8.515625 3.140625 -8.515625 3.140625 -8.515625 C 3.140625 -8.515625 3.140625 -2.109375 3.140625 -2.109375 C 3.140625 -1.421875 3.328125 -1.234375 4 -1.234375 C 4.296875 -1.234375 4.53125 -1.25 4.75 -1.3125 C 4.75 -1.3125 4.75 0 4.75 0 Z M 4.75 0 "/>
</g>
<g id="glyph-1-13-39aacb19">
<path d="M 6 -8.421875 C 3.578125 -8.390625 2.859375 -7.28125 2.859375 -5.078125 C 2.859375 -5.078125 2.859375 0 2.859375 0 C 2.859375 0 1.3125 0 1.3125 0 C 1.3125 0 1.3125 -9.78125 1.3125 -9.78125 C 1.3125 -9.78125 2.71875 -9.78125 2.71875 -9.78125 C 2.71875 -9.78125 2.71875 -8.015625 2.71875 -8.015625 C 3.625 -9.46875 4.390625 -10.0625 5.390625 -10.0625 C 5.609375 -10.0625 5.734375 -10.046875 6 -10.015625 C 6 -10.015625 6 -8.421875 6 -8.421875 Z M 6 -8.421875 "/>
</g>
<g id="glyph-1-14-39aacb19">
<path d="M 9.984375 -0.03125 C 9.484375 0.09375 9.25 0.125 8.921875 0.125 C 8.15625 0.125 7.484375 -0.40625 7.3125 -1.15625 C 6.453125 -0.25 5.25 0.28125 4 0.28125 C 2.015625 0.28125 0.78125 -0.765625 0.78125 -2.546875 C 0.78125 -3.734375 1.359375 -4.609375 2.5 -5.078125 C 3.09375 -5.328125 3.4375 -5.390625 5.640625 -5.671875 C 6.875 -5.828125 7.265625 -6.109375 7.265625 -6.765625 C 7.265625 -6.765625 7.265625 -7.171875 7.265625 -7.171875 C 7.265625 -8.109375 6.484375 -8.625 5.078125 -8.625 C 3.625 -8.625 2.90625 -8.078125 2.78125 -6.890625 C 2.78125 -6.890625 1.21875 -6.890625 1.21875 -6.890625 C 1.3125 -9.15625 2.765625 -10.0625 5.140625 -10.0625 C 7.546875 -10.0625 8.8125 -9.125 8.8125 -7.390625 C 8.8125 -7.390625 8.8125 -1.9375 8.8125 -1.9375 C 8.8125 -1.453125 9.109375 -1.171875 9.65625 -1.171875 C 9.75 -1.171875 9.828125 -1.171875 9.984375 -1.21875 C 9.984375 -1.21875 9.984375 -0.03125 9.984375 -0.03125 Z M 7.265625 -3.375 C 7.265625 -3.375 7.265625 -4.84375 7.265625 -4.84375 C 6.734375 -4.59375 6.40625 -4.515625 4.765625 -4.296875 C 3.09375 -4.046875 2.40625 -3.609375 2.40625 -2.578125 C 2.40625 -1.515625 3.125 -1.078125 4.328125 -1.078125 C 5.84375 -1.078125 7.265625 -1.984375 7.265625 -3.375 Z M 7.265625 -3.375 "/>
</g>
<g id="glyph-1-15-39aacb19">
<path d="M 2.859375 2.03125 C 2.859375 3.359375 1.9375 4.078125 0.1875 4.078125 C -0.0625 4.078125 -0.15625 4.046875 -0.34375 4.015625 C -0.34375 4.015625 -0.34375 2.6875 -0.34375 2.6875 C -0.34375 2.6875 0.03125 2.703125 0.03125 2.703125 C 0.984375 2.765625 1.3125 2.359375 1.3125 1.421875 C 1.3125 1.421875 1.3125 -9.78125 1.3125 -9.78125 C 1.3125 -9.78125 2.859375 -9.78125 2.859375 -9.78125 C 2.859375 -9.78125 2.859375 2.03125 2.859375 2.03125 Z M 3.0625 -11.265625 C 3.0625 -11.265625 1.125 -11.265625 1.125 -11.265625 C 1.125 -11.265625 1.125 -13.203125 1.125 -13.203125 C 1.125 -13.203125 3.0625 -13.203125 3.0625 -13.203125 C 3.0625 -13.203125 3.0625 -11.265625 3.0625 -11.265625 Z M 3.0625 -11.265625 "/>
</g>
<g id="glyph-1-16-39aacb19">
<path d="M 8.90625 -3.359375 C 8.71875 -1.125 7.25 0.28125 4.90625 0.28125 C 2.265625 0.28125 0.578125 -1.640625 0.578125 -4.796875 C 0.578125 -8.046875 2.296875 -10.0625 4.921875 -10.0625 C 7.109375 -10.0625 8.609375 -8.890625 8.796875 -6.5 C 8.796875 -6.5 7.21875 -6.5 7.21875 -6.5 C 7.046875 -7.859375 6.21875 -8.625 4.90625 -8.625 C 3.21875 -8.625 2.203125 -7.25 2.203125 -4.796875 C 2.203125 -2.484375 3.234375 -1.15625 4.953125 -1.15625 C 6.28125 -1.15625 7.078125 -1.796875 7.34375 -3.359375 C 7.34375 -3.359375 8.90625 -3.359375 8.90625 -3.359375 Z M 8.90625 -3.359375 "/>
</g>
<g id="glyph-1-17-39aacb19">
<path d="M 9.515625 -4.8125 C 9.515625 -1.609375 7.84375 0.28125 5.09375 0.28125 C 2.3125 0.28125 0.671875 -1.609375 0.671875 -4.890625 C 0.671875 -8.171875 2.328125 -10.0625 5.078125 -10.0625 C 7.890625 -10.0625 9.515625 -8.203125 9.515625 -4.8125 Z M 7.890625 -4.84375 C 7.890625 -7.265625 6.859375 -8.625 5.09375 -8.625 C 3.359375 -8.625 2.296875 -7.25 2.296875 -4.890625 C 2.296875 -2.515625 3.359375 -1.15625 5.09375 -1.15625 C 6.8125 -1.15625 7.890625 -2.546875 7.890625 -4.84375 Z M 7.890625 -4.84375 "/>
</g>
<g id="glyph-1-18-39aacb19">
<path d="M 8.578125 -2.75 C 8.578125 -0.859375 7 0.28125 4.53125 0.28125 C 1.984375 0.28125 0.703125 -0.734375 0.640625 -2.984375 C 0.640625 -2.984375 2.28125 -2.984375 2.28125 -2.984375 C 2.484375 -1.5 3.265625 -1.15625 4.671875 -1.15625 C 6.03125 -1.15625 6.953125 -1.703125 6.953125 -2.609375 C 6.953125 -3.328125 6.515625 -3.640625 5.4375 -3.90625 C 5.4375 -3.90625 3.984375 -4.25 3.984375 -4.25 C 1.65625 -4.8125 0.875 -5.546875 0.875 -7.078125 C 0.875 -8.890625 2.359375 -10.0625 4.625 -10.0625 C 6.890625 -10.0625 8.15625 -8.984375 8.171875 -7.0625 C 8.171875 -7.0625 6.53125 -7.0625 6.53125 -7.0625 C 6.5 -8.078125 5.828125 -8.625 4.578125 -8.625 C 3.3125 -8.625 2.5 -8.046875 2.5 -7.15625 C 2.5 -6.453125 3.046875 -6.046875 4.3125 -5.75 C 4.3125 -5.75 5.8125 -5.390625 5.8125 -5.390625 C 7.75 -4.921875 8.578125 -4.203125 8.578125 -2.75 Z M 8.578125 -2.75 "/>
</g>
<g id="glyph-2-0-39aacb19">
<path d="M 0 -11.453125 C 0 -11.453125 0 -1.6875 0 -1.6875 C 0 -1.6875 -13.609375 -1.6875 -13.609375 -1.6875 C -13.609375 -1.6875 -13.609375 -11.109375 -13.609375 -11.109375 C -13.609375 -11.109375 -12.078125 -11.109375 -12.078125 -11.109375 C -12.078125 -11.109375 -12.078125 -3.421875 -12.078125 -3.421875 C -12.078125 -3.421875 -7.734375 -3.421875 -7.734375 -3.421875 C -7.734375 -3.421875 -7.734375 -10.828125 -7.734375 -10.828125 C -7.734375 -10.828125 -6.203125 -10.828125 -6.203125 -10.828125 C -6.203125 -10.828125 -6.203125 -3.421875 -6.203125 -3.421875 C -6.203125 -3.421875 -1.53125 -3.421875 -1.53125 -3.421875 C -1.53125 -3.421875 -1.53125 -11.453125 -1.53125 -11.453125 C -1.53125 -11.453125 0 -11.453125 0 -11.453125 Z M 0 -11.453125 "/>
</g>
<g id="glyph-2-1-39aacb19">
<path d="M 0 -4.75 C 0.09375 -4.21875 0.125 -3.84375 0.125 -3.46875 C 0.125 -2.265625 -0.421875 -1.59375 -1.421875 -1.59375 C -1.421875 -1.59375 -8.515625 -1.59375 -8.515625 -1.59375 C -8.515625 -1.59375 -8.515625 -0.265625 -8.515625 -0.265625 C -8.515625 -0.265625 -9.78125 -0.265625 -9.78125 -0.265625 C -9.78125 -0.265625 -9.78125 -1.59375 -9.78125 -1.59375 C -9.78125 -1.59375 -12.46875 -1.59375 -12.46875 -1.59375 C -12.46875 -1.59375 -12.46875 -3.140625 -12.46875 -3.140625 C -12.46875 -3.140625 -9.78125 -3.140625 -9.78125 -3.140625 C -9.78125 -3.140625 -9.78125 -4.75 -9.78125 -4.75 C -9.78125 -4.75 -8.515625 -4.75 -8.515625 -4.75 C -8.515625 -4.75 -8.515625 -3.140625 -8.515625 -3.140625 C -8.515625 -3.140625 -2.109375 -3.140625 -2.109375 -3.140625 C -1.421875 -3.140625 -1.234375 -3.328125 -1.234375 -4 C -1.234375 -4.296875 -1.25 -4.53125 -1.3125 -4.75 C -1.3125 -4.75 0 -4.75 0 -4.75 Z M 0 -4.75 "/>
</g>
<g id="glyph-2-2-39aacb19">
<path d="M -9.78125 -9.078125 C -9.78125 -9.078125 0 -5.328125 0 -5.328125 C 0 -5.328125 0 -3.625 0 -3.625 C 0 -3.625 -9.78125 -0.1875 -9.78125 -0.1875 C -9.78125 -0.1875 -9.78125 -1.9375 -9.78125 -1.9375 C -9.78125 -1.9375 -1.84375 -4.5625 -1.84375 -4.5625 C -1.84375 -4.5625 -9.78125 -7.3125 -9.78125 -7.3125 C -9.78125 -7.3125 -9.78125 -9.078125 -9.78125 -9.078125 Z M -9.78125 -9.078125 "/>
</g>
<g id="glyph-3-0-39aacb19">
<path d="M 0 -8.828125 C 0 -8.828125 0 -7.015625 0 -7.015625 C 0 -7.015625 -3.75 -4.578125 -3.75 -4.578125 C -3.75 -4.578125 0 -2.09375 0 -2.09375 C 0 -2.09375 0 -0.3125 0 -0.3125 C 0 -0.3125 -4.984375 -3.765625 -4.984375 -3.765625 C -4.984375 -3.765625 -9.78125 -0.5 -9.78125 -0.5 C -9.78125 -0.5 -9.78125 -2.28125 -9.78125 -2.28125 C -9.78125 -2.28125 -6.234375 -4.625 -6.234375 -4.625 C -6.234375 -4.625 -9.78125 -6.984375 -9.78125 -6.984375 C -9.78125 -6.984375 -9.78125 -8.734375 -9.78125 -8.734375 C -9.78125 -8.734375 -5.0625 -5.453125 -5.0625 -5.453125 C -5.0625 -5.453125 0 -8.828125 0 -8.828125 Z M 0 -8.828125 "/>
</g>
<g id="glyph-4-0-39aacb19">
<path d="M -4.796875 -9.765625 C -1.6875 -9.765625 0.28125 -8.109375 0.28125 -5.578125 C 0.28125 -4.3125 -0.171875 -3.390625 -1.171875 -2.578125 C -1.171875 -2.578125 4.078125 -2.578125 4.078125 -2.578125 C 4.078125 -2.578125 4.078125 -1.03125 4.078125 -1.03125 C 4.078125 -1.03125 -9.78125 -1.03125 -9.78125 -1.03125 C -9.78125 -1.03125 -9.78125 -2.453125 -9.78125 -2.453125 C -9.78125 -2.453125 -8.3125 -2.453125 -8.3125 -2.453125 C -9.46875 -3.171875 -10.0625 -4.234375 -10.0625 -5.5625 C -10.0625 -8.15625 -8.078125 -9.765625 -4.796875 -9.765625 Z M -4.84375 -8.140625 C -7.171875 -8.140625 -8.609375 -7.015625 -8.609375 -5.296875 C -8.609375 -3.65625 -7.109375 -2.578125 -4.8125 -2.578125 C -2.515625 -2.578125 -1.171875 -3.65625 -1.171875 -5.296875 C -1.171875 -7 -2.609375 -8.140625 -4.84375 -8.140625 Z M -4.84375 -8.140625 "/>
</g>
<g id="glyph-5-0-39aacb19">
<path d="M -4.4375 -9.578125 C -4.4375 -9.578125 -4.4375 -2.375 -4.4375 -2.375 C -2.203125 -2.40625 -1.15625 -3.625 -1.15625 -5.25 C -1.15625 -6.5 -1.6875 -7.375 -2.96875 -7.8125 C -2.96875 -7.8125 -2.96875 -9.375 -2.96875 -9.375 C -0.984375 -8.984375 0.28125 -7.4375 0.28125 -5.1875 C 0.28125 -2.453125 -1.625 -0.75 -4.84375 -0.75 C -8.046875 -0.75 -10.0625 -2.5 -10.0625 -5.234375 C -10.0625 -7.0625 -9.09375 -8.546875 -7.484375 -9.1875 C -6.765625 -9.46875 -5.859375 -9.578125 -4.4375 -9.578125 Z M -5.828125 -7.921875 C -7.359375 -7.921875 -8.625 -6.734375 -8.625 -5.203125 C -8.625 -3.640625 -7.453125 -2.546875 -5.71875 -2.40625 C -5.71875 -2.40625 -5.71875 -7.890625 -5.71875 -7.890625 C -5.75 -7.921875 -5.828125 -7.921875 -5.828125 -7.921875 Z M -5.828125 -7.921875 "/>
</g>
<g id="glyph-5-1-39aacb19">
<path d="M -2.75 -8.578125 C -0.859375 -8.578125 0.28125 -7 0.28125 -4.53125 C 0.28125 -1.984375 -0.734375 -0.703125 -2.984375 -0.640625 C -2.984375 -0.640625 -2.984375 -2.28125 -2.984375 -2.28125 C -1.5 -2.484375 -1.15625 -3.265625 -1.15625 -4.671875 C -1.15625 -6.03125 -1.703125 -6.953125 -2.609375 -6.953125 C -3.328125 -6.953125 -3.640625 -6.515625 -3.90625 -5.4375 C -3.90625 -5.4375 -4.25 -3.984375 -4.25 -3.984375 C -4.8125 -1.65625 -5.546875 -0.875 -7.078125 -0.875 C -8.890625 -0.875 -10.0625 -2.359375 -10.0625 -4.625 C -10.0625 -6.890625 -8.984375 -8.15625 -7.0625 -8.171875 C -7.0625 -8.171875 -7.0625 -6.53125 -7.0625 -6.53125 C -8.078125 -6.5 -8.625 -5.828125 -8.625 -4.578125 C -8.625 -3.3125 -8.046875 -2.5 -7.15625 -2.5 C -6.453125 -2.5 -6.046875 -3.046875 -5.75 -4.3125 C -5.75 -4.3125 -5.390625 -5.8125 -5.390625 -5.8125 C -4.921875 -7.75 -4.203125 -8.578125 -2.75 -8.578125 Z M -2.75 -8.578125 "/>
</g>
<g id="glyph-6-0-39aacb19">
<path d="M -3.359375 -8.90625 C -1.125 -8.71875 0.28125 -7.25 0.28125 -4.90625 C 0.28125 -2.265625 -1.640625 -0.578125 -4.796875 -0.578125 C -8.046875 -0.578125 -10.0625 -2.296875 -10.0625 -4.921875 C -10.0625 -7.109375 -8.890625 -8.609375 -6.5 -8.796875 C -6.5 -8.796875 -6.5 -7.21875 -6.5 -7.21875 C -7.859375 -7.046875 -8.625 -6.21875 -8.625 -4.90625 C -8.625 -3.21875 -7.25 -2.203125 -4.796875 -2.203125 C -2.484375 -2.203125 -1.15625 -3.234375 -1.15625 -4.953125 C -1.15625 -6.28125 -1.796875 -7.078125 -3.359375 -7.34375 C -3.359375 -7.34375 -3.359375 -8.90625 -3.359375 -8.90625 Z M -3.359375 -8.90625 "/>
</g>
<g id="glyph-7-0-39aacb19">
<path d="M -0.03125 -9.984375 C 0.09375 -9.484375 0.125 -9.25 0.125 -8.921875 C 0.125 -8.15625 -0.40625 -7.484375 -1.15625 -7.3125 C -0.25 -6.453125 0.28125 -5.25 0.28125 -4 C 0.28125 -2.015625 -0.765625 -0.78125 -2.546875 -0.78125 C -3.734375 -0.78125 -4.609375 -1.359375 -5.078125 -2.5 C -5.328125 -3.09375 -5.390625 -3.4375 -5.671875 -5.640625 C -5.828125 -6.875 -6.109375 -7.265625 -6.765625 -7.265625 C -6.765625 -7.265625 -7.171875 -7.265625 -7.171875 -7.265625 C -8.109375 -7.265625 -8.625 -6.484375 -8.625 -5.078125 C -8.625 -3.625 -8.078125 -2.90625 -6.890625 -2.78125 C -6.890625 -2.78125 -6.890625 -1.21875 -6.890625 -1.21875 C -9.15625 -1.3125 -10.0625 -2.765625 -10.0625 -5.140625 C -10.0625 -7.546875 -9.125 -8.8125 -7.390625 -8.8125 C -7.390625 -8.8125 -1.9375 -8.8125 -1.9375 -8.8125 C -1.453125 -8.8125 -1.171875 -9.109375 -1.171875 -9.65625 C -1.171875 -9.75 -1.171875 -9.828125 -1.21875 -9.984375 C -1.21875 -9.984375 -0.03125 -9.984375 -0.03125 -9.984375 Z M -3.375 -7.265625 C -3.375 -7.265625 -4.84375 -7.265625 -4.84375 -7.265625 C -4.59375 -6.734375 -4.515625 -6.40625 -4.296875 -4.765625 C -4.046875 -3.09375 -3.609375 -2.40625 -2.578125 -2.40625 C -1.515625 -2.40625 -1.078125 -3.125 -1.078125 -4.328125 C -1.078125 -5.84375 -1.984375 -7.265625 -3.375 -7.265625 Z M -3.375 -7.265625 "/>
</g>
<g id="glyph-7-1-39aacb19">
<path d="M 0 -4.75 C 0.09375 -4.21875 0.125 -3.84375 0.125 -3.46875 C 0.125 -2.265625 -0.421875 -1.59375 -1.421875 -1.59375 C -1.421875 -1.59375 -8.515625 -1.59375 -8.515625 -1.59375 C -8.515625 -1.59375 -8.515625 -0.265625 -8.515625 -0.265625 C -8.515625 -0.265625 -9.78125 -0.265625 -9.78125 -0.265625 C -9.78125 -0.265625 -9.78125 -1.59375 -9.78125 -1.59375 C -9.78125 -1.59375 -12.46875 -1.59375 -12.46875 -1.59375 C -12.46875 -1.59375 -12.46875 -3.140625 -12.46875 -3.140625 C -12.46875 -3.140625 -9.78125 -3.140625 -9.78125 -3.140625 C -9.78125 -3.140625 -9.78125 -4.75 -9.78125 -4.75 C -9.78125 -4.75 -8.515625 -4.75 -8.515625 -4.75 C -8.515625 -4.75 -8.515625 -3.140625 -8.515625 -3.140625 C -8.515625 -3.140625 -2.109375 -3.140625 -2.109375 -3.140625 C -1.421875 -3.140625 -1.234375 -3.328125 -1.234375 -4 C -1.234375 -4.296875 -1.25 -4.53125 -1.3125 -4.75 C -1.3125 -4.75 0 -4.75 0 -4.75 Z M 0 -4.75 "/>
</g>
<g id="glyph-7-2-39aacb19">
<path d="M 0 -2.8125 C 0 -2.8125 0 -1.265625 0 -1.265625 C 0 -1.265625 -13.609375 -1.265625 -13.609375 -1.265625 C -13.609375 -1.265625 -13.609375 -2.8125 -13.609375 -2.8125 C -13.609375 -2.8125 0 -2.8125 0 -2.8125 Z M 0 -2.8125 "/>
</g>
<g id="glyph-8-0-39aacb19">
<path d="M 0 -2.859375 C 0 -2.859375 0 -1.3125 0 -1.3125 C 0 -1.3125 -9.78125 -1.3125 -9.78125 -1.3125 C -9.78125 -1.3125 -9.78125 -2.859375 -9.78125 -2.859375 C -9.78125 -2.859375 0 -2.859375 0 -2.859375 Z M -11.265625 -3.0625 C -11.265625 -3.0625 -11.265625 -1.125 -11.265625 -1.125 C -11.265625 -1.125 -13.203125 -1.125 -13.203125 -1.125 C -13.203125 -1.125 -13.203125 -3.0625 -13.203125 -3.0625 C -13.203125 -3.0625 -11.265625 -3.0625 -11.265625 -3.0625 Z M -11.265625 -3.0625 "/>
</g>
<g id="glyph-9-0-39aacb19">
<path d="M -4.8125 -9.515625 C -1.609375 -9.515625 0.28125 -7.84375 0.28125 -5.09375 C 0.28125 -2.3125 -1.609375 -0.671875 -4.890625 -0.671875 C -8.171875 -0.671875 -10.0625 -2.328125 -10.0625 -5.078125 C -10.0625 -7.890625 -8.203125 -9.515625 -4.8125 -9.515625 Z M -4.84375 -7.890625 C -7.265625 -7.890625 -8.625 -6.859375 -8.625 -5.09375 C -8.625 -3.359375 -7.25 -2.296875 -4.890625 -2.296875 C -2.515625 -2.296875 -1.15625 -3.359375 -1.15625 -5.09375 C -1.15625 -6.8125 -2.546875 -7.890625 -4.84375 -7.890625 Z M -4.84375 -7.890625 "/>
</g>
<g id="glyph-10-0-39aacb19">
<path d="M 0 -9.09375 C 0 -9.09375 0 -7.546875 0 -7.546875 C 0 -7.546875 -6.78125 -7.546875 -6.78125 -7.546875 C -7.953125 -7.546875 -8.703125 -6.765625 -8.703125 -5.53125 C -8.703125 -3.9375 -7.390625 -2.859375 -5.390625 -2.859375 C -5.390625 -2.859375 0 -2.859375 0 -2.859375 C 0 -2.859375 0 -1.3125 0 -1.3125 C 0 -1.3125 -9.78125 -1.3125 -9.78125 -1.3125 C -9.78125 -1.3125 -9.78125 -2.75 -9.78125 -2.75 C -9.78125 -2.75 -8.140625 -2.75 -8.140625 -2.75 C -9.5 -3.609375 -10.0625 -4.53125 -10.0625 -6 C -10.0625 -7.875 -9.015625 -9.09375 -7.390625 -9.09375 C -7.390625 -9.09375 0 -9.09375 0 -9.09375 Z M 0 -9.09375 "/>
</g>
<g id="glyph-11-0-39aacb19">
</g>
<g id="glyph-12-0-39aacb19">
<path d="M 0 -9 C 0 -9 0 -7.59375 0 -7.59375 C 0 -7.59375 -1.515625 -7.59375 -1.515625 -7.59375 C -0.21875 -6.6875 0.28125 -5.765625 0.28125 -4.328125 C 0.28125 -2.421875 -0.765625 -1.21875 -2.390625 -1.21875 C -2.390625 -1.21875 -9.78125 -1.21875 -9.78125 -1.21875 C -9.78125 -1.21875 -9.78125 -2.765625 -9.78125 -2.765625 C -9.78125 -2.765625 -3 -2.765625 -3 -2.765625 C -1.828125 -2.765625 -1.078125 -3.546875 -1.078125 -4.78125 C -1.078125 -6.40625 -2.390625 -7.453125 -4.390625 -7.453125 C -4.390625 -7.453125 -9.78125 -7.453125 -9.78125 -7.453125 C -9.78125 -7.453125 -9.78125 -9 -9.78125 -9 C -9.78125 -9 0 -9 0 -9 Z M 0 -9 "/>
</g>
<g id="glyph-13-0-39aacb19">
<path d="M 9.578125 -3.734375 C 9.578125 -1.328125 7.75 0.28125 5.140625 0.28125 C 2.515625 0.28125 0.6875 -1.328125 0.6875 -3.75 C 0.6875 -5.203125 1.4375 -6.234375 2.953125 -6.96875 C 1.609375 -7.8125 1.15625 -8.484375 1.15625 -9.703125 C 1.15625 -11.78125 2.796875 -13.234375 5.140625 -13.234375 C 7.484375 -13.234375 9.109375 -11.78125 9.109375 -9.703125 C 9.109375 -8.453125 8.65625 -7.78125 7.296875 -6.96875 C 8.828125 -6.234375 9.578125 -5.203125 9.578125 -3.734375 Z M 7.4375 -9.671875 C 7.4375 -10.953125 6.53125 -11.78125 5.140625 -11.78125 C 3.75 -11.78125 2.84375 -10.953125 2.84375 -9.6875 C 2.84375 -8.4375 3.75 -7.625 5.140625 -7.625 C 6.515625 -7.625 7.4375 -8.4375 7.4375 -9.671875 Z M 7.890625 -3.71875 C 7.890625 -5.265625 6.78125 -6.234375 5.140625 -6.234375 C 3.484375 -6.234375 2.375 -5.265625 2.375 -3.71875 C 2.375 -2.171875 3.484375 -1.171875 5.09375 -1.171875 C 6.78125 -1.171875 7.890625 -2.140625 7.890625 -3.71875 Z M 7.890625 -3.71875 "/>
</g>
<g id="glyph-13-1-39aacb19">
<path d="M 6.484375 0 C 6.484375 0 4.84375 0 4.84375 0 C 4.84375 0 4.84375 -9.421875 4.84375 -9.421875 C 4.84375 -9.421875 1.90625 -9.421875 1.90625 -9.421875 C 1.90625 -9.421875 1.90625 -10.609375 1.90625 -10.609375 C 4.4375 -10.921875 4.8125 -11.203125 5.390625 -13.234375 C 5.390625 -13.234375 6.484375 -13.234375 6.484375 -13.234375 C 6.484375 -13.234375 6.484375 0 6.484375 0 Z M 6.484375 0 "/>
</g>
<g id="glyph-13-2-39aacb19">
</g>
<g id="glyph-13-3-39aacb19">
<path d="M 4.75 0 C 4.21875 0.09375 3.84375 0.125 3.46875 0.125 C 2.265625 0.125 1.59375 -0.421875 1.59375 -1.421875 C 1.59375 -1.421875 1.59375 -8.515625 1.59375 -8.515625 C 1.59375 -8.515625 0.265625 -8.515625 0.265625 -8.515625 C 0.265625 -8.515625 0.265625 -9.78125 0.265625 -9.78125 C 0.265625 -9.78125 1.59375 -9.78125 1.59375 -9.78125 C 1.59375 -9.78125 1.59375 -12.46875 1.59375 -12.46875 C 1.59375 -12.46875 3.140625 -12.46875 3.140625 -12.46875 C 3.140625 -12.46875 3.140625 -9.78125 3.140625 -9.78125 C 3.140625 -9.78125 4.75 -9.78125 4.75 -9.78125 C 4.75 -9.78125 4.75 -8.515625 4.75 -8.515625 C 4.75 -8.515625 3.140625 -8.515625 3.140625 -8.515625 C 3.140625 -8.515625 3.140625 -2.109375 3.140625 -2.109375 C 3.140625 -1.421875 3.328125 -1.234375 4 -1.234375 C 4.296875 -1.234375 4.53125 -1.25 4.75 -1.3125 C 4.75 -1.3125 4.75 0 4.75 0 Z M 4.75 0 "/>
</g>
<g id="glyph-13-4-39aacb19">
<path d="M 6 -8.421875 C 3.578125 -8.390625 2.859375 -7.28125 2.859375 -5.078125 C 2.859375 -5.078125 2.859375 0 2.859375 0 C 2.859375 0 1.3125 0 1.3125 0 C 1.3125 0 1.3125 -9.78125 1.3125 -9.78125 C 1.3125 -9.78125 2.71875 -9.78125 2.71875 -9.78125 C 2.71875 -9.78125 2.71875 -8.015625 2.71875 -8.015625 C 3.625 -9.46875 4.390625 -10.0625 5.390625 -10.0625 C 5.609375 -10.0625 5.734375 -10.046875 6 -10.015625 C 6 -10.015625 6 -8.421875 6 -8.421875 Z M 6 -8.421875 "/>
</g>
<g id="glyph-13-5-39aacb19">
<path d="M 9.984375 -0.03125 C 9.484375 0.09375 9.25 0.125 8.921875 0.125 C 8.15625 0.125 7.484375 -0.40625 7.3125 -1.15625 C 6.453125 -0.25 5.25 0.28125 4 0.28125 C 2.015625 0.28125 0.78125 -0.765625 0.78125 -2.546875 C 0.78125 -3.734375 1.359375 -4.609375 2.5 -5.078125 C 3.09375 -5.328125 3.4375 -5.390625 5.640625 -5.671875 C 6.875 -5.828125 7.265625 -6.109375 7.265625 -6.765625 C 7.265625 -6.765625 7.265625 -7.171875 7.265625 -7.171875 C 7.265625 -8.109375 6.484375 -8.625 5.078125 -8.625 C 3.625 -8.625 2.90625 -8.078125 2.78125 -6.890625 C 2.78125 -6.890625 1.21875 -6.890625 1.21875 -6.890625 C 1.3125 -9.15625 2.765625 -10.0625 5.140625 -10.0625 C 7.546875 -10.0625 8.8125 -9.125 8.8125 -7.390625 C 8.8125 -7.390625 8.8125 -1.9375 8.8125 -1.9375 C 8.8125 -1.453125 9.109375 -1.171875 9.65625 -1.171875 C 9.75 -1.171875 9.828125 -1.171875 9.984375 -1.21875 C 9.984375 -1.21875 9.984375 -0.03125 9.984375 -0.03125 Z M 7.265625 -3.375 C 7.265625 -3.375 7.265625 -4.84375 7.265625 -4.84375 C 6.734375 -4.59375 6.40625 -4.515625 4.765625 -4.296875 C 3.09375 -4.046875 2.40625 -3.609375 2.40625 -2.578125 C 2.40625 -1.515625 3.125 -1.078125 4.328125 -1.078125 C 5.84375 -1.078125 7.265625 -1.984375 7.265625 -3.375 Z M 7.265625 -3.375 "/>
</g>
<g id="glyph-13-6-39aacb19">
<path d="M 2.859375 2.03125 C 2.859375 3.359375 1.9375 4.078125 0.1875 4.078125 C -0.0625 4.078125 -0.15625 4.046875 -0.34375 4.015625 C -0.34375 4.015625 -0.34375 2.6875 -0.34375 2.6875 C -0.34375 2.6875 0.03125 2.703125 0.03125 2.703125 C 0.984375 2.765625 1.3125 2.359375 1.3125 1.421875 C 1.3125 1.421875 1.3125 -9.78125 1.3125 -9.78125 C 1.3125 -9.78125 2.859375 -9.78125 2.859375 -9.78125 C 2.859375 -9.78125 2.859375 2.03125 2.859375 2.03125 Z M 3.0625 -11.265625 C 3.0625 -11.265625 1.125 -11.265625 1.125 -11.265625 C 1.125 -11.265625 1.125 -13.203125 1.125 -13.203125 C 1.125 -13.203125 3.0625 -13.203125 3.0625 -13.203125 C 3.0625 -13.203125 3.0625 -11.265625 3.0625 -11.265625 Z M 3.0625 -11.265625 "/>
</g>
<g id="glyph-13-7-39aacb19">
<path d="M 9.578125 -4.4375 C 9.578125 -4.4375 2.375 -4.4375 2.375 -4.4375 C 2.40625 -2.203125 3.625 -1.15625 5.25 -1.15625 C 6.5 -1.15625 7.375 -1.6875 7.8125 -2.96875 C 7.8125 -2.96875 9.375 -2.96875 9.375 -2.96875 C 8.984375 -0.984375 7.4375 0.28125 5.1875 0.28125 C 2.453125 0.28125 0.75 -1.625 0.75 -4.84375 C 0.75 -8.046875 2.5 -10.0625 5.234375 -10.0625 C 7.0625 -10.0625 8.546875 -9.09375 9.1875 -7.484375 C 9.46875 -6.765625 9.578125 -5.859375 9.578125 -4.4375 Z M 7.921875 -5.828125 C 7.921875 -7.359375 6.734375 -8.625 5.203125 -8.625 C 3.640625 -8.625 2.546875 -7.453125 2.40625 -5.71875 C 2.40625 -5.71875 7.890625 -5.71875 7.890625 -5.71875 C 7.921875 -5.75 7.921875 -5.828125 7.921875 -5.828125 Z M 7.921875 -5.828125 "/>
</g>
<g id="glyph-13-8-39aacb19">
<path d="M 8.90625 -3.359375 C 8.71875 -1.125 7.25 0.28125 4.90625 0.28125 C 2.265625 0.28125 0.578125 -1.640625 0.578125 -4.796875 C 0.578125 -8.046875 2.296875 -10.0625 4.921875 -10.0625 C 7.109375 -10.0625 8.609375 -8.890625 8.796875 -6.5 C 8.796875 -6.5 7.21875 -6.5 7.21875 -6.5 C 7.046875 -7.859375 6.21875 -8.625 4.90625 -8.625 C 3.21875 -8.625 2.203125 -7.25 2.203125 -4.796875 C 2.203125 -2.484375 3.234375 -1.15625 4.953125 -1.15625 C 6.28125 -1.15625 7.078125 -1.796875 7.34375 -3.359375 C 7.34375 -3.359375 8.90625 -3.359375 8.90625 -3.359375 Z M 8.90625 -3.359375 "/>
</g>
<g id="glyph-13-9-39aacb19">
<path d="M 9.515625 -4.8125 C 9.515625 -1.609375 7.84375 0.28125 5.09375 0.28125 C 2.3125 0.28125 0.671875 -1.609375 0.671875 -4.890625 C 0.671875 -8.171875 2.328125 -10.0625 5.078125 -10.0625 C 7.890625 -10.0625 9.515625 -8.203125 9.515625 -4.8125 Z M 7.890625 -4.84375 C 7.890625 -7.265625 6.859375 -8.625 5.09375 -8.625 C 3.359375 -8.625 2.296875 -7.25 2.296875 -4.890625 C 2.296875 -2.515625 3.359375 -1.15625 5.09375 -1.15625 C 6.8125 -1.15625 7.890625 -2.546875 7.890625 -4.84375 Z M 7.890625 -4.84375 "/>
</g>
<g id="glyph-13-10-39aacb19">
<path d="M 8.921875 -9.78125 C 8.921875 -9.78125 4.578125 2.046875 4.578125 2.046875 C 4.046875 3.453125 3.15625 4.078125 2.046875 4.078125 C 1.640625 4.078125 1.328125 4 1.015625 3.828125 C 1.015625 3.828125 1.015625 2.421875 1.015625 2.421875 C 1.34375 2.5 1.609375 2.546875 1.828125 2.546875 C 2.5 2.546875 2.8125 2.28125 3.078125 1.59375 C 3.078125 1.59375 3.671875 0.03125 3.671875 0.03125 C 3.671875 0.03125 0.375 -9.78125 0.375 -9.78125 C 0.375 -9.78125 2.03125 -9.78125 2.03125 -9.78125 C 2.03125 -9.78125 4.53125 -2.171875 4.53125 -2.171875 C 4.53125 -2.171875 7.25 -9.78125 7.25 -9.78125 C 7.25 -9.78125 8.921875 -9.78125 8.921875 -9.78125 Z M 8.921875 -9.78125 "/>
</g>
<g id="glyph-14-0-39aacb19">
<path d="M 14.484375 0 C 14.484375 0 11.6875 0 11.6875 0 C 11.6875 0 11.6875 -10.609375 11.6875 -10.609375 C 11.6875 -10.609375 9.28125 0 9.28125 0 C 9.28125 0 6.484375 0 6.484375 0 C 6.484375 0 4.03125 -10.609375 4.03125 -10.609375 C 4.03125 -10.609375 4.03125 0 4.03125 0 C 4.03125 0 1.234375 0 1.234375 0 C 1.234375 0 1.234375 -13.609375 1.234375 -13.609375 C 1.234375 -13.609375 5.421875 -13.609375 5.421875 -13.609375 C 5.421875 -13.609375 7.875 -2.78125 7.875 -2.78125 C 7.875 -2.78125 10.265625 -13.609375 10.265625 -13.609375 C 10.265625 -13.609375 14.484375 -13.609375 14.484375 -13.609375 C 14.484375 -13.609375 14.484375 0 14.484375 0 Z M 14.484375 0 "/>
</g>
<g id="glyph-14-1-39aacb19">
<path d="M 10.625 -4.96875 C 10.625 -1.734375 8.703125 0.171875 5.640625 0.171875 C 2.546875 0.171875 0.65625 -1.71875 0.65625 -5.046875 C 0.65625 -8.34375 2.546875 -10.25 5.625 -10.25 C 8.78125 -10.25 10.625 -8.390625 10.625 -4.96875 Z M 8.015625 -5 C 8.015625 -6.984375 7.078125 -8.140625 5.640625 -8.140625 C 4.21875 -8.140625 3.265625 -6.96875 3.265625 -5.046875 C 3.265625 -3.125 4.21875 -1.9375 5.640625 -1.9375 C 7.046875 -1.9375 8.015625 -3.125 8.015625 -5 Z M 8.015625 -5 "/>
</g>
<g id="glyph-14-2-39aacb19">
<path d="M 10.1875 0 C 10.1875 0 7.578125 0 7.578125 0 C 7.578125 0 7.578125 -6.21875 7.578125 -6.21875 C 7.578125 -7.40625 7.015625 -8.03125 5.90625 -8.03125 C 4.625 -8.03125 3.796875 -7.25 3.796875 -6.046875 C 3.796875 -6.046875 3.796875 0 3.796875 0 C 3.796875 0 1.171875 0 1.171875 0 C 1.171875 0 1.171875 -10.078125 1.171875 -10.078125 C 1.171875 -10.078125 3.796875 -10.078125 3.796875 -10.078125 C 3.796875 -10.078125 3.796875 -8.625 3.796875 -8.625 C 4.53125 -9.75 5.453125 -10.25 6.8125 -10.25 C 8.96875 -10.25 10.1875 -8.984375 10.1875 -6.765625 C 10.1875 -6.765625 10.1875 0 10.1875 0 Z M 10.1875 0 "/>
</g>
<g id="glyph-14-3-39aacb19">
<path d="M 5.625 0 C 5.15625 0.015625 4.6875 0.078125 4.109375 0.078125 C 2.390625 0.078125 1.546875 -0.578125 1.546875 -2.171875 C 1.546875 -2.171875 1.546875 -8.140625 1.546875 -8.140625 C 1.546875 -8.140625 0.265625 -8.140625 0.265625 -8.140625 C 0.265625 -8.140625 0.265625 -9.875 0.265625 -9.875 C 0.265625 -9.875 1.546875 -9.875 1.546875 -9.875 C 1.546875 -9.875 1.546875 -12.578125 1.546875 -12.578125 C 1.546875 -12.578125 4.15625 -12.578125 4.15625 -12.578125 C 4.15625 -12.578125 4.15625 -9.875 4.15625 -9.875 C 4.15625 -9.875 5.625 -9.875 5.625 -9.875 C 5.625 -9.875 5.625 -8.140625 5.625 -8.140625 C 5.625 -8.140625 4.15625 -8.140625 4.15625 -8.140625 C 4.15625 -8.140625 4.15625 -2.875 4.15625 -2.875 C 4.15625 -1.984375 4.328125 -1.78125 5.015625 -1.78125 C 5.203125 -1.78125 5.359375 -1.796875 5.625 -1.828125 C 5.625 -1.828125 5.625 0 5.625 0 Z M 5.625 0 "/>
</g>
<g id="glyph-14-4-39aacb19">
<path d="M 9.796875 -4.671875 C 9.796875 -4.671875 9.78125 -4.34375 9.78125 -4.34375 C 9.78125 -4.34375 3.03125 -4.34375 3.03125 -4.34375 C 3.09375 -2.390625 3.890625 -1.828125 5.109375 -1.828125 C 6.0625 -1.828125 6.890625 -2.109375 7.109375 -2.84375 C 7.109375 -2.84375 9.6875 -2.84375 9.6875 -2.84375 C 9.109375 -0.859375 7.28125 0.171875 5.015625 0.171875 C 2.171875 0.171875 0.40625 -1.6875 0.40625 -4.90625 C 0.40625 -8.296875 2.1875 -10.25 5.078125 -10.25 C 8.046875 -10.25 9.796875 -8.140625 9.796875 -4.671875 Z M 7.078125 -6.09375 C 6.953125 -7.53125 6.15625 -8.25 5.046875 -8.25 C 3.890625 -8.25 3.234375 -7.484375 3.0625 -6.09375 C 3.0625 -6.09375 7.078125 -6.09375 7.078125 -6.09375 Z M 7.078125 -6.09375 "/>
</g>
<g id="glyph-14-5-39aacb19">
</g>
<g id="glyph-14-6-39aacb19">
<path d="M 12.796875 -4.65625 C 12.625 -1.53125 10.359375 0.21875 6.984375 0.21875 C 3.1875 0.21875 0.828125 -2.421875 0.828125 -6.796875 C 0.828125 -11.203125 3.21875 -13.84375 7.0625 -13.84375 C 10.125 -13.84375 12.484375 -12.140625 12.734375 -9 C 12.734375 -9 10.0625 -9 10.0625 -9 C 9.65625 -10.75 8.65625 -11.453125 7.15625 -11.453125 C 4.953125 -11.453125 3.625 -9.765625 3.625 -6.765625 C 3.625 -3.796875 4.890625 -2.125 7.0625 -2.125 C 8.796875 -2.125 9.890625 -2.90625 10.0625 -4.65625 C 10.0625 -4.65625 12.796875 -4.65625 12.796875 -4.65625 Z M 12.796875 -4.65625 "/>
</g>
<g id="glyph-14-7-39aacb19">
<path d="M 9.78125 0 C 9.78125 0 6.953125 0 6.953125 0 C 6.703125 -0.296875 6.640625 -0.75 6.640625 -1.265625 C 5.734375 -0.3125 4.703125 0.171875 3.578125 0.171875 C 1.90625 0.171875 0.515625 -0.765625 0.515625 -2.71875 C 0.515625 -4.5625 1.5 -5.421875 3.484375 -5.765625 C 3.484375 -5.765625 4.53125 -5.953125 4.53125 -5.953125 C 5.84375 -6.1875 6.625 -6.0625 6.625 -7.125 C 6.625 -7.8125 6.125 -8.140625 5.109375 -8.140625 C 3.828125 -8.140625 3.390625 -7.8125 3.265625 -6.765625 C 3.265625 -6.765625 0.75 -6.765625 0.75 -6.765625 C 0.921875 -9.09375 2.328125 -10.25 5.0625 -10.25 C 7.78125 -10.25 9.1875 -9.203125 9.1875 -7.15625 C 9.1875 -7.15625 9.1875 -1.546875 9.1875 -1.546875 C 9.1875 -1.03125 9.3125 -0.75 9.78125 -0.3125 C 9.78125 -0.3125 9.78125 0 9.78125 0 Z M 6.625 -4.3125 C 6.625 -4.3125 6.625 -4.765625 6.625 -4.765625 C 6.328125 -4.609375 6.21875 -4.578125 5.53125 -4.4375 C 5.53125 -4.4375 4.625 -4.28125 4.625 -4.28125 C 3.546875 -4.078125 3.140625 -3.796875 3.140625 -3.03125 C 3.140625 -2.28125 3.671875 -1.9375 4.5625 -1.9375 C 5.875 -1.9375 6.625 -2.796875 6.625 -4.3125 Z M 6.625 -4.3125 "/>
</g>
<g id="glyph-14-8-39aacb19">
<path d="M 3.859375 0 C 3.859375 0 1.25 0 1.25 0 C 1.25 0 1.25 -10.078125 1.25 -10.078125 C 1.25 -10.078125 3.859375 -10.078125 3.859375 -10.078125 C 3.859375 -10.078125 3.859375 0 3.859375 0 Z M 3.90625 -11.296875 C 3.90625 -11.296875 1.28125 -11.296875 1.28125 -11.296875 C 1.28125 -11.296875 1.28125 -13.90625 1.28125 -13.90625 C 1.28125 -13.90625 3.90625 -13.90625 3.90625 -13.90625 C 3.90625 -13.90625 3.90625 -11.296875 3.90625 -11.296875 Z M 3.90625 -11.296875 "/>
</g>
<g id="glyph-14-9-39aacb19">
<path d="M 15.390625 0 C 15.390625 0 12.765625 0 12.765625 0 C 12.765625 0 12.765625 -6.71875 12.765625 -6.71875 C 12.765625 -7.53125 12.234375 -8.03125 11.359375 -8.03125 C 10.234375 -8.03125 9.5625 -7.28125 9.5625 -6.046875 C 9.5625 -6.046875 9.5625 0 9.5625 0 C 9.5625 0 6.953125 0 6.953125 0 C 6.953125 0 6.953125 -6.71875 6.953125 -6.71875 C 6.953125 -7.53125 6.40625 -8.03125 5.53125 -8.03125 C 4.40625 -8.03125 3.734375 -7.28125 3.734375 -6.046875 C 3.734375 -6.046875 3.734375 0 3.734375 0 C 3.734375 0 1.125 0 1.125 0 C 1.125 0 1.125 -10.078125 1.125 -10.078125 C 1.125 -10.078125 3.71875 -10.078125 3.71875 -10.078125 C 3.71875 -10.078125 3.71875 -8.828125 3.71875 -8.828125 C 4.578125 -9.859375 5.328125 -10.25 6.484375 -10.25 C 7.734375 -10.25 8.734375 -9.703125 9.21875 -8.75 C 10.015625 -9.796875 10.90625 -10.25 12.171875 -10.25 C 14.1875 -10.25 15.390625 -9.09375 15.390625 -7.125 C 15.390625 -7.125 15.390625 0 15.390625 0 Z M 15.390625 0 "/>
</g>
<g id="glyph-14-10-39aacb19">
<path d="M 10.015625 -10.078125 C 10.015625 -10.078125 6.53125 0 6.53125 0 C 6.53125 0 3.796875 0 3.796875 0 C 3.796875 0 0.265625 -10.078125 0.265625 -10.078125 C 0.265625 -10.078125 3.03125 -10.078125 3.03125 -10.078125 C 3.03125 -10.078125 5.203125 -2.703125 5.203125 -2.703125 C 5.203125 -2.703125 7.25 -10.078125 7.25 -10.078125 C 7.25 -10.078125 10.015625 -10.078125 10.015625 -10.078125 Z M 10.015625 -10.078125 "/>
</g>
<g id="glyph-14-11-39aacb19">
<path d="M 3.859375 0 C 3.859375 0 1.25 0 1.25 0 C 1.25 0 1.25 -13.609375 1.25 -13.609375 C 1.25 -13.609375 3.859375 -13.609375 3.859375 -13.609375 C 3.859375 -13.609375 3.859375 0 3.859375 0 Z M 3.859375 0 "/>
</g>
<g id="glyph-14-12-39aacb19">
<path d="M 10.09375 0 C 10.09375 0 7.484375 0 7.484375 0 C 7.484375 0 7.484375 -1.328125 7.484375 -1.328125 C 6.734375 -0.34375 5.828125 0.171875 4.46875 0.171875 C 2.3125 0.171875 1.078125 -1.109375 1.078125 -3.328125 C 1.078125 -3.328125 1.078125 -10.078125 1.078125 -10.078125 C 1.078125 -10.078125 3.703125 -10.078125 3.703125 -10.078125 C 3.703125 -10.078125 3.703125 -3.859375 3.703125 -3.859375 C 3.703125 -2.65625 4.25 -2.046875 5.375 -2.046875 C 6.640625 -2.046875 7.484375 -2.84375 7.484375 -4.03125 C 7.484375 -4.03125 7.484375 -10.078125 7.484375 -10.078125 C 7.484375 -10.078125 10.09375 -10.078125 10.09375 -10.078125 C 10.09375 -10.078125 10.09375 0 10.09375 0 Z M 10.09375 0 "/>
</g>
<g id="glyph-15-0-39aacb19">
<path d="M 6.90625 -7.578125 C 6.546875 -7.640625 6.359375 -7.65625 6.09375 -7.65625 C 4.5625 -7.65625 3.796875 -6.890625 3.796875 -5.359375 C 3.796875 -5.359375 3.796875 0 3.796875 0 C 3.796875 0 1.171875 0 1.171875 0 C 1.171875 0 1.171875 -10.078125 1.171875 -10.078125 C 1.171875 -10.078125 3.796875 -10.078125 3.796875 -10.078125 C 3.796875 -10.078125 3.796875 -8.109375 3.796875 -8.109375 C 4.34375 -9.46875 5.390625 -10.25 6.59375 -10.25 C 6.671875 -10.25 6.765625 -10.25 6.90625 -10.234375 C 6.90625 -10.234375 6.90625 -7.578125 6.90625 -7.578125 Z M 6.90625 -7.578125 "/>
</g>
<g id="glyph-15-1-39aacb19">
<path d="M 3.859375 0 C 3.859375 0 1.25 0 1.25 0 C 1.25 0 1.25 -13.609375 1.25 -13.609375 C 1.25 -13.609375 3.859375 -13.609375 3.859375 -13.609375 C 3.859375 -13.609375 3.859375 0 3.859375 0 Z M 3.859375 0 "/>
</g>
</g>
</defs>
<path fill-rule="nonzero" fill="rgb(100%, 100%, 100%)" fill-opacity="1" d="M 0 0 L 666.667969 0 L 666.667969 466.667969 L 0 466.667969 Z M 0 0 "/>
<path fill-rule="nonzero" fill="rgb(100%, 100%, 100%)" fill-opacity="1" d="M 72 388 L 645.332031 388 L 645.332031 48 L 72 48 Z M 72 388 "/>
<path fill="none" stroke-width="1" stroke-linecap="butt" stroke-linejoin="miter" stroke="rgb(0%, 0%, 0%)" stroke-opacity="0.12" stroke-miterlimit="1.154701" d="M 73.546875 291 L 73.546875 36 " transform="matrix(1.333333, 0, 0, 1.333333, 0, 0)"/>
<path fill="none" stroke-width="1" stroke-linecap="butt" stroke-linejoin="miter" stroke="rgb(0%, 0%, 0%)" stroke-opacity="0.12" stroke-miterlimit="1.154701" d="M 269.000977 291 L 269.000977 36 " transform="matrix(1.333333, 0, 0, 1.333333, 0, 0)"/>
<path fill="none" stroke-width="1" stroke-linecap="butt" stroke-linejoin="miter" stroke="rgb(0%, 0%, 0%)" stroke-opacity="0.12" stroke-miterlimit="1.154701" d="M 464.455078 291 L 464.455078 36 " transform="matrix(1.333333, 0, 0, 1.333333, 0, 0)"/>
<path fill="none" stroke-width="1" stroke-linecap="butt" stroke-linejoin="miter" stroke="rgb(0%, 0%, 0%)" stroke-opacity="0.12" stroke-miterlimit="1.154701" d="M 54 279.550781 L 483.999023 279.550781 " transform="matrix(1.333333, 0, 0, 1.333333, 0, 0)"/>
<path fill="none" stroke-width="1" stroke-linecap="butt" stroke-linejoin="miter" stroke="rgb(0%, 0%, 0%)" stroke-opacity="0.12" stroke-miterlimit="1.154701" d="M 54 240.890625 L 483.999023 240.890625 " transform="matrix(1.333333, 0, 0, 1.333333, 0, 0)"/>
<path fill="none" stroke-width="1" stroke-linecap="butt" stroke-linejoin="miter" stroke="rgb(0%, 0%, 0%)" stroke-opacity="0.12" stroke-miterlimit="1.154701" d="M 54 202.230469 L 483.999023 202.230469 " transform="matrix(1.333333, 0, 0, 1.333333, 0, 0)"/>
<path fill="none" stroke-width="1" stroke-linecap="butt" stroke-linejoin="miter" stroke="rgb(0%, 0%, 0%)" stroke-opacity="0.12" stroke-miterlimit="1.154701" d="M 54 163.570312 L 483.999023 163.570312 " transform="matrix(1.333333, 0, 0, 1.333333, 0, 0)"/>
<path fill="none" stroke-width="1" stroke-linecap="butt" stroke-linejoin="miter" stroke="rgb(0%, 0%, 0%)" stroke-opacity="0.12" stroke-miterlimit="1.154701" d="M 54 124.910156 L 483.999023 124.910156 " transform="matrix(1.333333, 0, 0, 1.333333, 0, 0)"/>
<path fill="none" stroke-width="1" stroke-linecap="butt" stroke-linejoin="miter" stroke="rgb(0%, 0%, 0%)" stroke-opacity="0.12" stroke-miterlimit="1.154701" d="M 54 86.25 L 483.999023 86.25 " transform="matrix(1.333333, 0, 0, 1.333333, 0, 0)"/>
<path fill="none" stroke-width="1" stroke-linecap="butt" stroke-linejoin="miter" stroke="rgb(0%, 0%, 0%)" stroke-opacity="0.12" stroke-miterlimit="1.154701" d="M 54 47.589844 L 483.999023 47.589844 " transform="matrix(1.333333, 0, 0, 1.333333, 0, 0)"/>
<g fill="rgb(0%, 0%, 0%)" fill-opacity="1">
<use xlink:href="#glyph-0-0-39aacb19" x="337.928016" y="442.090667"/>
</g>
<g fill="rgb(0%, 0%, 0%)" fill-opacity="1">
<use xlink:href="#glyph-1-0-39aacb19" x="349.33335" y="442.090667"/>
<use xlink:href="#glyph-1-1-39aacb19" x="353.47735" y="442.090667"/>
<use xlink:href="#glyph-1-2-39aacb19" x="369.026684" y="442.090667"/>
</g>
<g fill="rgb(0%, 0%, 0%)" fill-opacity="1">
<use xlink:href="#glyph-1-3-39aacb19" x="92.871279" y="416.344001"/>
</g>
<g fill="rgb(0%, 0%, 0%)" fill-opacity="1">
<use xlink:href="#glyph-1-4-39aacb19" x="353.47735" y="416.344001"/>
</g>
<g fill="rgb(0%, 0%, 0%)" fill-opacity="1">
<use xlink:href="#glyph-1-5-39aacb19" x="608.894108" y="416.344001"/>
<use xlink:href="#glyph-1-3-39aacb19" x="619.272775" y="416.344001"/>
</g>
<g fill="rgb(0%, 0%, 0%)" fill-opacity="1">
<use xlink:href="#glyph-2-0-39aacb19" x="37.551997" y="296.334652"/>
</g>
<g fill="rgb(0%, 0%, 0%)" fill-opacity="1">
<use xlink:href="#glyph-3-0-39aacb19" x="37.551998" y="283.883984"/>
</g>
<g fill="rgb(0%, 0%, 0%)" fill-opacity="1">
<use xlink:href="#glyph-4-0-39aacb19" x="37.551998" y="274.550651"/>
</g>
<g fill="rgb(0%, 0%, 0%)" fill-opacity="1">
<use xlink:href="#glyph-5-0-39aacb19" x="37.551999" y="264.171984"/>
</g>
<g fill="rgb(0%, 0%, 0%)" fill-opacity="1">
<use xlink:href="#glyph-6-0-39aacb19" x="37.551999" y="253.793319"/>
</g>
<g fill="rgb(0%, 0%, 0%)" fill-opacity="1">
<use xlink:href="#glyph-2-1-39aacb19" x="37.552" y="244.459986"/>
</g>
<g fill="rgb(0%, 0%, 0%)" fill-opacity="1">
<use xlink:href="#glyph-7-0-39aacb19" x="37.552" y="239.270656"/>
<use xlink:href="#glyph-7-1-39aacb19" x="37.552001" y="228.891989"/>
</g>
<g fill="rgb(0%, 0%, 0%)" fill-opacity="1">
<use xlink:href="#glyph-8-0-39aacb19" x="37.552001" y="223.702659"/>
</g>
<g fill="rgb(0%, 0%, 0%)" fill-opacity="1">
<use xlink:href="#glyph-9-0-39aacb19" x="37.552002" y="219.558657"/>
</g>
<g fill="rgb(0%, 0%, 0%)" fill-opacity="1">
<use xlink:href="#glyph-10-0-39aacb19" x="37.552002" y="209.179996"/>
</g>
<g fill="rgb(0%, 0%, 0%)" fill-opacity="1">
<use xlink:href="#glyph-11-0-39aacb19" x="37.552003" y="198.801335"/>
</g>
<g fill="rgb(0%, 0%, 0%)" fill-opacity="1">
<use xlink:href="#glyph-2-2-39aacb19" x="37.552003" y="193.612005"/>
</g>
<g fill="rgb(0%, 0%, 0%)" fill-opacity="1">
<use xlink:href="#glyph-7-0-39aacb19" x="37.552003" y="184.278672"/>
<use xlink:href="#glyph-7-2-39aacb19" x="37.552004" y="173.900012"/>
</g>
<g fill="rgb(0%, 0%, 0%)" fill-opacity="1">
<use xlink:href="#glyph-12-0-39aacb19" x="37.552004" y="169.75601"/>
</g>
<g fill="rgb(0%, 0%, 0%)" fill-opacity="1">
<use xlink:href="#glyph-5-0-39aacb19" x="37.552005" y="159.377348"/>
<use xlink:href="#glyph-5-1-39aacb19" x="37.552006" y="148.998686"/>
</g>
<g fill="rgb(0%, 0%, 0%)" fill-opacity="1">
<use xlink:href="#glyph-1-6-39aacb19" x="48.288002" y="379.538173"/>
</g>
<g fill="rgb(0%, 0%, 0%)" fill-opacity="1">
<use xlink:href="#glyph-1-7-39aacb19" x="48.288002" y="327.991573"/>
</g>
<g fill="rgb(0%, 0%, 0%)" fill-opacity="1">
<use xlink:href="#glyph-1-8-39aacb19" x="48.288002" y="276.444973"/>
</g>
<g fill="rgb(0%, 0%, 0%)" fill-opacity="1">
<use xlink:href="#glyph-1-4-39aacb19" x="48.288002" y="224.898363"/>
</g>
<g fill="rgb(0%, 0%, 0%)" fill-opacity="1">
<use xlink:href="#glyph-1-9-39aacb19" x="48.288002" y="173.351753"/>
</g>
<g fill="rgb(0%, 0%, 0%)" fill-opacity="1">
<use xlink:href="#glyph-1-10-39aacb19" x="48.288002" y="121.805143"/>
</g>
<g fill="rgb(0%, 0%, 0%)" fill-opacity="1">
<use xlink:href="#glyph-13-0-39aacb19" x="48.288002" y="70.258554"/>
</g>
<g fill="rgb(0%, 0%, 0%)" fill-opacity="1">
<use xlink:href="#glyph-14-0-39aacb19" x="238.873353" y="38.597338"/>
<use xlink:href="#glyph-14-1-39aacb19" x="254.422691" y="38.597338"/>
<use xlink:href="#glyph-14-2-39aacb19" x="265.828016" y="38.597338"/>
<use xlink:href="#glyph-14-3-39aacb19" x="277.233356" y="38.597338"/>
<use xlink:href="#glyph-14-4-39aacb19" x="283.449354" y="38.597338"/>
<use xlink:href="#glyph-14-5-39aacb19" x="293.828022" y="38.597338"/>
<use xlink:href="#glyph-14-6-39aacb19" x="299.017353" y="38.597338"/>
<use xlink:href="#glyph-14-7-39aacb19" x="312.494684" y="38.597338"/>
</g>
<g fill="rgb(0%, 0%, 0%)" fill-opacity="1">
<use xlink:href="#glyph-15-0-39aacb19" x="322.873352" y="38.597338"/>
<use xlink:href="#glyph-15-1-39aacb19" x="330.13469" y="38.597338"/>
</g>
<g fill="rgb(0%, 0%, 0%)" fill-opacity="1">
<use xlink:href="#glyph-14-1-39aacb19" x="335.324021" y="38.597338"/>
<use xlink:href="#glyph-14-5-39aacb19" x="346.729356" y="38.597338"/>
<use xlink:href="#glyph-14-3-39aacb19" x="351.918687" y="38.597338"/>
<use xlink:href="#glyph-14-8-39aacb19" x="358.134691" y="38.597338"/>
<use xlink:href="#glyph-14-9-39aacb19" x="363.324022" y="38.597338"/>
<use xlink:href="#glyph-14-4-39aacb19" x="379.918689" y="38.597338"/>
<use xlink:href="#glyph-14-5-39aacb19" x="390.297351" y="38.597338"/>
<use xlink:href="#glyph-14-4-39aacb19" x="395.486683" y="38.597338"/>
<use xlink:href="#glyph-14-10-39aacb19" x="405.865345" y="38.597338"/>
<use xlink:href="#glyph-14-1-39aacb19" x="416.244008" y="38.597338"/>
<use xlink:href="#glyph-14-11-39aacb19" x="427.649343" y="38.597338"/>
<use xlink:href="#glyph-14-12-39aacb19" x="432.838674" y="38.597338"/>
<use xlink:href="#glyph-14-3-39aacb19" x="444.244009" y="38.597338"/>
<use xlink:href="#glyph-14-8-39aacb19" x="450.460013" y="38.597338"/>
<use xlink:href="#glyph-14-1-39aacb19" x="455.649344" y="38.597338"/>
<use xlink:href="#glyph-14-2-39aacb19" x="467.054679" y="38.597338"/>
</g>
<path fill="none" stroke-width="1.5" stroke-linecap="butt" stroke-linejoin="miter" stroke="rgb(0%, 44.705883%, 69.803923%)" stroke-opacity="1" stroke-dasharray="4.5 4.5 1.5 4.5" stroke-miterlimit="2" d="M 73.546875 47.589844 L 75.509766 49.491211 L 77.475586 54.832031 L 79.438477 62.572266 L 81.404297 71.179688 L 83.367188 78.9375 L 85.333008 84.310547 L 87.295898 86.25 L 89.261719 84.398438 L 91.224609 79.142578 L 93.19043 71.519531 L 95.15332 63.008789 L 97.119141 55.253906 L 99.082031 49.757812 L 101.047852 47.601562 L 103.010742 49.230469 L 104.976562 54.354492 L 106.939453 61.96875 L 108.905273 70.570312 L 110.868164 78.445312 L 112.833984 84.032227 L 114.796875 86.238281 L 116.762695 84.65332 L 118.725586 79.614258 L 120.691406 72.114258 L 122.654297 63.612305 L 124.620117 55.749023 L 126.583008 50.047852 L 128.548828 47.630859 L 130.511719 48.990234 L 132.477539 53.888672 L 134.44043 61.371094 L 136.40625 69.958008 L 138.369141 77.941406 L 140.334961 83.733398 L 142.297852 86.206055 L 144.263672 84.890625 L 146.226562 80.071289 L 148.192383 72.706055 L 150.155273 64.22168 L 152.121094 56.258789 L 154.083984 50.358398 L 156.049805 47.680664 L 158.012695 48.767578 L 159.978516 53.4375 L 161.941406 60.779297 L 163.907227 69.342773 L 165.870117 77.425781 L 167.835938 121.324219 L 169.798828 124.523438 L 171.764648 124.456055 L 173.727539 121.154297 L 175.693359 115.201172 L 177.65625 107.619141 L 179.62207 99.691406 L 181.584961 92.762695 L 183.550781 88.007812 L 185.513672 86.25293 L 187.479492 87.820312 L 189.442383 92.463867 L 191.408203 99.389648 L 193.371094 107.396484 L 195.336914 115.086914 L 197.299805 121.119141 L 199.265625 124.453125 L 201.228516 124.529297 L 203.194336 121.356445 L 205.157227 115.5 L 207.123047 107.964844 L 209.085938 100.022461 L 211.051758 93.023438 L 213.014648 88.154297 L 214.980469 86.258789 L 216.943359 87.685547 L 218.90918 92.208984 L 220.87207 99.058594 L 222.837891 107.047852 L 224.800781 114.779297 L 226.766602 120.908203 L 228.729492 124.374023 L 230.695312 124.59375 L 232.658203 121.555664 L 234.624023 115.798828 L 236.586914 108.307617 L 238.552734 100.356445 L 240.515625 93.290039 L 242.481445 88.30957 L 244.444336 86.273438 L 246.410156 87.556641 L 248.373047 91.957031 L 250.338867 98.727539 L 252.301758 106.696289 L 254.267578 114.46875 L 256.230469 120.691406 L 258.196289 124.289062 L 260.15918 124.655273 L 262.125 121.749023 L 264.087891 116.091797 L 266.053711 108.650391 L 268.016602 100.693359 L 269.982422 93.55957 L 271.945312 126.84375 L 273.911133 124.951172 L 275.874023 125.90332 L 277.839844 129.580078 L 279.802734 135.448242 L 281.768555 142.634766 L 283.731445 150.064453 L 285.697266 156.618164 L 287.660156 161.317383 L 289.625977 163.473633 L 291.588867 162.785156 L 293.554688 159.369141 L 295.517578 153.74707 L 297.483398 146.742188 L 299.446289 139.376953 L 301.412109 132.714844 L 303.375 127.731445 L 305.34082 125.162109 L 307.303711 125.402344 L 309.269531 128.43457 L 311.232422 133.828125 L 313.198242 140.783203 L 315.164062 148.256836 L 317.126953 155.126953 L 319.092773 160.365234 L 321.055664 163.198242 L 323.021484 163.22168 L 324.984375 160.450195 L 326.950195 155.311523 L 328.913086 148.558594 L 330.878906 141.181641 L 332.841797 134.25 L 334.807617 128.768555 L 336.770508 125.545898 L 338.736328 125.071289 L 340.699219 127.435547 L 342.665039 132.304688 L 344.62793 138.960938 L 346.59375 146.411133 L 348.556641 153.536133 L 350.522461 159.263672 L 352.485352 162.75 L 354.451172 163.485352 L 356.414062 199.790039 L 358.379883 233.537109 L 360.342773 228.272461 L 362.308594 222.360352 L 364.271484 216.369141 L 366.237305 210.881836 L 368.200195 206.428711 L 370.166016 203.449219 L 372.128906 240.902344 L 374.094727 241.429688 L 376.057617 243.363281 L 378.023438 246.56543 L 379.986328 250.798828 L 381.952148 255.75 L 383.915039 261.043945 L 385.880859 266.273438 L 387.84375 271.042969 L 389.80957 274.989258 L 391.772461 277.819336 L 393.738281 279.325195 L 395.701172 279.410156 L 397.666992 278.071289 L 399.629883 275.419922 L 401.595703 271.658203 L 403.558594 267.064453 L 405.524414 261.975586 L 407.487305 256.757812 L 409.453125 251.791992 L 411.416016 247.438477 L 413.381836 244.013672 L 415.344727 241.77832 L 417.310547 240.899414 L 419.273438 241.456055 L 421.239258 243.416016 L 423.202148 246.641602 L 425.167969 250.895508 L 427.130859 255.858398 L 429.09668 261.152344 L 431.05957 266.375977 L 433.025391 271.133789 L 434.988281 275.05957 L 436.954102 277.863281 L 438.916992 279.342773 L 440.882812 279.395508 L 442.845703 278.027344 L 444.811523 275.352539 L 446.774414 271.570312 L 448.740234 266.961914 L 450.703125 261.867188 L 452.668945 256.652344 L 454.631836 251.695312 L 456.597656 247.359375 L 458.560547 243.958008 L 460.526367 241.746094 L 462.489258 240.896484 L 464.455078 241.482422 " transform="matrix(1.333333, 0, 0, 1.333333, 0, 0)"/>
<path fill="none" stroke-width="1.5" stroke-linecap="butt" stroke-linejoin="miter" stroke="rgb(90.196079%, 62.352943%, 0%)" stroke-opacity="1" stroke-dasharray="4.5 4.5" stroke-miterlimit="2" d="M 73.546875 47.589844 L 75.509766 49.491211 L 77.475586 58.614258 L 79.438477 66.28125 L 81.404297 74.827148 L 83.367188 86.323242 L 85.333008 91.775391 L 87.295898 93.922852 L 89.261719 92.381836 L 91.224609 91.294922 L 93.19043 84.017578 L 95.15332 75.735352 L 97.119141 67.989258 L 99.082031 62.223633 L 101.047852 63.389648 L 103.010742 68.112305 L 104.976562 76.107422 L 106.939453 82.807617 L 108.905273 90.817383 L 110.868164 102.345703 L 112.833984 108.527344 L 114.796875 112.022461 L 116.762695 112.242188 L 118.725586 109.209961 L 120.691406 103.520508 L 122.654297 100.054688 L 124.620117 92.53125 L 126.583008 89.926758 L 128.548828 85.716797 L 130.511719 84.380859 L 132.477539 89.90332 L 134.44043 98.050781 L 136.40625 104.194336 L 138.369141 111.067383 L 140.334961 117.462891 L 142.297852 122.282227 L 144.263672 124.743164 L 146.226562 124.505859 L 148.192383 121.705078 L 150.155273 116.915039 L 152.121094 111.029297 L 154.083984 108.931641 L 156.049805 104.018555 L 158.012695 100.866211 L 159.978516 103.822266 L 161.941406 109.001953 L 163.907227 112.289062 L 165.870117 116.912109 L 167.835938 125.850586 L 169.798828 130.634766 L 171.764648 137.979492 L 173.727539 139.945312 L 175.693359 140.018555 L 177.65625 138.272461 L 179.62207 138.820312 L 181.584961 134.818359 L 183.550781 130.628906 L 185.513672 126.9375 L 187.479492 124.327148 L 189.442383 123.18457 L 191.408203 123.635742 L 193.371094 125.542969 L 195.336914 132.260742 L 197.299805 135.685547 L 199.265625 139.051758 L 201.228516 141.820312 L 203.194336 143.578125 L 205.157227 147.916992 L 207.123047 147.219727 L 209.085938 145.523438 L 211.051758 147.005859 L 213.014648 144.477539 L 214.980469 145.757812 L 216.943359 143.947266 L 218.90918 142.96875 L 220.87207 142.910156 L 222.837891 143.695312 L 224.800781 145.119141 L 226.766602 146.876953 L 228.729492 148.640625 L 230.695312 150.105469 L 232.658203 151.051758 L 234.624023 151.371094 L 236.586914 151.072266 L 238.552734 154.040039 L 240.515625 152.994141 L 242.481445 151.895508 L 244.444336 150.94043 L 246.410156 150.28418 L 248.373047 150.017578 L 250.338867 150.143555 L 252.301758 150.603516 L 254.267578 151.277344 L 256.230469 152.006836 L 258.196289 152.639648 L 260.15918 153.052734 L 262.125 153.178711 L 264.087891 153.020508 L 266.053711 152.642578 L 268.016602 152.15332 L 269.982422 151.669922 L 271.945312 151.303711 L 273.911133 151.12207 L 275.874023 151.151367 L 277.839844 151.379883 L 279.802734 155.540039 L 281.768555 156.029297 L 283.731445 156.436523 L 285.697266 156.676758 L 287.660156 160.485352 L 289.625977 160.297852 L 291.588867 163.467773 L 293.554688 162.758789 L 295.517578 162.00293 L 297.483398 161.361328 L 299.446289 160.980469 L 301.412109 160.977539 L 303.375 161.411133 L 305.34082 162.275391 L 307.303711 163.494141 L 309.269531 168.583008 L 311.232422 169.957031 L 313.198242 171.172852 L 315.164062 175.819336 L 317.126953 176.25 L 319.092773 176.097656 L 321.055664 175.335938 L 323.021484 174.032227 L 324.984375 172.356445 L 326.950195 170.53125 L 328.913086 168.811523 L 330.878906 167.43457 L 332.841797 166.576172 L 334.807617 166.335938 L 336.770508 166.722656 L 338.736328 167.651367 L 340.699219 168.952148 L 342.665039 170.408203 L 344.62793 171.773438 L 346.59375 176.501953 L 348.556641 177.076172 L 350.522461 180.931641 L 352.485352 180.650391 L 354.451172 180.008789 L 356.414062 179.176758 L 358.379883 178.359375 L 360.342773 177.764648 L 362.308594 177.556641 L 364.271484 177.826172 L 366.237305 178.584961 L 368.200195 179.748047 L 370.166016 181.139648 L 372.128906 186.333984 L 374.094727 187.394531 L 376.057617 187.962891 L 378.023438 187.889648 L 379.986328 187.12207 L 381.952148 185.707031 L 383.915039 183.793945 L 385.880859 181.608398 L 387.84375 179.419922 L 389.80957 181.256836 L 391.772461 179.935547 L 393.738281 179.270508 L 395.701172 179.364258 L 397.666992 180.225586 L 399.629883 181.769531 L 401.595703 183.829102 L 403.558594 186.166992 L 405.524414 188.510742 L 407.487305 190.582031 L 409.453125 192.137695 L 411.416016 192.996094 L 413.381836 193.066406 L 415.344727 192.360352 L 417.310547 190.986328 L 419.273438 189.128906 L 421.239258 187.03125 L 423.202148 184.962891 L 425.167969 183.181641 L 427.130859 189.269531 L 429.09668 188.663086 L 431.05957 188.821289 L 433.025391 189.758789 L 434.988281 199.081055 L 436.954102 201.137695 L 438.916992 203.469727 L 440.882812 205.851562 L 442.845703 208.040039 L 444.811523 209.80957 L 446.774414 210.960938 L 448.740234 211.344727 L 450.703125 214.743164 L 452.668945 213.448242 L 454.631836 211.353516 L 456.597656 208.628906 L 458.560547 205.526367 L 460.526367 202.353516 L 462.489258 199.438477 L 464.455078 197.094727 " transform="matrix(1.333333, 0, 0, 1.333333, 0, 0)"/>
<path fill="none" stroke-width="1.5" stroke-linecap="butt" stroke-linejoin="miter" stroke="rgb(0%, 61.960787%, 45.09804%)" stroke-opacity="1" stroke-miterlimit="2" d="M 73.546875 47.589844 L 75.509766 51.796875 L 77.475586 58.236328 L 79.438477 67.769531 L 81.404297 77.405273 L 83.367188 85.514648 L 85.333008 92.124023 L 87.295898 95.452148 L 89.261719 95.504883 L 91.224609 92.970703 L 93.19043 86.510742 L 95.15332 79.78418 L 97.119141 74.352539 L 99.082031 68.613281 L 101.047852 66.621094 L 103.010742 68.504883 L 104.976562 73.713867 L 106.939453 82.584961 L 108.905273 91.599609 L 110.868164 100.819336 L 112.833984 108.509766 L 114.796875 112.77832 L 116.762695 114.626953 L 118.725586 111.761719 L 120.691406 107.800781 L 122.654297 102.665039 L 124.620117 96.515625 L 126.583008 91.400391 L 128.548828 88.382812 L 130.511719 89.686523 L 132.477539 92.756836 L 134.44043 98.024414 L 136.40625 104.296875 L 138.369141 112.388672 L 140.334961 120 L 142.297852 124.576172 L 144.263672 127.664062 L 146.226562 128.162109 L 148.192383 126.626953 L 150.155273 122.487305 L 152.121094 118.119141 L 154.083984 112.631836 L 156.049805 110.027344 L 158.012695 109.136719 L 159.978516 109.614258 L 161.941406 112.608398 L 163.907227 116.645508 L 165.870117 121.441406 L 167.835938 128.077148 L 169.798828 133.470703 L 171.764648 137.267578 L 173.727539 140.540039 L 175.693359 141.269531 L 177.65625 139.579102 L 179.62207 137.460938 L 181.584961 135.134766 L 183.550781 133.68457 L 185.513672 132.902344 L 187.479492 132.580078 L 189.442383 133.371094 L 191.408203 135.222656 L 193.371094 139.374023 L 195.336914 142.743164 L 197.299805 146.692383 L 199.265625 150.744141 L 201.228516 152.879883 L 203.194336 154.710938 L 205.157227 155.768555 L 207.123047 155.352539 L 209.085938 153.339844 L 211.051758 152.000977 L 213.014648 150.251953 L 214.980469 149.25293 L 216.943359 150.070312 L 218.90918 149.460938 L 220.87207 150.867188 L 222.837891 152.355469 L 224.800781 155.548828 L 226.766602 158.273438 L 228.729492 161.72168 L 230.695312 164.835938 L 232.658203 167.015625 L 234.624023 168.518555 L 236.586914 168.219727 L 238.552734 167.34082 L 240.515625 166.429688 L 242.481445 166.508789 L 244.444336 166.259766 L 246.410156 165.878906 L 248.373047 165.580078 L 250.338867 166.201172 L 252.301758 168.070312 L 254.267578 169.611328 L 256.230469 171.439453 L 258.196289 173.736328 L 260.15918 176.34082 L 262.125 178.327148 L 264.087891 179.176758 L 266.053711 181.49707 L 268.016602 183.058594 L 269.982422 183.56543 L 271.945312 183.46582 L 273.911133 183.298828 L 275.874023 182.425781 L 277.839844 182.490234 L 279.802734 183.225586 L 281.768555 183.896484 L 283.731445 185.25 L 285.697266 186.131836 L 287.660156 186.861328 L 289.625977 188.080078 L 291.588867 189.717773 L 293.554688 190.520508 L 295.517578 192.673828 L 297.483398 193.880859 L 299.446289 194.80957 L 301.412109 196.259766 L 303.375 196.306641 L 305.34082 195.764648 L 307.303711 197.288086 L 309.269531 197.273438 L 311.232422 197.299805 L 313.198242 197.003906 L 315.164062 197.226562 L 317.126953 198.389648 L 319.092773 198.251953 L 321.055664 198.700195 L 323.021484 201.196289 L 324.984375 201.963867 L 326.950195 203.967773 L 328.913086 204.943359 L 330.878906 206.34668 L 332.841797 208.081055 L 334.807617 208.96582 L 336.770508 211.268555 L 338.736328 213.020508 L 340.699219 213.878906 L 342.665039 214.602539 L 344.62793 215.217773 L 346.59375 215.015625 L 348.556641 215.135742 L 350.522461 216.351562 L 352.485352 218.024414 L 354.451172 219 L 356.414062 219.650391 L 358.379883 219.568359 L 360.342773 219.908203 L 362.308594 219.867188 L 364.271484 219.820312 L 366.237305 220.12793 L 368.200195 221.141602 L 370.166016 221.43457 L 372.128906 221.71875 L 374.094727 221.62207 L 376.057617 221.929688 L 378.023438 222.260742 L 379.986328 223.371094 L 381.952148 223.804688 L 383.915039 224.657227 L 385.880859 225.222656 L 387.84375 226.570312 L 389.80957 226.869141 L 391.772461 227.920898 L 393.738281 228.987305 L 395.701172 229.634766 L 397.666992 230.583984 L 399.629883 231.834961 L 401.595703 231.849609 L 403.558594 232.541016 L 405.524414 232.417969 L 407.487305 233.384766 L 409.453125 233.548828 L 411.416016 233.71582 L 413.381836 233.52832 L 415.344727 234.125977 L 417.310547 234.75 L 419.273438 235.40332 L 421.239258 235.306641 L 423.202148 235.59668 L 425.167969 235.907227 L 427.130859 236.619141 L 429.09668 238.086914 L 431.05957 238.107422 L 433.025391 238.907227 L 434.988281 239.399414 L 436.954102 239.938477 L 438.916992 240.521484 L 440.882812 240.817383 L 442.845703 241.549805 L 444.811523 242.291016 L 446.774414 243.389648 L 448.740234 244.857422 L 450.703125 245.124023 L 452.668945 245.648438 L 454.631836 246.380859 L 456.597656 246.996094 L 458.560547 247.078125 L 460.526367 246.673828 L 462.489258 246.1875 L 464.455078 246.37207 " transform="matrix(1.333333, 0, 0, 1.333333, 0, 0)"/>
<path fill-rule="nonzero" fill="rgb(100%, 100%, 100%)" fill-opacity="1" stroke-width="1" stroke-linecap="butt" stroke-linejoin="miter" stroke="rgb(0%, 0%, 0%)" stroke-opacity="1" stroke-miterlimit="2" d="M 345 120 L 477.999023 120 L 477.999023 42 L 345 42 Z M 345 120 " transform="matrix(1.333333, 0, 0, 1.333333, 0, 0)"/>
<path fill="none" stroke-width="1" stroke-linecap="butt" stroke-linejoin="miter" stroke="rgb(0%, 0%, 0%)" stroke-opacity="1" stroke-miterlimit="1.154701" d="M 73.546875 291.500977 L 73.546875 296.499023 " transform="matrix(1.333333, 0, 0, 1.333333, 0, 0)"/>
<path fill="none" stroke-width="1" stroke-linecap="butt" stroke-linejoin="miter" stroke="rgb(0%, 0%, 0%)" stroke-opacity="1" stroke-miterlimit="1.154701" d="M 269.000977 291.500977 L 269.000977 296.499023 " transform="matrix(1.333333, 0, 0, 1.333333, 0, 0)"/>
<path fill="none" stroke-width="1" stroke-linecap="butt" stroke-linejoin="miter" stroke="rgb(0%, 0%, 0%)" stroke-opacity="1" stroke-miterlimit="1.154701" d="M 464.455078 291.500977 L 464.455078 296.499023 " transform="matrix(1.333333, 0, 0, 1.333333, 0, 0)"/>
<path fill="none" stroke-width="1" stroke-linecap="butt" stroke-linejoin="miter" stroke="rgb(0%, 0%, 0%)" stroke-opacity="1" stroke-miterlimit="1.154701" d="M 53.499023 279.550781 L 48.500977 279.550781 " transform="matrix(1.333333, 0, 0, 1.333333, 0, 0)"/>
<path fill="none" stroke-width="1" stroke-linecap="butt" stroke-linejoin="miter" stroke="rgb(0%, 0%, 0%)" stroke-opacity="1" stroke-miterlimit="1.154701" d="M 53.499023 240.890625 L 48.500977 240.890625 " transform="matrix(1.333333, 0, 0, 1.333333, 0, 0)"/>
<path fill="none" stroke-width="1" stroke-linecap="butt" stroke-linejoin="miter" stroke="rgb(0%, 0%, 0%)" stroke-opacity="1" stroke-miterlimit="1.154701" d="M 53.499023 202.230469 L 48.500977 202.230469 " transform="matrix(1.333333, 0, 0, 1.333333, 0, 0)"/>
<path fill="none" stroke-width="1" stroke-linecap="butt" stroke-linejoin="miter" stroke="rgb(0%, 0%, 0%)" stroke-opacity="1" stroke-miterlimit="1.154701" d="M 53.499023 163.570312 L 48.500977 163.570312 " transform="matrix(1.333333, 0, 0, 1.333333, 0, 0)"/>
<path fill="none" stroke-width="1" stroke-linecap="butt" stroke-linejoin="miter" stroke="rgb(0%, 0%, 0%)" stroke-opacity="1" stroke-miterlimit="1.154701" d="M 53.499023 124.910156 L 48.500977 124.910156 " transform="matrix(1.333333, 0, 0, 1.333333, 0, 0)"/>
<path fill="none" stroke-width="1" stroke-linecap="butt" stroke-linejoin="miter" stroke="rgb(0%, 0%, 0%)" stroke-opacity="1" stroke-miterlimit="1.154701" d="M 53.499023 86.25 L 48.500977 86.25 " transform="matrix(1.333333, 0, 0, 1.333333, 0, 0)"/>
<path fill="none" stroke-width="1" stroke-linecap="butt" stroke-linejoin="miter" stroke="rgb(0%, 0%, 0%)" stroke-opacity="1" stroke-miterlimit="1.154701" d="M 53.499023 47.589844 L 48.500977 47.589844 " transform="matrix(1.333333, 0, 0, 1.333333, 0, 0)"/>
<path fill="none" stroke-width="1.5" stroke-linecap="butt" stroke-linejoin="miter" stroke="rgb(0%, 44.705883%, 69.803923%)" stroke-opacity="1" stroke-dasharray="4.5 4.5 1.5 4.5" stroke-miterlimit="2" d="M 351.149414 57.999023 L 371.147461 57.999023 " transform="matrix(1.333333, 0, 0, 1.333333, 0, 0)"/>
<path fill="none" stroke-width="1.5" stroke-linecap="butt" stroke-linejoin="miter" stroke="rgb(90.196079%, 62.352943%, 0%)" stroke-opacity="1" stroke-dasharray="4.5 4.5" stroke-miterlimit="2" d="M 351.149414 81 L 371.147461 81 " transform="matrix(1.333333, 0, 0, 1.333333, 0, 0)"/>
<path fill="none" stroke-width="1.5" stroke-linecap="butt" stroke-linejoin="miter" stroke="rgb(0%, 61.960787%, 45.09804%)" stroke-opacity="1" stroke-miterlimit="2" d="M 351.149414 104.000977 L 371.147461 104.000977 " transform="matrix(1.333333, 0, 0, 1.333333, 0, 0)"/>
<g fill="rgb(0%, 0%, 0%)" fill-opacity="1">
<use xlink:href="#glyph-13-1-39aacb19" x="501.530719" y="84.137338"/>
<use xlink:href="#glyph-13-2-39aacb19" x="511.909387" y="84.137338"/>
<use xlink:href="#glyph-13-3-39aacb19" x="517.098718" y="84.137338"/>
<use xlink:href="#glyph-13-4-39aacb19" x="522.288055" y="84.137338"/>
<use xlink:href="#glyph-13-5-39aacb19" x="528.504053" y="84.137338"/>
<use xlink:href="#glyph-13-6-39aacb19" x="538.882721" y="84.137338"/>
<use xlink:href="#glyph-13-7-39aacb19" x="543.026721" y="84.137338"/>
<use xlink:href="#glyph-13-8-39aacb19" x="553.405386" y="84.137338"/>
<use xlink:href="#glyph-13-3-39aacb19" x="562.73872" y="84.137338"/>
<use xlink:href="#glyph-13-9-39aacb19" x="567.928051" y="84.137338"/>
<use xlink:href="#glyph-13-4-39aacb19" x="578.306719" y="84.137338"/>
<use xlink:href="#glyph-13-10-39aacb19" x="584.522718" y="84.137338"/>
</g>
<g fill="rgb(0%, 0%, 0%)" fill-opacity="1">
<use xlink:href="#glyph-1-5-39aacb19" x="501.530694" y="114.804004"/>
<use xlink:href="#glyph-1-3-39aacb19" x="511.909362" y="114.804004"/>
<use xlink:href="#glyph-1-11-39aacb19" x="522.288029" y="114.804004"/>
<use xlink:href="#glyph-1-12-39aacb19" x="527.477361" y="114.804004"/>
<use xlink:href="#glyph-1-13-39aacb19" x="532.666695" y="114.804004"/>
<use xlink:href="#glyph-1-14-39aacb19" x="538.882696" y="114.804004"/>
<use xlink:href="#glyph-1-15-39aacb19" x="549.261363" y="114.804004"/>
<use xlink:href="#glyph-1-2-39aacb19" x="553.405366" y="114.804004"/>
<use xlink:href="#glyph-1-16-39aacb19" x="563.784034" y="114.804004"/>
<use xlink:href="#glyph-1-12-39aacb19" x="573.117367" y="114.804004"/>
<use xlink:href="#glyph-1-17-39aacb19" x="578.306699" y="114.804004"/>
<use xlink:href="#glyph-1-13-39aacb19" x="588.685361" y="114.804004"/>
<use xlink:href="#glyph-1-0-39aacb19" x="594.901365" y="114.804004"/>
<use xlink:href="#glyph-1-2-39aacb19" x="599.045367" y="114.804004"/>
<use xlink:href="#glyph-1-18-39aacb19" x="609.42403" y="114.804004"/>
</g>
<g fill="rgb(0%, 0%, 0%)" fill-opacity="1">
<use xlink:href="#glyph-1-5-39aacb19" x="501.530689" y="145.47067"/>
<use xlink:href="#glyph-1-3-39aacb19" x="511.909357" y="145.47067"/>
<use xlink:href="#glyph-1-3-39aacb19" x="522.288024" y="145.47067"/>
<use xlink:href="#glyph-1-11-39aacb19" x="532.666689" y="145.47067"/>
<use xlink:href="#glyph-1-12-39aacb19" x="537.856023" y="145.47067"/>
<use xlink:href="#glyph-1-13-39aacb19" x="543.045357" y="145.47067"/>
<use xlink:href="#glyph-1-14-39aacb19" x="549.261358" y="145.47067"/>
<use xlink:href="#glyph-1-15-39aacb19" x="559.640026" y="145.47067"/>
<use xlink:href="#glyph-1-2-39aacb19" x="563.784028" y="145.47067"/>
<use xlink:href="#glyph-1-16-39aacb19" x="574.162696" y="145.47067"/>
<use xlink:href="#glyph-1-12-39aacb19" x="583.49603" y="145.47067"/>
<use xlink:href="#glyph-1-17-39aacb19" x="588.685366" y="145.47067"/>
<use xlink:href="#glyph-1-13-39aacb19" x="599.064029" y="145.47067"/>
<use xlink:href="#glyph-1-0-39aacb19" x="605.280033" y="145.47067"/>
<use xlink:href="#glyph-1-2-39aacb19" x="609.424035" y="145.47067"/>
<use xlink:href="#glyph-1-18-39aacb19" x="619.802698" y="145.47067"/>
</g>
<path fill="none" stroke-width="1" stroke-linecap="butt" stroke-linejoin="miter" stroke="rgb(0%, 0%, 0%)" stroke-opacity="1" stroke-miterlimit="1.154701" d="M 53.499023 291 L 484.5 291 " transform="matrix(1.333333, 0, 0, 1.333333, 0, 0)"/>
<path fill="none" stroke-width="1" stroke-linecap="butt" stroke-linejoin="miter" stroke="rgb(0%, 0%, 0%)" stroke-opacity="1" stroke-miterlimit="1.154701" d="M 54 291.500977 L 54 35.499023 " transform="matrix(1.333333, 0, 0, 1.333333, 0, 0)"/>
<path fill="none" stroke-width="1" stroke-linecap="butt" stroke-linejoin="miter" stroke="rgb(0%, 0%, 0%)" stroke-opacity="1" stroke-miterlimit="1.154701" d="M 53.499023 36 L 484.5 36 " transform="matrix(1.333333, 0, 0, 1.333333, 0, 0)"/>
<path fill="none" stroke-width="1" stroke-linecap="butt" stroke-linejoin="miter" stroke="rgb(0%, 0%, 0%)" stroke-opacity="1" stroke-miterlimit="1.154701" d="M 483.999023 291.500977 L 483.999023 35.499023 " transform="matrix(1.333333, 0, 0, 1.333333, 0, 0)"/>
</svg>
