<?xml version="1.0" encoding="UTF-8"?>
<svg xmlns="http://www.w3.org/2000/svg" xmlns:xlink="http://www.w3.org/1999/xlink" width="667" height="467" viewBox="0 0 667 467">
<defs>
<g>
<g id="glyph-0-0-1f311df0">
<path d="M 11.078125 -12.078125 C 11.078125 -12.078125 6.609375 -12.078125 6.609375 -12.078125 C 6.609375 -12.078125 6.609375 0 6.609375 0 C 6.609375 0 4.875 0 4.875 0 C 4.875 0 4.875 -12.078125 4.875 -12.078125 C 4.875 -12.078125 0.390625 -12.078125 0.390625 -12.078125 C 0.390625 -12.078125 0.390625 -13.609375 0.390625 -13.609375 C 0.390625 -13.609375 11.078125 -13.609375 11.078125 -13.609375 C 11.078125 -13.609375 11.078125 -12.078125 11.078125 -12.078125 Z M 11.078125 -12.078125 "/>
</g>
<g id="glyph-0-1-1f311df0">
<path d="M 2.859375 0 C 2.859375 0 1.3125 0 1.3125 0 C 1.3125 0 1.3125 -9.78125 1.3125 -9.78125 C 1.3125 -9.78125 2.859375 -9.78125 2.859375 -9.78125 C 2.859375 -9.78125 2.859375 0 2.859375 0 Z M 3.0625 -11.265625 C 3.0625 -11.265625 1.125 -11.265625 1.125 -11.265625 C 1.125 -11.265625 1.125 -13.203125 1.125 -13.203125 C 1.125 -13.203125 3.0625 -13.203125 3.0625 -13.203125 C 3.0625 -13.203125 3.0625 -11.265625 3.0625 -11.265625 Z M 3.0625 -11.265625 "/>
</g>
<g id="glyph-0-2-1f311df0">
<path d="M 14.1875 0 C 14.1875 0 12.640625 0 12.640625 0 C 12.640625 0 12.640625 -6.734375 12.640625 -6.734375 C 12.640625 -7.96875 11.984375 -8.703125 10.84375 -8.703125 C 9.578125 -8.703125 8.53125 -7.5625 8.53125 -6.140625 C 8.53125 -6.140625 8.53125 0 8.53125 0 C 8.53125 0 6.984375 0 6.984375 0 C 6.984375 0 6.984375 -6.734375 6.984375 -6.734375 C 6.984375 -7.984375 6.328125 -8.703125 5.171875 -8.703125 C 3.90625 -8.703125 2.875 -7.5625 2.875 -6.140625 C 2.875 -6.140625 2.875 0 2.875 0 C 2.875 0 1.328125 0 1.328125 0 C 1.328125 0 1.328125 -9.78125 1.328125 -9.78125 C 1.328125 -9.78125 2.75 -9.78125 2.75 -9.78125 C 2.75 -9.78125 2.75 -8.40625 2.75 -8.40625 C 3.578125 -9.578125 4.4375 -10.0625 5.75 -10.0625 C 7.015625 -10.0625 7.8125 -9.609375 8.390625 -8.578125 C 9.296875 -9.671875 10.078125 -10.0625 11.390625 -10.0625 C 13.21875 -10.0625 14.1875 -9.09375 14.1875 -7.34375 C 14.1875 -7.34375 14.1875 0 14.1875 0 Z M 14.1875 0 "/>
</g>
<g id="glyph-0-3-1f311df0">
<path d="M 9.578125 -4.4375 C 9.578125 -4.4375 2.375 -4.4375 2.375 -4.4375 C 2.40625 -2.203125 3.625 -1.15625 5.25 -1.15625 C 6.5 -1.15625 7.375 -1.6875 7.8125 -2.96875 C 7.8125 -2.96875 9.375 -2.96875 9.375 -2.96875 C 8.984375 -0.984375 7.4375 0.28125 5.1875 0.28125 C 2.453125 0.28125 0.75 -1.625 0.75 -4.84375 C 0.75 -8.046875 2.5 -10.0625 5.234375 -10.0625 C 7.0625 -10.0625 8.546875 -9.09375 9.1875 -7.484375 C 9.46875 -6.765625 9.578125 -5.859375 9.578125 -4.4375 Z M 7.921875 -5.828125 C 7.921875 -7.359375 6.734375 -8.625 5.203125 -8.625 C 3.640625 -8.625 2.546875 -7.453125 2.40625 -5.71875 C 2.40625 -5.71875 7.890625 -5.71875 7.890625 -5.71875 C 7.921875 -5.75 7.921875 -5.828125 7.921875 -5.828125 Z M 7.921875 -5.828125 "/>
</g>
<g id="glyph-1-0-1f311df0">
<path d="M 9.46875 -6.359375 C 9.46875 -2.015625 7.9375 0.28125 5.140625 0.28125 C 2.296875 0.28125 0.796875 -2.015625 0.796875 -6.484375 C 0.796875 -10.921875 2.28125 -13.234375 5.140625 -13.234375 C 8.015625 -13.234375 9.46875 -10.953125 9.46875 -6.359375 Z M 7.78125 -6.515625 C 7.78125 -10.0625 6.90625 -11.78125 5.140625 -11.78125 C 3.359375 -11.78125 2.484375 -10.078125 2.484375 -6.453125 C 2.484375 -2.84375 3.359375 -1.078125 5.09375 -1.078125 C 6.921875 -1.078125 7.78125 -2.765625 7.78125 -6.515625 Z M 7.78125 -6.515625 "/>
</g>
<g id="glyph-2-0-1f311df0">
<path d="M 3.5625 0 C 3.5625 0 1.625 0 1.625 0 C 1.625 0 1.625 -1.9375 1.625 -1.9375 C 1.625 -1.9375 3.5625 -1.9375 3.5625 -1.9375 C 3.5625 -1.9375 3.5625 0 3.5625 0 Z M 3.5625 0 "/>
</g>
<g id="glyph-3-0-1f311df0">
<path d="M 9.46875 -6.359375 C 9.46875 -2.015625 7.9375 0.28125 5.140625 0.28125 C 2.296875 0.28125 0.796875 -2.015625 0.796875 -6.484375 C 0.796875 -10.921875 2.28125 -13.234375 5.140625 -13.234375 C 8.015625 -13.234375 9.46875 -10.953125 9.46875 -6.359375 Z M 7.78125 -6.515625 C 7.78125 -10.0625 6.90625 -11.78125 5.140625 -11.78125 C 3.359375 -11.78125 2.484375 -10.078125 2.484375 -6.453125 C 2.484375 -2.84375 3.359375 -1.078125 5.09375 -1.078125 C 6.921875 -1.078125 7.78125 -2.765625 7.78125 -6.515625 Z M 7.78125 -6.515625 "/>
</g>
<g id="glyph-4-0-1f311df0">
<path d="M 9.46875 -6.359375 C 9.46875 -2.015625 7.9375 0.28125 5.140625 0.28125 C 2.296875 0.28125 0.796875 -2.015625 0.796875 -6.484375 C 0.796875 -10.921875 2.28125 -13.234375 5.140625 -13.234375 C 8.015625 -13.234375 9.46875 -10.953125 9.46875 -6.359375 Z M 7.78125 -6.515625 C 7.78125 -10.0625 6.90625 -11.78125 5.140625 -11.78125 C 3.359375 -11.78125 2.484375 -10.078125 2.484375 -6.453125 C 2.484375 -2.84375 3.359375 -1.078125 5.09375 -1.078125 C 6.921875 -1.078125 7.78125 -2.765625 7.78125 -6.515625 Z M 7.78125 -6.515625 "/>
</g>
<g id="glyph-5-0-1f311df0">
<path d="M 3.5625 0 C 3.5625 0 1.625 0 1.625 0 C 1.625 0 1.625 -1.9375 1.625 -1.9375 C 1.625 -1.9375 3.5625 -1.9375 3.5625 -1.9375 C 3.5625 -1.9375 3.5625 0 3.5625 0 Z M 3.5625 0 "/>
</g>
<g id="glyph-5-1-1f311df0">
<path d="M 9.578125 -4.390625 C 9.578125 -1.59375 7.71875 0.28125 5.046875 0.28125 C 2.6875 0.28125 1.1875 -0.765625 0.65625 -3.390625 C 0.65625 -3.390625 2.296875 -3.390625 2.296875 -3.390625 C 2.6875 -1.90625 3.5625 -1.171875 5 -1.171875 C 6.796875 -1.171875 7.890625 -2.265625 7.890625 -4.15625 C 7.890625 -6.125 6.78125 -7.265625 5 -7.265625 C 3.984375 -7.265625 3.34375 -6.953125 2.578125 -6.03125 C 2.578125 -6.03125 1.0625 -6.03125 1.0625 -6.03125 C 1.0625 -6.03125 2.046875 -12.953125 2.046875 -12.953125 C 2.046875 -12.953125 8.890625 -12.953125 8.890625 -12.953125 C 8.890625 -12.953125 8.890625 -11.328125 8.890625 -11.328125 C 8.890625 -11.328125 3.375 -11.328125 3.375 -11.328125 C 3.375 -11.328125 2.859375 -7.921875 2.859375 -7.921875 C 3.625 -8.484375 4.375 -8.71875 5.296875 -8.71875 C 7.84375 -8.71875 9.578125 -7 9.578125 -4.390625 Z M 9.578125 -4.390625 "/>
</g>
<g id="glyph-5-2-1f311df0">
<path d="M 6.484375 0 C 6.484375 0 4.84375 0 4.84375 0 C 4.84375 0 4.84375 -9.421875 4.84375 -9.421875 C 4.84375 -9.421875 1.90625 -9.421875 1.90625 -9.421875 C 1.90625 -9.421875 1.90625 -10.609375 1.90625 -10.609375 C 4.4375 -10.921875 4.8125 -11.203125 5.390625 -13.234375 C 5.390625 -13.234375 6.484375 -13.234375 6.484375 -13.234375 C 6.484375 -13.234375 6.484375 0 6.484375 0 Z M 6.484375 0 "/>
</g>
<g id="glyph-6-0-1f311df0">
<path d="M 9.46875 -6.359375 C 9.46875 -2.015625 7.9375 0.28125 5.140625 0.28125 C 2.296875 0.28125 0.796875 -2.015625 0.796875 -6.484375 C 0.796875 -10.921875 2.28125 -13.234375 5.140625 -13.234375 C 8.015625 -13.234375 9.46875 -10.953125 9.46875 -6.359375 Z M 7.78125 -6.515625 C 7.78125 -10.0625 6.90625 -11.78125 5.140625 -11.78125 C 3.359375 -11.78125 2.484375 -10.078125 2.484375 -6.453125 C 2.484375 -2.84375 3.359375 -1.078125 5.09375 -1.078125 C 6.921875 -1.078125 7.78125 -2.765625 7.78125 -6.515625 Z M 7.78125 -6.515625 "/>
</g>
<g id="glyph-7-0-1f311df0">
<path d="M 9.640625 -4.03125 C 9.640625 -4.03125 1.265625 -4.03125 1.265625 -4.03125 C 1.265625 -4.03125 1.265625 -5.296875 1.265625 -5.296875 C 1.265625 -5.296875 9.640625 -5.296875 9.640625 -5.296875 C 9.640625 -5.296875 9.640625 -4.03125 9.640625 -4.03125 Z M 9.640625 -4.03125 "/>
</g>
<g id="glyph-8-0-1f311df0">
<path d="M 9.578125 -4.390625 C 9.578125 -1.59375 7.71875 0.28125 5.046875 0.28125 C 2.6875 0.28125 1.1875 -0.765625 0.65625 -3.390625 C 0.65625 -3.390625 2.296875 -3.390625 2.296875 -3.390625 C 2.6875 -1.90625 3.5625 -1.171875 5 -1.171875 C 6.796875 -1.171875 7.890625 -2.265625 7.890625 -4.15625 C 7.890625 -6.125 6.78125 -7.265625 5 -7.265625 C 3.984375 -7.265625 3.34375 -6.953125 2.578125 -6.03125 C 2.578125 -6.03125 1.0625 -6.03125 1.0625 -6.03125 C 1.0625 -6.03125 2.046875 -12.953125 2.046875 -12.953125 C 2.046875 -12.953125 8.890625 -12.953125 8.890625 -12.953125 C 8.890625 -12.953125 8.890625 -11.328125 8.890625 -11.328125 C 8.890625 -11.328125 3.375 -11.328125 3.375 -11.328125 C 3.375 -11.328125 2.859375 -7.921875 2.859375 -7.921875 C 3.625 -8.484375 4.375 -8.71875 5.296875 -8.71875 C 7.84375 -8.71875 9.578125 -7 9.578125 -4.390625 Z M 9.578125 -4.390625 "/>
</g>
<g id="glyph-9-0-1f311df0">
<path d="M 9.46875 -6.359375 C 9.46875 -2.015625 7.9375 0.28125 5.140625 0.28125 C 2.296875 0.28125 0.796875 -2.015625 0.796875 -6.484375 C 0.796875 -10.921875 2.28125 -13.234375 5.140625 -13.234375 C 8.015625 -13.234375 9.46875 -10.953125 9.46875 -6.359375 Z M 7.78125 -6.515625 C 7.78125 -10.0625 6.90625 -11.78125 5.140625 -11.78125 C 3.359375 -11.78125 2.484375 -10.078125 2.484375 -6.453125 C 2.484375 -2.84375 3.359375 -1.078125 5.09375 -1.078125 C 6.921875 -1.078125 7.78125 -2.765625 7.78125 -6.515625 Z M 7.78125 -6.515625 "/>
</g>
<g id="glyph-10-0-1f311df0">
<path d="M 9.578125 -4.390625 C 9.578125 -1.59375 7.71875 0.28125 5.046875 0.28125 C 2.6875 0.28125 1.1875 -0.765625 0.65625 -3.390625 C 0.65625 -3.390625 2.296875 -3.390625 2.296875 -3.390625 C 2.6875 -1.90625 3.5625 -1.171875 5 -1.171875 C 6.796875 -1.171875 7.890625 -2.265625 7.890625 -4.15625 C 7.890625 -6.125 6.78125 -7.265625 5 -7.265625 C 3.984375 -7.265625 3.34375 -6.953125 2.578125 -6.03125 C 2.578125 -6.03125 1.0625 -6.03125 1.0625 -6.03125 C 1.0625 -6.03125 2.046875 -12.953125 2.046875 -12.953125 C 2.046875 -12.953125 8.890625 -12.953125 8.890625 -12.953125 C 8.890625 -12.953125 8.890625 -11.328125 8.890625 -11.328125 C 8.890625 -11.328125 3.375 -11.328125 3.375 -11.328125 C 3.375 -11.328125 2.859375 -7.921875 2.859375 -7.921875 C 3.625 -8.484375 4.375 -8.71875 5.296875 -8.71875 C 7.84375 -8.71875 9.578125 -7 9.578125 -4.390625 Z M 9.578125 -4.390625 "/>
</g>
<g id="glyph-11-0-1f311df0">
<path d="M 11.609375 -12.53125 C 11.609375 -12.703125 11.5 -12.75 11.359375 -12.75 C 10.734375 -12.75 10.0625 -12.703125 9.421875 -12.703125 C 8.59375 -12.703125 7.71875 -12.75 6.890625 -12.75 C 6.71875 -12.75 6.5 -12.75 6.5 -12.390625 C 6.5 -12.171875 6.671875 -12.171875 6.96875 -12.171875 L 7.1875 -12.171875 C 7.5 -12.171875 7.71875 -12.171875 8.046875 -12.140625 C 8.453125 -12.078125 8.609375 -12.0625 8.609375 -11.78125 C 8.609375 -11.703125 8.609375 -11.671875 8.53125 -11.40625 L 6.359375 -2.703125 C 6.015625 -1.3125 4.953125 0 3.921875 0 C 3.15625 0 2.5 -0.46875 2.359375 -1.234375 C 2.390625 -1.21875 2.421875 -1.21875 2.5625 -1.21875 C 3.265625 -1.21875 3.671875 -1.84375 3.671875 -2.3125 C 3.671875 -2.796875 3.3125 -3.046875 2.90625 -3.046875 C 2.859375 -3.046875 1.75 -3.046875 1.75 -1.609375 C 1.75 -0.34375 2.765625 0.40625 3.953125 0.40625 C 5.71875 0.40625 7.4375 -0.984375 7.84375 -2.6875 L 10.03125 -11.5 C 10.15625 -12.03125 10.28125 -12.171875 11.125 -12.171875 C 11.40625 -12.171875 11.609375 -12.171875 11.609375 -12.53125 Z M 11.609375 -12.53125 "/>
</g>
<g id="glyph-12-0-1f311df0">
<path d="M 5.46875 -1.609375 C 5.46875 -1.71875 5.375 -1.71875 5.296875 -1.71875 C 5.171875 -1.71875 5.15625 -1.703125 5.09375 -1.53125 C 4.796875 -0.5625 4.234375 -0.125 3.765625 -0.125 C 3.546875 -0.125 3.234375 -0.25 3.234375 -0.84375 C 3.234375 -1.109375 3.359375 -1.59375 3.453125 -1.96875 L 3.828125 -3.5 C 3.984375 -4.09375 4.296875 -4.703125 4.8125 -4.703125 C 4.84375 -4.703125 5.125 -4.703125 5.3125 -4.546875 C 4.859375 -4.4375 4.859375 -4.015625 4.859375 -4.015625 C 4.859375 -3.859375 4.96875 -3.65625 5.25 -3.65625 C 5.453125 -3.65625 5.796875 -3.8125 5.796875 -4.25 C 5.796875 -4.8125 5.15625 -4.953125 4.828125 -4.953125 C 4.21875 -4.953125 3.84375 -4.40625 3.734375 -4.1875 C 3.484375 -4.859375 2.9375 -4.953125 2.65625 -4.953125 C 1.53125 -4.953125 0.9375 -3.484375 0.9375 -3.21875 C 0.9375 -3.109375 1.046875 -3.109375 1.09375 -3.109375 C 1.25 -3.109375 1.25 -3.125 1.296875 -3.3125 C 1.609375 -4.265625 2.1875 -4.703125 2.625 -4.703125 C 2.953125 -4.703125 3.171875 -4.453125 3.171875 -4 C 3.171875 -3.734375 3.03125 -3.1875 2.9375 -2.765625 L 2.671875 -1.75 C 2.5 -1.015625 2.265625 -0.125 1.59375 -0.125 C 1.5625 -0.125 1.28125 -0.125 1.09375 -0.28125 C 1.4375 -0.375 1.53125 -0.65625 1.53125 -0.8125 C 1.53125 -1.109375 1.296875 -1.171875 1.15625 -1.171875 C 0.875 -1.171875 0.59375 -0.9375 0.59375 -0.578125 C 0.59375 -0.140625 1.0625 0.125 1.578125 0.125 C 2.125 0.125 2.484375 -0.296875 2.671875 -0.640625 C 2.90625 0 3.453125 0.125 3.734375 0.125 C 4.890625 0.125 5.46875 -1.375 5.46875 -1.609375 Z M 5.46875 -1.609375 "/>
</g>
<g id="glyph-13-0-1f311df0">
<path d="M 6.28125 4.296875 C 6.28125 4.234375 6.28125 4.203125 6.25 4.15625 L 2.8125 -4.671875 L 6.25 -13.5 C 6.28125 -13.53125 6.28125 -13.578125 6.28125 -13.625 C 6.28125 -13.84375 6.109375 -14 5.90625 -14 C 5.75 -14 5.609375 -13.90625 5.546875 -13.765625 L 2.078125 -4.796875 C 2.046875 -4.765625 2.046875 -4.71875 2.046875 -4.671875 C 2.046875 -4.609375 2.046875 -4.578125 2.078125 -4.53125 L 5.546875 4.421875 C 5.609375 4.578125 5.75 4.671875 5.90625 4.671875 C 6.109375 4.671875 6.28125 4.5 6.28125 4.296875 Z M 6.28125 4.296875 "/>
</g>
<g id="glyph-14-0-1f311df0">
<path d="M 9.109375 -2.671875 C 9.109375 -2.859375 8.96875 -2.859375 8.828125 -2.859375 C 8.609375 -2.859375 8.59375 -2.84375 8.5 -2.546875 C 7.984375 -0.9375 7.0625 -0.203125 6.28125 -0.203125 C 5.90625 -0.203125 5.390625 -0.421875 5.390625 -1.40625 C 5.390625 -1.84375 5.609375 -2.65625 5.75 -3.28125 L 6.390625 -5.84375 C 6.640625 -6.8125 7.15625 -7.84375 8.03125 -7.84375 C 8.078125 -7.84375 8.546875 -7.84375 8.84375 -7.578125 C 8.109375 -7.390625 8.109375 -6.6875 8.109375 -6.6875 C 8.109375 -6.4375 8.265625 -6.09375 8.75 -6.09375 C 9.09375 -6.09375 9.671875 -6.34375 9.671875 -7.078125 C 9.671875 -8.03125 8.59375 -8.25 8.046875 -8.25 C 7.015625 -8.25 6.40625 -7.34375 6.21875 -6.984375 C 5.8125 -8.109375 4.890625 -8.25 4.421875 -8.25 C 2.5625 -8.25 1.546875 -5.8125 1.546875 -5.375 C 1.546875 -5.1875 1.734375 -5.1875 1.828125 -5.1875 C 2.078125 -5.1875 2.078125 -5.203125 2.171875 -5.515625 C 2.671875 -7.109375 3.640625 -7.84375 4.390625 -7.84375 C 4.921875 -7.84375 5.28125 -7.40625 5.28125 -6.671875 C 5.28125 -6.21875 5.0625 -5.296875 4.890625 -4.609375 L 4.46875 -2.90625 C 4.15625 -1.703125 3.765625 -0.203125 2.65625 -0.203125 C 2.59375 -0.203125 2.140625 -0.203125 1.828125 -0.46875 C 2.390625 -0.609375 2.5625 -1.078125 2.5625 -1.359375 C 2.5625 -1.84375 2.171875 -1.953125 1.921875 -1.953125 C 1.453125 -1.953125 0.984375 -1.5625 0.984375 -0.953125 C 0.984375 -0.21875 1.78125 0.203125 2.625 0.203125 C 3.53125 0.203125 4.140625 -0.5 4.46875 -1.0625 C 4.84375 0 5.75 0.203125 6.234375 0.203125 C 8.15625 0.203125 9.109375 -2.296875 9.109375 -2.671875 Z M 9.109375 -2.671875 "/>
</g>
<g id="glyph-15-0-1f311df0">
<path d="M 5.1875 -4.796875 L 1.71875 -13.765625 C 1.65625 -13.90625 1.515625 -14 1.359375 -14 C 1.15625 -14 0.984375 -13.84375 0.984375 -13.625 C 0.984375 -13.578125 0.984375 -13.53125 1.015625 -13.5 L 4.4375 -4.671875 L 1.015625 4.15625 C 0.984375 4.203125 0.984375 4.234375 0.984375 4.296875 C 0.984375 4.5 1.15625 4.671875 1.359375 4.671875 C 1.515625 4.671875 1.65625 4.578125 1.71875 4.421875 L 5.1875 -4.53125 C 5.203125 -4.578125 5.203125 -4.609375 5.203125 -4.671875 C 5.203125 -4.71875 5.203125 -4.765625 5.1875 -4.796875 Z M 5.1875 -4.796875 "/>
</g>
</g>
</defs>
<path fill-rule="nonzero" fill="rgb(100%, 100%, 100%)" fill-opacity="1" d="M 0 0 L 666.667969 0 L 666.667969 466.667969 L 0 466.667969 Z M 0 0 "/>
<path fill-rule="nonzero" fill="rgb(100%, 100%, 100%)" fill-opacity="1" d="M 54.667969 388 L 645.335938 388 L 645.335938 21.332031 L 54.667969 21.332031 Z M 54.667969 388 "/>
<path fill="none" stroke-width="1" stroke-linecap="butt" stroke-linejoin="miter" stroke="rgb(0%, 0%, 0%)" stroke-opacity="0.12" stroke-miterlimit="1.154701" d="M 61.136719 291 L 61.136719 15.999023 " transform="matrix(1.333333, 0, 0, 1.333333, 0, 0)"/>
<path fill="none" stroke-width="1" stroke-linecap="butt" stroke-linejoin="miter" stroke="rgb(0%, 0%, 0%)" stroke-opacity="0.12" stroke-miterlimit="1.154701" d="M 262.5 291 L 262.5 15.999023 " transform="matrix(1.333333, 0, 0, 1.333333, 0, 0)"/>
<path fill="none" stroke-width="1" stroke-linecap="butt" stroke-linejoin="miter" stroke="rgb(0%, 0%, 0%)" stroke-opacity="0.12" stroke-miterlimit="1.154701" d="M 463.863281 291 L 463.863281 15.999023 " transform="matrix(1.333333, 0, 0, 1.333333, 0, 0)"/>
<path fill="none" stroke-width="1" stroke-linecap="butt" stroke-linejoin="miter" stroke="rgb(0%, 0%, 0%)" stroke-opacity="0.12" stroke-miterlimit="1.154701" d="M 41.000977 225.079102 L 483.999023 225.079102 " transform="matrix(1.333333, 0, 0, 1.333333, 0, 0)"/>
<path fill="none" stroke-width="1" stroke-linecap="butt" stroke-linejoin="miter" stroke="rgb(0%, 0%, 0%)" stroke-opacity="0.12" stroke-miterlimit="1.154701" d="M 41.000977 149.293945 L 483.999023 149.293945 " transform="matrix(1.333333, 0, 0, 1.333333, 0, 0)"/>
<path fill="none" stroke-width="1" stroke-linecap="butt" stroke-linejoin="miter" stroke="rgb(0%, 0%, 0%)" stroke-opacity="0.12" stroke-miterlimit="1.154701" d="M 41.000977 73.505859 L 483.999023 73.505859 " transform="matrix(1.333333, 0, 0, 1.333333, 0, 0)"/>
<g fill="rgb(0%, 0%, 0%)" fill-opacity="1">
<use xlink:href="#glyph-0-0-1f311df0" x="329.261333" y="442.090666"/>
</g>
<g fill="rgb(0%, 0%, 0%)" fill-opacity="1">
<use xlink:href="#glyph-0-1-1f311df0" x="340.666667" y="442.090666"/>
</g>
<g fill="rgb(0%, 0%, 0%)" fill-opacity="1">
<use xlink:href="#glyph-0-2-1f311df0" x="344.810666" y="442.090666"/>
</g>
<g fill="rgb(0%, 0%, 0%)" fill-opacity="1">
<use xlink:href="#glyph-0-3-1f311df0" x="360.359999" y="442.090666"/>
</g>
<g fill="rgb(0%, 0%, 0%)" fill-opacity="1">
<use xlink:href="#glyph-1-0-1f311df0" x="68.541819" y="416.344"/>
</g>
<g fill="rgb(0%, 0%, 0%)" fill-opacity="1">
<use xlink:href="#glyph-2-0-1f311df0" x="78.920486" y="416.344"/>
</g>
<g fill="rgb(0%, 0%, 0%)" fill-opacity="1">
<use xlink:href="#glyph-3-0-1f311df0" x="84.109819" y="416.344"/>
</g>
<g fill="rgb(0%, 0%, 0%)" fill-opacity="1">
<use xlink:href="#glyph-4-0-1f311df0" x="337.026667" y="416.344"/>
</g>
<g fill="rgb(0%, 0%, 0%)" fill-opacity="1">
<use xlink:href="#glyph-5-0-1f311df0" x="347.405334" y="416.344"/>
</g>
<g fill="rgb(0%, 0%, 0%)" fill-opacity="1">
<use xlink:href="#glyph-5-1-1f311df0" x="352.594667" y="416.344"/>
</g>
<g fill="rgb(0%, 0%, 0%)" fill-opacity="1">
<use xlink:href="#glyph-5-2-1f311df0" x="605.511531" y="416.344"/>
</g>
<g fill="rgb(0%, 0%, 0%)" fill-opacity="1">
<use xlink:href="#glyph-5-0-1f311df0" x="615.890197" y="416.344"/>
</g>
<g fill="rgb(0%, 0%, 0%)" fill-opacity="1">
<use xlink:href="#glyph-6-0-1f311df0" x="621.07953" y="416.344"/>
</g>
<g fill="rgb(0%, 0%, 0%)" fill-opacity="1">
<use xlink:href="#glyph-7-0-1f311df0" x="20.053335" y="306.910852"/>
</g>
<g fill="rgb(0%, 0%, 0%)" fill-opacity="1">
<use xlink:href="#glyph-8-0-1f311df0" x="30.954667" y="306.910852"/>
</g>
<g fill="rgb(0%, 0%, 0%)" fill-opacity="1">
<use xlink:href="#glyph-9-0-1f311df0" x="30.954667" y="205.862065"/>
</g>
<g fill="rgb(0%, 0%, 0%)" fill-opacity="1">
<use xlink:href="#glyph-10-0-1f311df0" x="30.954667" y="104.813278"/>
</g>
<path fill="none" stroke-width="1.5" stroke-linecap="butt" stroke-linejoin="miter" stroke="rgb(100%, 0%, 0%)" stroke-opacity="1" stroke-miterlimit="2" d="M 61.136719 108.908203 L 62.144531 28.5 L 63.149414 30.708984 L 64.157227 31.508789 L 65.165039 37.549805 L 66.169922 34.183594 L 67.177734 76.584961 L 68.182617 66.773438 L 69.19043 79.813477 L 70.198242 64.740234 L 71.203125 91.957031 L 72.210938 84.131836 L 73.21875 59.765625 L 74.223633 99.539062 L 75.231445 122.800781 L 76.239258 124.010742 L 77.244141 127.236328 L 78.251953 109.505859 L 79.259766 126.744141 L 80.264648 161.821289 L 81.272461 188.481445 L 82.280273 177.720703 L 83.285156 175.001953 L 84.292969 175.207031 L 85.300781 186.269531 L 86.305664 168.94043 L 87.313477 208.643555 L 88.321289 237.37793 L 89.326172 221.147461 L 90.333984 227.666016 L 91.341797 227.859375 L 92.34668 218.112305 L 93.354492 260.132812 L 94.362305 233.701172 L 95.367188 260.589844 L 96.375 254.018555 L 97.382812 240.911133 L 98.387695 253.59375 L 99.395508 252.720703 L 100.40332 244.230469 L 101.408203 228.829102 L 102.416016 257.935547 L 103.423828 278.499023 L 104.428711 241.130859 L 105.436523 254.452148 L 106.444336 260.226562 L 107.449219 243.981445 L 108.457031 239.595703 L 109.464844 225.445312 L 110.469727 197.106445 L 111.477539 221.176758 L 112.485352 216.342773 L 113.490234 191.270508 L 114.498047 188.428711 L 115.505859 185.982422 L 116.510742 192.375 L 117.518555 151.286133 L 118.526367 140.657227 L 119.53125 146.384766 L 120.539062 155.34375 L 121.546875 129.518555 L 122.551758 126.65918 L 123.55957 130.675781 L 124.564453 129.246094 L 125.572266 115.801758 L 126.580078 84.621094 L 127.584961 72.647461 L 128.592773 105.498047 L 129.600586 75.852539 L 130.605469 79.189453 L 131.613281 103.183594 L 132.621094 73.040039 L 133.625977 69.84082 L 134.633789 51.158203 L 135.641602 72.328125 L 136.646484 56.683594 L 137.654297 41.967773 L 138.662109 83.985352 L 139.666992 43.948242 L 140.674805 47.926758 L 141.682617 51.802734 L 142.6875 43.59082 L 143.695312 71.021484 L 144.703125 58.417969 L 145.708008 76.224609 L 146.71582 52.78125 L 147.723633 80.604492 L 148.728516 44.308594 L 149.736328 67.426758 L 150.744141 90.117188 L 151.749023 99.357422 L 152.756836 95.958984 L 153.764648 106.192383 L 154.769531 92.941406 L 155.777344 70.426758 L 156.785156 144.922852 L 157.790039 116.121094 L 158.797852 116.935547 L 159.805664 154.734375 L 160.810547 174.972656 L 161.818359 171.070312 L 162.826172 162.492188 L 163.831055 145.787109 L 164.838867 155.182617 L 165.84668 174.448242 L 166.851562 200.197266 L 167.859375 171.055664 L 168.867188 198.073242 L 169.87207 207.785156 L 170.879883 216.333984 L 171.887695 205.420898 L 172.892578 221.255859 L 173.900391 219.788086 L 174.908203 254.4375 L 175.913086 249.796875 L 176.920898 240.506836 L 177.925781 242.115234 L 178.933594 235.21875 L 179.941406 228.161133 L 180.946289 237.899414 L 181.954102 226.933594 L 182.961914 238.382812 L 183.966797 219.580078 L 184.974609 247.740234 L 185.982422 221.487305 L 186.987305 225.887695 L 187.995117 232.749023 L 189.00293 249.070312 L 190.007812 198.251953 L 191.015625 196.643555 L 192.023438 214.441406 L 193.02832 185.742188 L 194.036133 190.96875 L 195.043945 165.178711 L 196.048828 165.999023 L 197.056641 208.916016 L 198.064453 169.913086 L 199.069336 161.206055 L 200.077148 175.40918 L 201.084961 175.265625 L 202.089844 136.40332 L 203.097656 127.101562 L 204.105469 127.810547 L 205.110352 139.438477 L 206.118164 146.958984 L 207.125977 121.886719 L 208.130859 106.892578 L 209.138672 88.608398 L 210.146484 102.670898 L 211.151367 102.829102 L 212.15918 99.00293 L 213.166992 102.878906 L 214.171875 84.099609 L 215.179688 91.289062 L 216.1875 79.675781 L 217.192383 69.131836 L 218.200195 59.71875 L 219.208008 73.936523 L 220.212891 70.224609 L 221.220703 71.806641 L 222.228516 53.006836 L 223.233398 58.538086 L 224.241211 63.246094 L 225.249023 80.833008 L 226.253906 52.962891 L 227.261719 75.770508 L 228.269531 82.12793 L 229.274414 73.423828 L 230.282227 46.297852 L 231.290039 102.038086 L 232.294922 104.504883 L 233.302734 106.555664 L 234.307617 127.230469 L 235.31543 104.047852 L 236.323242 121.397461 L 237.328125 160.652344 L 238.335938 124.245117 L 239.34375 144.304688 L 240.348633 149.030273 L 241.356445 157.476562 L 242.364258 153.770508 L 243.369141 159.981445 L 244.376953 164.197266 L 245.384766 174.577148 L 246.389648 155.994141 L 247.397461 167.578125 L 248.405273 195.708984 L 249.410156 192.855469 L 250.417969 215.326172 L 251.425781 208.833984 L 252.430664 201.37793 L 253.438477 216.316406 L 254.446289 226.825195 L 255.451172 233.71875 L 256.458984 242.387695 L 257.466797 229.734375 L 258.47168 196.177734 L 259.479492 219.333984 L 260.487305 221.900391 L 261.492188 218.748047 L 262.5 235.628906 L 263.507812 221.742188 L 264.512695 215.750977 L 265.520508 226.045898 L 266.52832 209.651367 L 267.533203 204.46582 L 268.541016 226.110352 L 269.548828 209.188477 L 270.553711 204.290039 L 271.561523 171.269531 L 272.569336 194.299805 L 273.574219 194.311523 L 274.582031 185.083008 L 275.589844 184.110352 L 276.594727 163.104492 L 277.602539 161.783203 L 278.610352 167.642578 L 279.615234 165.292969 L 280.623047 144.005859 L 281.630859 140.024414 L 282.635742 141.172852 L 283.643555 108.149414 L 284.651367 121.212891 L 285.65625 125.220703 L 286.664062 100.03125 L 287.671875 111.249023 L 288.676758 79.831055 L 289.68457 106.866211 L 290.689453 122.4375 L 291.697266 113.282227 L 292.705078 104.041992 L 293.709961 92.53418 L 294.717773 85.702148 L 295.725586 86.068359 L 296.730469 79.051758 L 297.738281 80.276367 L 298.746094 105.251953 L 299.750977 109.110352 L 300.758789 65.232422 L 301.766602 72.887695 L 302.771484 53.756836 L 303.779297 78.703125 L 304.787109 85.775391 L 305.791992 58.306641 L 306.799805 110.871094 L 307.807617 65.686523 L 308.8125 121.142578 L 309.820312 101.80957 L 310.828125 103.951172 L 311.833008 103.857422 L 312.84082 97.983398 L 313.848633 88.148438 L 314.853516 129.046875 L 315.861328 143.191406 L 316.869141 125.176758 L 317.874023 123.544922 L 318.881836 162.708984 L 319.889648 144.875977 L 320.894531 133.617188 L 321.902344 164.027344 L 322.910156 163.792969 L 323.915039 174.779297 L 324.922852 163.819336 L 325.930664 181.842773 L 326.935547 196.945312 L 327.943359 151.819336 L 328.951172 168.146484 L 329.956055 213.46875 L 330.963867 206.733398 L 331.97168 175.907227 L 332.976562 225.75293 L 333.984375 211.901367 L 334.992188 205.505859 L 335.99707 226.59082 L 337.004883 195.181641 L 338.012695 216.635742 L 339.017578 213.782227 L 340.025391 189.354492 L 341.033203 195.597656 L 342.038086 212.487305 L 343.045898 200.90332 L 344.050781 216.328125 L 345.058594 229.918945 L 346.066406 231.603516 L 347.071289 211.655273 L 348.079102 191.373047 L 349.086914 179.200195 L 350.091797 188.874023 L 351.099609 226.467773 L 352.107422 182.654297 L 353.112305 180.375 L 354.120117 219.105469 L 355.12793 172.353516 L 356.132812 193.681641 L 357.140625 178.675781 L 358.148438 181.910156 L 359.15332 152.516602 L 360.161133 140.15625 L 361.168945 166.942383 L 362.173828 137.170898 L 363.181641 158.994141 L 364.189453 126.506836 L 365.194336 122.302734 L 366.202148 131.44043 L 367.209961 140.917969 L 368.214844 129.524414 L 369.222656 121.983398 L 370.230469 116.657227 L 371.235352 108.319336 L 372.243164 89.226562 L 373.250977 90.864258 L 374.255859 101.337891 L 375.263672 115.400391 L 376.271484 120.638672 L 377.276367 87.307617 L 378.28418 119.314453 L 379.291992 89.173828 L 380.296875 98.794922 L 381.304688 101.630859 L 382.3125 97.790039 L 383.317383 91.338867 L 384.325195 105.925781 L 385.333008 86.727539 L 386.337891 92.118164 L 387.345703 101.988281 L 388.353516 113.399414 L 389.358398 97.075195 L 390.366211 135.357422 L 391.374023 113.727539 L 392.378906 120.539062 L 393.386719 124.68457 L 394.394531 73.543945 L 395.399414 130.066406 L 396.407227 140.200195 L 397.415039 131.53418 L 398.419922 119.282227 L 399.427734 137.545898 L 400.432617 160.945312 L 401.44043 147.714844 L 402.448242 139.119141 L 403.453125 165.635742 L 404.460938 166.441406 L 405.46875 155.235352 L 406.473633 190.564453 L 407.481445 175.757812 L 408.489258 139.485352 L 409.494141 172.441406 L 410.501953 188.926758 L 411.509766 196.236328 L 412.514648 198.521484 L 413.522461 175.201172 L 414.530273 198.09668 L 415.535156 209.334961 L 416.542969 181.245117 L 417.550781 204.09375 L 418.555664 181.775391 L 419.563477 197.961914 L 420.571289 215.094727 L 421.576172 210.978516 L 422.583984 211.977539 L 423.591797 184.875 L 424.59668 192.257812 L 425.604492 158.232422 L 426.612305 160.746094 L 427.617188 189.911133 L 428.625 185.053711 L 429.632812 189.75 L 430.637695 172.113281 L 431.645508 175.40918 L 432.65332 181.579102 L 433.658203 160.728516 L 434.666016 154.939453 L 435.673828 184.898438 L 436.678711 151.819336 L 437.686523 130.016602 L 438.694336 164.05957 L 439.699219 150.858398 L 440.707031 176.724609 L 441.714844 142.291992 L 442.719727 159.181641 L 443.727539 154.561523 L 444.735352 137.349609 L 445.740234 136.186523 L 446.748047 135.029297 L 447.755859 134.859375 L 448.760742 140.329102 L 449.768555 129.75 L 450.776367 134.402344 L 451.78125 144.594727 L 452.789062 99.032227 L 453.796875 121.338867 L 454.801758 104.349609 L 455.80957 108.823242 L 456.814453 86.176758 L 457.822266 118.942383 L 458.830078 112.669922 L 459.834961 119.707031 L 460.842773 118.801758 L 461.850586 114.858398 L 462.855469 99.436523 " transform="matrix(1.333333, 0, 0, 1.333333, 0, 0)"/>
<path fill="none" stroke-width="1.5" stroke-linecap="butt" stroke-linejoin="miter" stroke="rgb(0%, 0%, 0%)" stroke-opacity="1" stroke-miterlimit="2" d="M 61.136719 88.664062 L 62.144531 89.000977 L 63.149414 89.709961 L 64.157227 90.779297 L 65.165039 92.206055 L 66.169922 93.972656 L 67.177734 96.073242 L 68.182617 98.501953 L 69.19043 101.226562 L 70.198242 104.235352 L 71.203125 107.499023 L 72.210938 111.014648 L 73.21875 114.741211 L 74.223633 118.640625 L 75.231445 122.730469 L 76.239258 126.972656 L 77.244141 131.326172 L 78.251953 135.764648 L 79.259766 140.238281 L 80.264648 144.758789 L 81.272461 149.305664 L 82.280273 153.84375 L 83.285156 158.320312 L 84.292969 162.700195 L 85.300781 166.96875 L 86.305664 171.111328 L 87.313477 175.069336 L 88.321289 178.883789 L 89.326172 182.522461 L 90.333984 185.915039 L 91.341797 189.058594 L 92.34668 191.938477 L 93.354492 194.525391 L 94.362305 196.860352 L 95.367188 198.855469 L 96.375 200.566406 L 97.382812 201.946289 L 98.387695 202.96582 L 99.395508 203.668945 L 100.40332 204.035156 L 101.408203 204.043945 L 102.416016 203.692383 L 103.423828 203.056641 L 104.428711 202.139648 L 105.436523 200.835938 L 106.444336 199.248047 L 107.449219 197.378906 L 108.457031 195.205078 L 109.464844 192.758789 L 110.469727 190.03418 L 111.477539 187.03125 L 112.485352 183.873047 L 113.490234 180.524414 L 114.498047 176.956055 L 115.505859 173.244141 L 116.510742 169.420898 L 117.518555 165.521484 L 118.526367 161.469727 L 119.53125 157.356445 L 120.539062 153.249023 L 121.546875 149.170898 L 122.551758 145.072266 L 123.55957 141.032227 L 124.564453 137.091797 L 125.572266 133.265625 L 126.580078 129.550781 L 127.584961 125.917969 L 128.592773 122.419922 L 129.600586 119.203125 L 130.605469 116.124023 L 131.613281 113.282227 L 132.621094 110.768555 L 133.625977 108.430664 L 134.633789 106.362305 L 135.641602 104.516602 L 136.646484 103.03125 L 137.654297 101.803711 L 138.662109 100.836914 L 139.666992 100.303711 L 140.674805 99.963867 L 141.682617 99.922852 L 142.6875 100.204102 L 143.695312 100.766602 L 144.703125 101.707031 L 145.708008 102.884766 L 146.71582 104.378906 L 147.723633 106.057617 L 148.728516 108.082031 L 149.736328 110.203125 L 150.744141 112.620117 L 151.749023 115.321289 L 152.756836 118.227539 L 153.764648 121.265625 L 154.769531 124.479492 L 155.777344 127.757812 L 156.785156 131.0625 L 157.790039 134.677734 L 158.797852 138.251953 L 159.805664 141.84082 L 160.810547 145.564453 L 161.818359 149.349609 L 162.826172 153.079102 L 163.831055 156.723633 L 164.838867 160.207031 L 165.84668 163.608398 L 166.851562 166.936523 L 167.859375 170.214844 L 168.867188 173.220703 L 169.87207 176.147461 L 170.879883 178.918945 L 171.887695 181.50293 L 172.892578 183.808594 L 173.900391 185.944336 L 174.908203 187.798828 L 175.913086 189.553711 L 176.920898 191.009766 L 177.925781 192.155273 L 178.933594 193.045898 L 179.941406 193.628906 L 180.946289 193.907227 L 181.954102 193.942383 L 182.961914 193.669922 L 183.966797 193.171875 L 184.974609 192.333984 L 185.982422 191.334961 L 186.987305 190.010742 L 187.995117 188.469727 L 189.00293 186.732422 L 190.007812 184.842773 L 191.015625 182.572266 L 192.023438 180.111328 L 193.02832 177.585938 L 194.036133 174.805664 L 195.043945 171.911133 L 196.048828 168.829102 L 197.056641 165.65332 L 198.064453 162.612305 L 199.069336 159.360352 L 200.077148 156.041016 L 201.084961 152.794922 L 202.089844 149.566406 L 203.097656 146.223633 L 204.105469 142.907227 L 205.110352 139.652344 L 206.118164 136.564453 L 207.125977 133.620117 L 208.130859 130.708008 L 209.138672 127.883789 L 210.146484 125.165039 L 211.151367 122.663086 L 212.15918 120.369141 L 213.166992 118.259766 L 214.171875 116.393555 L 215.179688 114.676758 L 216.1875 113.214844 L 217.192383 111.960938 L 218.200195 110.923828 L 219.208008 110.071289 L 220.212891 109.538086 L 221.220703 109.21875 L 222.228516 109.160156 L 223.233398 109.262695 L 224.241211 109.634766 L 225.249023 110.270508 L 226.253906 111.225586 L 227.261719 112.283203 L 228.269531 113.648438 L 229.274414 115.233398 L 230.282227 116.950195 L 231.290039 118.731445 L 232.294922 120.890625 L 233.302734 123.237305 L 234.307617 125.712891 L 235.31543 128.414062 L 236.323242 131.097656 L 237.328125 133.916016 L 238.335938 136.96875 L 239.34375 139.910156 L 240.348633 142.933594 L 241.356445 145.96875 L 242.364258 149.030273 L 243.369141 152.053711 L 244.376953 155.036133 L 245.384766 157.945312 L 246.389648 160.819336 L 247.397461 163.491211 L 248.405273 166.095703 L 249.410156 168.667969 L 250.417969 171.087891 L 251.425781 173.458008 L 252.430664 175.614258 L 253.438477 177.524414 L 254.446289 179.320312 L 255.451172 180.955078 L 256.458984 182.399414 L 257.466797 183.638672 L 258.47168 184.602539 L 259.479492 185.203125 L 260.487305 185.663086 L 261.492188 185.923828 L 262.5 185.941406 L 263.507812 185.800781 L 264.512695 185.381836 L 265.520508 184.737305 L 266.52832 183.949219 L 267.533203 182.859375 L 268.541016 181.576172 L 269.548828 180.1875 L 270.553711 178.555664 L 271.561523 176.742188 L 272.569336 174.641602 L 273.574219 172.511719 L 274.582031 170.299805 L 275.589844 167.90918 L 276.594727 165.433594 L 277.602539 162.834961 L 278.610352 160.195312 L 279.615234 157.538086 L 280.623047 154.828125 L 281.630859 152.047852 L 282.635742 149.270508 L 283.643555 146.53125 L 284.651367 143.712891 L 285.65625 141.026367 L 286.664062 138.416016 L 287.671875 135.820312 L 288.676758 133.388672 L 289.68457 130.945312 L 290.689453 128.759766 L 291.697266 126.826172 L 292.705078 124.974609 L 293.709961 123.292969 L 294.717773 121.740234 L 295.725586 120.333984 L 296.730469 119.103516 L 297.738281 118.063477 L 298.746094 117.222656 L 299.750977 116.72168 L 300.758789 116.422852 L 301.766602 116.141602 L 302.771484 116.112305 L 303.779297 116.176758 L 304.787109 116.566406 L 305.791992 117.169922 L 306.799805 117.84375 L 307.807617 118.951172 L 308.8125 120.026367 L 309.820312 121.50293 L 310.828125 123.038086 L 311.833008 124.725586 L 312.84082 126.512695 L 313.848633 128.402344 L 314.853516 130.374023 L 315.861328 132.615234 L 316.869141 134.973633 L 317.874023 137.291016 L 318.881836 139.669922 L 319.889648 142.265625 L 320.894531 144.764648 L 321.902344 147.216797 L 322.910156 149.789062 L 323.915039 152.320312 L 324.922852 154.825195 L 325.930664 157.227539 L 326.935547 159.626953 L 327.943359 161.976562 L 328.951172 164.024414 L 329.956055 166.054688 L 330.963867 168.123047 L 331.97168 170.039062 L 332.976562 171.626953 L 333.984375 173.299805 L 334.992188 174.764648 L 335.99707 176.039062 L 337.004883 177.225586 L 338.012695 178.037109 L 339.017578 178.772461 L 340.025391 179.288086 L 341.033203 179.516602 L 342.038086 179.592773 L 343.045898 179.545898 L 344.050781 179.276367 L 345.058594 178.901367 L 346.066406 178.429688 L 347.071289 177.796875 L 348.079102 176.897461 L 349.086914 175.716797 L 350.091797 174.333984 L 351.099609 172.863281 L 352.107422 171.459961 L 353.112305 169.751953 L 354.120117 167.929688 L 355.12793 166.227539 L 356.132812 164.206055 L 357.140625 162.216797 L 358.148438 160.119141 L 359.15332 157.998047 L 360.161133 155.71582 L 361.168945 153.37793 L 362.173828 151.136719 L 363.181641 148.775391 L 364.189453 146.551758 L 365.194336 144.237305 L 366.202148 141.969727 L 367.209961 139.833984 L 368.214844 137.838867 L 369.222656 135.855469 L 370.230469 133.986328 L 371.235352 132.208008 L 372.243164 130.529297 L 373.250977 128.844727 L 374.255859 127.335938 L 375.263672 126.035156 L 376.271484 124.995117 L 377.276367 124.107422 L 378.28418 123.249023 L 379.291992 122.695312 L 380.296875 122.167969 L 381.304688 121.907227 L 382.3125 121.77832 L 383.317383 121.810547 L 384.325195 121.974609 L 385.333008 122.384766 L 386.337891 122.868164 L 387.345703 123.506836 L 388.353516 124.371094 L 389.358398 125.411133 L 390.366211 126.533203 L 391.374023 127.930664 L 392.378906 129.310547 L 393.386719 130.842773 L 394.394531 132.483398 L 395.399414 133.980469 L 396.407227 135.826172 L 397.415039 137.742188 L 398.419922 139.681641 L 399.427734 141.609375 L 400.432617 143.607422 L 401.44043 145.737305 L 402.448242 147.808594 L 403.453125 149.821289 L 404.460938 151.892578 L 405.46875 153.93457 L 406.473633 155.862305 L 407.481445 157.924805 L 408.489258 159.820312 L 409.494141 161.443359 L 410.501953 163.133789 L 411.509766 164.771484 L 412.514648 166.321289 L 413.522461 167.774414 L 414.530273 168.987305 L 415.535156 170.197266 L 416.542969 171.301758 L 417.550781 172.116211 L 418.555664 172.895508 L 419.563477 173.387695 L 420.571289 173.827148 L 421.576172 174.140625 L 422.583984 174.307617 L 423.591797 174.328125 L 424.59668 174.070312 L 425.604492 173.645508 L 426.612305 172.989258 L 427.617188 172.21582 L 428.625 171.416016 L 429.632812 170.469727 L 430.637695 169.479492 L 431.645508 168.257812 L 432.65332 166.986328 L 433.658203 165.618164 L 434.666016 164.083008 L 435.673828 162.442383 L 436.678711 160.904297 L 437.686523 159.128906 L 438.694336 157.253906 L 439.699219 155.475586 L 440.707031 153.665039 L 441.714844 151.948242 L 442.719727 150.087891 L 443.727539 148.303711 L 444.735352 146.542969 L 445.740234 144.74707 L 446.748047 143.006836 L 447.755859 141.328125 L 448.760742 139.6875 L 449.768555 138.161133 L 450.776367 136.6875 L 451.78125 135.336914 L 452.789062 134.15625 L 453.796875 132.84668 L 454.801758 131.768555 L 455.80957 130.731445 L 456.814453 129.84668 L 457.822266 128.985352 L 458.830078 128.44043 L 459.834961 128.006836 L 460.842773 127.702148 L 461.850586 127.523438 L 462.855469 127.508789 L 463.863281 127.538086 " transform="matrix(1.333333, 0, 0, 1.333333, 0, 0)"/>
<path fill-rule="nonzero" fill="rgb(100%, 100%, 100%)" fill-opacity="1" stroke-width="1" stroke-linecap="butt" stroke-linejoin="miter" stroke="rgb(0%, 0%, 0%)" stroke-opacity="1" stroke-miterlimit="2" d="M 423.999023 77.000977 L 477.999023 77.000977 L 477.999023 22.001953 L 423.999023 22.001953 Z M 423.999023 77.000977 " transform="matrix(1.333333, 0, 0, 1.333333, 0, 0)"/>
<path fill="none" stroke-width="1" stroke-linecap="butt" stroke-linejoin="miter" stroke="rgb(0%, 0%, 0%)" stroke-opacity="1" stroke-miterlimit="1.154701" d="M 61.136719 291.500977 L 61.136719 296.499023 " transform="matrix(1.333333, 0, 0, 1.333333, 0, 0)"/>
<path fill="none" stroke-width="1" stroke-linecap="butt" stroke-linejoin="miter" stroke="rgb(0%, 0%, 0%)" stroke-opacity="1" stroke-miterlimit="1.154701" d="M 262.5 291.500977 L 262.5 296.499023 " transform="matrix(1.333333, 0, 0, 1.333333, 0, 0)"/>
<path fill="none" stroke-width="1" stroke-linecap="butt" stroke-linejoin="miter" stroke="rgb(0%, 0%, 0%)" stroke-opacity="1" stroke-miterlimit="1.154701" d="M 463.863281 291.500977 L 463.863281 296.499023 " transform="matrix(1.333333, 0, 0, 1.333333, 0, 0)"/>
<path fill="none" stroke-width="1" stroke-linecap="butt" stroke-linejoin="miter" stroke="rgb(0%, 0%, 0%)" stroke-opacity="1" stroke-miterlimit="1.154701" d="M 40.5 225.079102 L 35.499023 225.079102 " transform="matrix(1.333333, 0, 0, 1.333333, 0, 0)"/>
<path fill="none" stroke-width="1" stroke-linecap="butt" stroke-linejoin="miter" stroke="rgb(0%, 0%, 0%)" stroke-opacity="1" stroke-miterlimit="1.154701" d="M 40.5 149.293945 L 35.499023 149.293945 " transform="matrix(1.333333, 0, 0, 1.333333, 0, 0)"/>
<path fill="none" stroke-width="1" stroke-linecap="butt" stroke-linejoin="miter" stroke="rgb(0%, 0%, 0%)" stroke-opacity="1" stroke-miterlimit="1.154701" d="M 40.5 73.505859 L 35.499023 73.505859 " transform="matrix(1.333333, 0, 0, 1.333333, 0, 0)"/>
<path fill="none" stroke-width="1.5" stroke-linecap="butt" stroke-linejoin="miter" stroke="rgb(100%, 0%, 0%)" stroke-opacity="1" stroke-miterlimit="2" d="M 429.805664 38.000977 L 449.806641 38.000977 " transform="matrix(1.333333, 0, 0, 1.333333, 0, 0)"/>
<path fill="none" stroke-width="1.5" stroke-linecap="butt" stroke-linejoin="miter" stroke="rgb(0%, 0%, 0%)" stroke-opacity="1" stroke-miterlimit="2" d="M 429.805664 60.999023 L 449.806641 60.999023 " transform="matrix(1.333333, 0, 0, 1.333333, 0, 0)"/>
<g fill="rgb(0%, 0%, 0%)" fill-opacity="1">
<use xlink:href="#glyph-11-0-1f311df0" x="606.407982" y="55.236267"/>
</g>
<g fill="rgb(0%, 0%, 0%)" fill-opacity="1">
<use xlink:href="#glyph-12-0-1f311df0" x="616.603715" y="58.969601"/>
</g>
<g fill="rgb(0%, 0%, 0%)" fill-opacity="1">
<use xlink:href="#glyph-13-0-1f311df0" x="606.408" y="86.522667"/>
</g>
<g fill="rgb(0%, 0%, 0%)" fill-opacity="1">
<use xlink:href="#glyph-14-0-1f311df0" x="613.669333" y="86.522667"/>
</g>
<g fill="rgb(0%, 0%, 0%)" fill-opacity="1">
<use xlink:href="#glyph-15-0-1f311df0" x="622.330666" y="86.522667"/>
</g>
<path fill="none" stroke-width="1" stroke-linecap="butt" stroke-linejoin="miter" stroke="rgb(0%, 0%, 0%)" stroke-opacity="1" stroke-miterlimit="1.154701" d="M 40.5 291 L 484.5 291 " transform="matrix(1.333333, 0, 0, 1.333333, 0, 0)"/>
<path fill="none" stroke-width="1" stroke-linecap="butt" stroke-linejoin="miter" stroke="rgb(0%, 0%, 0%)" stroke-opacity="1" stroke-miterlimit="1.154701" d="M 41.000977 291.500977 L 41.000977 15.500977 " transform="matrix(1.333333, 0, 0, 1.333333, 0, 0)"/>
<path fill="none" stroke-width="1" stroke-linecap="butt" stroke-linejoin="miter" stroke="rgb(0%, 0%, 0%)" stroke-opacity="1" stroke-miterlimit="1.154701" d="M 40.5 15.999023 L 484.5 15.999023 " transform="matrix(1.333333, 0, 0, 1.333333, 0, 0)"/>
<path fill="none" stroke-width="1" stroke-linecap="butt" stroke-linejoin="miter" stroke="rgb(0%, 0%, 0%)" stroke-opacity="1" stroke-miterlimit="1.154701" d="M 483.999023 291.500977 L 483.999023 15.500977 " transform="matrix(1.333333, 0, 0, 1.333333, 0, 0)"/>
</svg>
