<?xml version="1.0" encoding="UTF-8"?>
<svg xmlns="http://www.w3.org/2000/svg" xmlns:xlink="http://www.w3.org/1999/xlink" width="667" height="467" viewBox="0 0 667 467">
<defs>
<g>
<g id="glyph-0-0-2def00c0">
<path d="M 11.078125 -12.078125 C 11.078125 -12.078125 6.609375 -12.078125 6.609375 -12.078125 C 6.609375 -12.078125 6.609375 0 6.609375 0 C 6.609375 0 4.875 0 4.875 0 C 4.875 0 4.875 -12.078125 4.875 -12.078125 C 4.875 -12.078125 0.390625 -12.078125 0.390625 -12.078125 C 0.390625 -12.078125 0.390625 -13.609375 0.390625 -13.609375 C 0.390625 -13.609375 11.078125 -13.609375 11.078125 -13.609375 C 11.078125 -13.609375 11.078125 -12.078125 11.078125 -12.078125 Z M 11.078125 -12.078125 "/>
</g>
<g id="glyph-1-0-2def00c0">
<path d="M 2.859375 0 C 2.859375 0 1.3125 0 1.3125 0 C 1.3125 0 1.3125 -9.78125 1.3125 -9.78125 C 1.3125 -9.78125 2.859375 -9.78125 2.859375 -9.78125 C 2.859375 -9.78125 2.859375 0 2.859375 0 Z M 3.0625 -11.265625 C 3.0625 -11.265625 1.125 -11.265625 1.125 -11.265625 C 1.125 -11.265625 1.125 -13.203125 1.125 -13.203125 C 1.125 -13.203125 3.0625 -13.203125 3.0625 -13.203125 C 3.0625 -13.203125 3.0625 -11.265625 3.0625 -11.265625 Z M 3.0625 -11.265625 "/>
</g>
<g id="glyph-1-1-2def00c0">
<path d="M 14.1875 0 C 14.1875 0 12.640625 0 12.640625 0 C 12.640625 0 12.640625 -6.734375 12.640625 -6.734375 C 12.640625 -7.96875 11.984375 -8.703125 10.84375 -8.703125 C 9.578125 -8.703125 8.53125 -7.5625 8.53125 -6.140625 C 8.53125 -6.140625 8.53125 0 8.53125 0 C 8.53125 0 6.984375 0 6.984375 0 C 6.984375 0 6.984375 -6.734375 6.984375 -6.734375 C 6.984375 -7.984375 6.328125 -8.703125 5.171875 -8.703125 C 3.90625 -8.703125 2.875 -7.5625 2.875 -6.140625 C 2.875 -6.140625 2.875 0 2.875 0 C 2.875 0 1.328125 0 1.328125 0 C 1.328125 0 1.328125 -9.78125 1.328125 -9.78125 C 1.328125 -9.78125 2.75 -9.78125 2.75 -9.78125 C 2.75 -9.78125 2.75 -8.40625 2.75 -8.40625 C 3.578125 -9.578125 4.4375 -10.0625 5.75 -10.0625 C 7.015625 -10.0625 7.8125 -9.609375 8.390625 -8.578125 C 9.296875 -9.671875 10.078125 -10.0625 11.390625 -10.0625 C 13.21875 -10.0625 14.1875 -9.09375 14.1875 -7.34375 C 14.1875 -7.34375 14.1875 0 14.1875 0 Z M 14.1875 0 "/>
</g>
<g id="glyph-1-2-2def00c0">
<path d="M 9.578125 -4.4375 C 9.578125 -4.4375 2.375 -4.4375 2.375 -4.4375 C 2.40625 -2.203125 3.625 -1.15625 5.25 -1.15625 C 6.5 -1.15625 7.375 -1.6875 7.8125 -2.96875 C 7.8125 -2.96875 9.375 -2.96875 9.375 -2.96875 C 8.984375 -0.984375 7.4375 0.28125 5.1875 0.28125 C 2.453125 0.28125 0.75 -1.625 0.75 -4.84375 C 0.75 -8.046875 2.5 -10.0625 5.234375 -10.0625 C 7.0625 -10.0625 8.546875 -9.09375 9.1875 -7.484375 C 9.46875 -6.765625 9.578125 -5.859375 9.578125 -4.4375 Z M 7.921875 -5.828125 C 7.921875 -7.359375 6.734375 -8.625 5.203125 -8.625 C 3.640625 -8.625 2.546875 -7.453125 2.40625 -5.71875 C 2.40625 -5.71875 7.890625 -5.71875 7.890625 -5.71875 C 7.921875 -5.75 7.921875 -5.828125 7.921875 -5.828125 Z M 7.921875 -5.828125 "/>
</g>
<g id="glyph-1-3-2def00c0">
<path d="M 9.46875 -6.359375 C 9.46875 -2.015625 7.9375 0.28125 5.140625 0.28125 C 2.296875 0.28125 0.796875 -2.015625 0.796875 -6.484375 C 0.796875 -10.921875 2.28125 -13.234375 5.140625 -13.234375 C 8.015625 -13.234375 9.46875 -10.953125 9.46875 -6.359375 Z M 7.78125 -6.515625 C 7.78125 -10.0625 6.90625 -11.78125 5.140625 -11.78125 C 3.359375 -11.78125 2.484375 -10.078125 2.484375 -6.453125 C 2.484375 -2.84375 3.359375 -1.078125 5.09375 -1.078125 C 6.921875 -1.078125 7.78125 -2.765625 7.78125 -6.515625 Z M 7.78125 -6.515625 "/>
</g>
<g id="glyph-1-4-2def00c0">
<path d="M 3.5625 0 C 3.5625 0 1.625 0 1.625 0 C 1.625 0 1.625 -1.9375 1.625 -1.9375 C 1.625 -1.9375 3.5625 -1.9375 3.5625 -1.9375 C 3.5625 -1.9375 3.5625 0 3.5625 0 Z M 3.5625 0 "/>
</g>
<g id="glyph-1-5-2def00c0">
<path d="M 9.578125 -4.390625 C 9.578125 -1.59375 7.71875 0.28125 5.046875 0.28125 C 2.6875 0.28125 1.1875 -0.765625 0.65625 -3.390625 C 0.65625 -3.390625 2.296875 -3.390625 2.296875 -3.390625 C 2.6875 -1.90625 3.5625 -1.171875 5 -1.171875 C 6.796875 -1.171875 7.890625 -2.265625 7.890625 -4.15625 C 7.890625 -6.125 6.78125 -7.265625 5 -7.265625 C 3.984375 -7.265625 3.34375 -6.953125 2.578125 -6.03125 C 2.578125 -6.03125 1.0625 -6.03125 1.0625 -6.03125 C 1.0625 -6.03125 2.046875 -12.953125 2.046875 -12.953125 C 2.046875 -12.953125 8.890625 -12.953125 8.890625 -12.953125 C 8.890625 -12.953125 8.890625 -11.328125 8.890625 -11.328125 C 8.890625 -11.328125 3.375 -11.328125 3.375 -11.328125 C 3.375 -11.328125 2.859375 -7.921875 2.859375 -7.921875 C 3.625 -8.484375 4.375 -8.71875 5.296875 -8.71875 C 7.84375 -8.71875 9.578125 -7 9.578125 -4.390625 Z M 9.578125 -4.390625 "/>
</g>
<g id="glyph-1-6-2def00c0">
<path d="M 6.484375 0 C 6.484375 0 4.84375 0 4.84375 0 C 4.84375 0 4.84375 -9.421875 4.84375 -9.421875 C 4.84375 -9.421875 1.90625 -9.421875 1.90625 -9.421875 C 1.90625 -9.421875 1.90625 -10.609375 1.90625 -10.609375 C 4.4375 -10.921875 4.8125 -11.203125 5.390625 -13.234375 C 5.390625 -13.234375 6.484375 -13.234375 6.484375 -13.234375 C 6.484375 -13.234375 6.484375 0 6.484375 0 Z M 6.484375 0 "/>
</g>
<g id="glyph-1-7-2def00c0">
<path d="M 9.546875 -9.359375 C 9.546875 -7.734375 8.59375 -6.34375 6.734375 -5.359375 C 6.734375 -5.359375 4.875 -4.34375 4.875 -4.34375 C 3.25 -3.390625 2.65625 -2.703125 2.484375 -1.625 C 2.484375 -1.625 9.453125 -1.625 9.453125 -1.625 C 9.453125 -1.625 9.453125 0 9.453125 0 C 9.453125 0 0.640625 0 0.640625 0 C 0.78125 -2.90625 1.59375 -4.15625 4.34375 -5.734375 C 4.34375 -5.734375 6.0625 -6.703125 6.0625 -6.703125 C 7.25 -7.375 7.859375 -8.265625 7.859375 -9.3125 C 7.859375 -10.734375 6.734375 -11.796875 5.25 -11.796875 C 3.625 -11.796875 2.703125 -10.859375 2.578125 -8.640625 C 2.578125 -8.640625 0.9375 -8.640625 0.9375 -8.640625 C 1.03125 -11.859375 2.59375 -13.234375 5.296875 -13.234375 C 7.8125 -13.234375 9.546875 -11.59375 9.546875 -9.359375 Z M 9.546875 -9.359375 "/>
</g>
<g id="glyph-1-8-2def00c0">
<path d="M 9.453125 -3.84375 C 9.453125 -1.34375 7.6875 0.28125 4.96875 0.28125 C 2.265625 0.28125 0.796875 -1.046875 0.59375 -4 C 0.59375 -4 2.234375 -4 2.234375 -4 C 2.359375 -2.078125 3.234375 -1.171875 5.015625 -1.171875 C 6.734375 -1.171875 7.765625 -2.171875 7.765625 -3.828125 C 7.765625 -5.296875 6.828125 -6.15625 5.015625 -6.15625 C 5.015625 -6.15625 4.125 -6.15625 4.125 -6.15625 C 4.125 -6.15625 4.125 -7.546875 4.125 -7.546875 C 6.765625 -7.546875 7.375 -8.125 7.375 -9.546875 C 7.375 -10.9375 6.5 -11.796875 5.046875 -11.796875 C 3.359375 -11.796875 2.5625 -10.921875 2.515625 -8.96875 C 2.515625 -8.96875 0.875 -8.96875 0.875 -8.96875 C 0.9375 -11.78125 2.359375 -13.234375 5.015625 -13.234375 C 7.546875 -13.234375 9.0625 -11.875 9.0625 -9.59375 C 9.0625 -8.265625 8.4375 -7.40625 7.203125 -6.921875 C 8.796875 -6.390625 9.453125 -5.453125 9.453125 -3.84375 Z M 9.453125 -3.84375 "/>
</g>
<g id="glyph-2-0-2def00c0">
<path d="M 9.46875 -6.359375 C 9.46875 -2.015625 7.9375 0.28125 5.140625 0.28125 C 2.296875 0.28125 0.796875 -2.015625 0.796875 -6.484375 C 0.796875 -10.921875 2.28125 -13.234375 5.140625 -13.234375 C 8.015625 -13.234375 9.46875 -10.953125 9.46875 -6.359375 Z M 7.78125 -6.515625 C 7.78125 -10.0625 6.90625 -11.78125 5.140625 -11.78125 C 3.359375 -11.78125 2.484375 -10.078125 2.484375 -6.453125 C 2.484375 -2.84375 3.359375 -1.078125 5.09375 -1.078125 C 6.921875 -1.078125 7.78125 -2.765625 7.78125 -6.515625 Z M 7.78125 -6.515625 "/>
</g>
<g id="glyph-3-0-2def00c0">
<path d="M 3.5625 0 C 3.5625 0 1.625 0 1.625 0 C 1.625 0 1.625 -1.9375 1.625 -1.9375 C 1.625 -1.9375 3.5625 -1.9375 3.5625 -1.9375 C 3.5625 -1.9375 3.5625 0 3.5625 0 Z M 3.5625 0 "/>
</g>
<g id="glyph-4-0-2def00c0">
<path d="M 9.46875 -6.359375 C 9.46875 -2.015625 7.9375 0.28125 5.140625 0.28125 C 2.296875 0.28125 0.796875 -2.015625 0.796875 -6.484375 C 0.796875 -10.921875 2.28125 -13.234375 5.140625 -13.234375 C 8.015625 -13.234375 9.46875 -10.953125 9.46875 -6.359375 Z M 7.78125 -6.515625 C 7.78125 -10.0625 6.90625 -11.78125 5.140625 -11.78125 C 3.359375 -11.78125 2.484375 -10.078125 2.484375 -6.453125 C 2.484375 -2.84375 3.359375 -1.078125 5.09375 -1.078125 C 6.921875 -1.078125 7.78125 -2.765625 7.78125 -6.515625 Z M 7.78125 -6.515625 "/>
</g>
<g id="glyph-5-0-2def00c0">
<path d="M 11.609375 -12.53125 C 11.609375 -12.703125 11.5 -12.75 11.359375 -12.75 C 10.734375 -12.75 10.0625 -12.703125 9.421875 -12.703125 C 8.59375 -12.703125 7.71875 -12.75 6.890625 -12.75 C 6.71875 -12.75 6.5 -12.75 6.5 -12.390625 C 6.5 -12.171875 6.671875 -12.171875 6.96875 -12.171875 L 7.1875 -12.171875 C 7.5 -12.171875 7.71875 -12.171875 8.046875 -12.140625 C 8.453125 -12.078125 8.609375 -12.0625 8.609375 -11.78125 C 8.609375 -11.703125 8.609375 -11.671875 8.53125 -11.40625 L 6.359375 -2.703125 C 6.015625 -1.3125 4.953125 0 3.921875 0 C 3.15625 0 2.5 -0.46875 2.359375 -1.234375 C 2.390625 -1.21875 2.421875 -1.21875 2.5625 -1.21875 C 3.265625 -1.21875 3.671875 -1.84375 3.671875 -2.3125 C 3.671875 -2.796875 3.3125 -3.046875 2.90625 -3.046875 C 2.859375 -3.046875 1.75 -3.046875 1.75 -1.609375 C 1.75 -0.34375 2.765625 0.40625 3.953125 0.40625 C 5.71875 0.40625 7.4375 -0.984375 7.84375 -2.6875 L 10.03125 -11.5 C 10.15625 -12.03125 10.28125 -12.171875 11.125 -12.171875 C 11.40625 -12.171875 11.609375 -12.171875 11.609375 -12.53125 Z M 11.609375 -12.53125 "/>
</g>
<g id="glyph-5-1-2def00c0">
<path d="M 9.109375 -2.671875 C 9.109375 -2.859375 8.96875 -2.859375 8.828125 -2.859375 C 8.609375 -2.859375 8.59375 -2.84375 8.5 -2.546875 C 7.984375 -0.9375 7.0625 -0.203125 6.28125 -0.203125 C 5.90625 -0.203125 5.390625 -0.421875 5.390625 -1.40625 C 5.390625 -1.84375 5.609375 -2.65625 5.75 -3.28125 L 6.390625 -5.84375 C 6.640625 -6.8125 7.15625 -7.84375 8.03125 -7.84375 C 8.078125 -7.84375 8.546875 -7.84375 8.84375 -7.578125 C 8.109375 -7.390625 8.109375 -6.6875 8.109375 -6.6875 C 8.109375 -6.4375 8.265625 -6.09375 8.75 -6.09375 C 9.09375 -6.09375 9.671875 -6.34375 9.671875 -7.078125 C 9.671875 -8.03125 8.59375 -8.25 8.046875 -8.25 C 7.015625 -8.25 6.40625 -7.34375 6.21875 -6.984375 C 5.8125 -8.109375 4.890625 -8.25 4.421875 -8.25 C 2.5625 -8.25 1.546875 -5.8125 1.546875 -5.375 C 1.546875 -5.1875 1.734375 -5.1875 1.828125 -5.1875 C 2.078125 -5.1875 2.078125 -5.203125 2.171875 -5.515625 C 2.671875 -7.109375 3.640625 -7.84375 4.390625 -7.84375 C 4.921875 -7.84375 5.28125 -7.40625 5.28125 -6.671875 C 5.28125 -6.21875 5.0625 -5.296875 4.890625 -4.609375 L 4.46875 -2.90625 C 4.15625 -1.703125 3.765625 -0.203125 2.65625 -0.203125 C 2.59375 -0.203125 2.140625 -0.203125 1.828125 -0.46875 C 2.390625 -0.609375 2.5625 -1.078125 2.5625 -1.359375 C 2.5625 -1.84375 2.171875 -1.953125 1.921875 -1.953125 C 1.453125 -1.953125 0.984375 -1.5625 0.984375 -0.953125 C 0.984375 -0.21875 1.78125 0.203125 2.625 0.203125 C 3.53125 0.203125 4.140625 -0.5 4.46875 -1.0625 C 4.84375 0 5.75 0.203125 6.234375 0.203125 C 8.15625 0.203125 9.109375 -2.296875 9.109375 -2.671875 Z M 9.109375 -2.671875 "/>
</g>
<g id="glyph-6-0-2def00c0">
<path d="M 5.46875 -1.609375 C 5.46875 -1.71875 5.375 -1.71875 5.296875 -1.71875 C 5.171875 -1.71875 5.15625 -1.703125 5.09375 -1.53125 C 4.796875 -0.5625 4.234375 -0.125 3.765625 -0.125 C 3.546875 -0.125 3.234375 -0.25 3.234375 -0.84375 C 3.234375 -1.109375 3.359375 -1.59375 3.453125 -1.96875 L 3.828125 -3.5 C 3.984375 -4.09375 4.296875 -4.703125 4.8125 -4.703125 C 4.84375 -4.703125 5.125 -4.703125 5.3125 -4.546875 C 4.859375 -4.4375 4.859375 -4.015625 4.859375 -4.015625 C 4.859375 -3.859375 4.96875 -3.65625 5.25 -3.65625 C 5.453125 -3.65625 5.796875 -3.8125 5.796875 -4.25 C 5.796875 -4.8125 5.15625 -4.953125 4.828125 -4.953125 C 4.21875 -4.953125 3.84375 -4.40625 3.734375 -4.1875 C 3.484375 -4.859375 2.9375 -4.953125 2.65625 -4.953125 C 1.53125 -4.953125 0.9375 -3.484375 0.9375 -3.21875 C 0.9375 -3.109375 1.046875 -3.109375 1.09375 -3.109375 C 1.25 -3.109375 1.25 -3.125 1.296875 -3.3125 C 1.609375 -4.265625 2.1875 -4.703125 2.625 -4.703125 C 2.953125 -4.703125 3.171875 -4.453125 3.171875 -4 C 3.171875 -3.734375 3.03125 -3.1875 2.9375 -2.765625 L 2.671875 -1.75 C 2.5 -1.015625 2.265625 -0.125 1.59375 -0.125 C 1.5625 -0.125 1.28125 -0.125 1.09375 -0.28125 C 1.4375 -0.375 1.53125 -0.65625 1.53125 -0.8125 C 1.53125 -1.109375 1.296875 -1.171875 1.15625 -1.171875 C 0.875 -1.171875 0.59375 -0.9375 0.59375 -0.578125 C 0.59375 -0.140625 1.0625 0.125 1.578125 0.125 C 2.125 0.125 2.484375 -0.296875 2.671875 -0.640625 C 2.90625 0 3.453125 0.125 3.734375 0.125 C 4.890625 0.125 5.46875 -1.375 5.46875 -1.609375 Z M 5.46875 -1.609375 "/>
</g>
<g id="glyph-7-0-2def00c0">
<path d="M 6.28125 4.296875 C 6.28125 4.234375 6.28125 4.203125 6.25 4.15625 L 2.8125 -4.671875 L 6.25 -13.5 C 6.28125 -13.53125 6.28125 -13.578125 6.28125 -13.625 C 6.28125 -13.84375 6.109375 -14 5.90625 -14 C 5.75 -14 5.609375 -13.90625 5.546875 -13.765625 L 2.078125 -4.796875 C 2.046875 -4.765625 2.046875 -4.71875 2.046875 -4.671875 C 2.046875 -4.609375 2.046875 -4.578125 2.078125 -4.53125 L 5.546875 4.421875 C 5.609375 4.578125 5.75 4.671875 5.90625 4.671875 C 6.109375 4.671875 6.28125 4.5 6.28125 4.296875 Z M 6.28125 4.296875 "/>
</g>
<g id="glyph-7-1-2def00c0">
<path d="M 5.1875 -4.796875 L 1.71875 -13.765625 C 1.65625 -13.90625 1.515625 -14 1.359375 -14 C 1.15625 -14 0.984375 -13.84375 0.984375 -13.625 C 0.984375 -13.578125 0.984375 -13.53125 1.015625 -13.5 L 4.4375 -4.671875 L 1.015625 4.15625 C 0.984375 4.203125 0.984375 4.234375 0.984375 4.296875 C 0.984375 4.5 1.15625 4.671875 1.359375 4.671875 C 1.515625 4.671875 1.65625 4.578125 1.71875 4.421875 L 5.1875 -4.53125 C 5.203125 -4.578125 5.203125 -4.609375 5.203125 -4.671875 C 5.203125 -4.71875 5.203125 -4.765625 5.1875 -4.796875 Z M 5.1875 -4.796875 "/>
</g>
</g>
</defs>
<path fill-rule="nonzero" fill="rgb(100%, 100%, 100%)" fill-opacity="1" d="M 0 0 L 666.667969 0 L 666.667969 466.667969 L 0 466.667969 Z M 0 0 "/>
<path fill-rule="nonzero" fill="rgb(100%, 100%, 100%)" fill-opacity="1" d="M 54.667969 388 L 645.335938 388 L 645.335938 21.332031 L 54.667969 21.332031 Z M 54.667969 388 "/>
<path fill="none" stroke-width="1" stroke-linecap="butt" stroke-linejoin="miter" stroke="rgb(0%, 0%, 0%)" stroke-opacity="0.12" stroke-miterlimit="1.154701" d="M 61.136719 291 L 61.136719 15.999023 " transform="matrix(1.333333, 0, 0, 1.333333, 0, 0)"/>
<path fill="none" stroke-width="1" stroke-linecap="butt" stroke-linejoin="miter" stroke="rgb(0%, 0%, 0%)" stroke-opacity="0.12" stroke-miterlimit="1.154701" d="M 262.5 291 L 262.5 15.999023 " transform="matrix(1.333333, 0, 0, 1.333333, 0, 0)"/>
<path fill="none" stroke-width="1" stroke-linecap="butt" stroke-linejoin="miter" stroke="rgb(0%, 0%, 0%)" stroke-opacity="0.12" stroke-miterlimit="1.154701" d="M 463.863281 291 L 463.863281 15.999023 " transform="matrix(1.333333, 0, 0, 1.333333, 0, 0)"/>
<path fill="none" stroke-width="1" stroke-linecap="butt" stroke-linejoin="miter" stroke="rgb(0%, 0%, 0%)" stroke-opacity="0.12" stroke-miterlimit="1.154701" d="M 41.000977 241.523438 L 483.999023 241.523438 " transform="matrix(1.333333, 0, 0, 1.333333, 0, 0)"/>
<path fill="none" stroke-width="1" stroke-linecap="butt" stroke-linejoin="miter" stroke="rgb(0%, 0%, 0%)" stroke-opacity="0.12" stroke-miterlimit="1.154701" d="M 41.000977 184.239258 L 483.999023 184.239258 " transform="matrix(1.333333, 0, 0, 1.333333, 0, 0)"/>
<path fill="none" stroke-width="1" stroke-linecap="butt" stroke-linejoin="miter" stroke="rgb(0%, 0%, 0%)" stroke-opacity="0.12" stroke-miterlimit="1.154701" d="M 41.000977 126.958008 L 483.999023 126.958008 " transform="matrix(1.333333, 0, 0, 1.333333, 0, 0)"/>
<path fill="none" stroke-width="1" stroke-linecap="butt" stroke-linejoin="miter" stroke="rgb(0%, 0%, 0%)" stroke-opacity="0.12" stroke-miterlimit="1.154701" d="M 41.000977 69.676758 L 483.999023 69.676758 " transform="matrix(1.333333, 0, 0, 1.333333, 0, 0)"/>
<g fill="rgb(0%, 0%, 0%)" fill-opacity="1">
<use xlink:href="#glyph-0-0-2def00c0" x="329.261349" y="442.090667"/>
</g>
<g fill="rgb(0%, 0%, 0%)" fill-opacity="1">
<use xlink:href="#glyph-1-0-2def00c0" x="340.666683" y="442.090667"/>
</g>
<g fill="rgb(0%, 0%, 0%)" fill-opacity="1">
<use xlink:href="#glyph-1-1-2def00c0" x="344.810683" y="442.090667"/>
</g>
<g fill="rgb(0%, 0%, 0%)" fill-opacity="1">
<use xlink:href="#glyph-1-2-2def00c0" x="360.360016" y="442.090667"/>
</g>
<g fill="rgb(0%, 0%, 0%)" fill-opacity="1">
<use xlink:href="#glyph-2-0-2def00c0" x="68.541823" y="416.344001"/>
</g>
<g fill="rgb(0%, 0%, 0%)" fill-opacity="1">
<use xlink:href="#glyph-3-0-2def00c0" x="78.92049" y="416.344001"/>
</g>
<g fill="rgb(0%, 0%, 0%)" fill-opacity="1">
<use xlink:href="#glyph-2-0-2def00c0" x="84.109823" y="416.344001"/>
</g>
<g fill="rgb(0%, 0%, 0%)" fill-opacity="1">
<use xlink:href="#glyph-1-3-2def00c0" x="337.026683" y="416.344001"/>
</g>
<g fill="rgb(0%, 0%, 0%)" fill-opacity="1">
<use xlink:href="#glyph-1-4-2def00c0" x="347.40535" y="416.344001"/>
</g>
<g fill="rgb(0%, 0%, 0%)" fill-opacity="1">
<use xlink:href="#glyph-1-5-2def00c0" x="352.594684" y="416.344001"/>
</g>
<g fill="rgb(0%, 0%, 0%)" fill-opacity="1">
<use xlink:href="#glyph-1-6-2def00c0" x="605.511559" y="416.344001"/>
</g>
<g fill="rgb(0%, 0%, 0%)" fill-opacity="1">
<use xlink:href="#glyph-1-4-2def00c0" x="615.890226" y="416.344001"/>
</g>
<g fill="rgb(0%, 0%, 0%)" fill-opacity="1">
<use xlink:href="#glyph-1-3-2def00c0" x="621.07956" y="416.344001"/>
</g>
<g fill="rgb(0%, 0%, 0%)" fill-opacity="1">
<use xlink:href="#glyph-4-0-2def00c0" x="30.954668" y="328.835018"/>
</g>
<g fill="rgb(0%, 0%, 0%)" fill-opacity="1">
<use xlink:href="#glyph-1-6-2def00c0" x="20.576001" y="252.458157"/>
</g>
<g fill="rgb(0%, 0%, 0%)" fill-opacity="1">
<use xlink:href="#glyph-4-0-2def00c0" x="30.954668" y="252.458157"/>
</g>
<g fill="rgb(0%, 0%, 0%)" fill-opacity="1">
<use xlink:href="#glyph-1-7-2def00c0" x="20.576001" y="176.081286"/>
</g>
<g fill="rgb(0%, 0%, 0%)" fill-opacity="1">
<use xlink:href="#glyph-4-0-2def00c0" x="30.954668" y="176.081286"/>
</g>
<g fill="rgb(0%, 0%, 0%)" fill-opacity="1">
<use xlink:href="#glyph-1-8-2def00c0" x="20.576001" y="99.704435"/>
</g>
<g fill="rgb(0%, 0%, 0%)" fill-opacity="1">
<use xlink:href="#glyph-4-0-2def00c0" x="30.954668" y="99.704435"/>
</g>
<path fill="none" stroke-width="1.5" stroke-linecap="butt" stroke-linejoin="miter" stroke="rgb(100%, 0%, 0%)" stroke-opacity="1" stroke-miterlimit="2" d="M 61.136719 28.5 L 62.144531 212.944336 L 63.149414 210.043945 L 64.157227 209.72168 L 65.165039 209.777344 L 66.169922 217.274414 L 67.177734 215.970703 L 68.182617 222.905273 L 69.19043 227.988281 L 70.198242 216.351562 L 71.203125 223.289062 L 72.210938 224.923828 L 73.21875 221.510742 L 74.223633 222.755859 L 75.231445 234.251953 L 76.239258 228.603516 L 77.244141 230.373047 L 78.251953 243.615234 L 79.259766 235.942383 L 80.264648 239.241211 L 81.272461 246.899414 L 82.280273 255.782227 L 83.285156 247.631836 L 84.292969 250.045898 L 85.300781 250.388672 L 86.305664 254.537109 L 87.313477 260.680664 L 88.321289 274.037109 L 89.326172 261.295898 L 90.333984 262.582031 L 91.341797 259.189453 L 92.34668 261.650391 L 93.354492 267.993164 L 94.362305 266.753906 L 95.367188 277.12207 L 96.375 269.358398 L 97.382812 261.591797 L 98.387695 268.918945 L 99.395508 268.995117 L 100.40332 266.34668 L 101.408203 275.950195 L 102.416016 274.936523 L 103.423828 266.516602 L 104.428711 267.644531 L 105.436523 267.975586 L 106.444336 260.961914 L 107.449219 272.545898 L 108.457031 265.611328 L 109.464844 257.513672 L 110.469727 271.983398 L 111.477539 261.222656 L 112.485352 261.796875 L 113.490234 252.864258 L 114.498047 256.801758 L 115.505859 244.96875 L 116.510742 252.014648 L 117.518555 250.889648 L 118.526367 247.277344 L 119.53125 246.577148 L 120.539062 242.188477 L 121.546875 239.953125 L 122.551758 234.251953 L 123.55957 232.995117 L 124.564453 241.646484 L 125.572266 228.606445 L 126.580078 229.995117 L 127.584961 227.80957 L 128.592773 221.853516 L 129.600586 221.012695 L 130.605469 223.21875 L 131.613281 225.700195 L 132.621094 223.734375 L 133.625977 218.373047 L 134.633789 211.983398 L 135.641602 215.261719 L 136.646484 218.056641 L 137.654297 213.764648 L 138.662109 211.476562 L 139.666992 208.262695 L 140.674805 215.43457 L 141.682617 217.790039 L 142.6875 218.756836 L 143.695312 223.168945 L 144.703125 219.706055 L 145.708008 219.547852 L 146.71582 214.567383 L 147.723633 214.757812 L 148.728516 221.223633 L 149.736328 221.018555 L 150.744141 220.640625 L 151.749023 233.871094 L 152.756836 224.083008 L 153.764648 227.188477 L 154.769531 238.751953 L 155.777344 230.179688 L 156.785156 242.43457 L 157.790039 230.794922 L 158.797852 240.881836 L 159.805664 243.457031 L 160.810547 239.90332 L 161.818359 240.28418 L 162.826172 238.204102 L 163.831055 251.43457 L 164.838867 250.476562 L 165.84668 262.007812 L 166.851562 253.631836 L 167.859375 254.490234 L 168.867188 254.012695 L 169.87207 250.432617 L 170.879883 259.040039 L 171.887695 262.453125 L 172.892578 260.633789 L 173.900391 264.738281 L 174.908203 264.339844 L 175.913086 264.521484 L 176.920898 261.164062 L 177.925781 263.72168 L 178.933594 259.174805 L 179.941406 272.540039 L 180.946289 266.375977 L 181.954102 278.499023 L 182.961914 270.644531 L 183.966797 265.666992 L 184.974609 264.199219 L 185.982422 259.095703 L 186.987305 255.931641 L 187.995117 260.862305 L 189.00293 250.746094 L 190.007812 265.130859 L 191.015625 248.443359 L 192.023438 261.375 L 193.02832 264.547852 L 194.036133 256.78418 L 195.043945 255.304688 L 196.048828 245.041992 L 197.056641 247.013672 L 198.064453 234.336914 L 199.069336 247.552734 L 200.077148 251.15918 L 201.084961 246.908203 L 202.089844 234.310547 L 203.097656 236.671875 L 204.105469 235.889648 L 205.110352 243.304688 L 206.118164 232.324219 L 207.125977 229.69043 L 208.130859 223.59668 L 209.138672 226.289062 L 210.146484 228.354492 L 211.151367 231.761719 L 212.15918 220.652344 L 213.166992 219.541992 L 214.171875 226.060547 L 215.179688 218.071289 L 216.1875 215.203125 L 217.192383 222.585938 L 218.200195 223.68457 L 219.208008 219.858398 L 220.212891 224.428711 L 221.220703 220.649414 L 222.228516 223.485352 L 223.233398 215.296875 L 224.241211 225.603516 L 225.249023 229.918945 L 226.253906 230.077148 L 227.261719 216.638672 L 228.269531 220.145508 L 229.274414 220.192383 L 230.282227 230.443359 L 231.290039 220.324219 L 232.294922 232.335938 L 233.302734 236.349609 L 234.307617 234.629883 L 235.31543 231.125977 L 236.323242 231.580078 L 237.328125 232.672852 L 238.335938 237.404297 L 239.34375 230.897461 L 240.348633 240.887695 L 241.356445 243.667969 L 242.364258 244.904297 L 243.369141 243.257812 L 244.376953 243.544922 L 245.384766 255.638672 L 246.389648 250.385742 L 247.397461 251.563477 L 248.405273 254.607422 L 249.410156 264.070312 L 250.417969 255.583008 L 251.425781 252.295898 L 252.430664 252.322266 L 253.438477 250.306641 L 254.446289 259.749023 L 255.451172 255.650391 L 256.458984 256.40332 L 257.466797 258.049805 L 258.47168 259.954102 L 259.479492 257.264648 L 260.487305 260.900391 L 261.492188 258.301758 L 262.5 259.333008 L 263.507812 265.959961 L 264.512695 263.030273 L 265.520508 257.824219 L 266.52832 253.643555 L 267.533203 255.682617 L 268.541016 247.183594 L 269.548828 254.05957 L 270.553711 262.989258 L 271.561523 253.904297 L 272.569336 258.55957 L 273.574219 243.955078 L 274.582031 243.210938 L 275.589844 256.280273 L 276.594727 245.329102 L 277.602539 249.521484 L 278.610352 244.839844 L 279.615234 241.415039 L 280.623047 244.652344 L 281.630859 241.03418 L 282.635742 238.523438 L 283.643555 241.526367 L 284.651367 247.417969 L 285.65625 235.417969 L 286.664062 230.630859 L 287.671875 233.443359 L 288.676758 232.212891 L 289.68457 235.078125 L 290.689453 224.654297 L 291.697266 236.443359 L 292.705078 223.3125 L 293.709961 228.043945 L 294.717773 227.566406 L 295.725586 228.413086 L 296.730469 227.188477 L 297.738281 224.411133 L 298.746094 228.600586 L 299.750977 227.830078 L 300.758789 224.223633 L 301.766602 221.768555 L 302.771484 218.663086 L 303.779297 225.37207 L 304.787109 230.15918 L 305.791992 227.648438 L 306.799805 219.123047 L 307.807617 227.958984 L 308.8125 231.550781 L 309.820312 232.722656 L 310.828125 222.117188 L 311.833008 227.373047 L 312.84082 231.943359 L 313.848633 235.356445 L 314.853516 242.258789 L 315.861328 236.797852 L 316.869141 235.59082 L 317.874023 235.083984 L 318.881836 229.734375 L 319.889648 240.700195 L 320.894531 238.725586 L 321.902344 232.441406 L 322.910156 242.490234 L 323.915039 239.100586 L 324.922852 248.000977 L 325.930664 240.325195 L 326.935547 249.9375 L 327.943359 247.092773 L 328.951172 242.452148 L 329.956055 257.050781 L 330.963867 241.400391 L 331.97168 255.205078 L 332.976562 251.742188 L 333.984375 252.858398 L 334.992188 258.386719 L 335.99707 246.509766 L 337.004883 257.446289 L 338.012695 265.341797 L 339.017578 250.646484 L 340.025391 258.896484 L 341.033203 261.799805 L 342.038086 260.121094 L 343.045898 257.560547 L 344.050781 257.15332 L 345.058594 264.319336 L 346.066406 259.344727 L 347.071289 263.748047 L 348.079102 253.96875 L 349.086914 255.823242 L 350.091797 251.879883 L 351.099609 253.907227 L 352.107422 240.788086 L 353.112305 244.450195 L 354.120117 249.981445 L 355.12793 254.651367 L 356.132812 250.851562 L 357.140625 253.198242 L 358.148438 239.194336 L 359.15332 238.491211 L 360.161133 245.727539 L 361.168945 240.788086 L 362.173828 230.112305 L 363.181641 239.598633 L 364.189453 238.792969 L 365.194336 232.661133 L 366.202148 238.274414 L 367.209961 233.425781 L 368.214844 229.541016 L 369.222656 224.90332 L 370.230469 235.168945 L 371.235352 227.592773 L 372.243164 233.944336 L 373.250977 227.923828 L 374.255859 232.769531 L 375.263672 219.984375 L 376.271484 234.588867 L 377.276367 235.678711 L 378.28418 229.30957 L 379.291992 228.038086 L 380.296875 225.413086 L 381.304688 231.120117 L 382.3125 226.842773 L 383.317383 221.794922 L 384.325195 232.02832 L 385.333008 231.231445 L 386.337891 217.139648 L 387.345703 222.196289 L 388.353516 224.214844 L 389.358398 229.470703 L 390.366211 222.788086 L 391.374023 230.844727 L 392.378906 225.544922 L 393.386719 234.829102 L 394.394531 234.873047 L 395.399414 243.023438 L 396.407227 230.803711 L 397.415039 234.418945 L 398.419922 233.592773 L 399.427734 241.869141 L 400.432617 233.150391 L 401.44043 235.069336 L 402.448242 248.859375 L 403.453125 238.769531 L 404.460938 238.186523 L 405.46875 247.318359 L 406.473633 242.194336 L 407.481445 245.991211 L 408.489258 246.108398 L 409.494141 249.665039 L 410.501953 243.266602 L 411.509766 247.631836 L 412.514648 248.431641 L 413.522461 253.954102 L 414.530273 251.296875 L 415.535156 259.538086 L 416.542969 253.371094 L 417.550781 253.930664 L 418.555664 251.888672 L 419.563477 253.995117 L 420.571289 252.972656 L 421.576172 260.24707 L 422.583984 260.449219 L 423.591797 257.170898 L 424.59668 258.955078 L 425.604492 254.484375 L 426.612305 255.603516 L 427.617188 255.890625 L 428.625 247.157227 L 429.632812 257.504883 L 430.637695 247.895508 L 431.645508 248.428711 L 432.65332 245.337891 L 433.658203 245.619141 L 434.666016 245.81543 L 435.673828 255.152344 L 436.678711 247.792969 L 437.686523 253.365234 L 438.694336 258.175781 L 439.699219 248.135742 L 440.707031 240.454102 L 441.714844 243.720703 L 442.719727 248.080078 L 443.727539 255.28418 L 444.735352 247.356445 L 445.740234 242.332031 L 446.748047 245.575195 L 447.755859 240.629883 L 448.760742 250.072266 L 449.768555 232.101562 L 450.776367 236.882812 L 451.78125 240.398438 L 452.789062 238.256836 L 453.796875 228.331055 L 454.801758 231.087891 L 455.80957 230.545898 L 456.814453 226.561523 L 457.822266 224.583984 L 458.830078 230.833008 L 459.834961 231.832031 L 460.842773 231.257812 L 461.850586 227.167969 L 462.855469 233.270508 " transform="matrix(1.333333, 0, 0, 1.333333, 0, 0)"/>
<path fill="none" stroke-width="1.5" stroke-linecap="butt" stroke-linejoin="miter" stroke="rgb(0%, 0%, 0%)" stroke-opacity="1" stroke-miterlimit="2" d="M 61.136719 218.610352 L 62.144531 218.739258 L 63.149414 219.005859 L 64.157227 219.410156 L 65.165039 219.949219 L 66.169922 220.617188 L 67.177734 221.411133 L 68.182617 222.325195 L 69.19043 223.353516 L 70.198242 224.487305 L 71.203125 225.720703 L 72.210938 227.044922 L 73.21875 228.454102 L 74.223633 229.933594 L 75.231445 231.477539 L 76.239258 233.077148 L 77.244141 234.720703 L 78.251953 236.396484 L 79.259766 238.095703 L 80.264648 239.80957 L 81.272461 241.523438 L 82.280273 243.228516 L 83.285156 244.916016 L 84.292969 246.571289 L 85.300781 248.191406 L 86.305664 249.758789 L 87.313477 251.270508 L 88.321289 252.711914 L 89.326172 254.080078 L 90.333984 255.363281 L 91.341797 256.552734 L 92.34668 257.645508 L 93.354492 258.635742 L 94.362305 259.511719 L 95.367188 260.273438 L 96.375 260.917969 L 97.382812 261.439453 L 98.387695 261.834961 L 99.395508 262.104492 L 100.40332 262.242188 L 101.408203 262.256836 L 102.416016 262.139648 L 103.423828 261.899414 L 104.428711 261.533203 L 105.436523 261.043945 L 106.444336 260.44043 L 107.449219 259.722656 L 108.457031 258.893555 L 109.464844 257.964844 L 110.469727 256.939453 L 111.477539 255.823242 L 112.485352 254.62207 L 113.490234 253.350586 L 114.498047 252.011719 L 115.505859 250.614258 L 116.510742 249.166992 L 117.518555 247.678711 L 118.526367 246.164062 L 119.53125 244.625977 L 120.539062 243.076172 L 121.546875 241.523438 L 122.551758 239.982422 L 123.55957 238.456055 L 124.564453 236.956055 L 125.572266 235.491211 L 126.580078 234.070312 L 127.584961 232.705078 L 128.592773 231.398438 L 129.600586 230.162109 L 130.605469 229.001953 L 131.613281 227.923828 L 132.621094 226.933594 L 133.625977 226.040039 L 134.633789 225.246094 L 135.641602 224.557617 L 136.646484 223.974609 L 137.654297 223.50293 L 138.662109 223.145508 L 139.666992 222.902344 L 140.674805 222.773438 L 141.682617 222.764648 L 142.6875 222.867188 L 143.695312 223.086914 L 144.703125 223.417969 L 145.708008 223.857422 L 146.71582 224.405273 L 147.723633 225.055664 L 148.728516 225.805664 L 149.736328 226.646484 L 150.744141 227.575195 L 151.749023 228.585938 L 152.756836 229.669922 L 153.764648 230.821289 L 154.769531 232.03418 L 155.777344 233.296875 L 156.785156 234.606445 L 157.790039 235.951172 L 158.797852 237.325195 L 159.805664 238.716797 L 160.810547 240.117188 L 161.818359 241.520508 L 162.826172 242.917969 L 163.831055 244.297852 L 164.838867 245.657227 L 165.84668 246.981445 L 166.851562 248.264648 L 167.859375 249.500977 L 168.867188 250.68457 L 169.87207 251.803711 L 170.879883 252.852539 L 171.887695 253.828125 L 172.892578 254.72168 L 173.900391 255.533203 L 174.908203 256.250977 L 175.913086 256.875 L 176.920898 257.402344 L 177.925781 257.827148 L 178.933594 258.152344 L 179.941406 258.37207 L 180.946289 258.486328 L 181.954102 258.498047 L 182.961914 258.404297 L 183.966797 258.205078 L 184.974609 257.90625 L 185.982422 257.507812 L 186.987305 257.012695 L 187.995117 256.423828 L 189.00293 255.74707 L 190.007812 254.985352 L 191.015625 254.144531 L 192.023438 253.230469 L 193.02832 252.249023 L 194.036133 251.206055 L 195.043945 250.110352 L 196.048828 248.967773 L 197.056641 247.78125 L 198.064453 246.56543 L 199.069336 245.323242 L 200.077148 244.063477 L 201.084961 242.794922 L 202.089844 241.526367 L 203.097656 240.260742 L 204.105469 239.012695 L 205.110352 237.785156 L 206.118164 236.586914 L 207.125977 235.423828 L 208.130859 234.304688 L 209.138672 233.235352 L 210.146484 232.22168 L 211.151367 231.272461 L 212.15918 230.390625 L 213.166992 229.579102 L 214.171875 228.84668 L 215.179688 228.196289 L 216.1875 227.633789 L 217.192383 227.15625 L 218.200195 226.769531 L 219.208008 226.476562 L 220.212891 226.277344 L 221.220703 226.174805 L 222.228516 226.163086 L 223.233398 226.250977 L 224.241211 226.429688 L 225.249023 226.699219 L 226.253906 227.05957 L 227.261719 227.507812 L 228.269531 228.041016 L 229.274414 228.65332 L 230.282227 229.341797 L 231.290039 230.103516 L 232.294922 230.929688 L 233.302734 231.817383 L 234.307617 232.760742 L 235.31543 233.753906 L 236.323242 234.788086 L 237.328125 235.860352 L 238.335938 236.961914 L 239.34375 238.083984 L 240.348633 239.223633 L 242.364258 241.520508 L 243.369141 242.663086 L 244.376953 243.793945 L 245.384766 244.904297 L 246.389648 245.991211 L 247.397461 247.042969 L 248.405273 248.053711 L 249.410156 249.023438 L 250.417969 249.9375 L 251.425781 250.798828 L 252.430664 251.595703 L 253.438477 252.328125 L 254.446289 252.993164 L 255.451172 253.579102 L 256.458984 254.091797 L 257.466797 254.522461 L 258.47168 254.871094 L 259.479492 255.137695 L 260.487305 255.319336 L 261.492188 255.413086 L 262.5 255.421875 L 263.507812 255.342773 L 264.512695 255.181641 L 265.520508 254.935547 L 266.52832 254.610352 L 267.533203 254.203125 L 268.541016 253.722656 L 269.548828 253.168945 L 270.553711 252.544922 L 271.561523 251.856445 L 272.569336 251.109375 L 273.574219 250.306641 L 274.582031 249.454102 L 275.589844 248.554688 L 276.594727 247.617188 L 277.602539 246.647461 L 278.610352 245.651367 L 279.615234 244.634766 L 280.623047 243.603516 L 281.630859 242.566406 L 282.635742 241.526367 L 283.643555 240.492188 L 284.651367 239.469727 L 285.65625 238.461914 L 286.664062 237.480469 L 287.671875 236.53125 L 288.676758 235.614258 L 289.68457 234.738281 L 290.689453 233.90918 L 291.697266 233.129883 L 292.705078 232.40918 L 293.709961 231.74707 L 294.717773 231.146484 L 295.725586 230.613281 L 296.730469 230.150391 L 297.738281 229.760742 L 298.746094 229.444336 L 299.750977 229.204102 L 300.758789 229.040039 L 301.766602 228.955078 L 302.771484 228.949219 L 303.779297 229.019531 L 304.787109 229.166016 L 305.791992 229.385742 L 306.799805 229.681641 L 307.807617 230.047852 L 308.8125 230.484375 L 309.820312 230.985352 L 310.828125 231.550781 L 311.833008 232.171875 L 312.84082 232.848633 L 313.848633 233.575195 L 314.853516 234.348633 L 315.861328 235.160156 L 316.869141 236.006836 L 317.874023 236.885742 L 318.881836 237.788086 L 319.889648 238.708008 L 320.894531 239.639648 L 322.910156 241.520508 L 323.915039 242.455078 L 324.922852 243.380859 L 325.930664 244.291992 L 326.935547 245.179688 L 327.943359 246.041016 L 328.951172 246.870117 L 329.956055 247.661133 L 330.963867 248.411133 L 331.97168 249.117188 L 332.976562 249.770508 L 333.984375 250.371094 L 334.992188 250.913086 L 335.99707 251.393555 L 337.004883 251.8125 L 338.012695 252.166992 L 339.017578 252.451172 L 340.025391 252.670898 L 341.033203 252.817383 L 342.038086 252.893555 L 343.045898 252.902344 L 344.050781 252.837891 L 345.058594 252.706055 L 346.066406 252.503906 L 347.071289 252.237305 L 348.079102 251.90625 L 349.086914 251.510742 L 350.091797 251.05957 L 351.099609 250.546875 L 352.107422 249.984375 L 353.112305 249.37207 L 354.120117 248.71582 L 355.12793 248.015625 L 356.132812 247.280273 L 357.140625 246.512695 L 358.148438 245.71875 L 359.15332 244.904297 L 360.161133 244.072266 L 361.168945 243.228516 L 362.173828 242.378906 L 363.181641 241.526367 L 364.189453 240.679688 L 365.194336 239.841797 L 366.202148 239.018555 L 367.209961 238.21582 L 368.214844 237.436523 L 369.222656 236.686523 L 370.230469 235.96875 L 371.235352 235.289062 L 372.243164 234.65332 L 373.250977 234.061523 L 374.255859 233.519531 L 375.263672 233.027344 L 376.271484 232.59082 L 377.276367 232.212891 L 378.28418 231.893555 L 379.291992 231.635742 L 380.296875 231.436523 L 381.304688 231.304688 L 382.3125 231.234375 L 383.317383 231.228516 L 384.325195 231.28418 L 385.333008 231.404297 L 386.337891 231.585938 L 387.345703 231.829102 L 388.353516 232.12793 L 389.358398 232.485352 L 390.366211 232.895508 L 391.374023 233.358398 L 392.378906 233.865234 L 393.386719 234.421875 L 394.394531 235.016602 L 395.399414 235.649414 L 396.407227 236.314453 L 397.415039 237.005859 L 398.419922 237.726562 L 399.427734 238.464844 L 400.432617 239.217773 L 401.44043 239.979492 L 402.448242 240.75 L 403.453125 241.520508 L 404.460938 242.285156 L 405.46875 243.043945 L 406.473633 243.788086 L 407.481445 244.517578 L 408.489258 245.220703 L 409.494141 245.900391 L 410.501953 246.547852 L 411.509766 247.163086 L 412.514648 247.740234 L 413.522461 248.276367 L 414.530273 248.765625 L 415.535156 249.210938 L 416.542969 249.603516 L 417.550781 249.946289 L 418.555664 250.236328 L 419.563477 250.470703 L 420.571289 250.649414 L 421.576172 250.769531 L 422.583984 250.833984 L 423.591797 250.839844 L 424.59668 250.787109 L 425.604492 250.678711 L 426.612305 250.514648 L 427.617188 250.294922 L 428.625 250.025391 L 429.632812 249.700195 L 430.637695 249.331055 L 431.645508 248.912109 L 432.65332 248.452148 L 433.658203 247.951172 L 434.666016 247.412109 L 435.673828 246.84082 L 436.678711 246.237305 L 437.686523 245.610352 L 438.694336 244.959961 L 439.699219 244.291992 L 440.707031 243.609375 L 441.714844 242.920898 L 442.719727 242.223633 L 443.727539 241.526367 L 444.735352 240.832031 L 445.740234 240.146484 L 446.748047 239.472656 L 447.755859 238.816406 L 448.760742 238.177734 L 449.768555 237.5625 L 450.776367 236.976562 L 451.78125 236.419922 L 452.789062 235.898438 L 453.796875 235.415039 L 454.801758 234.969727 L 455.80957 234.568359 L 456.814453 234.210938 L 457.822266 233.900391 L 458.830078 233.639648 L 459.834961 233.425781 L 460.842773 233.264648 L 461.850586 233.15625 L 462.855469 233.097656 L 463.863281 233.094727 " transform="matrix(1.333333, 0, 0, 1.333333, 0, 0)"/>
<path fill-rule="nonzero" fill="rgb(100%, 100%, 100%)" fill-opacity="1" stroke-width="1" stroke-linecap="butt" stroke-linejoin="miter" stroke="rgb(0%, 0%, 0%)" stroke-opacity="1" stroke-miterlimit="2" d="M 423.999023 77.000977 L 477.999023 77.000977 L 477.999023 22.001953 L 423.999023 22.001953 Z M 423.999023 77.000977 " transform="matrix(1.333333, 0, 0, 1.333333, 0, 0)"/>
<path fill="none" stroke-width="1" stroke-linecap="butt" stroke-linejoin="miter" stroke="rgb(0%, 0%, 0%)" stroke-opacity="1" stroke-miterlimit="1.154701" d="M 61.136719 291.500977 L 61.136719 296.499023 " transform="matrix(1.333333, 0, 0, 1.333333, 0, 0)"/>
<path fill="none" stroke-width="1" stroke-linecap="butt" stroke-linejoin="miter" stroke="rgb(0%, 0%, 0%)" stroke-opacity="1" stroke-miterlimit="1.154701" d="M 262.5 291.500977 L 262.5 296.499023 " transform="matrix(1.333333, 0, 0, 1.333333, 0, 0)"/>
<path fill="none" stroke-width="1" stroke-linecap="butt" stroke-linejoin="miter" stroke="rgb(0%, 0%, 0%)" stroke-opacity="1" stroke-miterlimit="1.154701" d="M 463.863281 291.500977 L 463.863281 296.499023 " transform="matrix(1.333333, 0, 0, 1.333333, 0, 0)"/>
<path fill="none" stroke-width="1" stroke-linecap="butt" stroke-linejoin="miter" stroke="rgb(0%, 0%, 0%)" stroke-opacity="1" stroke-miterlimit="1.154701" d="M 40.5 241.523438 L 35.499023 241.523438 " transform="matrix(1.333333, 0, 0, 1.333333, 0, 0)"/>
<path fill="none" stroke-width="1" stroke-linecap="butt" stroke-linejoin="miter" stroke="rgb(0%, 0%, 0%)" stroke-opacity="1" stroke-miterlimit="1.154701" d="M 40.5 184.239258 L 35.499023 184.239258 " transform="matrix(1.333333, 0, 0, 1.333333, 0, 0)"/>
<path fill="none" stroke-width="1" stroke-linecap="butt" stroke-linejoin="miter" stroke="rgb(0%, 0%, 0%)" stroke-opacity="1" stroke-miterlimit="1.154701" d="M 40.5 126.958008 L 35.499023 126.958008 " transform="matrix(1.333333, 0, 0, 1.333333, 0, 0)"/>
<path fill="none" stroke-width="1" stroke-linecap="butt" stroke-linejoin="miter" stroke="rgb(0%, 0%, 0%)" stroke-opacity="1" stroke-miterlimit="1.154701" d="M 40.5 69.676758 L 35.499023 69.676758 " transform="matrix(1.333333, 0, 0, 1.333333, 0, 0)"/>
<path fill="none" stroke-width="1.5" stroke-linecap="butt" stroke-linejoin="miter" stroke="rgb(100%, 0%, 0%)" stroke-opacity="1" stroke-miterlimit="2" d="M 429.805664 38.000977 L 449.806641 38.000977 " transform="matrix(1.333333, 0, 0, 1.333333, 0, 0)"/>
<path fill="none" stroke-width="1.5" stroke-linecap="butt" stroke-linejoin="miter" stroke="rgb(0%, 0%, 0%)" stroke-opacity="1" stroke-miterlimit="2" d="M 429.805664 60.999023 L 449.806641 60.999023 " transform="matrix(1.333333, 0, 0, 1.333333, 0, 0)"/>
<g fill="rgb(0%, 0%, 0%)" fill-opacity="1">
<use xlink:href="#glyph-5-0-2def00c0" x="606.408011" y="55.236271"/>
</g>
<g fill="rgb(0%, 0%, 0%)" fill-opacity="1">
<use xlink:href="#glyph-6-0-2def00c0" x="616.603744" y="58.969605"/>
</g>
<g fill="rgb(0%, 0%, 0%)" fill-opacity="1">
<use xlink:href="#glyph-7-0-2def00c0" x="606.408028" y="86.522671"/>
</g>
<g fill="rgb(0%, 0%, 0%)" fill-opacity="1">
<use xlink:href="#glyph-5-1-2def00c0" x="613.669362" y="86.522671"/>
</g>
<g fill="rgb(0%, 0%, 0%)" fill-opacity="1">
<use xlink:href="#glyph-7-1-2def00c0" x="622.330695" y="86.522671"/>
</g>
<path fill="none" stroke-width="1" stroke-linecap="butt" stroke-linejoin="miter" stroke="rgb(0%, 0%, 0%)" stroke-opacity="1" stroke-miterlimit="1.154701" d="M 40.5 291 L 484.5 291 " transform="matrix(1.333333, 0, 0, 1.333333, 0, 0)"/>
<path fill="none" stroke-width="1" stroke-linecap="butt" stroke-linejoin="miter" stroke="rgb(0%, 0%, 0%)" stroke-opacity="1" stroke-miterlimit="1.154701" d="M 41.000977 291.500977 L 41.000977 15.500977 " transform="matrix(1.333333, 0, 0, 1.333333, 0, 0)"/>
<path fill="none" stroke-width="1" stroke-linecap="butt" stroke-linejoin="miter" stroke="rgb(0%, 0%, 0%)" stroke-opacity="1" stroke-miterlimit="1.154701" d="M 40.5 15.999023 L 484.5 15.999023 " transform="matrix(1.333333, 0, 0, 1.333333, 0, 0)"/>
<path fill="none" stroke-width="1" stroke-linecap="butt" stroke-linejoin="miter" stroke="rgb(0%, 0%, 0%)" stroke-opacity="1" stroke-miterlimit="1.154701" d="M 483.999023 291.500977 L 483.999023 15.500977 " transform="matrix(1.333333, 0, 0, 1.333333, 0, 0)"/>
</svg>
