<?xml version="1.0" encoding="UTF-8"?>
<svg xmlns="http://www.w3.org/2000/svg" xmlns:xlink="http://www.w3.org/1999/xlink" width="667" height="467" viewBox="0 0 667 467">
<defs>
<g>
<g id="glyph-0-0-76b013a3">
<path d="M 11.078125 -12.078125 C 11.078125 -12.078125 6.609375 -12.078125 6.609375 -12.078125 C 6.609375 -12.078125 6.609375 0 6.609375 0 C 6.609375 0 4.875 0 4.875 0 C 4.875 0 4.875 -12.078125 4.875 -12.078125 C 4.875 -12.078125 0.390625 -12.078125 0.390625 -12.078125 C 0.390625 -12.078125 0.390625 -13.609375 0.390625 -13.609375 C 0.390625 -13.609375 11.078125 -13.609375 11.078125 -13.609375 C 11.078125 -13.609375 11.078125 -12.078125 11.078125 -12.078125 Z M 11.078125 -12.078125 "/>
</g>
<g id="glyph-1-0-76b013a3">
<path d="M 2.859375 0 C 2.859375 0 1.3125 0 1.3125 0 C 1.3125 0 1.3125 -9.78125 1.3125 -9.78125 C 1.3125 -9.78125 2.859375 -9.78125 2.859375 -9.78125 C 2.859375 -9.78125 2.859375 0 2.859375 0 Z M 3.0625 -11.265625 C 3.0625 -11.265625 1.125 -11.265625 1.125 -11.265625 C 1.125 -11.265625 1.125 -13.203125 1.125 -13.203125 C 1.125 -13.203125 3.0625 -13.203125 3.0625 -13.203125 C 3.0625 -13.203125 3.0625 -11.265625 3.0625 -11.265625 Z M 3.0625 -11.265625 "/>
</g>
<g id="glyph-1-1-76b013a3">
<path d="M 14.1875 0 C 14.1875 0 12.640625 0 12.640625 0 C 12.640625 0 12.640625 -6.734375 12.640625 -6.734375 C 12.640625 -7.96875 11.984375 -8.703125 10.84375 -8.703125 C 9.578125 -8.703125 8.53125 -7.5625 8.53125 -6.140625 C 8.53125 -6.140625 8.53125 0 8.53125 0 C 8.53125 0 6.984375 0 6.984375 0 C 6.984375 0 6.984375 -6.734375 6.984375 -6.734375 C 6.984375 -7.984375 6.328125 -8.703125 5.171875 -8.703125 C 3.90625 -8.703125 2.875 -7.5625 2.875 -6.140625 C 2.875 -6.140625 2.875 0 2.875 0 C 2.875 0 1.328125 0 1.328125 0 C 1.328125 0 1.328125 -9.78125 1.328125 -9.78125 C 1.328125 -9.78125 2.75 -9.78125 2.75 -9.78125 C 2.75 -9.78125 2.75 -8.40625 2.75 -8.40625 C 3.578125 -9.578125 4.4375 -10.0625 5.75 -10.0625 C 7.015625 -10.0625 7.8125 -9.609375 8.390625 -8.578125 C 9.296875 -9.671875 10.078125 -10.0625 11.390625 -10.0625 C 13.21875 -10.0625 14.1875 -9.09375 14.1875 -7.34375 C 14.1875 -7.34375 14.1875 0 14.1875 0 Z M 14.1875 0 "/>
</g>
<g id="glyph-1-2-76b013a3">
<path d="M 9.578125 -4.4375 C 9.578125 -4.4375 2.375 -4.4375 2.375 -4.4375 C 2.40625 -2.203125 3.625 -1.15625 5.25 -1.15625 C 6.5 -1.15625 7.375 -1.6875 7.8125 -2.96875 C 7.8125 -2.96875 9.375 -2.96875 9.375 -2.96875 C 8.984375 -0.984375 7.4375 0.28125 5.1875 0.28125 C 2.453125 0.28125 0.75 -1.625 0.75 -4.84375 C 0.75 -8.046875 2.5 -10.0625 5.234375 -10.0625 C 7.0625 -10.0625 8.546875 -9.09375 9.1875 -7.484375 C 9.46875 -6.765625 9.578125 -5.859375 9.578125 -4.4375 Z M 7.921875 -5.828125 C 7.921875 -7.359375 6.734375 -8.625 5.203125 -8.625 C 3.640625 -8.625 2.546875 -7.453125 2.40625 -5.71875 C 2.40625 -5.71875 7.890625 -5.71875 7.890625 -5.71875 C 7.921875 -5.75 7.921875 -5.828125 7.921875 -5.828125 Z M 7.921875 -5.828125 "/>
</g>
<g id="glyph-1-3-76b013a3">
<path d="M 9.46875 -6.359375 C 9.46875 -2.015625 7.9375 0.28125 5.140625 0.28125 C 2.296875 0.28125 0.796875 -2.015625 0.796875 -6.484375 C 0.796875 -10.921875 2.28125 -13.234375 5.140625 -13.234375 C 8.015625 -13.234375 9.46875 -10.953125 9.46875 -6.359375 Z M 7.78125 -6.515625 C 7.78125 -10.0625 6.90625 -11.78125 5.140625 -11.78125 C 3.359375 -11.78125 2.484375 -10.078125 2.484375 -6.453125 C 2.484375 -2.84375 3.359375 -1.078125 5.09375 -1.078125 C 6.921875 -1.078125 7.78125 -2.765625 7.78125 -6.515625 Z M 7.78125 -6.515625 "/>
</g>
<g id="glyph-1-4-76b013a3">
<path d="M 9.578125 -4.390625 C 9.578125 -1.59375 7.71875 0.28125 5.046875 0.28125 C 2.6875 0.28125 1.1875 -0.765625 0.65625 -3.390625 C 0.65625 -3.390625 2.296875 -3.390625 2.296875 -3.390625 C 2.6875 -1.90625 3.5625 -1.171875 5 -1.171875 C 6.796875 -1.171875 7.890625 -2.265625 7.890625 -4.15625 C 7.890625 -6.125 6.78125 -7.265625 5 -7.265625 C 3.984375 -7.265625 3.34375 -6.953125 2.578125 -6.03125 C 2.578125 -6.03125 1.0625 -6.03125 1.0625 -6.03125 C 1.0625 -6.03125 2.046875 -12.953125 2.046875 -12.953125 C 2.046875 -12.953125 8.890625 -12.953125 8.890625 -12.953125 C 8.890625 -12.953125 8.890625 -11.328125 8.890625 -11.328125 C 8.890625 -11.328125 3.375 -11.328125 3.375 -11.328125 C 3.375 -11.328125 2.859375 -7.921875 2.859375 -7.921875 C 3.625 -8.484375 4.375 -8.71875 5.296875 -8.71875 C 7.84375 -8.71875 9.578125 -7 9.578125 -4.390625 Z M 9.578125 -4.390625 "/>
</g>
<g id="glyph-1-5-76b013a3">
<path d="M 6.484375 0 C 6.484375 0 4.84375 0 4.84375 0 C 4.84375 0 4.84375 -9.421875 4.84375 -9.421875 C 4.84375 -9.421875 1.90625 -9.421875 1.90625 -9.421875 C 1.90625 -9.421875 1.90625 -10.609375 1.90625 -10.609375 C 4.4375 -10.921875 4.8125 -11.203125 5.390625 -13.234375 C 5.390625 -13.234375 6.484375 -13.234375 6.484375 -13.234375 C 6.484375 -13.234375 6.484375 0 6.484375 0 Z M 6.484375 0 "/>
</g>
<g id="glyph-1-6-76b013a3">
<path d="M 9.546875 -9.359375 C 9.546875 -7.734375 8.59375 -6.34375 6.734375 -5.359375 C 6.734375 -5.359375 4.875 -4.34375 4.875 -4.34375 C 3.25 -3.390625 2.65625 -2.703125 2.484375 -1.625 C 2.484375 -1.625 9.453125 -1.625 9.453125 -1.625 C 9.453125 -1.625 9.453125 0 9.453125 0 C 9.453125 0 0.640625 0 0.640625 0 C 0.78125 -2.90625 1.59375 -4.15625 4.34375 -5.734375 C 4.34375 -5.734375 6.0625 -6.703125 6.0625 -6.703125 C 7.25 -7.375 7.859375 -8.265625 7.859375 -9.3125 C 7.859375 -10.734375 6.734375 -11.796875 5.25 -11.796875 C 3.625 -11.796875 2.703125 -10.859375 2.578125 -8.640625 C 2.578125 -8.640625 0.9375 -8.640625 0.9375 -8.640625 C 1.03125 -11.859375 2.59375 -13.234375 5.296875 -13.234375 C 7.8125 -13.234375 9.546875 -11.59375 9.546875 -9.359375 Z M 9.546875 -9.359375 "/>
</g>
<g id="glyph-1-7-76b013a3">
<path d="M 9.703125 -3.171875 C 9.703125 -3.171875 7.75 -3.171875 7.75 -3.171875 C 7.75 -3.171875 7.75 0 7.75 0 C 7.75 0 6.109375 0 6.109375 0 C 6.109375 0 6.109375 -3.171875 6.109375 -3.171875 C 6.109375 -3.171875 0.515625 -3.171875 0.515625 -3.171875 C 0.515625 -3.171875 0.515625 -4.90625 0.515625 -4.90625 C 0.515625 -4.90625 6.53125 -13.234375 6.53125 -13.234375 C 6.53125 -13.234375 7.75 -13.234375 7.75 -13.234375 C 7.75 -13.234375 7.75 -4.65625 7.75 -4.65625 C 7.75 -4.65625 9.703125 -4.65625 9.703125 -4.65625 C 9.703125 -4.65625 9.703125 -3.171875 9.703125 -3.171875 Z M 6.109375 -4.65625 C 6.109375 -4.65625 6.109375 -10.4375 6.109375 -10.4375 C 6.109375 -10.4375 1.953125 -4.65625 1.953125 -4.65625 C 1.953125 -4.65625 6.109375 -4.65625 6.109375 -4.65625 Z M 6.109375 -4.65625 "/>
</g>
<g id="glyph-1-8-76b013a3">
<path d="M 9.578125 -4.109375 C 9.578125 -1.515625 7.765625 0.28125 5.25 0.28125 C 2.21875 0.28125 0.796875 -1.90625 0.796875 -6.03125 C 0.796875 -10.640625 2.46875 -13.234375 5.546875 -13.234375 C 7.5625 -13.234375 8.984375 -11.953125 9.296875 -9.78125 C 9.296875 -9.78125 7.65625 -9.78125 7.65625 -9.78125 C 7.390625 -11.046875 6.59375 -11.78125 5.4375 -11.78125 C 3.546875 -11.78125 2.5 -9.984375 2.484375 -6.765625 C 3.1875 -7.734375 4.21875 -8.234375 5.53125 -8.234375 C 7.890625 -8.234375 9.578125 -6.578125 9.578125 -4.109375 Z M 7.890625 -3.984375 C 7.890625 -5.75 6.90625 -6.78125 5.328125 -6.78125 C 3.703125 -6.78125 2.578125 -5.71875 2.578125 -4.078125 C 2.578125 -2.375 3.734375 -1.171875 5.265625 -1.171875 C 6.78125 -1.171875 7.890625 -2.3125 7.890625 -3.984375 Z M 7.890625 -3.984375 "/>
</g>
<g id="glyph-1-9-76b013a3">
<path d="M 9.984375 -0.03125 C 9.484375 0.09375 9.25 0.125 8.921875 0.125 C 8.15625 0.125 7.484375 -0.40625 7.3125 -1.15625 C 6.453125 -0.25 5.25 0.28125 4 0.28125 C 2.015625 0.28125 0.78125 -0.765625 0.78125 -2.546875 C 0.78125 -3.734375 1.359375 -4.609375 2.5 -5.078125 C 3.09375 -5.328125 3.4375 -5.390625 5.640625 -5.671875 C 6.875 -5.828125 7.265625 -6.109375 7.265625 -6.765625 C 7.265625 -6.765625 7.265625 -7.171875 7.265625 -7.171875 C 7.265625 -8.109375 6.484375 -8.625 5.078125 -8.625 C 3.625 -8.625 2.90625 -8.078125 2.78125 -6.890625 C 2.78125 -6.890625 1.21875 -6.890625 1.21875 -6.890625 C 1.3125 -9.15625 2.765625 -10.0625 5.140625 -10.0625 C 7.546875 -10.0625 8.8125 -9.125 8.8125 -7.390625 C 8.8125 -7.390625 8.8125 -1.9375 8.8125 -1.9375 C 8.8125 -1.453125 9.109375 -1.171875 9.65625 -1.171875 C 9.75 -1.171875 9.828125 -1.171875 9.984375 -1.21875 C 9.984375 -1.21875 9.984375 -0.03125 9.984375 -0.03125 Z M 7.265625 -3.375 C 7.265625 -3.375 7.265625 -4.84375 7.265625 -4.84375 C 6.734375 -4.59375 6.40625 -4.515625 4.765625 -4.296875 C 3.09375 -4.046875 2.40625 -3.609375 2.40625 -2.578125 C 2.40625 -1.515625 3.125 -1.078125 4.328125 -1.078125 C 5.84375 -1.078125 7.265625 -1.984375 7.265625 -3.375 Z M 7.265625 -3.375 "/>
</g>
<g id="glyph-1-10-76b013a3">
<path d="M 4.75 0 C 4.21875 0.09375 3.84375 0.125 3.46875 0.125 C 2.265625 0.125 1.59375 -0.421875 1.59375 -1.421875 C 1.59375 -1.421875 1.59375 -8.515625 1.59375 -8.515625 C 1.59375 -8.515625 0.265625 -8.515625 0.265625 -8.515625 C 0.265625 -8.515625 0.265625 -9.78125 0.265625 -9.78125 C 0.265625 -9.78125 1.59375 -9.78125 1.59375 -9.78125 C 1.59375 -9.78125 1.59375 -12.46875 1.59375 -12.46875 C 1.59375 -12.46875 3.140625 -12.46875 3.140625 -12.46875 C 3.140625 -12.46875 3.140625 -9.78125 3.140625 -9.78125 C 3.140625 -9.78125 4.75 -9.78125 4.75 -9.78125 C 4.75 -9.78125 4.75 -8.515625 4.75 -8.515625 C 4.75 -8.515625 3.140625 -8.515625 3.140625 -8.515625 C 3.140625 -8.515625 3.140625 -2.109375 3.140625 -2.109375 C 3.140625 -1.421875 3.328125 -1.234375 4 -1.234375 C 4.296875 -1.234375 4.53125 -1.25 4.75 -1.3125 C 4.75 -1.3125 4.75 0 4.75 0 Z M 4.75 0 "/>
</g>
<g id="glyph-1-11-76b013a3">
<path d="M 9.515625 -4.8125 C 9.515625 -1.609375 7.84375 0.28125 5.09375 0.28125 C 2.3125 0.28125 0.671875 -1.609375 0.671875 -4.890625 C 0.671875 -8.171875 2.328125 -10.0625 5.078125 -10.0625 C 7.890625 -10.0625 9.515625 -8.203125 9.515625 -4.8125 Z M 7.890625 -4.84375 C 7.890625 -7.265625 6.859375 -8.625 5.09375 -8.625 C 3.359375 -8.625 2.296875 -7.25 2.296875 -4.890625 C 2.296875 -2.515625 3.359375 -1.15625 5.09375 -1.15625 C 6.8125 -1.15625 7.890625 -2.546875 7.890625 -4.84375 Z M 7.890625 -4.84375 "/>
</g>
<g id="glyph-1-12-76b013a3">
</g>
<g id="glyph-1-13-76b013a3">
<path d="M 8.828125 0 C 8.828125 0 7.015625 0 7.015625 0 C 7.015625 0 4.578125 -3.75 4.578125 -3.75 C 4.578125 -3.75 2.09375 0 2.09375 0 C 2.09375 0 0.3125 0 0.3125 0 C 0.3125 0 3.765625 -4.984375 3.765625 -4.984375 C 3.765625 -4.984375 0.5 -9.78125 0.5 -9.78125 C 0.5 -9.78125 2.28125 -9.78125 2.28125 -9.78125 C 2.28125 -9.78125 4.625 -6.234375 4.625 -6.234375 C 4.625 -6.234375 6.984375 -9.78125 6.984375 -9.78125 C 6.984375 -9.78125 8.734375 -9.78125 8.734375 -9.78125 C 8.734375 -9.78125 5.453125 -5.0625 5.453125 -5.0625 C 5.453125 -5.0625 8.828125 0 8.828125 0 Z M 8.828125 0 "/>
</g>
<g id="glyph-1-14-76b013a3">
<path d="M 8.90625 -3.359375 C 8.71875 -1.125 7.25 0.28125 4.90625 0.28125 C 2.265625 0.28125 0.578125 -1.640625 0.578125 -4.796875 C 0.578125 -8.046875 2.296875 -10.0625 4.921875 -10.0625 C 7.109375 -10.0625 8.609375 -8.890625 8.796875 -6.5 C 8.796875 -6.5 7.21875 -6.5 7.21875 -6.5 C 7.046875 -7.859375 6.21875 -8.625 4.90625 -8.625 C 3.21875 -8.625 2.203125 -7.25 2.203125 -4.796875 C 2.203125 -2.484375 3.234375 -1.15625 4.953125 -1.15625 C 6.28125 -1.15625 7.078125 -1.796875 7.34375 -3.359375 C 7.34375 -3.359375 8.90625 -3.359375 8.90625 -3.359375 Z M 8.90625 -3.359375 "/>
</g>
<g id="glyph-1-15-76b013a3">
<path d="M 9.09375 0 C 9.09375 0 7.546875 0 7.546875 0 C 7.546875 0 7.546875 -6.78125 7.546875 -6.78125 C 7.546875 -7.953125 6.765625 -8.703125 5.53125 -8.703125 C 3.9375 -8.703125 2.859375 -7.390625 2.859375 -5.390625 C 2.859375 -5.390625 2.859375 0 2.859375 0 C 2.859375 0 1.3125 0 1.3125 0 C 1.3125 0 1.3125 -9.78125 1.3125 -9.78125 C 1.3125 -9.78125 2.75 -9.78125 2.75 -9.78125 C 2.75 -9.78125 2.75 -8.140625 2.75 -8.140625 C 3.609375 -9.5 4.53125 -10.0625 6 -10.0625 C 7.875 -10.0625 9.09375 -9.015625 9.09375 -7.390625 C 9.09375 -7.390625 9.09375 0 9.09375 0 Z M 9.09375 0 "/>
</g>
<g id="glyph-1-16-76b013a3">
<path d="M 9.765625 -4.796875 C 9.765625 -1.6875 8.109375 0.28125 5.578125 0.28125 C 4.3125 0.28125 3.390625 -0.171875 2.578125 -1.171875 C 2.578125 -1.171875 2.578125 4.078125 2.578125 4.078125 C 2.578125 4.078125 1.03125 4.078125 1.03125 4.078125 C 1.03125 4.078125 1.03125 -9.78125 1.03125 -9.78125 C 1.03125 -9.78125 2.453125 -9.78125 2.453125 -9.78125 C 2.453125 -9.78125 2.453125 -8.3125 2.453125 -8.3125 C 3.171875 -9.46875 4.234375 -10.0625 5.5625 -10.0625 C 8.15625 -10.0625 9.765625 -8.078125 9.765625 -4.796875 Z M 8.140625 -4.84375 C 8.140625 -7.171875 7.015625 -8.609375 5.296875 -8.609375 C 3.65625 -8.609375 2.578125 -7.109375 2.578125 -4.8125 C 2.578125 -2.515625 3.65625 -1.171875 5.296875 -1.171875 C 7 -1.171875 8.140625 -2.609375 8.140625 -4.84375 Z M 8.140625 -4.84375 "/>
</g>
<g id="glyph-1-17-76b013a3">
<path d="M 6 -8.421875 C 3.578125 -8.390625 2.859375 -7.28125 2.859375 -5.078125 C 2.859375 -5.078125 2.859375 0 2.859375 0 C 2.859375 0 1.3125 0 1.3125 0 C 1.3125 0 1.3125 -9.78125 1.3125 -9.78125 C 1.3125 -9.78125 2.71875 -9.78125 2.71875 -9.78125 C 2.71875 -9.78125 2.71875 -8.015625 2.71875 -8.015625 C 3.625 -9.46875 4.390625 -10.0625 5.390625 -10.0625 C 5.609375 -10.0625 5.734375 -10.046875 6 -10.015625 C 6 -10.015625 6 -8.421875 6 -8.421875 Z M 6 -8.421875 "/>
</g>
<g id="glyph-1-18-76b013a3">
<path d="M 9.765625 -5 C 9.765625 -1.828125 8.078125 0.28125 5.515625 0.28125 C 4.140625 0.28125 3.15625 -0.265625 2.40625 -1.40625 C 2.40625 -1.40625 2.40625 0 2.40625 0 C 2.40625 0 1.015625 0 1.015625 0 C 1.015625 0 1.015625 -13.609375 1.015625 -13.609375 C 1.015625 -13.609375 2.5625 -13.609375 2.5625 -13.609375 C 2.5625 -13.609375 2.5625 -8.453125 2.5625 -8.453125 C 3.28125 -9.5625 4.234375 -10.0625 5.578125 -10.0625 C 8.15625 -10.0625 9.765625 -8.171875 9.765625 -5 Z M 8.140625 -4.90625 C 8.140625 -7.09375 7.015625 -8.609375 5.28125 -8.609375 C 3.640625 -8.6875 2.5625 -7.1875 2.5625 -4.890625 C 2.5625 -2.671875 3.640625 -1.171875 5.28125 -1.171875 C 6.984375 -1.171875 8.140625 -2.6875 8.140625 -4.90625 Z M 8.140625 -4.90625 "/>
</g>
<g id="glyph-1-19-76b013a3">
<path d="M 2.8125 0 C 2.8125 0 1.265625 0 1.265625 0 C 1.265625 0 1.265625 -13.609375 1.265625 -13.609375 C 1.265625 -13.609375 2.8125 -13.609375 2.8125 -13.609375 C 2.8125 -13.609375 2.8125 0 2.8125 0 Z M 2.8125 0 "/>
</g>
<g id="glyph-1-20-76b013a3">
<path d="M 8.921875 -9.78125 C 8.921875 -9.78125 4.578125 2.046875 4.578125 2.046875 C 4.046875 3.453125 3.15625 4.078125 2.046875 4.078125 C 1.640625 4.078125 1.328125 4 1.015625 3.828125 C 1.015625 3.828125 1.015625 2.421875 1.015625 2.421875 C 1.34375 2.5 1.609375 2.546875 1.828125 2.546875 C 2.5 2.546875 2.8125 2.28125 3.078125 1.59375 C 3.078125 1.59375 3.671875 0.03125 3.671875 0.03125 C 3.671875 0.03125 0.375 -9.78125 0.375 -9.78125 C 0.375 -9.78125 2.03125 -9.78125 2.03125 -9.78125 C 2.03125 -9.78125 4.53125 -2.171875 4.53125 -2.171875 C 4.53125 -2.171875 7.25 -9.78125 7.25 -9.78125 C 7.25 -9.78125 8.921875 -9.78125 8.921875 -9.78125 Z M 8.921875 -9.78125 "/>
</g>
<g id="glyph-2-0-76b013a3">
<path d="M 0 -11.453125 C 0 -11.453125 0 -1.6875 0 -1.6875 C 0 -1.6875 -13.609375 -1.6875 -13.609375 -1.6875 C -13.609375 -1.6875 -13.609375 -11.109375 -13.609375 -11.109375 C -13.609375 -11.109375 -12.078125 -11.109375 -12.078125 -11.109375 C -12.078125 -11.109375 -12.078125 -3.421875 -12.078125 -3.421875 C -12.078125 -3.421875 -7.734375 -3.421875 -7.734375 -3.421875 C -7.734375 -3.421875 -7.734375 -10.828125 -7.734375 -10.828125 C -7.734375 -10.828125 -6.203125 -10.828125 -6.203125 -10.828125 C -6.203125 -10.828125 -6.203125 -3.421875 -6.203125 -3.421875 C -6.203125 -3.421875 -1.53125 -3.421875 -1.53125 -3.421875 C -1.53125 -3.421875 -1.53125 -11.453125 -1.53125 -11.453125 C -1.53125 -11.453125 0 -11.453125 0 -11.453125 Z M 0 -11.453125 "/>
</g>
<g id="glyph-2-1-76b013a3">
<path d="M 0 -4.75 C 0.09375 -4.21875 0.125 -3.84375 0.125 -3.46875 C 0.125 -2.265625 -0.421875 -1.59375 -1.421875 -1.59375 C -1.421875 -1.59375 -8.515625 -1.59375 -8.515625 -1.59375 C -8.515625 -1.59375 -8.515625 -0.265625 -8.515625 -0.265625 C -8.515625 -0.265625 -9.78125 -0.265625 -9.78125 -0.265625 C -9.78125 -0.265625 -9.78125 -1.59375 -9.78125 -1.59375 C -9.78125 -1.59375 -12.46875 -1.59375 -12.46875 -1.59375 C -12.46875 -1.59375 -12.46875 -3.140625 -12.46875 -3.140625 C -12.46875 -3.140625 -9.78125 -3.140625 -9.78125 -3.140625 C -9.78125 -3.140625 -9.78125 -4.75 -9.78125 -4.75 C -9.78125 -4.75 -8.515625 -4.75 -8.515625 -4.75 C -8.515625 -4.75 -8.515625 -3.140625 -8.515625 -3.140625 C -8.515625 -3.140625 -2.109375 -3.140625 -2.109375 -3.140625 C -1.421875 -3.140625 -1.234375 -3.328125 -1.234375 -4 C -1.234375 -4.296875 -1.25 -4.53125 -1.3125 -4.75 C -1.3125 -4.75 0 -4.75 0 -4.75 Z M 0 -4.75 "/>
</g>
<g id="glyph-2-2-76b013a3">
<path d="M -9.78125 -9.078125 C -9.78125 -9.078125 0 -5.328125 0 -5.328125 C 0 -5.328125 0 -3.625 0 -3.625 C 0 -3.625 -9.78125 -0.1875 -9.78125 -0.1875 C -9.78125 -0.1875 -9.78125 -1.9375 -9.78125 -1.9375 C -9.78125 -1.9375 -1.84375 -4.5625 -1.84375 -4.5625 C -1.84375 -4.5625 -9.78125 -7.3125 -9.78125 -7.3125 C -9.78125 -7.3125 -9.78125 -9.078125 -9.78125 -9.078125 Z M -9.78125 -9.078125 "/>
</g>
<g id="glyph-3-0-76b013a3">
<path d="M 0 -8.828125 C 0 -8.828125 0 -7.015625 0 -7.015625 C 0 -7.015625 -3.75 -4.578125 -3.75 -4.578125 C -3.75 -4.578125 0 -2.09375 0 -2.09375 C 0 -2.09375 0 -0.3125 0 -0.3125 C 0 -0.3125 -4.984375 -3.765625 -4.984375 -3.765625 C -4.984375 -3.765625 -9.78125 -0.5 -9.78125 -0.5 C -9.78125 -0.5 -9.78125 -2.28125 -9.78125 -2.28125 C -9.78125 -2.28125 -6.234375 -4.625 -6.234375 -4.625 C -6.234375 -4.625 -9.78125 -6.984375 -9.78125 -6.984375 C -9.78125 -6.984375 -9.78125 -8.734375 -9.78125 -8.734375 C -9.78125 -8.734375 -5.0625 -5.453125 -5.0625 -5.453125 C -5.0625 -5.453125 0 -8.828125 0 -8.828125 Z M 0 -8.828125 "/>
</g>
<g id="glyph-4-0-76b013a3">
<path d="M -4.796875 -9.765625 C -1.6875 -9.765625 0.28125 -8.109375 0.28125 -5.578125 C 0.28125 -4.3125 -0.171875 -3.390625 -1.171875 -2.578125 C -1.171875 -2.578125 4.078125 -2.578125 4.078125 -2.578125 C 4.078125 -2.578125 4.078125 -1.03125 4.078125 -1.03125 C 4.078125 -1.03125 -9.78125 -1.03125 -9.78125 -1.03125 C -9.78125 -1.03125 -9.78125 -2.453125 -9.78125 -2.453125 C -9.78125 -2.453125 -8.3125 -2.453125 -8.3125 -2.453125 C -9.46875 -3.171875 -10.0625 -4.234375 -10.0625 -5.5625 C -10.0625 -8.15625 -8.078125 -9.765625 -4.796875 -9.765625 Z M -4.84375 -8.140625 C -7.171875 -8.140625 -8.609375 -7.015625 -8.609375 -5.296875 C -8.609375 -3.65625 -7.109375 -2.578125 -4.8125 -2.578125 C -2.515625 -2.578125 -1.171875 -3.65625 -1.171875 -5.296875 C -1.171875 -7 -2.609375 -8.140625 -4.84375 -8.140625 Z M -4.84375 -8.140625 "/>
</g>
<g id="glyph-5-0-76b013a3">
<path d="M -4.4375 -9.578125 C -4.4375 -9.578125 -4.4375 -2.375 -4.4375 -2.375 C -2.203125 -2.40625 -1.15625 -3.625 -1.15625 -5.25 C -1.15625 -6.5 -1.6875 -7.375 -2.96875 -7.8125 C -2.96875 -7.8125 -2.96875 -9.375 -2.96875 -9.375 C -0.984375 -8.984375 0.28125 -7.4375 0.28125 -5.1875 C 0.28125 -2.453125 -1.625 -0.75 -4.84375 -0.75 C -8.046875 -0.75 -10.0625 -2.5 -10.0625 -5.234375 C -10.0625 -7.0625 -9.09375 -8.546875 -7.484375 -9.1875 C -6.765625 -9.46875 -5.859375 -9.578125 -4.4375 -9.578125 Z M -5.828125 -7.921875 C -7.359375 -7.921875 -8.625 -6.734375 -8.625 -5.203125 C -8.625 -3.640625 -7.453125 -2.546875 -5.71875 -2.40625 C -5.71875 -2.40625 -5.71875 -7.890625 -5.71875 -7.890625 C -5.75 -7.921875 -5.828125 -7.921875 -5.828125 -7.921875 Z M -5.828125 -7.921875 "/>
</g>
<g id="glyph-5-1-76b013a3">
<path d="M -2.75 -8.578125 C -0.859375 -8.578125 0.28125 -7 0.28125 -4.53125 C 0.28125 -1.984375 -0.734375 -0.703125 -2.984375 -0.640625 C -2.984375 -0.640625 -2.984375 -2.28125 -2.984375 -2.28125 C -1.5 -2.484375 -1.15625 -3.265625 -1.15625 -4.671875 C -1.15625 -6.03125 -1.703125 -6.953125 -2.609375 -6.953125 C -3.328125 -6.953125 -3.640625 -6.515625 -3.90625 -5.4375 C -3.90625 -5.4375 -4.25 -3.984375 -4.25 -3.984375 C -4.8125 -1.65625 -5.546875 -0.875 -7.078125 -0.875 C -8.890625 -0.875 -10.0625 -2.359375 -10.0625 -4.625 C -10.0625 -6.890625 -8.984375 -8.15625 -7.0625 -8.171875 C -7.0625 -8.171875 -7.0625 -6.53125 -7.0625 -6.53125 C -8.078125 -6.5 -8.625 -5.828125 -8.625 -4.578125 C -8.625 -3.3125 -8.046875 -2.5 -7.15625 -2.5 C -6.453125 -2.5 -6.046875 -3.046875 -5.75 -4.3125 C -5.75 -4.3125 -5.390625 -5.8125 -5.390625 -5.8125 C -4.921875 -7.75 -4.203125 -8.578125 -2.75 -8.578125 Z M -2.75 -8.578125 "/>
</g>
<g id="glyph-6-0-76b013a3">
<path d="M -3.359375 -8.90625 C -1.125 -8.71875 0.28125 -7.25 0.28125 -4.90625 C 0.28125 -2.265625 -1.640625 -0.578125 -4.796875 -0.578125 C -8.046875 -0.578125 -10.0625 -2.296875 -10.0625 -4.921875 C -10.0625 -7.109375 -8.890625 -8.609375 -6.5 -8.796875 C -6.5 -8.796875 -6.5 -7.21875 -6.5 -7.21875 C -7.859375 -7.046875 -8.625 -6.21875 -8.625 -4.90625 C -8.625 -3.21875 -7.25 -2.203125 -4.796875 -2.203125 C -2.484375 -2.203125 -1.15625 -3.234375 -1.15625 -4.953125 C -1.15625 -6.28125 -1.796875 -7.078125 -3.359375 -7.34375 C -3.359375 -7.34375 -3.359375 -8.90625 -3.359375 -8.90625 Z M -3.359375 -8.90625 "/>
</g>
<g id="glyph-7-0-76b013a3">
<path d="M -0.03125 -9.984375 C 0.09375 -9.484375 0.125 -9.25 0.125 -8.921875 C 0.125 -8.15625 -0.40625 -7.484375 -1.15625 -7.3125 C -0.25 -6.453125 0.28125 -5.25 0.28125 -4 C 0.28125 -2.015625 -0.765625 -0.78125 -2.546875 -0.78125 C -3.734375 -0.78125 -4.609375 -1.359375 -5.078125 -2.5 C -5.328125 -3.09375 -5.390625 -3.4375 -5.671875 -5.640625 C -5.828125 -6.875 -6.109375 -7.265625 -6.765625 -7.265625 C -6.765625 -7.265625 -7.171875 -7.265625 -7.171875 -7.265625 C -8.109375 -7.265625 -8.625 -6.484375 -8.625 -5.078125 C -8.625 -3.625 -8.078125 -2.90625 -6.890625 -2.78125 C -6.890625 -2.78125 -6.890625 -1.21875 -6.890625 -1.21875 C -9.15625 -1.3125 -10.0625 -2.765625 -10.0625 -5.140625 C -10.0625 -7.546875 -9.125 -8.8125 -7.390625 -8.8125 C -7.390625 -8.8125 -1.9375 -8.8125 -1.9375 -8.8125 C -1.453125 -8.8125 -1.171875 -9.109375 -1.171875 -9.65625 C -1.171875 -9.75 -1.171875 -9.828125 -1.21875 -9.984375 C -1.21875 -9.984375 -0.03125 -9.984375 -0.03125 -9.984375 Z M -3.375 -7.265625 C -3.375 -7.265625 -4.84375 -7.265625 -4.84375 -7.265625 C -4.59375 -6.734375 -4.515625 -6.40625 -4.296875 -4.765625 C -4.046875 -3.09375 -3.609375 -2.40625 -2.578125 -2.40625 C -1.515625 -2.40625 -1.078125 -3.125 -1.078125 -4.328125 C -1.078125 -5.84375 -1.984375 -7.265625 -3.375 -7.265625 Z M -3.375 -7.265625 "/>
</g>
<g id="glyph-7-1-76b013a3">
<path d="M 0 -4.75 C 0.09375 -4.21875 0.125 -3.84375 0.125 -3.46875 C 0.125 -2.265625 -0.421875 -1.59375 -1.421875 -1.59375 C -1.421875 -1.59375 -8.515625 -1.59375 -8.515625 -1.59375 C -8.515625 -1.59375 -8.515625 -0.265625 -8.515625 -0.265625 C -8.515625 -0.265625 -9.78125 -0.265625 -9.78125 -0.265625 C -9.78125 -0.265625 -9.78125 -1.59375 -9.78125 -1.59375 C -9.78125 -1.59375 -12.46875 -1.59375 -12.46875 -1.59375 C -12.46875 -1.59375 -12.46875 -3.140625 -12.46875 -3.140625 C -12.46875 -3.140625 -9.78125 -3.140625 -9.78125 -3.140625 C -9.78125 -3.140625 -9.78125 -4.75 -9.78125 -4.75 C -9.78125 -4.75 -8.515625 -4.75 -8.515625 -4.75 C -8.515625 -4.75 -8.515625 -3.140625 -8.515625 -3.140625 C -8.515625 -3.140625 -2.109375 -3.140625 -2.109375 -3.140625 C -1.421875 -3.140625 -1.234375 -3.328125 -1.234375 -4 C -1.234375 -4.296875 -1.25 -4.53125 -1.3125 -4.75 C -1.3125 -4.75 0 -4.75 0 -4.75 Z M 0 -4.75 "/>
</g>
<g id="glyph-7-2-76b013a3">
<path d="M 0 -2.8125 C 0 -2.8125 0 -1.265625 0 -1.265625 C 0 -1.265625 -13.609375 -1.265625 -13.609375 -1.265625 C -13.609375 -1.265625 -13.609375 -2.8125 -13.609375 -2.8125 C -13.609375 -2.8125 0 -2.8125 0 -2.8125 Z M 0 -2.8125 "/>
</g>
<g id="glyph-8-0-76b013a3">
<path d="M 0 -2.859375 C 0 -2.859375 0 -1.3125 0 -1.3125 C 0 -1.3125 -9.78125 -1.3125 -9.78125 -1.3125 C -9.78125 -1.3125 -9.78125 -2.859375 -9.78125 -2.859375 C -9.78125 -2.859375 0 -2.859375 0 -2.859375 Z M -11.265625 -3.0625 C -11.265625 -3.0625 -11.265625 -1.125 -11.265625 -1.125 C -11.265625 -1.125 -13.203125 -1.125 -13.203125 -1.125 C -13.203125 -1.125 -13.203125 -3.0625 -13.203125 -3.0625 C -13.203125 -3.0625 -11.265625 -3.0625 -11.265625 -3.0625 Z M -11.265625 -3.0625 "/>
</g>
<g id="glyph-9-0-76b013a3">
<path d="M -4.8125 -9.515625 C -1.609375 -9.515625 0.28125 -7.84375 0.28125 -5.09375 C 0.28125 -2.3125 -1.609375 -0.671875 -4.890625 -0.671875 C -8.171875 -0.671875 -10.0625 -2.328125 -10.0625 -5.078125 C -10.0625 -7.890625 -8.203125 -9.515625 -4.8125 -9.515625 Z M -4.84375 -7.890625 C -7.265625 -7.890625 -8.625 -6.859375 -8.625 -5.09375 C -8.625 -3.359375 -7.25 -2.296875 -4.890625 -2.296875 C -2.515625 -2.296875 -1.15625 -3.359375 -1.15625 -5.09375 C -1.15625 -6.8125 -2.546875 -7.890625 -4.84375 -7.890625 Z M -4.84375 -7.890625 "/>
</g>
<g id="glyph-10-0-76b013a3">
<path d="M 0 -9.09375 C 0 -9.09375 0 -7.546875 0 -7.546875 C 0 -7.546875 -6.78125 -7.546875 -6.78125 -7.546875 C -7.953125 -7.546875 -8.703125 -6.765625 -8.703125 -5.53125 C -8.703125 -3.9375 -7.390625 -2.859375 -5.390625 -2.859375 C -5.390625 -2.859375 0 -2.859375 0 -2.859375 C 0 -2.859375 0 -1.3125 0 -1.3125 C 0 -1.3125 -9.78125 -1.3125 -9.78125 -1.3125 C -9.78125 -1.3125 -9.78125 -2.75 -9.78125 -2.75 C -9.78125 -2.75 -8.140625 -2.75 -8.140625 -2.75 C -9.5 -3.609375 -10.0625 -4.53125 -10.0625 -6 C -10.0625 -7.875 -9.015625 -9.09375 -7.390625 -9.09375 C -7.390625 -9.09375 0 -9.09375 0 -9.09375 Z M 0 -9.09375 "/>
</g>
<g id="glyph-11-0-76b013a3">
</g>
<g id="glyph-12-0-76b013a3">
<path d="M 0 -9 C 0 -9 0 -7.59375 0 -7.59375 C 0 -7.59375 -1.515625 -7.59375 -1.515625 -7.59375 C -0.21875 -6.6875 0.28125 -5.765625 0.28125 -4.328125 C 0.28125 -2.421875 -0.765625 -1.21875 -2.390625 -1.21875 C -2.390625 -1.21875 -9.78125 -1.21875 -9.78125 -1.21875 C -9.78125 -1.21875 -9.78125 -2.765625 -9.78125 -2.765625 C -9.78125 -2.765625 -3 -2.765625 -3 -2.765625 C -1.828125 -2.765625 -1.078125 -3.546875 -1.078125 -4.78125 C -1.078125 -6.40625 -2.390625 -7.453125 -4.390625 -7.453125 C -4.390625 -7.453125 -9.78125 -7.453125 -9.78125 -7.453125 C -9.78125 -7.453125 -9.78125 -9 -9.78125 -9 C -9.78125 -9 0 -9 0 -9 Z M 0 -9 "/>
</g>
<g id="glyph-13-0-76b013a3">
<path d="M 9.578125 -3.734375 C 9.578125 -1.328125 7.75 0.28125 5.140625 0.28125 C 2.515625 0.28125 0.6875 -1.328125 0.6875 -3.75 C 0.6875 -5.203125 1.4375 -6.234375 2.953125 -6.96875 C 1.609375 -7.8125 1.15625 -8.484375 1.15625 -9.703125 C 1.15625 -11.78125 2.796875 -13.234375 5.140625 -13.234375 C 7.484375 -13.234375 9.109375 -11.78125 9.109375 -9.703125 C 9.109375 -8.453125 8.65625 -7.78125 7.296875 -6.96875 C 8.828125 -6.234375 9.578125 -5.203125 9.578125 -3.734375 Z M 7.4375 -9.671875 C 7.4375 -10.953125 6.53125 -11.78125 5.140625 -11.78125 C 3.75 -11.78125 2.84375 -10.953125 2.84375 -9.6875 C 2.84375 -8.4375 3.75 -7.625 5.140625 -7.625 C 6.515625 -7.625 7.4375 -8.4375 7.4375 -9.671875 Z M 7.890625 -3.71875 C 7.890625 -5.265625 6.78125 -6.234375 5.140625 -6.234375 C 3.484375 -6.234375 2.375 -5.265625 2.375 -3.71875 C 2.375 -2.171875 3.484375 -1.171875 5.09375 -1.171875 C 6.78125 -1.171875 7.890625 -2.140625 7.890625 -3.71875 Z M 7.890625 -3.71875 "/>
</g>
<g id="glyph-13-1-76b013a3">
<path d="M 8.90625 -3.359375 C 8.71875 -1.125 7.25 0.28125 4.90625 0.28125 C 2.265625 0.28125 0.578125 -1.640625 0.578125 -4.796875 C 0.578125 -8.046875 2.296875 -10.0625 4.921875 -10.0625 C 7.109375 -10.0625 8.609375 -8.890625 8.796875 -6.5 C 8.796875 -6.5 7.21875 -6.5 7.21875 -6.5 C 7.046875 -7.859375 6.21875 -8.625 4.90625 -8.625 C 3.21875 -8.625 2.203125 -7.25 2.203125 -4.796875 C 2.203125 -2.484375 3.234375 -1.15625 4.953125 -1.15625 C 6.28125 -1.15625 7.078125 -1.796875 7.34375 -3.359375 C 7.34375 -3.359375 8.90625 -3.359375 8.90625 -3.359375 Z M 8.90625 -3.359375 "/>
</g>
<g id="glyph-13-2-76b013a3">
<path d="M 9.984375 -0.03125 C 9.484375 0.09375 9.25 0.125 8.921875 0.125 C 8.15625 0.125 7.484375 -0.40625 7.3125 -1.15625 C 6.453125 -0.25 5.25 0.28125 4 0.28125 C 2.015625 0.28125 0.78125 -0.765625 0.78125 -2.546875 C 0.78125 -3.734375 1.359375 -4.609375 2.5 -5.078125 C 3.09375 -5.328125 3.4375 -5.390625 5.640625 -5.671875 C 6.875 -5.828125 7.265625 -6.109375 7.265625 -6.765625 C 7.265625 -6.765625 7.265625 -7.171875 7.265625 -7.171875 C 7.265625 -8.109375 6.484375 -8.625 5.078125 -8.625 C 3.625 -8.625 2.90625 -8.078125 2.78125 -6.890625 C 2.78125 -6.890625 1.21875 -6.890625 1.21875 -6.890625 C 1.3125 -9.15625 2.765625 -10.0625 5.140625 -10.0625 C 7.546875 -10.0625 8.8125 -9.125 8.8125 -7.390625 C 8.8125 -7.390625 8.8125 -1.9375 8.8125 -1.9375 C 8.8125 -1.453125 9.109375 -1.171875 9.65625 -1.171875 C 9.75 -1.171875 9.828125 -1.171875 9.984375 -1.21875 C 9.984375 -1.21875 9.984375 -0.03125 9.984375 -0.03125 Z M 7.265625 -3.375 C 7.265625 -3.375 7.265625 -4.84375 7.265625 -4.84375 C 6.734375 -4.59375 6.40625 -4.515625 4.765625 -4.296875 C 3.09375 -4.046875 2.40625 -3.609375 2.40625 -2.578125 C 2.40625 -1.515625 3.125 -1.078125 4.328125 -1.078125 C 5.84375 -1.078125 7.265625 -1.984375 7.265625 -3.375 Z M 7.265625 -3.375 "/>
</g>
<g id="glyph-13-3-76b013a3">
<path d="M 9.078125 -9.78125 C 9.078125 -9.78125 5.328125 0 5.328125 0 C 5.328125 0 3.625 0 3.625 0 C 3.625 0 0.1875 -9.78125 0.1875 -9.78125 C 0.1875 -9.78125 1.9375 -9.78125 1.9375 -9.78125 C 1.9375 -9.78125 4.5625 -1.84375 4.5625 -1.84375 C 4.5625 -1.84375 7.3125 -9.78125 7.3125 -9.78125 C 7.3125 -9.78125 9.078125 -9.78125 9.078125 -9.78125 Z M 9.078125 -9.78125 "/>
</g>
<g id="glyph-13-4-76b013a3">
<path d="M 2.859375 0 C 2.859375 0 1.3125 0 1.3125 0 C 1.3125 0 1.3125 -9.78125 1.3125 -9.78125 C 1.3125 -9.78125 2.859375 -9.78125 2.859375 -9.78125 C 2.859375 -9.78125 2.859375 0 2.859375 0 Z M 3.0625 -11.265625 C 3.0625 -11.265625 1.125 -11.265625 1.125 -11.265625 C 1.125 -11.265625 1.125 -13.203125 1.125 -13.203125 C 1.125 -13.203125 3.0625 -13.203125 3.0625 -13.203125 C 3.0625 -13.203125 3.0625 -11.265625 3.0625 -11.265625 Z M 3.0625 -11.265625 "/>
</g>
<g id="glyph-13-5-76b013a3">
<path d="M 4.75 0 C 4.21875 0.09375 3.84375 0.125 3.46875 0.125 C 2.265625 0.125 1.59375 -0.421875 1.59375 -1.421875 C 1.59375 -1.421875 1.59375 -8.515625 1.59375 -8.515625 C 1.59375 -8.515625 0.265625 -8.515625 0.265625 -8.515625 C 0.265625 -8.515625 0.265625 -9.78125 0.265625 -9.78125 C 0.265625 -9.78125 1.59375 -9.78125 1.59375 -9.78125 C 1.59375 -9.78125 1.59375 -12.46875 1.59375 -12.46875 C 1.59375 -12.46875 3.140625 -12.46875 3.140625 -12.46875 C 3.140625 -12.46875 3.140625 -9.78125 3.140625 -9.78125 C 3.140625 -9.78125 4.75 -9.78125 4.75 -9.78125 C 4.75 -9.78125 4.75 -8.515625 4.75 -8.515625 C 4.75 -8.515625 3.140625 -8.515625 3.140625 -8.515625 C 3.140625 -8.515625 3.140625 -2.109375 3.140625 -2.109375 C 3.140625 -1.421875 3.328125 -1.234375 4 -1.234375 C 4.296875 -1.234375 4.53125 -1.25 4.75 -1.3125 C 4.75 -1.3125 4.75 0 4.75 0 Z M 4.75 0 "/>
</g>
<g id="glyph-13-6-76b013a3">
<path d="M 8.921875 -9.78125 C 8.921875 -9.78125 4.578125 2.046875 4.578125 2.046875 C 4.046875 3.453125 3.15625 4.078125 2.046875 4.078125 C 1.640625 4.078125 1.328125 4 1.015625 3.828125 C 1.015625 3.828125 1.015625 2.421875 1.015625 2.421875 C 1.34375 2.5 1.609375 2.546875 1.828125 2.546875 C 2.5 2.546875 2.8125 2.28125 3.078125 1.59375 C 3.078125 1.59375 3.671875 0.03125 3.671875 0.03125 C 3.671875 0.03125 0.375 -9.78125 0.375 -9.78125 C 0.375 -9.78125 2.03125 -9.78125 2.03125 -9.78125 C 2.03125 -9.78125 4.53125 -2.171875 4.53125 -2.171875 C 4.53125 -2.171875 7.25 -9.78125 7.25 -9.78125 C 7.25 -9.78125 8.921875 -9.78125 8.921875 -9.78125 Z M 8.921875 -9.78125 "/>
</g>
<g id="glyph-13-7-76b013a3">
</g>
<g id="glyph-13-8-76b013a3">
<path d="M 9.765625 -4.796875 C 9.765625 -1.6875 8.109375 0.28125 5.578125 0.28125 C 4.3125 0.28125 3.390625 -0.171875 2.578125 -1.171875 C 2.578125 -1.171875 2.578125 4.078125 2.578125 4.078125 C 2.578125 4.078125 1.03125 4.078125 1.03125 4.078125 C 1.03125 4.078125 1.03125 -9.78125 1.03125 -9.78125 C 1.03125 -9.78125 2.453125 -9.78125 2.453125 -9.78125 C 2.453125 -9.78125 2.453125 -8.3125 2.453125 -8.3125 C 3.171875 -9.46875 4.234375 -10.0625 5.5625 -10.0625 C 8.15625 -10.0625 9.765625 -8.078125 9.765625 -4.796875 Z M 8.140625 -4.84375 C 8.140625 -7.171875 7.015625 -8.609375 5.296875 -8.609375 C 3.65625 -8.609375 2.578125 -7.109375 2.578125 -4.8125 C 2.578125 -2.515625 3.65625 -1.171875 5.296875 -1.171875 C 7 -1.171875 8.140625 -2.609375 8.140625 -4.84375 Z M 8.140625 -4.84375 "/>
</g>
<g id="glyph-13-9-76b013a3">
<path d="M 9.078125 0 C 9.078125 0 7.53125 0 7.53125 0 C 7.53125 0 7.53125 -6.78125 7.53125 -6.78125 C 7.53125 -8.0625 6.609375 -8.703125 5.515625 -8.703125 C 3.90625 -8.703125 2.859375 -7.390625 2.859375 -5.390625 C 2.859375 -5.390625 2.859375 0 2.859375 0 C 2.859375 0 1.3125 0 1.3125 0 C 1.3125 0 1.3125 -13.609375 1.3125 -13.609375 C 1.3125 -13.609375 2.859375 -13.609375 2.859375 -13.609375 C 2.859375 -13.609375 2.859375 -8.4375 2.859375 -8.4375 C 3.765625 -9.640625 4.609375 -10.0625 6 -10.0625 C 7.890625 -10.0625 9.078125 -9.03125 9.078125 -7.390625 C 9.078125 -7.390625 9.078125 0 9.078125 0 Z M 9.078125 0 "/>
</g>
<g id="glyph-13-10-76b013a3">
<path d="M 9.515625 -4.8125 C 9.515625 -1.609375 7.84375 0.28125 5.09375 0.28125 C 2.3125 0.28125 0.671875 -1.609375 0.671875 -4.890625 C 0.671875 -8.171875 2.328125 -10.0625 5.078125 -10.0625 C 7.890625 -10.0625 9.515625 -8.203125 9.515625 -4.8125 Z M 7.890625 -4.84375 C 7.890625 -7.265625 6.859375 -8.625 5.09375 -8.625 C 3.359375 -8.625 2.296875 -7.25 2.296875 -4.890625 C 2.296875 -2.515625 3.359375 -1.15625 5.09375 -1.15625 C 6.8125 -1.15625 7.890625 -2.546875 7.890625 -4.84375 Z M 7.890625 -4.84375 "/>
</g>
<g id="glyph-13-11-76b013a3">
<path d="M 9.09375 0 C 9.09375 0 7.546875 0 7.546875 0 C 7.546875 0 7.546875 -6.78125 7.546875 -6.78125 C 7.546875 -7.953125 6.765625 -8.703125 5.53125 -8.703125 C 3.9375 -8.703125 2.859375 -7.390625 2.859375 -5.390625 C 2.859375 -5.390625 2.859375 0 2.859375 0 C 2.859375 0 1.3125 0 1.3125 0 C 1.3125 0 1.3125 -9.78125 1.3125 -9.78125 C 1.3125 -9.78125 2.75 -9.78125 2.75 -9.78125 C 2.75 -9.78125 2.75 -8.140625 2.75 -8.140625 C 3.609375 -9.5 4.53125 -10.0625 6 -10.0625 C 7.875 -10.0625 9.09375 -9.015625 9.09375 -7.390625 C 9.09375 -7.390625 9.09375 0 9.09375 0 Z M 9.09375 0 "/>
</g>
<g id="glyph-13-12-76b013a3">
<path d="M 9 0 C 9 0 7.59375 0 7.59375 0 C 7.59375 0 7.59375 -1.515625 7.59375 -1.515625 C 6.6875 -0.21875 5.765625 0.28125 4.328125 0.28125 C 2.421875 0.28125 1.21875 -0.765625 1.21875 -2.390625 C 1.21875 -2.390625 1.21875 -9.78125 1.21875 -9.78125 C 1.21875 -9.78125 2.765625 -9.78125 2.765625 -9.78125 C 2.765625 -9.78125 2.765625 -3 2.765625 -3 C 2.765625 -1.828125 3.546875 -1.078125 4.78125 -1.078125 C 6.40625 -1.078125 7.453125 -2.390625 7.453125 -4.390625 C 7.453125 -4.390625 7.453125 -9.78125 7.453125 -9.78125 C 7.453125 -9.78125 9 -9.78125 9 -9.78125 C 9 -9.78125 9 0 9 0 Z M 9 0 "/>
</g>
<g id="glyph-13-13-76b013a3">
<path d="M 14.1875 0 C 14.1875 0 12.640625 0 12.640625 0 C 12.640625 0 12.640625 -6.734375 12.640625 -6.734375 C 12.640625 -7.96875 11.984375 -8.703125 10.84375 -8.703125 C 9.578125 -8.703125 8.53125 -7.5625 8.53125 -6.140625 C 8.53125 -6.140625 8.53125 0 8.53125 0 C 8.53125 0 6.984375 0 6.984375 0 C 6.984375 0 6.984375 -6.734375 6.984375 -6.734375 C 6.984375 -7.984375 6.328125 -8.703125 5.171875 -8.703125 C 3.90625 -8.703125 2.875 -7.5625 2.875 -6.140625 C 2.875 -6.140625 2.875 0 2.875 0 C 2.875 0 1.328125 0 1.328125 0 C 1.328125 0 1.328125 -9.78125 1.328125 -9.78125 C 1.328125 -9.78125 2.75 -9.78125 2.75 -9.78125 C 2.75 -9.78125 2.75 -8.40625 2.75 -8.40625 C 3.578125 -9.578125 4.4375 -10.0625 5.75 -10.0625 C 7.015625 -10.0625 7.8125 -9.609375 8.390625 -8.578125 C 9.296875 -9.671875 10.078125 -10.0625 11.390625 -10.0625 C 13.21875 -10.0625 14.1875 -9.09375 14.1875 -7.34375 C 14.1875 -7.34375 14.1875 0 14.1875 0 Z M 14.1875 0 "/>
</g>
<g id="glyph-13-14-76b013a3">
<path d="M 9.765625 -5 C 9.765625 -1.828125 8.078125 0.28125 5.515625 0.28125 C 4.140625 0.28125 3.15625 -0.265625 2.40625 -1.40625 C 2.40625 -1.40625 2.40625 0 2.40625 0 C 2.40625 0 1.015625 0 1.015625 0 C 1.015625 0 1.015625 -13.609375 1.015625 -13.609375 C 1.015625 -13.609375 2.5625 -13.609375 2.5625 -13.609375 C 2.5625 -13.609375 2.5625 -8.453125 2.5625 -8.453125 C 3.28125 -9.5625 4.234375 -10.0625 5.578125 -10.0625 C 8.15625 -10.0625 9.765625 -8.171875 9.765625 -5 Z M 8.140625 -4.90625 C 8.140625 -7.09375 7.015625 -8.609375 5.28125 -8.609375 C 3.640625 -8.6875 2.5625 -7.1875 2.5625 -4.890625 C 2.5625 -2.671875 3.640625 -1.171875 5.28125 -1.171875 C 6.984375 -1.171875 8.140625 -2.6875 8.140625 -4.90625 Z M 8.140625 -4.90625 "/>
</g>
<g id="glyph-13-15-76b013a3">
<path d="M 9.578125 -4.4375 C 9.578125 -4.4375 2.375 -4.4375 2.375 -4.4375 C 2.40625 -2.203125 3.625 -1.15625 5.25 -1.15625 C 6.5 -1.15625 7.375 -1.6875 7.8125 -2.96875 C 7.8125 -2.96875 9.375 -2.96875 9.375 -2.96875 C 8.984375 -0.984375 7.4375 0.28125 5.1875 0.28125 C 2.453125 0.28125 0.75 -1.625 0.75 -4.84375 C 0.75 -8.046875 2.5 -10.0625 5.234375 -10.0625 C 7.0625 -10.0625 8.546875 -9.09375 9.1875 -7.484375 C 9.46875 -6.765625 9.578125 -5.859375 9.578125 -4.4375 Z M 7.921875 -5.828125 C 7.921875 -7.359375 6.734375 -8.625 5.203125 -8.625 C 3.640625 -8.625 2.546875 -7.453125 2.40625 -5.71875 C 2.40625 -5.71875 7.890625 -5.71875 7.890625 -5.71875 C 7.921875 -5.75 7.921875 -5.828125 7.921875 -5.828125 Z M 7.921875 -5.828125 "/>
</g>
<g id="glyph-13-16-76b013a3">
<path d="M 6 -8.421875 C 3.578125 -8.390625 2.859375 -7.28125 2.859375 -5.078125 C 2.859375 -5.078125 2.859375 0 2.859375 0 C 2.859375 0 1.3125 0 1.3125 0 C 1.3125 0 1.3125 -9.78125 1.3125 -9.78125 C 1.3125 -9.78125 2.71875 -9.78125 2.71875 -9.78125 C 2.71875 -9.78125 2.71875 -8.015625 2.71875 -8.015625 C 3.625 -9.46875 4.390625 -10.0625 5.390625 -10.0625 C 5.609375 -10.0625 5.734375 -10.046875 6 -10.015625 C 6 -10.015625 6 -8.421875 6 -8.421875 Z M 6 -8.421875 "/>
</g>
<g id="glyph-14-0-76b013a3">
<path d="M 14.484375 0 C 14.484375 0 11.6875 0 11.6875 0 C 11.6875 0 11.6875 -10.609375 11.6875 -10.609375 C 11.6875 -10.609375 9.28125 0 9.28125 0 C 9.28125 0 6.484375 0 6.484375 0 C 6.484375 0 4.03125 -10.609375 4.03125 -10.609375 C 4.03125 -10.609375 4.03125 0 4.03125 0 C 4.03125 0 1.234375 0 1.234375 0 C 1.234375 0 1.234375 -13.609375 1.234375 -13.609375 C 1.234375 -13.609375 5.421875 -13.609375 5.421875 -13.609375 C 5.421875 -13.609375 7.875 -2.78125 7.875 -2.78125 C 7.875 -2.78125 10.265625 -13.609375 10.265625 -13.609375 C 10.265625 -13.609375 14.484375 -13.609375 14.484375 -13.609375 C 14.484375 -13.609375 14.484375 0 14.484375 0 Z M 14.484375 0 "/>
</g>
<g id="glyph-15-0-76b013a3">
<path d="M 10.625 -4.96875 C 10.625 -1.734375 8.703125 0.171875 5.640625 0.171875 C 2.546875 0.171875 0.65625 -1.71875 0.65625 -5.046875 C 0.65625 -8.34375 2.546875 -10.25 5.625 -10.25 C 8.78125 -10.25 10.625 -8.390625 10.625 -4.96875 Z M 8.015625 -5 C 8.015625 -6.984375 7.078125 -8.140625 5.640625 -8.140625 C 4.21875 -8.140625 3.265625 -6.96875 3.265625 -5.046875 C 3.265625 -3.125 4.21875 -1.9375 5.640625 -1.9375 C 7.046875 -1.9375 8.015625 -3.125 8.015625 -5 Z M 8.015625 -5 "/>
</g>
<g id="glyph-15-1-76b013a3">
<path d="M 10.1875 0 C 10.1875 0 7.578125 0 7.578125 0 C 7.578125 0 7.578125 -6.21875 7.578125 -6.21875 C 7.578125 -7.40625 7.015625 -8.03125 5.90625 -8.03125 C 4.625 -8.03125 3.796875 -7.25 3.796875 -6.046875 C 3.796875 -6.046875 3.796875 0 3.796875 0 C 3.796875 0 1.171875 0 1.171875 0 C 1.171875 0 1.171875 -10.078125 1.171875 -10.078125 C 1.171875 -10.078125 3.796875 -10.078125 3.796875 -10.078125 C 3.796875 -10.078125 3.796875 -8.625 3.796875 -8.625 C 4.53125 -9.75 5.453125 -10.25 6.8125 -10.25 C 8.96875 -10.25 10.1875 -8.984375 10.1875 -6.765625 C 10.1875 -6.765625 10.1875 0 10.1875 0 Z M 10.1875 0 "/>
</g>
<g id="glyph-15-2-76b013a3">
<path d="M 5.625 0 C 5.15625 0.015625 4.6875 0.078125 4.109375 0.078125 C 2.390625 0.078125 1.546875 -0.578125 1.546875 -2.171875 C 1.546875 -2.171875 1.546875 -8.140625 1.546875 -8.140625 C 1.546875 -8.140625 0.265625 -8.140625 0.265625 -8.140625 C 0.265625 -8.140625 0.265625 -9.875 0.265625 -9.875 C 0.265625 -9.875 1.546875 -9.875 1.546875 -9.875 C 1.546875 -9.875 1.546875 -12.578125 1.546875 -12.578125 C 1.546875 -12.578125 4.15625 -12.578125 4.15625 -12.578125 C 4.15625 -12.578125 4.15625 -9.875 4.15625 -9.875 C 4.15625 -9.875 5.625 -9.875 5.625 -9.875 C 5.625 -9.875 5.625 -8.140625 5.625 -8.140625 C 5.625 -8.140625 4.15625 -8.140625 4.15625 -8.140625 C 4.15625 -8.140625 4.15625 -2.875 4.15625 -2.875 C 4.15625 -1.984375 4.328125 -1.78125 5.015625 -1.78125 C 5.203125 -1.78125 5.359375 -1.796875 5.625 -1.828125 C 5.625 -1.828125 5.625 0 5.625 0 Z M 5.625 0 "/>
</g>
<g id="glyph-15-3-76b013a3">
<path d="M 9.796875 -4.671875 C 9.796875 -4.671875 9.78125 -4.34375 9.78125 -4.34375 C 9.78125 -4.34375 3.03125 -4.34375 3.03125 -4.34375 C 3.09375 -2.390625 3.890625 -1.828125 5.109375 -1.828125 C 6.0625 -1.828125 6.890625 -2.109375 7.109375 -2.84375 C 7.109375 -2.84375 9.6875 -2.84375 9.6875 -2.84375 C 9.109375 -0.859375 7.28125 0.171875 5.015625 0.171875 C 2.171875 0.171875 0.40625 -1.6875 0.40625 -4.90625 C 0.40625 -8.296875 2.1875 -10.25 5.078125 -10.25 C 8.046875 -10.25 9.796875 -8.140625 9.796875 -4.671875 Z M 7.078125 -6.09375 C 6.953125 -7.53125 6.15625 -8.25 5.046875 -8.25 C 3.890625 -8.25 3.234375 -7.484375 3.0625 -6.09375 C 3.0625 -6.09375 7.078125 -6.09375 7.078125 -6.09375 Z M 7.078125 -6.09375 "/>
</g>
<g id="glyph-15-4-76b013a3">
</g>
<g id="glyph-15-5-76b013a3">
<path d="M 12.796875 -4.65625 C 12.625 -1.53125 10.359375 0.21875 6.984375 0.21875 C 3.1875 0.21875 0.828125 -2.421875 0.828125 -6.796875 C 0.828125 -11.203125 3.21875 -13.84375 7.0625 -13.84375 C 10.125 -13.84375 12.484375 -12.140625 12.734375 -9 C 12.734375 -9 10.0625 -9 10.0625 -9 C 9.65625 -10.75 8.65625 -11.453125 7.15625 -11.453125 C 4.953125 -11.453125 3.625 -9.765625 3.625 -6.765625 C 3.625 -3.796875 4.890625 -2.125 7.0625 -2.125 C 8.796875 -2.125 9.890625 -2.90625 10.0625 -4.65625 C 10.0625 -4.65625 12.796875 -4.65625 12.796875 -4.65625 Z M 12.796875 -4.65625 "/>
</g>
<g id="glyph-15-6-76b013a3">
<path d="M 9.78125 0 C 9.78125 0 6.953125 0 6.953125 0 C 6.703125 -0.296875 6.640625 -0.75 6.640625 -1.265625 C 5.734375 -0.3125 4.703125 0.171875 3.578125 0.171875 C 1.90625 0.171875 0.515625 -0.765625 0.515625 -2.71875 C 0.515625 -4.5625 1.5 -5.421875 3.484375 -5.765625 C 3.484375 -5.765625 4.53125 -5.953125 4.53125 -5.953125 C 5.84375 -6.1875 6.625 -6.0625 6.625 -7.125 C 6.625 -7.8125 6.125 -8.140625 5.109375 -8.140625 C 3.828125 -8.140625 3.390625 -7.8125 3.265625 -6.765625 C 3.265625 -6.765625 0.75 -6.765625 0.75 -6.765625 C 0.921875 -9.09375 2.328125 -10.25 5.0625 -10.25 C 7.78125 -10.25 9.1875 -9.203125 9.1875 -7.15625 C 9.1875 -7.15625 9.1875 -1.546875 9.1875 -1.546875 C 9.1875 -1.03125 9.3125 -0.75 9.78125 -0.3125 C 9.78125 -0.3125 9.78125 0 9.78125 0 Z M 6.625 -4.3125 C 6.625 -4.3125 6.625 -4.765625 6.625 -4.765625 C 6.328125 -4.609375 6.21875 -4.578125 5.53125 -4.4375 C 5.53125 -4.4375 4.625 -4.28125 4.625 -4.28125 C 3.546875 -4.078125 3.140625 -3.796875 3.140625 -3.03125 C 3.140625 -2.28125 3.671875 -1.9375 4.5625 -1.9375 C 5.875 -1.9375 6.625 -2.796875 6.625 -4.3125 Z M 6.625 -4.3125 "/>
</g>
<g id="glyph-15-7-76b013a3">
<path d="M 6.90625 -7.578125 C 6.546875 -7.640625 6.359375 -7.65625 6.09375 -7.65625 C 4.5625 -7.65625 3.796875 -6.890625 3.796875 -5.359375 C 3.796875 -5.359375 3.796875 0 3.796875 0 C 3.796875 0 1.171875 0 1.171875 0 C 1.171875 0 1.171875 -10.078125 1.171875 -10.078125 C 1.171875 -10.078125 3.796875 -10.078125 3.796875 -10.078125 C 3.796875 -10.078125 3.796875 -8.109375 3.796875 -8.109375 C 4.34375 -9.46875 5.390625 -10.25 6.59375 -10.25 C 6.671875 -10.25 6.765625 -10.25 6.90625 -10.234375 C 6.90625 -10.234375 6.90625 -7.578125 6.90625 -7.578125 Z M 6.90625 -7.578125 "/>
</g>
<g id="glyph-15-8-76b013a3">
<path d="M 3.859375 0 C 3.859375 0 1.25 0 1.25 0 C 1.25 0 1.25 -13.609375 1.25 -13.609375 C 1.25 -13.609375 3.859375 -13.609375 3.859375 -13.609375 C 3.859375 -13.609375 3.859375 0 3.859375 0 Z M 3.859375 0 "/>
</g>
<g id="glyph-15-9-76b013a3">
<path d="M 3.859375 0 C 3.859375 0 1.25 0 1.25 0 C 1.25 0 1.25 -10.078125 1.25 -10.078125 C 1.25 -10.078125 3.859375 -10.078125 3.859375 -10.078125 C 3.859375 -10.078125 3.859375 0 3.859375 0 Z M 3.90625 -11.296875 C 3.90625 -11.296875 1.28125 -11.296875 1.28125 -11.296875 C 1.28125 -11.296875 1.28125 -13.90625 1.28125 -13.90625 C 1.28125 -13.90625 3.90625 -13.90625 3.90625 -13.90625 C 3.90625 -13.90625 3.90625 -11.296875 3.90625 -11.296875 Z M 3.90625 -11.296875 "/>
</g>
<g id="glyph-15-10-76b013a3">
<path d="M 15.390625 0 C 15.390625 0 12.765625 0 12.765625 0 C 12.765625 0 12.765625 -6.71875 12.765625 -6.71875 C 12.765625 -7.53125 12.234375 -8.03125 11.359375 -8.03125 C 10.234375 -8.03125 9.5625 -7.28125 9.5625 -6.046875 C 9.5625 -6.046875 9.5625 0 9.5625 0 C 9.5625 0 6.953125 0 6.953125 0 C 6.953125 0 6.953125 -6.71875 6.953125 -6.71875 C 6.953125 -7.53125 6.40625 -8.03125 5.53125 -8.03125 C 4.40625 -8.03125 3.734375 -7.28125 3.734375 -6.046875 C 3.734375 -6.046875 3.734375 0 3.734375 0 C 3.734375 0 1.125 0 1.125 0 C 1.125 0 1.125 -10.078125 1.125 -10.078125 C 1.125 -10.078125 3.71875 -10.078125 3.71875 -10.078125 C 3.71875 -10.078125 3.71875 -8.828125 3.71875 -8.828125 C 4.578125 -9.859375 5.328125 -10.25 6.484375 -10.25 C 7.734375 -10.25 8.734375 -9.703125 9.21875 -8.75 C 10.015625 -9.796875 10.90625 -10.25 12.171875 -10.25 C 14.1875 -10.25 15.390625 -9.09375 15.390625 -7.125 C 15.390625 -7.125 15.390625 0 15.390625 0 Z M 15.390625 0 "/>
</g>
<g id="glyph-15-11-76b013a3">
<path d="M 10.015625 -10.078125 C 10.015625 -10.078125 6.53125 0 6.53125 0 C 6.53125 0 3.796875 0 3.796875 0 C 3.796875 0 0.265625 -10.078125 0.265625 -10.078125 C 0.265625 -10.078125 3.03125 -10.078125 3.03125 -10.078125 C 3.03125 -10.078125 5.203125 -2.703125 5.203125 -2.703125 C 5.203125 -2.703125 7.25 -10.078125 7.25 -10.078125 C 7.25 -10.078125 10.015625 -10.078125 10.015625 -10.078125 Z M 10.015625 -10.078125 "/>
</g>
<g id="glyph-15-12-76b013a3">
<path d="M 10.09375 0 C 10.09375 0 7.484375 0 7.484375 0 C 7.484375 0 7.484375 -1.328125 7.484375 -1.328125 C 6.734375 -0.34375 5.828125 0.171875 4.46875 0.171875 C 2.3125 0.171875 1.078125 -1.109375 1.078125 -3.328125 C 1.078125 -3.328125 1.078125 -10.078125 1.078125 -10.078125 C 1.078125 -10.078125 3.703125 -10.078125 3.703125 -10.078125 C 3.703125 -10.078125 3.703125 -3.859375 3.703125 -3.859375 C 3.703125 -2.65625 4.25 -2.046875 5.375 -2.046875 C 6.640625 -2.046875 7.484375 -2.84375 7.484375 -4.03125 C 7.484375 -4.03125 7.484375 -10.078125 7.484375 -10.078125 C 7.484375 -10.078125 10.09375 -10.078125 10.09375 -10.078125 C 10.09375 -10.078125 10.09375 0 10.09375 0 Z M 10.09375 0 "/>
</g>
<g id="glyph-15-13-76b013a3">
<path d="M 5.65625 3.734375 C 5.65625 3.734375 3.796875 3.734375 3.796875 3.734375 C 1.640625 0.5 0.75 -2.078125 0.75 -4.953125 C 0.75 -7.8125 1.640625 -10.375 3.796875 -13.609375 C 3.796875 -13.609375 5.65625 -13.609375 5.65625 -13.609375 C 3.671875 -9.796875 3.046875 -7.671875 3.046875 -4.953125 C 3.046875 -2.203125 3.671875 -0.109375 5.65625 3.734375 Z M 5.65625 3.734375 "/>
</g>
<g id="glyph-15-14-76b013a3">
<path d="M 9.65625 -4.5 C 9.65625 -1.640625 7.71875 0.171875 4.875 0.171875 C 2.296875 0.171875 0.5 -1.40625 0.5 -3.71875 C 0.5 -3.71875 3.078125 -3.71875 3.078125 -3.71875 C 3.078125 -2.65625 3.765625 -2.078125 4.90625 -2.078125 C 6.21875 -2.078125 7.046875 -2.890625 7.046875 -4.4375 C 7.046875 -6.046875 6.234375 -6.875 4.90625 -6.875 C 4.109375 -6.875 3.515625 -6.515625 3.234375 -5.859375 C 3.234375 -5.859375 0.875 -5.859375 0.875 -5.859375 C 0.875 -5.859375 2.046875 -13.234375 2.046875 -13.234375 C 2.046875 -13.234375 9.125 -13.234375 9.125 -13.234375 C 9.125 -13.234375 9.125 -10.90625 9.125 -10.90625 C 9.125 -10.90625 3.65625 -10.90625 3.65625 -10.90625 C 3.65625 -10.90625 3.234375 -8.140625 3.234375 -8.140625 C 4 -8.71875 4.65625 -8.9375 5.53125 -8.9375 C 7.96875 -8.9375 9.65625 -7.203125 9.65625 -4.5 Z M 9.65625 -4.5 "/>
</g>
<g id="glyph-15-15-76b013a3">
<path d="M 9.65625 -6.59375 C 9.65625 -1.359375 7.78125 0.171875 5.09375 0.171875 C 1.265625 0.171875 0.546875 -2.96875 0.546875 -6.671875 C 0.546875 -10.46875 1.3125 -13.515625 5.09375 -13.515625 C 8.984375 -13.515625 9.65625 -10.34375 9.65625 -6.59375 Z M 7.046875 -6.640625 C 7.046875 -10.75 6.390625 -11.40625 5.09375 -11.40625 C 3.703125 -11.40625 3.15625 -10.53125 3.15625 -6.6875 C 3.15625 -2.75 3.765625 -2.078125 5.09375 -2.078125 C 6.5 -2.078125 7.046875 -2.9375 7.046875 -6.640625 Z M 7.046875 -6.640625 "/>
</g>
<g id="glyph-15-16-76b013a3">
<path d="M 3.921875 1.75 C 3.921875 3.390625 3.25 4.078125 1.625 4.078125 C 1.25 4.078125 0.59375 4.03125 0.078125 3.984375 C 0.078125 3.984375 0.078125 1.890625 0.078125 1.890625 C 0.265625 1.9375 0.375 1.953125 0.546875 1.953125 C 1.109375 1.953125 1.3125 1.75 1.3125 1.171875 C 1.3125 1.171875 1.3125 -10.078125 1.3125 -10.078125 C 1.3125 -10.078125 3.921875 -10.078125 3.921875 -10.078125 C 3.921875 -10.078125 3.921875 1.75 3.921875 1.75 Z M 3.921875 -11.296875 C 3.921875 -11.296875 1.3125 -11.296875 1.3125 -11.296875 C 1.3125 -11.296875 1.3125 -13.90625 1.3125 -13.90625 C 1.3125 -13.90625 3.921875 -13.90625 3.921875 -13.90625 C 3.921875 -13.90625 3.921875 -11.296875 3.921875 -11.296875 Z M 3.921875 -11.296875 "/>
</g>
<g id="glyph-15-17-76b013a3">
<path d="M 9.75 -3.484375 C 9.5 -1.34375 7.8125 0.171875 5.359375 0.171875 C 2.375 0.171875 0.640625 -1.640625 0.640625 -4.96875 C 0.640625 -8.40625 2.390625 -10.25 5.390625 -10.25 C 7.921875 -10.25 9.5625 -8.78125 9.75 -6.3125 C 9.75 -6.3125 7.25 -6.3125 7.25 -6.3125 C 6.953125 -7.640625 6.4375 -8.140625 5.375 -8.140625 C 3.734375 -8.140625 3.25 -6.8125 3.25 -4.96875 C 3.25 -3 4.046875 -1.9375 5.375 -1.9375 C 6.390625 -1.9375 6.90625 -2.453125 7.25 -3.484375 C 7.25 -3.484375 9.75 -3.484375 9.75 -3.484375 Z M 9.75 -3.484375 "/>
</g>
<g id="glyph-15-18-76b013a3">
<path d="M 9.703125 -2.984375 C 9.703125 -0.953125 8.140625 0.171875 5.296875 0.171875 C 2.234375 0.171875 0.609375 -0.984375 0.546875 -3.1875 C 0.546875 -3.1875 3.09375 -3.1875 3.09375 -3.1875 C 3.328125 -2.109375 3.953125 -1.890625 5.15625 -1.890625 C 6.359375 -1.890625 7.09375 -2.125 7.09375 -2.75 C 7.09375 -3.03125 6.875 -3.234375 6.21875 -3.4375 C 6.21875 -3.4375 3.09375 -4.40625 3.09375 -4.40625 C 1.234375 -4.984375 0.890625 -5.65625 0.890625 -6.890625 C 0.890625 -8.96875 2.484375 -10.25 5.046875 -10.25 C 7.75 -10.25 9.390625 -8.96875 9.421875 -6.828125 C 9.421875 -6.828125 6.90625 -6.828125 6.90625 -6.828125 C 6.890625 -7.75 6.28125 -8.203125 5.015625 -8.203125 C 4.109375 -8.203125 3.515625 -7.828125 3.515625 -7.265625 C 3.515625 -6.859375 3.703125 -6.6875 4.421875 -6.484375 C 4.421875 -6.484375 7.734375 -5.53125 7.734375 -5.53125 C 9.0625 -5.140625 9.703125 -4.28125 9.703125 -3.125 C 9.703125 -3.125 9.703125 -2.984375 9.703125 -2.984375 Z M 9.703125 -2.984375 "/>
</g>
<g id="glyph-15-19-76b013a3">
<path d="M 5.328125 -4.921875 C 5.328125 -2.078125 4.421875 0.5 2.28125 3.734375 C 2.28125 3.734375 0.40625 3.734375 0.40625 3.734375 C 2.390625 -0.078125 3.03125 -2.203125 3.03125 -4.921875 C 3.03125 -7.671875 2.390625 -9.765625 0.40625 -13.609375 C 0.40625 -13.609375 2.28125 -13.609375 2.28125 -13.609375 C 4.421875 -10.375 5.328125 -7.8125 5.328125 -4.921875 Z M 5.328125 -4.921875 "/>
</g>
</g>
</defs>
<path fill-rule="nonzero" fill="rgb(100%, 100%, 100%)" fill-opacity="1" d="M 0 0 L 666.667969 0 L 666.667969 466.667969 L 0 466.667969 Z M 0 0 "/>
<path fill-rule="nonzero" fill="rgb(100%, 100%, 100%)" fill-opacity="1" d="M 72 388 L 645.332031 388 L 645.332031 48 L 72 48 Z M 72 388 "/>
<path fill="none" stroke-width="1" stroke-linecap="butt" stroke-linejoin="miter" stroke="rgb(0%, 0%, 0%)" stroke-opacity="0.12" stroke-miterlimit="1.154701" d="M 73.546875 291 L 73.546875 36 " transform="matrix(1.333333, 0, 0, 1.333333, 0, 0)"/>
<path fill="none" stroke-width="1" stroke-linecap="butt" stroke-linejoin="miter" stroke="rgb(0%, 0%, 0%)" stroke-opacity="0.12" stroke-miterlimit="1.154701" d="M 269.000977 291 L 269.000977 36 " transform="matrix(1.333333, 0, 0, 1.333333, 0, 0)"/>
<path fill="none" stroke-width="1" stroke-linecap="butt" stroke-linejoin="miter" stroke="rgb(0%, 0%, 0%)" stroke-opacity="0.12" stroke-miterlimit="1.154701" d="M 464.455078 291 L 464.455078 36 " transform="matrix(1.333333, 0, 0, 1.333333, 0, 0)"/>
<path fill="none" stroke-width="1" stroke-linecap="butt" stroke-linejoin="miter" stroke="rgb(0%, 0%, 0%)" stroke-opacity="0.12" stroke-miterlimit="1.154701" d="M 54 279.410156 L 483.999023 279.410156 " transform="matrix(1.333333, 0, 0, 1.333333, 0, 0)"/>
<path fill="none" stroke-width="1" stroke-linecap="butt" stroke-linejoin="miter" stroke="rgb(0%, 0%, 0%)" stroke-opacity="0.12" stroke-miterlimit="1.154701" d="M 54 221.455078 L 483.999023 221.455078 " transform="matrix(1.333333, 0, 0, 1.333333, 0, 0)"/>
<path fill="none" stroke-width="1" stroke-linecap="butt" stroke-linejoin="miter" stroke="rgb(0%, 0%, 0%)" stroke-opacity="0.12" stroke-miterlimit="1.154701" d="M 54 163.5 L 483.999023 163.5 " transform="matrix(1.333333, 0, 0, 1.333333, 0, 0)"/>
<path fill="none" stroke-width="1" stroke-linecap="butt" stroke-linejoin="miter" stroke="rgb(0%, 0%, 0%)" stroke-opacity="0.12" stroke-miterlimit="1.154701" d="M 54 105.544922 L 483.999023 105.544922 " transform="matrix(1.333333, 0, 0, 1.333333, 0, 0)"/>
<path fill="none" stroke-width="1" stroke-linecap="butt" stroke-linejoin="miter" stroke="rgb(0%, 0%, 0%)" stroke-opacity="0.12" stroke-miterlimit="1.154701" d="M 54 47.589844 L 483.999023 47.589844 " transform="matrix(1.333333, 0, 0, 1.333333, 0, 0)"/>
<g fill="rgb(0%, 0%, 0%)" fill-opacity="1">
<use xlink:href="#glyph-0-0-76b013a3" x="337.928016" y="442.090667"/>
</g>
<g fill="rgb(0%, 0%, 0%)" fill-opacity="1">
<use xlink:href="#glyph-1-0-76b013a3" x="349.33335" y="442.090667"/>
<use xlink:href="#glyph-1-1-76b013a3" x="353.47735" y="442.090667"/>
<use xlink:href="#glyph-1-2-76b013a3" x="369.026684" y="442.090667"/>
</g>
<g fill="rgb(0%, 0%, 0%)" fill-opacity="1">
<use xlink:href="#glyph-1-3-76b013a3" x="92.871279" y="416.344001"/>
</g>
<g fill="rgb(0%, 0%, 0%)" fill-opacity="1">
<use xlink:href="#glyph-1-4-76b013a3" x="353.47735" y="416.344001"/>
</g>
<g fill="rgb(0%, 0%, 0%)" fill-opacity="1">
<use xlink:href="#glyph-1-5-76b013a3" x="608.894108" y="416.344001"/>
<use xlink:href="#glyph-1-3-76b013a3" x="619.272775" y="416.344001"/>
</g>
<g fill="rgb(0%, 0%, 0%)" fill-opacity="1">
<use xlink:href="#glyph-2-0-76b013a3" x="37.551997" y="296.334652"/>
</g>
<g fill="rgb(0%, 0%, 0%)" fill-opacity="1">
<use xlink:href="#glyph-3-0-76b013a3" x="37.551998" y="283.883984"/>
</g>
<g fill="rgb(0%, 0%, 0%)" fill-opacity="1">
<use xlink:href="#glyph-4-0-76b013a3" x="37.551998" y="274.550651"/>
</g>
<g fill="rgb(0%, 0%, 0%)" fill-opacity="1">
<use xlink:href="#glyph-5-0-76b013a3" x="37.551999" y="264.171984"/>
</g>
<g fill="rgb(0%, 0%, 0%)" fill-opacity="1">
<use xlink:href="#glyph-6-0-76b013a3" x="37.551999" y="253.793319"/>
</g>
<g fill="rgb(0%, 0%, 0%)" fill-opacity="1">
<use xlink:href="#glyph-2-1-76b013a3" x="37.552" y="244.459986"/>
</g>
<g fill="rgb(0%, 0%, 0%)" fill-opacity="1">
<use xlink:href="#glyph-7-0-76b013a3" x="37.552" y="239.270656"/>
<use xlink:href="#glyph-7-1-76b013a3" x="37.552001" y="228.891989"/>
</g>
<g fill="rgb(0%, 0%, 0%)" fill-opacity="1">
<use xlink:href="#glyph-8-0-76b013a3" x="37.552001" y="223.702659"/>
</g>
<g fill="rgb(0%, 0%, 0%)" fill-opacity="1">
<use xlink:href="#glyph-9-0-76b013a3" x="37.552002" y="219.558657"/>
</g>
<g fill="rgb(0%, 0%, 0%)" fill-opacity="1">
<use xlink:href="#glyph-10-0-76b013a3" x="37.552002" y="209.179996"/>
</g>
<g fill="rgb(0%, 0%, 0%)" fill-opacity="1">
<use xlink:href="#glyph-11-0-76b013a3" x="37.552003" y="198.801335"/>
</g>
<g fill="rgb(0%, 0%, 0%)" fill-opacity="1">
<use xlink:href="#glyph-2-2-76b013a3" x="37.552003" y="193.612005"/>
</g>
<g fill="rgb(0%, 0%, 0%)" fill-opacity="1">
<use xlink:href="#glyph-7-0-76b013a3" x="37.552003" y="184.278672"/>
<use xlink:href="#glyph-7-2-76b013a3" x="37.552004" y="173.900012"/>
</g>
<g fill="rgb(0%, 0%, 0%)" fill-opacity="1">
<use xlink:href="#glyph-12-0-76b013a3" x="37.552004" y="169.75601"/>
</g>
<g fill="rgb(0%, 0%, 0%)" fill-opacity="1">
<use xlink:href="#glyph-5-0-76b013a3" x="37.552005" y="159.377348"/>
<use xlink:href="#glyph-5-1-76b013a3" x="37.552006" y="148.998686"/>
</g>
<g fill="rgb(0%, 0%, 0%)" fill-opacity="1">
<use xlink:href="#glyph-1-3-76b013a3" x="48.288002" y="379.349452"/>
</g>
<g fill="rgb(0%, 0%, 0%)" fill-opacity="1">
<use xlink:href="#glyph-1-6-76b013a3" x="48.288002" y="302.076727"/>
</g>
<g fill="rgb(0%, 0%, 0%)" fill-opacity="1">
<use xlink:href="#glyph-1-7-76b013a3" x="48.288002" y="224.804003"/>
</g>
<g fill="rgb(0%, 0%, 0%)" fill-opacity="1">
<use xlink:href="#glyph-1-8-76b013a3" x="48.288002" y="147.531278"/>
</g>
<g fill="rgb(0%, 0%, 0%)" fill-opacity="1">
<use xlink:href="#glyph-13-0-76b013a3" x="48.288002" y="70.258554"/>
</g>
<g fill="rgb(0%, 0%, 0%)" fill-opacity="1">
<use xlink:href="#glyph-14-0-76b013a3" x="161.584053" y="38.597338"/>
</g>
<g fill="rgb(0%, 0%, 0%)" fill-opacity="1">
<use xlink:href="#glyph-15-0-76b013a3" x="177.133391" y="38.597338"/>
<use xlink:href="#glyph-15-1-76b013a3" x="188.538726" y="38.597338"/>
<use xlink:href="#glyph-15-2-76b013a3" x="199.944061" y="38.597338"/>
<use xlink:href="#glyph-15-3-76b013a3" x="206.160054" y="38.597338"/>
<use xlink:href="#glyph-15-4-76b013a3" x="216.538727" y="38.597338"/>
<use xlink:href="#glyph-15-5-76b013a3" x="221.728058" y="38.597338"/>
<use xlink:href="#glyph-15-6-76b013a3" x="235.205384" y="38.597338"/>
<use xlink:href="#glyph-15-7-76b013a3" x="245.584057" y="38.597338"/>
<use xlink:href="#glyph-15-8-76b013a3" x="252.84539" y="38.597338"/>
<use xlink:href="#glyph-15-0-76b013a3" x="258.034721" y="38.597338"/>
<use xlink:href="#glyph-15-4-76b013a3" x="269.440056" y="38.597338"/>
<use xlink:href="#glyph-15-2-76b013a3" x="274.629387" y="38.597338"/>
<use xlink:href="#glyph-15-9-76b013a3" x="280.845391" y="38.597338"/>
<use xlink:href="#glyph-15-10-76b013a3" x="286.034722" y="38.597338"/>
<use xlink:href="#glyph-15-3-76b013a3" x="302.629389" y="38.597338"/>
<use xlink:href="#glyph-15-4-76b013a3" x="313.008051" y="38.597338"/>
<use xlink:href="#glyph-15-3-76b013a3" x="318.197382" y="38.597338"/>
<use xlink:href="#glyph-15-11-76b013a3" x="328.576045" y="38.597338"/>
<use xlink:href="#glyph-15-0-76b013a3" x="338.954708" y="38.597338"/>
<use xlink:href="#glyph-15-8-76b013a3" x="350.360043" y="38.597338"/>
<use xlink:href="#glyph-15-12-76b013a3" x="355.549374" y="38.597338"/>
<use xlink:href="#glyph-15-2-76b013a3" x="366.954709" y="38.597338"/>
<use xlink:href="#glyph-15-9-76b013a3" x="373.170713" y="38.597338"/>
<use xlink:href="#glyph-15-0-76b013a3" x="378.360044" y="38.597338"/>
<use xlink:href="#glyph-15-1-76b013a3" x="389.765379" y="38.597338"/>
<use xlink:href="#glyph-15-4-76b013a3" x="401.170714" y="38.597338"/>
<use xlink:href="#glyph-15-13-76b013a3" x="406.360045" y="38.597338"/>
<use xlink:href="#glyph-15-14-76b013a3" x="412.576049" y="38.597338"/>
<use xlink:href="#glyph-15-15-76b013a3" x="422.954712" y="38.597338"/>
<use xlink:href="#glyph-15-15-76b013a3" x="433.333374" y="38.597338"/>
<use xlink:href="#glyph-15-4-76b013a3" x="443.712037" y="38.597338"/>
<use xlink:href="#glyph-15-2-76b013a3" x="448.901368" y="38.597338"/>
<use xlink:href="#glyph-15-7-76b013a3" x="455.117372" y="38.597338"/>
<use xlink:href="#glyph-15-6-76b013a3" x="462.378704" y="38.597338"/>
<use xlink:href="#glyph-15-16-76b013a3" x="472.757367" y="38.597338"/>
<use xlink:href="#glyph-15-3-76b013a3" x="477.946698" y="38.597338"/>
<use xlink:href="#glyph-15-17-76b013a3" x="488.325361" y="38.597338"/>
<use xlink:href="#glyph-15-2-76b013a3" x="498.704024" y="38.597338"/>
<use xlink:href="#glyph-15-0-76b013a3" x="504.920007" y="38.597338"/>
<use xlink:href="#glyph-15-7-76b013a3" x="516.325322" y="38.597338"/>
<use xlink:href="#glyph-15-9-76b013a3" x="523.586674" y="38.597338"/>
<use xlink:href="#glyph-15-3-76b013a3" x="528.776006" y="38.597338"/>
<use xlink:href="#glyph-15-18-76b013a3" x="539.154668" y="38.597338"/>
<use xlink:href="#glyph-15-19-76b013a3" x="549.533331" y="38.597338"/>
</g>
<path fill="none" stroke-width="1.5" stroke-linecap="butt" stroke-linejoin="miter" stroke="rgb(0%, 44.705883%, 69.803923%)" stroke-opacity="1" stroke-miterlimit="2" d="M 73.546875 47.589844 L 75.509766 50.62793 L 77.475586 55.795898 L 79.438477 62.4375 L 81.404297 69.720703 L 83.367188 76.248047 L 85.333008 81.820312 L 87.295898 84.553711 L 89.261719 84.37793 L 91.224609 81.474609 L 93.19043 77.167969 L 95.15332 72.37207 L 97.119141 67.576172 L 99.082031 64.350586 L 101.047852 63.416016 L 103.010742 65.53418 L 104.976562 69.993164 L 106.939453 75.93457 L 108.905273 83.138672 L 110.868164 89.926758 L 112.833984 95.334961 L 114.796875 99.181641 L 116.762695 100.845703 L 118.725586 99.500977 L 120.691406 96.404297 L 122.654297 92.179688 L 124.620117 87.588867 L 126.583008 83.888672 L 128.548828 81.210938 L 130.511719 80.774414 L 132.477539 82.59375 L 134.44043 86.408203 L 136.40625 91.839844 L 138.369141 97.661133 L 140.334961 103.350586 L 142.297852 107.891602 L 144.263672 111.196289 L 146.226562 112.31543 L 148.192383 111.626953 L 150.155273 109.280273 L 152.121094 106.095703 L 154.083984 102.890625 L 156.049805 99.9375 L 158.012695 98.006836 L 159.978516 97.277344 L 161.941406 98.279297 L 163.907227 101.106445 L 165.870117 105.322266 L 167.835938 109.643555 L 169.798828 113.929688 L 171.764648 117.5625 L 173.727539 120.27832 L 175.693359 121.734375 L 177.65625 121.740234 L 179.62207 120.65918 L 181.584961 119.135742 L 183.550781 117.313477 L 185.513672 115.333008 L 187.479492 114.208008 L 189.442383 113.991211 L 191.408203 114.310547 L 193.371094 116.135742 L 195.336914 118.382812 L 197.299805 121.160156 L 199.265625 123.820312 L 201.228516 126.383789 L 203.194336 128.862305 L 205.157227 129.999023 L 207.123047 130.87793 L 209.085938 130.945312 L 211.051758 130.473633 L 213.014648 129.741211 L 214.980469 129.603516 L 216.943359 129.328125 L 218.90918 129.298828 L 220.87207 129.902344 L 222.837891 130.851562 L 224.800781 131.976562 L 226.766602 133.828125 L 228.729492 135.339844 L 230.695312 136.866211 L 232.658203 138.345703 L 234.624023 140.015625 L 236.586914 140.666016 L 238.552734 141.322266 L 240.515625 142.03418 L 242.481445 141.999023 L 244.444336 142.338867 L 246.410156 142.514648 L 248.373047 142.605469 L 250.338867 142.819336 L 252.301758 143.291016 L 254.267578 144.105469 L 256.230469 144.829102 L 258.196289 145.992188 L 260.15918 146.683594 L 262.125 147.779297 L 264.087891 148.728516 L 266.053711 149.352539 L 268.016602 150.149414 L 269.982422 150.328125 L 271.945312 150.764648 L 273.911133 151.081055 L 275.874023 151.230469 L 277.839844 151.769531 L 279.802734 152.490234 L 281.768555 153.079102 L 283.731445 154.139648 L 285.697266 155.299805 L 287.660156 156.017578 L 289.625977 156.635742 L 291.588867 157.942383 L 293.554688 158.830078 L 295.517578 159.421875 L 297.483398 160.274414 L 299.446289 160.708008 L 301.412109 161.200195 L 303.375 161.050781 L 305.34082 161.323242 L 307.303711 161.542969 L 309.269531 161.917969 L 311.232422 162.164062 L 313.198242 162.74707 L 315.164062 163.362305 L 317.126953 164.206055 L 319.092773 165.155273 L 321.055664 166.189453 L 323.021484 167.197266 L 324.984375 168.026367 L 326.950195 169.189453 L 328.913086 169.59375 L 330.878906 170.000977 L 332.841797 170.71582 L 334.807617 170.835938 L 336.770508 170.917969 L 338.736328 171.079102 L 340.699219 171.208008 L 342.665039 171.228516 L 344.62793 171.635742 L 346.59375 171.741211 L 348.556641 172.195312 L 350.522461 172.611328 L 352.485352 173.560547 L 354.451172 174.295898 L 356.414062 175.180664 L 358.379883 176.162109 L 360.342773 176.950195 L 362.308594 177.870117 L 364.271484 178.708008 L 366.237305 179.273438 L 368.200195 179.876953 L 370.166016 180.336914 L 372.128906 180.717773 L 374.094727 180.999023 L 376.057617 181.3125 L 378.023438 181.482422 L 379.986328 181.658203 L 381.952148 181.719727 L 383.915039 182.15625 L 385.880859 182.598633 L 387.84375 183.055664 L 389.80957 183.74707 L 391.772461 184.438477 L 393.738281 185.194336 L 395.701172 185.961914 L 397.666992 186.873047 L 399.629883 187.344727 L 401.595703 187.798828 L 403.558594 188.674805 L 405.524414 188.956055 L 407.487305 189.328125 L 409.453125 189.539062 L 411.416016 189.65625 L 413.381836 189.764648 L 415.344727 190.004883 L 417.310547 190.664062 L 419.273438 190.927734 L 421.239258 191.314453 L 423.202148 191.645508 L 425.167969 192.120117 L 427.130859 192.984375 L 429.09668 193.918945 L 431.05957 194.595703 L 433.025391 195.225586 L 434.988281 195.767578 L 436.954102 196.207031 L 438.916992 196.488281 L 440.882812 196.772461 L 442.845703 196.927734 L 444.811523 197.173828 L 446.774414 197.487305 L 448.740234 197.704102 L 450.703125 198.108398 L 452.668945 198.500977 L 454.631836 198.606445 L 456.597656 198.908203 L 458.560547 199.12207 L 460.526367 199.951172 L 462.489258 200.384766 L 464.455078 200.891602 " transform="matrix(1.333333, 0, 0, 1.333333, 0, 0)"/>
<path fill="none" stroke-width="1.5" stroke-linecap="butt" stroke-linejoin="miter" stroke="rgb(90.196079%, 62.352943%, 0%)" stroke-opacity="1" stroke-dasharray="4.5 4.5" stroke-miterlimit="2" d="M 73.546875 279.410156 L 75.509766 277.995117 L 77.475586 274.042969 L 79.438477 268.330078 L 81.404297 261.975586 L 83.367188 256.201172 L 85.333008 252.134766 L 87.295898 250.50293 L 89.261719 251.604492 L 91.224609 255.205078 L 93.19043 260.613281 L 95.15332 266.797852 L 97.119141 272.581055 L 99.082031 276.908203 L 101.047852 279 L 103.010742 278.504883 L 104.976562 275.554688 L 106.939453 270.711914 L 108.905273 264.899414 L 110.868164 259.154297 L 112.833984 254.499023 L 114.796875 251.753906 L 116.762695 251.364258 L 118.725586 253.347656 L 120.691406 257.311523 L 122.654297 262.523438 L 124.620117 268.040039 L 126.583008 272.900391 L 128.548828 276.272461 L 130.511719 277.637695 L 132.477539 276.802734 L 134.44043 273.972656 L 136.40625 269.701172 L 138.369141 264.75 L 140.334961 259.986328 L 142.297852 256.198242 L 144.263672 253.998047 L 146.226562 253.6875 L 148.192383 255.246094 L 150.155273 258.345703 L 152.121094 262.400391 L 154.083984 266.704102 L 156.049805 270.527344 L 158.012695 273.269531 L 159.978516 274.523438 L 161.941406 274.157227 L 163.907227 272.314453 L 165.870117 269.373047 L 167.835938 265.866211 L 169.798828 262.391602 L 171.764648 259.508789 L 173.727539 257.666016 L 175.693359 257.077148 L 177.65625 257.765625 L 179.62207 259.541016 L 181.584961 262.051758 L 183.550781 264.858398 L 185.513672 267.477539 L 187.479492 269.53125 L 189.442383 270.732422 L 191.408203 270.93457 L 193.371094 270.210938 L 195.336914 268.713867 L 197.299805 266.750977 L 199.265625 264.667969 L 201.228516 262.798828 L 203.194336 261.424805 L 205.157227 260.695312 L 207.123047 260.683594 L 209.085938 261.313477 L 211.051758 262.420898 L 213.014648 263.791992 L 214.980469 265.204102 L 216.943359 266.405273 L 218.90918 267.246094 L 220.87207 267.629883 L 222.837891 267.547852 L 224.800781 267.061523 L 226.766602 266.311523 L 228.729492 265.438477 L 230.695312 264.606445 L 232.658203 263.938477 L 234.624023 263.542969 L 236.586914 263.414062 L 238.552734 263.569336 L 240.515625 263.958984 L 242.481445 264.457031 L 244.444336 264.987305 L 246.410156 265.450195 L 248.373047 265.763672 L 250.338867 265.895508 L 252.301758 265.831055 L 254.267578 265.59375 L 256.230469 265.277344 L 258.196289 264.867188 L 260.15918 264.46582 L 262.125 264.18457 L 264.087891 264.043945 L 266.053711 264.058594 L 268.016602 264.246094 L 269.982422 264.530273 L 271.945312 264.905273 L 273.911133 265.283203 L 275.874023 265.599609 L 277.839844 265.813477 L 279.802734 265.904297 L 281.768555 265.836914 L 283.731445 265.646484 L 285.697266 265.353516 L 287.660156 264.984375 L 289.625977 264.597656 L 291.588867 264.27832 L 293.554688 264.029297 L 295.517578 263.897461 L 297.483398 263.915039 L 299.446289 264.061523 L 301.412109 264.322266 L 303.375 264.644531 L 305.34082 265.010742 L 307.303711 265.371094 L 309.269531 265.69043 L 311.232422 265.910156 L 313.198242 266.021484 L 315.164062 265.986328 L 317.126953 265.836914 L 319.092773 265.584961 L 321.055664 265.245117 L 323.021484 264.873047 L 324.984375 264.509766 L 326.950195 264.213867 L 328.913086 263.982422 L 330.878906 263.868164 L 332.841797 263.90625 L 334.807617 264.076172 L 336.770508 264.339844 L 338.736328 264.700195 L 340.699219 265.092773 L 342.665039 265.479492 L 344.62793 265.825195 L 346.59375 266.068359 L 348.556641 266.194336 L 350.522461 266.182617 L 352.485352 266.044922 L 354.451172 265.772461 L 356.414062 265.40918 L 358.379883 265.007812 L 360.342773 264.568359 L 362.308594 264.169922 L 364.271484 263.853516 L 366.237305 263.636719 L 368.200195 263.554688 L 370.166016 263.616211 L 372.128906 263.81543 L 374.094727 264.114258 L 376.057617 264.495117 L 378.023438 264.905273 L 379.986328 265.30957 L 381.952148 265.652344 L 383.915039 265.910156 L 385.880859 266.047852 L 387.84375 266.056641 L 389.80957 265.942383 L 391.772461 265.713867 L 393.738281 265.423828 L 395.701172 265.119141 L 397.666992 264.84668 L 399.629883 264.603516 L 401.595703 264.439453 L 403.558594 264.375 L 405.524414 264.383789 L 407.487305 264.477539 L 409.453125 264.612305 L 411.416016 264.785156 L 413.381836 264.966797 L 415.344727 265.133789 L 417.310547 265.286133 L 419.273438 265.368164 L 421.239258 265.385742 L 423.202148 265.347656 L 425.167969 265.277344 L 427.130859 265.168945 L 429.09668 265.042969 L 431.05957 264.946289 L 433.025391 264.837891 L 434.988281 264.761719 L 436.954102 264.726562 L 438.916992 264.735352 L 440.882812 264.796875 L 442.845703 264.873047 L 444.811523 264.975586 L 446.774414 265.066406 L 448.740234 265.139648 L 450.703125 265.201172 L 452.668945 265.21582 L 454.631836 265.168945 L 456.597656 265.095703 L 458.560547 264.999023 L 460.526367 264.922852 L 462.489258 264.837891 L 464.455078 264.793945 " transform="matrix(1.333333, 0, 0, 1.333333, 0, 0)"/>
<path fill-rule="nonzero" fill="rgb(100%, 100%, 100%)" fill-opacity="1" stroke-width="1" stroke-linecap="butt" stroke-linejoin="miter" stroke="rgb(0%, 0%, 0%)" stroke-opacity="1" stroke-miterlimit="2" d="M 279 96.999023 L 477.999023 96.999023 L 477.999023 42 L 279 42 Z M 279 96.999023 " transform="matrix(1.333333, 0, 0, 1.333333, 0, 0)"/>
<path fill="none" stroke-width="1" stroke-linecap="butt" stroke-linejoin="miter" stroke="rgb(0%, 0%, 0%)" stroke-opacity="1" stroke-miterlimit="1.154701" d="M 73.546875 291.500977 L 73.546875 296.499023 " transform="matrix(1.333333, 0, 0, 1.333333, 0, 0)"/>
<path fill="none" stroke-width="1" stroke-linecap="butt" stroke-linejoin="miter" stroke="rgb(0%, 0%, 0%)" stroke-opacity="1" stroke-miterlimit="1.154701" d="M 269.000977 291.500977 L 269.000977 296.499023 " transform="matrix(1.333333, 0, 0, 1.333333, 0, 0)"/>
<path fill="none" stroke-width="1" stroke-linecap="butt" stroke-linejoin="miter" stroke="rgb(0%, 0%, 0%)" stroke-opacity="1" stroke-miterlimit="1.154701" d="M 464.455078 291.500977 L 464.455078 296.499023 " transform="matrix(1.333333, 0, 0, 1.333333, 0, 0)"/>
<path fill="none" stroke-width="1" stroke-linecap="butt" stroke-linejoin="miter" stroke="rgb(0%, 0%, 0%)" stroke-opacity="1" stroke-miterlimit="1.154701" d="M 53.499023 279.410156 L 48.500977 279.410156 " transform="matrix(1.333333, 0, 0, 1.333333, 0, 0)"/>
<path fill="none" stroke-width="1" stroke-linecap="butt" stroke-linejoin="miter" stroke="rgb(0%, 0%, 0%)" stroke-opacity="1" stroke-miterlimit="1.154701" d="M 53.499023 221.455078 L 48.500977 221.455078 " transform="matrix(1.333333, 0, 0, 1.333333, 0, 0)"/>
<path fill="none" stroke-width="1" stroke-linecap="butt" stroke-linejoin="miter" stroke="rgb(0%, 0%, 0%)" stroke-opacity="1" stroke-miterlimit="1.154701" d="M 53.499023 163.5 L 48.500977 163.5 " transform="matrix(1.333333, 0, 0, 1.333333, 0, 0)"/>
<path fill="none" stroke-width="1" stroke-linecap="butt" stroke-linejoin="miter" stroke="rgb(0%, 0%, 0%)" stroke-opacity="1" stroke-miterlimit="1.154701" d="M 53.499023 105.544922 L 48.500977 105.544922 " transform="matrix(1.333333, 0, 0, 1.333333, 0, 0)"/>
<path fill="none" stroke-width="1" stroke-linecap="butt" stroke-linejoin="miter" stroke="rgb(0%, 0%, 0%)" stroke-opacity="1" stroke-miterlimit="1.154701" d="M 53.499023 47.589844 L 48.500977 47.589844 " transform="matrix(1.333333, 0, 0, 1.333333, 0, 0)"/>
<path fill="none" stroke-width="1.5" stroke-linecap="butt" stroke-linejoin="miter" stroke="rgb(0%, 44.705883%, 69.803923%)" stroke-opacity="1" stroke-miterlimit="2" d="M 285.079102 57.999023 L 305.080078 57.999023 " transform="matrix(1.333333, 0, 0, 1.333333, 0, 0)"/>
<path fill="none" stroke-width="1.5" stroke-linecap="butt" stroke-linejoin="miter" stroke="rgb(90.196079%, 62.352943%, 0%)" stroke-opacity="1" stroke-dasharray="4.5 4.5" stroke-miterlimit="2" d="M 285.079102 81 L 305.080078 81 " transform="matrix(1.333333, 0, 0, 1.333333, 0, 0)"/>
<g fill="rgb(0%, 0%, 0%)" fill-opacity="1">
<use xlink:href="#glyph-13-1-76b013a3" x="413.440032" y="84.137338"/>
<use xlink:href="#glyph-13-2-76b013a3" x="422.773366" y="84.137338"/>
<use xlink:href="#glyph-13-3-76b013a3" x="433.152034" y="84.137338"/>
<use xlink:href="#glyph-13-4-76b013a3" x="442.485367" y="84.137338"/>
<use xlink:href="#glyph-13-5-76b013a3" x="446.629365" y="84.137338"/>
<use xlink:href="#glyph-13-6-76b013a3" x="451.818701" y="84.137338"/>
<use xlink:href="#glyph-13-7-76b013a3" x="461.152035" y="84.137338"/>
<use xlink:href="#glyph-13-8-76b013a3" x="466.341366" y="84.137338"/>
<use xlink:href="#glyph-13-9-76b013a3" x="476.720034" y="84.137338"/>
<use xlink:href="#glyph-13-10-76b013a3" x="487.098702" y="84.137338"/>
<use xlink:href="#glyph-13-5-76b013a3" x="497.477369" y="84.137338"/>
<use xlink:href="#glyph-13-10-76b013a3" x="502.666701" y="84.137338"/>
<use xlink:href="#glyph-13-11-76b013a3" x="513.045363" y="84.137338"/>
<use xlink:href="#glyph-13-7-76b013a3" x="523.424026" y="84.137338"/>
<use xlink:href="#glyph-13-11-76b013a3" x="528.613357" y="84.137338"/>
<use xlink:href="#glyph-13-12-76b013a3" x="538.99202" y="84.137338"/>
<use xlink:href="#glyph-13-13-76b013a3" x="549.370682" y="84.137338"/>
<use xlink:href="#glyph-13-14-76b013a3" x="564.92002" y="84.137338"/>
<use xlink:href="#glyph-13-15-76b013a3" x="575.298683" y="84.137338"/>
<use xlink:href="#glyph-13-16-76b013a3" x="585.677345" y="84.137338"/>
</g>
<g fill="rgb(0%, 0%, 0%)" fill-opacity="1">
<use xlink:href="#glyph-1-9-76b013a3" x="413.440032" y="114.804004"/>
<use xlink:href="#glyph-1-10-76b013a3" x="423.818695" y="114.804004"/>
<use xlink:href="#glyph-1-11-76b013a3" x="429.008036" y="114.804004"/>
<use xlink:href="#glyph-1-1-76b013a3" x="439.386699" y="114.804004"/>
<use xlink:href="#glyph-1-12-76b013a3" x="454.936031" y="114.804004"/>
<use xlink:href="#glyph-1-2-76b013a3" x="460.125363" y="114.804004"/>
<use xlink:href="#glyph-1-13-76b013a3" x="470.50403" y="114.804004"/>
<use xlink:href="#glyph-1-14-76b013a3" x="479.837364" y="114.804004"/>
<use xlink:href="#glyph-1-0-76b013a3" x="489.170698" y="114.804004"/>
<use xlink:href="#glyph-1-10-76b013a3" x="493.3147" y="114.804004"/>
<use xlink:href="#glyph-1-9-76b013a3" x="498.504032" y="114.804004"/>
<use xlink:href="#glyph-1-10-76b013a3" x="508.882694" y="114.804004"/>
<use xlink:href="#glyph-1-0-76b013a3" x="514.072026" y="114.804004"/>
<use xlink:href="#glyph-1-11-76b013a3" x="518.216028" y="114.804004"/>
<use xlink:href="#glyph-1-15-76b013a3" x="528.594691" y="114.804004"/>
<use xlink:href="#glyph-1-12-76b013a3" x="538.973353" y="114.804004"/>
<use xlink:href="#glyph-1-16-76b013a3" x="544.162685" y="114.804004"/>
<use xlink:href="#glyph-1-17-76b013a3" x="554.541347" y="114.804004"/>
<use xlink:href="#glyph-1-11-76b013a3" x="560.757351" y="114.804004"/>
<use xlink:href="#glyph-1-18-76b013a3" x="571.136013" y="114.804004"/>
<use xlink:href="#glyph-1-9-76b013a3" x="581.514676" y="114.804004"/>
<use xlink:href="#glyph-1-18-76b013a3" x="591.893349" y="114.804004"/>
<use xlink:href="#glyph-1-0-76b013a3" x="602.272011" y="114.804004"/>
<use xlink:href="#glyph-1-19-76b013a3" x="606.416014" y="114.804004"/>
<use xlink:href="#glyph-1-0-76b013a3" x="610.560016" y="114.804004"/>
<use xlink:href="#glyph-1-10-76b013a3" x="614.704019" y="114.804004"/>
<use xlink:href="#glyph-1-20-76b013a3" x="619.89335" y="114.804004"/>
</g>
<path fill="none" stroke-width="1" stroke-linecap="butt" stroke-linejoin="miter" stroke="rgb(0%, 0%, 0%)" stroke-opacity="1" stroke-miterlimit="1.154701" d="M 53.499023 291 L 484.5 291 " transform="matrix(1.333333, 0, 0, 1.333333, 0, 0)"/>
<path fill="none" stroke-width="1" stroke-linecap="butt" stroke-linejoin="miter" stroke="rgb(0%, 0%, 0%)" stroke-opacity="1" stroke-miterlimit="1.154701" d="M 54 291.500977 L 54 35.499023 " transform="matrix(1.333333, 0, 0, 1.333333, 0, 0)"/>
<path fill="none" stroke-width="1" stroke-linecap="butt" stroke-linejoin="miter" stroke="rgb(0%, 0%, 0%)" stroke-opacity="1" stroke-miterlimit="1.154701" d="M 53.499023 36 L 484.5 36 " transform="matrix(1.333333, 0, 0, 1.333333, 0, 0)"/>
<path fill="none" stroke-width="1" stroke-linecap="butt" stroke-linejoin="miter" stroke="rgb(0%, 0%, 0%)" stroke-opacity="1" stroke-miterlimit="1.154701" d="M 483.999023 291.500977 L 483.999023 35.499023 " transform="matrix(1.333333, 0, 0, 1.333333, 0, 0)"/>
</svg>
