<?xml version="1.0" encoding="UTF-8"?>
<svg xmlns="http://www.w3.org/2000/svg" xmlns:xlink="http://www.w3.org/1999/xlink" width="667" height="467" viewBox="0 0 667 467">
<defs>
<g>
<g id="glyph-0-0-4de31d39">
<path d="M 11.078125 -12.078125 C 11.078125 -12.078125 6.609375 -12.078125 6.609375 -12.078125 C 6.609375 -12.078125 6.609375 0 6.609375 0 C 6.609375 0 4.875 0 4.875 0 C 4.875 0 4.875 -12.078125 4.875 -12.078125 C 4.875 -12.078125 0.390625 -12.078125 0.390625 -12.078125 C 0.390625 -12.078125 0.390625 -13.609375 0.390625 -13.609375 C 0.390625 -13.609375 11.078125 -13.609375 11.078125 -13.609375 C 11.078125 -13.609375 11.078125 -12.078125 11.078125 -12.078125 Z M 11.078125 -12.078125 "/>
</g>
<g id="glyph-1-0-4de31d39">
<path d="M 2.859375 0 C 2.859375 0 1.3125 0 1.3125 0 C 1.3125 0 1.3125 -9.78125 1.3125 -9.78125 C 1.3125 -9.78125 2.859375 -9.78125 2.859375 -9.78125 C 2.859375 -9.78125 2.859375 0 2.859375 0 Z M 3.0625 -11.265625 C 3.0625 -11.265625 1.125 -11.265625 1.125 -11.265625 C 1.125 -11.265625 1.125 -13.203125 1.125 -13.203125 C 1.125 -13.203125 3.0625 -13.203125 3.0625 -13.203125 C 3.0625 -13.203125 3.0625 -11.265625 3.0625 -11.265625 Z M 3.0625 -11.265625 "/>
</g>
<g id="glyph-1-1-4de31d39">
<path d="M 14.1875 0 C 14.1875 0 12.640625 0 12.640625 0 C 12.640625 0 12.640625 -6.734375 12.640625 -6.734375 C 12.640625 -7.96875 11.984375 -8.703125 10.84375 -8.703125 C 9.578125 -8.703125 8.53125 -7.5625 8.53125 -6.140625 C 8.53125 -6.140625 8.53125 0 8.53125 0 C 8.53125 0 6.984375 0 6.984375 0 C 6.984375 0 6.984375 -6.734375 6.984375 -6.734375 C 6.984375 -7.984375 6.328125 -8.703125 5.171875 -8.703125 C 3.90625 -8.703125 2.875 -7.5625 2.875 -6.140625 C 2.875 -6.140625 2.875 0 2.875 0 C 2.875 0 1.328125 0 1.328125 0 C 1.328125 0 1.328125 -9.78125 1.328125 -9.78125 C 1.328125 -9.78125 2.75 -9.78125 2.75 -9.78125 C 2.75 -9.78125 2.75 -8.40625 2.75 -8.40625 C 3.578125 -9.578125 4.4375 -10.0625 5.75 -10.0625 C 7.015625 -10.0625 7.8125 -9.609375 8.390625 -8.578125 C 9.296875 -9.671875 10.078125 -10.0625 11.390625 -10.0625 C 13.21875 -10.0625 14.1875 -9.09375 14.1875 -7.34375 C 14.1875 -7.34375 14.1875 0 14.1875 0 Z M 14.1875 0 "/>
</g>
<g id="glyph-1-2-4de31d39">
<path d="M 9.578125 -4.4375 C 9.578125 -4.4375 2.375 -4.4375 2.375 -4.4375 C 2.40625 -2.203125 3.625 -1.15625 5.25 -1.15625 C 6.5 -1.15625 7.375 -1.6875 7.8125 -2.96875 C 7.8125 -2.96875 9.375 -2.96875 9.375 -2.96875 C 8.984375 -0.984375 7.4375 0.28125 5.1875 0.28125 C 2.453125 0.28125 0.75 -1.625 0.75 -4.84375 C 0.75 -8.046875 2.5 -10.0625 5.234375 -10.0625 C 7.0625 -10.0625 8.546875 -9.09375 9.1875 -7.484375 C 9.46875 -6.765625 9.578125 -5.859375 9.578125 -4.4375 Z M 7.921875 -5.828125 C 7.921875 -7.359375 6.734375 -8.625 5.203125 -8.625 C 3.640625 -8.625 2.546875 -7.453125 2.40625 -5.71875 C 2.40625 -5.71875 7.890625 -5.71875 7.890625 -5.71875 C 7.921875 -5.75 7.921875 -5.828125 7.921875 -5.828125 Z M 7.921875 -5.828125 "/>
</g>
<g id="glyph-1-3-4de31d39">
<path d="M 9.46875 -6.359375 C 9.46875 -2.015625 7.9375 0.28125 5.140625 0.28125 C 2.296875 0.28125 0.796875 -2.015625 0.796875 -6.484375 C 0.796875 -10.921875 2.28125 -13.234375 5.140625 -13.234375 C 8.015625 -13.234375 9.46875 -10.953125 9.46875 -6.359375 Z M 7.78125 -6.515625 C 7.78125 -10.0625 6.90625 -11.78125 5.140625 -11.78125 C 3.359375 -11.78125 2.484375 -10.078125 2.484375 -6.453125 C 2.484375 -2.84375 3.359375 -1.078125 5.09375 -1.078125 C 6.921875 -1.078125 7.78125 -2.765625 7.78125 -6.515625 Z M 7.78125 -6.515625 "/>
</g>
<g id="glyph-1-4-4de31d39">
<path d="M 3.5625 0 C 3.5625 0 1.625 0 1.625 0 C 1.625 0 1.625 -1.9375 1.625 -1.9375 C 1.625 -1.9375 3.5625 -1.9375 3.5625 -1.9375 C 3.5625 -1.9375 3.5625 0 3.5625 0 Z M 3.5625 0 "/>
</g>
<g id="glyph-1-5-4de31d39">
<path d="M 9.578125 -4.390625 C 9.578125 -1.59375 7.71875 0.28125 5.046875 0.28125 C 2.6875 0.28125 1.1875 -0.765625 0.65625 -3.390625 C 0.65625 -3.390625 2.296875 -3.390625 2.296875 -3.390625 C 2.6875 -1.90625 3.5625 -1.171875 5 -1.171875 C 6.796875 -1.171875 7.890625 -2.265625 7.890625 -4.15625 C 7.890625 -6.125 6.78125 -7.265625 5 -7.265625 C 3.984375 -7.265625 3.34375 -6.953125 2.578125 -6.03125 C 2.578125 -6.03125 1.0625 -6.03125 1.0625 -6.03125 C 1.0625 -6.03125 2.046875 -12.953125 2.046875 -12.953125 C 2.046875 -12.953125 8.890625 -12.953125 8.890625 -12.953125 C 8.890625 -12.953125 8.890625 -11.328125 8.890625 -11.328125 C 8.890625 -11.328125 3.375 -11.328125 3.375 -11.328125 C 3.375 -11.328125 2.859375 -7.921875 2.859375 -7.921875 C 3.625 -8.484375 4.375 -8.71875 5.296875 -8.71875 C 7.84375 -8.71875 9.578125 -7 9.578125 -4.390625 Z M 9.578125 -4.390625 "/>
</g>
<g id="glyph-1-6-4de31d39">
<path d="M 6.484375 0 C 6.484375 0 4.84375 0 4.84375 0 C 4.84375 0 4.84375 -9.421875 4.84375 -9.421875 C 4.84375 -9.421875 1.90625 -9.421875 1.90625 -9.421875 C 1.90625 -9.421875 1.90625 -10.609375 1.90625 -10.609375 C 4.4375 -10.921875 4.8125 -11.203125 5.390625 -13.234375 C 5.390625 -13.234375 6.484375 -13.234375 6.484375 -13.234375 C 6.484375 -13.234375 6.484375 0 6.484375 0 Z M 6.484375 0 "/>
</g>
<g id="glyph-1-7-4de31d39">
<path d="M 9.546875 -9.359375 C 9.546875 -7.734375 8.59375 -6.34375 6.734375 -5.359375 C 6.734375 -5.359375 4.875 -4.34375 4.875 -4.34375 C 3.25 -3.390625 2.65625 -2.703125 2.484375 -1.625 C 2.484375 -1.625 9.453125 -1.625 9.453125 -1.625 C 9.453125 -1.625 9.453125 0 9.453125 0 C 9.453125 0 0.640625 0 0.640625 0 C 0.78125 -2.90625 1.59375 -4.15625 4.34375 -5.734375 C 4.34375 -5.734375 6.0625 -6.703125 6.0625 -6.703125 C 7.25 -7.375 7.859375 -8.265625 7.859375 -9.3125 C 7.859375 -10.734375 6.734375 -11.796875 5.25 -11.796875 C 3.625 -11.796875 2.703125 -10.859375 2.578125 -8.640625 C 2.578125 -8.640625 0.9375 -8.640625 0.9375 -8.640625 C 1.03125 -11.859375 2.59375 -13.234375 5.296875 -13.234375 C 7.8125 -13.234375 9.546875 -11.59375 9.546875 -9.359375 Z M 9.546875 -9.359375 "/>
</g>
<g id="glyph-2-0-4de31d39">
<path d="M 9.46875 -6.359375 C 9.46875 -2.015625 7.9375 0.28125 5.140625 0.28125 C 2.296875 0.28125 0.796875 -2.015625 0.796875 -6.484375 C 0.796875 -10.921875 2.28125 -13.234375 5.140625 -13.234375 C 8.015625 -13.234375 9.46875 -10.953125 9.46875 -6.359375 Z M 7.78125 -6.515625 C 7.78125 -10.0625 6.90625 -11.78125 5.140625 -11.78125 C 3.359375 -11.78125 2.484375 -10.078125 2.484375 -6.453125 C 2.484375 -2.84375 3.359375 -1.078125 5.09375 -1.078125 C 6.921875 -1.078125 7.78125 -2.765625 7.78125 -6.515625 Z M 7.78125 -6.515625 "/>
</g>
<g id="glyph-3-0-4de31d39">
<path d="M 3.5625 0 C 3.5625 0 1.625 0 1.625 0 C 1.625 0 1.625 -1.9375 1.625 -1.9375 C 1.625 -1.9375 3.5625 -1.9375 3.5625 -1.9375 C 3.5625 -1.9375 3.5625 0 3.5625 0 Z M 3.5625 0 "/>
</g>
<g id="glyph-4-0-4de31d39">
<path d="M 9.46875 -6.359375 C 9.46875 -2.015625 7.9375 0.28125 5.140625 0.28125 C 2.296875 0.28125 0.796875 -2.015625 0.796875 -6.484375 C 0.796875 -10.921875 2.28125 -13.234375 5.140625 -13.234375 C 8.015625 -13.234375 9.46875 -10.953125 9.46875 -6.359375 Z M 7.78125 -6.515625 C 7.78125 -10.0625 6.90625 -11.78125 5.140625 -11.78125 C 3.359375 -11.78125 2.484375 -10.078125 2.484375 -6.453125 C 2.484375 -2.84375 3.359375 -1.078125 5.09375 -1.078125 C 6.921875 -1.078125 7.78125 -2.765625 7.78125 -6.515625 Z M 7.78125 -6.515625 "/>
</g>
<g id="glyph-5-0-4de31d39">
<path d="M 11.609375 -12.53125 C 11.609375 -12.703125 11.5 -12.75 11.359375 -12.75 C 10.734375 -12.75 10.0625 -12.703125 9.421875 -12.703125 C 8.59375 -12.703125 7.71875 -12.75 6.890625 -12.75 C 6.71875 -12.75 6.5 -12.75 6.5 -12.390625 C 6.5 -12.171875 6.671875 -12.171875 6.96875 -12.171875 L 7.1875 -12.171875 C 7.5 -12.171875 7.71875 -12.171875 8.046875 -12.140625 C 8.453125 -12.078125 8.609375 -12.0625 8.609375 -11.78125 C 8.609375 -11.703125 8.609375 -11.671875 8.53125 -11.40625 L 6.359375 -2.703125 C 6.015625 -1.3125 4.953125 0 3.921875 0 C 3.15625 0 2.5 -0.46875 2.359375 -1.234375 C 2.390625 -1.21875 2.421875 -1.21875 2.5625 -1.21875 C 3.265625 -1.21875 3.671875 -1.84375 3.671875 -2.3125 C 3.671875 -2.796875 3.3125 -3.046875 2.90625 -3.046875 C 2.859375 -3.046875 1.75 -3.046875 1.75 -1.609375 C 1.75 -0.34375 2.765625 0.40625 3.953125 0.40625 C 5.71875 0.40625 7.4375 -0.984375 7.84375 -2.6875 L 10.03125 -11.5 C 10.15625 -12.03125 10.28125 -12.171875 11.125 -12.171875 C 11.40625 -12.171875 11.609375 -12.171875 11.609375 -12.53125 Z M 11.609375 -12.53125 "/>
</g>
<g id="glyph-5-1-4de31d39">
<path d="M 9.109375 -2.671875 C 9.109375 -2.859375 8.96875 -2.859375 8.828125 -2.859375 C 8.609375 -2.859375 8.59375 -2.84375 8.5 -2.546875 C 7.984375 -0.9375 7.0625 -0.203125 6.28125 -0.203125 C 5.90625 -0.203125 5.390625 -0.421875 5.390625 -1.40625 C 5.390625 -1.84375 5.609375 -2.65625 5.75 -3.28125 L 6.390625 -5.84375 C 6.640625 -6.8125 7.15625 -7.84375 8.03125 -7.84375 C 8.078125 -7.84375 8.546875 -7.84375 8.84375 -7.578125 C 8.109375 -7.390625 8.109375 -6.6875 8.109375 -6.6875 C 8.109375 -6.4375 8.265625 -6.09375 8.75 -6.09375 C 9.09375 -6.09375 9.671875 -6.34375 9.671875 -7.078125 C 9.671875 -8.03125 8.59375 -8.25 8.046875 -8.25 C 7.015625 -8.25 6.40625 -7.34375 6.21875 -6.984375 C 5.8125 -8.109375 4.890625 -8.25 4.421875 -8.25 C 2.5625 -8.25 1.546875 -5.8125 1.546875 -5.375 C 1.546875 -5.1875 1.734375 -5.1875 1.828125 -5.1875 C 2.078125 -5.1875 2.078125 -5.203125 2.171875 -5.515625 C 2.671875 -7.109375 3.640625 -7.84375 4.390625 -7.84375 C 4.921875 -7.84375 5.28125 -7.40625 5.28125 -6.671875 C 5.28125 -6.21875 5.0625 -5.296875 4.890625 -4.609375 L 4.46875 -2.90625 C 4.15625 -1.703125 3.765625 -0.203125 2.65625 -0.203125 C 2.59375 -0.203125 2.140625 -0.203125 1.828125 -0.46875 C 2.390625 -0.609375 2.5625 -1.078125 2.5625 -1.359375 C 2.5625 -1.84375 2.171875 -1.953125 1.921875 -1.953125 C 1.453125 -1.953125 0.984375 -1.5625 0.984375 -0.953125 C 0.984375 -0.21875 1.78125 0.203125 2.625 0.203125 C 3.53125 0.203125 4.140625 -0.5 4.46875 -1.0625 C 4.84375 0 5.75 0.203125 6.234375 0.203125 C 8.15625 0.203125 9.109375 -2.296875 9.109375 -2.671875 Z M 9.109375 -2.671875 "/>
</g>
<g id="glyph-6-0-4de31d39">
<path d="M 5.46875 -1.609375 C 5.46875 -1.71875 5.375 -1.71875 5.296875 -1.71875 C 5.171875 -1.71875 5.15625 -1.703125 5.09375 -1.53125 C 4.796875 -0.5625 4.234375 -0.125 3.765625 -0.125 C 3.546875 -0.125 3.234375 -0.25 3.234375 -0.84375 C 3.234375 -1.109375 3.359375 -1.59375 3.453125 -1.96875 L 3.828125 -3.5 C 3.984375 -4.09375 4.296875 -4.703125 4.8125 -4.703125 C 4.84375 -4.703125 5.125 -4.703125 5.3125 -4.546875 C 4.859375 -4.4375 4.859375 -4.015625 4.859375 -4.015625 C 4.859375 -3.859375 4.96875 -3.65625 5.25 -3.65625 C 5.453125 -3.65625 5.796875 -3.8125 5.796875 -4.25 C 5.796875 -4.8125 5.15625 -4.953125 4.828125 -4.953125 C 4.21875 -4.953125 3.84375 -4.40625 3.734375 -4.1875 C 3.484375 -4.859375 2.9375 -4.953125 2.65625 -4.953125 C 1.53125 -4.953125 0.9375 -3.484375 0.9375 -3.21875 C 0.9375 -3.109375 1.046875 -3.109375 1.09375 -3.109375 C 1.25 -3.109375 1.25 -3.125 1.296875 -3.3125 C 1.609375 -4.265625 2.1875 -4.703125 2.625 -4.703125 C 2.953125 -4.703125 3.171875 -4.453125 3.171875 -4 C 3.171875 -3.734375 3.03125 -3.1875 2.9375 -2.765625 L 2.671875 -1.75 C 2.5 -1.015625 2.265625 -0.125 1.59375 -0.125 C 1.5625 -0.125 1.28125 -0.125 1.09375 -0.28125 C 1.4375 -0.375 1.53125 -0.65625 1.53125 -0.8125 C 1.53125 -1.109375 1.296875 -1.171875 1.15625 -1.171875 C 0.875 -1.171875 0.59375 -0.9375 0.59375 -0.578125 C 0.59375 -0.140625 1.0625 0.125 1.578125 0.125 C 2.125 0.125 2.484375 -0.296875 2.671875 -0.640625 C 2.90625 0 3.453125 0.125 3.734375 0.125 C 4.890625 0.125 5.46875 -1.375 5.46875 -1.609375 Z M 5.46875 -1.609375 "/>
</g>
<g id="glyph-7-0-4de31d39">
<path d="M 6.28125 4.296875 C 6.28125 4.234375 6.28125 4.203125 6.25 4.15625 L 2.8125 -4.671875 L 6.25 -13.5 C 6.28125 -13.53125 6.28125 -13.578125 6.28125 -13.625 C 6.28125 -13.84375 6.109375 -14 5.90625 -14 C 5.75 -14 5.609375 -13.90625 5.546875 -13.765625 L 2.078125 -4.796875 C 2.046875 -4.765625 2.046875 -4.71875 2.046875 -4.671875 C 2.046875 -4.609375 2.046875 -4.578125 2.078125 -4.53125 L 5.546875 4.421875 C 5.609375 4.578125 5.75 4.671875 5.90625 4.671875 C 6.109375 4.671875 6.28125 4.5 6.28125 4.296875 Z M 6.28125 4.296875 "/>
</g>
<g id="glyph-7-1-4de31d39">
<path d="M 5.1875 -4.796875 L 1.71875 -13.765625 C 1.65625 -13.90625 1.515625 -14 1.359375 -14 C 1.15625 -14 0.984375 -13.84375 0.984375 -13.625 C 0.984375 -13.578125 0.984375 -13.53125 1.015625 -13.5 L 4.4375 -4.671875 L 1.015625 4.15625 C 0.984375 4.203125 0.984375 4.234375 0.984375 4.296875 C 0.984375 4.5 1.15625 4.671875 1.359375 4.671875 C 1.515625 4.671875 1.65625 4.578125 1.71875 4.421875 L 5.1875 -4.53125 C 5.203125 -4.578125 5.203125 -4.609375 5.203125 -4.671875 C 5.203125 -4.71875 5.203125 -4.765625 5.1875 -4.796875 Z M 5.1875 -4.796875 "/>
</g>
</g>
</defs>
<path fill-rule="nonzero" fill="rgb(100%, 100%, 100%)" fill-opacity="1" d="M 0 0 L 666.667969 0 L 666.667969 466.667969 L 0 466.667969 Z M 0 0 "/>
<path fill-rule="nonzero" fill="rgb(100%, 100%, 100%)" fill-opacity="1" d="M 54.667969 388 L 645.335938 388 L 645.335938 21.332031 L 54.667969 21.332031 Z M 54.667969 388 "/>
<path fill="none" stroke-width="1" stroke-linecap="butt" stroke-linejoin="miter" stroke="rgb(0%, 0%, 0%)" stroke-opacity="0.12" stroke-miterlimit="1.154701" d="M 61.136719 291 L 61.136719 15.999023 " transform="matrix(1.333333, 0, 0, 1.333333, 0, 0)"/>
<path fill="none" stroke-width="1" stroke-linecap="butt" stroke-linejoin="miter" stroke="rgb(0%, 0%, 0%)" stroke-opacity="0.12" stroke-miterlimit="1.154701" d="M 262.5 291 L 262.5 15.999023 " transform="matrix(1.333333, 0, 0, 1.333333, 0, 0)"/>
<path fill="none" stroke-width="1" stroke-linecap="butt" stroke-linejoin="miter" stroke="rgb(0%, 0%, 0%)" stroke-opacity="0.12" stroke-miterlimit="1.154701" d="M 463.863281 291 L 463.863281 15.999023 " transform="matrix(1.333333, 0, 0, 1.333333, 0, 0)"/>
<path fill="none" stroke-width="1" stroke-linecap="butt" stroke-linejoin="miter" stroke="rgb(0%, 0%, 0%)" stroke-opacity="0.12" stroke-miterlimit="1.154701" d="M 41.000977 200.047852 L 483.999023 200.047852 " transform="matrix(1.333333, 0, 0, 1.333333, 0, 0)"/>
<path fill="none" stroke-width="1" stroke-linecap="butt" stroke-linejoin="miter" stroke="rgb(0%, 0%, 0%)" stroke-opacity="0.12" stroke-miterlimit="1.154701" d="M 41.000977 108.855469 L 483.999023 108.855469 " transform="matrix(1.333333, 0, 0, 1.333333, 0, 0)"/>
<path fill="none" stroke-width="1" stroke-linecap="butt" stroke-linejoin="miter" stroke="rgb(0%, 0%, 0%)" stroke-opacity="0.12" stroke-miterlimit="1.154701" d="M 41.000977 17.663086 L 483.999023 17.663086 " transform="matrix(1.333333, 0, 0, 1.333333, 0, 0)"/>
<g fill="rgb(0%, 0%, 0%)" fill-opacity="1">
<use xlink:href="#glyph-0-0-4de31d39" x="329.261349" y="442.090667"/>
</g>
<g fill="rgb(0%, 0%, 0%)" fill-opacity="1">
<use xlink:href="#glyph-1-0-4de31d39" x="340.666683" y="442.090667"/>
</g>
<g fill="rgb(0%, 0%, 0%)" fill-opacity="1">
<use xlink:href="#glyph-1-1-4de31d39" x="344.810683" y="442.090667"/>
</g>
<g fill="rgb(0%, 0%, 0%)" fill-opacity="1">
<use xlink:href="#glyph-1-2-4de31d39" x="360.360016" y="442.090667"/>
</g>
<g fill="rgb(0%, 0%, 0%)" fill-opacity="1">
<use xlink:href="#glyph-2-0-4de31d39" x="68.541823" y="416.344001"/>
</g>
<g fill="rgb(0%, 0%, 0%)" fill-opacity="1">
<use xlink:href="#glyph-3-0-4de31d39" x="78.92049" y="416.344001"/>
</g>
<g fill="rgb(0%, 0%, 0%)" fill-opacity="1">
<use xlink:href="#glyph-2-0-4de31d39" x="84.109823" y="416.344001"/>
</g>
<g fill="rgb(0%, 0%, 0%)" fill-opacity="1">
<use xlink:href="#glyph-1-3-4de31d39" x="337.026683" y="416.344001"/>
</g>
<g fill="rgb(0%, 0%, 0%)" fill-opacity="1">
<use xlink:href="#glyph-1-4-4de31d39" x="347.40535" y="416.344001"/>
</g>
<g fill="rgb(0%, 0%, 0%)" fill-opacity="1">
<use xlink:href="#glyph-1-5-4de31d39" x="352.594684" y="416.344001"/>
</g>
<g fill="rgb(0%, 0%, 0%)" fill-opacity="1">
<use xlink:href="#glyph-1-6-4de31d39" x="605.511559" y="416.344001"/>
</g>
<g fill="rgb(0%, 0%, 0%)" fill-opacity="1">
<use xlink:href="#glyph-1-4-4de31d39" x="615.890226" y="416.344001"/>
</g>
<g fill="rgb(0%, 0%, 0%)" fill-opacity="1">
<use xlink:href="#glyph-1-3-4de31d39" x="621.07956" y="416.344001"/>
</g>
<g fill="rgb(0%, 0%, 0%)" fill-opacity="1">
<use xlink:href="#glyph-4-0-4de31d39" x="30.954668" y="273.535122"/>
</g>
<g fill="rgb(0%, 0%, 0%)" fill-opacity="1">
<use xlink:href="#glyph-1-6-4de31d39" x="20.576001" y="151.944161"/>
</g>
<g fill="rgb(0%, 0%, 0%)" fill-opacity="1">
<use xlink:href="#glyph-4-0-4de31d39" x="30.954668" y="151.944161"/>
</g>
<g fill="rgb(0%, 0%, 0%)" fill-opacity="1">
<use xlink:href="#glyph-1-7-4de31d39" x="20.576001" y="30.353199"/>
</g>
<g fill="rgb(0%, 0%, 0%)" fill-opacity="1">
<use xlink:href="#glyph-4-0-4de31d39" x="30.954668" y="30.353199"/>
</g>
<path fill="none" stroke-width="1.5" stroke-linecap="butt" stroke-linejoin="miter" stroke="rgb(100%, 0%, 0%)" stroke-opacity="1" stroke-miterlimit="2" d="M 61.136719 28.5 L 62.144531 119.639648 L 63.149414 131.698242 L 64.157227 136.262695 L 65.165039 132.861328 L 66.169922 140.475586 L 67.177734 134.499023 L 68.182617 142.96875 L 69.19043 146.695312 L 70.198242 162.322266 L 71.203125 151.983398 L 72.210938 174.685547 L 73.21875 150.00293 L 74.223633 159.181641 L 75.231445 179.0625 L 76.239258 168.960938 L 77.244141 178.300781 L 78.251953 178.21875 L 79.259766 202.743164 L 80.264648 216.480469 L 81.272461 206.4375 L 82.280273 211.420898 L 83.285156 212.71875 L 84.292969 224.595703 L 85.300781 239.730469 L 86.305664 218.818359 L 87.313477 236.818359 L 88.321289 244.107422 L 89.326172 253.089844 L 90.333984 256.201172 L 91.341797 248.762695 L 92.34668 256.371094 L 93.354492 250.713867 L 94.362305 271.722656 L 95.367188 252.193359 L 96.375 265.078125 L 97.382812 259.376953 L 98.387695 278.499023 L 99.395508 272.390625 L 100.40332 252.914062 L 101.408203 277.87207 L 102.416016 261.319336 L 103.423828 259.705078 L 104.428711 260.750977 L 105.436523 260.475586 L 106.444336 246.732422 L 107.449219 236.701172 L 108.457031 245.431641 L 109.464844 237.588867 L 110.469727 240.058594 L 111.477539 245.935547 L 112.485352 237.46875 L 113.490234 221.472656 L 114.498047 225.380859 L 115.505859 210.738281 L 116.510742 218.777344 L 117.518555 227.545898 L 118.526367 204.369141 L 119.53125 215.402344 L 120.539062 198.131836 L 121.546875 188.302734 L 122.551758 178.505859 L 123.55957 193.110352 L 124.564453 178.995117 L 125.572266 194.411133 L 126.580078 161.961914 L 127.584961 177.257812 L 128.592773 176.393555 L 129.600586 149.235352 L 130.605469 162.120117 L 131.613281 157.520508 L 132.621094 148.719727 L 133.625977 155.337891 L 134.633789 143.088867 L 135.641602 146.53125 L 136.646484 153.758789 L 137.654297 148.441406 L 138.662109 132.603516 L 139.666992 139.68457 L 140.674805 148.766602 L 141.682617 146.865234 L 142.6875 145.368164 L 143.695312 139.21875 L 144.703125 136.801758 L 145.708008 164.074219 L 146.71582 146.361328 L 147.723633 153.952148 L 148.728516 149.112305 L 149.736328 157.535156 L 150.744141 150.855469 L 151.749023 156.75 L 152.756836 173.208984 L 153.764648 177.328125 L 154.769531 167.660156 L 155.777344 190.256836 L 156.785156 182.835938 L 157.790039 191.885742 L 158.797852 194.668945 L 159.805664 188.871094 L 160.810547 210.1875 L 161.818359 212.865234 L 162.826172 221.569336 L 163.831055 199.025391 L 164.838867 229.517578 L 165.84668 217.608398 L 166.851562 230.674805 L 167.859375 237.808594 L 168.867188 226.564453 L 169.87207 239.783203 L 170.879883 236.786133 L 171.887695 255.533203 L 172.892578 230.085938 L 173.900391 246.600586 L 174.908203 235.31543 L 175.913086 271.048828 L 176.920898 257.458008 L 177.925781 254.094727 L 178.933594 238.983398 L 179.941406 250.772461 L 180.946289 237.911133 L 181.954102 252.808594 L 182.961914 235.886719 L 183.966797 257.112305 L 184.974609 241.918945 L 185.982422 257.953125 L 186.987305 250.297852 L 187.995117 245.941406 L 189.00293 235.02832 L 190.007812 246.480469 L 191.015625 241.505859 L 192.023438 232.907227 L 193.02832 234.474609 L 194.036133 227.900391 L 195.043945 224.830078 L 196.048828 210.662109 L 197.056641 206.985352 L 198.064453 207.521484 L 199.069336 235.945312 L 200.077148 214.582031 L 201.084961 203.463867 L 202.089844 189.231445 L 203.097656 203.041992 L 204.105469 203.109375 L 205.110352 177.808594 L 206.118164 181.625977 L 207.125977 183.9375 L 208.130859 168.459961 L 209.138672 170.223633 L 210.146484 160.795898 L 211.151367 167.085938 L 212.15918 171.249023 L 213.166992 151.948242 L 214.171875 160.813477 L 215.179688 160.21875 L 216.1875 150.603516 L 217.192383 143.677734 L 218.200195 140.90625 L 219.208008 153.00293 L 220.212891 165.032227 L 221.220703 156.09082 L 222.228516 146.305664 L 223.233398 148.541016 L 224.241211 151.253906 L 225.249023 153.026367 L 226.253906 143.542969 L 227.261719 139.693359 L 228.269531 167.282227 L 229.274414 159.202148 L 230.282227 151.081055 L 231.290039 160.520508 L 232.294922 156.811523 L 233.302734 167.329102 L 234.307617 165.366211 L 235.31543 183.272461 L 236.323242 193.602539 L 237.328125 190.306641 L 238.335938 188.226562 L 239.34375 195.527344 L 240.348633 193.886719 L 241.356445 199.699219 L 242.364258 208.289062 L 243.369141 210.240234 L 244.376953 216.530273 L 245.384766 214.857422 L 246.389648 204.503906 L 247.397461 225.518555 L 248.405273 211.470703 L 249.410156 232.291992 L 250.417969 233.566406 L 251.425781 225.172852 L 252.430664 248.578125 L 253.438477 225.251953 L 254.446289 230.050781 L 255.451172 243.788086 L 256.458984 249.351562 L 257.466797 237.175781 L 258.47168 235.5 L 259.479492 240.647461 L 260.487305 231.363281 L 261.492188 237.667969 L 262.5 245.150391 L 263.507812 229.116211 L 264.512695 244.916016 L 265.520508 228.697266 L 266.52832 232.163086 L 267.533203 240.966797 L 268.541016 250.69043 L 269.548828 226.057617 L 270.553711 254.355469 L 271.561523 239.876953 L 272.569336 214.523438 L 273.574219 226.927734 L 274.582031 232.075195 L 275.589844 199.792969 L 276.594727 221.674805 L 277.602539 211.274414 L 278.610352 209.126953 L 279.615234 201.84668 L 280.623047 199.429688 L 281.630859 193.549805 L 282.635742 193.722656 L 283.643555 196.207031 L 284.651367 189.055664 L 285.65625 189.755859 L 286.664062 195.591797 L 287.671875 180.811523 L 288.676758 167.326172 L 289.68457 180.969727 L 290.689453 172.936523 L 291.697266 170.191406 L 292.705078 173.783203 L 293.709961 173.194336 L 294.717773 170.138672 L 295.725586 174.571289 L 296.730469 166.746094 L 297.738281 174.131836 L 298.746094 177.544922 L 299.750977 171.893555 L 300.758789 171.495117 L 301.766602 166.907227 L 302.771484 160.268555 L 303.779297 161.188477 L 304.787109 153.618164 L 305.791992 156.014648 L 306.799805 150.834961 L 307.807617 177.366211 L 308.8125 166.804688 L 309.820312 160.397461 L 310.828125 177.457031 L 311.833008 159.597656 L 312.84082 170.666016 L 313.848633 187.754883 L 314.853516 179.8125 L 315.861328 178.775391 L 316.869141 181.013672 L 317.874023 183.811523 L 318.881836 219.480469 L 319.889648 203.830078 L 320.894531 192.580078 L 321.902344 177.427734 L 322.910156 197.305664 L 323.915039 192.158203 L 324.922852 215.765625 L 325.930664 211.555664 L 326.935547 206.006836 L 327.943359 213.893555 L 328.951172 222.424805 L 329.956055 217.895508 L 330.963867 221.047852 L 331.97168 229.189453 L 332.976562 233.862305 L 333.984375 218.047852 L 334.992188 219.996094 L 335.99707 238.330078 L 337.004883 233.507812 L 338.012695 237.864258 L 339.017578 231.618164 L 340.025391 240.641602 L 341.033203 230.797852 L 342.038086 242.25293 L 343.045898 224.466797 L 344.050781 218.771484 L 345.058594 232.347656 L 346.066406 241.549805 L 347.071289 243.37207 L 348.079102 250.895508 L 349.086914 236.000977 L 350.091797 232.839844 L 351.099609 219.433594 L 352.107422 219.916992 L 353.112305 231.600586 L 354.120117 226.256836 L 355.12793 234.902344 L 356.132812 209.25293 L 357.140625 217.239258 L 358.148438 223.22168 L 359.15332 211.444336 L 360.161133 202.224609 L 361.168945 207.102539 L 362.173828 206.964844 L 363.181641 197.882812 L 364.189453 200.009766 L 365.194336 201.811523 L 366.202148 199.737305 L 367.209961 180.158203 L 368.214844 173.358398 L 369.222656 203.326172 L 370.230469 161.90625 L 371.235352 183.5625 L 372.243164 189.512695 L 373.250977 181.242188 L 374.255859 164.774414 L 375.263672 190.397461 L 376.271484 167.074219 L 377.276367 155.085938 L 378.28418 176.663086 L 379.291992 167.34375 L 380.296875 166.602539 L 381.304688 151.96875 L 382.3125 157.022461 L 383.317383 156.418945 L 384.325195 171.395508 L 385.333008 156.208008 L 386.337891 174.213867 L 387.345703 171.987305 L 388.353516 177.618164 L 389.358398 173.326172 L 390.366211 159.166992 L 391.374023 185.094727 L 392.378906 170.25293 L 393.386719 192.123047 L 394.394531 181.321289 L 395.399414 176.879883 L 396.407227 189.550781 L 397.415039 186.014648 L 398.419922 185.308594 L 399.427734 198.149414 L 400.432617 213.342773 L 401.44043 198.928711 L 402.448242 208.268555 L 403.453125 198.641602 L 404.460938 207.079102 L 405.46875 207.720703 L 406.473633 208.839844 L 407.481445 213.398438 L 408.489258 210.556641 L 409.494141 218.244141 L 410.501953 215.745117 L 411.509766 229.614258 L 412.514648 224.458008 L 413.522461 220.59668 L 414.530273 206.651367 L 415.535156 221.581055 L 416.542969 231.518555 L 417.550781 221.932617 L 418.555664 238.265625 L 419.563477 229.239258 L 420.571289 228.196289 L 421.576172 226.825195 L 422.583984 225.641602 L 423.591797 240.418945 L 424.59668 230.334961 L 425.604492 232.054688 L 426.612305 223.491211 L 427.617188 219.94043 L 428.625 224.879883 L 429.632812 243.788086 L 430.637695 231.635742 L 431.645508 226.579102 L 432.65332 223.869141 L 433.658203 215.352539 L 434.666016 216.477539 L 435.673828 210.665039 L 436.678711 215.308594 L 437.686523 215.466797 L 438.694336 210.439453 L 439.699219 208.986328 L 440.707031 194.463867 L 441.714844 197.039062 L 442.719727 198.597656 L 443.727539 191.255859 L 444.735352 187.057617 L 445.740234 209.375977 L 446.748047 207.084961 L 447.755859 197.279297 L 448.760742 180.585938 L 449.768555 185.642578 L 450.776367 180.325195 L 451.78125 179.791992 L 452.789062 163.330078 L 453.796875 159.987305 L 454.801758 181.291992 L 455.80957 179.208984 L 456.814453 166.12793 L 457.822266 169.271484 L 458.830078 176.191406 L 459.834961 192.46582 L 460.842773 179.53125 L 461.850586 168.199219 L 462.855469 180.75 " transform="matrix(1.333333, 0, 0, 1.333333, 0, 0)"/>
<path fill="none" stroke-width="1.5" stroke-linecap="butt" stroke-linejoin="miter" stroke="rgb(0%, 0%, 0%)" stroke-opacity="1" stroke-miterlimit="2" d="M 61.136719 163.570312 L 62.144531 163.775391 L 63.149414 164.200195 L 64.157227 164.844727 L 65.165039 165.703125 L 66.169922 166.766602 L 67.177734 168.032227 L 68.182617 169.485352 L 69.19043 171.123047 L 70.198242 172.927734 L 71.203125 174.896484 L 72.210938 177.005859 L 73.21875 179.255859 L 74.223633 181.605469 L 75.231445 184.057617 L 76.239258 186.606445 L 77.244141 189.213867 L 78.251953 191.879883 L 79.259766 194.578125 L 80.264648 197.311523 L 81.272461 200.053711 L 82.280273 202.769531 L 83.285156 205.456055 L 84.292969 208.092773 L 85.300781 210.670898 L 86.305664 213.18457 L 87.313477 215.575195 L 88.321289 217.875 L 89.326172 220.054688 L 90.333984 222.111328 L 91.341797 224.015625 L 92.34668 225.75 L 93.354492 227.323242 L 94.362305 228.711914 L 95.367188 229.942383 L 96.375 230.950195 L 97.382812 231.782227 L 98.387695 232.400391 L 99.395508 232.848633 L 100.40332 233.083008 L 101.408203 233.077148 L 102.416016 232.910156 L 103.423828 232.514648 L 104.428711 231.919922 L 105.436523 231.137695 L 106.444336 230.170898 L 107.449219 229.004883 L 108.457031 227.645508 L 109.464844 226.151367 L 110.469727 224.490234 L 111.477539 222.708984 L 112.485352 220.801758 L 113.490234 218.777344 L 114.498047 216.618164 L 115.505859 214.388672 L 116.510742 212.053711 L 117.518555 209.692383 L 118.526367 207.313477 L 119.53125 204.864258 L 120.539062 202.426758 L 121.546875 199.959961 L 122.551758 197.493164 L 123.55957 195.043945 L 124.564453 192.688477 L 125.572266 190.359375 L 126.580078 188.15332 L 127.584961 185.961914 L 128.592773 183.916992 L 129.600586 181.989258 L 130.605469 180.120117 L 131.613281 178.426758 L 132.621094 176.871094 L 133.625977 175.447266 L 134.633789 174.205078 L 135.641602 173.109375 L 136.646484 172.195312 L 137.654297 171.489258 L 138.662109 170.941406 L 139.666992 170.53125 L 140.674805 170.334961 L 141.682617 170.34375 L 142.6875 170.522461 L 143.695312 170.882812 L 144.703125 171.404297 L 145.708008 172.078125 L 146.71582 172.995117 L 147.723633 174.020508 L 148.728516 175.227539 L 149.736328 176.554688 L 150.744141 178.022461 L 151.749023 179.604492 L 152.756836 181.303711 L 153.764648 183.155273 L 154.769531 185.088867 L 155.777344 187.066406 L 156.785156 189.178711 L 157.790039 191.305664 L 158.797852 193.5 L 159.805664 195.708984 L 160.810547 197.900391 L 161.818359 200.144531 L 162.826172 202.376953 L 163.831055 204.609375 L 164.838867 206.704102 L 165.84668 208.833984 L 166.851562 210.837891 L 167.859375 212.803711 L 168.867188 214.699219 L 169.87207 216.442383 L 170.879883 218.109375 L 171.887695 219.635742 L 172.892578 221.088867 L 173.900391 222.307617 L 174.908203 223.438477 L 175.913086 224.361328 L 176.920898 225.260742 L 177.925781 225.943359 L 178.933594 226.453125 L 179.941406 226.737305 L 180.946289 226.895508 L 181.954102 226.842773 L 182.961914 226.6875 L 183.966797 226.303711 L 184.974609 225.834961 L 185.982422 225.146484 L 186.987305 224.384766 L 187.995117 223.473633 L 189.00293 222.401367 L 190.007812 221.15918 L 191.015625 219.84375 L 192.023438 218.408203 L 193.02832 216.84375 L 194.036133 215.214844 L 195.043945 213.474609 L 196.048828 211.675781 L 197.056641 209.774414 L 198.064453 207.829102 L 199.069336 205.848633 L 200.077148 203.979492 L 201.084961 202.022461 L 202.089844 200.041992 L 203.097656 198.005859 L 204.105469 196.089844 L 205.110352 194.211914 L 206.118164 192.292969 L 207.125977 190.456055 L 208.130859 188.712891 L 209.138672 186.993164 L 210.146484 185.384766 L 211.151367 183.858398 L 212.15918 182.475586 L 213.166992 181.230469 L 214.171875 180.038086 L 215.179688 179.024414 L 216.1875 178.145508 L 217.192383 177.369141 L 218.200195 176.72168 L 219.208008 176.203125 L 220.212891 175.895508 L 221.220703 175.790039 L 222.228516 175.78418 L 223.233398 175.889648 L 224.241211 176.165039 L 225.249023 176.592773 L 226.253906 177.164062 L 227.261719 177.817383 L 228.269531 178.59082 L 229.274414 179.598633 L 230.282227 180.682617 L 231.290039 181.833984 L 232.294922 183.123047 L 233.302734 184.488281 L 234.307617 185.976562 L 235.31543 187.517578 L 236.323242 189.175781 L 237.328125 190.942383 L 238.335938 192.714844 L 239.34375 194.522461 L 240.348633 196.359375 L 241.356445 198.19043 L 242.364258 200.000977 L 243.369141 201.84375 L 244.376953 203.654297 L 245.384766 205.453125 L 246.389648 207.196289 L 247.397461 208.810547 L 248.405273 210.436523 L 249.410156 211.924805 L 250.417969 213.413086 L 251.425781 214.804688 L 252.430664 216.041016 L 253.438477 217.274414 L 254.446289 218.279297 L 255.451172 219.19043 L 256.458984 220.03125 L 257.466797 220.760742 L 258.47168 221.288086 L 259.479492 221.680664 L 260.487305 221.956055 L 261.492188 222.067383 L 262.5 222.064453 L 263.507812 221.953125 L 264.512695 221.642578 L 265.520508 221.279297 L 266.52832 220.722656 L 267.533203 220.048828 L 268.541016 219.310547 L 269.548828 218.501953 L 270.553711 217.473633 L 271.561523 216.483398 L 272.569336 215.358398 L 273.574219 214.007812 L 274.582031 212.645508 L 275.589844 211.265625 L 276.594727 209.698242 L 277.602539 208.180664 L 278.610352 206.595703 L 279.615234 204.981445 L 280.623047 203.34082 L 281.630859 201.673828 L 282.635742 200.003906 L 283.643555 198.348633 L 284.651367 196.743164 L 285.65625 195.158203 L 286.664062 193.625977 L 287.671875 192.175781 L 288.676758 190.713867 L 289.68457 189.272461 L 290.689453 187.986328 L 291.697266 186.75293 L 292.705078 185.595703 L 293.709961 184.567383 L 294.717773 183.638672 L 295.725586 182.818359 L 296.730469 182.126953 L 297.738281 181.526367 L 298.746094 181.078125 L 299.750977 180.773438 L 300.758789 180.583008 L 301.766602 180.495117 L 302.771484 180.509766 L 303.779297 180.621094 L 304.787109 180.84375 L 305.791992 181.142578 L 306.799805 181.573242 L 307.807617 182.077148 L 308.8125 182.791992 L 309.820312 183.574219 L 310.828125 184.40625 L 311.833008 185.411133 L 312.84082 186.395508 L 313.848633 187.494141 L 314.853516 188.739258 L 315.861328 189.999023 L 316.869141 191.302734 L 317.874023 192.667969 L 318.881836 194.050781 L 319.889648 195.621094 L 320.894531 197.100586 L 321.902344 198.533203 L 322.910156 199.901367 L 323.915039 201.348633 L 324.922852 202.725586 L 325.930664 204.172852 L 326.935547 205.552734 L 327.943359 206.868164 L 328.951172 208.157227 L 329.956055 209.416992 L 330.963867 210.591797 L 331.97168 211.69043 L 332.976562 212.748047 L 333.984375 213.720703 L 334.992188 214.532227 L 335.99707 215.24707 L 337.004883 215.956055 L 338.012695 216.515625 L 339.017578 217.010742 L 340.025391 217.350586 L 341.033203 217.625977 L 342.038086 217.754883 L 343.045898 217.810547 L 344.050781 217.664062 L 345.058594 217.397461 L 346.066406 217.098633 L 347.071289 216.74707 L 348.079102 216.295898 L 349.086914 215.797852 L 350.091797 215.126953 L 351.099609 214.371094 L 352.107422 213.480469 L 353.112305 212.52832 L 354.120117 211.567383 L 355.12793 210.509766 L 356.132812 209.4375 L 357.140625 208.236328 L 358.148438 207.020508 L 359.15332 205.810547 L 360.161133 204.536133 L 361.168945 203.185547 L 362.173828 201.864258 L 363.181641 200.537109 L 364.189453 199.174805 L 365.194336 197.868164 L 366.202148 196.614258 L 367.209961 195.392578 L 368.214844 194.103516 L 369.222656 192.849609 L 370.230469 191.797852 L 371.235352 190.608398 L 372.243164 189.612305 L 373.250977 188.707031 L 374.255859 187.848633 L 375.263672 187.007812 L 376.271484 186.363281 L 377.276367 185.707031 L 378.28418 185.097656 L 379.291992 184.6875 L 380.296875 184.335938 L 381.304688 184.066406 L 382.3125 183.852539 L 383.317383 183.75 L 384.325195 183.75 L 385.333008 183.916992 L 386.337891 184.125 L 387.345703 184.49707 L 388.353516 184.957031 L 389.358398 185.510742 L 390.366211 186.120117 L 391.374023 186.755859 L 392.378906 187.579102 L 393.386719 188.419922 L 394.394531 189.383789 L 395.399414 190.356445 L 396.407227 191.373047 L 397.415039 192.495117 L 398.419922 193.614258 L 399.427734 194.739258 L 400.432617 195.960938 L 401.44043 197.238281 L 402.448242 198.451172 L 403.453125 199.713867 L 404.460938 200.920898 L 405.46875 202.130859 L 406.473633 203.326172 L 407.481445 204.498047 L 408.489258 205.637695 L 409.494141 206.704102 L 410.501953 207.755859 L 411.509766 208.737305 L 412.514648 209.704102 L 413.522461 210.585938 L 414.530273 211.371094 L 415.535156 212.021484 L 416.542969 212.639648 L 417.550781 213.222656 L 418.555664 213.673828 L 419.563477 214.104492 L 420.571289 214.40918 L 421.576172 214.625977 L 422.583984 214.731445 L 423.591797 214.737305 L 424.59668 214.725586 L 425.604492 214.59082 L 426.612305 214.365234 L 427.617188 214.019531 L 428.625 213.583008 L 429.632812 213.073242 L 430.637695 212.604492 L 431.645508 211.998047 L 432.65332 211.297852 L 433.658203 210.539062 L 434.666016 209.683594 L 435.673828 208.790039 L 436.678711 207.817383 L 437.686523 206.830078 L 438.694336 205.816406 L 439.699219 204.773438 L 440.707031 203.701172 L 441.714844 202.543945 L 442.719727 201.413086 L 443.727539 200.308594 L 444.735352 199.177734 L 445.740234 198.038086 L 446.748047 197.047852 L 447.755859 196.060547 L 448.760742 195.079102 L 449.768555 194.053711 L 450.776367 193.110352 L 451.78125 192.19043 L 452.789062 191.329102 L 453.796875 190.461914 L 454.801758 189.65625 L 455.80957 189.014648 L 456.814453 188.44043 L 457.822266 187.880859 L 458.830078 187.423828 L 459.834961 187.086914 L 460.842773 186.905273 L 461.850586 186.74707 L 462.855469 186.632812 L 463.863281 186.644531 " transform="matrix(1.333333, 0, 0, 1.333333, 0, 0)"/>
<path fill-rule="nonzero" fill="rgb(100%, 100%, 100%)" fill-opacity="1" stroke-width="1" stroke-linecap="butt" stroke-linejoin="miter" stroke="rgb(0%, 0%, 0%)" stroke-opacity="1" stroke-miterlimit="2" d="M 423.999023 77.000977 L 477.999023 77.000977 L 477.999023 22.001953 L 423.999023 22.001953 Z M 423.999023 77.000977 " transform="matrix(1.333333, 0, 0, 1.333333, 0, 0)"/>
<path fill="none" stroke-width="1" stroke-linecap="butt" stroke-linejoin="miter" stroke="rgb(0%, 0%, 0%)" stroke-opacity="1" stroke-miterlimit="1.154701" d="M 61.136719 291.500977 L 61.136719 296.499023 " transform="matrix(1.333333, 0, 0, 1.333333, 0, 0)"/>
<path fill="none" stroke-width="1" stroke-linecap="butt" stroke-linejoin="miter" stroke="rgb(0%, 0%, 0%)" stroke-opacity="1" stroke-miterlimit="1.154701" d="M 262.5 291.500977 L 262.5 296.499023 " transform="matrix(1.333333, 0, 0, 1.333333, 0, 0)"/>
<path fill="none" stroke-width="1" stroke-linecap="butt" stroke-linejoin="miter" stroke="rgb(0%, 0%, 0%)" stroke-opacity="1" stroke-miterlimit="1.154701" d="M 463.863281 291.500977 L 463.863281 296.499023 " transform="matrix(1.333333, 0, 0, 1.333333, 0, 0)"/>
<path fill="none" stroke-width="1" stroke-linecap="butt" stroke-linejoin="miter" stroke="rgb(0%, 0%, 0%)" stroke-opacity="1" stroke-miterlimit="1.154701" d="M 40.5 200.047852 L 35.499023 200.047852 " transform="matrix(1.333333, 0, 0, 1.333333, 0, 0)"/>
<path fill="none" stroke-width="1" stroke-linecap="butt" stroke-linejoin="miter" stroke="rgb(0%, 0%, 0%)" stroke-opacity="1" stroke-miterlimit="1.154701" d="M 40.5 108.855469 L 35.499023 108.855469 " transform="matrix(1.333333, 0, 0, 1.333333, 0, 0)"/>
<path fill="none" stroke-width="1" stroke-linecap="butt" stroke-linejoin="miter" stroke="rgb(0%, 0%, 0%)" stroke-opacity="1" stroke-miterlimit="1.154701" d="M 40.5 17.663086 L 35.499023 17.663086 " transform="matrix(1.333333, 0, 0, 1.333333, 0, 0)"/>
<path fill="none" stroke-width="1.5" stroke-linecap="butt" stroke-linejoin="miter" stroke="rgb(100%, 0%, 0%)" stroke-opacity="1" stroke-miterlimit="2" d="M 429.805664 38.000977 L 449.806641 38.000977 " transform="matrix(1.333333, 0, 0, 1.333333, 0, 0)"/>
<path fill="none" stroke-width="1.5" stroke-linecap="butt" stroke-linejoin="miter" stroke="rgb(0%, 0%, 0%)" stroke-opacity="1" stroke-miterlimit="2" d="M 429.805664 60.999023 L 449.806641 60.999023 " transform="matrix(1.333333, 0, 0, 1.333333, 0, 0)"/>
<g fill="rgb(0%, 0%, 0%)" fill-opacity="1">
<use xlink:href="#glyph-5-0-4de31d39" x="606.408011" y="55.236271"/>
</g>
<g fill="rgb(0%, 0%, 0%)" fill-opacity="1">
<use xlink:href="#glyph-6-0-4de31d39" x="616.603744" y="58.969605"/>
</g>
<g fill="rgb(0%, 0%, 0%)" fill-opacity="1">
<use xlink:href="#glyph-7-0-4de31d39" x="606.408028" y="86.522671"/>
</g>
<g fill="rgb(0%, 0%, 0%)" fill-opacity="1">
<use xlink:href="#glyph-5-1-4de31d39" x="613.669362" y="86.522671"/>
</g>
<g fill="rgb(0%, 0%, 0%)" fill-opacity="1">
<use xlink:href="#glyph-7-1-4de31d39" x="622.330695" y="86.522671"/>
</g>
<path fill="none" stroke-width="1" stroke-linecap="butt" stroke-linejoin="miter" stroke="rgb(0%, 0%, 0%)" stroke-opacity="1" stroke-miterlimit="1.154701" d="M 40.5 291 L 484.5 291 " transform="matrix(1.333333, 0, 0, 1.333333, 0, 0)"/>
<path fill="none" stroke-width="1" stroke-linecap="butt" stroke-linejoin="miter" stroke="rgb(0%, 0%, 0%)" stroke-opacity="1" stroke-miterlimit="1.154701" d="M 41.000977 291.500977 L 41.000977 15.500977 " transform="matrix(1.333333, 0, 0, 1.333333, 0, 0)"/>
<path fill="none" stroke-width="1" stroke-linecap="butt" stroke-linejoin="miter" stroke="rgb(0%, 0%, 0%)" stroke-opacity="1" stroke-miterlimit="1.154701" d="M 40.5 15.999023 L 484.5 15.999023 " transform="matrix(1.333333, 0, 0, 1.333333, 0, 0)"/>
<path fill="none" stroke-width="1" stroke-linecap="butt" stroke-linejoin="miter" stroke="rgb(0%, 0%, 0%)" stroke-opacity="1" stroke-miterlimit="1.154701" d="M 483.999023 291.500977 L 483.999023 15.500977 " transform="matrix(1.333333, 0, 0, 1.333333, 0, 0)"/>
</svg>
