<?xml version="1.0" encoding="UTF-8"?>
<svg xmlns="http://www.w3.org/2000/svg" xmlns:xlink="http://www.w3.org/1999/xlink" width="667" height="467" viewBox="0 0 667 467">
<defs>
<g>
<g id="glyph-0-0-714b89ed">
<path d="M 11.078125 -12.078125 C 11.078125 -12.078125 6.609375 -12.078125 6.609375 -12.078125 C 6.609375 -12.078125 6.609375 0 6.609375 0 C 6.609375 0 4.875 0 4.875 0 C 4.875 0 4.875 -12.078125 4.875 -12.078125 C 4.875 -12.078125 0.390625 -12.078125 0.390625 -12.078125 C 0.390625 -12.078125 0.390625 -13.609375 0.390625 -13.609375 C 0.390625 -13.609375 11.078125 -13.609375 11.078125 -13.609375 C 11.078125 -13.609375 11.078125 -12.078125 11.078125 -12.078125 Z M 11.078125 -12.078125 "/>
</g>
<g id="glyph-1-0-714b89ed">
<path d="M 2.859375 0 C 2.859375 0 1.3125 0 1.3125 0 C 1.3125 0 1.3125 -9.78125 1.3125 -9.78125 C 1.3125 -9.78125 2.859375 -9.78125 2.859375 -9.78125 C 2.859375 -9.78125 2.859375 0 2.859375 0 Z M 3.0625 -11.265625 C 3.0625 -11.265625 1.125 -11.265625 1.125 -11.265625 C 1.125 -11.265625 1.125 -13.203125 1.125 -13.203125 C 1.125 -13.203125 3.0625 -13.203125 3.0625 -13.203125 C 3.0625 -13.203125 3.0625 -11.265625 3.0625 -11.265625 Z M 3.0625 -11.265625 "/>
</g>
<g id="glyph-1-1-714b89ed">
<path d="M 14.1875 0 C 14.1875 0 12.640625 0 12.640625 0 C 12.640625 0 12.640625 -6.734375 12.640625 -6.734375 C 12.640625 -7.96875 11.984375 -8.703125 10.84375 -8.703125 C 9.578125 -8.703125 8.53125 -7.5625 8.53125 -6.140625 C 8.53125 -6.140625 8.53125 0 8.53125 0 C 8.53125 0 6.984375 0 6.984375 0 C 6.984375 0 6.984375 -6.734375 6.984375 -6.734375 C 6.984375 -7.984375 6.328125 -8.703125 5.171875 -8.703125 C 3.90625 -8.703125 2.875 -7.5625 2.875 -6.140625 C 2.875 -6.140625 2.875 0 2.875 0 C 2.875 0 1.328125 0 1.328125 0 C 1.328125 0 1.328125 -9.78125 1.328125 -9.78125 C 1.328125 -9.78125 2.75 -9.78125 2.75 -9.78125 C 2.75 -9.78125 2.75 -8.40625 2.75 -8.40625 C 3.578125 -9.578125 4.4375 -10.0625 5.75 -10.0625 C 7.015625 -10.0625 7.8125 -9.609375 8.390625 -8.578125 C 9.296875 -9.671875 10.078125 -10.0625 11.390625 -10.0625 C 13.21875 -10.0625 14.1875 -9.09375 14.1875 -7.34375 C 14.1875 -7.34375 14.1875 0 14.1875 0 Z M 14.1875 0 "/>
</g>
<g id="glyph-1-2-714b89ed">
<path d="M 9.578125 -4.4375 C 9.578125 -4.4375 2.375 -4.4375 2.375 -4.4375 C 2.40625 -2.203125 3.625 -1.15625 5.25 -1.15625 C 6.5 -1.15625 7.375 -1.6875 7.8125 -2.96875 C 7.8125 -2.96875 9.375 -2.96875 9.375 -2.96875 C 8.984375 -0.984375 7.4375 0.28125 5.1875 0.28125 C 2.453125 0.28125 0.75 -1.625 0.75 -4.84375 C 0.75 -8.046875 2.5 -10.0625 5.234375 -10.0625 C 7.0625 -10.0625 8.546875 -9.09375 9.1875 -7.484375 C 9.46875 -6.765625 9.578125 -5.859375 9.578125 -4.4375 Z M 7.921875 -5.828125 C 7.921875 -7.359375 6.734375 -8.625 5.203125 -8.625 C 3.640625 -8.625 2.546875 -7.453125 2.40625 -5.71875 C 2.40625 -5.71875 7.890625 -5.71875 7.890625 -5.71875 C 7.921875 -5.75 7.921875 -5.828125 7.921875 -5.828125 Z M 7.921875 -5.828125 "/>
</g>
<g id="glyph-1-3-714b89ed">
<path d="M 9.46875 -6.359375 C 9.46875 -2.015625 7.9375 0.28125 5.140625 0.28125 C 2.296875 0.28125 0.796875 -2.015625 0.796875 -6.484375 C 0.796875 -10.921875 2.28125 -13.234375 5.140625 -13.234375 C 8.015625 -13.234375 9.46875 -10.953125 9.46875 -6.359375 Z M 7.78125 -6.515625 C 7.78125 -10.0625 6.90625 -11.78125 5.140625 -11.78125 C 3.359375 -11.78125 2.484375 -10.078125 2.484375 -6.453125 C 2.484375 -2.84375 3.359375 -1.078125 5.09375 -1.078125 C 6.921875 -1.078125 7.78125 -2.765625 7.78125 -6.515625 Z M 7.78125 -6.515625 "/>
</g>
<g id="glyph-1-4-714b89ed">
<path d="M 3.5625 0 C 3.5625 0 1.625 0 1.625 0 C 1.625 0 1.625 -1.9375 1.625 -1.9375 C 1.625 -1.9375 3.5625 -1.9375 3.5625 -1.9375 C 3.5625 -1.9375 3.5625 0 3.5625 0 Z M 3.5625 0 "/>
</g>
<g id="glyph-1-5-714b89ed">
<path d="M 9.578125 -4.390625 C 9.578125 -1.59375 7.71875 0.28125 5.046875 0.28125 C 2.6875 0.28125 1.1875 -0.765625 0.65625 -3.390625 C 0.65625 -3.390625 2.296875 -3.390625 2.296875 -3.390625 C 2.6875 -1.90625 3.5625 -1.171875 5 -1.171875 C 6.796875 -1.171875 7.890625 -2.265625 7.890625 -4.15625 C 7.890625 -6.125 6.78125 -7.265625 5 -7.265625 C 3.984375 -7.265625 3.34375 -6.953125 2.578125 -6.03125 C 2.578125 -6.03125 1.0625 -6.03125 1.0625 -6.03125 C 1.0625 -6.03125 2.046875 -12.953125 2.046875 -12.953125 C 2.046875 -12.953125 8.890625 -12.953125 8.890625 -12.953125 C 8.890625 -12.953125 8.890625 -11.328125 8.890625 -11.328125 C 8.890625 -11.328125 3.375 -11.328125 3.375 -11.328125 C 3.375 -11.328125 2.859375 -7.921875 2.859375 -7.921875 C 3.625 -8.484375 4.375 -8.71875 5.296875 -8.71875 C 7.84375 -8.71875 9.578125 -7 9.578125 -4.390625 Z M 9.578125 -4.390625 "/>
</g>
<g id="glyph-1-6-714b89ed">
<path d="M 6.484375 0 C 6.484375 0 4.84375 0 4.84375 0 C 4.84375 0 4.84375 -9.421875 4.84375 -9.421875 C 4.84375 -9.421875 1.90625 -9.421875 1.90625 -9.421875 C 1.90625 -9.421875 1.90625 -10.609375 1.90625 -10.609375 C 4.4375 -10.921875 4.8125 -11.203125 5.390625 -13.234375 C 5.390625 -13.234375 6.484375 -13.234375 6.484375 -13.234375 C 6.484375 -13.234375 6.484375 0 6.484375 0 Z M 6.484375 0 "/>
</g>
<g id="glyph-1-7-714b89ed">
<path d="M 9.546875 -9.359375 C 9.546875 -7.734375 8.59375 -6.34375 6.734375 -5.359375 C 6.734375 -5.359375 4.875 -4.34375 4.875 -4.34375 C 3.25 -3.390625 2.65625 -2.703125 2.484375 -1.625 C 2.484375 -1.625 9.453125 -1.625 9.453125 -1.625 C 9.453125 -1.625 9.453125 0 9.453125 0 C 9.453125 0 0.640625 0 0.640625 0 C 0.78125 -2.90625 1.59375 -4.15625 4.34375 -5.734375 C 4.34375 -5.734375 6.0625 -6.703125 6.0625 -6.703125 C 7.25 -7.375 7.859375 -8.265625 7.859375 -9.3125 C 7.859375 -10.734375 6.734375 -11.796875 5.25 -11.796875 C 3.625 -11.796875 2.703125 -10.859375 2.578125 -8.640625 C 2.578125 -8.640625 0.9375 -8.640625 0.9375 -8.640625 C 1.03125 -11.859375 2.59375 -13.234375 5.296875 -13.234375 C 7.8125 -13.234375 9.546875 -11.59375 9.546875 -9.359375 Z M 9.546875 -9.359375 "/>
</g>
<g id="glyph-1-8-714b89ed">
<path d="M 9.703125 -3.171875 C 9.703125 -3.171875 7.75 -3.171875 7.75 -3.171875 C 7.75 -3.171875 7.75 0 7.75 0 C 7.75 0 6.109375 0 6.109375 0 C 6.109375 0 6.109375 -3.171875 6.109375 -3.171875 C 6.109375 -3.171875 0.515625 -3.171875 0.515625 -3.171875 C 0.515625 -3.171875 0.515625 -4.90625 0.515625 -4.90625 C 0.515625 -4.90625 6.53125 -13.234375 6.53125 -13.234375 C 6.53125 -13.234375 7.75 -13.234375 7.75 -13.234375 C 7.75 -13.234375 7.75 -4.65625 7.75 -4.65625 C 7.75 -4.65625 9.703125 -4.65625 9.703125 -4.65625 C 9.703125 -4.65625 9.703125 -3.171875 9.703125 -3.171875 Z M 6.109375 -4.65625 C 6.109375 -4.65625 6.109375 -10.4375 6.109375 -10.4375 C 6.109375 -10.4375 1.953125 -4.65625 1.953125 -4.65625 C 1.953125 -4.65625 6.109375 -4.65625 6.109375 -4.65625 Z M 6.109375 -4.65625 "/>
</g>
<g id="glyph-2-0-714b89ed">
<path d="M 9.46875 -6.359375 C 9.46875 -2.015625 7.9375 0.28125 5.140625 0.28125 C 2.296875 0.28125 0.796875 -2.015625 0.796875 -6.484375 C 0.796875 -10.921875 2.28125 -13.234375 5.140625 -13.234375 C 8.015625 -13.234375 9.46875 -10.953125 9.46875 -6.359375 Z M 7.78125 -6.515625 C 7.78125 -10.0625 6.90625 -11.78125 5.140625 -11.78125 C 3.359375 -11.78125 2.484375 -10.078125 2.484375 -6.453125 C 2.484375 -2.84375 3.359375 -1.078125 5.09375 -1.078125 C 6.921875 -1.078125 7.78125 -2.765625 7.78125 -6.515625 Z M 7.78125 -6.515625 "/>
</g>
<g id="glyph-3-0-714b89ed">
<path d="M 3.5625 0 C 3.5625 0 1.625 0 1.625 0 C 1.625 0 1.625 -1.9375 1.625 -1.9375 C 1.625 -1.9375 3.5625 -1.9375 3.5625 -1.9375 C 3.5625 -1.9375 3.5625 0 3.5625 0 Z M 3.5625 0 "/>
</g>
<g id="glyph-4-0-714b89ed">
<path d="M 9.46875 -6.359375 C 9.46875 -2.015625 7.9375 0.28125 5.140625 0.28125 C 2.296875 0.28125 0.796875 -2.015625 0.796875 -6.484375 C 0.796875 -10.921875 2.28125 -13.234375 5.140625 -13.234375 C 8.015625 -13.234375 9.46875 -10.953125 9.46875 -6.359375 Z M 7.78125 -6.515625 C 7.78125 -10.0625 6.90625 -11.78125 5.140625 -11.78125 C 3.359375 -11.78125 2.484375 -10.078125 2.484375 -6.453125 C 2.484375 -2.84375 3.359375 -1.078125 5.09375 -1.078125 C 6.921875 -1.078125 7.78125 -2.765625 7.78125 -6.515625 Z M 7.78125 -6.515625 "/>
</g>
<g id="glyph-5-0-714b89ed">
<path d="M 9.46875 -6.359375 C 9.46875 -2.015625 7.9375 0.28125 5.140625 0.28125 C 2.296875 0.28125 0.796875 -2.015625 0.796875 -6.484375 C 0.796875 -10.921875 2.28125 -13.234375 5.140625 -13.234375 C 8.015625 -13.234375 9.46875 -10.953125 9.46875 -6.359375 Z M 7.78125 -6.515625 C 7.78125 -10.0625 6.90625 -11.78125 5.140625 -11.78125 C 3.359375 -11.78125 2.484375 -10.078125 2.484375 -6.453125 C 2.484375 -2.84375 3.359375 -1.078125 5.09375 -1.078125 C 6.921875 -1.078125 7.78125 -2.765625 7.78125 -6.515625 Z M 7.78125 -6.515625 "/>
</g>
<g id="glyph-6-0-714b89ed">
<path d="M 11.609375 -12.53125 C 11.609375 -12.703125 11.5 -12.75 11.359375 -12.75 C 10.734375 -12.75 10.0625 -12.703125 9.421875 -12.703125 C 8.59375 -12.703125 7.71875 -12.75 6.890625 -12.75 C 6.71875 -12.75 6.5 -12.75 6.5 -12.390625 C 6.5 -12.171875 6.671875 -12.171875 6.96875 -12.171875 L 7.1875 -12.171875 C 7.5 -12.171875 7.71875 -12.171875 8.046875 -12.140625 C 8.453125 -12.078125 8.609375 -12.0625 8.609375 -11.78125 C 8.609375 -11.703125 8.609375 -11.671875 8.53125 -11.40625 L 6.359375 -2.703125 C 6.015625 -1.3125 4.953125 0 3.921875 0 C 3.15625 0 2.5 -0.46875 2.359375 -1.234375 C 2.390625 -1.21875 2.421875 -1.21875 2.5625 -1.21875 C 3.265625 -1.21875 3.671875 -1.84375 3.671875 -2.3125 C 3.671875 -2.796875 3.3125 -3.046875 2.90625 -3.046875 C 2.859375 -3.046875 1.75 -3.046875 1.75 -1.609375 C 1.75 -0.34375 2.765625 0.40625 3.953125 0.40625 C 5.71875 0.40625 7.4375 -0.984375 7.84375 -2.6875 L 10.03125 -11.5 C 10.15625 -12.03125 10.28125 -12.171875 11.125 -12.171875 C 11.40625 -12.171875 11.609375 -12.171875 11.609375 -12.53125 Z M 11.609375 -12.53125 "/>
</g>
<g id="glyph-6-1-714b89ed">
<path d="M 9.109375 -2.671875 C 9.109375 -2.859375 8.96875 -2.859375 8.828125 -2.859375 C 8.609375 -2.859375 8.59375 -2.84375 8.5 -2.546875 C 7.984375 -0.9375 7.0625 -0.203125 6.28125 -0.203125 C 5.90625 -0.203125 5.390625 -0.421875 5.390625 -1.40625 C 5.390625 -1.84375 5.609375 -2.65625 5.75 -3.28125 L 6.390625 -5.84375 C 6.640625 -6.8125 7.15625 -7.84375 8.03125 -7.84375 C 8.078125 -7.84375 8.546875 -7.84375 8.84375 -7.578125 C 8.109375 -7.390625 8.109375 -6.6875 8.109375 -6.6875 C 8.109375 -6.4375 8.265625 -6.09375 8.75 -6.09375 C 9.09375 -6.09375 9.671875 -6.34375 9.671875 -7.078125 C 9.671875 -8.03125 8.59375 -8.25 8.046875 -8.25 C 7.015625 -8.25 6.40625 -7.34375 6.21875 -6.984375 C 5.8125 -8.109375 4.890625 -8.25 4.421875 -8.25 C 2.5625 -8.25 1.546875 -5.8125 1.546875 -5.375 C 1.546875 -5.1875 1.734375 -5.1875 1.828125 -5.1875 C 2.078125 -5.1875 2.078125 -5.203125 2.171875 -5.515625 C 2.671875 -7.109375 3.640625 -7.84375 4.390625 -7.84375 C 4.921875 -7.84375 5.28125 -7.40625 5.28125 -6.671875 C 5.28125 -6.21875 5.0625 -5.296875 4.890625 -4.609375 L 4.46875 -2.90625 C 4.15625 -1.703125 3.765625 -0.203125 2.65625 -0.203125 C 2.59375 -0.203125 2.140625 -0.203125 1.828125 -0.46875 C 2.390625 -0.609375 2.5625 -1.078125 2.5625 -1.359375 C 2.5625 -1.84375 2.171875 -1.953125 1.921875 -1.953125 C 1.453125 -1.953125 0.984375 -1.5625 0.984375 -0.953125 C 0.984375 -0.21875 1.78125 0.203125 2.625 0.203125 C 3.53125 0.203125 4.140625 -0.5 4.46875 -1.0625 C 4.84375 0 5.75 0.203125 6.234375 0.203125 C 8.15625 0.203125 9.109375 -2.296875 9.109375 -2.671875 Z M 9.109375 -2.671875 "/>
</g>
<g id="glyph-7-0-714b89ed">
<path d="M 5.46875 -1.609375 C 5.46875 -1.71875 5.375 -1.71875 5.296875 -1.71875 C 5.171875 -1.71875 5.15625 -1.703125 5.09375 -1.53125 C 4.796875 -0.5625 4.234375 -0.125 3.765625 -0.125 C 3.546875 -0.125 3.234375 -0.25 3.234375 -0.84375 C 3.234375 -1.109375 3.359375 -1.59375 3.453125 -1.96875 L 3.828125 -3.5 C 3.984375 -4.09375 4.296875 -4.703125 4.8125 -4.703125 C 4.84375 -4.703125 5.125 -4.703125 5.3125 -4.546875 C 4.859375 -4.4375 4.859375 -4.015625 4.859375 -4.015625 C 4.859375 -3.859375 4.96875 -3.65625 5.25 -3.65625 C 5.453125 -3.65625 5.796875 -3.8125 5.796875 -4.25 C 5.796875 -4.8125 5.15625 -4.953125 4.828125 -4.953125 C 4.21875 -4.953125 3.84375 -4.40625 3.734375 -4.1875 C 3.484375 -4.859375 2.9375 -4.953125 2.65625 -4.953125 C 1.53125 -4.953125 0.9375 -3.484375 0.9375 -3.21875 C 0.9375 -3.109375 1.046875 -3.109375 1.09375 -3.109375 C 1.25 -3.109375 1.25 -3.125 1.296875 -3.3125 C 1.609375 -4.265625 2.1875 -4.703125 2.625 -4.703125 C 2.953125 -4.703125 3.171875 -4.453125 3.171875 -4 C 3.171875 -3.734375 3.03125 -3.1875 2.9375 -2.765625 L 2.671875 -1.75 C 2.5 -1.015625 2.265625 -0.125 1.59375 -0.125 C 1.5625 -0.125 1.28125 -0.125 1.09375 -0.28125 C 1.4375 -0.375 1.53125 -0.65625 1.53125 -0.8125 C 1.53125 -1.109375 1.296875 -1.171875 1.15625 -1.171875 C 0.875 -1.171875 0.59375 -0.9375 0.59375 -0.578125 C 0.59375 -0.140625 1.0625 0.125 1.578125 0.125 C 2.125 0.125 2.484375 -0.296875 2.671875 -0.640625 C 2.90625 0 3.453125 0.125 3.734375 0.125 C 4.890625 0.125 5.46875 -1.375 5.46875 -1.609375 Z M 5.46875 -1.609375 "/>
</g>
<g id="glyph-8-0-714b89ed">
<path d="M 6.28125 4.296875 C 6.28125 4.234375 6.28125 4.203125 6.25 4.15625 L 2.8125 -4.671875 L 6.25 -13.5 C 6.28125 -13.53125 6.28125 -13.578125 6.28125 -13.625 C 6.28125 -13.84375 6.109375 -14 5.90625 -14 C 5.75 -14 5.609375 -13.90625 5.546875 -13.765625 L 2.078125 -4.796875 C 2.046875 -4.765625 2.046875 -4.71875 2.046875 -4.671875 C 2.046875 -4.609375 2.046875 -4.578125 2.078125 -4.53125 L 5.546875 4.421875 C 5.609375 4.578125 5.75 4.671875 5.90625 4.671875 C 6.109375 4.671875 6.28125 4.5 6.28125 4.296875 Z M 6.28125 4.296875 "/>
</g>
<g id="glyph-8-1-714b89ed">
<path d="M 5.1875 -4.796875 L 1.71875 -13.765625 C 1.65625 -13.90625 1.515625 -14 1.359375 -14 C 1.15625 -14 0.984375 -13.84375 0.984375 -13.625 C 0.984375 -13.578125 0.984375 -13.53125 1.015625 -13.5 L 4.4375 -4.671875 L 1.015625 4.15625 C 0.984375 4.203125 0.984375 4.234375 0.984375 4.296875 C 0.984375 4.5 1.15625 4.671875 1.359375 4.671875 C 1.515625 4.671875 1.65625 4.578125 1.71875 4.421875 L 5.1875 -4.53125 C 5.203125 -4.578125 5.203125 -4.609375 5.203125 -4.671875 C 5.203125 -4.71875 5.203125 -4.765625 5.1875 -4.796875 Z M 5.1875 -4.796875 "/>
</g>
</g>
</defs>
<path fill-rule="nonzero" fill="rgb(100%, 100%, 100%)" fill-opacity="1" d="M 0 0 L 666.667969 0 L 666.667969 466.667969 L 0 466.667969 Z M 0 0 "/>
<path fill-rule="nonzero" fill="rgb(100%, 100%, 100%)" fill-opacity="1" d="M 54.667969 388 L 645.335938 388 L 645.335938 21.332031 L 54.667969 21.332031 Z M 54.667969 388 "/>
<path fill="none" stroke-width="1" stroke-linecap="butt" stroke-linejoin="miter" stroke="rgb(0%, 0%, 0%)" stroke-opacity="0.12" stroke-miterlimit="1.154701" d="M 61.136719 291 L 61.136719 15.999023 " transform="matrix(1.333333, 0, 0, 1.333333, 0, 0)"/>
<path fill="none" stroke-width="1" stroke-linecap="butt" stroke-linejoin="miter" stroke="rgb(0%, 0%, 0%)" stroke-opacity="0.12" stroke-miterlimit="1.154701" d="M 262.5 291 L 262.5 15.999023 " transform="matrix(1.333333, 0, 0, 1.333333, 0, 0)"/>
<path fill="none" stroke-width="1" stroke-linecap="butt" stroke-linejoin="miter" stroke="rgb(0%, 0%, 0%)" stroke-opacity="0.12" stroke-miterlimit="1.154701" d="M 463.863281 291 L 463.863281 15.999023 " transform="matrix(1.333333, 0, 0, 1.333333, 0, 0)"/>
<path fill="none" stroke-width="1" stroke-linecap="butt" stroke-linejoin="miter" stroke="rgb(0%, 0%, 0%)" stroke-opacity="0.12" stroke-miterlimit="1.154701" d="M 41.000977 249.788086 L 483.999023 249.788086 " transform="matrix(1.333333, 0, 0, 1.333333, 0, 0)"/>
<path fill="none" stroke-width="1" stroke-linecap="butt" stroke-linejoin="miter" stroke="rgb(0%, 0%, 0%)" stroke-opacity="0.12" stroke-miterlimit="1.154701" d="M 41.000977 162.981445 L 483.999023 162.981445 " transform="matrix(1.333333, 0, 0, 1.333333, 0, 0)"/>
<path fill="none" stroke-width="1" stroke-linecap="butt" stroke-linejoin="miter" stroke="rgb(0%, 0%, 0%)" stroke-opacity="0.12" stroke-miterlimit="1.154701" d="M 41.000977 76.177734 L 483.999023 76.177734 " transform="matrix(1.333333, 0, 0, 1.333333, 0, 0)"/>
<g fill="rgb(0%, 0%, 0%)" fill-opacity="1">
<use xlink:href="#glyph-0-0-714b89ed" x="329.261349" y="442.090667"/>
</g>
<g fill="rgb(0%, 0%, 0%)" fill-opacity="1">
<use xlink:href="#glyph-1-0-714b89ed" x="340.666683" y="442.090667"/>
</g>
<g fill="rgb(0%, 0%, 0%)" fill-opacity="1">
<use xlink:href="#glyph-1-1-714b89ed" x="344.810683" y="442.090667"/>
</g>
<g fill="rgb(0%, 0%, 0%)" fill-opacity="1">
<use xlink:href="#glyph-1-2-714b89ed" x="360.360016" y="442.090667"/>
</g>
<g fill="rgb(0%, 0%, 0%)" fill-opacity="1">
<use xlink:href="#glyph-2-0-714b89ed" x="68.541823" y="416.344001"/>
</g>
<g fill="rgb(0%, 0%, 0%)" fill-opacity="1">
<use xlink:href="#glyph-3-0-714b89ed" x="78.92049" y="416.344001"/>
</g>
<g fill="rgb(0%, 0%, 0%)" fill-opacity="1">
<use xlink:href="#glyph-2-0-714b89ed" x="84.109823" y="416.344001"/>
</g>
<g fill="rgb(0%, 0%, 0%)" fill-opacity="1">
<use xlink:href="#glyph-1-3-714b89ed" x="337.026683" y="416.344001"/>
</g>
<g fill="rgb(0%, 0%, 0%)" fill-opacity="1">
<use xlink:href="#glyph-1-4-714b89ed" x="347.40535" y="416.344001"/>
</g>
<g fill="rgb(0%, 0%, 0%)" fill-opacity="1">
<use xlink:href="#glyph-1-5-714b89ed" x="352.594684" y="416.344001"/>
</g>
<g fill="rgb(0%, 0%, 0%)" fill-opacity="1">
<use xlink:href="#glyph-1-6-714b89ed" x="605.511559" y="416.344001"/>
</g>
<g fill="rgb(0%, 0%, 0%)" fill-opacity="1">
<use xlink:href="#glyph-1-4-714b89ed" x="615.890226" y="416.344001"/>
</g>
<g fill="rgb(0%, 0%, 0%)" fill-opacity="1">
<use xlink:href="#glyph-1-3-714b89ed" x="621.07956" y="416.344001"/>
</g>
<g fill="rgb(0%, 0%, 0%)" fill-opacity="1">
<use xlink:href="#glyph-4-0-714b89ed" x="30.954668" y="339.853094"/>
</g>
<g fill="rgb(0%, 0%, 0%)" fill-opacity="1">
<use xlink:href="#glyph-1-7-714b89ed" x="20.576001" y="224.114102"/>
</g>
<g fill="rgb(0%, 0%, 0%)" fill-opacity="1">
<use xlink:href="#glyph-5-0-714b89ed" x="30.954668" y="224.114102"/>
</g>
<g fill="rgb(0%, 0%, 0%)" fill-opacity="1">
<use xlink:href="#glyph-1-8-714b89ed" x="20.576001" y="108.37513"/>
</g>
<g fill="rgb(0%, 0%, 0%)" fill-opacity="1">
<use xlink:href="#glyph-5-0-714b89ed" x="30.954668" y="108.37513"/>
</g>
<path fill="none" stroke-width="1.5" stroke-linecap="butt" stroke-linejoin="miter" stroke="rgb(100%, 0%, 0%)" stroke-opacity="1" stroke-miterlimit="2" d="M 61.136719 28.5 L 62.144531 230.390625 L 63.149414 226.154297 L 64.157227 220.731445 L 65.165039 224.305664 L 66.169922 225.193359 L 67.177734 232.306641 L 68.182617 223.766602 L 69.19043 234.896484 L 70.198242 231.105469 L 71.203125 230.118164 L 72.210938 229.400391 L 73.21875 241.558594 L 74.223633 238.602539 L 75.231445 235.338867 L 76.239258 243.351562 L 77.244141 251.53125 L 78.251953 249.541992 L 79.259766 248.982422 L 80.264648 245.915039 L 81.272461 247.933594 L 82.280273 256.652344 L 83.285156 256.792969 L 84.292969 255.37207 L 85.300781 258.726562 L 86.305664 262.21582 L 87.313477 261.498047 L 88.321289 264.143555 L 89.326172 263.827148 L 90.333984 268.977539 L 91.341797 271.50293 L 92.34668 268.617188 L 93.354492 265.426758 L 94.362305 268.376953 L 95.367188 269.885742 L 96.375 276.726562 L 97.382812 276.307617 L 98.387695 262.798828 L 99.395508 271.895508 L 100.40332 264.084961 L 101.408203 271.148438 L 102.416016 272.126953 L 103.423828 278.499023 L 104.428711 274.924805 L 105.436523 273.064453 L 106.444336 270.099609 L 107.449219 265.347656 L 108.457031 277.444336 L 109.464844 277.664062 L 110.469727 263.282227 L 111.477539 260.264648 L 112.485352 268.772461 L 113.490234 261.1875 L 114.498047 257.091797 L 115.505859 257.238281 L 116.510742 251.739258 L 117.518555 248.041992 L 118.526367 252.483398 L 119.53125 248.835938 L 120.539062 241.450195 L 121.546875 251.050781 L 122.551758 246.808594 L 123.55957 251.90625 L 124.564453 243.008789 L 125.572266 242.537109 L 126.580078 243.386719 L 127.584961 241.87207 L 128.592773 231.041016 L 129.600586 235.253906 L 130.605469 230.771484 L 131.613281 233.835938 L 132.621094 228.764648 L 133.625977 233.519531 L 134.633789 234.108398 L 135.641602 229.110352 L 136.646484 230.818359 L 137.654297 232.274414 L 138.662109 231.703125 L 139.666992 230.097656 L 140.674805 229.605469 L 141.682617 221.835938 L 142.6875 225.624023 L 143.695312 232.259766 L 144.703125 226.297852 L 145.708008 237.744141 L 146.71582 238.520508 L 147.723633 229.21875 L 148.728516 235.256836 L 149.736328 241.256836 L 150.744141 236.601562 L 151.749023 234.18457 L 152.756836 232.113281 L 153.764648 237.480469 L 154.769531 235.775391 L 155.777344 235.069336 L 156.785156 239.05957 L 157.790039 245.188477 L 158.797852 240.776367 L 159.805664 244.526367 L 160.810547 245.789062 L 161.818359 247.807617 L 162.826172 252.826172 L 163.831055 258.975586 L 164.838867 254.915039 L 165.84668 260.036133 L 166.851562 249.875977 L 167.859375 261.486328 L 168.867188 257.686523 L 169.87207 263.871094 L 170.879883 266.560547 L 171.887695 261.348633 L 172.892578 257.458008 L 173.900391 261.28418 L 174.908203 268.798828 L 175.913086 270.539062 L 176.920898 263.712891 L 177.925781 271.212891 L 178.933594 265.119141 L 179.941406 267.099609 L 180.946289 265.857422 L 181.954102 266.950195 L 182.961914 269.270508 L 183.966797 268.614258 L 184.974609 267.515625 L 185.982422 262.989258 L 186.987305 261.152344 L 187.995117 263.915039 L 189.00293 264.755859 L 190.007812 267.837891 L 191.015625 266.173828 L 192.023438 262.620117 L 193.02832 264.852539 L 194.036133 266.545898 L 195.043945 258.383789 L 196.048828 263.865234 L 197.056641 253.746094 L 198.064453 257.633789 L 199.069336 259.538086 L 200.077148 244.974609 L 201.084961 248.352539 L 202.089844 252.873047 L 203.097656 249.357422 L 204.105469 249.032227 L 205.110352 242.753906 L 206.118164 245.419922 L 207.125977 238.860352 L 208.130859 231.249023 L 209.138672 239.425781 L 210.146484 239.888672 L 211.151367 235.983398 L 212.15918 238.300781 L 213.166992 237.061523 L 214.171875 236.768555 L 215.179688 237.389648 L 216.1875 239.835938 L 217.192383 228.606445 L 218.200195 227.255859 L 219.208008 235.819336 L 220.212891 238.883789 L 221.220703 233.947266 L 222.228516 233.961914 L 223.233398 232.880859 L 224.241211 236.578125 L 225.249023 229.655273 L 226.253906 237.84375 L 227.261719 235.992188 L 228.269531 233.862305 L 229.274414 234.357422 L 230.282227 236.25293 L 231.290039 244.019531 L 232.294922 243 L 233.302734 246.143555 L 234.307617 237.164062 L 235.31543 248.894531 L 236.323242 240.430664 L 237.328125 239.361328 L 238.335938 239.765625 L 239.34375 247.479492 L 240.348633 250.570312 L 241.356445 254.663086 L 242.364258 250.819336 L 243.369141 250.362305 L 244.376953 247.50293 L 245.384766 254.833008 L 246.389648 263.223633 L 247.397461 251.458008 L 248.405273 258.295898 L 249.410156 258.928711 L 250.417969 268.350586 L 251.425781 253.523438 L 252.430664 252.755859 L 253.438477 268.075195 L 254.446289 261.061523 L 255.451172 265.385742 L 256.458984 265.482422 L 257.466797 268.400391 L 258.47168 259.549805 L 259.479492 269.208984 L 260.487305 261.577148 L 261.492188 270.067383 L 262.5 260.548828 L 263.507812 263.074219 L 264.512695 264.222656 L 265.520508 264.413086 L 266.52832 265.289062 L 267.533203 265.866211 L 268.541016 265.494141 L 269.548828 258.202148 L 270.553711 258.858398 L 271.561523 258.47168 L 272.569336 256.59375 L 273.574219 257.516602 L 274.582031 258.18457 L 275.589844 260.241211 L 276.594727 252.316406 L 277.602539 257.100586 L 278.610352 252.820312 L 279.615234 251.71875 L 280.623047 256.746094 L 281.630859 249.205078 L 282.635742 251.05957 L 283.643555 246.811523 L 284.651367 246.392578 L 285.65625 241.212891 L 286.664062 237.823242 L 287.671875 241.649414 L 288.676758 251.317383 L 289.68457 236.044922 L 290.689453 243.360352 L 291.697266 235.743164 L 292.705078 232.154297 L 293.709961 235.731445 L 294.717773 243.202148 L 295.725586 238.286133 L 296.730469 231.990234 L 297.738281 232.795898 L 298.746094 235.192383 L 299.750977 238.678711 L 300.758789 232.101562 L 301.766602 237.292969 L 302.771484 238.224609 L 303.779297 238.491211 L 304.787109 242.601562 L 305.791992 237.568359 L 306.799805 240.600586 L 307.807617 238.359375 L 308.8125 239.402344 L 309.820312 237.246094 L 310.828125 243.814453 L 311.833008 242.402344 L 312.84082 250.822266 L 313.848633 241.259766 L 314.853516 244.075195 L 315.861328 241.133789 L 316.869141 245.258789 L 317.874023 247.787109 L 318.881836 242.024414 L 319.889648 248.777344 L 320.894531 249.307617 L 321.902344 251.188477 L 322.910156 252.679688 L 323.915039 245.838867 L 324.922852 247.303711 L 325.930664 254.460938 L 326.935547 253.283203 L 327.943359 257.604492 L 328.951172 258.536133 L 329.956055 255.017578 L 330.963867 256.476562 L 331.97168 262.259766 L 332.976562 261.301758 L 333.984375 257.545898 L 334.992188 261.436523 L 335.99707 258.650391 L 337.004883 264.073242 L 338.012695 261.243164 L 339.017578 261.761719 L 340.025391 265.854492 L 341.033203 255.65625 L 342.038086 258.949219 L 343.045898 260.030273 L 344.050781 261.890625 L 345.058594 264.770508 L 346.066406 259.435547 L 347.071289 262.107422 L 348.079102 261.914062 L 349.086914 260.841797 L 350.091797 259.333008 L 351.099609 258.331055 L 352.107422 253.177734 L 353.112305 257.90625 L 354.120117 265.669922 L 355.12793 255.222656 L 356.132812 254.308594 L 357.140625 258.714844 L 358.148438 254.52832 L 359.15332 249.650391 L 360.161133 260.030273 L 361.168945 248.109375 L 362.173828 250.543945 L 363.181641 244.87793 L 364.189453 246.585938 L 365.194336 243.070312 L 366.202148 244.259766 L 367.209961 240.008789 L 368.214844 250.154297 L 369.222656 238.171875 L 370.230469 241.611328 L 371.235352 239.932617 L 372.243164 244.353516 L 373.250977 248.519531 L 374.255859 242.191406 L 375.263672 240.65918 L 376.271484 244.227539 L 377.276367 242.279297 L 378.28418 239.167969 L 379.291992 236.52832 L 380.296875 230.05957 L 381.304688 240.823242 L 382.3125 234.881836 L 383.317383 237.5625 L 384.325195 240.27832 L 385.333008 232.936523 L 386.337891 237.679688 L 387.345703 241.649414 L 388.353516 240.322266 L 389.358398 239.859375 L 390.366211 246.073242 L 391.374023 237.662109 L 392.378906 239.619141 L 393.386719 240.673828 L 394.394531 239.499023 L 395.399414 243.770508 L 396.407227 244.341797 L 397.415039 246.583008 L 398.419922 240.459961 L 399.427734 251.118164 L 400.432617 246.527344 L 401.44043 248.214844 L 402.448242 254.033203 L 403.453125 249.073242 L 404.460938 244.708008 L 405.46875 253.666992 L 406.473633 254.191406 L 407.481445 260.80957 L 408.489258 248.879883 L 409.494141 251.296875 L 410.501953 252.670898 L 411.509766 254.387695 L 412.514648 260.777344 L 413.522461 251.478516 L 414.530273 267.304688 L 415.535156 257.932617 L 416.542969 260.859375 L 417.550781 258.404297 L 418.555664 257.428711 L 419.563477 253.03125 L 420.571289 267.275391 L 421.576172 262.289062 L 422.583984 266.707031 L 423.591797 258.342773 L 424.59668 258.635742 L 425.604492 262.605469 L 426.612305 258.28125 L 427.617188 257.686523 L 428.625 264.826172 L 429.632812 254.789062 L 430.637695 255.137695 L 431.645508 254.748047 L 432.65332 256.060547 L 433.658203 259.883789 L 434.666016 263.220703 L 435.673828 252.410156 L 436.678711 255.061523 L 437.686523 254.091797 L 438.694336 252.137695 L 439.699219 248.367188 L 440.707031 247.078125 L 441.714844 240.773438 L 442.719727 247.693359 L 443.727539 254.469727 L 444.735352 249.333984 L 445.740234 239.220703 L 446.748047 245.900391 L 447.755859 246.240234 L 448.760742 246.301758 L 449.768555 246.571289 L 450.776367 240.354492 L 451.78125 246.108398 L 452.789062 248.176758 L 453.796875 247.453125 L 454.801758 244.620117 L 455.80957 237.697266 L 456.814453 239.121094 L 457.822266 243.782227 L 458.830078 235.798828 L 459.834961 242.150391 L 460.842773 249.205078 L 461.850586 241.412109 L 462.855469 246.509766 " transform="matrix(1.333333, 0, 0, 1.333333, 0, 0)"/>
<path fill="none" stroke-width="1.5" stroke-linecap="butt" stroke-linejoin="miter" stroke="rgb(0%, 0%, 0%)" stroke-opacity="1" stroke-miterlimit="2" d="M 61.136719 232.426758 L 62.144531 232.523438 L 63.149414 232.725586 L 64.157227 233.033203 L 65.165039 233.44043 L 66.169922 233.947266 L 67.177734 234.547852 L 68.182617 235.242188 L 69.19043 236.018555 L 70.198242 236.879883 L 71.203125 237.814453 L 72.210938 238.816406 L 73.21875 239.882812 L 74.223633 241.004883 L 75.231445 242.176758 L 76.239258 243.386719 L 77.244141 244.631836 L 78.251953 245.90332 L 79.259766 247.189453 L 80.264648 248.487305 L 81.272461 249.785156 L 82.280273 251.080078 L 83.285156 252.357422 L 84.292969 253.611328 L 85.300781 254.838867 L 86.305664 256.02832 L 87.313477 257.170898 L 88.321289 258.266602 L 89.326172 259.300781 L 90.333984 260.273438 L 91.341797 261.175781 L 92.34668 262.001953 L 93.354492 262.751953 L 94.362305 263.416992 L 95.367188 263.994141 L 96.375 264.483398 L 97.382812 264.875977 L 98.387695 265.177734 L 99.395508 265.379883 L 100.40332 265.485352 L 101.408203 265.494141 L 102.416016 265.40918 L 103.423828 265.224609 L 104.428711 264.946289 L 105.436523 264.577148 L 106.444336 264.120117 L 107.449219 263.575195 L 108.457031 262.948242 L 109.464844 262.245117 L 110.469727 261.46582 L 111.477539 260.62207 L 112.485352 259.713867 L 113.490234 258.74707 L 114.498047 257.733398 L 115.505859 256.672852 L 116.510742 255.577148 L 117.518555 254.452148 L 118.526367 253.300781 L 119.53125 252.137695 L 121.546875 249.788086 L 122.551758 248.619141 L 123.55957 247.461914 L 124.564453 246.325195 L 125.572266 245.214844 L 126.580078 244.139648 L 127.584961 243.105469 L 128.592773 242.115234 L 129.600586 241.177734 L 130.605469 240.298828 L 131.613281 239.481445 L 132.621094 238.734375 L 133.625977 238.054688 L 134.633789 237.454102 L 135.641602 236.932617 L 136.646484 236.490234 L 137.654297 236.132812 L 138.662109 235.863281 L 139.666992 235.678711 L 140.674805 235.582031 L 141.682617 235.573242 L 142.6875 235.652344 L 143.695312 235.816406 L 144.703125 236.068359 L 145.708008 236.402344 L 146.71582 236.818359 L 147.723633 237.310547 L 148.728516 237.875977 L 149.736328 238.514648 L 150.744141 239.217773 L 151.749023 239.982422 L 152.756836 240.805664 L 153.764648 241.678711 L 154.769531 242.595703 L 155.777344 243.553711 L 156.785156 244.546875 L 157.790039 245.566406 L 158.797852 246.606445 L 159.805664 247.661133 L 160.810547 248.72168 L 161.818359 249.785156 L 162.826172 250.842773 L 163.831055 251.888672 L 164.838867 252.916992 L 165.84668 253.921875 L 166.851562 254.894531 L 167.859375 255.832031 L 168.867188 256.728516 L 169.87207 257.575195 L 170.879883 258.37207 L 171.887695 259.110352 L 172.892578 259.787109 L 173.900391 260.402344 L 174.908203 260.944336 L 175.913086 261.418945 L 176.920898 261.817383 L 177.925781 262.142578 L 178.933594 262.385742 L 179.941406 262.552734 L 180.946289 262.640625 L 181.954102 262.649414 L 182.961914 262.576172 L 183.966797 262.426758 L 184.974609 262.201172 L 185.982422 261.896484 L 186.987305 261.521484 L 187.995117 261.076172 L 189.00293 260.563477 L 190.007812 259.986328 L 191.015625 259.350586 L 192.023438 258.65918 L 193.02832 257.915039 L 194.036133 257.124023 L 195.043945 256.294922 L 196.048828 255.427734 L 197.056641 254.52832 L 198.064453 253.608398 L 199.069336 252.665039 L 200.077148 251.712891 L 201.084961 250.751953 L 202.089844 249.788086 L 203.097656 248.830078 L 204.105469 247.883789 L 205.110352 246.955078 L 206.118164 246.046875 L 207.125977 245.165039 L 208.130859 244.318359 L 209.138672 243.506836 L 210.146484 242.739258 L 211.151367 242.018555 L 212.15918 241.350586 L 213.166992 240.738281 L 214.171875 240.181641 L 215.179688 239.689453 L 216.1875 239.261719 L 217.192383 238.901367 L 218.200195 238.608398 L 219.208008 238.385742 L 220.212891 238.236328 L 221.220703 238.157227 L 222.228516 238.148438 L 223.233398 238.212891 L 224.241211 238.350586 L 225.249023 238.555664 L 226.253906 238.828125 L 227.261719 239.167969 L 228.269531 239.572266 L 229.274414 240.035156 L 230.282227 240.556641 L 231.290039 241.133789 L 232.294922 241.760742 L 233.302734 242.431641 L 234.307617 243.146484 L 235.31543 243.899414 L 236.323242 244.68457 L 237.328125 245.496094 L 238.335938 246.331055 L 239.34375 247.180664 L 240.348633 248.044922 L 242.364258 249.785156 L 243.369141 250.652344 L 244.376953 251.507812 L 245.384766 252.348633 L 246.389648 253.171875 L 247.397461 253.96875 L 248.405273 254.736328 L 249.410156 255.46875 L 250.417969 256.163086 L 251.425781 256.813477 L 252.430664 257.419922 L 253.438477 257.973633 L 254.446289 258.477539 L 255.451172 258.922852 L 256.458984 259.30957 L 257.466797 259.637695 L 258.47168 259.901367 L 259.479492 260.103516 L 260.487305 260.238281 L 261.492188 260.311523 L 262.5 260.317383 L 263.507812 260.258789 L 264.512695 260.135742 L 265.520508 259.951172 L 266.52832 259.702148 L 267.533203 259.394531 L 268.541016 259.03125 L 269.548828 258.609375 L 270.553711 258.137695 L 271.561523 257.616211 L 272.569336 257.050781 L 273.574219 256.441406 L 274.582031 255.793945 L 275.589844 255.114258 L 276.594727 254.405273 L 277.602539 253.669922 L 278.610352 252.914062 L 279.615234 252.143555 L 280.623047 251.364258 L 281.630859 250.576172 L 282.635742 249.788086 L 283.643555 249.005859 L 284.651367 248.229492 L 285.65625 247.467773 L 286.664062 246.723633 L 287.671875 246.00293 L 288.676758 245.308594 L 289.68457 244.646484 L 290.689453 244.016602 L 291.697266 243.427734 L 292.705078 242.879883 L 293.709961 242.378906 L 294.717773 241.924805 L 295.725586 241.520508 L 296.730469 241.168945 L 297.738281 240.873047 L 298.746094 240.635742 L 299.750977 240.454102 L 300.758789 240.328125 L 301.766602 240.263672 L 302.771484 240.257812 L 303.779297 240.310547 L 304.787109 240.421875 L 305.791992 240.591797 L 306.799805 240.814453 L 307.807617 241.092773 L 308.8125 241.423828 L 309.820312 241.801758 L 310.828125 242.229492 L 311.833008 242.701172 L 312.84082 243.213867 L 313.848633 243.764648 L 314.853516 244.350586 L 315.861328 244.96582 L 316.869141 245.607422 L 317.874023 246.272461 L 318.881836 246.955078 L 319.889648 247.652344 L 320.894531 248.358398 L 321.902344 249.070312 L 322.910156 249.785156 L 323.915039 250.494141 L 324.922852 251.194336 L 325.930664 251.885742 L 326.935547 252.556641 L 327.943359 253.209961 L 328.951172 253.836914 L 329.956055 254.4375 L 330.963867 255.005859 L 331.97168 255.539062 L 332.976562 256.037109 L 333.984375 256.491211 L 334.992188 256.901367 L 335.99707 257.267578 L 337.004883 257.583984 L 338.012695 257.850586 L 339.017578 258.067383 L 340.025391 258.231445 L 341.033203 258.345703 L 342.038086 258.404297 L 343.045898 258.407227 L 344.050781 258.360352 L 345.058594 258.260742 L 346.066406 258.108398 L 347.071289 257.90625 L 348.079102 257.654297 L 349.086914 257.355469 L 350.091797 257.012695 L 351.099609 256.625977 L 352.107422 256.198242 L 353.112305 255.735352 L 354.120117 255.234375 L 355.12793 254.707031 L 356.132812 254.150391 L 357.140625 253.567383 L 358.148438 252.966797 L 359.15332 252.348633 L 360.161133 251.71875 L 361.168945 251.077148 L 362.173828 250.435547 L 363.181641 249.788086 L 364.189453 249.146484 L 365.194336 248.513672 L 366.202148 247.889648 L 367.209961 247.280273 L 368.214844 246.688477 L 369.222656 246.120117 L 370.230469 245.578125 L 371.235352 245.0625 L 372.243164 244.582031 L 373.250977 244.133789 L 374.255859 243.720703 L 375.263672 243.348633 L 376.271484 243.020508 L 377.276367 242.733398 L 378.28418 242.490234 L 379.291992 242.293945 L 380.296875 242.144531 L 381.304688 242.044922 L 382.3125 241.989258 L 383.317383 241.986328 L 384.325195 242.030273 L 385.333008 242.121094 L 386.337891 242.258789 L 387.345703 242.44043 L 388.353516 242.668945 L 389.358398 242.938477 L 390.366211 243.249023 L 391.374023 243.600586 L 392.378906 243.984375 L 393.386719 244.40625 L 394.394531 244.857422 L 395.399414 245.334961 L 396.407227 245.838867 L 397.415039 246.366211 L 398.419922 246.908203 L 399.427734 247.467773 L 400.432617 248.039062 L 401.44043 248.619141 L 402.448242 249.202148 L 403.453125 249.785156 L 404.460938 250.365234 L 405.46875 250.939453 L 406.473633 251.504883 L 407.481445 252.055664 L 408.489258 252.588867 L 409.494141 253.104492 L 410.501953 253.59375 L 411.509766 254.05957 L 412.514648 254.496094 L 413.522461 254.90332 L 414.530273 255.275391 L 415.535156 255.612305 L 416.542969 255.911133 L 417.550781 256.168945 L 418.555664 256.388672 L 419.563477 256.567383 L 420.571289 256.702148 L 421.576172 256.792969 L 422.583984 256.839844 L 423.591797 256.845703 L 424.59668 256.807617 L 425.604492 256.722656 L 426.612305 256.599609 L 427.617188 256.432617 L 428.625 256.227539 L 429.632812 255.984375 L 430.637695 255.703125 L 431.645508 255.386719 L 432.65332 255.035156 L 433.658203 254.657227 L 434.666016 254.24707 L 435.673828 253.816406 L 436.678711 253.359375 L 437.686523 252.881836 L 438.694336 252.389648 L 439.699219 251.885742 L 440.707031 251.367188 L 441.714844 250.845703 L 442.719727 250.318359 L 443.727539 249.788086 L 444.735352 249.263672 L 445.740234 248.745117 L 446.748047 248.232422 L 447.755859 247.734375 L 448.760742 247.250977 L 449.768555 246.785156 L 450.776367 246.342773 L 451.78125 245.920898 L 452.789062 245.525391 L 453.796875 245.15918 L 454.801758 244.822266 L 455.80957 244.517578 L 456.814453 244.245117 L 457.822266 244.010742 L 458.830078 243.811523 L 459.834961 243.65332 L 460.842773 243.530273 L 461.850586 243.448242 L 462.855469 243.404297 L 463.863281 243.401367 " transform="matrix(1.333333, 0, 0, 1.333333, 0, 0)"/>
<path fill-rule="nonzero" fill="rgb(100%, 100%, 100%)" fill-opacity="1" stroke-width="1" stroke-linecap="butt" stroke-linejoin="miter" stroke="rgb(0%, 0%, 0%)" stroke-opacity="1" stroke-miterlimit="2" d="M 423.999023 77.000977 L 477.999023 77.000977 L 477.999023 22.001953 L 423.999023 22.001953 Z M 423.999023 77.000977 " transform="matrix(1.333333, 0, 0, 1.333333, 0, 0)"/>
<path fill="none" stroke-width="1" stroke-linecap="butt" stroke-linejoin="miter" stroke="rgb(0%, 0%, 0%)" stroke-opacity="1" stroke-miterlimit="1.154701" d="M 61.136719 291.500977 L 61.136719 296.499023 " transform="matrix(1.333333, 0, 0, 1.333333, 0, 0)"/>
<path fill="none" stroke-width="1" stroke-linecap="butt" stroke-linejoin="miter" stroke="rgb(0%, 0%, 0%)" stroke-opacity="1" stroke-miterlimit="1.154701" d="M 262.5 291.500977 L 262.5 296.499023 " transform="matrix(1.333333, 0, 0, 1.333333, 0, 0)"/>
<path fill="none" stroke-width="1" stroke-linecap="butt" stroke-linejoin="miter" stroke="rgb(0%, 0%, 0%)" stroke-opacity="1" stroke-miterlimit="1.154701" d="M 463.863281 291.500977 L 463.863281 296.499023 " transform="matrix(1.333333, 0, 0, 1.333333, 0, 0)"/>
<path fill="none" stroke-width="1" stroke-linecap="butt" stroke-linejoin="miter" stroke="rgb(0%, 0%, 0%)" stroke-opacity="1" stroke-miterlimit="1.154701" d="M 40.5 249.788086 L 35.499023 249.788086 " transform="matrix(1.333333, 0, 0, 1.333333, 0, 0)"/>
<path fill="none" stroke-width="1" stroke-linecap="butt" stroke-linejoin="miter" stroke="rgb(0%, 0%, 0%)" stroke-opacity="1" stroke-miterlimit="1.154701" d="M 40.5 162.981445 L 35.499023 162.981445 " transform="matrix(1.333333, 0, 0, 1.333333, 0, 0)"/>
<path fill="none" stroke-width="1" stroke-linecap="butt" stroke-linejoin="miter" stroke="rgb(0%, 0%, 0%)" stroke-opacity="1" stroke-miterlimit="1.154701" d="M 40.5 76.177734 L 35.499023 76.177734 " transform="matrix(1.333333, 0, 0, 1.333333, 0, 0)"/>
<path fill="none" stroke-width="1.5" stroke-linecap="butt" stroke-linejoin="miter" stroke="rgb(100%, 0%, 0%)" stroke-opacity="1" stroke-miterlimit="2" d="M 429.805664 38.000977 L 449.806641 38.000977 " transform="matrix(1.333333, 0, 0, 1.333333, 0, 0)"/>
<path fill="none" stroke-width="1.5" stroke-linecap="butt" stroke-linejoin="miter" stroke="rgb(0%, 0%, 0%)" stroke-opacity="1" stroke-miterlimit="2" d="M 429.805664 60.999023 L 449.806641 60.999023 " transform="matrix(1.333333, 0, 0, 1.333333, 0, 0)"/>
<g fill="rgb(0%, 0%, 0%)" fill-opacity="1">
<use xlink:href="#glyph-6-0-714b89ed" x="606.408011" y="55.236271"/>
</g>
<g fill="rgb(0%, 0%, 0%)" fill-opacity="1">
<use xlink:href="#glyph-7-0-714b89ed" x="616.603744" y="58.969605"/>
</g>
<g fill="rgb(0%, 0%, 0%)" fill-opacity="1">
<use xlink:href="#glyph-8-0-714b89ed" x="606.408028" y="86.522671"/>
</g>
<g fill="rgb(0%, 0%, 0%)" fill-opacity="1">
<use xlink:href="#glyph-6-1-714b89ed" x="613.669362" y="86.522671"/>
</g>
<g fill="rgb(0%, 0%, 0%)" fill-opacity="1">
<use xlink:href="#glyph-8-1-714b89ed" x="622.330695" y="86.522671"/>
</g>
<path fill="none" stroke-width="1" stroke-linecap="butt" stroke-linejoin="miter" stroke="rgb(0%, 0%, 0%)" stroke-opacity="1" stroke-miterlimit="1.154701" d="M 40.5 291 L 484.5 291 " transform="matrix(1.333333, 0, 0, 1.333333, 0, 0)"/>
<path fill="none" stroke-width="1" stroke-linecap="butt" stroke-linejoin="miter" stroke="rgb(0%, 0%, 0%)" stroke-opacity="1" stroke-miterlimit="1.154701" d="M 41.000977 291.500977 L 41.000977 15.500977 " transform="matrix(1.333333, 0, 0, 1.333333, 0, 0)"/>
<path fill="none" stroke-width="1" stroke-linecap="butt" stroke-linejoin="miter" stroke="rgb(0%, 0%, 0%)" stroke-opacity="1" stroke-miterlimit="1.154701" d="M 40.5 15.999023 L 484.5 15.999023 " transform="matrix(1.333333, 0, 0, 1.333333, 0, 0)"/>
<path fill="none" stroke-width="1" stroke-linecap="butt" stroke-linejoin="miter" stroke="rgb(0%, 0%, 0%)" stroke-opacity="1" stroke-miterlimit="1.154701" d="M 483.999023 291.500977 L 483.999023 15.500977 " transform="matrix(1.333333, 0, 0, 1.333333, 0, 0)"/>
</svg>
