<?xml version="1.0" encoding="UTF-8"?>
<svg xmlns="http://www.w3.org/2000/svg" xmlns:xlink="http://www.w3.org/1999/xlink" width="667" height="467" viewBox="0 0 667 467">
<defs>
<g>
<g id="glyph-0-0-038e3bb5">
<path d="M 11.078125 -12.078125 C 11.078125 -12.078125 6.609375 -12.078125 6.609375 -12.078125 C 6.609375 -12.078125 6.609375 0 6.609375 0 C 6.609375 0 4.875 0 4.875 0 C 4.875 0 4.875 -12.078125 4.875 -12.078125 C 4.875 -12.078125 0.390625 -12.078125 0.390625 -12.078125 C 0.390625 -12.078125 0.390625 -13.609375 0.390625 -13.609375 C 0.390625 -13.609375 11.078125 -13.609375 11.078125 -13.609375 C 11.078125 -13.609375 11.078125 -12.078125 11.078125 -12.078125 Z M 11.078125 -12.078125 "/>
</g>
<g id="glyph-0-1-038e3bb5">
<path d="M 2.859375 0 C 2.859375 0 1.3125 0 1.3125 0 C 1.3125 0 1.3125 -9.78125 1.3125 -9.78125 C 1.3125 -9.78125 2.859375 -9.78125 2.859375 -9.78125 C 2.859375 -9.78125 2.859375 0 2.859375 0 Z M 3.0625 -11.265625 C 3.0625 -11.265625 1.125 -11.265625 1.125 -11.265625 C 1.125 -11.265625 1.125 -13.203125 1.125 -13.203125 C 1.125 -13.203125 3.0625 -13.203125 3.0625 -13.203125 C 3.0625 -13.203125 3.0625 -11.265625 3.0625 -11.265625 Z M 3.0625 -11.265625 "/>
</g>
<g id="glyph-0-2-038e3bb5">
<path d="M 14.1875 0 C 14.1875 0 12.640625 0 12.640625 0 C 12.640625 0 12.640625 -6.734375 12.640625 -6.734375 C 12.640625 -7.96875 11.984375 -8.703125 10.84375 -8.703125 C 9.578125 -8.703125 8.53125 -7.5625 8.53125 -6.140625 C 8.53125 -6.140625 8.53125 0 8.53125 0 C 8.53125 0 6.984375 0 6.984375 0 C 6.984375 0 6.984375 -6.734375 6.984375 -6.734375 C 6.984375 -7.984375 6.328125 -8.703125 5.171875 -8.703125 C 3.90625 -8.703125 2.875 -7.5625 2.875 -6.140625 C 2.875 -6.140625 2.875 0 2.875 0 C 2.875 0 1.328125 0 1.328125 0 C 1.328125 0 1.328125 -9.78125 1.328125 -9.78125 C 1.328125 -9.78125 2.75 -9.78125 2.75 -9.78125 C 2.75 -9.78125 2.75 -8.40625 2.75 -8.40625 C 3.578125 -9.578125 4.4375 -10.0625 5.75 -10.0625 C 7.015625 -10.0625 7.8125 -9.609375 8.390625 -8.578125 C 9.296875 -9.671875 10.078125 -10.0625 11.390625 -10.0625 C 13.21875 -10.0625 14.1875 -9.09375 14.1875 -7.34375 C 14.1875 -7.34375 14.1875 0 14.1875 0 Z M 14.1875 0 "/>
</g>
<g id="glyph-0-3-038e3bb5">
<path d="M 9.578125 -4.4375 C 9.578125 -4.4375 2.375 -4.4375 2.375 -4.4375 C 2.40625 -2.203125 3.625 -1.15625 5.25 -1.15625 C 6.5 -1.15625 7.375 -1.6875 7.8125 -2.96875 C 7.8125 -2.96875 9.375 -2.96875 9.375 -2.96875 C 8.984375 -0.984375 7.4375 0.28125 5.1875 0.28125 C 2.453125 0.28125 0.75 -1.625 0.75 -4.84375 C 0.75 -8.046875 2.5 -10.0625 5.234375 -10.0625 C 7.0625 -10.0625 8.546875 -9.09375 9.1875 -7.484375 C 9.46875 -6.765625 9.578125 -5.859375 9.578125 -4.4375 Z M 7.921875 -5.828125 C 7.921875 -7.359375 6.734375 -8.625 5.203125 -8.625 C 3.640625 -8.625 2.546875 -7.453125 2.40625 -5.71875 C 2.40625 -5.71875 7.890625 -5.71875 7.890625 -5.71875 C 7.921875 -5.75 7.921875 -5.828125 7.921875 -5.828125 Z M 7.921875 -5.828125 "/>
</g>
<g id="glyph-0-4-038e3bb5">
<path d="M 9.46875 -6.359375 C 9.46875 -2.015625 7.9375 0.28125 5.140625 0.28125 C 2.296875 0.28125 0.796875 -2.015625 0.796875 -6.484375 C 0.796875 -10.921875 2.28125 -13.234375 5.140625 -13.234375 C 8.015625 -13.234375 9.46875 -10.953125 9.46875 -6.359375 Z M 7.78125 -6.515625 C 7.78125 -10.0625 6.90625 -11.78125 5.140625 -11.78125 C 3.359375 -11.78125 2.484375 -10.078125 2.484375 -6.453125 C 2.484375 -2.84375 3.359375 -1.078125 5.09375 -1.078125 C 6.921875 -1.078125 7.78125 -2.765625 7.78125 -6.515625 Z M 7.78125 -6.515625 "/>
</g>
<g id="glyph-0-5-038e3bb5">
<path d="M 9.578125 -4.390625 C 9.578125 -1.59375 7.71875 0.28125 5.046875 0.28125 C 2.6875 0.28125 1.1875 -0.765625 0.65625 -3.390625 C 0.65625 -3.390625 2.296875 -3.390625 2.296875 -3.390625 C 2.6875 -1.90625 3.5625 -1.171875 5 -1.171875 C 6.796875 -1.171875 7.890625 -2.265625 7.890625 -4.15625 C 7.890625 -6.125 6.78125 -7.265625 5 -7.265625 C 3.984375 -7.265625 3.34375 -6.953125 2.578125 -6.03125 C 2.578125 -6.03125 1.0625 -6.03125 1.0625 -6.03125 C 1.0625 -6.03125 2.046875 -12.953125 2.046875 -12.953125 C 2.046875 -12.953125 8.890625 -12.953125 8.890625 -12.953125 C 8.890625 -12.953125 8.890625 -11.328125 8.890625 -11.328125 C 8.890625 -11.328125 3.375 -11.328125 3.375 -11.328125 C 3.375 -11.328125 2.859375 -7.921875 2.859375 -7.921875 C 3.625 -8.484375 4.375 -8.71875 5.296875 -8.71875 C 7.84375 -8.71875 9.578125 -7 9.578125 -4.390625 Z M 9.578125 -4.390625 "/>
</g>
<g id="glyph-1-0-038e3bb5">
<path d="M 6.484375 0 C 6.484375 0 4.84375 0 4.84375 0 C 4.84375 0 4.84375 -9.421875 4.84375 -9.421875 C 4.84375 -9.421875 1.90625 -9.421875 1.90625 -9.421875 C 1.90625 -9.421875 1.90625 -10.609375 1.90625 -10.609375 C 4.4375 -10.921875 4.8125 -11.203125 5.390625 -13.234375 C 5.390625 -13.234375 6.484375 -13.234375 6.484375 -13.234375 C 6.484375 -13.234375 6.484375 0 6.484375 0 Z M 6.484375 0 "/>
</g>
<g id="glyph-2-0-038e3bb5">
<path d="M 0 -11.453125 C 0 -11.453125 0 -1.6875 0 -1.6875 C 0 -1.6875 -13.609375 -1.6875 -13.609375 -1.6875 C -13.609375 -1.6875 -13.609375 -11.109375 -13.609375 -11.109375 C -13.609375 -11.109375 -12.078125 -11.109375 -12.078125 -11.109375 C -12.078125 -11.109375 -12.078125 -3.421875 -12.078125 -3.421875 C -12.078125 -3.421875 -7.734375 -3.421875 -7.734375 -3.421875 C -7.734375 -3.421875 -7.734375 -10.828125 -7.734375 -10.828125 C -7.734375 -10.828125 -6.203125 -10.828125 -6.203125 -10.828125 C -6.203125 -10.828125 -6.203125 -3.421875 -6.203125 -3.421875 C -6.203125 -3.421875 -1.53125 -3.421875 -1.53125 -3.421875 C -1.53125 -3.421875 -1.53125 -11.453125 -1.53125 -11.453125 C -1.53125 -11.453125 0 -11.453125 0 -11.453125 Z M 0 -11.453125 "/>
</g>
<g id="glyph-2-1-038e3bb5">
<path d="M -4.796875 -9.765625 C -1.6875 -9.765625 0.28125 -8.109375 0.28125 -5.578125 C 0.28125 -4.3125 -0.171875 -3.390625 -1.171875 -2.578125 C -1.171875 -2.578125 4.078125 -2.578125 4.078125 -2.578125 C 4.078125 -2.578125 4.078125 -1.03125 4.078125 -1.03125 C 4.078125 -1.03125 -9.78125 -1.03125 -9.78125 -1.03125 C -9.78125 -1.03125 -9.78125 -2.453125 -9.78125 -2.453125 C -9.78125 -2.453125 -8.3125 -2.453125 -8.3125 -2.453125 C -9.46875 -3.171875 -10.0625 -4.234375 -10.0625 -5.5625 C -10.0625 -8.15625 -8.078125 -9.765625 -4.796875 -9.765625 Z M -4.84375 -8.140625 C -7.171875 -8.140625 -8.609375 -7.015625 -8.609375 -5.296875 C -8.609375 -3.65625 -7.109375 -2.578125 -4.8125 -2.578125 C -2.515625 -2.578125 -1.171875 -3.65625 -1.171875 -5.296875 C -1.171875 -7 -2.609375 -8.140625 -4.84375 -8.140625 Z M -4.84375 -8.140625 "/>
</g>
<g id="glyph-2-2-038e3bb5">
<path d="M 0 -4.75 C 0.09375 -4.21875 0.125 -3.84375 0.125 -3.46875 C 0.125 -2.265625 -0.421875 -1.59375 -1.421875 -1.59375 C -1.421875 -1.59375 -8.515625 -1.59375 -8.515625 -1.59375 C -8.515625 -1.59375 -8.515625 -0.265625 -8.515625 -0.265625 C -8.515625 -0.265625 -9.78125 -0.265625 -9.78125 -0.265625 C -9.78125 -0.265625 -9.78125 -1.59375 -9.78125 -1.59375 C -9.78125 -1.59375 -12.46875 -1.59375 -12.46875 -1.59375 C -12.46875 -1.59375 -12.46875 -3.140625 -12.46875 -3.140625 C -12.46875 -3.140625 -9.78125 -3.140625 -9.78125 -3.140625 C -9.78125 -3.140625 -9.78125 -4.75 -9.78125 -4.75 C -9.78125 -4.75 -8.515625 -4.75 -8.515625 -4.75 C -8.515625 -4.75 -8.515625 -3.140625 -8.515625 -3.140625 C -8.515625 -3.140625 -2.109375 -3.140625 -2.109375 -3.140625 C -1.421875 -3.140625 -1.234375 -3.328125 -1.234375 -4 C -1.234375 -4.296875 -1.25 -4.53125 -1.3125 -4.75 C -1.3125 -4.75 0 -4.75 0 -4.75 Z M 0 -4.75 "/>
</g>
<g id="glyph-2-3-038e3bb5">
<path d="M 0 -2.859375 C 0 -2.859375 0 -1.3125 0 -1.3125 C 0 -1.3125 -9.78125 -1.3125 -9.78125 -1.3125 C -9.78125 -1.3125 -9.78125 -2.859375 -9.78125 -2.859375 C -9.78125 -2.859375 0 -2.859375 0 -2.859375 Z M -11.265625 -3.0625 C -11.265625 -3.0625 -11.265625 -1.125 -11.265625 -1.125 C -11.265625 -1.125 -13.203125 -1.125 -13.203125 -1.125 C -13.203125 -1.125 -13.203125 -3.0625 -13.203125 -3.0625 C -13.203125 -3.0625 -11.265625 -3.0625 -11.265625 -3.0625 Z M -11.265625 -3.0625 "/>
</g>
<g id="glyph-2-4-038e3bb5">
<path d="M -4.8125 -9.515625 C -1.609375 -9.515625 0.28125 -7.84375 0.28125 -5.09375 C 0.28125 -2.3125 -1.609375 -0.671875 -4.890625 -0.671875 C -8.171875 -0.671875 -10.0625 -2.328125 -10.0625 -5.078125 C -10.0625 -7.890625 -8.203125 -9.515625 -4.8125 -9.515625 Z M -4.84375 -7.890625 C -7.265625 -7.890625 -8.625 -6.859375 -8.625 -5.09375 C -8.625 -3.359375 -7.25 -2.296875 -4.890625 -2.296875 C -2.515625 -2.296875 -1.15625 -3.359375 -1.15625 -5.09375 C -1.15625 -6.8125 -2.546875 -7.890625 -4.84375 -7.890625 Z M -4.84375 -7.890625 "/>
</g>
<g id="glyph-2-5-038e3bb5">
<path d="M 0 -9.09375 C 0 -9.09375 0 -7.546875 0 -7.546875 C 0 -7.546875 -6.78125 -7.546875 -6.78125 -7.546875 C -7.953125 -7.546875 -8.703125 -6.765625 -8.703125 -5.53125 C -8.703125 -3.9375 -7.390625 -2.859375 -5.390625 -2.859375 C -5.390625 -2.859375 0 -2.859375 0 -2.859375 C 0 -2.859375 0 -1.3125 0 -1.3125 C 0 -1.3125 -9.78125 -1.3125 -9.78125 -1.3125 C -9.78125 -1.3125 -9.78125 -2.75 -9.78125 -2.75 C -9.78125 -2.75 -8.140625 -2.75 -8.140625 -2.75 C -9.5 -3.609375 -10.0625 -4.53125 -10.0625 -6 C -10.0625 -7.875 -9.015625 -9.09375 -7.390625 -9.09375 C -7.390625 -9.09375 0 -9.09375 0 -9.09375 Z M 0 -9.09375 "/>
</g>
<g id="glyph-2-6-038e3bb5">
</g>
<g id="glyph-2-7-038e3bb5">
<path d="M -9.78125 -9.078125 C -9.78125 -9.078125 0 -5.328125 0 -5.328125 C 0 -5.328125 0 -3.625 0 -3.625 C 0 -3.625 -9.78125 -0.1875 -9.78125 -0.1875 C -9.78125 -0.1875 -9.78125 -1.9375 -9.78125 -1.9375 C -9.78125 -1.9375 -1.84375 -4.5625 -1.84375 -4.5625 C -1.84375 -4.5625 -9.78125 -7.3125 -9.78125 -7.3125 C -9.78125 -7.3125 -9.78125 -9.078125 -9.78125 -9.078125 Z M -9.78125 -9.078125 "/>
</g>
<g id="glyph-2-8-038e3bb5">
<path d="M -0.03125 -9.984375 C 0.09375 -9.484375 0.125 -9.25 0.125 -8.921875 C 0.125 -8.15625 -0.40625 -7.484375 -1.15625 -7.3125 C -0.25 -6.453125 0.28125 -5.25 0.28125 -4 C 0.28125 -2.015625 -0.765625 -0.78125 -2.546875 -0.78125 C -3.734375 -0.78125 -4.609375 -1.359375 -5.078125 -2.5 C -5.328125 -3.09375 -5.390625 -3.4375 -5.671875 -5.640625 C -5.828125 -6.875 -6.109375 -7.265625 -6.765625 -7.265625 C -6.765625 -7.265625 -7.171875 -7.265625 -7.171875 -7.265625 C -8.109375 -7.265625 -8.625 -6.484375 -8.625 -5.078125 C -8.625 -3.625 -8.078125 -2.90625 -6.890625 -2.78125 C -6.890625 -2.78125 -6.890625 -1.21875 -6.890625 -1.21875 C -9.15625 -1.3125 -10.0625 -2.765625 -10.0625 -5.140625 C -10.0625 -7.546875 -9.125 -8.8125 -7.390625 -8.8125 C -7.390625 -8.8125 -1.9375 -8.8125 -1.9375 -8.8125 C -1.453125 -8.8125 -1.171875 -9.109375 -1.171875 -9.65625 C -1.171875 -9.75 -1.171875 -9.828125 -1.21875 -9.984375 C -1.21875 -9.984375 -0.03125 -9.984375 -0.03125 -9.984375 Z M -3.375 -7.265625 C -3.375 -7.265625 -4.84375 -7.265625 -4.84375 -7.265625 C -4.59375 -6.734375 -4.515625 -6.40625 -4.296875 -4.765625 C -4.046875 -3.09375 -3.609375 -2.40625 -2.578125 -2.40625 C -1.515625 -2.40625 -1.078125 -3.125 -1.078125 -4.328125 C -1.078125 -5.84375 -1.984375 -7.265625 -3.375 -7.265625 Z M -3.375 -7.265625 "/>
</g>
<g id="glyph-2-9-038e3bb5">
<path d="M -4.4375 -9.578125 C -4.4375 -9.578125 -4.4375 -2.375 -4.4375 -2.375 C -2.203125 -2.40625 -1.15625 -3.625 -1.15625 -5.25 C -1.15625 -6.5 -1.6875 -7.375 -2.96875 -7.8125 C -2.96875 -7.8125 -2.96875 -9.375 -2.96875 -9.375 C -0.984375 -8.984375 0.28125 -7.4375 0.28125 -5.1875 C 0.28125 -2.453125 -1.625 -0.75 -4.84375 -0.75 C -8.046875 -0.75 -10.0625 -2.5 -10.0625 -5.234375 C -10.0625 -7.0625 -9.09375 -8.546875 -7.484375 -9.1875 C -6.765625 -9.46875 -5.859375 -9.578125 -4.4375 -9.578125 Z M -5.828125 -7.921875 C -7.359375 -7.921875 -8.625 -6.734375 -8.625 -5.203125 C -8.625 -3.640625 -7.453125 -2.546875 -5.71875 -2.40625 C -5.71875 -2.40625 -5.71875 -7.890625 -5.71875 -7.890625 C -5.75 -7.921875 -5.828125 -7.921875 -5.828125 -7.921875 Z M -5.828125 -7.921875 "/>
</g>
<g id="glyph-3-0-038e3bb5">
<path d="M 0 -8.828125 C 0 -8.828125 0 -7.015625 0 -7.015625 C 0 -7.015625 -3.75 -4.578125 -3.75 -4.578125 C -3.75 -4.578125 0 -2.09375 0 -2.09375 C 0 -2.09375 0 -0.3125 0 -0.3125 C 0 -0.3125 -4.984375 -3.765625 -4.984375 -3.765625 C -4.984375 -3.765625 -9.78125 -0.5 -9.78125 -0.5 C -9.78125 -0.5 -9.78125 -2.28125 -9.78125 -2.28125 C -9.78125 -2.28125 -6.234375 -4.625 -6.234375 -4.625 C -6.234375 -4.625 -9.78125 -6.984375 -9.78125 -6.984375 C -9.78125 -6.984375 -9.78125 -8.734375 -9.78125 -8.734375 C -9.78125 -8.734375 -5.0625 -5.453125 -5.0625 -5.453125 C -5.0625 -5.453125 0 -8.828125 0 -8.828125 Z M 0 -8.828125 "/>
</g>
<g id="glyph-3-1-038e3bb5">
<path d="M 0 -9 C 0 -9 0 -7.59375 0 -7.59375 C 0 -7.59375 -1.515625 -7.59375 -1.515625 -7.59375 C -0.21875 -6.6875 0.28125 -5.765625 0.28125 -4.328125 C 0.28125 -2.421875 -0.765625 -1.21875 -2.390625 -1.21875 C -2.390625 -1.21875 -9.78125 -1.21875 -9.78125 -1.21875 C -9.78125 -1.21875 -9.78125 -2.765625 -9.78125 -2.765625 C -9.78125 -2.765625 -3 -2.765625 -3 -2.765625 C -1.828125 -2.765625 -1.078125 -3.546875 -1.078125 -4.78125 C -1.078125 -6.40625 -2.390625 -7.453125 -4.390625 -7.453125 C -4.390625 -7.453125 -9.78125 -7.453125 -9.78125 -7.453125 C -9.78125 -7.453125 -9.78125 -9 -9.78125 -9 C -9.78125 -9 0 -9 0 -9 Z M 0 -9 "/>
</g>
<g id="glyph-4-0-038e3bb5">
<path d="M -4.4375 -9.578125 C -4.4375 -9.578125 -4.4375 -2.375 -4.4375 -2.375 C -2.203125 -2.40625 -1.15625 -3.625 -1.15625 -5.25 C -1.15625 -6.5 -1.6875 -7.375 -2.96875 -7.8125 C -2.96875 -7.8125 -2.96875 -9.375 -2.96875 -9.375 C -0.984375 -8.984375 0.28125 -7.4375 0.28125 -5.1875 C 0.28125 -2.453125 -1.625 -0.75 -4.84375 -0.75 C -8.046875 -0.75 -10.0625 -2.5 -10.0625 -5.234375 C -10.0625 -7.0625 -9.09375 -8.546875 -7.484375 -9.1875 C -6.765625 -9.46875 -5.859375 -9.578125 -4.4375 -9.578125 Z M -5.828125 -7.921875 C -7.359375 -7.921875 -8.625 -6.734375 -8.625 -5.203125 C -8.625 -3.640625 -7.453125 -2.546875 -5.71875 -2.40625 C -5.71875 -2.40625 -5.71875 -7.890625 -5.71875 -7.890625 C -5.75 -7.921875 -5.828125 -7.921875 -5.828125 -7.921875 Z M -5.828125 -7.921875 "/>
</g>
<g id="glyph-4-1-038e3bb5">
<path d="M -0.03125 -9.984375 C 0.09375 -9.484375 0.125 -9.25 0.125 -8.921875 C 0.125 -8.15625 -0.40625 -7.484375 -1.15625 -7.3125 C -0.25 -6.453125 0.28125 -5.25 0.28125 -4 C 0.28125 -2.015625 -0.765625 -0.78125 -2.546875 -0.78125 C -3.734375 -0.78125 -4.609375 -1.359375 -5.078125 -2.5 C -5.328125 -3.09375 -5.390625 -3.4375 -5.671875 -5.640625 C -5.828125 -6.875 -6.109375 -7.265625 -6.765625 -7.265625 C -6.765625 -7.265625 -7.171875 -7.265625 -7.171875 -7.265625 C -8.109375 -7.265625 -8.625 -6.484375 -8.625 -5.078125 C -8.625 -3.625 -8.078125 -2.90625 -6.890625 -2.78125 C -6.890625 -2.78125 -6.890625 -1.21875 -6.890625 -1.21875 C -9.15625 -1.3125 -10.0625 -2.765625 -10.0625 -5.140625 C -10.0625 -7.546875 -9.125 -8.8125 -7.390625 -8.8125 C -7.390625 -8.8125 -1.9375 -8.8125 -1.9375 -8.8125 C -1.453125 -8.8125 -1.171875 -9.109375 -1.171875 -9.65625 C -1.171875 -9.75 -1.171875 -9.828125 -1.21875 -9.984375 C -1.21875 -9.984375 -0.03125 -9.984375 -0.03125 -9.984375 Z M -3.375 -7.265625 C -3.375 -7.265625 -4.84375 -7.265625 -4.84375 -7.265625 C -4.59375 -6.734375 -4.515625 -6.40625 -4.296875 -4.765625 C -4.046875 -3.09375 -3.609375 -2.40625 -2.578125 -2.40625 C -1.515625 -2.40625 -1.078125 -3.125 -1.078125 -4.328125 C -1.078125 -5.84375 -1.984375 -7.265625 -3.375 -7.265625 Z M -3.375 -7.265625 "/>
</g>
<g id="glyph-5-0-038e3bb5">
<path d="M -3.359375 -8.90625 C -1.125 -8.71875 0.28125 -7.25 0.28125 -4.90625 C 0.28125 -2.265625 -1.640625 -0.578125 -4.796875 -0.578125 C -8.046875 -0.578125 -10.0625 -2.296875 -10.0625 -4.921875 C -10.0625 -7.109375 -8.890625 -8.609375 -6.5 -8.796875 C -6.5 -8.796875 -6.5 -7.21875 -6.5 -7.21875 C -7.859375 -7.046875 -8.625 -6.21875 -8.625 -4.90625 C -8.625 -3.21875 -7.25 -2.203125 -4.796875 -2.203125 C -2.484375 -2.203125 -1.15625 -3.234375 -1.15625 -4.953125 C -1.15625 -6.28125 -1.796875 -7.078125 -3.359375 -7.34375 C -3.359375 -7.34375 -3.359375 -8.90625 -3.359375 -8.90625 Z M -3.359375 -8.90625 "/>
</g>
<g id="glyph-6-0-038e3bb5">
<path d="M 0 -2.8125 C 0 -2.8125 0 -1.265625 0 -1.265625 C 0 -1.265625 -13.609375 -1.265625 -13.609375 -1.265625 C -13.609375 -1.265625 -13.609375 -2.8125 -13.609375 -2.8125 C -13.609375 -2.8125 0 -2.8125 0 -2.8125 Z M 0 -2.8125 "/>
</g>
<g id="glyph-6-1-038e3bb5">
<path d="M -2.75 -8.578125 C -0.859375 -8.578125 0.28125 -7 0.28125 -4.53125 C 0.28125 -1.984375 -0.734375 -0.703125 -2.984375 -0.640625 C -2.984375 -0.640625 -2.984375 -2.28125 -2.984375 -2.28125 C -1.5 -2.484375 -1.15625 -3.265625 -1.15625 -4.671875 C -1.15625 -6.03125 -1.703125 -6.953125 -2.609375 -6.953125 C -3.328125 -6.953125 -3.640625 -6.515625 -3.90625 -5.4375 C -3.90625 -5.4375 -4.25 -3.984375 -4.25 -3.984375 C -4.8125 -1.65625 -5.546875 -0.875 -7.078125 -0.875 C -8.890625 -0.875 -10.0625 -2.359375 -10.0625 -4.625 C -10.0625 -6.890625 -8.984375 -8.15625 -7.0625 -8.171875 C -7.0625 -8.171875 -7.0625 -6.53125 -7.0625 -6.53125 C -8.078125 -6.5 -8.625 -5.828125 -8.625 -4.578125 C -8.625 -3.3125 -8.046875 -2.5 -7.15625 -2.5 C -6.453125 -2.5 -6.046875 -3.046875 -5.75 -4.3125 C -5.75 -4.3125 -5.390625 -5.8125 -5.390625 -5.8125 C -4.921875 -7.75 -4.203125 -8.578125 -2.75 -8.578125 Z M -2.75 -8.578125 "/>
</g>
<g id="glyph-7-0-038e3bb5">
<path d="M 9.46875 -6.359375 C 9.46875 -2.015625 7.9375 0.28125 5.140625 0.28125 C 2.296875 0.28125 0.796875 -2.015625 0.796875 -6.484375 C 0.796875 -10.921875 2.28125 -13.234375 5.140625 -13.234375 C 8.015625 -13.234375 9.46875 -10.953125 9.46875 -6.359375 Z M 7.78125 -6.515625 C 7.78125 -10.0625 6.90625 -11.78125 5.140625 -11.78125 C 3.359375 -11.78125 2.484375 -10.078125 2.484375 -6.453125 C 2.484375 -2.84375 3.359375 -1.078125 5.09375 -1.078125 C 6.921875 -1.078125 7.78125 -2.765625 7.78125 -6.515625 Z M 7.78125 -6.515625 "/>
</g>
<g id="glyph-8-0-038e3bb5">
<path d="M 9.546875 -9.359375 C 9.546875 -7.734375 8.59375 -6.34375 6.734375 -5.359375 C 6.734375 -5.359375 4.875 -4.34375 4.875 -4.34375 C 3.25 -3.390625 2.65625 -2.703125 2.484375 -1.625 C 2.484375 -1.625 9.453125 -1.625 9.453125 -1.625 C 9.453125 -1.625 9.453125 0 9.453125 0 C 9.453125 0 0.640625 0 0.640625 0 C 0.78125 -2.90625 1.59375 -4.15625 4.34375 -5.734375 C 4.34375 -5.734375 6.0625 -6.703125 6.0625 -6.703125 C 7.25 -7.375 7.859375 -8.265625 7.859375 -9.3125 C 7.859375 -10.734375 6.734375 -11.796875 5.25 -11.796875 C 3.625 -11.796875 2.703125 -10.859375 2.578125 -8.640625 C 2.578125 -8.640625 0.9375 -8.640625 0.9375 -8.640625 C 1.03125 -11.859375 2.59375 -13.234375 5.296875 -13.234375 C 7.8125 -13.234375 9.546875 -11.59375 9.546875 -9.359375 Z M 9.546875 -9.359375 "/>
</g>
<g id="glyph-8-1-038e3bb5">
<path d="M 9.578125 -4.109375 C 9.578125 -1.515625 7.765625 0.28125 5.25 0.28125 C 2.21875 0.28125 0.796875 -1.90625 0.796875 -6.03125 C 0.796875 -10.640625 2.46875 -13.234375 5.546875 -13.234375 C 7.5625 -13.234375 8.984375 -11.953125 9.296875 -9.78125 C 9.296875 -9.78125 7.65625 -9.78125 7.65625 -9.78125 C 7.390625 -11.046875 6.59375 -11.78125 5.4375 -11.78125 C 3.546875 -11.78125 2.5 -9.984375 2.484375 -6.765625 C 3.1875 -7.734375 4.21875 -8.234375 5.53125 -8.234375 C 7.890625 -8.234375 9.578125 -6.578125 9.578125 -4.109375 Z M 7.890625 -3.984375 C 7.890625 -5.75 6.90625 -6.78125 5.328125 -6.78125 C 3.703125 -6.78125 2.578125 -5.71875 2.578125 -4.078125 C 2.578125 -2.375 3.734375 -1.171875 5.265625 -1.171875 C 6.78125 -1.171875 7.890625 -2.3125 7.890625 -3.984375 Z M 7.890625 -3.984375 "/>
</g>
<g id="glyph-9-0-038e3bb5">
<path d="M 9.703125 -3.171875 C 9.703125 -3.171875 7.75 -3.171875 7.75 -3.171875 C 7.75 -3.171875 7.75 0 7.75 0 C 7.75 0 6.109375 0 6.109375 0 C 6.109375 0 6.109375 -3.171875 6.109375 -3.171875 C 6.109375 -3.171875 0.515625 -3.171875 0.515625 -3.171875 C 0.515625 -3.171875 0.515625 -4.90625 0.515625 -4.90625 C 0.515625 -4.90625 6.53125 -13.234375 6.53125 -13.234375 C 6.53125 -13.234375 7.75 -13.234375 7.75 -13.234375 C 7.75 -13.234375 7.75 -4.65625 7.75 -4.65625 C 7.75 -4.65625 9.703125 -4.65625 9.703125 -4.65625 C 9.703125 -4.65625 9.703125 -3.171875 9.703125 -3.171875 Z M 6.109375 -4.65625 C 6.109375 -4.65625 6.109375 -10.4375 6.109375 -10.4375 C 6.109375 -10.4375 1.953125 -4.65625 1.953125 -4.65625 C 1.953125 -4.65625 6.109375 -4.65625 6.109375 -4.65625 Z M 6.109375 -4.65625 "/>
</g>
<g id="glyph-10-0-038e3bb5">
<path d="M 9.578125 -3.734375 C 9.578125 -1.328125 7.75 0.28125 5.140625 0.28125 C 2.515625 0.28125 0.6875 -1.328125 0.6875 -3.75 C 0.6875 -5.203125 1.4375 -6.234375 2.953125 -6.96875 C 1.609375 -7.8125 1.15625 -8.484375 1.15625 -9.703125 C 1.15625 -11.78125 2.796875 -13.234375 5.140625 -13.234375 C 7.484375 -13.234375 9.109375 -11.78125 9.109375 -9.703125 C 9.109375 -8.453125 8.65625 -7.78125 7.296875 -6.96875 C 8.828125 -6.234375 9.578125 -5.203125 9.578125 -3.734375 Z M 7.4375 -9.671875 C 7.4375 -10.953125 6.53125 -11.78125 5.140625 -11.78125 C 3.75 -11.78125 2.84375 -10.953125 2.84375 -9.6875 C 2.84375 -8.4375 3.75 -7.625 5.140625 -7.625 C 6.515625 -7.625 7.4375 -8.4375 7.4375 -9.671875 Z M 7.890625 -3.71875 C 7.890625 -5.265625 6.78125 -6.234375 5.140625 -6.234375 C 3.484375 -6.234375 2.375 -5.265625 2.375 -3.71875 C 2.375 -2.171875 3.484375 -1.171875 5.09375 -1.171875 C 6.78125 -1.171875 7.890625 -2.140625 7.890625 -3.71875 Z M 7.890625 -3.71875 "/>
</g>
<g id="glyph-11-0-038e3bb5">
<path d="M 14.484375 0 C 14.484375 0 11.6875 0 11.6875 0 C 11.6875 0 11.6875 -10.609375 11.6875 -10.609375 C 11.6875 -10.609375 9.28125 0 9.28125 0 C 9.28125 0 6.484375 0 6.484375 0 C 6.484375 0 4.03125 -10.609375 4.03125 -10.609375 C 4.03125 -10.609375 4.03125 0 4.03125 0 C 4.03125 0 1.234375 0 1.234375 0 C 1.234375 0 1.234375 -13.609375 1.234375 -13.609375 C 1.234375 -13.609375 5.421875 -13.609375 5.421875 -13.609375 C 5.421875 -13.609375 7.875 -2.78125 7.875 -2.78125 C 7.875 -2.78125 10.265625 -13.609375 10.265625 -13.609375 C 10.265625 -13.609375 14.484375 -13.609375 14.484375 -13.609375 C 14.484375 -13.609375 14.484375 0 14.484375 0 Z M 14.484375 0 "/>
</g>
<g id="glyph-11-1-038e3bb5">
<path d="M 10.1875 0 C 10.1875 0 7.578125 0 7.578125 0 C 7.578125 0 7.578125 -6.21875 7.578125 -6.21875 C 7.578125 -7.40625 7.015625 -8.03125 5.90625 -8.03125 C 4.625 -8.03125 3.796875 -7.25 3.796875 -6.046875 C 3.796875 -6.046875 3.796875 0 3.796875 0 C 3.796875 0 1.171875 0 1.171875 0 C 1.171875 0 1.171875 -10.078125 1.171875 -10.078125 C 1.171875 -10.078125 3.796875 -10.078125 3.796875 -10.078125 C 3.796875 -10.078125 3.796875 -8.625 3.796875 -8.625 C 4.53125 -9.75 5.453125 -10.25 6.8125 -10.25 C 8.96875 -10.25 10.1875 -8.984375 10.1875 -6.765625 C 10.1875 -6.765625 10.1875 0 10.1875 0 Z M 10.1875 0 "/>
</g>
<g id="glyph-11-2-038e3bb5">
<path d="M 9.796875 -4.671875 C 9.796875 -4.671875 9.78125 -4.34375 9.78125 -4.34375 C 9.78125 -4.34375 3.03125 -4.34375 3.03125 -4.34375 C 3.09375 -2.390625 3.890625 -1.828125 5.109375 -1.828125 C 6.0625 -1.828125 6.890625 -2.109375 7.109375 -2.84375 C 7.109375 -2.84375 9.6875 -2.84375 9.6875 -2.84375 C 9.109375 -0.859375 7.28125 0.171875 5.015625 0.171875 C 2.171875 0.171875 0.40625 -1.6875 0.40625 -4.90625 C 0.40625 -8.296875 2.1875 -10.25 5.078125 -10.25 C 8.046875 -10.25 9.796875 -8.140625 9.796875 -4.671875 Z M 7.078125 -6.09375 C 6.953125 -7.53125 6.15625 -8.25 5.046875 -8.25 C 3.890625 -8.25 3.234375 -7.484375 3.0625 -6.09375 C 3.0625 -6.09375 7.078125 -6.09375 7.078125 -6.09375 Z M 7.078125 -6.09375 "/>
</g>
<g id="glyph-12-0-038e3bb5">
<path d="M 10.625 -4.96875 C 10.625 -1.734375 8.703125 0.171875 5.640625 0.171875 C 2.546875 0.171875 0.65625 -1.71875 0.65625 -5.046875 C 0.65625 -8.34375 2.546875 -10.25 5.625 -10.25 C 8.78125 -10.25 10.625 -8.390625 10.625 -4.96875 Z M 8.015625 -5 C 8.015625 -6.984375 7.078125 -8.140625 5.640625 -8.140625 C 4.21875 -8.140625 3.265625 -6.96875 3.265625 -5.046875 C 3.265625 -3.125 4.21875 -1.9375 5.640625 -1.9375 C 7.046875 -1.9375 8.015625 -3.125 8.015625 -5 Z M 8.015625 -5 "/>
</g>
<g id="glyph-12-1-038e3bb5">
<path d="M 5.625 0 C 5.15625 0.015625 4.6875 0.078125 4.109375 0.078125 C 2.390625 0.078125 1.546875 -0.578125 1.546875 -2.171875 C 1.546875 -2.171875 1.546875 -8.140625 1.546875 -8.140625 C 1.546875 -8.140625 0.265625 -8.140625 0.265625 -8.140625 C 0.265625 -8.140625 0.265625 -9.875 0.265625 -9.875 C 0.265625 -9.875 1.546875 -9.875 1.546875 -9.875 C 1.546875 -9.875 1.546875 -12.578125 1.546875 -12.578125 C 1.546875 -12.578125 4.15625 -12.578125 4.15625 -12.578125 C 4.15625 -12.578125 4.15625 -9.875 4.15625 -9.875 C 4.15625 -9.875 5.625 -9.875 5.625 -9.875 C 5.625 -9.875 5.625 -8.140625 5.625 -8.140625 C 5.625 -8.140625 4.15625 -8.140625 4.15625 -8.140625 C 4.15625 -8.140625 4.15625 -2.875 4.15625 -2.875 C 4.15625 -1.984375 4.328125 -1.78125 5.015625 -1.78125 C 5.203125 -1.78125 5.359375 -1.796875 5.625 -1.828125 C 5.625 -1.828125 5.625 0 5.625 0 Z M 5.625 0 "/>
</g>
<g id="glyph-12-2-038e3bb5">
</g>
<g id="glyph-12-3-038e3bb5">
<path d="M 12.796875 -4.65625 C 12.625 -1.53125 10.359375 0.21875 6.984375 0.21875 C 3.1875 0.21875 0.828125 -2.421875 0.828125 -6.796875 C 0.828125 -11.203125 3.21875 -13.84375 7.0625 -13.84375 C 10.125 -13.84375 12.484375 -12.140625 12.734375 -9 C 12.734375 -9 10.0625 -9 10.0625 -9 C 9.65625 -10.75 8.65625 -11.453125 7.15625 -11.453125 C 4.953125 -11.453125 3.625 -9.765625 3.625 -6.765625 C 3.625 -3.796875 4.890625 -2.125 7.0625 -2.125 C 8.796875 -2.125 9.890625 -2.90625 10.0625 -4.65625 C 10.0625 -4.65625 12.796875 -4.65625 12.796875 -4.65625 Z M 12.796875 -4.65625 "/>
</g>
<g id="glyph-12-4-038e3bb5">
<path d="M 9.78125 0 C 9.78125 0 6.953125 0 6.953125 0 C 6.703125 -0.296875 6.640625 -0.75 6.640625 -1.265625 C 5.734375 -0.3125 4.703125 0.171875 3.578125 0.171875 C 1.90625 0.171875 0.515625 -0.765625 0.515625 -2.71875 C 0.515625 -4.5625 1.5 -5.421875 3.484375 -5.765625 C 3.484375 -5.765625 4.53125 -5.953125 4.53125 -5.953125 C 5.84375 -6.1875 6.625 -6.0625 6.625 -7.125 C 6.625 -7.8125 6.125 -8.140625 5.109375 -8.140625 C 3.828125 -8.140625 3.390625 -7.8125 3.265625 -6.765625 C 3.265625 -6.765625 0.75 -6.765625 0.75 -6.765625 C 0.921875 -9.09375 2.328125 -10.25 5.0625 -10.25 C 7.78125 -10.25 9.1875 -9.203125 9.1875 -7.15625 C 9.1875 -7.15625 9.1875 -1.546875 9.1875 -1.546875 C 9.1875 -1.03125 9.3125 -0.75 9.78125 -0.3125 C 9.78125 -0.3125 9.78125 0 9.78125 0 Z M 6.625 -4.3125 C 6.625 -4.3125 6.625 -4.765625 6.625 -4.765625 C 6.328125 -4.609375 6.21875 -4.578125 5.53125 -4.4375 C 5.53125 -4.4375 4.625 -4.28125 4.625 -4.28125 C 3.546875 -4.078125 3.140625 -3.796875 3.140625 -3.03125 C 3.140625 -2.28125 3.671875 -1.9375 4.5625 -1.9375 C 5.875 -1.9375 6.625 -2.796875 6.625 -4.3125 Z M 6.625 -4.3125 "/>
</g>
<g id="glyph-12-5-038e3bb5">
<path d="M 3.859375 0 C 3.859375 0 1.25 0 1.25 0 C 1.25 0 1.25 -10.078125 1.25 -10.078125 C 1.25 -10.078125 3.859375 -10.078125 3.859375 -10.078125 C 3.859375 -10.078125 3.859375 0 3.859375 0 Z M 3.90625 -11.296875 C 3.90625 -11.296875 1.28125 -11.296875 1.28125 -11.296875 C 1.28125 -11.296875 1.28125 -13.90625 1.28125 -13.90625 C 1.28125 -13.90625 3.90625 -13.90625 3.90625 -13.90625 C 3.90625 -13.90625 3.90625 -11.296875 3.90625 -11.296875 Z M 3.90625 -11.296875 "/>
</g>
<g id="glyph-12-6-038e3bb5">
<path d="M 15.390625 0 C 15.390625 0 12.765625 0 12.765625 0 C 12.765625 0 12.765625 -6.71875 12.765625 -6.71875 C 12.765625 -7.53125 12.234375 -8.03125 11.359375 -8.03125 C 10.234375 -8.03125 9.5625 -7.28125 9.5625 -6.046875 C 9.5625 -6.046875 9.5625 0 9.5625 0 C 9.5625 0 6.953125 0 6.953125 0 C 6.953125 0 6.953125 -6.71875 6.953125 -6.71875 C 6.953125 -7.53125 6.40625 -8.03125 5.53125 -8.03125 C 4.40625 -8.03125 3.734375 -7.28125 3.734375 -6.046875 C 3.734375 -6.046875 3.734375 0 3.734375 0 C 3.734375 0 1.125 0 1.125 0 C 1.125 0 1.125 -10.078125 1.125 -10.078125 C 1.125 -10.078125 3.71875 -10.078125 3.71875 -10.078125 C 3.71875 -10.078125 3.71875 -8.828125 3.71875 -8.828125 C 4.578125 -9.859375 5.328125 -10.25 6.484375 -10.25 C 7.734375 -10.25 8.734375 -9.703125 9.21875 -8.75 C 10.015625 -9.796875 10.90625 -10.25 12.171875 -10.25 C 14.1875 -10.25 15.390625 -9.09375 15.390625 -7.125 C 15.390625 -7.125 15.390625 0 15.390625 0 Z M 15.390625 0 "/>
</g>
<g id="glyph-12-7-038e3bb5">
<path d="M 9.796875 -4.671875 C 9.796875 -4.671875 9.78125 -4.34375 9.78125 -4.34375 C 9.78125 -4.34375 3.03125 -4.34375 3.03125 -4.34375 C 3.09375 -2.390625 3.890625 -1.828125 5.109375 -1.828125 C 6.0625 -1.828125 6.890625 -2.109375 7.109375 -2.84375 C 7.109375 -2.84375 9.6875 -2.84375 9.6875 -2.84375 C 9.109375 -0.859375 7.28125 0.171875 5.015625 0.171875 C 2.171875 0.171875 0.40625 -1.6875 0.40625 -4.90625 C 0.40625 -8.296875 2.1875 -10.25 5.078125 -10.25 C 8.046875 -10.25 9.796875 -8.140625 9.796875 -4.671875 Z M 7.078125 -6.09375 C 6.953125 -7.53125 6.15625 -8.25 5.046875 -8.25 C 3.890625 -8.25 3.234375 -7.484375 3.0625 -6.09375 C 3.0625 -6.09375 7.078125 -6.09375 7.078125 -6.09375 Z M 7.078125 -6.09375 "/>
</g>
<g id="glyph-12-8-038e3bb5">
<path d="M 3.859375 0 C 3.859375 0 1.25 0 1.25 0 C 1.25 0 1.25 -13.609375 1.25 -13.609375 C 1.25 -13.609375 3.859375 -13.609375 3.859375 -13.609375 C 3.859375 -13.609375 3.859375 0 3.859375 0 Z M 3.859375 0 "/>
</g>
<g id="glyph-12-9-038e3bb5">
<path d="M 10.09375 0 C 10.09375 0 7.484375 0 7.484375 0 C 7.484375 0 7.484375 -1.328125 7.484375 -1.328125 C 6.734375 -0.34375 5.828125 0.171875 4.46875 0.171875 C 2.3125 0.171875 1.078125 -1.109375 1.078125 -3.328125 C 1.078125 -3.328125 1.078125 -10.078125 1.078125 -10.078125 C 1.078125 -10.078125 3.703125 -10.078125 3.703125 -10.078125 C 3.703125 -10.078125 3.703125 -3.859375 3.703125 -3.859375 C 3.703125 -2.65625 4.25 -2.046875 5.375 -2.046875 C 6.640625 -2.046875 7.484375 -2.84375 7.484375 -4.03125 C 7.484375 -4.03125 7.484375 -10.078125 7.484375 -10.078125 C 7.484375 -10.078125 10.09375 -10.078125 10.09375 -10.078125 C 10.09375 -10.078125 10.09375 0 10.09375 0 Z M 10.09375 0 "/>
</g>
<g id="glyph-12-10-038e3bb5">
<path d="M 10.1875 0 C 10.1875 0 7.578125 0 7.578125 0 C 7.578125 0 7.578125 -6.21875 7.578125 -6.21875 C 7.578125 -7.40625 7.015625 -8.03125 5.90625 -8.03125 C 4.625 -8.03125 3.796875 -7.25 3.796875 -6.046875 C 3.796875 -6.046875 3.796875 0 3.796875 0 C 3.796875 0 1.171875 0 1.171875 0 C 1.171875 0 1.171875 -10.078125 1.171875 -10.078125 C 1.171875 -10.078125 3.796875 -10.078125 3.796875 -10.078125 C 3.796875 -10.078125 3.796875 -8.625 3.796875 -8.625 C 4.53125 -9.75 5.453125 -10.25 6.8125 -10.25 C 8.96875 -10.25 10.1875 -8.984375 10.1875 -6.765625 C 10.1875 -6.765625 10.1875 0 10.1875 0 Z M 10.1875 0 "/>
</g>
<g id="glyph-13-0-038e3bb5">
<path d="M 6.90625 -7.578125 C 6.546875 -7.640625 6.359375 -7.65625 6.09375 -7.65625 C 4.5625 -7.65625 3.796875 -6.890625 3.796875 -5.359375 C 3.796875 -5.359375 3.796875 0 3.796875 0 C 3.796875 0 1.171875 0 1.171875 0 C 1.171875 0 1.171875 -10.078125 1.171875 -10.078125 C 1.171875 -10.078125 3.796875 -10.078125 3.796875 -10.078125 C 3.796875 -10.078125 3.796875 -8.109375 3.796875 -8.109375 C 4.34375 -9.46875 5.390625 -10.25 6.59375 -10.25 C 6.671875 -10.25 6.765625 -10.25 6.90625 -10.234375 C 6.90625 -10.234375 6.90625 -7.578125 6.90625 -7.578125 Z M 6.90625 -7.578125 "/>
</g>
<g id="glyph-13-1-038e3bb5">
<path d="M 10.015625 -10.078125 C 10.015625 -10.078125 6.53125 0 6.53125 0 C 6.53125 0 3.796875 0 3.796875 0 C 3.796875 0 0.265625 -10.078125 0.265625 -10.078125 C 0.265625 -10.078125 3.03125 -10.078125 3.03125 -10.078125 C 3.03125 -10.078125 5.203125 -2.703125 5.203125 -2.703125 C 5.203125 -2.703125 7.25 -10.078125 7.25 -10.078125 C 7.25 -10.078125 10.015625 -10.078125 10.015625 -10.078125 Z M 10.015625 -10.078125 "/>
</g>
<g id="glyph-14-0-038e3bb5">
<path d="M 3.859375 0 C 3.859375 0 1.25 0 1.25 0 C 1.25 0 1.25 -13.609375 1.25 -13.609375 C 1.25 -13.609375 3.859375 -13.609375 3.859375 -13.609375 C 3.859375 -13.609375 3.859375 0 3.859375 0 Z M 3.859375 0 "/>
</g>
<g id="glyph-15-0-038e3bb5">
<path d="M 6.484375 0 C 6.484375 0 4.84375 0 4.84375 0 C 4.84375 0 4.84375 -9.421875 4.84375 -9.421875 C 4.84375 -9.421875 1.90625 -9.421875 1.90625 -9.421875 C 1.90625 -9.421875 1.90625 -10.609375 1.90625 -10.609375 C 4.4375 -10.921875 4.8125 -11.203125 5.390625 -13.234375 C 5.390625 -13.234375 6.484375 -13.234375 6.484375 -13.234375 C 6.484375 -13.234375 6.484375 0 6.484375 0 Z M 6.484375 0 "/>
</g>
<g id="glyph-15-1-038e3bb5">
<path d="M 4.75 0 C 4.21875 0.09375 3.84375 0.125 3.46875 0.125 C 2.265625 0.125 1.59375 -0.421875 1.59375 -1.421875 C 1.59375 -1.421875 1.59375 -8.515625 1.59375 -8.515625 C 1.59375 -8.515625 0.265625 -8.515625 0.265625 -8.515625 C 0.265625 -8.515625 0.265625 -9.78125 0.265625 -9.78125 C 0.265625 -9.78125 1.59375 -9.78125 1.59375 -9.78125 C 1.59375 -9.78125 1.59375 -12.46875 1.59375 -12.46875 C 1.59375 -12.46875 3.140625 -12.46875 3.140625 -12.46875 C 3.140625 -12.46875 3.140625 -9.78125 3.140625 -9.78125 C 3.140625 -9.78125 4.75 -9.78125 4.75 -9.78125 C 4.75 -9.78125 4.75 -8.515625 4.75 -8.515625 C 4.75 -8.515625 3.140625 -8.515625 3.140625 -8.515625 C 3.140625 -8.515625 3.140625 -2.109375 3.140625 -2.109375 C 3.140625 -1.421875 3.328125 -1.234375 4 -1.234375 C 4.296875 -1.234375 4.53125 -1.25 4.75 -1.3125 C 4.75 -1.3125 4.75 0 4.75 0 Z M 4.75 0 "/>
</g>
<g id="glyph-15-2-038e3bb5">
<path d="M 9.515625 -4.8125 C 9.515625 -1.609375 7.84375 0.28125 5.09375 0.28125 C 2.3125 0.28125 0.671875 -1.609375 0.671875 -4.890625 C 0.671875 -8.171875 2.328125 -10.0625 5.078125 -10.0625 C 7.890625 -10.0625 9.515625 -8.203125 9.515625 -4.8125 Z M 7.890625 -4.84375 C 7.890625 -7.265625 6.859375 -8.625 5.09375 -8.625 C 3.359375 -8.625 2.296875 -7.25 2.296875 -4.890625 C 2.296875 -2.515625 3.359375 -1.15625 5.09375 -1.15625 C 6.8125 -1.15625 7.890625 -2.546875 7.890625 -4.84375 Z M 7.890625 -4.84375 "/>
</g>
<g id="glyph-16-0-038e3bb5">
</g>
<g id="glyph-16-1-038e3bb5">
<path d="M 6 -8.421875 C 3.578125 -8.390625 2.859375 -7.28125 2.859375 -5.078125 C 2.859375 -5.078125 2.859375 0 2.859375 0 C 2.859375 0 1.3125 0 1.3125 0 C 1.3125 0 1.3125 -9.78125 1.3125 -9.78125 C 1.3125 -9.78125 2.71875 -9.78125 2.71875 -9.78125 C 2.71875 -9.78125 2.71875 -8.015625 2.71875 -8.015625 C 3.625 -9.46875 4.390625 -10.0625 5.390625 -10.0625 C 5.609375 -10.0625 5.734375 -10.046875 6 -10.015625 C 6 -10.015625 6 -8.421875 6 -8.421875 Z M 6 -8.421875 "/>
</g>
<g id="glyph-16-2-038e3bb5">
<path d="M 9.984375 -0.03125 C 9.484375 0.09375 9.25 0.125 8.921875 0.125 C 8.15625 0.125 7.484375 -0.40625 7.3125 -1.15625 C 6.453125 -0.25 5.25 0.28125 4 0.28125 C 2.015625 0.28125 0.78125 -0.765625 0.78125 -2.546875 C 0.78125 -3.734375 1.359375 -4.609375 2.5 -5.078125 C 3.09375 -5.328125 3.4375 -5.390625 5.640625 -5.671875 C 6.875 -5.828125 7.265625 -6.109375 7.265625 -6.765625 C 7.265625 -6.765625 7.265625 -7.171875 7.265625 -7.171875 C 7.265625 -8.109375 6.484375 -8.625 5.078125 -8.625 C 3.625 -8.625 2.90625 -8.078125 2.78125 -6.890625 C 2.78125 -6.890625 1.21875 -6.890625 1.21875 -6.890625 C 1.3125 -9.15625 2.765625 -10.0625 5.140625 -10.0625 C 7.546875 -10.0625 8.8125 -9.125 8.8125 -7.390625 C 8.8125 -7.390625 8.8125 -1.9375 8.8125 -1.9375 C 8.8125 -1.453125 9.109375 -1.171875 9.65625 -1.171875 C 9.75 -1.171875 9.828125 -1.171875 9.984375 -1.21875 C 9.984375 -1.21875 9.984375 -0.03125 9.984375 -0.03125 Z M 7.265625 -3.375 C 7.265625 -3.375 7.265625 -4.84375 7.265625 -4.84375 C 6.734375 -4.59375 6.40625 -4.515625 4.765625 -4.296875 C 3.09375 -4.046875 2.40625 -3.609375 2.40625 -2.578125 C 2.40625 -1.515625 3.125 -1.078125 4.328125 -1.078125 C 5.84375 -1.078125 7.265625 -1.984375 7.265625 -3.375 Z M 7.265625 -3.375 "/>
</g>
<g id="glyph-16-3-038e3bb5">
<path d="M 2.859375 2.03125 C 2.859375 3.359375 1.9375 4.078125 0.1875 4.078125 C -0.0625 4.078125 -0.15625 4.046875 -0.34375 4.015625 C -0.34375 4.015625 -0.34375 2.6875 -0.34375 2.6875 C -0.34375 2.6875 0.03125 2.703125 0.03125 2.703125 C 0.984375 2.765625 1.3125 2.359375 1.3125 1.421875 C 1.3125 1.421875 1.3125 -9.78125 1.3125 -9.78125 C 1.3125 -9.78125 2.859375 -9.78125 2.859375 -9.78125 C 2.859375 -9.78125 2.859375 2.03125 2.859375 2.03125 Z M 3.0625 -11.265625 C 3.0625 -11.265625 1.125 -11.265625 1.125 -11.265625 C 1.125 -11.265625 1.125 -13.203125 1.125 -13.203125 C 1.125 -13.203125 3.0625 -13.203125 3.0625 -13.203125 C 3.0625 -13.203125 3.0625 -11.265625 3.0625 -11.265625 Z M 3.0625 -11.265625 "/>
</g>
<g id="glyph-16-4-038e3bb5">
<path d="M 9.578125 -4.4375 C 9.578125 -4.4375 2.375 -4.4375 2.375 -4.4375 C 2.40625 -2.203125 3.625 -1.15625 5.25 -1.15625 C 6.5 -1.15625 7.375 -1.6875 7.8125 -2.96875 C 7.8125 -2.96875 9.375 -2.96875 9.375 -2.96875 C 8.984375 -0.984375 7.4375 0.28125 5.1875 0.28125 C 2.453125 0.28125 0.75 -1.625 0.75 -4.84375 C 0.75 -8.046875 2.5 -10.0625 5.234375 -10.0625 C 7.0625 -10.0625 8.546875 -9.09375 9.1875 -7.484375 C 9.46875 -6.765625 9.578125 -5.859375 9.578125 -4.4375 Z M 7.921875 -5.828125 C 7.921875 -7.359375 6.734375 -8.625 5.203125 -8.625 C 3.640625 -8.625 2.546875 -7.453125 2.40625 -5.71875 C 2.40625 -5.71875 7.890625 -5.71875 7.890625 -5.71875 C 7.921875 -5.75 7.921875 -5.828125 7.921875 -5.828125 Z M 7.921875 -5.828125 "/>
</g>
<g id="glyph-16-5-038e3bb5">
<path d="M 8.90625 -3.359375 C 8.71875 -1.125 7.25 0.28125 4.90625 0.28125 C 2.265625 0.28125 0.578125 -1.640625 0.578125 -4.796875 C 0.578125 -8.046875 2.296875 -10.0625 4.921875 -10.0625 C 7.109375 -10.0625 8.609375 -8.890625 8.796875 -6.5 C 8.796875 -6.5 7.21875 -6.5 7.21875 -6.5 C 7.046875 -7.859375 6.21875 -8.625 4.90625 -8.625 C 3.21875 -8.625 2.203125 -7.25 2.203125 -4.796875 C 2.203125 -2.484375 3.234375 -1.15625 4.953125 -1.15625 C 6.28125 -1.15625 7.078125 -1.796875 7.34375 -3.359375 C 7.34375 -3.359375 8.90625 -3.359375 8.90625 -3.359375 Z M 8.90625 -3.359375 "/>
</g>
<g id="glyph-16-6-038e3bb5">
<path d="M 4.75 0 C 4.21875 0.09375 3.84375 0.125 3.46875 0.125 C 2.265625 0.125 1.59375 -0.421875 1.59375 -1.421875 C 1.59375 -1.421875 1.59375 -8.515625 1.59375 -8.515625 C 1.59375 -8.515625 0.265625 -8.515625 0.265625 -8.515625 C 0.265625 -8.515625 0.265625 -9.78125 0.265625 -9.78125 C 0.265625 -9.78125 1.59375 -9.78125 1.59375 -9.78125 C 1.59375 -9.78125 1.59375 -12.46875 1.59375 -12.46875 C 1.59375 -12.46875 3.140625 -12.46875 3.140625 -12.46875 C 3.140625 -12.46875 3.140625 -9.78125 3.140625 -9.78125 C 3.140625 -9.78125 4.75 -9.78125 4.75 -9.78125 C 4.75 -9.78125 4.75 -8.515625 4.75 -8.515625 C 4.75 -8.515625 3.140625 -8.515625 3.140625 -8.515625 C 3.140625 -8.515625 3.140625 -2.109375 3.140625 -2.109375 C 3.140625 -1.421875 3.328125 -1.234375 4 -1.234375 C 4.296875 -1.234375 4.53125 -1.25 4.75 -1.3125 C 4.75 -1.3125 4.75 0 4.75 0 Z M 4.75 0 "/>
</g>
<g id="glyph-16-7-038e3bb5">
<path d="M 8.921875 -9.78125 C 8.921875 -9.78125 4.578125 2.046875 4.578125 2.046875 C 4.046875 3.453125 3.15625 4.078125 2.046875 4.078125 C 1.640625 4.078125 1.328125 4 1.015625 3.828125 C 1.015625 3.828125 1.015625 2.421875 1.015625 2.421875 C 1.34375 2.5 1.609375 2.546875 1.828125 2.546875 C 2.5 2.546875 2.8125 2.28125 3.078125 1.59375 C 3.078125 1.59375 3.671875 0.03125 3.671875 0.03125 C 3.671875 0.03125 0.375 -9.78125 0.375 -9.78125 C 0.375 -9.78125 2.03125 -9.78125 2.03125 -9.78125 C 2.03125 -9.78125 4.53125 -2.171875 4.53125 -2.171875 C 4.53125 -2.171875 7.25 -9.78125 7.25 -9.78125 C 7.25 -9.78125 8.921875 -9.78125 8.921875 -9.78125 Z M 8.921875 -9.78125 "/>
</g>
<g id="glyph-17-0-038e3bb5">
<path d="M 6.484375 0 C 6.484375 0 4.84375 0 4.84375 0 C 4.84375 0 4.84375 -9.421875 4.84375 -9.421875 C 4.84375 -9.421875 1.90625 -9.421875 1.90625 -9.421875 C 1.90625 -9.421875 1.90625 -10.609375 1.90625 -10.609375 C 4.4375 -10.921875 4.8125 -11.203125 5.390625 -13.234375 C 5.390625 -13.234375 6.484375 -13.234375 6.484375 -13.234375 C 6.484375 -13.234375 6.484375 0 6.484375 0 Z M 6.484375 0 "/>
</g>
<g id="glyph-17-1-038e3bb5">
<path d="M 9.46875 -6.359375 C 9.46875 -2.015625 7.9375 0.28125 5.140625 0.28125 C 2.296875 0.28125 0.796875 -2.015625 0.796875 -6.484375 C 0.796875 -10.921875 2.28125 -13.234375 5.140625 -13.234375 C 8.015625 -13.234375 9.46875 -10.953125 9.46875 -6.359375 Z M 7.78125 -6.515625 C 7.78125 -10.0625 6.90625 -11.78125 5.140625 -11.78125 C 3.359375 -11.78125 2.484375 -10.078125 2.484375 -6.453125 C 2.484375 -2.84375 3.359375 -1.078125 5.09375 -1.078125 C 6.921875 -1.078125 7.78125 -2.765625 7.78125 -6.515625 Z M 7.78125 -6.515625 "/>
</g>
<g id="glyph-17-2-038e3bb5">
</g>
<g id="glyph-17-3-038e3bb5">
<path d="M 4.75 0 C 4.21875 0.09375 3.84375 0.125 3.46875 0.125 C 2.265625 0.125 1.59375 -0.421875 1.59375 -1.421875 C 1.59375 -1.421875 1.59375 -8.515625 1.59375 -8.515625 C 1.59375 -8.515625 0.265625 -8.515625 0.265625 -8.515625 C 0.265625 -8.515625 0.265625 -9.78125 0.265625 -9.78125 C 0.265625 -9.78125 1.59375 -9.78125 1.59375 -9.78125 C 1.59375 -9.78125 1.59375 -12.46875 1.59375 -12.46875 C 1.59375 -12.46875 3.140625 -12.46875 3.140625 -12.46875 C 3.140625 -12.46875 3.140625 -9.78125 3.140625 -9.78125 C 3.140625 -9.78125 4.75 -9.78125 4.75 -9.78125 C 4.75 -9.78125 4.75 -8.515625 4.75 -8.515625 C 4.75 -8.515625 3.140625 -8.515625 3.140625 -8.515625 C 3.140625 -8.515625 3.140625 -2.109375 3.140625 -2.109375 C 3.140625 -1.421875 3.328125 -1.234375 4 -1.234375 C 4.296875 -1.234375 4.53125 -1.25 4.75 -1.3125 C 4.75 -1.3125 4.75 0 4.75 0 Z M 4.75 0 "/>
</g>
<g id="glyph-17-4-038e3bb5">
<path d="M 6 -8.421875 C 3.578125 -8.390625 2.859375 -7.28125 2.859375 -5.078125 C 2.859375 -5.078125 2.859375 0 2.859375 0 C 2.859375 0 1.3125 0 1.3125 0 C 1.3125 0 1.3125 -9.78125 1.3125 -9.78125 C 1.3125 -9.78125 2.71875 -9.78125 2.71875 -9.78125 C 2.71875 -9.78125 2.71875 -8.015625 2.71875 -8.015625 C 3.625 -9.46875 4.390625 -10.0625 5.390625 -10.0625 C 5.609375 -10.0625 5.734375 -10.046875 6 -10.015625 C 6 -10.015625 6 -8.421875 6 -8.421875 Z M 6 -8.421875 "/>
</g>
<g id="glyph-17-5-038e3bb5">
<path d="M 9.984375 -0.03125 C 9.484375 0.09375 9.25 0.125 8.921875 0.125 C 8.15625 0.125 7.484375 -0.40625 7.3125 -1.15625 C 6.453125 -0.25 5.25 0.28125 4 0.28125 C 2.015625 0.28125 0.78125 -0.765625 0.78125 -2.546875 C 0.78125 -3.734375 1.359375 -4.609375 2.5 -5.078125 C 3.09375 -5.328125 3.4375 -5.390625 5.640625 -5.671875 C 6.875 -5.828125 7.265625 -6.109375 7.265625 -6.765625 C 7.265625 -6.765625 7.265625 -7.171875 7.265625 -7.171875 C 7.265625 -8.109375 6.484375 -8.625 5.078125 -8.625 C 3.625 -8.625 2.90625 -8.078125 2.78125 -6.890625 C 2.78125 -6.890625 1.21875 -6.890625 1.21875 -6.890625 C 1.3125 -9.15625 2.765625 -10.0625 5.140625 -10.0625 C 7.546875 -10.0625 8.8125 -9.125 8.8125 -7.390625 C 8.8125 -7.390625 8.8125 -1.9375 8.8125 -1.9375 C 8.8125 -1.453125 9.109375 -1.171875 9.65625 -1.171875 C 9.75 -1.171875 9.828125 -1.171875 9.984375 -1.21875 C 9.984375 -1.21875 9.984375 -0.03125 9.984375 -0.03125 Z M 7.265625 -3.375 C 7.265625 -3.375 7.265625 -4.84375 7.265625 -4.84375 C 6.734375 -4.59375 6.40625 -4.515625 4.765625 -4.296875 C 3.09375 -4.046875 2.40625 -3.609375 2.40625 -2.578125 C 2.40625 -1.515625 3.125 -1.078125 4.328125 -1.078125 C 5.84375 -1.078125 7.265625 -1.984375 7.265625 -3.375 Z M 7.265625 -3.375 "/>
</g>
<g id="glyph-17-6-038e3bb5">
<path d="M 2.859375 2.03125 C 2.859375 3.359375 1.9375 4.078125 0.1875 4.078125 C -0.0625 4.078125 -0.15625 4.046875 -0.34375 4.015625 C -0.34375 4.015625 -0.34375 2.6875 -0.34375 2.6875 C -0.34375 2.6875 0.03125 2.703125 0.03125 2.703125 C 0.984375 2.765625 1.3125 2.359375 1.3125 1.421875 C 1.3125 1.421875 1.3125 -9.78125 1.3125 -9.78125 C 1.3125 -9.78125 2.859375 -9.78125 2.859375 -9.78125 C 2.859375 -9.78125 2.859375 2.03125 2.859375 2.03125 Z M 3.0625 -11.265625 C 3.0625 -11.265625 1.125 -11.265625 1.125 -11.265625 C 1.125 -11.265625 1.125 -13.203125 1.125 -13.203125 C 1.125 -13.203125 3.0625 -13.203125 3.0625 -13.203125 C 3.0625 -13.203125 3.0625 -11.265625 3.0625 -11.265625 Z M 3.0625 -11.265625 "/>
</g>
<g id="glyph-17-7-038e3bb5">
<path d="M 9.578125 -4.4375 C 9.578125 -4.4375 2.375 -4.4375 2.375 -4.4375 C 2.40625 -2.203125 3.625 -1.15625 5.25 -1.15625 C 6.5 -1.15625 7.375 -1.6875 7.8125 -2.96875 C 7.8125 -2.96875 9.375 -2.96875 9.375 -2.96875 C 8.984375 -0.984375 7.4375 0.28125 5.1875 0.28125 C 2.453125 0.28125 0.75 -1.625 0.75 -4.84375 C 0.75 -8.046875 2.5 -10.0625 5.234375 -10.0625 C 7.0625 -10.0625 8.546875 -9.09375 9.1875 -7.484375 C 9.46875 -6.765625 9.578125 -5.859375 9.578125 -4.4375 Z M 7.921875 -5.828125 C 7.921875 -7.359375 6.734375 -8.625 5.203125 -8.625 C 3.640625 -8.625 2.546875 -7.453125 2.40625 -5.71875 C 2.40625 -5.71875 7.890625 -5.71875 7.890625 -5.71875 C 7.921875 -5.75 7.921875 -5.828125 7.921875 -5.828125 Z M 7.921875 -5.828125 "/>
</g>
<g id="glyph-17-8-038e3bb5">
<path d="M 8.90625 -3.359375 C 8.71875 -1.125 7.25 0.28125 4.90625 0.28125 C 2.265625 0.28125 0.578125 -1.640625 0.578125 -4.796875 C 0.578125 -8.046875 2.296875 -10.0625 4.921875 -10.0625 C 7.109375 -10.0625 8.609375 -8.890625 8.796875 -6.5 C 8.796875 -6.5 7.21875 -6.5 7.21875 -6.5 C 7.046875 -7.859375 6.21875 -8.625 4.90625 -8.625 C 3.21875 -8.625 2.203125 -7.25 2.203125 -4.796875 C 2.203125 -2.484375 3.234375 -1.15625 4.953125 -1.15625 C 6.28125 -1.15625 7.078125 -1.796875 7.34375 -3.359375 C 7.34375 -3.359375 8.90625 -3.359375 8.90625 -3.359375 Z M 8.90625 -3.359375 "/>
</g>
<g id="glyph-17-9-038e3bb5">
<path d="M 9.515625 -4.8125 C 9.515625 -1.609375 7.84375 0.28125 5.09375 0.28125 C 2.3125 0.28125 0.671875 -1.609375 0.671875 -4.890625 C 0.671875 -8.171875 2.328125 -10.0625 5.078125 -10.0625 C 7.890625 -10.0625 9.515625 -8.203125 9.515625 -4.8125 Z M 7.890625 -4.84375 C 7.890625 -7.265625 6.859375 -8.625 5.09375 -8.625 C 3.359375 -8.625 2.296875 -7.25 2.296875 -4.890625 C 2.296875 -2.515625 3.359375 -1.15625 5.09375 -1.15625 C 6.8125 -1.15625 7.890625 -2.546875 7.890625 -4.84375 Z M 7.890625 -4.84375 "/>
</g>
<g id="glyph-17-10-038e3bb5">
<path d="M 2.859375 0 C 2.859375 0 1.3125 0 1.3125 0 C 1.3125 0 1.3125 -9.78125 1.3125 -9.78125 C 1.3125 -9.78125 2.859375 -9.78125 2.859375 -9.78125 C 2.859375 -9.78125 2.859375 0 2.859375 0 Z M 3.0625 -11.265625 C 3.0625 -11.265625 1.125 -11.265625 1.125 -11.265625 C 1.125 -11.265625 1.125 -13.203125 1.125 -13.203125 C 1.125 -13.203125 3.0625 -13.203125 3.0625 -13.203125 C 3.0625 -13.203125 3.0625 -11.265625 3.0625 -11.265625 Z M 3.0625 -11.265625 "/>
</g>
<g id="glyph-17-11-038e3bb5">
<path d="M 8.578125 -2.75 C 8.578125 -0.859375 7 0.28125 4.53125 0.28125 C 1.984375 0.28125 0.703125 -0.734375 0.640625 -2.984375 C 0.640625 -2.984375 2.28125 -2.984375 2.28125 -2.984375 C 2.484375 -1.5 3.265625 -1.15625 4.671875 -1.15625 C 6.03125 -1.15625 6.953125 -1.703125 6.953125 -2.609375 C 6.953125 -3.328125 6.515625 -3.640625 5.4375 -3.90625 C 5.4375 -3.90625 3.984375 -4.25 3.984375 -4.25 C 1.65625 -4.8125 0.875 -5.546875 0.875 -7.078125 C 0.875 -8.890625 2.359375 -10.0625 4.625 -10.0625 C 6.890625 -10.0625 8.15625 -8.984375 8.171875 -7.0625 C 8.171875 -7.0625 6.53125 -7.0625 6.53125 -7.0625 C 6.5 -8.078125 5.828125 -8.625 4.578125 -8.625 C 3.3125 -8.625 2.5 -8.046875 2.5 -7.15625 C 2.5 -6.453125 3.046875 -6.046875 4.3125 -5.75 C 4.3125 -5.75 5.8125 -5.390625 5.8125 -5.390625 C 7.75 -4.921875 8.578125 -4.203125 8.578125 -2.75 Z M 8.578125 -2.75 "/>
</g>
<g id="glyph-18-0-038e3bb5">
<path d="M 6.484375 0 C 6.484375 0 4.84375 0 4.84375 0 C 4.84375 0 4.84375 -9.421875 4.84375 -9.421875 C 4.84375 -9.421875 1.90625 -9.421875 1.90625 -9.421875 C 1.90625 -9.421875 1.90625 -10.609375 1.90625 -10.609375 C 4.4375 -10.921875 4.8125 -11.203125 5.390625 -13.234375 C 5.390625 -13.234375 6.484375 -13.234375 6.484375 -13.234375 C 6.484375 -13.234375 6.484375 0 6.484375 0 Z M 6.484375 0 "/>
</g>
<g id="glyph-18-1-038e3bb5">
<path d="M 9.46875 -6.359375 C 9.46875 -2.015625 7.9375 0.28125 5.140625 0.28125 C 2.296875 0.28125 0.796875 -2.015625 0.796875 -6.484375 C 0.796875 -10.921875 2.28125 -13.234375 5.140625 -13.234375 C 8.015625 -13.234375 9.46875 -10.953125 9.46875 -6.359375 Z M 7.78125 -6.515625 C 7.78125 -10.0625 6.90625 -11.78125 5.140625 -11.78125 C 3.359375 -11.78125 2.484375 -10.078125 2.484375 -6.453125 C 2.484375 -2.84375 3.359375 -1.078125 5.09375 -1.078125 C 6.921875 -1.078125 7.78125 -2.765625 7.78125 -6.515625 Z M 7.78125 -6.515625 "/>
</g>
<g id="glyph-18-2-038e3bb5">
</g>
<g id="glyph-18-3-038e3bb5">
<path d="M 4.75 0 C 4.21875 0.09375 3.84375 0.125 3.46875 0.125 C 2.265625 0.125 1.59375 -0.421875 1.59375 -1.421875 C 1.59375 -1.421875 1.59375 -8.515625 1.59375 -8.515625 C 1.59375 -8.515625 0.265625 -8.515625 0.265625 -8.515625 C 0.265625 -8.515625 0.265625 -9.78125 0.265625 -9.78125 C 0.265625 -9.78125 1.59375 -9.78125 1.59375 -9.78125 C 1.59375 -9.78125 1.59375 -12.46875 1.59375 -12.46875 C 1.59375 -12.46875 3.140625 -12.46875 3.140625 -12.46875 C 3.140625 -12.46875 3.140625 -9.78125 3.140625 -9.78125 C 3.140625 -9.78125 4.75 -9.78125 4.75 -9.78125 C 4.75 -9.78125 4.75 -8.515625 4.75 -8.515625 C 4.75 -8.515625 3.140625 -8.515625 3.140625 -8.515625 C 3.140625 -8.515625 3.140625 -2.109375 3.140625 -2.109375 C 3.140625 -1.421875 3.328125 -1.234375 4 -1.234375 C 4.296875 -1.234375 4.53125 -1.25 4.75 -1.3125 C 4.75 -1.3125 4.75 0 4.75 0 Z M 4.75 0 "/>
</g>
<g id="glyph-18-4-038e3bb5">
<path d="M 9.984375 -0.03125 C 9.484375 0.09375 9.25 0.125 8.921875 0.125 C 8.15625 0.125 7.484375 -0.40625 7.3125 -1.15625 C 6.453125 -0.25 5.25 0.28125 4 0.28125 C 2.015625 0.28125 0.78125 -0.765625 0.78125 -2.546875 C 0.78125 -3.734375 1.359375 -4.609375 2.5 -5.078125 C 3.09375 -5.328125 3.4375 -5.390625 5.640625 -5.671875 C 6.875 -5.828125 7.265625 -6.109375 7.265625 -6.765625 C 7.265625 -6.765625 7.265625 -7.171875 7.265625 -7.171875 C 7.265625 -8.109375 6.484375 -8.625 5.078125 -8.625 C 3.625 -8.625 2.90625 -8.078125 2.78125 -6.890625 C 2.78125 -6.890625 1.21875 -6.890625 1.21875 -6.890625 C 1.3125 -9.15625 2.765625 -10.0625 5.140625 -10.0625 C 7.546875 -10.0625 8.8125 -9.125 8.8125 -7.390625 C 8.8125 -7.390625 8.8125 -1.9375 8.8125 -1.9375 C 8.8125 -1.453125 9.109375 -1.171875 9.65625 -1.171875 C 9.75 -1.171875 9.828125 -1.171875 9.984375 -1.21875 C 9.984375 -1.21875 9.984375 -0.03125 9.984375 -0.03125 Z M 7.265625 -3.375 C 7.265625 -3.375 7.265625 -4.84375 7.265625 -4.84375 C 6.734375 -4.59375 6.40625 -4.515625 4.765625 -4.296875 C 3.09375 -4.046875 2.40625 -3.609375 2.40625 -2.578125 C 2.40625 -1.515625 3.125 -1.078125 4.328125 -1.078125 C 5.84375 -1.078125 7.265625 -1.984375 7.265625 -3.375 Z M 7.265625 -3.375 "/>
</g>
<g id="glyph-18-5-038e3bb5">
<path d="M 2.859375 2.03125 C 2.859375 3.359375 1.9375 4.078125 0.1875 4.078125 C -0.0625 4.078125 -0.15625 4.046875 -0.34375 4.015625 C -0.34375 4.015625 -0.34375 2.6875 -0.34375 2.6875 C -0.34375 2.6875 0.03125 2.703125 0.03125 2.703125 C 0.984375 2.765625 1.3125 2.359375 1.3125 1.421875 C 1.3125 1.421875 1.3125 -9.78125 1.3125 -9.78125 C 1.3125 -9.78125 2.859375 -9.78125 2.859375 -9.78125 C 2.859375 -9.78125 2.859375 2.03125 2.859375 2.03125 Z M 3.0625 -11.265625 C 3.0625 -11.265625 1.125 -11.265625 1.125 -11.265625 C 1.125 -11.265625 1.125 -13.203125 1.125 -13.203125 C 1.125 -13.203125 3.0625 -13.203125 3.0625 -13.203125 C 3.0625 -13.203125 3.0625 -11.265625 3.0625 -11.265625 Z M 3.0625 -11.265625 "/>
</g>
<g id="glyph-18-6-038e3bb5">
<path d="M 9.578125 -4.4375 C 9.578125 -4.4375 2.375 -4.4375 2.375 -4.4375 C 2.40625 -2.203125 3.625 -1.15625 5.25 -1.15625 C 6.5 -1.15625 7.375 -1.6875 7.8125 -2.96875 C 7.8125 -2.96875 9.375 -2.96875 9.375 -2.96875 C 8.984375 -0.984375 7.4375 0.28125 5.1875 0.28125 C 2.453125 0.28125 0.75 -1.625 0.75 -4.84375 C 0.75 -8.046875 2.5 -10.0625 5.234375 -10.0625 C 7.0625 -10.0625 8.546875 -9.09375 9.1875 -7.484375 C 9.46875 -6.765625 9.578125 -5.859375 9.578125 -4.4375 Z M 7.921875 -5.828125 C 7.921875 -7.359375 6.734375 -8.625 5.203125 -8.625 C 3.640625 -8.625 2.546875 -7.453125 2.40625 -5.71875 C 2.40625 -5.71875 7.890625 -5.71875 7.890625 -5.71875 C 7.921875 -5.75 7.921875 -5.828125 7.921875 -5.828125 Z M 7.921875 -5.828125 "/>
</g>
<g id="glyph-18-7-038e3bb5">
<path d="M 8.90625 -3.359375 C 8.71875 -1.125 7.25 0.28125 4.90625 0.28125 C 2.265625 0.28125 0.578125 -1.640625 0.578125 -4.796875 C 0.578125 -8.046875 2.296875 -10.0625 4.921875 -10.0625 C 7.109375 -10.0625 8.609375 -8.890625 8.796875 -6.5 C 8.796875 -6.5 7.21875 -6.5 7.21875 -6.5 C 7.046875 -7.859375 6.21875 -8.625 4.90625 -8.625 C 3.21875 -8.625 2.203125 -7.25 2.203125 -4.796875 C 2.203125 -2.484375 3.234375 -1.15625 4.953125 -1.15625 C 6.28125 -1.15625 7.078125 -1.796875 7.34375 -3.359375 C 7.34375 -3.359375 8.90625 -3.359375 8.90625 -3.359375 Z M 8.90625 -3.359375 "/>
</g>
<g id="glyph-18-8-038e3bb5">
<path d="M 9.515625 -4.8125 C 9.515625 -1.609375 7.84375 0.28125 5.09375 0.28125 C 2.3125 0.28125 0.671875 -1.609375 0.671875 -4.890625 C 0.671875 -8.171875 2.328125 -10.0625 5.078125 -10.0625 C 7.890625 -10.0625 9.515625 -8.203125 9.515625 -4.8125 Z M 7.890625 -4.84375 C 7.890625 -7.265625 6.859375 -8.625 5.09375 -8.625 C 3.359375 -8.625 2.296875 -7.25 2.296875 -4.890625 C 2.296875 -2.515625 3.359375 -1.15625 5.09375 -1.15625 C 6.8125 -1.15625 7.890625 -2.546875 7.890625 -4.84375 Z M 7.890625 -4.84375 "/>
</g>
<g id="glyph-18-9-038e3bb5">
<path d="M 6 -8.421875 C 3.578125 -8.390625 2.859375 -7.28125 2.859375 -5.078125 C 2.859375 -5.078125 2.859375 0 2.859375 0 C 2.859375 0 1.3125 0 1.3125 0 C 1.3125 0 1.3125 -9.78125 1.3125 -9.78125 C 1.3125 -9.78125 2.71875 -9.78125 2.71875 -9.78125 C 2.71875 -9.78125 2.71875 -8.015625 2.71875 -8.015625 C 3.625 -9.46875 4.390625 -10.0625 5.390625 -10.0625 C 5.609375 -10.0625 5.734375 -10.046875 6 -10.015625 C 6 -10.015625 6 -8.421875 6 -8.421875 Z M 6 -8.421875 "/>
</g>
<g id="glyph-18-10-038e3bb5">
<path d="M 2.859375 0 C 2.859375 0 1.3125 0 1.3125 0 C 1.3125 0 1.3125 -9.78125 1.3125 -9.78125 C 1.3125 -9.78125 2.859375 -9.78125 2.859375 -9.78125 C 2.859375 -9.78125 2.859375 0 2.859375 0 Z M 3.0625 -11.265625 C 3.0625 -11.265625 1.125 -11.265625 1.125 -11.265625 C 1.125 -11.265625 1.125 -13.203125 1.125 -13.203125 C 1.125 -13.203125 3.0625 -13.203125 3.0625 -13.203125 C 3.0625 -13.203125 3.0625 -11.265625 3.0625 -11.265625 Z M 3.0625 -11.265625 "/>
</g>
<g id="glyph-19-0-038e3bb5">
<path d="M 6 -8.421875 C 3.578125 -8.390625 2.859375 -7.28125 2.859375 -5.078125 C 2.859375 -5.078125 2.859375 0 2.859375 0 C 2.859375 0 1.3125 0 1.3125 0 C 1.3125 0 1.3125 -9.78125 1.3125 -9.78125 C 1.3125 -9.78125 2.71875 -9.78125 2.71875 -9.78125 C 2.71875 -9.78125 2.71875 -8.015625 2.71875 -8.015625 C 3.625 -9.46875 4.390625 -10.0625 5.390625 -10.0625 C 5.609375 -10.0625 5.734375 -10.046875 6 -10.015625 C 6 -10.015625 6 -8.421875 6 -8.421875 Z M 6 -8.421875 "/>
</g>
<g id="glyph-20-0-038e3bb5">
<path d="M 8.578125 -2.75 C 8.578125 -0.859375 7 0.28125 4.53125 0.28125 C 1.984375 0.28125 0.703125 -0.734375 0.640625 -2.984375 C 0.640625 -2.984375 2.28125 -2.984375 2.28125 -2.984375 C 2.484375 -1.5 3.265625 -1.15625 4.671875 -1.15625 C 6.03125 -1.15625 6.953125 -1.703125 6.953125 -2.609375 C 6.953125 -3.328125 6.515625 -3.640625 5.4375 -3.90625 C 5.4375 -3.90625 3.984375 -4.25 3.984375 -4.25 C 1.65625 -4.8125 0.875 -5.546875 0.875 -7.078125 C 0.875 -8.890625 2.359375 -10.0625 4.625 -10.0625 C 6.890625 -10.0625 8.15625 -8.984375 8.171875 -7.0625 C 8.171875 -7.0625 6.53125 -7.0625 6.53125 -7.0625 C 6.5 -8.078125 5.828125 -8.625 4.578125 -8.625 C 3.3125 -8.625 2.5 -8.046875 2.5 -7.15625 C 2.5 -6.453125 3.046875 -6.046875 4.3125 -5.75 C 4.3125 -5.75 5.8125 -5.390625 5.8125 -5.390625 C 7.75 -4.921875 8.578125 -4.203125 8.578125 -2.75 Z M 8.578125 -2.75 "/>
</g>
</g>
</defs>
<path fill-rule="nonzero" fill="rgb(100%, 100%, 100%)" fill-opacity="1" d="M 0 0 L 666.667969 0 L 666.667969 466.667969 L 0 466.667969 Z M 0 0 "/>
<path fill-rule="nonzero" fill="rgb(100%, 100%, 100%)" fill-opacity="1" d="M 72 388 L 645.332031 388 L 645.332031 48 L 72 48 Z M 72 388 "/>
<path fill="none" stroke-width="1" stroke-linecap="butt" stroke-linejoin="miter" stroke="rgb(0%, 0%, 0%)" stroke-opacity="0.12" stroke-miterlimit="1.154701" d="M 73.546875 291 L 73.546875 36 " transform="matrix(1.333333, 0, 0, 1.333333, 0, 0)"/>
<path fill="none" stroke-width="1" stroke-linecap="butt" stroke-linejoin="miter" stroke="rgb(0%, 0%, 0%)" stroke-opacity="0.12" stroke-miterlimit="1.154701" d="M 269.000977 291 L 269.000977 36 " transform="matrix(1.333333, 0, 0, 1.333333, 0, 0)"/>
<path fill="none" stroke-width="1" stroke-linecap="butt" stroke-linejoin="miter" stroke="rgb(0%, 0%, 0%)" stroke-opacity="0.12" stroke-miterlimit="1.154701" d="M 464.455078 291 L 464.455078 36 " transform="matrix(1.333333, 0, 0, 1.333333, 0, 0)"/>
<path fill="none" stroke-width="1" stroke-linecap="butt" stroke-linejoin="miter" stroke="rgb(0%, 0%, 0%)" stroke-opacity="0.12" stroke-miterlimit="1.154701" d="M 54 279.433594 L 483.999023 279.433594 " transform="matrix(1.333333, 0, 0, 1.333333, 0, 0)"/>
<path fill="none" stroke-width="1" stroke-linecap="butt" stroke-linejoin="miter" stroke="rgb(0%, 0%, 0%)" stroke-opacity="0.12" stroke-miterlimit="1.154701" d="M 54 221.472656 L 483.999023 221.472656 " transform="matrix(1.333333, 0, 0, 1.333333, 0, 0)"/>
<path fill="none" stroke-width="1" stroke-linecap="butt" stroke-linejoin="miter" stroke="rgb(0%, 0%, 0%)" stroke-opacity="0.12" stroke-miterlimit="1.154701" d="M 54 163.511719 L 483.999023 163.511719 " transform="matrix(1.333333, 0, 0, 1.333333, 0, 0)"/>
<path fill="none" stroke-width="1" stroke-linecap="butt" stroke-linejoin="miter" stroke="rgb(0%, 0%, 0%)" stroke-opacity="0.12" stroke-miterlimit="1.154701" d="M 54 105.550781 L 483.999023 105.550781 " transform="matrix(1.333333, 0, 0, 1.333333, 0, 0)"/>
<path fill="none" stroke-width="1" stroke-linecap="butt" stroke-linejoin="miter" stroke="rgb(0%, 0%, 0%)" stroke-opacity="0.12" stroke-miterlimit="1.154701" d="M 54 47.589844 L 483.999023 47.589844 " transform="matrix(1.333333, 0, 0, 1.333333, 0, 0)"/>
<g fill="rgb(0%, 0%, 0%)" fill-opacity="1">
<use xlink:href="#glyph-0-0-038e3bb5" x="337.928019" y="442.090658"/>
</g>
<g fill="rgb(0%, 0%, 0%)" fill-opacity="1">
<use xlink:href="#glyph-0-1-038e3bb5" x="349.333333" y="442.090658"/>
</g>
<g fill="rgb(0%, 0%, 0%)" fill-opacity="1">
<use xlink:href="#glyph-0-2-038e3bb5" x="353.477336" y="442.090658"/>
</g>
<g fill="rgb(0%, 0%, 0%)" fill-opacity="1">
<use xlink:href="#glyph-0-3-038e3bb5" x="369.026652" y="442.090658"/>
</g>
<g fill="rgb(0%, 0%, 0%)" fill-opacity="1">
<use xlink:href="#glyph-0-4-038e3bb5" x="92.871267" y="416.343994"/>
</g>
<g fill="rgb(0%, 0%, 0%)" fill-opacity="1">
<use xlink:href="#glyph-0-5-038e3bb5" x="353.477336" y="416.343994"/>
</g>
<g fill="rgb(0%, 0%, 0%)" fill-opacity="1">
<use xlink:href="#glyph-1-0-038e3bb5" x="608.894084" y="416.343994"/>
</g>
<g fill="rgb(0%, 0%, 0%)" fill-opacity="1">
<use xlink:href="#glyph-0-4-038e3bb5" x="619.272746" y="416.343994"/>
</g>
<g fill="rgb(0%, 0%, 0%)" fill-opacity="1">
<use xlink:href="#glyph-2-0-038e3bb5" x="37.551999" y="296.334656"/>
</g>
<g fill="rgb(0%, 0%, 0%)" fill-opacity="1">
<use xlink:href="#glyph-3-0-038e3bb5" x="37.551999" y="283.883972"/>
</g>
<g fill="rgb(0%, 0%, 0%)" fill-opacity="1">
<use xlink:href="#glyph-2-1-038e3bb5" x="37.551999" y="274.550639"/>
</g>
<g fill="rgb(0%, 0%, 0%)" fill-opacity="1">
<use xlink:href="#glyph-4-0-038e3bb5" x="37.551999" y="264.171997"/>
</g>
<g fill="rgb(0%, 0%, 0%)" fill-opacity="1">
<use xlink:href="#glyph-5-0-038e3bb5" x="37.551999" y="253.793294"/>
</g>
<g fill="rgb(0%, 0%, 0%)" fill-opacity="1">
<use xlink:href="#glyph-2-2-038e3bb5" x="37.551999" y="244.459981"/>
</g>
<g fill="rgb(0%, 0%, 0%)" fill-opacity="1">
<use xlink:href="#glyph-4-1-038e3bb5" x="37.551999" y="239.270671"/>
</g>
<g fill="rgb(0%, 0%, 0%)" fill-opacity="1">
<use xlink:href="#glyph-2-2-038e3bb5" x="37.551999" y="228.891988"/>
</g>
<g fill="rgb(0%, 0%, 0%)" fill-opacity="1">
<use xlink:href="#glyph-2-3-038e3bb5" x="37.551999" y="223.702657"/>
</g>
<g fill="rgb(0%, 0%, 0%)" fill-opacity="1">
<use xlink:href="#glyph-2-4-038e3bb5" x="37.551999" y="219.558655"/>
</g>
<g fill="rgb(0%, 0%, 0%)" fill-opacity="1">
<use xlink:href="#glyph-2-5-038e3bb5" x="37.551999" y="209.179993"/>
</g>
<g fill="rgb(0%, 0%, 0%)" fill-opacity="1">
<use xlink:href="#glyph-2-6-038e3bb5" x="37.551999" y="198.801331"/>
</g>
<g fill="rgb(0%, 0%, 0%)" fill-opacity="1">
<use xlink:href="#glyph-2-7-038e3bb5" x="37.551999" y="193.612"/>
</g>
<g fill="rgb(0%, 0%, 0%)" fill-opacity="1">
<use xlink:href="#glyph-2-8-038e3bb5" x="37.551999" y="184.278666"/>
</g>
<g fill="rgb(0%, 0%, 0%)" fill-opacity="1">
<use xlink:href="#glyph-6-0-038e3bb5" x="37.551999" y="173.900004"/>
</g>
<g fill="rgb(0%, 0%, 0%)" fill-opacity="1">
<use xlink:href="#glyph-3-1-038e3bb5" x="37.551999" y="169.756002"/>
</g>
<g fill="rgb(0%, 0%, 0%)" fill-opacity="1">
<use xlink:href="#glyph-2-9-038e3bb5" x="37.551999" y="159.37734"/>
</g>
<g fill="rgb(0%, 0%, 0%)" fill-opacity="1">
<use xlink:href="#glyph-6-1-038e3bb5" x="37.551999" y="148.998678"/>
</g>
<g fill="rgb(0%, 0%, 0%)" fill-opacity="1">
<use xlink:href="#glyph-7-0-038e3bb5" x="48.28801" y="379.383138"/>
</g>
<g fill="rgb(0%, 0%, 0%)" fill-opacity="1">
<use xlink:href="#glyph-8-0-038e3bb5" x="48.28801" y="302.10199"/>
</g>
<g fill="rgb(0%, 0%, 0%)" fill-opacity="1">
<use xlink:href="#glyph-9-0-038e3bb5" x="48.28801" y="224.820841"/>
</g>
<g fill="rgb(0%, 0%, 0%)" fill-opacity="1">
<use xlink:href="#glyph-8-1-038e3bb5" x="48.28801" y="147.539703"/>
</g>
<g fill="rgb(0%, 0%, 0%)" fill-opacity="1">
<use xlink:href="#glyph-10-0-038e3bb5" x="48.28801" y="70.25855"/>
</g>
<g fill="rgb(0%, 0%, 0%)" fill-opacity="1">
<use xlink:href="#glyph-11-0-038e3bb5" x="238.873352" y="38.597331"/>
</g>
<g fill="rgb(0%, 0%, 0%)" fill-opacity="1">
<use xlink:href="#glyph-12-0-038e3bb5" x="254.422689" y="38.597331"/>
</g>
<g fill="rgb(0%, 0%, 0%)" fill-opacity="1">
<use xlink:href="#glyph-11-1-038e3bb5" x="265.828023" y="38.597331"/>
</g>
<g fill="rgb(0%, 0%, 0%)" fill-opacity="1">
<use xlink:href="#glyph-12-1-038e3bb5" x="277.233337" y="38.597331"/>
</g>
<g fill="rgb(0%, 0%, 0%)" fill-opacity="1">
<use xlink:href="#glyph-11-2-038e3bb5" x="283.449341" y="38.597331"/>
</g>
<g fill="rgb(0%, 0%, 0%)" fill-opacity="1">
<use xlink:href="#glyph-12-2-038e3bb5" x="293.828003" y="38.597331"/>
</g>
<g fill="rgb(0%, 0%, 0%)" fill-opacity="1">
<use xlink:href="#glyph-12-3-038e3bb5" x="299.017354" y="38.597331"/>
</g>
<g fill="rgb(0%, 0%, 0%)" fill-opacity="1">
<use xlink:href="#glyph-12-4-038e3bb5" x="312.49467" y="38.597331"/>
</g>
<g fill="rgb(0%, 0%, 0%)" fill-opacity="1">
<use xlink:href="#glyph-13-0-038e3bb5" x="322.873332" y="38.597331"/>
</g>
<g fill="rgb(0%, 0%, 0%)" fill-opacity="1">
<use xlink:href="#glyph-14-0-038e3bb5" x="330.134664" y="38.597331"/>
</g>
<g fill="rgb(0%, 0%, 0%)" fill-opacity="1">
<use xlink:href="#glyph-12-0-038e3bb5" x="335.324015" y="38.597331"/>
</g>
<g fill="rgb(0%, 0%, 0%)" fill-opacity="1">
<use xlink:href="#glyph-12-2-038e3bb5" x="346.72937" y="38.597331"/>
</g>
<g fill="rgb(0%, 0%, 0%)" fill-opacity="1">
<use xlink:href="#glyph-12-1-038e3bb5" x="351.91866" y="38.597331"/>
</g>
<g fill="rgb(0%, 0%, 0%)" fill-opacity="1">
<use xlink:href="#glyph-12-5-038e3bb5" x="358.134684" y="38.597331"/>
</g>
<g fill="rgb(0%, 0%, 0%)" fill-opacity="1">
<use xlink:href="#glyph-12-6-038e3bb5" x="363.324015" y="38.597331"/>
</g>
<g fill="rgb(0%, 0%, 0%)" fill-opacity="1">
<use xlink:href="#glyph-12-7-038e3bb5" x="379.91866" y="38.597331"/>
</g>
<g fill="rgb(0%, 0%, 0%)" fill-opacity="1">
<use xlink:href="#glyph-12-2-038e3bb5" x="390.297323" y="38.597331"/>
</g>
<g fill="rgb(0%, 0%, 0%)" fill-opacity="1">
<use xlink:href="#glyph-12-7-038e3bb5" x="395.486654" y="38.597331"/>
</g>
<g fill="rgb(0%, 0%, 0%)" fill-opacity="1">
<use xlink:href="#glyph-13-1-038e3bb5" x="405.865316" y="38.597331"/>
</g>
<g fill="rgb(0%, 0%, 0%)" fill-opacity="1">
<use xlink:href="#glyph-12-0-038e3bb5" x="416.243978" y="38.597331"/>
</g>
<g fill="rgb(0%, 0%, 0%)" fill-opacity="1">
<use xlink:href="#glyph-12-8-038e3bb5" x="427.649333" y="38.597331"/>
</g>
<g fill="rgb(0%, 0%, 0%)" fill-opacity="1">
<use xlink:href="#glyph-12-9-038e3bb5" x="432.838664" y="38.597331"/>
</g>
<g fill="rgb(0%, 0%, 0%)" fill-opacity="1">
<use xlink:href="#glyph-12-1-038e3bb5" x="444.243978" y="38.597331"/>
</g>
<g fill="rgb(0%, 0%, 0%)" fill-opacity="1">
<use xlink:href="#glyph-12-5-038e3bb5" x="450.460002" y="38.597331"/>
</g>
<g fill="rgb(0%, 0%, 0%)" fill-opacity="1">
<use xlink:href="#glyph-12-0-038e3bb5" x="455.649333" y="38.597331"/>
</g>
<g fill="rgb(0%, 0%, 0%)" fill-opacity="1">
<use xlink:href="#glyph-12-10-038e3bb5" x="467.054647" y="38.597331"/>
</g>
<path fill="none" stroke-width="1.5" stroke-linecap="butt" stroke-linejoin="miter" stroke="rgb(0%, 44.705883%, 69.803923%)" stroke-opacity="1" stroke-dasharray="4.5 4.5 1.5 4.5" stroke-miterlimit="2" d="M 73.546875 47.589844 L 75.509766 49.013672 L 77.475586 53.018555 L 79.438477 58.822266 L 81.404297 65.273438 L 83.367188 71.088867 L 85.333008 75.117188 L 87.295898 76.570312 L 89.261719 75.18457 L 91.224609 71.244141 L 93.19043 65.52832 L 95.15332 59.150391 L 97.119141 53.334961 L 99.082031 49.212891 L 101.047852 47.598633 L 103.010742 77.648438 L 104.976562 81.041016 L 106.939453 86.179688 L 108.905273 92.167969 L 110.868164 125.81543 L 112.833984 130.420898 L 114.796875 133.476562 L 116.762695 134.53125 L 118.725586 133.450195 L 120.691406 130.400391 L 122.654297 125.841797 L 124.620117 120.439453 L 126.583008 114.981445 L 128.548828 110.255859 L 130.511719 106.957031 L 132.477539 105.577148 L 134.44043 106.327148 L 136.40625 109.119141 L 138.369141 113.540039 L 140.334961 118.939453 L 142.297852 124.50293 L 144.263672 129.398438 L 146.226562 132.890625 L 148.192383 134.469727 L 150.155273 133.913086 L 152.121094 131.320312 L 154.083984 127.081055 L 156.049805 121.819336 L 158.012695 116.299805 L 159.978516 111.322266 L 161.941406 107.613281 L 163.907227 105.723633 L 165.870117 105.943359 L 167.835938 136.801758 L 169.798828 140.264648 L 171.764648 144.829102 L 173.727539 149.917969 L 175.693359 154.895508 L 177.65625 159.134766 L 179.62207 162.108398 L 181.584961 163.453125 L 183.550781 163.016602 L 185.513672 189.445312 L 187.479492 186.140625 L 189.442383 182.044922 L 191.408203 177.5625 L 193.371094 173.118164 L 195.336914 169.148438 L 197.299805 194.43457 L 199.265625 192.946289 L 201.228516 192.498047 L 203.194336 193.12207 L 205.157227 194.786133 L 207.123047 197.370117 L 209.085938 200.680664 L 211.051758 204.474609 L 213.014648 208.456055 L 214.980469 212.326172 L 216.943359 215.791992 L 218.90918 218.586914 L 220.87207 220.505859 L 222.837891 221.411133 L 224.800781 221.241211 L 226.766602 220.016602 L 228.729492 217.833984 L 230.695312 214.860352 L 232.658203 211.31543 L 234.624023 207.457031 L 236.586914 203.563477 L 238.552734 199.916016 L 240.515625 196.78418 L 242.481445 194.393555 L 244.444336 192.928711 L 246.410156 192.498047 L 248.373047 193.145508 L 250.338867 194.830078 L 252.301758 197.431641 L 254.267578 200.756836 L 256.230469 204.553711 L 258.196289 208.538086 L 260.15918 212.402344 L 262.125 215.856445 L 264.087891 218.633789 L 266.053711 220.535156 L 268.016602 221.416992 L 269.982422 221.226562 L 271.945312 219.981445 L 273.911133 217.78125 L 275.874023 214.792969 L 277.839844 211.239258 L 279.802734 207.375 L 281.768555 203.484375 L 283.731445 199.845703 L 285.697266 196.728516 L 287.660156 194.355469 L 289.625977 192.908203 L 291.588867 192.500977 L 293.554688 193.171875 L 295.517578 194.874023 L 297.483398 197.493164 L 299.446289 200.830078 L 301.412109 204.635742 L 303.375 208.620117 L 305.34082 212.478516 L 307.303711 215.920898 L 309.269531 218.683594 L 311.232422 220.564453 L 313.198242 221.425781 L 315.164062 221.208984 L 317.126953 219.943359 L 319.092773 217.725586 L 321.055664 214.725586 L 323.021484 211.163086 L 324.984375 207.295898 L 326.950195 203.408203 L 328.913086 199.77832 L 330.878906 196.669922 L 332.841797 194.314453 L 334.807617 192.890625 L 336.770508 192.503906 L 338.736328 221.944336 L 340.699219 223.107422 L 342.665039 224.920898 L 344.62793 227.291016 L 346.59375 230.106445 L 348.556641 233.220703 L 350.522461 236.475586 L 352.485352 239.704102 L 354.451172 242.739258 L 356.414062 270.00293 L 358.379883 272.103516 L 360.342773 274.019531 L 362.308594 275.701172 L 364.271484 277.104492 L 366.237305 278.200195 L 368.200195 278.958984 L 370.166016 279.363281 L 372.128906 279.410156 L 374.094727 279.09668 L 376.057617 278.43457 L 378.023438 277.441406 L 379.986328 276.146484 L 381.952148 274.582031 L 383.915039 272.786133 L 385.880859 270.802734 L 387.84375 268.678711 L 389.80957 266.466797 L 391.772461 264.219727 L 393.738281 261.987305 L 395.701172 259.828125 L 397.666992 257.789062 L 399.629883 255.919922 L 401.595703 254.267578 L 403.558594 252.873047 L 405.524414 251.771484 L 407.487305 250.989258 L 409.453125 250.549805 L 411.416016 250.467773 L 413.381836 250.746094 L 415.344727 251.378906 L 417.310547 252.357422 L 419.273438 253.655273 L 421.239258 255.243164 L 423.202148 257.080078 L 425.167969 259.119141 L 427.130859 261.310547 L 429.09668 263.598633 L 431.05957 265.918945 L 433.025391 268.21582 L 434.988281 270.424805 L 436.954102 272.493164 L 438.916992 274.365234 L 440.882812 275.99707 L 442.845703 277.344727 L 444.811523 278.373047 L 446.774414 279.064453 L 448.740234 279.401367 L 450.703125 279.375 L 452.668945 278.994141 L 454.631836 278.264648 L 456.597656 277.212891 L 458.560547 275.862305 L 460.526367 274.248047 L 462.489258 272.414062 L 464.455078 270.398438 " transform="matrix(1.333333, 0, 0, 1.333333, 0, 0)"/>
<path fill="none" stroke-width="1.5" stroke-linecap="butt" stroke-linejoin="miter" stroke="rgb(90.196079%, 62.352943%, 0%)" stroke-opacity="1" stroke-dasharray="4.5 4.5" stroke-miterlimit="2" d="M 73.546875 47.589844 L 75.509766 51.896484 L 77.475586 61.529297 L 79.438477 67.163086 L 81.404297 73.482422 L 83.367188 79.277344 L 85.333008 83.43457 L 87.295898 85.174805 L 89.261719 84.193359 L 91.224609 86.416992 L 93.19043 81.149414 L 95.15332 77.900391 L 97.119141 72.152344 L 99.082031 70.573242 L 101.047852 68.320312 L 103.010742 71.472656 L 104.976562 74.162109 L 106.939453 78.808594 L 108.905273 84.571289 L 110.868164 90.401367 L 112.833984 95.255859 L 114.796875 98.276367 L 116.762695 98.961914 L 118.725586 97.233398 L 120.691406 96.298828 L 122.654297 91.180664 L 124.620117 88.470703 L 126.583008 86.296875 L 128.548828 82.696289 L 130.511719 83.929688 L 132.477539 84.439453 L 134.44043 89.8125 L 136.40625 93.925781 L 138.369141 101.71875 L 140.334961 109.573242 L 142.297852 113.80957 L 144.263672 119.554688 L 146.226562 120.629883 L 148.192383 119.794922 L 150.155273 117.228516 L 152.121094 113.373047 L 154.083984 111.700195 L 156.049805 112.927734 L 158.012695 109.294922 L 159.978516 106.895508 L 161.941406 106.054688 L 163.907227 106.848633 L 165.870117 114.726562 L 167.835938 118.045898 L 169.798828 124.790039 L 171.764648 128.736328 L 173.727539 132.181641 L 175.693359 134.654297 L 177.65625 135.837891 L 179.62207 135.600586 L 181.584961 134.021484 L 183.550781 131.358398 L 185.513672 133.801758 L 187.479492 130.344727 L 189.442383 130.019531 L 191.408203 127.664062 L 193.371094 126.342773 L 195.336914 128.920898 L 197.299805 129.911133 L 199.265625 134.62207 L 201.228516 139.848633 L 203.194336 142.488281 L 205.157227 144.960938 L 207.123047 146.956055 L 209.085938 148.245117 L 211.051758 151.579102 L 213.014648 151.291992 L 214.980469 153.193359 L 216.943359 151.839844 L 218.90918 153.196289 L 220.87207 151.734375 L 222.837891 150.550781 L 224.800781 149.780273 L 226.766602 149.478516 L 228.729492 152.449219 L 230.695312 155.794922 L 232.658203 156.500977 L 234.624023 160.201172 L 236.586914 161.050781 L 238.552734 169.998047 L 240.515625 170.364258 L 242.481445 170.53418 L 244.444336 170.53125 L 246.410156 170.399414 L 248.373047 170.200195 L 250.338867 169.989258 L 252.301758 169.807617 L 254.267578 169.681641 L 256.230469 172.376953 L 258.196289 172.400391 L 260.15918 172.391602 L 262.125 177.914062 L 264.087891 180.626953 L 266.053711 180.345703 L 268.016602 179.888672 L 269.982422 179.282227 L 271.945312 178.608398 L 273.911133 180.849609 L 275.874023 180.401367 L 277.839844 180.208008 L 279.802734 183.251953 L 281.768555 183.791016 L 283.731445 184.746094 L 285.697266 186.084961 L 287.660156 187.719727 L 289.625977 189.506836 L 291.588867 191.255859 L 293.554688 192.764648 L 295.517578 193.825195 L 297.483398 194.264648 L 299.446289 193.97168 L 301.412109 192.916992 L 303.375 194.053711 L 305.34082 191.783203 L 307.303711 191.90332 L 309.269531 192.205078 L 311.232422 189.914062 L 313.198242 188.044922 L 315.164062 186.808594 L 317.126953 186.342773 L 319.092773 186.708984 L 321.055664 187.880859 L 323.021484 189.741211 L 324.984375 192.09082 L 326.950195 194.680664 L 328.913086 197.238281 L 330.878906 199.5 L 332.841797 201.243164 L 334.807617 202.318359 L 336.770508 202.655273 L 338.736328 205.075195 L 340.699219 204.105469 L 342.665039 205.488281 L 344.62793 206.62793 L 346.59375 204.987305 L 348.556641 203.44043 L 350.522461 202.130859 L 352.485352 201.169922 L 354.451172 200.613281 L 356.414062 200.481445 L 358.379883 203.501953 L 360.342773 203.991211 L 362.308594 204.688477 L 364.271484 205.49707 L 366.237305 206.308594 L 368.200195 207.029297 L 370.166016 207.591797 L 372.128906 207.949219 L 374.094727 208.086914 L 376.057617 208.025391 L 378.023438 207.793945 L 379.986328 210.032227 L 381.952148 212.375977 L 383.915039 212.0625 L 385.880859 211.87793 L 387.84375 211.863281 L 389.80957 212.027344 L 391.772461 212.349609 L 393.738281 212.803711 L 395.701172 216.199219 L 397.666992 216.758789 L 399.629883 217.227539 L 401.595703 217.546875 L 403.558594 217.675781 L 405.524414 217.59375 L 407.487305 217.303711 L 409.453125 216.834961 L 411.416016 216.231445 L 413.381836 215.560547 L 415.344727 214.886719 L 417.310547 214.283203 L 419.273438 213.817383 L 421.239258 213.536133 L 423.202148 213.46875 L 425.167969 213.626953 L 427.130859 213.984375 L 429.09668 214.5 L 431.05957 215.118164 L 433.025391 215.768555 L 434.988281 216.37793 L 436.954102 216.884766 L 438.916992 217.239258 L 440.882812 217.412109 L 442.845703 220.256836 L 444.811523 220.086914 L 446.774414 219.732422 L 448.740234 219.243164 L 450.703125 218.680664 L 452.668945 218.118164 L 454.631836 217.620117 L 456.597656 217.245117 L 458.560547 217.037109 L 460.526367 217.007812 L 462.489258 217.166016 L 464.455078 217.482422 " transform="matrix(1.333333, 0, 0, 1.333333, 0, 0)"/>
<path fill="none" stroke-width="1.5" stroke-linecap="butt" stroke-linejoin="miter" stroke="rgb(0%, 61.960787%, 45.09804%)" stroke-opacity="1" stroke-miterlimit="2" d="M 73.546875 47.589844 L 75.509766 50.167969 L 77.475586 54.720703 L 79.438477 61.048828 L 81.404297 68.853516 L 83.367188 75.495117 L 85.333008 80.712891 L 87.295898 82.880859 L 89.261719 82.584961 L 91.224609 79.5 L 93.19043 74.900391 L 95.15332 69.56543 L 97.119141 63.808594 L 99.082031 61.558594 L 101.047852 60.169922 L 103.010742 61.40918 L 104.976562 65.727539 L 106.939453 72.741211 L 108.905273 79.248047 L 110.868164 85.851562 L 112.833984 91.5 L 114.796875 94.543945 L 116.762695 96 L 118.725586 94.476562 L 120.691406 91.025391 L 122.654297 86.753906 L 124.620117 82.652344 L 126.583008 78.870117 L 128.548828 77.068359 L 130.511719 76.848633 L 132.477539 80.077148 L 134.44043 84.087891 L 136.40625 89.129883 L 138.369141 95.15332 L 140.334961 100.959961 L 142.297852 105.175781 L 144.263672 107.542969 L 146.226562 107.879883 L 148.192383 106.051758 L 150.155273 102.811523 L 152.121094 98.874023 L 154.083984 95.34375 L 156.049805 92.384766 L 158.012695 91.151367 L 159.978516 91.385742 L 161.941406 93.357422 L 163.907227 96.732422 L 165.870117 101.522461 L 167.835938 106.564453 L 169.798828 111.146484 L 171.764648 114.990234 L 173.727539 116.619141 L 175.693359 117.37207 L 177.65625 116.537109 L 179.62207 114.75 L 181.584961 113.367188 L 183.550781 112.12793 L 185.513672 110.625 L 187.479492 110.311523 L 189.442383 110.525391 L 191.408203 111.287109 L 193.371094 113.8125 L 195.336914 116.90625 L 197.299805 119.592773 L 199.265625 122.891602 L 201.228516 125.607422 L 203.194336 126.676758 L 205.157227 128.302734 L 207.123047 128.583984 L 209.085938 127.168945 L 211.051758 126.316406 L 213.014648 125.487305 L 214.980469 124.666992 L 216.943359 124.344727 L 218.90918 124.913086 L 220.87207 126.09668 L 222.837891 127.728516 L 224.800781 129.146484 L 226.766602 131.226562 L 228.729492 133.201172 L 230.695312 134.0625 L 232.658203 135.102539 L 234.624023 135.963867 L 236.586914 136.168945 L 238.552734 136.939453 L 240.515625 136.713867 L 242.481445 136.546875 L 244.444336 137.683594 L 246.410156 137.947266 L 248.373047 138.240234 L 250.338867 139.643555 L 252.301758 142.098633 L 254.267578 142.96582 L 256.230469 144.105469 L 258.196289 145.368164 L 260.15918 146.135742 L 262.125 146.666016 L 264.087891 146.976562 L 266.053711 146.835938 L 268.016602 146.876953 L 269.982422 147.47168 L 271.945312 147.873047 L 273.911133 148.180664 L 275.874023 148.415039 L 277.839844 148.558594 L 279.802734 149.443359 L 281.768555 150.161133 L 283.731445 150.638672 L 285.697266 151.637695 L 287.660156 152.572266 L 289.625977 153.679688 L 291.588867 154.655273 L 293.554688 154.640625 L 295.517578 155.068359 L 297.483398 154.869141 L 299.446289 154.913086 L 301.412109 154.655273 L 303.375 155.545898 L 305.34082 156.996094 L 307.303711 156.832031 L 309.269531 157.294922 L 311.232422 157.256836 L 313.198242 158.129883 L 315.164062 158.768555 L 317.126953 159.741211 L 319.092773 160.192383 L 321.055664 161.223633 L 323.021484 162 L 324.984375 162.231445 L 326.950195 162.75 L 328.913086 163.291992 L 330.878906 164.399414 L 332.841797 164.885742 L 334.807617 166.195312 L 336.770508 167.739258 L 338.736328 169.198242 L 340.699219 169.672852 L 342.665039 170.027344 L 344.62793 170.797852 L 346.59375 170.34668 L 348.556641 170.352539 L 350.522461 170.569336 L 352.485352 170.827148 L 354.451172 171.474609 L 356.414062 171.427734 L 358.379883 171.339844 L 360.342773 173.730469 L 362.308594 174.911133 L 364.271484 176.355469 L 366.237305 177.413086 L 368.200195 179.411133 L 370.166016 180.55957 L 372.128906 181.362305 L 374.094727 182.560547 L 376.057617 182.976562 L 378.023438 183.131836 L 379.986328 183.84668 L 381.952148 183.483398 L 383.915039 183.495117 L 385.880859 183.09082 L 387.84375 182.926758 L 389.80957 182.519531 L 391.772461 181.948242 L 393.738281 181.555664 L 395.701172 181.664062 L 397.666992 182.270508 L 399.629883 182.800781 L 401.595703 184.057617 L 403.558594 185.141602 L 405.524414 186.205078 L 407.487305 188.100586 L 409.453125 189.27832 L 411.416016 190.048828 L 413.381836 190.368164 L 415.344727 190.224609 L 417.310547 190.78125 L 419.273438 191.083008 L 421.239258 190.989258 L 423.202148 190.910156 L 425.167969 190.617188 L 427.130859 191.510742 L 429.09668 191.742188 L 431.05957 192.963867 L 433.025391 193.429688 L 434.988281 193.942383 L 436.954102 195.082031 L 438.916992 196.50293 L 440.882812 196.790039 L 442.845703 197.018555 L 444.811523 197.724609 L 446.774414 198.366211 L 448.740234 198.635742 L 450.703125 199.382812 L 452.668945 199.822266 L 454.631836 200.238281 L 456.597656 200.375977 L 458.560547 201.37207 L 460.526367 201.539062 L 462.489258 202.03418 L 464.455078 202.584961 " transform="matrix(1.333333, 0, 0, 1.333333, 0, 0)"/>
<path fill-rule="nonzero" fill="rgb(100%, 100%, 100%)" fill-opacity="1" stroke-width="1" stroke-linecap="butt" stroke-linejoin="miter" stroke="rgb(0%, 0%, 0%)" stroke-opacity="1" stroke-miterlimit="2" d="M 345 120 L 477.999023 120 L 477.999023 42 L 345 42 Z M 345 120 " transform="matrix(1.333333, 0, 0, 1.333333, 0, 0)"/>
<path fill="none" stroke-width="1" stroke-linecap="butt" stroke-linejoin="miter" stroke="rgb(0%, 0%, 0%)" stroke-opacity="1" stroke-miterlimit="1.154701" d="M 73.546875 291.500977 L 73.546875 296.499023 " transform="matrix(1.333333, 0, 0, 1.333333, 0, 0)"/>
<path fill="none" stroke-width="1" stroke-linecap="butt" stroke-linejoin="miter" stroke="rgb(0%, 0%, 0%)" stroke-opacity="1" stroke-miterlimit="1.154701" d="M 269.000977 291.500977 L 269.000977 296.499023 " transform="matrix(1.333333, 0, 0, 1.333333, 0, 0)"/>
<path fill="none" stroke-width="1" stroke-linecap="butt" stroke-linejoin="miter" stroke="rgb(0%, 0%, 0%)" stroke-opacity="1" stroke-miterlimit="1.154701" d="M 464.455078 291.500977 L 464.455078 296.499023 " transform="matrix(1.333333, 0, 0, 1.333333, 0, 0)"/>
<path fill="none" stroke-width="1" stroke-linecap="butt" stroke-linejoin="miter" stroke="rgb(0%, 0%, 0%)" stroke-opacity="1" stroke-miterlimit="1.154701" d="M 53.499023 279.433594 L 48.500977 279.433594 " transform="matrix(1.333333, 0, 0, 1.333333, 0, 0)"/>
<path fill="none" stroke-width="1" stroke-linecap="butt" stroke-linejoin="miter" stroke="rgb(0%, 0%, 0%)" stroke-opacity="1" stroke-miterlimit="1.154701" d="M 53.499023 221.472656 L 48.500977 221.472656 " transform="matrix(1.333333, 0, 0, 1.333333, 0, 0)"/>
<path fill="none" stroke-width="1" stroke-linecap="butt" stroke-linejoin="miter" stroke="rgb(0%, 0%, 0%)" stroke-opacity="1" stroke-miterlimit="1.154701" d="M 53.499023 163.511719 L 48.500977 163.511719 " transform="matrix(1.333333, 0, 0, 1.333333, 0, 0)"/>
<path fill="none" stroke-width="1" stroke-linecap="butt" stroke-linejoin="miter" stroke="rgb(0%, 0%, 0%)" stroke-opacity="1" stroke-miterlimit="1.154701" d="M 53.499023 105.550781 L 48.500977 105.550781 " transform="matrix(1.333333, 0, 0, 1.333333, 0, 0)"/>
<path fill="none" stroke-width="1" stroke-linecap="butt" stroke-linejoin="miter" stroke="rgb(0%, 0%, 0%)" stroke-opacity="1" stroke-miterlimit="1.154701" d="M 53.499023 47.589844 L 48.500977 47.589844 " transform="matrix(1.333333, 0, 0, 1.333333, 0, 0)"/>
<path fill="none" stroke-width="1.5" stroke-linecap="butt" stroke-linejoin="miter" stroke="rgb(0%, 44.705883%, 69.803923%)" stroke-opacity="1" stroke-dasharray="4.5 4.5 1.5 4.5" stroke-miterlimit="2" d="M 351.149414 57.999023 L 371.147461 57.999023 " transform="matrix(1.333333, 0, 0, 1.333333, 0, 0)"/>
<path fill="none" stroke-width="1.5" stroke-linecap="butt" stroke-linejoin="miter" stroke="rgb(90.196079%, 62.352943%, 0%)" stroke-opacity="1" stroke-dasharray="4.5 4.5" stroke-miterlimit="2" d="M 351.149414 81 L 371.147461 81 " transform="matrix(1.333333, 0, 0, 1.333333, 0, 0)"/>
<path fill="none" stroke-width="1.5" stroke-linecap="butt" stroke-linejoin="miter" stroke="rgb(0%, 61.960787%, 45.09804%)" stroke-opacity="1" stroke-miterlimit="2" d="M 351.149414 104.000977 L 371.147461 104.000977 " transform="matrix(1.333333, 0, 0, 1.333333, 0, 0)"/>
<g fill="rgb(0%, 0%, 0%)" fill-opacity="1">
<use xlink:href="#glyph-15-0-038e3bb5" x="501.53068" y="84.137329"/>
</g>
<g fill="rgb(0%, 0%, 0%)" fill-opacity="1">
<use xlink:href="#glyph-16-0-038e3bb5" x="511.909383" y="84.137329"/>
</g>
<g fill="rgb(0%, 0%, 0%)" fill-opacity="1">
<use xlink:href="#glyph-15-1-038e3bb5" x="517.098674" y="84.137329"/>
</g>
<g fill="rgb(0%, 0%, 0%)" fill-opacity="1">
<use xlink:href="#glyph-16-1-038e3bb5" x="522.288005" y="84.137329"/>
</g>
<g fill="rgb(0%, 0%, 0%)" fill-opacity="1">
<use xlink:href="#glyph-16-2-038e3bb5" x="528.504069" y="84.137329"/>
</g>
<g fill="rgb(0%, 0%, 0%)" fill-opacity="1">
<use xlink:href="#glyph-16-3-038e3bb5" x="538.88269" y="84.137329"/>
</g>
<g fill="rgb(0%, 0%, 0%)" fill-opacity="1">
<use xlink:href="#glyph-16-4-038e3bb5" x="543.026693" y="84.137329"/>
</g>
<g fill="rgb(0%, 0%, 0%)" fill-opacity="1">
<use xlink:href="#glyph-16-5-038e3bb5" x="553.405355" y="84.137329"/>
</g>
<g fill="rgb(0%, 0%, 0%)" fill-opacity="1">
<use xlink:href="#glyph-16-6-038e3bb5" x="562.738688" y="84.137329"/>
</g>
<g fill="rgb(0%, 0%, 0%)" fill-opacity="1">
<use xlink:href="#glyph-15-2-038e3bb5" x="567.927979" y="84.137329"/>
</g>
<g fill="rgb(0%, 0%, 0%)" fill-opacity="1">
<use xlink:href="#glyph-16-1-038e3bb5" x="578.306681" y="84.137329"/>
</g>
<g fill="rgb(0%, 0%, 0%)" fill-opacity="1">
<use xlink:href="#glyph-16-7-038e3bb5" x="584.522664" y="84.137329"/>
</g>
<g fill="rgb(0%, 0%, 0%)" fill-opacity="1">
<use xlink:href="#glyph-17-0-038e3bb5" x="501.53064" y="114.804006"/>
</g>
<g fill="rgb(0%, 0%, 0%)" fill-opacity="1">
<use xlink:href="#glyph-17-1-038e3bb5" x="511.909342" y="114.804006"/>
</g>
<g fill="rgb(0%, 0%, 0%)" fill-opacity="1">
<use xlink:href="#glyph-17-2-038e3bb5" x="522.288005" y="114.804006"/>
</g>
<g fill="rgb(0%, 0%, 0%)" fill-opacity="1">
<use xlink:href="#glyph-17-3-038e3bb5" x="527.477336" y="114.804006"/>
</g>
<g fill="rgb(0%, 0%, 0%)" fill-opacity="1">
<use xlink:href="#glyph-17-4-038e3bb5" x="532.666667" y="114.804006"/>
</g>
<g fill="rgb(0%, 0%, 0%)" fill-opacity="1">
<use xlink:href="#glyph-17-5-038e3bb5" x="538.88265" y="114.804006"/>
</g>
<g fill="rgb(0%, 0%, 0%)" fill-opacity="1">
<use xlink:href="#glyph-17-6-038e3bb5" x="549.261312" y="114.804006"/>
</g>
<g fill="rgb(0%, 0%, 0%)" fill-opacity="1">
<use xlink:href="#glyph-17-7-038e3bb5" x="553.405355" y="114.804006"/>
</g>
<g fill="rgb(0%, 0%, 0%)" fill-opacity="1">
<use xlink:href="#glyph-17-8-038e3bb5" x="563.784017" y="114.804006"/>
</g>
<g fill="rgb(0%, 0%, 0%)" fill-opacity="1">
<use xlink:href="#glyph-17-3-038e3bb5" x="573.11735" y="114.804006"/>
</g>
<g fill="rgb(0%, 0%, 0%)" fill-opacity="1">
<use xlink:href="#glyph-17-9-038e3bb5" x="578.306681" y="114.804006"/>
</g>
<g fill="rgb(0%, 0%, 0%)" fill-opacity="1">
<use xlink:href="#glyph-17-4-038e3bb5" x="588.685343" y="114.804006"/>
</g>
<g fill="rgb(0%, 0%, 0%)" fill-opacity="1">
<use xlink:href="#glyph-17-10-038e3bb5" x="594.901326" y="114.804006"/>
</g>
<g fill="rgb(0%, 0%, 0%)" fill-opacity="1">
<use xlink:href="#glyph-17-7-038e3bb5" x="599.045369" y="114.804006"/>
</g>
<g fill="rgb(0%, 0%, 0%)" fill-opacity="1">
<use xlink:href="#glyph-17-11-038e3bb5" x="609.423991" y="114.804006"/>
</g>
<g fill="rgb(0%, 0%, 0%)" fill-opacity="1">
<use xlink:href="#glyph-18-0-038e3bb5" x="501.53064" y="145.470673"/>
</g>
<g fill="rgb(0%, 0%, 0%)" fill-opacity="1">
<use xlink:href="#glyph-18-1-038e3bb5" x="511.909342" y="145.470673"/>
</g>
<g fill="rgb(0%, 0%, 0%)" fill-opacity="1">
<use xlink:href="#glyph-18-1-038e3bb5" x="522.288005" y="145.470673"/>
</g>
<g fill="rgb(0%, 0%, 0%)" fill-opacity="1">
<use xlink:href="#glyph-18-2-038e3bb5" x="532.666667" y="145.470673"/>
</g>
<g fill="rgb(0%, 0%, 0%)" fill-opacity="1">
<use xlink:href="#glyph-18-3-038e3bb5" x="537.856038" y="145.470673"/>
</g>
<g fill="rgb(0%, 0%, 0%)" fill-opacity="1">
<use xlink:href="#glyph-19-0-038e3bb5" x="543.045329" y="145.470673"/>
</g>
<g fill="rgb(0%, 0%, 0%)" fill-opacity="1">
<use xlink:href="#glyph-18-4-038e3bb5" x="549.261312" y="145.470673"/>
</g>
<g fill="rgb(0%, 0%, 0%)" fill-opacity="1">
<use xlink:href="#glyph-18-5-038e3bb5" x="559.640015" y="145.470673"/>
</g>
<g fill="rgb(0%, 0%, 0%)" fill-opacity="1">
<use xlink:href="#glyph-18-6-038e3bb5" x="563.784017" y="145.470673"/>
</g>
<g fill="rgb(0%, 0%, 0%)" fill-opacity="1">
<use xlink:href="#glyph-18-7-038e3bb5" x="574.162638" y="145.470673"/>
</g>
<g fill="rgb(0%, 0%, 0%)" fill-opacity="1">
<use xlink:href="#glyph-18-3-038e3bb5" x="583.496012" y="145.470673"/>
</g>
<g fill="rgb(0%, 0%, 0%)" fill-opacity="1">
<use xlink:href="#glyph-18-8-038e3bb5" x="588.685343" y="145.470673"/>
</g>
<g fill="rgb(0%, 0%, 0%)" fill-opacity="1">
<use xlink:href="#glyph-18-9-038e3bb5" x="599.064006" y="145.470673"/>
</g>
<g fill="rgb(0%, 0%, 0%)" fill-opacity="1">
<use xlink:href="#glyph-18-10-038e3bb5" x="605.279989" y="145.470673"/>
</g>
<g fill="rgb(0%, 0%, 0%)" fill-opacity="1">
<use xlink:href="#glyph-18-6-038e3bb5" x="609.424032" y="145.470673"/>
</g>
<g fill="rgb(0%, 0%, 0%)" fill-opacity="1">
<use xlink:href="#glyph-20-0-038e3bb5" x="619.802694" y="145.470673"/>
</g>
<path fill="none" stroke-width="1" stroke-linecap="butt" stroke-linejoin="miter" stroke="rgb(0%, 0%, 0%)" stroke-opacity="1" stroke-miterlimit="1.154701" d="M 53.499023 291 L 484.5 291 " transform="matrix(1.333333, 0, 0, 1.333333, 0, 0)"/>
<path fill="none" stroke-width="1" stroke-linecap="butt" stroke-linejoin="miter" stroke="rgb(0%, 0%, 0%)" stroke-opacity="1" stroke-miterlimit="1.154701" d="M 54 291.500977 L 54 35.499023 " transform="matrix(1.333333, 0, 0, 1.333333, 0, 0)"/>
<path fill="none" stroke-width="1" stroke-linecap="butt" stroke-linejoin="miter" stroke="rgb(0%, 0%, 0%)" stroke-opacity="1" stroke-miterlimit="1.154701" d="M 53.499023 36 L 484.5 36 " transform="matrix(1.333333, 0, 0, 1.333333, 0, 0)"/>
<path fill="none" stroke-width="1" stroke-linecap="butt" stroke-linejoin="miter" stroke="rgb(0%, 0%, 0%)" stroke-opacity="1" stroke-miterlimit="1.154701" d="M 483.999023 291.500977 L 483.999023 35.499023 " transform="matrix(1.333333, 0, 0, 1.333333, 0, 0)"/>
</svg>
