<?xml version="1.0" encoding="UTF-8"?>
<svg xmlns="http://www.w3.org/2000/svg" xmlns:xlink="http://www.w3.org/1999/xlink" width="667" height="467" viewBox="0 0 667 467">
<defs>
<g>
<g id="glyph-0-0-51e1b6a2">
<path d="M 11.078125 -12.078125 C 11.078125 -12.078125 6.609375 -12.078125 6.609375 -12.078125 C 6.609375 -12.078125 6.609375 0 6.609375 0 C 6.609375 0 4.875 0 4.875 0 C 4.875 0 4.875 -12.078125 4.875 -12.078125 C 4.875 -12.078125 0.390625 -12.078125 0.390625 -12.078125 C 0.390625 -12.078125 0.390625 -13.609375 0.390625 -13.609375 C 0.390625 -13.609375 11.078125 -13.609375 11.078125 -13.609375 C 11.078125 -13.609375 11.078125 -12.078125 11.078125 -12.078125 Z M 11.078125 -12.078125 "/>
</g>
<g id="glyph-1-0-51e1b6a2">
<path d="M 2.859375 0 C 2.859375 0 1.3125 0 1.3125 0 C 1.3125 0 1.3125 -9.78125 1.3125 -9.78125 C 1.3125 -9.78125 2.859375 -9.78125 2.859375 -9.78125 C 2.859375 -9.78125 2.859375 0 2.859375 0 Z M 3.0625 -11.265625 C 3.0625 -11.265625 1.125 -11.265625 1.125 -11.265625 C 1.125 -11.265625 1.125 -13.203125 1.125 -13.203125 C 1.125 -13.203125 3.0625 -13.203125 3.0625 -13.203125 C 3.0625 -13.203125 3.0625 -11.265625 3.0625 -11.265625 Z M 3.0625 -11.265625 "/>
</g>
<g id="glyph-1-1-51e1b6a2">
<path d="M 14.1875 0 C 14.1875 0 12.640625 0 12.640625 0 C 12.640625 0 12.640625 -6.734375 12.640625 -6.734375 C 12.640625 -7.96875 11.984375 -8.703125 10.84375 -8.703125 C 9.578125 -8.703125 8.53125 -7.5625 8.53125 -6.140625 C 8.53125 -6.140625 8.53125 0 8.53125 0 C 8.53125 0 6.984375 0 6.984375 0 C 6.984375 0 6.984375 -6.734375 6.984375 -6.734375 C 6.984375 -7.984375 6.328125 -8.703125 5.171875 -8.703125 C 3.90625 -8.703125 2.875 -7.5625 2.875 -6.140625 C 2.875 -6.140625 2.875 0 2.875 0 C 2.875 0 1.328125 0 1.328125 0 C 1.328125 0 1.328125 -9.78125 1.328125 -9.78125 C 1.328125 -9.78125 2.75 -9.78125 2.75 -9.78125 C 2.75 -9.78125 2.75 -8.40625 2.75 -8.40625 C 3.578125 -9.578125 4.4375 -10.0625 5.75 -10.0625 C 7.015625 -10.0625 7.8125 -9.609375 8.390625 -8.578125 C 9.296875 -9.671875 10.078125 -10.0625 11.390625 -10.0625 C 13.21875 -10.0625 14.1875 -9.09375 14.1875 -7.34375 C 14.1875 -7.34375 14.1875 0 14.1875 0 Z M 14.1875 0 "/>
</g>
<g id="glyph-1-2-51e1b6a2">
<path d="M 9.578125 -4.4375 C 9.578125 -4.4375 2.375 -4.4375 2.375 -4.4375 C 2.40625 -2.203125 3.625 -1.15625 5.25 -1.15625 C 6.5 -1.15625 7.375 -1.6875 7.8125 -2.96875 C 7.8125 -2.96875 9.375 -2.96875 9.375 -2.96875 C 8.984375 -0.984375 7.4375 0.28125 5.1875 0.28125 C 2.453125 0.28125 0.75 -1.625 0.75 -4.84375 C 0.75 -8.046875 2.5 -10.0625 5.234375 -10.0625 C 7.0625 -10.0625 8.546875 -9.09375 9.1875 -7.484375 C 9.46875 -6.765625 9.578125 -5.859375 9.578125 -4.4375 Z M 7.921875 -5.828125 C 7.921875 -7.359375 6.734375 -8.625 5.203125 -8.625 C 3.640625 -8.625 2.546875 -7.453125 2.40625 -5.71875 C 2.40625 -5.71875 7.890625 -5.71875 7.890625 -5.71875 C 7.921875 -5.75 7.921875 -5.828125 7.921875 -5.828125 Z M 7.921875 -5.828125 "/>
</g>
<g id="glyph-1-3-51e1b6a2">
<path d="M 9.46875 -6.359375 C 9.46875 -2.015625 7.9375 0.28125 5.140625 0.28125 C 2.296875 0.28125 0.796875 -2.015625 0.796875 -6.484375 C 0.796875 -10.921875 2.28125 -13.234375 5.140625 -13.234375 C 8.015625 -13.234375 9.46875 -10.953125 9.46875 -6.359375 Z M 7.78125 -6.515625 C 7.78125 -10.0625 6.90625 -11.78125 5.140625 -11.78125 C 3.359375 -11.78125 2.484375 -10.078125 2.484375 -6.453125 C 2.484375 -2.84375 3.359375 -1.078125 5.09375 -1.078125 C 6.921875 -1.078125 7.78125 -2.765625 7.78125 -6.515625 Z M 7.78125 -6.515625 "/>
</g>
<g id="glyph-1-4-51e1b6a2">
<path d="M 3.5625 0 C 3.5625 0 1.625 0 1.625 0 C 1.625 0 1.625 -1.9375 1.625 -1.9375 C 1.625 -1.9375 3.5625 -1.9375 3.5625 -1.9375 C 3.5625 -1.9375 3.5625 0 3.5625 0 Z M 3.5625 0 "/>
</g>
<g id="glyph-1-5-51e1b6a2">
<path d="M 9.578125 -4.390625 C 9.578125 -1.59375 7.71875 0.28125 5.046875 0.28125 C 2.6875 0.28125 1.1875 -0.765625 0.65625 -3.390625 C 0.65625 -3.390625 2.296875 -3.390625 2.296875 -3.390625 C 2.6875 -1.90625 3.5625 -1.171875 5 -1.171875 C 6.796875 -1.171875 7.890625 -2.265625 7.890625 -4.15625 C 7.890625 -6.125 6.78125 -7.265625 5 -7.265625 C 3.984375 -7.265625 3.34375 -6.953125 2.578125 -6.03125 C 2.578125 -6.03125 1.0625 -6.03125 1.0625 -6.03125 C 1.0625 -6.03125 2.046875 -12.953125 2.046875 -12.953125 C 2.046875 -12.953125 8.890625 -12.953125 8.890625 -12.953125 C 8.890625 -12.953125 8.890625 -11.328125 8.890625 -11.328125 C 8.890625 -11.328125 3.375 -11.328125 3.375 -11.328125 C 3.375 -11.328125 2.859375 -7.921875 2.859375 -7.921875 C 3.625 -8.484375 4.375 -8.71875 5.296875 -8.71875 C 7.84375 -8.71875 9.578125 -7 9.578125 -4.390625 Z M 9.578125 -4.390625 "/>
</g>
<g id="glyph-1-6-51e1b6a2">
<path d="M 6.484375 0 C 6.484375 0 4.84375 0 4.84375 0 C 4.84375 0 4.84375 -9.421875 4.84375 -9.421875 C 4.84375 -9.421875 1.90625 -9.421875 1.90625 -9.421875 C 1.90625 -9.421875 1.90625 -10.609375 1.90625 -10.609375 C 4.4375 -10.921875 4.8125 -11.203125 5.390625 -13.234375 C 5.390625 -13.234375 6.484375 -13.234375 6.484375 -13.234375 C 6.484375 -13.234375 6.484375 0 6.484375 0 Z M 6.484375 0 "/>
</g>
<g id="glyph-1-7-51e1b6a2">
<path d="M 9.546875 -9.359375 C 9.546875 -7.734375 8.59375 -6.34375 6.734375 -5.359375 C 6.734375 -5.359375 4.875 -4.34375 4.875 -4.34375 C 3.25 -3.390625 2.65625 -2.703125 2.484375 -1.625 C 2.484375 -1.625 9.453125 -1.625 9.453125 -1.625 C 9.453125 -1.625 9.453125 0 9.453125 0 C 9.453125 0 0.640625 0 0.640625 0 C 0.78125 -2.90625 1.59375 -4.15625 4.34375 -5.734375 C 4.34375 -5.734375 6.0625 -6.703125 6.0625 -6.703125 C 7.25 -7.375 7.859375 -8.265625 7.859375 -9.3125 C 7.859375 -10.734375 6.734375 -11.796875 5.25 -11.796875 C 3.625 -11.796875 2.703125 -10.859375 2.578125 -8.640625 C 2.578125 -8.640625 0.9375 -8.640625 0.9375 -8.640625 C 1.03125 -11.859375 2.59375 -13.234375 5.296875 -13.234375 C 7.8125 -13.234375 9.546875 -11.59375 9.546875 -9.359375 Z M 9.546875 -9.359375 "/>
</g>
<g id="glyph-1-8-51e1b6a2">
<path d="M 9.453125 -3.84375 C 9.453125 -1.34375 7.6875 0.28125 4.96875 0.28125 C 2.265625 0.28125 0.796875 -1.046875 0.59375 -4 C 0.59375 -4 2.234375 -4 2.234375 -4 C 2.359375 -2.078125 3.234375 -1.171875 5.015625 -1.171875 C 6.734375 -1.171875 7.765625 -2.171875 7.765625 -3.828125 C 7.765625 -5.296875 6.828125 -6.15625 5.015625 -6.15625 C 5.015625 -6.15625 4.125 -6.15625 4.125 -6.15625 C 4.125 -6.15625 4.125 -7.546875 4.125 -7.546875 C 6.765625 -7.546875 7.375 -8.125 7.375 -9.546875 C 7.375 -10.9375 6.5 -11.796875 5.046875 -11.796875 C 3.359375 -11.796875 2.5625 -10.921875 2.515625 -8.96875 C 2.515625 -8.96875 0.875 -8.96875 0.875 -8.96875 C 0.9375 -11.78125 2.359375 -13.234375 5.015625 -13.234375 C 7.546875 -13.234375 9.0625 -11.875 9.0625 -9.59375 C 9.0625 -8.265625 8.4375 -7.40625 7.203125 -6.921875 C 8.796875 -6.390625 9.453125 -5.453125 9.453125 -3.84375 Z M 9.453125 -3.84375 "/>
</g>
<g id="glyph-2-0-51e1b6a2">
<path d="M 9.46875 -6.359375 C 9.46875 -2.015625 7.9375 0.28125 5.140625 0.28125 C 2.296875 0.28125 0.796875 -2.015625 0.796875 -6.484375 C 0.796875 -10.921875 2.28125 -13.234375 5.140625 -13.234375 C 8.015625 -13.234375 9.46875 -10.953125 9.46875 -6.359375 Z M 7.78125 -6.515625 C 7.78125 -10.0625 6.90625 -11.78125 5.140625 -11.78125 C 3.359375 -11.78125 2.484375 -10.078125 2.484375 -6.453125 C 2.484375 -2.84375 3.359375 -1.078125 5.09375 -1.078125 C 6.921875 -1.078125 7.78125 -2.765625 7.78125 -6.515625 Z M 7.78125 -6.515625 "/>
</g>
<g id="glyph-3-0-51e1b6a2">
<path d="M 3.5625 0 C 3.5625 0 1.625 0 1.625 0 C 1.625 0 1.625 -1.9375 1.625 -1.9375 C 1.625 -1.9375 3.5625 -1.9375 3.5625 -1.9375 C 3.5625 -1.9375 3.5625 0 3.5625 0 Z M 3.5625 0 "/>
</g>
<g id="glyph-4-0-51e1b6a2">
<path d="M 9.46875 -6.359375 C 9.46875 -2.015625 7.9375 0.28125 5.140625 0.28125 C 2.296875 0.28125 0.796875 -2.015625 0.796875 -6.484375 C 0.796875 -10.921875 2.28125 -13.234375 5.140625 -13.234375 C 8.015625 -13.234375 9.46875 -10.953125 9.46875 -6.359375 Z M 7.78125 -6.515625 C 7.78125 -10.0625 6.90625 -11.78125 5.140625 -11.78125 C 3.359375 -11.78125 2.484375 -10.078125 2.484375 -6.453125 C 2.484375 -2.84375 3.359375 -1.078125 5.09375 -1.078125 C 6.921875 -1.078125 7.78125 -2.765625 7.78125 -6.515625 Z M 7.78125 -6.515625 "/>
</g>
<g id="glyph-5-0-51e1b6a2">
<path d="M 9.46875 -6.359375 C 9.46875 -2.015625 7.9375 0.28125 5.140625 0.28125 C 2.296875 0.28125 0.796875 -2.015625 0.796875 -6.484375 C 0.796875 -10.921875 2.28125 -13.234375 5.140625 -13.234375 C 8.015625 -13.234375 9.46875 -10.953125 9.46875 -6.359375 Z M 7.78125 -6.515625 C 7.78125 -10.0625 6.90625 -11.78125 5.140625 -11.78125 C 3.359375 -11.78125 2.484375 -10.078125 2.484375 -6.453125 C 2.484375 -2.84375 3.359375 -1.078125 5.09375 -1.078125 C 6.921875 -1.078125 7.78125 -2.765625 7.78125 -6.515625 Z M 7.78125 -6.515625 "/>
</g>
<g id="glyph-6-0-51e1b6a2">
<path d="M 9.703125 -3.171875 C 9.703125 -3.171875 7.75 -3.171875 7.75 -3.171875 C 7.75 -3.171875 7.75 0 7.75 0 C 7.75 0 6.109375 0 6.109375 0 C 6.109375 0 6.109375 -3.171875 6.109375 -3.171875 C 6.109375 -3.171875 0.515625 -3.171875 0.515625 -3.171875 C 0.515625 -3.171875 0.515625 -4.90625 0.515625 -4.90625 C 0.515625 -4.90625 6.53125 -13.234375 6.53125 -13.234375 C 6.53125 -13.234375 7.75 -13.234375 7.75 -13.234375 C 7.75 -13.234375 7.75 -4.65625 7.75 -4.65625 C 7.75 -4.65625 9.703125 -4.65625 9.703125 -4.65625 C 9.703125 -4.65625 9.703125 -3.171875 9.703125 -3.171875 Z M 6.109375 -4.65625 C 6.109375 -4.65625 6.109375 -10.4375 6.109375 -10.4375 C 6.109375 -10.4375 1.953125 -4.65625 1.953125 -4.65625 C 1.953125 -4.65625 6.109375 -4.65625 6.109375 -4.65625 Z M 6.109375 -4.65625 "/>
</g>
<g id="glyph-7-0-51e1b6a2">
<path d="M 9.46875 -6.359375 C 9.46875 -2.015625 7.9375 0.28125 5.140625 0.28125 C 2.296875 0.28125 0.796875 -2.015625 0.796875 -6.484375 C 0.796875 -10.921875 2.28125 -13.234375 5.140625 -13.234375 C 8.015625 -13.234375 9.46875 -10.953125 9.46875 -6.359375 Z M 7.78125 -6.515625 C 7.78125 -10.0625 6.90625 -11.78125 5.140625 -11.78125 C 3.359375 -11.78125 2.484375 -10.078125 2.484375 -6.453125 C 2.484375 -2.84375 3.359375 -1.078125 5.09375 -1.078125 C 6.921875 -1.078125 7.78125 -2.765625 7.78125 -6.515625 Z M 7.78125 -6.515625 "/>
</g>
<g id="glyph-8-0-51e1b6a2">
<path d="M 11.609375 -12.53125 C 11.609375 -12.703125 11.5 -12.75 11.359375 -12.75 C 10.734375 -12.75 10.0625 -12.703125 9.421875 -12.703125 C 8.59375 -12.703125 7.71875 -12.75 6.890625 -12.75 C 6.71875 -12.75 6.5 -12.75 6.5 -12.390625 C 6.5 -12.171875 6.671875 -12.171875 6.96875 -12.171875 L 7.1875 -12.171875 C 7.5 -12.171875 7.71875 -12.171875 8.046875 -12.140625 C 8.453125 -12.078125 8.609375 -12.0625 8.609375 -11.78125 C 8.609375 -11.703125 8.609375 -11.671875 8.53125 -11.40625 L 6.359375 -2.703125 C 6.015625 -1.3125 4.953125 0 3.921875 0 C 3.15625 0 2.5 -0.46875 2.359375 -1.234375 C 2.390625 -1.21875 2.421875 -1.21875 2.5625 -1.21875 C 3.265625 -1.21875 3.671875 -1.84375 3.671875 -2.3125 C 3.671875 -2.796875 3.3125 -3.046875 2.90625 -3.046875 C 2.859375 -3.046875 1.75 -3.046875 1.75 -1.609375 C 1.75 -0.34375 2.765625 0.40625 3.953125 0.40625 C 5.71875 0.40625 7.4375 -0.984375 7.84375 -2.6875 L 10.03125 -11.5 C 10.15625 -12.03125 10.28125 -12.171875 11.125 -12.171875 C 11.40625 -12.171875 11.609375 -12.171875 11.609375 -12.53125 Z M 11.609375 -12.53125 "/>
</g>
<g id="glyph-8-1-51e1b6a2">
<path d="M 9.109375 -2.671875 C 9.109375 -2.859375 8.96875 -2.859375 8.828125 -2.859375 C 8.609375 -2.859375 8.59375 -2.84375 8.5 -2.546875 C 7.984375 -0.9375 7.0625 -0.203125 6.28125 -0.203125 C 5.90625 -0.203125 5.390625 -0.421875 5.390625 -1.40625 C 5.390625 -1.84375 5.609375 -2.65625 5.75 -3.28125 L 6.390625 -5.84375 C 6.640625 -6.8125 7.15625 -7.84375 8.03125 -7.84375 C 8.078125 -7.84375 8.546875 -7.84375 8.84375 -7.578125 C 8.109375 -7.390625 8.109375 -6.6875 8.109375 -6.6875 C 8.109375 -6.4375 8.265625 -6.09375 8.75 -6.09375 C 9.09375 -6.09375 9.671875 -6.34375 9.671875 -7.078125 C 9.671875 -8.03125 8.59375 -8.25 8.046875 -8.25 C 7.015625 -8.25 6.40625 -7.34375 6.21875 -6.984375 C 5.8125 -8.109375 4.890625 -8.25 4.421875 -8.25 C 2.5625 -8.25 1.546875 -5.8125 1.546875 -5.375 C 1.546875 -5.1875 1.734375 -5.1875 1.828125 -5.1875 C 2.078125 -5.1875 2.078125 -5.203125 2.171875 -5.515625 C 2.671875 -7.109375 3.640625 -7.84375 4.390625 -7.84375 C 4.921875 -7.84375 5.28125 -7.40625 5.28125 -6.671875 C 5.28125 -6.21875 5.0625 -5.296875 4.890625 -4.609375 L 4.46875 -2.90625 C 4.15625 -1.703125 3.765625 -0.203125 2.65625 -0.203125 C 2.59375 -0.203125 2.140625 -0.203125 1.828125 -0.46875 C 2.390625 -0.609375 2.5625 -1.078125 2.5625 -1.359375 C 2.5625 -1.84375 2.171875 -1.953125 1.921875 -1.953125 C 1.453125 -1.953125 0.984375 -1.5625 0.984375 -0.953125 C 0.984375 -0.21875 1.78125 0.203125 2.625 0.203125 C 3.53125 0.203125 4.140625 -0.5 4.46875 -1.0625 C 4.84375 0 5.75 0.203125 6.234375 0.203125 C 8.15625 0.203125 9.109375 -2.296875 9.109375 -2.671875 Z M 9.109375 -2.671875 "/>
</g>
<g id="glyph-9-0-51e1b6a2">
<path d="M 5.46875 -1.609375 C 5.46875 -1.71875 5.375 -1.71875 5.296875 -1.71875 C 5.171875 -1.71875 5.15625 -1.703125 5.09375 -1.53125 C 4.796875 -0.5625 4.234375 -0.125 3.765625 -0.125 C 3.546875 -0.125 3.234375 -0.25 3.234375 -0.84375 C 3.234375 -1.109375 3.359375 -1.59375 3.453125 -1.96875 L 3.828125 -3.5 C 3.984375 -4.09375 4.296875 -4.703125 4.8125 -4.703125 C 4.84375 -4.703125 5.125 -4.703125 5.3125 -4.546875 C 4.859375 -4.4375 4.859375 -4.015625 4.859375 -4.015625 C 4.859375 -3.859375 4.96875 -3.65625 5.25 -3.65625 C 5.453125 -3.65625 5.796875 -3.8125 5.796875 -4.25 C 5.796875 -4.8125 5.15625 -4.953125 4.828125 -4.953125 C 4.21875 -4.953125 3.84375 -4.40625 3.734375 -4.1875 C 3.484375 -4.859375 2.9375 -4.953125 2.65625 -4.953125 C 1.53125 -4.953125 0.9375 -3.484375 0.9375 -3.21875 C 0.9375 -3.109375 1.046875 -3.109375 1.09375 -3.109375 C 1.25 -3.109375 1.25 -3.125 1.296875 -3.3125 C 1.609375 -4.265625 2.1875 -4.703125 2.625 -4.703125 C 2.953125 -4.703125 3.171875 -4.453125 3.171875 -4 C 3.171875 -3.734375 3.03125 -3.1875 2.9375 -2.765625 L 2.671875 -1.75 C 2.5 -1.015625 2.265625 -0.125 1.59375 -0.125 C 1.5625 -0.125 1.28125 -0.125 1.09375 -0.28125 C 1.4375 -0.375 1.53125 -0.65625 1.53125 -0.8125 C 1.53125 -1.109375 1.296875 -1.171875 1.15625 -1.171875 C 0.875 -1.171875 0.59375 -0.9375 0.59375 -0.578125 C 0.59375 -0.140625 1.0625 0.125 1.578125 0.125 C 2.125 0.125 2.484375 -0.296875 2.671875 -0.640625 C 2.90625 0 3.453125 0.125 3.734375 0.125 C 4.890625 0.125 5.46875 -1.375 5.46875 -1.609375 Z M 5.46875 -1.609375 "/>
</g>
<g id="glyph-10-0-51e1b6a2">
<path d="M 6.28125 4.296875 C 6.28125 4.234375 6.28125 4.203125 6.25 4.15625 L 2.8125 -4.671875 L 6.25 -13.5 C 6.28125 -13.53125 6.28125 -13.578125 6.28125 -13.625 C 6.28125 -13.84375 6.109375 -14 5.90625 -14 C 5.75 -14 5.609375 -13.90625 5.546875 -13.765625 L 2.078125 -4.796875 C 2.046875 -4.765625 2.046875 -4.71875 2.046875 -4.671875 C 2.046875 -4.609375 2.046875 -4.578125 2.078125 -4.53125 L 5.546875 4.421875 C 5.609375 4.578125 5.75 4.671875 5.90625 4.671875 C 6.109375 4.671875 6.28125 4.5 6.28125 4.296875 Z M 6.28125 4.296875 "/>
</g>
<g id="glyph-10-1-51e1b6a2">
<path d="M 5.1875 -4.796875 L 1.71875 -13.765625 C 1.65625 -13.90625 1.515625 -14 1.359375 -14 C 1.15625 -14 0.984375 -13.84375 0.984375 -13.625 C 0.984375 -13.578125 0.984375 -13.53125 1.015625 -13.5 L 4.4375 -4.671875 L 1.015625 4.15625 C 0.984375 4.203125 0.984375 4.234375 0.984375 4.296875 C 0.984375 4.5 1.15625 4.671875 1.359375 4.671875 C 1.515625 4.671875 1.65625 4.578125 1.71875 4.421875 L 5.1875 -4.53125 C 5.203125 -4.578125 5.203125 -4.609375 5.203125 -4.671875 C 5.203125 -4.71875 5.203125 -4.765625 5.1875 -4.796875 Z M 5.1875 -4.796875 "/>
</g>
</g>
</defs>
<path fill-rule="nonzero" fill="rgb(100%, 100%, 100%)" fill-opacity="1" d="M 0 0 L 666.667969 0 L 666.667969 466.667969 L 0 466.667969 Z M 0 0 "/>
<path fill-rule="nonzero" fill="rgb(100%, 100%, 100%)" fill-opacity="1" d="M 54.667969 388 L 645.335938 388 L 645.335938 21.332031 L 54.667969 21.332031 Z M 54.667969 388 "/>
<path fill="none" stroke-width="1" stroke-linecap="butt" stroke-linejoin="miter" stroke="rgb(0%, 0%, 0%)" stroke-opacity="0.12" stroke-miterlimit="1.154701" d="M 61.136719 291 L 61.136719 15.999023 " transform="matrix(1.333333, 0, 0, 1.333333, 0, 0)"/>
<path fill="none" stroke-width="1" stroke-linecap="butt" stroke-linejoin="miter" stroke="rgb(0%, 0%, 0%)" stroke-opacity="0.12" stroke-miterlimit="1.154701" d="M 262.5 291 L 262.5 15.999023 " transform="matrix(1.333333, 0, 0, 1.333333, 0, 0)"/>
<path fill="none" stroke-width="1" stroke-linecap="butt" stroke-linejoin="miter" stroke="rgb(0%, 0%, 0%)" stroke-opacity="0.12" stroke-miterlimit="1.154701" d="M 463.863281 291 L 463.863281 15.999023 " transform="matrix(1.333333, 0, 0, 1.333333, 0, 0)"/>
<path fill="none" stroke-width="1" stroke-linecap="butt" stroke-linejoin="miter" stroke="rgb(0%, 0%, 0%)" stroke-opacity="0.12" stroke-miterlimit="1.154701" d="M 41.000977 250.12793 L 483.999023 250.12793 " transform="matrix(1.333333, 0, 0, 1.333333, 0, 0)"/>
<path fill="none" stroke-width="1" stroke-linecap="butt" stroke-linejoin="miter" stroke="rgb(0%, 0%, 0%)" stroke-opacity="0.12" stroke-miterlimit="1.154701" d="M 41.000977 200.496094 L 483.999023 200.496094 " transform="matrix(1.333333, 0, 0, 1.333333, 0, 0)"/>
<path fill="none" stroke-width="1" stroke-linecap="butt" stroke-linejoin="miter" stroke="rgb(0%, 0%, 0%)" stroke-opacity="0.12" stroke-miterlimit="1.154701" d="M 41.000977 150.861328 L 483.999023 150.861328 " transform="matrix(1.333333, 0, 0, 1.333333, 0, 0)"/>
<path fill="none" stroke-width="1" stroke-linecap="butt" stroke-linejoin="miter" stroke="rgb(0%, 0%, 0%)" stroke-opacity="0.12" stroke-miterlimit="1.154701" d="M 41.000977 101.229492 L 483.999023 101.229492 " transform="matrix(1.333333, 0, 0, 1.333333, 0, 0)"/>
<path fill="none" stroke-width="1" stroke-linecap="butt" stroke-linejoin="miter" stroke="rgb(0%, 0%, 0%)" stroke-opacity="0.12" stroke-miterlimit="1.154701" d="M 41.000977 51.597656 L 483.999023 51.597656 " transform="matrix(1.333333, 0, 0, 1.333333, 0, 0)"/>
<g fill="rgb(0%, 0%, 0%)" fill-opacity="1">
<use xlink:href="#glyph-0-0-51e1b6a2" x="329.261349" y="442.090667"/>
</g>
<g fill="rgb(0%, 0%, 0%)" fill-opacity="1">
<use xlink:href="#glyph-1-0-51e1b6a2" x="340.666683" y="442.090667"/>
<use xlink:href="#glyph-1-1-51e1b6a2" x="344.810683" y="442.090667"/>
<use xlink:href="#glyph-1-2-51e1b6a2" x="360.360016" y="442.090667"/>
</g>
<g fill="rgb(0%, 0%, 0%)" fill-opacity="1">
<use xlink:href="#glyph-2-0-51e1b6a2" x="68.541823" y="416.344001"/>
</g>
<g fill="rgb(0%, 0%, 0%)" fill-opacity="1">
<use xlink:href="#glyph-3-0-51e1b6a2" x="78.92049" y="416.344001"/>
</g>
<g fill="rgb(0%, 0%, 0%)" fill-opacity="1">
<use xlink:href="#glyph-2-0-51e1b6a2" x="84.109823" y="416.344001"/>
</g>
<g fill="rgb(0%, 0%, 0%)" fill-opacity="1">
<use xlink:href="#glyph-1-3-51e1b6a2" x="337.026683" y="416.344001"/>
<use xlink:href="#glyph-1-4-51e1b6a2" x="347.40535" y="416.344001"/>
<use xlink:href="#glyph-1-5-51e1b6a2" x="352.594684" y="416.344001"/>
</g>
<g fill="rgb(0%, 0%, 0%)" fill-opacity="1">
<use xlink:href="#glyph-1-6-51e1b6a2" x="605.511559" y="416.344001"/>
<use xlink:href="#glyph-1-4-51e1b6a2" x="615.890226" y="416.344001"/>
<use xlink:href="#glyph-1-3-51e1b6a2" x="621.07956" y="416.344001"/>
</g>
<g fill="rgb(0%, 0%, 0%)" fill-opacity="1">
<use xlink:href="#glyph-4-0-51e1b6a2" x="30.954668" y="340.30683"/>
</g>
<g fill="rgb(0%, 0%, 0%)" fill-opacity="1">
<use xlink:href="#glyph-1-6-51e1b6a2" x="20.576001" y="274.130296"/>
</g>
<g fill="rgb(0%, 0%, 0%)" fill-opacity="1">
<use xlink:href="#glyph-5-0-51e1b6a2" x="30.954668" y="274.130296"/>
</g>
<g fill="rgb(0%, 0%, 0%)" fill-opacity="1">
<use xlink:href="#glyph-1-7-51e1b6a2" x="20.576001" y="207.953743"/>
</g>
<g fill="rgb(0%, 0%, 0%)" fill-opacity="1">
<use xlink:href="#glyph-5-0-51e1b6a2" x="30.954668" y="207.953743"/>
</g>
<g fill="rgb(0%, 0%, 0%)" fill-opacity="1">
<use xlink:href="#glyph-1-8-51e1b6a2" x="20.576001" y="141.777209"/>
</g>
<g fill="rgb(0%, 0%, 0%)" fill-opacity="1">
<use xlink:href="#glyph-5-0-51e1b6a2" x="30.954668" y="141.777209"/>
</g>
<g fill="rgb(0%, 0%, 0%)" fill-opacity="1">
<use xlink:href="#glyph-6-0-51e1b6a2" x="20.576001" y="75.600676"/>
</g>
<g fill="rgb(0%, 0%, 0%)" fill-opacity="1">
<use xlink:href="#glyph-7-0-51e1b6a2" x="30.954668" y="75.600676"/>
</g>
<path fill="none" stroke-width="1.5" stroke-linecap="butt" stroke-linejoin="miter" stroke="rgb(100%, 0%, 0%)" stroke-opacity="1" stroke-miterlimit="2" d="M 61.136719 28.5 L 62.144531 212.507812 L 63.149414 221.613281 L 64.157227 222.380859 L 65.165039 223.145508 L 66.169922 229.473633 L 67.177734 222.09668 L 68.182617 223.740234 L 69.19043 223.347656 L 70.198242 229.303711 L 71.203125 232.432617 L 72.210938 234.928711 L 73.21875 244.898438 L 74.223633 236.334961 L 75.231445 251.619141 L 76.239258 239.750977 L 77.244141 248.112305 L 78.251953 244.959961 L 79.259766 246.076172 L 80.264648 249.963867 L 81.272461 244.998047 L 82.280273 249.553711 L 83.285156 256.751953 L 84.292969 262.807617 L 85.300781 262.286133 L 86.305664 256.772461 L 87.313477 273.916992 L 88.321289 262.482422 L 89.326172 270.533203 L 90.333984 271.321289 L 91.341797 264.647461 L 92.34668 265.825195 L 93.354492 273.755859 L 94.362305 271.637695 L 95.367188 268.78418 L 96.375 266.947266 L 97.382812 274.467773 L 98.387695 271.819336 L 99.395508 274.139648 L 100.40332 278.499023 L 101.408203 276.251953 L 102.416016 273.035156 L 103.423828 275.487305 L 104.428711 276.849609 L 105.436523 276.342773 L 106.444336 269.724609 L 107.449219 265.368164 L 108.457031 273.442383 L 109.464844 270.577148 L 110.469727 269.493164 L 111.477539 265.5 L 112.485352 256.672852 L 113.490234 265.040039 L 114.498047 267.084961 L 115.505859 261.832031 L 116.510742 259.939453 L 117.518555 257.15332 L 118.526367 244.5 L 119.53125 250.426758 L 120.539062 258.380859 L 121.546875 248.097656 L 122.551758 254.956055 L 123.55957 240.336914 L 124.564453 245.384766 L 125.572266 249.591797 L 126.580078 238.078125 L 127.584961 237.629883 L 128.592773 246.574219 L 129.600586 228.413086 L 130.605469 243.09082 L 131.613281 233.039062 L 132.621094 232.555664 L 133.625977 233.560547 L 134.633789 229.702148 L 135.641602 231.067383 L 136.646484 228.890625 L 137.654297 232.03125 L 138.662109 223.183594 L 139.666992 225.123047 L 140.674805 234.451172 L 141.682617 226.587891 L 142.6875 227.291016 L 143.695312 234.313477 L 144.703125 231.916992 L 145.708008 229.880859 L 146.71582 233.513672 L 147.723633 233.803711 L 148.728516 229.236328 L 149.736328 238.710938 L 150.744141 224.282227 L 151.749023 232.570312 L 152.756836 237.474609 L 153.764648 237.178711 L 154.769531 231.357422 L 155.777344 239.296875 L 156.785156 247.338867 L 157.790039 247.576172 L 158.797852 245.478516 L 159.805664 254.041992 L 160.810547 246.744141 L 161.818359 256.722656 L 162.826172 250.157227 L 163.831055 254.194336 L 164.838867 255.837891 L 165.84668 262.283203 L 166.851562 263.712891 L 167.859375 264.269531 L 168.867188 259.933594 L 169.87207 261.489258 L 170.879883 266.150391 L 171.887695 262.242188 L 172.892578 268.394531 L 173.900391 264.905273 L 174.908203 269.712891 L 175.913086 266.604492 L 176.920898 268.268555 L 177.925781 271.790039 L 178.933594 267.635742 L 179.941406 275.888672 L 180.946289 272.015625 L 181.954102 271.042969 L 182.961914 263.982422 L 183.966797 271.227539 L 184.974609 268.822266 L 185.982422 267.615234 L 186.987305 270.864258 L 187.995117 261.706055 L 189.00293 268.831055 L 190.007812 267.981445 L 191.015625 265.139648 L 192.023438 260.712891 L 193.02832 256.664062 L 194.036133 260.929688 L 195.043945 265.435547 L 196.048828 258.952148 L 197.056641 262.019531 L 198.064453 258.424805 L 199.069336 252.711914 L 200.077148 242.302734 L 201.084961 248.947266 L 202.089844 243.837891 L 203.097656 240.348633 L 204.105469 246.978516 L 205.110352 239.915039 L 206.118164 242.941406 L 207.125977 241.400391 L 208.130859 235.669922 L 209.138672 236.296875 L 210.146484 239.835938 L 211.151367 232.101562 L 212.15918 233.083008 L 213.166992 233.422852 L 214.171875 231.354492 L 215.179688 233.039062 L 216.1875 234.161133 L 217.192383 233.578125 L 218.200195 235.412109 L 219.208008 227.208984 L 220.212891 231.351562 L 221.220703 229.87793 L 222.228516 237.629883 L 223.233398 234.676758 L 224.241211 223.959961 L 225.249023 239.056641 L 226.253906 233.932617 L 227.261719 233.097656 L 228.269531 236.501953 L 229.274414 241.719727 L 230.282227 236.15625 L 231.290039 238.365234 L 232.294922 236.666016 L 233.302734 233.305664 L 234.307617 239.865234 L 235.31543 238.233398 L 236.323242 241.250977 L 237.328125 248.519531 L 238.335938 247.541016 L 239.34375 246.029297 L 240.348633 250.098633 L 241.356445 247.198242 L 242.364258 247.948242 L 243.369141 253.177734 L 244.376953 262.171875 L 245.384766 257.794922 L 246.389648 255.966797 L 247.397461 260.557617 L 248.405273 259.734375 L 249.410156 255.890625 L 250.417969 260.645508 L 251.425781 260.856445 L 252.430664 262.171875 L 253.438477 266.273438 L 254.446289 253.678711 L 255.451172 269.261719 L 256.458984 267.922852 L 257.466797 268.734375 L 258.47168 266.71875 L 259.479492 265.060547 L 260.487305 262.004883 L 261.492188 265.716797 L 262.5 271.913086 L 263.507812 268.787109 L 264.512695 264.679688 L 265.520508 262.306641 L 266.52832 263.402344 L 267.533203 259.910156 L 268.541016 261.75293 L 269.548828 262.078125 L 270.553711 260.619141 L 271.561523 277.570312 L 272.569336 263.53125 L 273.574219 256.699219 L 274.582031 260.692383 L 275.589844 258.336914 L 276.594727 253.280273 L 277.602539 251.671875 L 278.610352 256.523438 L 279.615234 258.28125 L 280.623047 247.186523 L 281.630859 255.694336 L 282.635742 249.28125 L 283.643555 244.813477 L 284.651367 245.367188 L 285.65625 240.477539 L 286.664062 242.507812 L 287.671875 242.165039 L 288.676758 242.264648 L 289.68457 241.769531 L 290.689453 238.889648 L 291.697266 235.447266 L 292.705078 236.958984 L 293.709961 241.227539 L 294.717773 230.90918 L 295.725586 234.591797 L 296.730469 236.915039 L 297.738281 231.389648 L 298.746094 233.727539 L 299.750977 234.796875 L 300.758789 235.798828 L 301.766602 233.402344 L 302.771484 225.336914 L 303.779297 229.787109 L 304.787109 233.537109 L 305.791992 237.260742 L 306.799805 232.239258 L 307.807617 232.30957 L 308.8125 231.928711 L 309.820312 236.630859 L 310.828125 238.470703 L 311.833008 241.710938 L 312.84082 238.769531 L 313.848633 241.22168 L 314.853516 248.645508 L 315.861328 244.980469 L 316.869141 245.358398 L 317.874023 240.316406 L 318.881836 245.399414 L 319.889648 246.357422 L 320.894531 242.868164 L 321.902344 241.130859 L 322.910156 252.958008 L 323.915039 249.087891 L 324.922852 257.762695 L 325.930664 258.591797 L 326.935547 257.15332 L 327.943359 247.517578 L 328.951172 260.381836 L 329.956055 254.056641 L 330.963867 257.862305 L 331.97168 263.326172 L 332.976562 255.779297 L 333.984375 263.261719 L 334.992188 258.304688 L 335.99707 256.725586 L 337.004883 256.883789 L 338.012695 261.615234 L 339.017578 267.694336 L 340.025391 261.489258 L 341.033203 264.776367 L 342.038086 264.152344 L 343.045898 267.172852 L 344.050781 265.50293 L 345.058594 263.926758 L 346.066406 272.15918 L 347.071289 266.926758 L 348.079102 263.314453 L 349.086914 264.125977 L 350.091797 262.921875 L 351.099609 250.374023 L 352.107422 257.411133 L 353.112305 255.008789 L 354.120117 266.786133 L 355.12793 252.553711 L 356.132812 251.654297 L 357.140625 255.987305 L 358.148438 252.509766 L 359.15332 251.739258 L 360.161133 251.264648 L 361.168945 246.744141 L 362.173828 253.78125 L 363.181641 251.736328 L 364.189453 251.683594 L 365.194336 254.513672 L 366.202148 240.474609 L 367.209961 247.382812 L 368.214844 248.311523 L 369.222656 251.074219 L 370.230469 249.325195 L 371.235352 240.638672 L 372.243164 235.737305 L 373.250977 241.936523 L 374.255859 234.131836 L 375.263672 236.317383 L 376.271484 235.672852 L 377.276367 235.918945 L 378.28418 235.857422 L 379.291992 242.625 L 380.296875 235.898438 L 381.304688 234.427734 L 382.3125 243.47168 L 383.317383 242.396484 L 384.325195 231.061523 L 385.333008 238.514648 L 386.337891 237.521484 L 387.345703 240.694336 L 388.353516 237.530273 L 389.358398 234.577148 L 390.366211 250.02832 L 391.374023 242.569336 L 392.378906 237.767578 L 393.386719 236.091797 L 394.394531 238.579102 L 395.399414 245.147461 L 396.407227 245.516602 L 397.415039 251.43457 L 398.419922 241.166016 L 399.427734 240.858398 L 400.432617 238.060547 L 401.44043 253.842773 L 402.448242 256.168945 L 403.453125 249.064453 L 404.460938 253.02832 L 405.46875 247.880859 L 406.473633 254.900391 L 407.481445 257.513672 L 408.489258 258.134766 L 409.494141 252.254883 L 410.501953 261.052734 L 411.509766 252.706055 L 412.514648 252.219727 L 413.522461 257.563477 L 414.530273 261.087891 L 415.535156 260.299805 L 416.542969 258.46582 L 417.550781 267.149414 L 418.555664 262.6875 L 419.563477 262.042969 L 420.571289 261.870117 L 421.576172 258.881836 L 422.583984 264.832031 L 423.591797 259.634766 L 424.59668 258.46582 L 425.604492 256.582031 L 426.612305 260.179688 L 427.617188 255.931641 L 428.625 258.55957 L 429.632812 256.089844 L 430.637695 258.676758 L 431.645508 257.484375 L 432.65332 252.448242 L 433.658203 262.163086 L 434.666016 268.394531 L 435.673828 257.762695 L 436.678711 253.549805 L 437.686523 255.837891 L 438.694336 256.567383 L 439.699219 256.359375 L 440.707031 253.3125 L 441.714844 247.921875 L 442.719727 246.442383 L 443.727539 254.923828 L 444.735352 246.389648 L 445.740234 248.915039 L 446.748047 251.112305 L 447.755859 247.816406 L 448.760742 247.145508 L 449.768555 239.232422 L 450.776367 246.298828 L 451.78125 245.90918 L 452.789062 244.658203 L 453.796875 243.996094 L 454.801758 243.832031 L 455.80957 245.742188 L 456.814453 241.658203 L 457.822266 245.077148 L 458.830078 237.788086 L 459.834961 243.152344 L 460.842773 239.862305 L 461.850586 239.15332 L 462.855469 240.975586 " transform="matrix(1.333333, 0, 0, 1.333333, 0, 0)"/>
<path fill="none" stroke-width="1.5" stroke-linecap="butt" stroke-linejoin="miter" stroke="rgb(0%, 0%, 0%)" stroke-opacity="1" stroke-miterlimit="2" d="M 61.136719 230.273438 L 62.144531 230.384766 L 63.149414 230.616211 L 64.157227 230.967773 L 65.165039 231.433594 L 66.169922 232.013672 L 67.177734 232.702148 L 68.182617 233.493164 L 69.19043 234.383789 L 70.198242 235.365234 L 71.203125 236.43457 L 72.210938 237.583008 L 73.21875 238.801758 L 74.223633 240.084961 L 75.231445 241.423828 L 76.239258 242.80957 L 77.244141 244.233398 L 78.251953 245.686523 L 79.259766 247.157227 L 80.264648 248.642578 L 81.272461 250.12793 L 82.280273 251.604492 L 83.285156 253.066406 L 84.292969 254.501953 L 85.300781 255.905273 L 86.305664 257.264648 L 87.313477 258.571289 L 88.321289 259.822266 L 89.326172 261.005859 L 90.333984 262.119141 L 91.341797 263.150391 L 92.34668 264.09668 L 93.354492 264.952148 L 94.362305 265.713867 L 95.367188 266.373047 L 96.375 266.932617 L 97.382812 267.383789 L 98.387695 267.726562 L 99.395508 267.958008 L 100.40332 268.081055 L 101.408203 268.089844 L 102.416016 267.990234 L 103.423828 267.782227 L 104.428711 267.462891 L 105.436523 267.041016 L 106.444336 266.516602 L 107.449219 265.895508 L 108.457031 265.177734 L 109.464844 264.37207 L 110.469727 263.484375 L 111.477539 262.517578 L 112.485352 261.477539 L 113.490234 260.375977 L 114.498047 259.212891 L 115.505859 258.00293 L 116.510742 256.749023 L 117.518555 255.462891 L 118.526367 254.147461 L 119.53125 252.814453 L 120.539062 251.472656 L 121.546875 250.12793 L 122.551758 248.791992 L 123.55957 247.467773 L 124.564453 246.169922 L 125.572266 244.901367 L 126.580078 243.670898 L 127.584961 242.487305 L 128.592773 241.353516 L 129.600586 240.28418 L 130.605469 239.276367 L 131.613281 238.344727 L 132.621094 237.486328 L 133.625977 236.712891 L 134.633789 236.024414 L 135.641602 235.426758 L 136.646484 234.922852 L 137.654297 234.512695 L 138.662109 234.202148 L 139.666992 233.991211 L 140.674805 233.882812 L 141.682617 233.874023 L 142.6875 233.961914 L 143.695312 234.152344 L 144.703125 234.439453 L 145.708008 234.820312 L 146.71582 235.294922 L 147.723633 235.860352 L 148.728516 236.507812 L 149.736328 237.237305 L 150.744141 238.040039 L 151.749023 238.916016 L 152.756836 239.856445 L 153.764648 240.855469 L 154.769531 241.904297 L 155.777344 243 L 156.785156 244.133789 L 157.790039 245.299805 L 158.797852 246.489258 L 159.805664 247.693359 L 160.810547 248.90918 L 161.818359 250.125 L 162.826172 251.334961 L 163.831055 252.533203 L 164.838867 253.708008 L 165.84668 254.856445 L 166.851562 255.969727 L 167.859375 257.039062 L 168.867188 258.064453 L 169.87207 259.03418 L 170.879883 259.945312 L 171.887695 260.789062 L 172.892578 261.56543 L 173.900391 262.265625 L 174.908203 262.886719 L 175.913086 263.428711 L 176.920898 263.885742 L 177.925781 264.254883 L 178.933594 264.536133 L 179.941406 264.726562 L 180.946289 264.826172 L 181.954102 264.834961 L 182.961914 264.75293 L 183.966797 264.580078 L 184.974609 264.322266 L 185.982422 263.976562 L 186.987305 263.545898 L 187.995117 263.036133 L 189.00293 262.450195 L 190.007812 261.791016 L 191.015625 261.064453 L 192.023438 260.270508 L 193.02832 259.420898 L 194.036133 258.518555 L 195.043945 257.566406 L 196.048828 256.576172 L 197.056641 255.550781 L 198.064453 254.496094 L 199.069336 253.420898 L 200.077148 252.328125 L 201.084961 251.229492 L 202.089844 250.12793 L 203.097656 249.035156 L 204.105469 247.951172 L 205.110352 246.887695 L 206.118164 245.847656 L 207.125977 244.842773 L 208.130859 243.873047 L 209.138672 242.947266 L 210.146484 242.068359 L 211.151367 241.245117 L 212.15918 240.480469 L 213.166992 239.780273 L 214.171875 239.144531 L 215.179688 238.582031 L 216.1875 238.092773 L 217.192383 237.679688 L 218.200195 237.342773 L 219.208008 237.09082 L 220.212891 236.917969 L 221.220703 236.827148 L 222.228516 236.818359 L 223.233398 236.894531 L 224.241211 237.046875 L 225.249023 237.28418 L 226.253906 237.594727 L 227.261719 237.984375 L 228.269531 238.444336 L 229.274414 238.974609 L 230.282227 239.572266 L 231.290039 240.231445 L 232.294922 240.949219 L 233.302734 241.716797 L 234.307617 242.53418 L 235.31543 243.395508 L 236.323242 244.291992 L 237.328125 245.220703 L 238.335938 246.172852 L 239.34375 247.148438 L 240.348633 248.135742 L 241.356445 249.128906 L 242.364258 250.125 L 243.369141 251.115234 L 244.376953 252.09375 L 245.384766 253.057617 L 246.389648 253.998047 L 247.397461 254.90918 L 248.405273 255.785156 L 249.410156 256.625977 L 250.417969 257.419922 L 251.425781 258.164062 L 252.430664 258.855469 L 253.438477 259.491211 L 254.446289 260.06543 L 255.451172 260.575195 L 256.458984 261.017578 L 257.466797 261.389648 L 258.47168 261.694336 L 259.479492 261.922852 L 260.487305 262.081055 L 261.492188 262.160156 L 262.5 262.168945 L 263.507812 262.101562 L 264.512695 261.960938 L 265.520508 261.75 L 266.52832 261.46582 L 267.533203 261.114258 L 268.541016 260.698242 L 269.548828 260.217773 L 270.553711 259.678711 L 271.561523 259.081055 L 272.569336 258.433594 L 273.574219 257.736328 L 274.582031 256.998047 L 275.589844 256.21875 L 276.594727 255.407227 L 277.602539 254.569336 L 278.610352 253.705078 L 279.615234 252.823242 L 280.623047 251.929688 L 281.630859 251.030273 L 282.635742 250.130859 L 283.643555 249.234375 L 284.651367 248.34668 L 285.65625 247.476562 L 286.664062 246.624023 L 287.671875 245.800781 L 288.676758 245.006836 L 289.68457 244.248047 L 290.689453 243.530273 L 291.697266 242.856445 L 292.705078 242.229492 L 293.709961 241.655273 L 294.717773 241.136719 L 295.725586 240.673828 L 296.730469 240.272461 L 297.738281 239.935547 L 298.746094 239.660156 L 299.750977 239.452148 L 300.758789 239.311523 L 301.766602 239.238281 L 302.771484 239.232422 L 303.779297 239.291016 L 304.787109 239.419922 L 305.791992 239.610352 L 306.799805 239.868164 L 307.807617 240.18457 L 308.8125 240.5625 L 309.820312 240.996094 L 310.828125 241.485352 L 311.833008 242.024414 L 312.84082 242.610352 L 313.848633 243.240234 L 314.853516 243.911133 L 315.861328 244.614258 L 316.869141 245.349609 L 317.874023 246.108398 L 318.881836 246.890625 L 319.889648 247.6875 L 320.894531 248.496094 L 322.910156 250.125 L 323.915039 250.936523 L 324.922852 251.736328 L 325.930664 252.527344 L 326.935547 253.294922 L 327.943359 254.041992 L 328.951172 254.759766 L 329.956055 255.445312 L 330.963867 256.095703 L 331.97168 256.705078 L 332.976562 257.273438 L 333.984375 257.791992 L 334.992188 258.263672 L 335.99707 258.679688 L 337.004883 259.042969 L 338.012695 259.347656 L 339.017578 259.59668 L 340.025391 259.78418 L 341.033203 259.913086 L 342.038086 259.980469 L 343.045898 259.986328 L 344.050781 259.930664 L 345.058594 259.816406 L 346.066406 259.643555 L 347.071289 259.412109 L 348.079102 259.12207 L 349.086914 258.782227 L 350.091797 258.389648 L 351.099609 257.947266 L 352.107422 257.458008 L 353.112305 256.927734 L 354.120117 256.359375 L 355.12793 255.75293 L 356.132812 255.117188 L 357.140625 254.452148 L 358.148438 253.763672 L 359.15332 253.057617 L 360.161133 252.333984 L 361.168945 251.604492 L 362.173828 250.866211 L 364.189453 249.395508 L 365.194336 248.668945 L 366.202148 247.957031 L 367.209961 247.259766 L 368.214844 246.585938 L 369.222656 245.935547 L 370.230469 245.314453 L 371.235352 244.725586 L 372.243164 244.174805 L 373.250977 243.662109 L 374.255859 243.19043 L 375.263672 242.765625 L 376.271484 242.387695 L 377.276367 242.05957 L 378.28418 241.78418 L 379.291992 241.558594 L 380.296875 241.388672 L 381.304688 241.271484 L 382.3125 241.212891 L 383.317383 241.207031 L 384.325195 241.256836 L 385.333008 241.359375 L 386.337891 241.517578 L 387.345703 241.725586 L 388.353516 241.986328 L 389.358398 242.296875 L 390.366211 242.651367 L 391.374023 243.052734 L 392.378906 243.492188 L 393.386719 243.972656 L 394.394531 244.488281 L 395.399414 245.036133 L 396.407227 245.613281 L 397.415039 246.213867 L 398.419922 246.837891 L 399.427734 247.476562 L 400.432617 248.129883 L 401.44043 248.789062 L 402.448242 249.457031 L 403.453125 250.125 L 404.460938 250.787109 L 405.46875 251.446289 L 406.473633 252.09082 L 407.481445 252.720703 L 408.489258 253.330078 L 409.494141 253.918945 L 410.501953 254.481445 L 411.509766 255.014648 L 412.514648 255.512695 L 413.522461 255.978516 L 414.530273 256.40332 L 415.535156 256.787109 L 416.542969 257.129883 L 417.550781 257.425781 L 418.555664 257.677734 L 419.563477 257.879883 L 420.571289 258.035156 L 421.576172 258.137695 L 422.583984 258.193359 L 423.591797 258.199219 L 424.59668 258.155273 L 425.604492 258.061523 L 426.612305 257.917969 L 427.617188 257.727539 L 428.625 257.493164 L 429.632812 257.211914 L 430.637695 256.892578 L 431.645508 256.529297 L 432.65332 256.130859 L 433.658203 255.694336 L 434.666016 255.228516 L 435.673828 254.733398 L 436.678711 254.211914 L 437.686523 253.666992 L 438.694336 253.104492 L 439.699219 252.527344 L 440.707031 251.935547 L 441.714844 251.337891 L 442.719727 250.734375 L 443.727539 250.130859 L 444.735352 249.530273 L 445.740234 248.935547 L 446.748047 248.349609 L 447.755859 247.78125 L 448.760742 247.227539 L 449.768555 246.694336 L 450.776367 246.1875 L 451.78125 245.707031 L 452.789062 245.25293 L 453.796875 244.833984 L 454.801758 244.447266 L 455.80957 244.101562 L 456.814453 243.791016 L 457.822266 243.521484 L 458.830078 243.295898 L 459.834961 243.111328 L 460.842773 242.973633 L 461.850586 242.876953 L 462.855469 242.827148 L 463.863281 242.824219 " transform="matrix(1.333333, 0, 0, 1.333333, 0, 0)"/>
<path fill-rule="nonzero" fill="rgb(100%, 100%, 100%)" fill-opacity="1" stroke-width="1" stroke-linecap="butt" stroke-linejoin="miter" stroke="rgb(0%, 0%, 0%)" stroke-opacity="1" stroke-miterlimit="2" d="M 423.999023 77.000977 L 477.999023 77.000977 L 477.999023 22.001953 L 423.999023 22.001953 Z M 423.999023 77.000977 " transform="matrix(1.333333, 0, 0, 1.333333, 0, 0)"/>
<path fill="none" stroke-width="1" stroke-linecap="butt" stroke-linejoin="miter" stroke="rgb(0%, 0%, 0%)" stroke-opacity="1" stroke-miterlimit="1.154701" d="M 61.136719 291.500977 L 61.136719 296.499023 " transform="matrix(1.333333, 0, 0, 1.333333, 0, 0)"/>
<path fill="none" stroke-width="1" stroke-linecap="butt" stroke-linejoin="miter" stroke="rgb(0%, 0%, 0%)" stroke-opacity="1" stroke-miterlimit="1.154701" d="M 262.5 291.500977 L 262.5 296.499023 " transform="matrix(1.333333, 0, 0, 1.333333, 0, 0)"/>
<path fill="none" stroke-width="1" stroke-linecap="butt" stroke-linejoin="miter" stroke="rgb(0%, 0%, 0%)" stroke-opacity="1" stroke-miterlimit="1.154701" d="M 463.863281 291.500977 L 463.863281 296.499023 " transform="matrix(1.333333, 0, 0, 1.333333, 0, 0)"/>
<path fill="none" stroke-width="1" stroke-linecap="butt" stroke-linejoin="miter" stroke="rgb(0%, 0%, 0%)" stroke-opacity="1" stroke-miterlimit="1.154701" d="M 40.5 250.12793 L 35.499023 250.12793 " transform="matrix(1.333333, 0, 0, 1.333333, 0, 0)"/>
<path fill="none" stroke-width="1" stroke-linecap="butt" stroke-linejoin="miter" stroke="rgb(0%, 0%, 0%)" stroke-opacity="1" stroke-miterlimit="1.154701" d="M 40.5 200.496094 L 35.499023 200.496094 " transform="matrix(1.333333, 0, 0, 1.333333, 0, 0)"/>
<path fill="none" stroke-width="1" stroke-linecap="butt" stroke-linejoin="miter" stroke="rgb(0%, 0%, 0%)" stroke-opacity="1" stroke-miterlimit="1.154701" d="M 40.5 150.861328 L 35.499023 150.861328 " transform="matrix(1.333333, 0, 0, 1.333333, 0, 0)"/>
<path fill="none" stroke-width="1" stroke-linecap="butt" stroke-linejoin="miter" stroke="rgb(0%, 0%, 0%)" stroke-opacity="1" stroke-miterlimit="1.154701" d="M 40.5 101.229492 L 35.499023 101.229492 " transform="matrix(1.333333, 0, 0, 1.333333, 0, 0)"/>
<path fill="none" stroke-width="1" stroke-linecap="butt" stroke-linejoin="miter" stroke="rgb(0%, 0%, 0%)" stroke-opacity="1" stroke-miterlimit="1.154701" d="M 40.5 51.597656 L 35.499023 51.597656 " transform="matrix(1.333333, 0, 0, 1.333333, 0, 0)"/>
<path fill="none" stroke-width="1.5" stroke-linecap="butt" stroke-linejoin="miter" stroke="rgb(100%, 0%, 0%)" stroke-opacity="1" stroke-miterlimit="2" d="M 429.805664 38.000977 L 449.806641 38.000977 " transform="matrix(1.333333, 0, 0, 1.333333, 0, 0)"/>
<path fill="none" stroke-width="1.5" stroke-linecap="butt" stroke-linejoin="miter" stroke="rgb(0%, 0%, 0%)" stroke-opacity="1" stroke-miterlimit="2" d="M 429.805664 60.999023 L 449.806641 60.999023 " transform="matrix(1.333333, 0, 0, 1.333333, 0, 0)"/>
<g fill="rgb(0%, 0%, 0%)" fill-opacity="1">
<use xlink:href="#glyph-8-0-51e1b6a2" x="606.408042" y="55.236271"/>
</g>
<g fill="rgb(0%, 0%, 0%)" fill-opacity="1">
<use xlink:href="#glyph-9-0-51e1b6a2" x="616.208042" y="58.969605"/>
</g>
<g fill="rgb(0%, 0%, 0%)" fill-opacity="1">
<use xlink:href="#glyph-10-0-51e1b6a2" x="606.408028" y="86.522671"/>
</g>
<g fill="rgb(0%, 0%, 0%)" fill-opacity="1">
<use xlink:href="#glyph-8-1-51e1b6a2" x="613.669362" y="86.522671"/>
</g>
<g fill="rgb(0%, 0%, 0%)" fill-opacity="1">
<use xlink:href="#glyph-10-1-51e1b6a2" x="622.330695" y="86.522671"/>
</g>
<path fill="none" stroke-width="1" stroke-linecap="butt" stroke-linejoin="miter" stroke="rgb(0%, 0%, 0%)" stroke-opacity="1" stroke-miterlimit="1.154701" d="M 40.5 291 L 484.5 291 " transform="matrix(1.333333, 0, 0, 1.333333, 0, 0)"/>
<path fill="none" stroke-width="1" stroke-linecap="butt" stroke-linejoin="miter" stroke="rgb(0%, 0%, 0%)" stroke-opacity="1" stroke-miterlimit="1.154701" d="M 41.000977 291.500977 L 41.000977 15.500977 " transform="matrix(1.333333, 0, 0, 1.333333, 0, 0)"/>
<path fill="none" stroke-width="1" stroke-linecap="butt" stroke-linejoin="miter" stroke="rgb(0%, 0%, 0%)" stroke-opacity="1" stroke-miterlimit="1.154701" d="M 40.5 15.999023 L 484.5 15.999023 " transform="matrix(1.333333, 0, 0, 1.333333, 0, 0)"/>
<path fill="none" stroke-width="1" stroke-linecap="butt" stroke-linejoin="miter" stroke="rgb(0%, 0%, 0%)" stroke-opacity="1" stroke-miterlimit="1.154701" d="M 483.999023 291.500977 L 483.999023 15.500977 " transform="matrix(1.333333, 0, 0, 1.333333, 0, 0)"/>
</svg>
