<?xml version="1.0" encoding="UTF-8"?>
<svg xmlns="http://www.w3.org/2000/svg" xmlns:xlink="http://www.w3.org/1999/xlink" width="667" height="467" viewBox="0 0 667 467">
<defs>
<g>
<g id="glyph-0-0-b71c7254">
<path d="M 11.078125 -12.078125 C 11.078125 -12.078125 6.609375 -12.078125 6.609375 -12.078125 C 6.609375 -12.078125 6.609375 0 6.609375 0 C 6.609375 0 4.875 0 4.875 0 C 4.875 0 4.875 -12.078125 4.875 -12.078125 C 4.875 -12.078125 0.390625 -12.078125 0.390625 -12.078125 C 0.390625 -12.078125 0.390625 -13.609375 0.390625 -13.609375 C 0.390625 -13.609375 11.078125 -13.609375 11.078125 -13.609375 C 11.078125 -13.609375 11.078125 -12.078125 11.078125 -12.078125 Z M 11.078125 -12.078125 "/>
</g>
<g id="glyph-1-0-b71c7254">
<path d="M 2.859375 0 C 2.859375 0 1.3125 0 1.3125 0 C 1.3125 0 1.3125 -9.78125 1.3125 -9.78125 C 1.3125 -9.78125 2.859375 -9.78125 2.859375 -9.78125 C 2.859375 -9.78125 2.859375 0 2.859375 0 Z M 3.0625 -11.265625 C 3.0625 -11.265625 1.125 -11.265625 1.125 -11.265625 C 1.125 -11.265625 1.125 -13.203125 1.125 -13.203125 C 1.125 -13.203125 3.0625 -13.203125 3.0625 -13.203125 C 3.0625 -13.203125 3.0625 -11.265625 3.0625 -11.265625 Z M 3.0625 -11.265625 "/>
</g>
<g id="glyph-1-1-b71c7254">
<path d="M 14.1875 0 C 14.1875 0 12.640625 0 12.640625 0 C 12.640625 0 12.640625 -6.734375 12.640625 -6.734375 C 12.640625 -7.96875 11.984375 -8.703125 10.84375 -8.703125 C 9.578125 -8.703125 8.53125 -7.5625 8.53125 -6.140625 C 8.53125 -6.140625 8.53125 0 8.53125 0 C 8.53125 0 6.984375 0 6.984375 0 C 6.984375 0 6.984375 -6.734375 6.984375 -6.734375 C 6.984375 -7.984375 6.328125 -8.703125 5.171875 -8.703125 C 3.90625 -8.703125 2.875 -7.5625 2.875 -6.140625 C 2.875 -6.140625 2.875 0 2.875 0 C 2.875 0 1.328125 0 1.328125 0 C 1.328125 0 1.328125 -9.78125 1.328125 -9.78125 C 1.328125 -9.78125 2.75 -9.78125 2.75 -9.78125 C 2.75 -9.78125 2.75 -8.40625 2.75 -8.40625 C 3.578125 -9.578125 4.4375 -10.0625 5.75 -10.0625 C 7.015625 -10.0625 7.8125 -9.609375 8.390625 -8.578125 C 9.296875 -9.671875 10.078125 -10.0625 11.390625 -10.0625 C 13.21875 -10.0625 14.1875 -9.09375 14.1875 -7.34375 C 14.1875 -7.34375 14.1875 0 14.1875 0 Z M 14.1875 0 "/>
</g>
<g id="glyph-1-2-b71c7254">
<path d="M 9.578125 -4.4375 C 9.578125 -4.4375 2.375 -4.4375 2.375 -4.4375 C 2.40625 -2.203125 3.625 -1.15625 5.25 -1.15625 C 6.5 -1.15625 7.375 -1.6875 7.8125 -2.96875 C 7.8125 -2.96875 9.375 -2.96875 9.375 -2.96875 C 8.984375 -0.984375 7.4375 0.28125 5.1875 0.28125 C 2.453125 0.28125 0.75 -1.625 0.75 -4.84375 C 0.75 -8.046875 2.5 -10.0625 5.234375 -10.0625 C 7.0625 -10.0625 8.546875 -9.09375 9.1875 -7.484375 C 9.46875 -6.765625 9.578125 -5.859375 9.578125 -4.4375 Z M 7.921875 -5.828125 C 7.921875 -7.359375 6.734375 -8.625 5.203125 -8.625 C 3.640625 -8.625 2.546875 -7.453125 2.40625 -5.71875 C 2.40625 -5.71875 7.890625 -5.71875 7.890625 -5.71875 C 7.921875 -5.75 7.921875 -5.828125 7.921875 -5.828125 Z M 7.921875 -5.828125 "/>
</g>
<g id="glyph-2-0-b71c7254">
<path d="M 9.46875 -6.359375 C 9.46875 -2.015625 7.9375 0.28125 5.140625 0.28125 C 2.296875 0.28125 0.796875 -2.015625 0.796875 -6.484375 C 0.796875 -10.921875 2.28125 -13.234375 5.140625 -13.234375 C 8.015625 -13.234375 9.46875 -10.953125 9.46875 -6.359375 Z M 7.78125 -6.515625 C 7.78125 -10.0625 6.90625 -11.78125 5.140625 -11.78125 C 3.359375 -11.78125 2.484375 -10.078125 2.484375 -6.453125 C 2.484375 -2.84375 3.359375 -1.078125 5.09375 -1.078125 C 6.921875 -1.078125 7.78125 -2.765625 7.78125 -6.515625 Z M 7.78125 -6.515625 "/>
</g>
<g id="glyph-3-0-b71c7254">
<path d="M 3.5625 0 C 3.5625 0 1.625 0 1.625 0 C 1.625 0 1.625 -1.9375 1.625 -1.9375 C 1.625 -1.9375 3.5625 -1.9375 3.5625 -1.9375 C 3.5625 -1.9375 3.5625 0 3.5625 0 Z M 3.5625 0 "/>
</g>
<g id="glyph-4-0-b71c7254">
<path d="M 9.46875 -6.359375 C 9.46875 -2.015625 7.9375 0.28125 5.140625 0.28125 C 2.296875 0.28125 0.796875 -2.015625 0.796875 -6.484375 C 0.796875 -10.921875 2.28125 -13.234375 5.140625 -13.234375 C 8.015625 -13.234375 9.46875 -10.953125 9.46875 -6.359375 Z M 7.78125 -6.515625 C 7.78125 -10.0625 6.90625 -11.78125 5.140625 -11.78125 C 3.359375 -11.78125 2.484375 -10.078125 2.484375 -6.453125 C 2.484375 -2.84375 3.359375 -1.078125 5.09375 -1.078125 C 6.921875 -1.078125 7.78125 -2.765625 7.78125 -6.515625 Z M 7.78125 -6.515625 "/>
</g>
<g id="glyph-4-1-b71c7254">
<path d="M 3.5625 0 C 3.5625 0 1.625 0 1.625 0 C 1.625 0 1.625 -1.9375 1.625 -1.9375 C 1.625 -1.9375 3.5625 -1.9375 3.5625 -1.9375 C 3.5625 -1.9375 3.5625 0 3.5625 0 Z M 3.5625 0 "/>
</g>
<g id="glyph-4-2-b71c7254">
<path d="M 9.578125 -4.390625 C 9.578125 -1.59375 7.71875 0.28125 5.046875 0.28125 C 2.6875 0.28125 1.1875 -0.765625 0.65625 -3.390625 C 0.65625 -3.390625 2.296875 -3.390625 2.296875 -3.390625 C 2.6875 -1.90625 3.5625 -1.171875 5 -1.171875 C 6.796875 -1.171875 7.890625 -2.265625 7.890625 -4.15625 C 7.890625 -6.125 6.78125 -7.265625 5 -7.265625 C 3.984375 -7.265625 3.34375 -6.953125 2.578125 -6.03125 C 2.578125 -6.03125 1.0625 -6.03125 1.0625 -6.03125 C 1.0625 -6.03125 2.046875 -12.953125 2.046875 -12.953125 C 2.046875 -12.953125 8.890625 -12.953125 8.890625 -12.953125 C 8.890625 -12.953125 8.890625 -11.328125 8.890625 -11.328125 C 8.890625 -11.328125 3.375 -11.328125 3.375 -11.328125 C 3.375 -11.328125 2.859375 -7.921875 2.859375 -7.921875 C 3.625 -8.484375 4.375 -8.71875 5.296875 -8.71875 C 7.84375 -8.71875 9.578125 -7 9.578125 -4.390625 Z M 9.578125 -4.390625 "/>
</g>
<g id="glyph-4-3-b71c7254">
<path d="M 6.484375 0 C 6.484375 0 4.84375 0 4.84375 0 C 4.84375 0 4.84375 -9.421875 4.84375 -9.421875 C 4.84375 -9.421875 1.90625 -9.421875 1.90625 -9.421875 C 1.90625 -9.421875 1.90625 -10.609375 1.90625 -10.609375 C 4.4375 -10.921875 4.8125 -11.203125 5.390625 -13.234375 C 5.390625 -13.234375 6.484375 -13.234375 6.484375 -13.234375 C 6.484375 -13.234375 6.484375 0 6.484375 0 Z M 6.484375 0 "/>
</g>
<g id="glyph-5-0-b71c7254">
<path d="M 9.640625 -4.03125 C 9.640625 -4.03125 1.265625 -4.03125 1.265625 -4.03125 C 1.265625 -4.03125 1.265625 -5.296875 1.265625 -5.296875 C 1.265625 -5.296875 9.640625 -5.296875 9.640625 -5.296875 C 9.640625 -5.296875 9.640625 -4.03125 9.640625 -4.03125 Z M 9.640625 -4.03125 "/>
</g>
<g id="glyph-5-1-b71c7254">
<path d="M 9.46875 -6.359375 C 9.46875 -2.015625 7.9375 0.28125 5.140625 0.28125 C 2.296875 0.28125 0.796875 -2.015625 0.796875 -6.484375 C 0.796875 -10.921875 2.28125 -13.234375 5.140625 -13.234375 C 8.015625 -13.234375 9.46875 -10.953125 9.46875 -6.359375 Z M 7.78125 -6.515625 C 7.78125 -10.0625 6.90625 -11.78125 5.140625 -11.78125 C 3.359375 -11.78125 2.484375 -10.078125 2.484375 -6.453125 C 2.484375 -2.84375 3.359375 -1.078125 5.09375 -1.078125 C 6.921875 -1.078125 7.78125 -2.765625 7.78125 -6.515625 Z M 7.78125 -6.515625 "/>
</g>
<g id="glyph-6-0-b71c7254">
<path d="M 6.484375 0 C 6.484375 0 4.84375 0 4.84375 0 C 4.84375 0 4.84375 -9.421875 4.84375 -9.421875 C 4.84375 -9.421875 1.90625 -9.421875 1.90625 -9.421875 C 1.90625 -9.421875 1.90625 -10.609375 1.90625 -10.609375 C 4.4375 -10.921875 4.8125 -11.203125 5.390625 -13.234375 C 5.390625 -13.234375 6.484375 -13.234375 6.484375 -13.234375 C 6.484375 -13.234375 6.484375 0 6.484375 0 Z M 6.484375 0 "/>
</g>
<g id="glyph-7-0-b71c7254">
<path d="M 9.46875 -6.359375 C 9.46875 -2.015625 7.9375 0.28125 5.140625 0.28125 C 2.296875 0.28125 0.796875 -2.015625 0.796875 -6.484375 C 0.796875 -10.921875 2.28125 -13.234375 5.140625 -13.234375 C 8.015625 -13.234375 9.46875 -10.953125 9.46875 -6.359375 Z M 7.78125 -6.515625 C 7.78125 -10.0625 6.90625 -11.78125 5.140625 -11.78125 C 3.359375 -11.78125 2.484375 -10.078125 2.484375 -6.453125 C 2.484375 -2.84375 3.359375 -1.078125 5.09375 -1.078125 C 6.921875 -1.078125 7.78125 -2.765625 7.78125 -6.515625 Z M 7.78125 -6.515625 "/>
</g>
<g id="glyph-8-0-b71c7254">
<path d="M 6.484375 0 C 6.484375 0 4.84375 0 4.84375 0 C 4.84375 0 4.84375 -9.421875 4.84375 -9.421875 C 4.84375 -9.421875 1.90625 -9.421875 1.90625 -9.421875 C 1.90625 -9.421875 1.90625 -10.609375 1.90625 -10.609375 C 4.4375 -10.921875 4.8125 -11.203125 5.390625 -13.234375 C 5.390625 -13.234375 6.484375 -13.234375 6.484375 -13.234375 C 6.484375 -13.234375 6.484375 0 6.484375 0 Z M 6.484375 0 "/>
</g>
<g id="glyph-9-0-b71c7254">
<path d="M 9.46875 -6.359375 C 9.46875 -2.015625 7.9375 0.28125 5.140625 0.28125 C 2.296875 0.28125 0.796875 -2.015625 0.796875 -6.484375 C 0.796875 -10.921875 2.28125 -13.234375 5.140625 -13.234375 C 8.015625 -13.234375 9.46875 -10.953125 9.46875 -6.359375 Z M 7.78125 -6.515625 C 7.78125 -10.0625 6.90625 -11.78125 5.140625 -11.78125 C 3.359375 -11.78125 2.484375 -10.078125 2.484375 -6.453125 C 2.484375 -2.84375 3.359375 -1.078125 5.09375 -1.078125 C 6.921875 -1.078125 7.78125 -2.765625 7.78125 -6.515625 Z M 7.78125 -6.515625 "/>
</g>
<g id="glyph-10-0-b71c7254">
<path d="M 11.609375 -12.53125 C 11.609375 -12.703125 11.5 -12.75 11.359375 -12.75 C 10.734375 -12.75 10.0625 -12.703125 9.421875 -12.703125 C 8.59375 -12.703125 7.71875 -12.75 6.890625 -12.75 C 6.71875 -12.75 6.5 -12.75 6.5 -12.390625 C 6.5 -12.171875 6.671875 -12.171875 6.96875 -12.171875 L 7.1875 -12.171875 C 7.5 -12.171875 7.71875 -12.171875 8.046875 -12.140625 C 8.453125 -12.078125 8.609375 -12.0625 8.609375 -11.78125 C 8.609375 -11.703125 8.609375 -11.671875 8.53125 -11.40625 L 6.359375 -2.703125 C 6.015625 -1.3125 4.953125 0 3.921875 0 C 3.15625 0 2.5 -0.46875 2.359375 -1.234375 C 2.390625 -1.21875 2.421875 -1.21875 2.5625 -1.21875 C 3.265625 -1.21875 3.671875 -1.84375 3.671875 -2.3125 C 3.671875 -2.796875 3.3125 -3.046875 2.90625 -3.046875 C 2.859375 -3.046875 1.75 -3.046875 1.75 -1.609375 C 1.75 -0.34375 2.765625 0.40625 3.953125 0.40625 C 5.71875 0.40625 7.4375 -0.984375 7.84375 -2.6875 L 10.03125 -11.5 C 10.15625 -12.03125 10.28125 -12.171875 11.125 -12.171875 C 11.40625 -12.171875 11.609375 -12.171875 11.609375 -12.53125 Z M 11.609375 -12.53125 "/>
</g>
<g id="glyph-11-0-b71c7254">
<path d="M 5.46875 -1.609375 C 5.46875 -1.71875 5.375 -1.71875 5.296875 -1.71875 C 5.171875 -1.71875 5.15625 -1.703125 5.09375 -1.53125 C 4.796875 -0.5625 4.234375 -0.125 3.765625 -0.125 C 3.546875 -0.125 3.234375 -0.25 3.234375 -0.84375 C 3.234375 -1.109375 3.359375 -1.59375 3.453125 -1.96875 L 3.828125 -3.5 C 3.984375 -4.09375 4.296875 -4.703125 4.8125 -4.703125 C 4.84375 -4.703125 5.125 -4.703125 5.3125 -4.546875 C 4.859375 -4.4375 4.859375 -4.015625 4.859375 -4.015625 C 4.859375 -3.859375 4.96875 -3.65625 5.25 -3.65625 C 5.453125 -3.65625 5.796875 -3.8125 5.796875 -4.25 C 5.796875 -4.8125 5.15625 -4.953125 4.828125 -4.953125 C 4.21875 -4.953125 3.84375 -4.40625 3.734375 -4.1875 C 3.484375 -4.859375 2.9375 -4.953125 2.65625 -4.953125 C 1.53125 -4.953125 0.9375 -3.484375 0.9375 -3.21875 C 0.9375 -3.109375 1.046875 -3.109375 1.09375 -3.109375 C 1.25 -3.109375 1.25 -3.125 1.296875 -3.3125 C 1.609375 -4.265625 2.1875 -4.703125 2.625 -4.703125 C 2.953125 -4.703125 3.171875 -4.453125 3.171875 -4 C 3.171875 -3.734375 3.03125 -3.1875 2.9375 -2.765625 L 2.671875 -1.75 C 2.5 -1.015625 2.265625 -0.125 1.59375 -0.125 C 1.5625 -0.125 1.28125 -0.125 1.09375 -0.28125 C 1.4375 -0.375 1.53125 -0.65625 1.53125 -0.8125 C 1.53125 -1.109375 1.296875 -1.171875 1.15625 -1.171875 C 0.875 -1.171875 0.59375 -0.9375 0.59375 -0.578125 C 0.59375 -0.140625 1.0625 0.125 1.578125 0.125 C 2.125 0.125 2.484375 -0.296875 2.671875 -0.640625 C 2.90625 0 3.453125 0.125 3.734375 0.125 C 4.890625 0.125 5.46875 -1.375 5.46875 -1.609375 Z M 5.46875 -1.609375 "/>
</g>
<g id="glyph-12-0-b71c7254">
<path d="M 6.28125 4.296875 C 6.28125 4.234375 6.28125 4.203125 6.25 4.15625 L 2.8125 -4.671875 L 6.25 -13.5 C 6.28125 -13.53125 6.28125 -13.578125 6.28125 -13.625 C 6.28125 -13.84375 6.109375 -14 5.90625 -14 C 5.75 -14 5.609375 -13.90625 5.546875 -13.765625 L 2.078125 -4.796875 C 2.046875 -4.765625 2.046875 -4.71875 2.046875 -4.671875 C 2.046875 -4.609375 2.046875 -4.578125 2.078125 -4.53125 L 5.546875 4.421875 C 5.609375 4.578125 5.75 4.671875 5.90625 4.671875 C 6.109375 4.671875 6.28125 4.5 6.28125 4.296875 Z M 6.28125 4.296875 "/>
</g>
<g id="glyph-13-0-b71c7254">
<path d="M 9.109375 -2.671875 C 9.109375 -2.859375 8.96875 -2.859375 8.828125 -2.859375 C 8.609375 -2.859375 8.59375 -2.84375 8.5 -2.546875 C 7.984375 -0.9375 7.0625 -0.203125 6.28125 -0.203125 C 5.90625 -0.203125 5.390625 -0.421875 5.390625 -1.40625 C 5.390625 -1.84375 5.609375 -2.65625 5.75 -3.28125 L 6.390625 -5.84375 C 6.640625 -6.8125 7.15625 -7.84375 8.03125 -7.84375 C 8.078125 -7.84375 8.546875 -7.84375 8.84375 -7.578125 C 8.109375 -7.390625 8.109375 -6.6875 8.109375 -6.6875 C 8.109375 -6.4375 8.265625 -6.09375 8.75 -6.09375 C 9.09375 -6.09375 9.671875 -6.34375 9.671875 -7.078125 C 9.671875 -8.03125 8.59375 -8.25 8.046875 -8.25 C 7.015625 -8.25 6.40625 -7.34375 6.21875 -6.984375 C 5.8125 -8.109375 4.890625 -8.25 4.421875 -8.25 C 2.5625 -8.25 1.546875 -5.8125 1.546875 -5.375 C 1.546875 -5.1875 1.734375 -5.1875 1.828125 -5.1875 C 2.078125 -5.1875 2.078125 -5.203125 2.171875 -5.515625 C 2.671875 -7.109375 3.640625 -7.84375 4.390625 -7.84375 C 4.921875 -7.84375 5.28125 -7.40625 5.28125 -6.671875 C 5.28125 -6.21875 5.0625 -5.296875 4.890625 -4.609375 L 4.46875 -2.90625 C 4.15625 -1.703125 3.765625 -0.203125 2.65625 -0.203125 C 2.59375 -0.203125 2.140625 -0.203125 1.828125 -0.46875 C 2.390625 -0.609375 2.5625 -1.078125 2.5625 -1.359375 C 2.5625 -1.84375 2.171875 -1.953125 1.921875 -1.953125 C 1.453125 -1.953125 0.984375 -1.5625 0.984375 -0.953125 C 0.984375 -0.21875 1.78125 0.203125 2.625 0.203125 C 3.53125 0.203125 4.140625 -0.5 4.46875 -1.0625 C 4.84375 0 5.75 0.203125 6.234375 0.203125 C 8.15625 0.203125 9.109375 -2.296875 9.109375 -2.671875 Z M 9.109375 -2.671875 "/>
</g>
<g id="glyph-14-0-b71c7254">
<path d="M 5.1875 -4.796875 L 1.71875 -13.765625 C 1.65625 -13.90625 1.515625 -14 1.359375 -14 C 1.15625 -14 0.984375 -13.84375 0.984375 -13.625 C 0.984375 -13.578125 0.984375 -13.53125 1.015625 -13.5 L 4.4375 -4.671875 L 1.015625 4.15625 C 0.984375 4.203125 0.984375 4.234375 0.984375 4.296875 C 0.984375 4.5 1.15625 4.671875 1.359375 4.671875 C 1.515625 4.671875 1.65625 4.578125 1.71875 4.421875 L 5.1875 -4.53125 C 5.203125 -4.578125 5.203125 -4.609375 5.203125 -4.671875 C 5.203125 -4.71875 5.203125 -4.765625 5.1875 -4.796875 Z M 5.1875 -4.796875 "/>
</g>
</g>
</defs>
<path fill-rule="nonzero" fill="rgb(100%, 100%, 100%)" fill-opacity="1" d="M 0 0 L 666.667969 0 L 666.667969 466.667969 L 0 466.667969 Z M 0 0 "/>
<path fill-rule="nonzero" fill="rgb(100%, 100%, 100%)" fill-opacity="1" d="M 65.332031 388 L 645.332031 388 L 645.332031 21.332031 L 65.332031 21.332031 Z M 65.332031 388 "/>
<path fill="none" stroke-width="1" stroke-linecap="butt" stroke-linejoin="miter" stroke="rgb(0%, 0%, 0%)" stroke-opacity="0.12" stroke-miterlimit="1.154701" d="M 68.771484 291 L 68.771484 15.999023 " transform="matrix(1.333333, 0, 0, 1.333333, 0, 0)"/>
<path fill="none" stroke-width="1" stroke-linecap="butt" stroke-linejoin="miter" stroke="rgb(0%, 0%, 0%)" stroke-opacity="0.12" stroke-miterlimit="1.154701" d="M 266.499023 291 L 266.499023 15.999023 " transform="matrix(1.333333, 0, 0, 1.333333, 0, 0)"/>
<path fill="none" stroke-width="1" stroke-linecap="butt" stroke-linejoin="miter" stroke="rgb(0%, 0%, 0%)" stroke-opacity="0.12" stroke-miterlimit="1.154701" d="M 464.226562 291 L 464.226562 15.999023 " transform="matrix(1.333333, 0, 0, 1.333333, 0, 0)"/>
<path fill="none" stroke-width="1" stroke-linecap="butt" stroke-linejoin="miter" stroke="rgb(0%, 0%, 0%)" stroke-opacity="0.12" stroke-miterlimit="1.154701" d="M 48.999023 287.299805 L 483.999023 287.299805 " transform="matrix(1.333333, 0, 0, 1.333333, 0, 0)"/>
<path fill="none" stroke-width="1" stroke-linecap="butt" stroke-linejoin="miter" stroke="rgb(0%, 0%, 0%)" stroke-opacity="0.12" stroke-miterlimit="1.154701" d="M 48.999023 190.473633 L 483.999023 190.473633 " transform="matrix(1.333333, 0, 0, 1.333333, 0, 0)"/>
<path fill="none" stroke-width="1" stroke-linecap="butt" stroke-linejoin="miter" stroke="rgb(0%, 0%, 0%)" stroke-opacity="0.12" stroke-miterlimit="1.154701" d="M 48.999023 93.647461 L 483.999023 93.647461 " transform="matrix(1.333333, 0, 0, 1.333333, 0, 0)"/>
<g fill="rgb(0%, 0%, 0%)" fill-opacity="1">
<use xlink:href="#glyph-0-0-b71c7254" x="334.594667" y="442.090666"/>
</g>
<g fill="rgb(0%, 0%, 0%)" fill-opacity="1">
<use xlink:href="#glyph-1-0-b71c7254" x="346" y="442.090666"/>
</g>
<g fill="rgb(0%, 0%, 0%)" fill-opacity="1">
<use xlink:href="#glyph-1-1-b71c7254" x="350.144" y="442.090666"/>
</g>
<g fill="rgb(0%, 0%, 0%)" fill-opacity="1">
<use xlink:href="#glyph-1-2-b71c7254" x="365.693333" y="442.090666"/>
</g>
<g fill="rgb(0%, 0%, 0%)" fill-opacity="1">
<use xlink:href="#glyph-2-0-b71c7254" x="78.723638" y="416.344"/>
</g>
<g fill="rgb(0%, 0%, 0%)" fill-opacity="1">
<use xlink:href="#glyph-3-0-b71c7254" x="89.102304" y="416.344"/>
</g>
<g fill="rgb(0%, 0%, 0%)" fill-opacity="1">
<use xlink:href="#glyph-2-0-b71c7254" x="94.291637" y="416.344"/>
</g>
<g fill="rgb(0%, 0%, 0%)" fill-opacity="1">
<use xlink:href="#glyph-4-0-b71c7254" x="342.360001" y="416.344"/>
</g>
<g fill="rgb(0%, 0%, 0%)" fill-opacity="1">
<use xlink:href="#glyph-4-1-b71c7254" x="352.738667" y="416.344"/>
</g>
<g fill="rgb(0%, 0%, 0%)" fill-opacity="1">
<use xlink:href="#glyph-4-2-b71c7254" x="357.928" y="416.344"/>
</g>
<g fill="rgb(0%, 0%, 0%)" fill-opacity="1">
<use xlink:href="#glyph-4-3-b71c7254" x="605.996353" y="416.344"/>
</g>
<g fill="rgb(0%, 0%, 0%)" fill-opacity="1">
<use xlink:href="#glyph-4-1-b71c7254" x="616.37502" y="416.344"/>
</g>
<g fill="rgb(0%, 0%, 0%)" fill-opacity="1">
<use xlink:href="#glyph-4-0-b71c7254" x="621.564353" y="416.344"/>
</g>
<g fill="rgb(0%, 0%, 0%)" fill-opacity="1">
<use xlink:href="#glyph-5-0-b71c7254" x="20.341334" y="389.870284"/>
</g>
<g fill="rgb(0%, 0%, 0%)" fill-opacity="1">
<use xlink:href="#glyph-6-0-b71c7254" x="31.242667" y="389.870284"/>
</g>
<g fill="rgb(0%, 0%, 0%)" fill-opacity="1">
<use xlink:href="#glyph-5-1-b71c7254" x="41.621333" y="389.870284"/>
</g>
<g fill="rgb(0%, 0%, 0%)" fill-opacity="1">
<use xlink:href="#glyph-7-0-b71c7254" x="41.621333" y="260.769332"/>
</g>
<g fill="rgb(0%, 0%, 0%)" fill-opacity="1">
<use xlink:href="#glyph-8-0-b71c7254" x="31.242667" y="131.668421"/>
</g>
<g fill="rgb(0%, 0%, 0%)" fill-opacity="1">
<use xlink:href="#glyph-9-0-b71c7254" x="41.621333" y="131.668421"/>
</g>
<path fill="none" stroke-width="1.5" stroke-linecap="butt" stroke-linejoin="miter" stroke="rgb(100%, 0%, 0%)" stroke-opacity="1" stroke-miterlimit="2" d="M 68.771484 28.5 L 69.761719 114.234375 L 70.749023 107.088867 L 71.739258 115.854492 L 72.726562 107.874023 L 73.716797 131.416992 L 74.704102 127.719727 L 75.694336 117.023438 L 76.681641 130.333008 L 77.671875 150.603516 L 78.65918 148.640625 L 79.646484 155.478516 L 80.636719 151.921875 L 81.624023 165.881836 L 82.614258 152.091797 L 83.601562 178.089844 L 84.591797 164.680664 L 85.579102 186.249023 L 86.569336 188.589844 L 87.556641 198.509766 L 88.546875 204.18457 L 89.53418 208.280273 L 90.521484 222.588867 L 91.511719 215.25 L 92.499023 227.097656 L 93.489258 217.584961 L 94.476562 227.897461 L 95.466797 226.344727 L 96.454102 240.621094 L 97.444336 242.162109 L 98.431641 248.027344 L 99.421875 254.091797 L 100.40918 258.448242 L 101.396484 267.269531 L 102.386719 274.166016 L 103.374023 268.344727 L 104.364258 252.93457 L 105.351562 262.335938 L 106.341797 278.499023 L 107.329102 260.384766 L 108.319336 263.677734 L 109.306641 259.110352 L 110.296875 241.31543 L 111.28418 253.77832 L 112.271484 253.166016 L 113.261719 244.989258 L 114.249023 265.21875 L 115.239258 244.924805 L 116.226562 242.408203 L 117.216797 240.618164 L 118.204102 235.567383 L 119.194336 237.571289 L 120.181641 236.214844 L 121.171875 233.329102 L 122.15918 215.024414 L 123.146484 206.329102 L 124.136719 208.376953 L 125.124023 219.65918 L 126.114258 211.21582 L 127.101562 182.285156 L 128.091797 186.577148 L 129.079102 188.789062 L 130.069336 184.740234 L 131.056641 169.921875 L 132.046875 172.535156 L 133.03418 148.423828 L 134.021484 150.166992 L 135.011719 152.375977 L 135.999023 138.240234 L 136.989258 140.712891 L 137.976562 145.97168 L 138.966797 148.294922 L 139.954102 156.594727 L 140.944336 150.360352 L 141.931641 122.056641 L 142.921875 135.665039 L 143.90918 128.537109 L 144.896484 116.112305 L 145.886719 130.875 L 146.874023 111.046875 L 147.864258 141.887695 L 148.851562 132.47168 L 149.841797 132.84375 L 150.829102 127.054688 L 151.819336 124.769531 L 152.806641 126.94043 L 153.796875 137.088867 L 154.78418 141.533203 L 155.771484 155.238281 L 156.761719 144.014648 L 157.749023 150.035156 L 158.739258 152.288086 L 159.726562 142.130859 L 160.716797 165.410156 L 161.704102 159.269531 L 162.694336 156.389648 L 163.681641 171.796875 L 164.671875 204.638672 L 165.65918 193.59668 L 166.646484 188.950195 L 167.636719 213.143555 L 168.624023 185.865234 L 169.614258 194.384766 L 170.601562 202.538086 L 171.591797 222.421875 L 172.579102 203.569336 L 173.569336 223.130859 L 174.556641 243.439453 L 175.546875 219.867188 L 176.53418 244.977539 L 177.521484 239.578125 L 178.511719 232.652344 L 179.499023 241.394531 L 180.489258 244.394531 L 181.476562 247.617188 L 182.466797 252.647461 L 183.454102 233.750977 L 184.444336 238.022461 L 185.431641 252.978516 L 186.421875 231.767578 L 187.40918 239.841797 L 188.396484 245.821289 L 189.386719 243.969727 L 190.374023 235.171875 L 191.364258 244.898438 L 192.351562 245.053711 L 193.341797 239.085938 L 194.329102 232.271484 L 195.319336 237.94043 L 196.306641 241.154297 L 197.296875 228.665039 L 198.28418 226.479492 L 199.271484 200.806641 L 200.261719 209.25 L 201.249023 225.670898 L 202.239258 213.395508 L 203.226562 217.291992 L 204.216797 203.660156 L 205.204102 201.269531 L 206.194336 178.836914 L 207.181641 185.739258 L 208.171875 200.912109 L 209.15918 179.742188 L 210.146484 172.148438 L 211.136719 169.892578 L 212.124023 163.171875 L 213.114258 149.361328 L 214.101562 170.176758 L 215.091797 159.714844 L 216.079102 148.356445 L 217.069336 152.258789 L 218.056641 148.283203 L 219.046875 145.880859 L 220.03418 155.455078 L 221.021484 152.285156 L 222.011719 135.588867 L 222.999023 135.899414 L 223.989258 136.195312 L 224.976562 121.831055 L 225.966797 139.570312 L 226.954102 121.722656 L 227.944336 148.491211 L 228.931641 141.662109 L 229.921875 139.461914 L 230.90918 149.25 L 231.896484 134.083008 L 232.886719 151.875 L 233.874023 147.114258 L 234.864258 149.179688 L 235.851562 156.978516 L 236.841797 154.892578 L 237.829102 150.93457 L 238.819336 148.913086 L 239.806641 159.266602 L 240.796875 168.919922 L 241.78418 174.987305 L 242.771484 183.703125 L 243.761719 177.37793 L 244.749023 186.47168 L 245.739258 187.321289 L 246.726562 209.217773 L 247.716797 200.06543 L 248.704102 192.650391 L 249.694336 216.331055 L 250.681641 205.702148 L 251.671875 225.896484 L 252.65918 194.871094 L 253.646484 215.917969 L 254.636719 219.767578 L 255.624023 222.799805 L 256.614258 214.904297 L 257.601562 235.78418 L 258.591797 227.633789 L 259.579102 236.736328 L 260.569336 245.516602 L 261.556641 239.724609 L 262.546875 233.900391 L 263.53418 244.242188 L 264.521484 242.847656 L 265.511719 249.834961 L 266.499023 237.861328 L 267.489258 256.113281 L 268.476562 215.557617 L 269.466797 222.243164 L 270.454102 232.412109 L 271.444336 223.12207 L 272.431641 230.24707 L 273.421875 239.651367 L 274.40918 220.104492 L 275.396484 214.060547 L 276.386719 216.893555 L 277.374023 229.303711 L 278.364258 211.637695 L 279.351562 231.515625 L 280.341797 196.488281 L 281.329102 203.748047 L 282.319336 206.988281 L 283.306641 203.806641 L 284.296875 192.436523 L 285.28418 185.475586 L 286.271484 171.527344 L 287.261719 180.568359 L 288.249023 174.152344 L 289.239258 178.705078 L 290.226562 186.079102 L 291.216797 167.279297 L 292.204102 176.742188 L 293.194336 174.424805 L 294.181641 176.220703 L 295.171875 162.735352 L 296.15918 180.462891 L 297.146484 144.09668 L 298.136719 155.396484 L 299.124023 153.600586 L 300.114258 147.477539 L 301.101562 145.977539 L 302.091797 148.280273 L 303.079102 121.933594 L 304.069336 132.052734 L 305.056641 151.335938 L 306.046875 142.160156 L 307.03418 152.970703 L 308.021484 153.020508 L 309.011719 151.526367 L 309.999023 156.515625 L 310.989258 155.458008 L 311.976562 154.564453 L 312.966797 159.026367 L 313.954102 165.342773 L 314.944336 159.949219 L 315.931641 154.655273 L 316.921875 160.136719 L 317.90918 164.745117 L 318.896484 164.777344 L 319.886719 168.972656 L 320.874023 182.182617 L 321.864258 168.058594 L 322.851562 162.541992 L 323.841797 197.077148 L 324.829102 175.297852 L 325.819336 190.520508 L 326.806641 202.910156 L 327.796875 201.041016 L 328.78418 195.155273 L 329.771484 213.65625 L 330.761719 200.449219 L 331.749023 199.661133 L 332.739258 213.193359 L 333.726562 205.092773 L 334.716797 208.49707 L 335.704102 223.245117 L 336.694336 193.831055 L 337.681641 230.695312 L 338.671875 235.016602 L 339.65918 228.641602 L 340.646484 226.289062 L 341.636719 243.741211 L 342.624023 237.37793 L 343.614258 242.709961 L 344.601562 226.886719 L 345.591797 231.038086 L 346.579102 233.868164 L 347.569336 217.341797 L 348.556641 237.213867 L 349.546875 221.021484 L 350.53418 232.998047 L 351.521484 220.989258 L 352.511719 236.390625 L 353.499023 230.657227 L 354.489258 218.43457 L 355.476562 227.800781 L 356.466797 217.245117 L 357.454102 206.891602 L 358.444336 203.923828 L 359.431641 215.991211 L 360.421875 215.557617 L 361.40918 208.731445 L 362.396484 200.745117 L 363.386719 191.106445 L 364.374023 201.489258 L 365.364258 190.558594 L 366.351562 190.863281 L 367.341797 167.419922 L 368.329102 184.426758 L 369.319336 167.633789 L 370.306641 178.488281 L 371.296875 175.617188 L 372.28418 168.638672 L 373.271484 172.851562 L 374.261719 171.738281 L 375.249023 158.191406 L 376.239258 163.675781 L 377.226562 157.623047 L 378.216797 164.90332 L 379.204102 168.401367 L 380.194336 167.704102 L 381.181641 154.839844 L 382.171875 172.664062 L 383.15918 160.59375 L 384.146484 154.582031 L 385.136719 162.676758 L 386.124023 152.220703 L 387.114258 163.022461 L 388.101562 166.50293 L 389.091797 165.987305 L 390.079102 141.849609 L 391.069336 159.541992 L 392.056641 171.618164 L 393.046875 167.05957 L 394.03418 180.793945 L 395.021484 181.567383 L 396.011719 162.272461 L 396.999023 168.899414 L 397.989258 178.212891 L 398.976562 180.521484 L 399.966797 164.375977 L 400.954102 185.135742 L 401.944336 189.515625 L 402.931641 182.185547 L 403.921875 174.726562 L 404.90918 198.46875 L 405.896484 187.201172 L 406.886719 200.569336 L 407.874023 188.642578 L 408.864258 197.422852 L 409.851562 210.178711 L 410.841797 199.740234 L 411.829102 208.166016 L 412.819336 196.666992 L 413.806641 205.025391 L 414.796875 233.859375 L 415.78418 215.232422 L 416.771484 229.001953 L 417.761719 210.038086 L 418.749023 209.100586 L 419.739258 210.014648 L 420.726562 223.555664 L 421.716797 225.788086 L 422.704102 211.397461 L 423.694336 218.472656 L 424.681641 216.697266 L 425.671875 204.178711 L 426.65918 220.177734 L 427.646484 212.698242 L 428.636719 203.378906 L 429.624023 220.939453 L 430.614258 233.258789 L 431.601562 220.289062 L 432.591797 235.655273 L 433.579102 220.582031 L 434.569336 196.444336 L 435.556641 193.151367 L 436.546875 209.373047 L 437.53418 204.316406 L 438.521484 201.767578 L 439.511719 214.338867 L 440.499023 205.672852 L 441.489258 203.742188 L 442.476562 179.373047 L 443.466797 183.272461 L 444.454102 202.148438 L 445.444336 181.49707 L 446.431641 178.303711 L 447.421875 196.772461 L 448.40918 180.333984 L 449.396484 184.007812 L 450.386719 161.941406 L 451.374023 166.016602 L 452.364258 188.52832 L 453.351562 180.076172 L 454.341797 168.193359 L 455.329102 160.086914 L 456.319336 170.285156 L 457.306641 170.264648 L 458.296875 181.412109 L 459.28418 172.250977 L 460.271484 163.294922 L 461.261719 173.838867 L 462.249023 172.78125 L 463.239258 158.961914 " transform="matrix(1.333333, 0, 0, 1.333333, 0, 0)"/>
<path fill="none" stroke-width="1.5" stroke-linecap="butt" stroke-linejoin="miter" stroke="rgb(0%, 0%, 0%)" stroke-opacity="1" stroke-miterlimit="2" d="M 68.771484 151.743164 L 69.761719 151.959961 L 70.749023 152.411133 L 71.739258 153.09375 L 72.726562 154.004883 L 73.716797 155.132812 L 74.704102 156.477539 L 75.694336 158.024414 L 76.681641 159.755859 L 77.671875 161.671875 L 78.65918 163.763672 L 79.646484 166.007812 L 80.636719 168.389648 L 81.624023 170.891602 L 82.614258 173.507812 L 83.601562 176.206055 L 84.591797 178.989258 L 85.579102 181.813477 L 86.569336 184.69043 L 87.556641 187.587891 L 88.546875 190.494141 L 89.53418 193.382812 L 90.521484 196.239258 L 91.511719 199.054688 L 92.499023 201.791016 L 93.489258 204.451172 L 94.476562 206.994141 L 95.466797 209.431641 L 96.454102 211.731445 L 97.444336 213.902344 L 98.431641 215.915039 L 99.421875 217.763672 L 100.40918 219.436523 L 101.396484 220.924805 L 102.386719 222.228516 L 103.374023 223.335938 L 104.364258 224.229492 L 105.351562 224.882812 L 106.341797 225.331055 L 107.329102 225.594727 L 108.319336 225.606445 L 109.306641 225.407227 L 110.296875 224.994141 L 111.28418 224.334961 L 112.271484 223.5 L 113.261719 222.46875 L 114.249023 221.229492 L 115.239258 219.852539 L 116.226562 218.267578 L 117.216797 216.524414 L 118.204102 214.628906 L 119.194336 212.589844 L 120.181641 210.442383 L 121.171875 208.189453 L 122.15918 205.848633 L 123.146484 203.393555 L 124.136719 200.856445 L 125.124023 198.287109 L 126.114258 195.723633 L 127.101562 193.130859 L 128.091797 190.482422 L 129.079102 187.866211 L 130.069336 185.299805 L 131.056641 182.786133 L 132.046875 180.304688 L 133.03418 177.911133 L 134.021484 175.564453 L 135.011719 173.34082 L 135.999023 171.246094 L 136.989258 169.248047 L 137.976562 167.411133 L 138.966797 165.74707 L 139.954102 164.264648 L 140.944336 162.972656 L 141.931641 161.850586 L 142.921875 160.833984 L 143.90918 160.045898 L 144.896484 159.433594 L 145.886719 158.991211 L 146.874023 158.780273 L 147.864258 158.709961 L 148.851562 158.920898 L 149.841797 159.304688 L 150.829102 159.867188 L 151.819336 160.59668 L 152.806641 161.493164 L 153.796875 162.5625 L 154.78418 163.828125 L 155.771484 165.246094 L 156.761719 166.842773 L 157.749023 168.539062 L 158.739258 170.373047 L 159.726562 172.31543 L 160.716797 174.304688 L 161.704102 176.452148 L 162.694336 178.634766 L 163.681641 180.864258 L 164.671875 183.166992 L 165.65918 185.607422 L 166.646484 188.006836 L 167.636719 190.379883 L 168.624023 192.802734 L 169.614258 195.09375 L 170.601562 197.367188 L 171.591797 199.587891 L 172.579102 201.805664 L 173.569336 203.856445 L 174.556641 205.880859 L 175.546875 207.849609 L 176.53418 209.598633 L 177.521484 211.303711 L 178.511719 212.844727 L 179.499023 214.201172 L 180.489258 215.416992 L 181.476562 216.489258 L 182.466797 217.394531 L 183.454102 218.15625 L 184.444336 218.648438 L 185.431641 218.994141 L 186.421875 219.210938 L 187.40918 219.175781 L 188.396484 218.982422 L 189.386719 218.642578 L 190.374023 218.124023 L 191.364258 217.426758 L 192.351562 216.591797 L 193.341797 215.625 L 194.329102 214.488281 L 195.319336 213.1875 L 196.306641 211.798828 L 197.296875 210.307617 L 198.28418 208.666992 L 199.271484 206.920898 L 200.261719 204.999023 L 201.249023 203.047852 L 202.239258 201.111328 L 203.226562 199.075195 L 204.216797 197.036133 L 205.204102 194.935547 L 206.194336 192.823242 L 207.181641 190.628906 L 208.171875 188.493164 L 209.15918 186.457031 L 210.146484 184.379883 L 211.136719 182.34668 L 212.124023 180.383789 L 213.114258 178.461914 L 214.101562 176.586914 L 215.091797 174.911133 L 216.079102 173.305664 L 217.069336 171.788086 L 218.056641 170.419922 L 219.046875 169.168945 L 220.03418 168.052734 L 221.021484 167.126953 L 222.011719 166.341797 L 222.999023 165.65332 L 223.989258 165.134766 L 224.976562 164.771484 L 225.966797 164.507812 L 226.954102 164.475586 L 227.944336 164.53418 L 228.931641 164.868164 L 229.921875 165.316406 L 230.90918 165.905273 L 231.896484 166.681641 L 232.886719 167.510742 L 233.874023 168.556641 L 234.864258 169.702148 L 235.851562 170.961914 L 236.841797 172.362305 L 237.829102 173.853516 L 238.819336 175.397461 L 239.806641 177.014648 L 240.796875 178.716797 L 241.78418 180.527344 L 242.771484 182.408203 L 243.761719 184.338867 L 244.749023 186.254883 L 245.739258 188.217773 L 246.726562 190.154297 L 247.716797 192.146484 L 248.704102 194.05957 L 249.694336 195.925781 L 250.681641 197.8125 L 251.671875 199.59668 L 252.65918 201.389648 L 253.646484 202.957031 L 254.636719 204.515625 L 255.624023 205.974609 L 256.614258 207.339844 L 257.601562 208.535156 L 258.591797 209.712891 L 259.579102 210.706055 L 260.569336 211.602539 L 261.556641 212.414062 L 262.546875 213.064453 L 263.53418 213.527344 L 264.521484 213.890625 L 265.511719 214.072266 L 266.499023 214.201172 L 267.489258 214.092773 L 268.476562 213.93457 L 269.466797 213.462891 L 270.454102 212.868164 L 271.444336 212.191406 L 272.431641 211.344727 L 273.421875 210.416016 L 274.40918 209.431641 L 275.396484 208.253906 L 276.386719 206.935547 L 277.374023 205.576172 L 278.364258 204.19043 L 279.351562 202.658203 L 280.341797 201.155273 L 281.329102 199.447266 L 282.319336 197.765625 L 283.306641 196.075195 L 284.296875 194.355469 L 285.28418 192.577148 L 286.271484 190.78418 L 287.261719 188.970703 L 288.249023 187.207031 L 289.239258 185.455078 L 290.226562 183.796875 L 291.216797 182.226562 L 292.204102 180.641602 L 293.194336 179.200195 L 294.181641 177.814453 L 295.171875 176.53418 L 296.15918 175.303711 L 297.146484 174.266602 L 298.136719 173.165039 L 299.124023 172.239258 L 300.114258 171.430664 L 301.101562 170.71582 L 302.091797 170.106445 L 303.079102 169.661133 L 304.069336 169.21875 L 305.056641 168.969727 L 306.046875 168.946289 L 307.03418 169.022461 L 308.021484 169.265625 L 309.011719 169.640625 L 309.999023 170.129883 L 310.989258 170.745117 L 311.976562 171.46875 L 312.966797 172.294922 L 313.954102 173.244141 L 314.944336 174.319336 L 315.931641 175.444336 L 316.921875 176.636719 L 317.90918 177.914062 L 318.896484 179.279297 L 319.886719 180.691406 L 320.874023 182.162109 L 321.864258 183.729492 L 322.851562 185.244141 L 323.841797 186.735352 L 324.829102 188.405273 L 325.819336 189.960938 L 326.806641 191.563477 L 327.796875 193.183594 L 328.78418 194.748047 L 329.771484 196.242188 L 330.761719 197.768555 L 331.749023 199.183594 L 332.739258 200.496094 L 333.726562 201.791016 L 334.716797 202.959961 L 335.704102 204.067383 L 336.694336 205.151367 L 337.681641 205.983398 L 338.671875 206.876953 L 339.65918 207.679688 L 340.646484 208.353516 L 341.636719 208.875 L 342.624023 209.34668 L 343.614258 209.698242 L 344.601562 209.941406 L 345.591797 209.973633 L 346.579102 209.920898 L 347.569336 209.768555 L 348.556641 209.414062 L 349.546875 209.050781 L 350.53418 208.517578 L 351.521484 207.928711 L 352.511719 207.166992 L 353.499023 206.390625 L 354.489258 205.514648 L 355.476562 204.498047 L 356.466797 203.443359 L 357.454102 202.268555 L 358.444336 201 L 359.431641 199.6875 L 360.421875 198.383789 L 361.40918 197.05957 L 362.396484 195.682617 L 363.386719 194.232422 L 364.374023 192.75293 L 365.364258 191.332031 L 366.351562 189.873047 L 367.341797 188.4375 L 368.329102 186.911133 L 369.319336 185.522461 L 370.306641 184.113281 L 371.296875 182.806641 L 372.28418 181.546875 L 373.271484 180.322266 L 374.261719 179.200195 L 375.249023 178.145508 L 376.239258 177.137695 L 377.226562 176.241211 L 378.216797 175.423828 L 379.204102 174.75 L 380.194336 174.172852 L 381.181641 173.707031 L 382.171875 173.288086 L 383.15918 173.085938 L 384.146484 172.936523 L 385.136719 172.863281 L 386.124023 172.939453 L 387.114258 173.0625 L 388.101562 173.334961 L 389.091797 173.736328 L 390.079102 174.216797 L 391.069336 174.688477 L 392.056641 175.330078 L 393.046875 176.094727 L 394.03418 176.944336 L 395.021484 177.914062 L 396.011719 178.957031 L 396.999023 179.947266 L 397.989258 181.019531 L 398.976562 182.182617 L 399.966797 183.398438 L 400.954102 184.567383 L 401.944336 185.853516 L 402.931641 187.145508 L 403.921875 188.425781 L 404.90918 189.667969 L 405.896484 190.983398 L 406.886719 192.225586 L 407.874023 193.5 L 408.864258 194.701172 L 409.851562 195.899414 L 410.841797 197.097656 L 411.829102 198.225586 L 412.819336 199.30957 L 413.806641 200.267578 L 414.796875 201.166992 L 415.78418 202.125 L 416.771484 202.930664 L 417.761719 203.695312 L 418.749023 204.28418 L 419.739258 204.782227 L 420.726562 205.189453 L 421.716797 205.579102 L 422.704102 205.860352 L 423.694336 205.992188 L 424.681641 206.044922 L 425.671875 206.006836 L 426.65918 205.810547 L 427.646484 205.599609 L 428.636719 205.248047 L 429.624023 204.788086 L 430.614258 204.331055 L 431.601562 203.856445 L 432.591797 203.241211 L 433.579102 202.617188 L 434.569336 201.867188 L 435.556641 200.961914 L 436.546875 199.977539 L 437.53418 199.010742 L 438.521484 197.985352 L 439.511719 196.924805 L 440.499023 195.914062 L 441.489258 194.830078 L 442.476562 193.737305 L 443.466797 192.530273 L 444.454102 191.337891 L 445.444336 190.227539 L 446.431641 189.038086 L 447.421875 187.880859 L 448.40918 186.826172 L 449.396484 185.748047 L 450.386719 184.719727 L 451.374023 183.641602 L 452.364258 182.630859 L 453.351562 181.795898 L 454.341797 180.996094 L 455.329102 180.19043 L 456.319336 179.431641 L 457.306641 178.790039 L 458.296875 178.236328 L 459.28418 177.808594 L 460.271484 177.427734 L 461.261719 177.108398 L 462.249023 176.926758 L 463.239258 176.791992 L 464.226562 176.695312 " transform="matrix(1.333333, 0, 0, 1.333333, 0, 0)"/>
<path fill-rule="nonzero" fill="rgb(100%, 100%, 100%)" fill-opacity="1" stroke-width="1" stroke-linecap="butt" stroke-linejoin="miter" stroke="rgb(0%, 0%, 0%)" stroke-opacity="1" stroke-miterlimit="2" d="M 423.999023 77.000977 L 477.999023 77.000977 L 477.999023 22.001953 L 423.999023 22.001953 Z M 423.999023 77.000977 " transform="matrix(1.333333, 0, 0, 1.333333, 0, 0)"/>
<path fill="none" stroke-width="1" stroke-linecap="butt" stroke-linejoin="miter" stroke="rgb(0%, 0%, 0%)" stroke-opacity="1" stroke-miterlimit="1.154701" d="M 68.771484 291.500977 L 68.771484 296.499023 " transform="matrix(1.333333, 0, 0, 1.333333, 0, 0)"/>
<path fill="none" stroke-width="1" stroke-linecap="butt" stroke-linejoin="miter" stroke="rgb(0%, 0%, 0%)" stroke-opacity="1" stroke-miterlimit="1.154701" d="M 266.499023 291.500977 L 266.499023 296.499023 " transform="matrix(1.333333, 0, 0, 1.333333, 0, 0)"/>
<path fill="none" stroke-width="1" stroke-linecap="butt" stroke-linejoin="miter" stroke="rgb(0%, 0%, 0%)" stroke-opacity="1" stroke-miterlimit="1.154701" d="M 464.226562 291.500977 L 464.226562 296.499023 " transform="matrix(1.333333, 0, 0, 1.333333, 0, 0)"/>
<path fill="none" stroke-width="1" stroke-linecap="butt" stroke-linejoin="miter" stroke="rgb(0%, 0%, 0%)" stroke-opacity="1" stroke-miterlimit="1.154701" d="M 48.500977 287.299805 L 43.5 287.299805 " transform="matrix(1.333333, 0, 0, 1.333333, 0, 0)"/>
<path fill="none" stroke-width="1" stroke-linecap="butt" stroke-linejoin="miter" stroke="rgb(0%, 0%, 0%)" stroke-opacity="1" stroke-miterlimit="1.154701" d="M 48.500977 190.473633 L 43.5 190.473633 " transform="matrix(1.333333, 0, 0, 1.333333, 0, 0)"/>
<path fill="none" stroke-width="1" stroke-linecap="butt" stroke-linejoin="miter" stroke="rgb(0%, 0%, 0%)" stroke-opacity="1" stroke-miterlimit="1.154701" d="M 48.500977 93.647461 L 43.5 93.647461 " transform="matrix(1.333333, 0, 0, 1.333333, 0, 0)"/>
<path fill="none" stroke-width="1.5" stroke-linecap="butt" stroke-linejoin="miter" stroke="rgb(100%, 0%, 0%)" stroke-opacity="1" stroke-miterlimit="2" d="M 429.805664 38.000977 L 449.806641 38.000977 " transform="matrix(1.333333, 0, 0, 1.333333, 0, 0)"/>
<path fill="none" stroke-width="1.5" stroke-linecap="butt" stroke-linejoin="miter" stroke="rgb(0%, 0%, 0%)" stroke-opacity="1" stroke-miterlimit="2" d="M 429.805664 60.999023 L 449.806641 60.999023 " transform="matrix(1.333333, 0, 0, 1.333333, 0, 0)"/>
<g fill="rgb(0%, 0%, 0%)" fill-opacity="1">
<use xlink:href="#glyph-10-0-b71c7254" x="606.407982" y="55.236267"/>
</g>
<g fill="rgb(0%, 0%, 0%)" fill-opacity="1">
<use xlink:href="#glyph-11-0-b71c7254" x="616.603715" y="58.969601"/>
</g>
<g fill="rgb(0%, 0%, 0%)" fill-opacity="1">
<use xlink:href="#glyph-12-0-b71c7254" x="606.408" y="86.522667"/>
</g>
<g fill="rgb(0%, 0%, 0%)" fill-opacity="1">
<use xlink:href="#glyph-13-0-b71c7254" x="613.669333" y="86.522667"/>
</g>
<g fill="rgb(0%, 0%, 0%)" fill-opacity="1">
<use xlink:href="#glyph-14-0-b71c7254" x="622.330666" y="86.522667"/>
</g>
<path fill="none" stroke-width="1" stroke-linecap="butt" stroke-linejoin="miter" stroke="rgb(0%, 0%, 0%)" stroke-opacity="1" stroke-miterlimit="1.154701" d="M 48.500977 291 L 484.5 291 " transform="matrix(1.333333, 0, 0, 1.333333, 0, 0)"/>
<path fill="none" stroke-width="1" stroke-linecap="butt" stroke-linejoin="miter" stroke="rgb(0%, 0%, 0%)" stroke-opacity="1" stroke-miterlimit="1.154701" d="M 48.999023 291.500977 L 48.999023 15.500977 " transform="matrix(1.333333, 0, 0, 1.333333, 0, 0)"/>
<path fill="none" stroke-width="1" stroke-linecap="butt" stroke-linejoin="miter" stroke="rgb(0%, 0%, 0%)" stroke-opacity="1" stroke-miterlimit="1.154701" d="M 48.500977 15.999023 L 484.5 15.999023 " transform="matrix(1.333333, 0, 0, 1.333333, 0, 0)"/>
<path fill="none" stroke-width="1" stroke-linecap="butt" stroke-linejoin="miter" stroke="rgb(0%, 0%, 0%)" stroke-opacity="1" stroke-miterlimit="1.154701" d="M 483.999023 291.500977 L 483.999023 15.500977 " transform="matrix(1.333333, 0, 0, 1.333333, 0, 0)"/>
</svg>
