<?xml version="1.0" encoding="UTF-8"?>
<svg id="Layer_1" xmlns="http://www.w3.org/2000/svg" version="1.1" viewBox="0 0 169.23 58.68">
  <!-- Generator: Adobe Illustrator 29.0.1, SVG Export Plug-In . SVG Version: 2.1.0 Build 192)  -->
  <defs>
    <style>
      .st0 {
        fill: #cc3b20;
      }
    </style>
  </defs>
  <path class="st0" d="M30.48.02c4.86-.19,9.71,1.28,14.19,3.49,2.3,1.14,4.38,2.52,6.27,4.22,1.18,1.07,2.35,2.16,3.45,3.31.89.92,1.91,1.41,3.18,1.44.82.02,1.41-.19,2.08-.8,1.33-1.29,1.7-1.56,2.33-2.17.25-.24.5-.47.76-.69,2.75-2.31,4.65-3.98,7.74-5.34,2.63-1.15,5.27-2.19,8.1-2.7,4.7-.84,9.37-.77,14,.45,5.27,1.39,9.94,3.83,13.78,7.75.73.75,1.51,1.45,2.25,2.18,1.62,1.61,4.35,1.6,5.99-.06.58-.59,1.09-1.25,1.68-1.83,4.43-4.39,9.69-7.18,15.83-8.39,5.12-1.01,10.18-.89,15.19.6,5.83,1.73,10.71,4.83,14.78,9.42,3.49,3.93,5.27,8.48,6.5,13.45.67,2.69.83,5.19.46,8.03-.67,5.22-2.41,10.23-5.81,14.38-1.81,2.21-3.91,4.31-6.23,5.98-6.15,4.43-13.11,6.38-20.71,5.85-5.93-.41-11.31-2.3-16.2-5.73-1.94-1.37-3.62-2.95-5.16-4.71-1.84-2.11-4.63-2.09-6.64-.09-1.75,1.74-3.53,3.51-5.53,4.92-5.54,3.9-11.76,5.79-18.57,5.7-4.73-.07-9.21-1.09-13.49-3.15-2.09-1.01-4.02-2.21-5.77-3.7-1.42-1.22-2.85-2.46-4.06-3.88-1.82-2.12-5.04-1.81-6.75.17-4.02,4.66-9.08,7.77-15.07,9.4-5.1,1.39-10.19,1.51-15.34.44-2.62-.54-5.11-1.46-7.52-2.67-2.71-1.36-5.03-3.18-7.28-5.16-2.72-2.39-4.42-5.42-6.18-8.49-1.43-2.49-2.07-5.15-2.57-7.89-.2-1.07-.13-2.18-.16-3.27-.01-.64.04-1.27.02-1.93-.09-3.27.43-6.37,1.71-9.25,1.48-3.33,3.23-6.6,5.83-9.25,3.42-3.48,7.38-6.21,11.97-7.88,1.69-.61,3.51-1.14,5.29-1.48C26.7.32,28.25,0,30.48.02ZM137.65,54.96c2.14-.06,5.23-.53,7.78-1.09,4.35-.97,8.1-3.21,11.43-6.11,2.95-2.58,5.16-5.84,6.51-9.41,2.52-6.71,2.47-13.44-1.14-19.92-1.74-3.12-3.76-5.9-6.59-8.18-4.63-3.72-9.83-5.69-15.7-6.03-5.69-.34-10.99,1.01-15.84,3.95-2.44,1.48-4.6,3.35-6.46,5.52-3.13,3.62-9.44,3.34-12.33-.04-3.13-3.66-6.93-6.24-11.44-7.86-6.24-2.25-12.5-2.15-18.71.01-2.82.98-5.49,2.37-7.76,4.38-1.3,1.15-2.62,2.29-3.77,3.58-3.11,3.47-8.61,3.93-12.67-.38-2.17-2.3-4.45-4.35-7.24-5.87-3.46-1.88-7.12-3-11.04-3.24-3.96-.25-7.78.24-11.56,1.59-5.77,2.05-10.17,5.77-13.46,10.75-2.52,3.81-3.71,8.15-3.6,12.75.13,5.33,1.4,10.24,4.78,14.61,3.44,4.45,7.67,7.58,12.96,9.39,4.2,1.44,8.49,1.66,12.84,1.11,4.15-.53,7.9-2.15,11.37-4.39,1.35-.87,2.49-2.09,3.7-3.18,1.05-.94,1.98-2.04,3.1-2.88,3.21-2.37,7.67-1.99,10.51.82,1.03,1.02,1.96,2.15,3.05,3.09,3.12,2.71,6.65,4.68,10.67,5.78,4.6,1.25,9.22,1.5,13.86.35,5.44-1.35,10.18-3.95,13.89-8.24.54-.62,1.1-1.28,1.79-1.71,4.29-2.63,8.89-1.71,11.66,1.78.81,1.02,1.75,1.98,2.8,2.75,1.84,1.35,3.66,2.79,5.87,3.56,2.28.8,4.44,1.93,6.85,2.35,0-.01,1.74.47,3.89.41Z"/>
  <path class="st0" d="M40.71,40.28c1.24,0,2.28.02,3.33,0,.26,0,.92,0,.92,0v3.24s-.95,0-2.31.02c-3.27.02-6.55-.04-9.82.14-1.47.08-2.95.34-4.43.24-2.39-.17-4.5-1.06-6.51-2.37-3.67-2.4-5.22-5.98-5.53-10.1-.27-3.56-.08-7.11,1.74-10.41,1.48-2.67,3.71-4.47,6.44-5.44,4.16-1.48,8.44-1.6,12.55.36,2.66,1.27,4.85,3.11,5.94,5.92,2.39,6.19,2.27,12.16-1.82,17.71-.13.17-.25.35-.5.7ZM40.7,29.35c.09-3.08-.84-5.8-2.72-8.19-.39-.5-.84-.97-1.32-1.4-3-2.66-8.5-2.48-11.48-.84-2.63,1.45-3.87,3.98-4.56,6.57-.94,3.54-.77,7.13,1.21,10.49,1.12,1.9,2.5,3.44,4.56,4.19,1.74.63,3.58.8,5.45.61,4.57-.48,6.91-3.51,8.18-7.12.47-1.35.47-2.88.68-4.32Z"/>
  <path class="st0" d="M91.51,23.36l-.02-.34c-.31-2.55-1.67-4.19-4.18-4.87-2.43-.66-4.85-.62-7.24.07-1.79.52-2.92,2.03-3.02,3.72-.1,1.61.49,2.91,1.99,3.45,1.89.68,3.88,1.12,5.83,1.6,1.65.4,3.33.7,5,1.06,2.04.44,3.76,1.52,5.18,2.97,1.19,1.21,1.29,2.88,1.32,4.53.06,4.29-3.67,7.23-7.28,7.99-2.82.6-5.7.7-8.52.01-3.19-.77-6.01-2.18-7.28-5.48-.44-1.14-.6-2.4-.86-3.61-.07-.31-.13-.8-.13-.8h4.31s.02.35.07.61.2.99.31,1.48c.64,2.88,2.57,4.65,5.52,4.98,2.07.23,4.13.21,6.17-.37,2.37-.67,3.58-2.38,3.64-4.44.07-2.03-1.08-3.62-3.29-4.19-2.22-.58-4.49-1-6.75-1.44-2.27-.45-4.49-1.06-6.52-2.17-1.25-.69-2.08-1.81-2.46-3.21-.77-2.78-.34-5.37,1.7-7.44,1.49-1.51,3.48-2.39,5.59-2.61,2.05-.21,4.16-.29,6.2-.03,2.3.29,4.65.8,6.28,2.76,1.14,1.37,2.25,2.77,2.53,4.61.06.38.11,1.15.11,1.15h-4.19Z"/>
  <path class="st0" d="M132.96,25.57c-.01,1.38-.01,1.39-.01,1.39,3.69,0,13.73,0,13.73,0v1.25s.01.69.01.69v1.15c-3.79-.03-8.74-.01-12.53,0-1.21,0,.38-.01-1.23-.01.03,2.72.03,7.83.01,10.55,1.16,0,10.74,0,14.89,0v3.03s-18.74.05-18.97.04c0-3.95.01-7.86,0-11.68-.02-5.21.03-10.39,0-15.59,0-.61,0-1.15,0-1.15,0,0,.6,0,1.13,0,5.49,0,17.84,0,17.84,0,0,.62-.02.01,0,1.23,0,.14,0,.28,0,.42,0,1.44,0,.42,0,1.44-3.97,0-10.92,0-14.89,0"/>
  <path class="st0" d="M65.49,26.41l.53,3.09-16.03,2.75s-.2-1.11-.27-1.55c-.07-.49-.27-1.54-.27-1.54l16.03-2.75Z"/>
  <rect class="st0" x="103" y="27.81" width="16.26" height="3.14" transform="translate(-3.37 19.24) rotate(-9.75)"/>
</svg>